M48
; DRILL file {KiCad 8.0.8-8.0.8-0~ubuntu24.04.1} date 2025-08-12T19:22:28-0400
; FORMAT={-:-/ absolute / metric / decimal}
; #@! TF.CreationDate,2025-08-12T19:22:28-04:00
; #@! TF.GenerationSoftware,Kicad,Pcbnew,8.0.8-8.0.8-0~ubuntu24.04.1
; #@! TF.FileFunction,Plated,1,4,PTH
FMAT,2
METRIC
; #@! TA.AperFunction,Plated,PTH,ViaDrill
T1C0.300
; #@! TA.AperFunction,Plated,PTH,ViaDrill
T2C0.350
; #@! TA.AperFunction,Plated,PTH,ViaDrill
T3C0.400
; #@! TA.AperFunction,Plated,PTH,ComponentDrill
T4C0.711
; #@! TA.AperFunction,Plated,PTH,ComponentDrill
T5C0.838
; #@! TA.AperFunction,Plated,PTH,ComponentDrill
T6C0.991
; #@! TA.AperFunction,Plated,PTH,ComponentDrill
T7C1.000
%
G90
G05
T1
X73.1Y-87.34
X74.184Y-50.832
X75.2Y-36.608
X76.978Y-91.106
X85.36Y-42.45
X88.154Y-45.03
X88.154Y-76.867
X88.154Y-91.218
X88.662Y-52.864
X89.424Y-67.088
X93.488Y-76.87
X95.639Y-78.428
X96.539Y-55.928
X96.852Y-52.715
X96.897Y-64.06
X96.917Y-68.612
X97.839Y-53.597
X98.539Y-47.328
X98.839Y-52.483
X99.139Y-61.928
X99.539Y-49.628
X99.739Y-53.498
X100.139Y-61.228
X100.439Y-54.428
X100.939Y-60.428
X101.039Y-55.228
X101.339Y-47.728
X101.439Y-52.728
X102.639Y-52.728
X102.639Y-77.028
X103.648Y-58.452
X103.939Y-52.728
X104.401Y-57.191
X105.039Y-60.628
X105.102Y-52.591
X106.239Y-56.828
X106.468Y-31.56
X107.039Y-56.128
X107.426Y-53.615
X108.139Y-55.428
X109.039Y-54.728
X109.214Y-53.153
X109.739Y-50.128
X109.739Y-51.128
X109.839Y-45.428
X109.839Y-46.628
X109.839Y-47.828
X109.839Y-49.028
X110.439Y-68.686
X110.506Y-62.008
X111.039Y-53.228
X111.739Y-63.628
X111.903Y-61.627
X112.067Y-45.792
X112.139Y-53.428
X113.739Y-50.528
X113.939Y-53.328
X114.039Y-74.228
X114.539Y-52.528
X114.824Y-87.408
X114.926Y-64.741
X115.309Y-65.891
X115.387Y-58.628
X116.039Y-59.428
X116.685Y-65.66
X117.166Y-58.846
X118.039Y-58.628
X118.439Y-59.828
X118.639Y-60.828
X118.839Y-63.828
X118.839Y-69.528
X120.117Y-48.41
X120.285Y-75.216
X120.639Y-66.626
X120.839Y-62.028
X121.639Y-66.428
X121.917Y-53.45
X122.839Y-66.228
X123.189Y-53.578
X123.279Y-56.828
X123.587Y-63.659
X123.639Y-51.828
X123.997Y-49.786
X124.039Y-55.628
X124.984Y-36.608
X125.139Y-59.028
X125.139Y-62.828
X125.689Y-51.176
X125.777Y-49.718
X125.839Y-54.88
X126.439Y-56.928
X127.121Y-49.71
X128.539Y-55.028
X128.639Y-49.718
X128.639Y-53.228
X135.144Y-36.608
X135.144Y-87.408
T2
X88.916Y-71.152
X100.854Y-89.44
T3
X79.264Y-79.788
T4
X132.299Y-54.028
X132.299Y-56.028
X132.299Y-58.028
X132.299Y-60.028
X132.299Y-62.028
X132.299Y-64.028
X132.299Y-66.028
X132.299Y-68.028
X134.839Y-54.028
X134.839Y-56.028
X134.839Y-58.028
X134.839Y-60.028
X134.839Y-62.028
X134.839Y-64.028
X134.839Y-66.028
X134.839Y-68.028
T5
X95.372Y-37.226
X95.372Y-39.726
X97.372Y-37.226
X97.372Y-39.726
X99.372Y-37.226
X99.372Y-39.726
X101.372Y-37.226
X101.372Y-39.726
X103.372Y-37.226
X103.372Y-39.726
X105.372Y-37.226
X105.372Y-39.726
X107.372Y-37.226
X107.372Y-39.726
X109.372Y-37.226
X109.372Y-39.726
X111.372Y-37.226
X111.372Y-39.726
X113.372Y-37.226
X113.372Y-39.726
X115.372Y-37.226
X115.372Y-39.726
X117.372Y-37.226
X117.372Y-39.726
T6
X69.104Y-77.796
X69.104Y-80.296
X126.839Y-39.028
X129.339Y-39.028
X131.839Y-39.028
X135.779Y-77.248
X135.779Y-79.748
T7
X67.199Y-53.753
X67.199Y-56.293
X67.199Y-58.833
X67.199Y-61.373
X67.199Y-63.913
X67.199Y-66.453
X68.596Y-40.03
X68.596Y-42.53
X68.596Y-45.03
X68.596Y-47.53
X75.812Y-62.345
X75.812Y-57.265
X75.812Y-59.805
X75.812Y-64.885
X75.812Y-67.425
X78.352Y-57.265
X78.352Y-59.805
X78.352Y-64.885
X78.352Y-67.425
X78.352Y-62.345
X79.384Y-30.512
X81.884Y-30.512
X84.384Y-30.512
X86.884Y-30.512
X90.44Y-47.488
X90.44Y-50.028
X90.44Y-52.568
M30
