%TF.GenerationSoftware,KiCad,Pcbnew,8.0.8-8.0.8-0~ubuntu24.04.1*%
%TF.CreationDate,2025-08-12T19:22:29-04:00*%
%TF.ProjectId,mainboard,6d61696e-626f-4617-9264-2e6b69636164,rev?*%
%TF.SameCoordinates,Original*%
%TF.FileFunction,Drillmap*%
%TF.FilePolarity,Positive*%
%FSLAX45Y45*%
G04 Gerber Fmt 4.5, Leading zero omitted, Abs format (unit mm)*
G04 Created by KiCad (PCBNEW 8.0.8-8.0.8-0~ubuntu24.04.1) date 2025-08-12 19:22:29*
%MOMM*%
%LPD*%
G01*
G04 APERTURE LIST*
%ADD10C,0.050000*%
%ADD11C,0.010000*%
%ADD12C,0.200000*%
%ADD13C,0.100000*%
%ADD14C,0.430000*%
G04 APERTURE END LIST*
D10*
X6704000Y-2721000D02*
X14101800Y-2721000D01*
X6504000Y-9429800D02*
X6704000Y-9629800D01*
X14301800Y-9429800D02*
X14101800Y-9629800D01*
X6704000Y-9629800D02*
X14101800Y-9629800D01*
X6504000Y-2921000D02*
X6704000Y-2721000D01*
X14301800Y-2921000D02*
X14101800Y-2721000D01*
X6504000Y-2921000D02*
X6504000Y-9429800D01*
X14301800Y-2921000D02*
X14301800Y-9429800D01*
D11*
X7545400Y-9325000D02*
X7545400Y-9266580D01*
X8409000Y-9325000D02*
X8409000Y-9266580D01*
X7545400Y-8944000D02*
X7545400Y-8885580D01*
X8409000Y-8944000D02*
X8409000Y-8885580D01*
D12*
D13*
X7514920Y-8855100D02*
X7575880Y-8916060D01*
X7575880Y-8855100D02*
X7514920Y-8916060D01*
X7514920Y-8913520D02*
X7575880Y-8974480D01*
X7575880Y-8913520D02*
X7514920Y-8974480D01*
X7514920Y-9236100D02*
X7575880Y-9297060D01*
X7575880Y-9236100D02*
X7514920Y-9297060D01*
X7514920Y-9294520D02*
X7575880Y-9355480D01*
X7575880Y-9294520D02*
X7514920Y-9355480D01*
X8378520Y-8855100D02*
X8439480Y-8916060D01*
X8439480Y-8855100D02*
X8378520Y-8916060D01*
X8378520Y-8913520D02*
X8439480Y-8974480D01*
X8439480Y-8913520D02*
X8378520Y-8974480D01*
X8378520Y-9236100D02*
X8439480Y-9297060D01*
X8439480Y-9236100D02*
X8378520Y-9297060D01*
X8378520Y-9294520D02*
X8439480Y-9355480D01*
X8439480Y-9294520D02*
X8378520Y-9355480D01*
D14*
X7176200Y-3178200D02*
G75*
G02*
X6746200Y-3178200I-215000J0D01*
G01*
X6746200Y-3178200D02*
G75*
G02*
X7176200Y-3178200I215000J0D01*
G01*
X7176200Y-9172600D02*
G75*
G02*
X6746200Y-9172600I-215000J0D01*
G01*
X6746200Y-9172600D02*
G75*
G02*
X7176200Y-9172600I215000J0D01*
G01*
X14059600Y-3178200D02*
G75*
G02*
X13629600Y-3178200I-215000J0D01*
G01*
X13629600Y-3178200D02*
G75*
G02*
X14059600Y-3178200I215000J0D01*
G01*
X14059600Y-9172600D02*
G75*
G02*
X13629600Y-9172600I-215000J0D01*
G01*
X13629600Y-9172600D02*
G75*
G02*
X14059600Y-9172600I215000J0D01*
G01*
D12*
X6762277Y-9943784D02*
X6762277Y-9743784D01*
X6762277Y-9743784D02*
X6809896Y-9743784D01*
X6809896Y-9743784D02*
X6838467Y-9753308D01*
X6838467Y-9753308D02*
X6857515Y-9772355D01*
X6857515Y-9772355D02*
X6867039Y-9791403D01*
X6867039Y-9791403D02*
X6876562Y-9829498D01*
X6876562Y-9829498D02*
X6876562Y-9858070D01*
X6876562Y-9858070D02*
X6867039Y-9896165D01*
X6867039Y-9896165D02*
X6857515Y-9915212D01*
X6857515Y-9915212D02*
X6838467Y-9934260D01*
X6838467Y-9934260D02*
X6809896Y-9943784D01*
X6809896Y-9943784D02*
X6762277Y-9943784D01*
X6962277Y-9943784D02*
X6962277Y-9810450D01*
X6962277Y-9848546D02*
X6971801Y-9829498D01*
X6971801Y-9829498D02*
X6981324Y-9819974D01*
X6981324Y-9819974D02*
X7000372Y-9810450D01*
X7000372Y-9810450D02*
X7019420Y-9810450D01*
X7086086Y-9943784D02*
X7086086Y-9810450D01*
X7086086Y-9743784D02*
X7076562Y-9753308D01*
X7076562Y-9753308D02*
X7086086Y-9762831D01*
X7086086Y-9762831D02*
X7095610Y-9753308D01*
X7095610Y-9753308D02*
X7086086Y-9743784D01*
X7086086Y-9743784D02*
X7086086Y-9762831D01*
X7209896Y-9943784D02*
X7190848Y-9934260D01*
X7190848Y-9934260D02*
X7181324Y-9915212D01*
X7181324Y-9915212D02*
X7181324Y-9743784D01*
X7314658Y-9943784D02*
X7295610Y-9934260D01*
X7295610Y-9934260D02*
X7286086Y-9915212D01*
X7286086Y-9915212D02*
X7286086Y-9743784D01*
X7543229Y-9943784D02*
X7543229Y-9743784D01*
X7543229Y-9743784D02*
X7609896Y-9886641D01*
X7609896Y-9886641D02*
X7676562Y-9743784D01*
X7676562Y-9743784D02*
X7676562Y-9943784D01*
X7857515Y-9943784D02*
X7857515Y-9839022D01*
X7857515Y-9839022D02*
X7847991Y-9819974D01*
X7847991Y-9819974D02*
X7828943Y-9810450D01*
X7828943Y-9810450D02*
X7790848Y-9810450D01*
X7790848Y-9810450D02*
X7771801Y-9819974D01*
X7857515Y-9934260D02*
X7838467Y-9943784D01*
X7838467Y-9943784D02*
X7790848Y-9943784D01*
X7790848Y-9943784D02*
X7771801Y-9934260D01*
X7771801Y-9934260D02*
X7762277Y-9915212D01*
X7762277Y-9915212D02*
X7762277Y-9896165D01*
X7762277Y-9896165D02*
X7771801Y-9877117D01*
X7771801Y-9877117D02*
X7790848Y-9867593D01*
X7790848Y-9867593D02*
X7838467Y-9867593D01*
X7838467Y-9867593D02*
X7857515Y-9858070D01*
X7952753Y-9810450D02*
X7952753Y-10010450D01*
X7952753Y-9819974D02*
X7971801Y-9810450D01*
X7971801Y-9810450D02*
X8009896Y-9810450D01*
X8009896Y-9810450D02*
X8028943Y-9819974D01*
X8028943Y-9819974D02*
X8038467Y-9829498D01*
X8038467Y-9829498D02*
X8047991Y-9848546D01*
X8047991Y-9848546D02*
X8047991Y-9905689D01*
X8047991Y-9905689D02*
X8038467Y-9924736D01*
X8038467Y-9924736D02*
X8028943Y-9934260D01*
X8028943Y-9934260D02*
X8009896Y-9943784D01*
X8009896Y-9943784D02*
X7971801Y-9943784D01*
X7971801Y-9943784D02*
X7952753Y-9934260D01*
X8133705Y-9924736D02*
X8143229Y-9934260D01*
X8143229Y-9934260D02*
X8133705Y-9943784D01*
X8133705Y-9943784D02*
X8124182Y-9934260D01*
X8124182Y-9934260D02*
X8133705Y-9924736D01*
X8133705Y-9924736D02*
X8133705Y-9943784D01*
X8133705Y-9819974D02*
X8143229Y-9829498D01*
X8143229Y-9829498D02*
X8133705Y-9839022D01*
X8133705Y-9839022D02*
X8124182Y-9829498D01*
X8124182Y-9829498D02*
X8133705Y-9819974D01*
X8133705Y-9819974D02*
X8133705Y-9839022D01*
D13*
X6440540Y-10241820D02*
X6501500Y-10302780D01*
X6501500Y-10241820D02*
X6440540Y-10302780D01*
D12*
X6800372Y-10163784D02*
X6819420Y-10163784D01*
X6819420Y-10163784D02*
X6838467Y-10173308D01*
X6838467Y-10173308D02*
X6847991Y-10182831D01*
X6847991Y-10182831D02*
X6857515Y-10201879D01*
X6857515Y-10201879D02*
X6867039Y-10239974D01*
X6867039Y-10239974D02*
X6867039Y-10287593D01*
X6867039Y-10287593D02*
X6857515Y-10325689D01*
X6857515Y-10325689D02*
X6847991Y-10344736D01*
X6847991Y-10344736D02*
X6838467Y-10354260D01*
X6838467Y-10354260D02*
X6819420Y-10363784D01*
X6819420Y-10363784D02*
X6800372Y-10363784D01*
X6800372Y-10363784D02*
X6781324Y-10354260D01*
X6781324Y-10354260D02*
X6771801Y-10344736D01*
X6771801Y-10344736D02*
X6762277Y-10325689D01*
X6762277Y-10325689D02*
X6752753Y-10287593D01*
X6752753Y-10287593D02*
X6752753Y-10239974D01*
X6752753Y-10239974D02*
X6762277Y-10201879D01*
X6762277Y-10201879D02*
X6771801Y-10182831D01*
X6771801Y-10182831D02*
X6781324Y-10173308D01*
X6781324Y-10173308D02*
X6800372Y-10163784D01*
X6952753Y-10344736D02*
X6962277Y-10354260D01*
X6962277Y-10354260D02*
X6952753Y-10363784D01*
X6952753Y-10363784D02*
X6943229Y-10354260D01*
X6943229Y-10354260D02*
X6952753Y-10344736D01*
X6952753Y-10344736D02*
X6952753Y-10363784D01*
X7133705Y-10163784D02*
X7095610Y-10163784D01*
X7095610Y-10163784D02*
X7076562Y-10173308D01*
X7076562Y-10173308D02*
X7067039Y-10182831D01*
X7067039Y-10182831D02*
X7047991Y-10211403D01*
X7047991Y-10211403D02*
X7038467Y-10249498D01*
X7038467Y-10249498D02*
X7038467Y-10325689D01*
X7038467Y-10325689D02*
X7047991Y-10344736D01*
X7047991Y-10344736D02*
X7057515Y-10354260D01*
X7057515Y-10354260D02*
X7076562Y-10363784D01*
X7076562Y-10363784D02*
X7114658Y-10363784D01*
X7114658Y-10363784D02*
X7133705Y-10354260D01*
X7133705Y-10354260D02*
X7143229Y-10344736D01*
X7143229Y-10344736D02*
X7152753Y-10325689D01*
X7152753Y-10325689D02*
X7152753Y-10278070D01*
X7152753Y-10278070D02*
X7143229Y-10259022D01*
X7143229Y-10259022D02*
X7133705Y-10249498D01*
X7133705Y-10249498D02*
X7114658Y-10239974D01*
X7114658Y-10239974D02*
X7076562Y-10239974D01*
X7076562Y-10239974D02*
X7057515Y-10249498D01*
X7057515Y-10249498D02*
X7047991Y-10259022D01*
X7047991Y-10259022D02*
X7038467Y-10278070D01*
X7343229Y-10363784D02*
X7228943Y-10363784D01*
X7286086Y-10363784D02*
X7286086Y-10163784D01*
X7286086Y-10163784D02*
X7267039Y-10192355D01*
X7267039Y-10192355D02*
X7247991Y-10211403D01*
X7247991Y-10211403D02*
X7228943Y-10220927D01*
X7467039Y-10163784D02*
X7486086Y-10163784D01*
X7486086Y-10163784D02*
X7505134Y-10173308D01*
X7505134Y-10173308D02*
X7514658Y-10182831D01*
X7514658Y-10182831D02*
X7524182Y-10201879D01*
X7524182Y-10201879D02*
X7533705Y-10239974D01*
X7533705Y-10239974D02*
X7533705Y-10287593D01*
X7533705Y-10287593D02*
X7524182Y-10325689D01*
X7524182Y-10325689D02*
X7514658Y-10344736D01*
X7514658Y-10344736D02*
X7505134Y-10354260D01*
X7505134Y-10354260D02*
X7486086Y-10363784D01*
X7486086Y-10363784D02*
X7467039Y-10363784D01*
X7467039Y-10363784D02*
X7447991Y-10354260D01*
X7447991Y-10354260D02*
X7438467Y-10344736D01*
X7438467Y-10344736D02*
X7428943Y-10325689D01*
X7428943Y-10325689D02*
X7419420Y-10287593D01*
X7419420Y-10287593D02*
X7419420Y-10239974D01*
X7419420Y-10239974D02*
X7428943Y-10201879D01*
X7428943Y-10201879D02*
X7438467Y-10182831D01*
X7438467Y-10182831D02*
X7447991Y-10173308D01*
X7447991Y-10173308D02*
X7467039Y-10163784D01*
X7619420Y-10363784D02*
X7619420Y-10230450D01*
X7619420Y-10249498D02*
X7628943Y-10239974D01*
X7628943Y-10239974D02*
X7647991Y-10230450D01*
X7647991Y-10230450D02*
X7676563Y-10230450D01*
X7676563Y-10230450D02*
X7695610Y-10239974D01*
X7695610Y-10239974D02*
X7705134Y-10259022D01*
X7705134Y-10259022D02*
X7705134Y-10363784D01*
X7705134Y-10259022D02*
X7714658Y-10239974D01*
X7714658Y-10239974D02*
X7733705Y-10230450D01*
X7733705Y-10230450D02*
X7762277Y-10230450D01*
X7762277Y-10230450D02*
X7781324Y-10239974D01*
X7781324Y-10239974D02*
X7790848Y-10259022D01*
X7790848Y-10259022D02*
X7790848Y-10363784D01*
X7886086Y-10363784D02*
X7886086Y-10230450D01*
X7886086Y-10249498D02*
X7895610Y-10239974D01*
X7895610Y-10239974D02*
X7914658Y-10230450D01*
X7914658Y-10230450D02*
X7943229Y-10230450D01*
X7943229Y-10230450D02*
X7962277Y-10239974D01*
X7962277Y-10239974D02*
X7971801Y-10259022D01*
X7971801Y-10259022D02*
X7971801Y-10363784D01*
X7971801Y-10259022D02*
X7981324Y-10239974D01*
X7981324Y-10239974D02*
X8000372Y-10230450D01*
X8000372Y-10230450D02*
X8028943Y-10230450D01*
X8028943Y-10230450D02*
X8047991Y-10239974D01*
X8047991Y-10239974D02*
X8057515Y-10259022D01*
X8057515Y-10259022D02*
X8057515Y-10363784D01*
X8447991Y-10154260D02*
X8276563Y-10411403D01*
X8705134Y-10163784D02*
X8724182Y-10163784D01*
X8724182Y-10163784D02*
X8743229Y-10173308D01*
X8743229Y-10173308D02*
X8752753Y-10182831D01*
X8752753Y-10182831D02*
X8762277Y-10201879D01*
X8762277Y-10201879D02*
X8771801Y-10239974D01*
X8771801Y-10239974D02*
X8771801Y-10287593D01*
X8771801Y-10287593D02*
X8762277Y-10325689D01*
X8762277Y-10325689D02*
X8752753Y-10344736D01*
X8752753Y-10344736D02*
X8743229Y-10354260D01*
X8743229Y-10354260D02*
X8724182Y-10363784D01*
X8724182Y-10363784D02*
X8705134Y-10363784D01*
X8705134Y-10363784D02*
X8686087Y-10354260D01*
X8686087Y-10354260D02*
X8676563Y-10344736D01*
X8676563Y-10344736D02*
X8667039Y-10325689D01*
X8667039Y-10325689D02*
X8657515Y-10287593D01*
X8657515Y-10287593D02*
X8657515Y-10239974D01*
X8657515Y-10239974D02*
X8667039Y-10201879D01*
X8667039Y-10201879D02*
X8676563Y-10182831D01*
X8676563Y-10182831D02*
X8686087Y-10173308D01*
X8686087Y-10173308D02*
X8705134Y-10163784D01*
X8857515Y-10344736D02*
X8867039Y-10354260D01*
X8867039Y-10354260D02*
X8857515Y-10363784D01*
X8857515Y-10363784D02*
X8847991Y-10354260D01*
X8847991Y-10354260D02*
X8857515Y-10344736D01*
X8857515Y-10344736D02*
X8857515Y-10363784D01*
X8990848Y-10163784D02*
X9009896Y-10163784D01*
X9009896Y-10163784D02*
X9028944Y-10173308D01*
X9028944Y-10173308D02*
X9038468Y-10182831D01*
X9038468Y-10182831D02*
X9047991Y-10201879D01*
X9047991Y-10201879D02*
X9057515Y-10239974D01*
X9057515Y-10239974D02*
X9057515Y-10287593D01*
X9057515Y-10287593D02*
X9047991Y-10325689D01*
X9047991Y-10325689D02*
X9038468Y-10344736D01*
X9038468Y-10344736D02*
X9028944Y-10354260D01*
X9028944Y-10354260D02*
X9009896Y-10363784D01*
X9009896Y-10363784D02*
X8990848Y-10363784D01*
X8990848Y-10363784D02*
X8971801Y-10354260D01*
X8971801Y-10354260D02*
X8962277Y-10344736D01*
X8962277Y-10344736D02*
X8952753Y-10325689D01*
X8952753Y-10325689D02*
X8943229Y-10287593D01*
X8943229Y-10287593D02*
X8943229Y-10239974D01*
X8943229Y-10239974D02*
X8952753Y-10201879D01*
X8952753Y-10201879D02*
X8962277Y-10182831D01*
X8962277Y-10182831D02*
X8971801Y-10173308D01*
X8971801Y-10173308D02*
X8990848Y-10163784D01*
X9133706Y-10182831D02*
X9143229Y-10173308D01*
X9143229Y-10173308D02*
X9162277Y-10163784D01*
X9162277Y-10163784D02*
X9209896Y-10163784D01*
X9209896Y-10163784D02*
X9228944Y-10173308D01*
X9228944Y-10173308D02*
X9238468Y-10182831D01*
X9238468Y-10182831D02*
X9247991Y-10201879D01*
X9247991Y-10201879D02*
X9247991Y-10220927D01*
X9247991Y-10220927D02*
X9238468Y-10249498D01*
X9238468Y-10249498D02*
X9124182Y-10363784D01*
X9124182Y-10363784D02*
X9247991Y-10363784D01*
X9419420Y-10230450D02*
X9419420Y-10363784D01*
X9371801Y-10154260D02*
X9324182Y-10297117D01*
X9324182Y-10297117D02*
X9447991Y-10297117D01*
X9562277Y-10163784D02*
X9581325Y-10163784D01*
X9581325Y-10163784D02*
X9600372Y-10173308D01*
X9600372Y-10173308D02*
X9609896Y-10182831D01*
X9609896Y-10182831D02*
X9619420Y-10201879D01*
X9619420Y-10201879D02*
X9628944Y-10239974D01*
X9628944Y-10239974D02*
X9628944Y-10287593D01*
X9628944Y-10287593D02*
X9619420Y-10325689D01*
X9619420Y-10325689D02*
X9609896Y-10344736D01*
X9609896Y-10344736D02*
X9600372Y-10354260D01*
X9600372Y-10354260D02*
X9581325Y-10363784D01*
X9581325Y-10363784D02*
X9562277Y-10363784D01*
X9562277Y-10363784D02*
X9543229Y-10354260D01*
X9543229Y-10354260D02*
X9533706Y-10344736D01*
X9533706Y-10344736D02*
X9524182Y-10325689D01*
X9524182Y-10325689D02*
X9514658Y-10287593D01*
X9514658Y-10287593D02*
X9514658Y-10239974D01*
X9514658Y-10239974D02*
X9524182Y-10201879D01*
X9524182Y-10201879D02*
X9533706Y-10182831D01*
X9533706Y-10182831D02*
X9543229Y-10173308D01*
X9543229Y-10173308D02*
X9562277Y-10163784D01*
X9705134Y-10163784D02*
X9705134Y-10201879D01*
X9781325Y-10163784D02*
X9781325Y-10201879D01*
X10076563Y-10439974D02*
X10067039Y-10430450D01*
X10067039Y-10430450D02*
X10047991Y-10401879D01*
X10047991Y-10401879D02*
X10038468Y-10382831D01*
X10038468Y-10382831D02*
X10028944Y-10354260D01*
X10028944Y-10354260D02*
X10019420Y-10306641D01*
X10019420Y-10306641D02*
X10019420Y-10268546D01*
X10019420Y-10268546D02*
X10028944Y-10220927D01*
X10028944Y-10220927D02*
X10038468Y-10192355D01*
X10038468Y-10192355D02*
X10047991Y-10173308D01*
X10047991Y-10173308D02*
X10067039Y-10144736D01*
X10067039Y-10144736D02*
X10076563Y-10135212D01*
X10181325Y-10249498D02*
X10162277Y-10239974D01*
X10162277Y-10239974D02*
X10152753Y-10230450D01*
X10152753Y-10230450D02*
X10143230Y-10211403D01*
X10143230Y-10211403D02*
X10143230Y-10201879D01*
X10143230Y-10201879D02*
X10152753Y-10182831D01*
X10152753Y-10182831D02*
X10162277Y-10173308D01*
X10162277Y-10173308D02*
X10181325Y-10163784D01*
X10181325Y-10163784D02*
X10219420Y-10163784D01*
X10219420Y-10163784D02*
X10238468Y-10173308D01*
X10238468Y-10173308D02*
X10247991Y-10182831D01*
X10247991Y-10182831D02*
X10257515Y-10201879D01*
X10257515Y-10201879D02*
X10257515Y-10211403D01*
X10257515Y-10211403D02*
X10247991Y-10230450D01*
X10247991Y-10230450D02*
X10238468Y-10239974D01*
X10238468Y-10239974D02*
X10219420Y-10249498D01*
X10219420Y-10249498D02*
X10181325Y-10249498D01*
X10181325Y-10249498D02*
X10162277Y-10259022D01*
X10162277Y-10259022D02*
X10152753Y-10268546D01*
X10152753Y-10268546D02*
X10143230Y-10287593D01*
X10143230Y-10287593D02*
X10143230Y-10325689D01*
X10143230Y-10325689D02*
X10152753Y-10344736D01*
X10152753Y-10344736D02*
X10162277Y-10354260D01*
X10162277Y-10354260D02*
X10181325Y-10363784D01*
X10181325Y-10363784D02*
X10219420Y-10363784D01*
X10219420Y-10363784D02*
X10238468Y-10354260D01*
X10238468Y-10354260D02*
X10247991Y-10344736D01*
X10247991Y-10344736D02*
X10257515Y-10325689D01*
X10257515Y-10325689D02*
X10257515Y-10287593D01*
X10257515Y-10287593D02*
X10247991Y-10268546D01*
X10247991Y-10268546D02*
X10238468Y-10259022D01*
X10238468Y-10259022D02*
X10219420Y-10249498D01*
X10495611Y-10363784D02*
X10495611Y-10163784D01*
X10581325Y-10363784D02*
X10581325Y-10259022D01*
X10581325Y-10259022D02*
X10571801Y-10239974D01*
X10571801Y-10239974D02*
X10552753Y-10230450D01*
X10552753Y-10230450D02*
X10524182Y-10230450D01*
X10524182Y-10230450D02*
X10505134Y-10239974D01*
X10505134Y-10239974D02*
X10495611Y-10249498D01*
X10705134Y-10363784D02*
X10686087Y-10354260D01*
X10686087Y-10354260D02*
X10676563Y-10344736D01*
X10676563Y-10344736D02*
X10667039Y-10325689D01*
X10667039Y-10325689D02*
X10667039Y-10268546D01*
X10667039Y-10268546D02*
X10676563Y-10249498D01*
X10676563Y-10249498D02*
X10686087Y-10239974D01*
X10686087Y-10239974D02*
X10705134Y-10230450D01*
X10705134Y-10230450D02*
X10733706Y-10230450D01*
X10733706Y-10230450D02*
X10752753Y-10239974D01*
X10752753Y-10239974D02*
X10762277Y-10249498D01*
X10762277Y-10249498D02*
X10771801Y-10268546D01*
X10771801Y-10268546D02*
X10771801Y-10325689D01*
X10771801Y-10325689D02*
X10762277Y-10344736D01*
X10762277Y-10344736D02*
X10752753Y-10354260D01*
X10752753Y-10354260D02*
X10733706Y-10363784D01*
X10733706Y-10363784D02*
X10705134Y-10363784D01*
X10886087Y-10363784D02*
X10867039Y-10354260D01*
X10867039Y-10354260D02*
X10857515Y-10335212D01*
X10857515Y-10335212D02*
X10857515Y-10163784D01*
X11038468Y-10354260D02*
X11019420Y-10363784D01*
X11019420Y-10363784D02*
X10981325Y-10363784D01*
X10981325Y-10363784D02*
X10962277Y-10354260D01*
X10962277Y-10354260D02*
X10952753Y-10335212D01*
X10952753Y-10335212D02*
X10952753Y-10259022D01*
X10952753Y-10259022D02*
X10962277Y-10239974D01*
X10962277Y-10239974D02*
X10981325Y-10230450D01*
X10981325Y-10230450D02*
X11019420Y-10230450D01*
X11019420Y-10230450D02*
X11038468Y-10239974D01*
X11038468Y-10239974D02*
X11047992Y-10259022D01*
X11047992Y-10259022D02*
X11047992Y-10278070D01*
X11047992Y-10278070D02*
X10952753Y-10297117D01*
X11124182Y-10354260D02*
X11143230Y-10363784D01*
X11143230Y-10363784D02*
X11181325Y-10363784D01*
X11181325Y-10363784D02*
X11200372Y-10354260D01*
X11200372Y-10354260D02*
X11209896Y-10335212D01*
X11209896Y-10335212D02*
X11209896Y-10325689D01*
X11209896Y-10325689D02*
X11200372Y-10306641D01*
X11200372Y-10306641D02*
X11181325Y-10297117D01*
X11181325Y-10297117D02*
X11152753Y-10297117D01*
X11152753Y-10297117D02*
X11133706Y-10287593D01*
X11133706Y-10287593D02*
X11124182Y-10268546D01*
X11124182Y-10268546D02*
X11124182Y-10259022D01*
X11124182Y-10259022D02*
X11133706Y-10239974D01*
X11133706Y-10239974D02*
X11152753Y-10230450D01*
X11152753Y-10230450D02*
X11181325Y-10230450D01*
X11181325Y-10230450D02*
X11200372Y-10239974D01*
X11276563Y-10439974D02*
X11286087Y-10430450D01*
X11286087Y-10430450D02*
X11305134Y-10401879D01*
X11305134Y-10401879D02*
X11314658Y-10382831D01*
X11314658Y-10382831D02*
X11324182Y-10354260D01*
X11324182Y-10354260D02*
X11333706Y-10306641D01*
X11333706Y-10306641D02*
X11333706Y-10268546D01*
X11333706Y-10268546D02*
X11324182Y-10220927D01*
X11324182Y-10220927D02*
X11314658Y-10192355D01*
X11314658Y-10192355D02*
X11305134Y-10173308D01*
X11305134Y-10173308D02*
X11286087Y-10144736D01*
X11286087Y-10144736D02*
X11276563Y-10135212D01*
X11638468Y-10439974D02*
X11628944Y-10430450D01*
X11628944Y-10430450D02*
X11609896Y-10401879D01*
X11609896Y-10401879D02*
X11600372Y-10382831D01*
X11600372Y-10382831D02*
X11590849Y-10354260D01*
X11590849Y-10354260D02*
X11581325Y-10306641D01*
X11581325Y-10306641D02*
X11581325Y-10268546D01*
X11581325Y-10268546D02*
X11590849Y-10220927D01*
X11590849Y-10220927D02*
X11600372Y-10192355D01*
X11600372Y-10192355D02*
X11609896Y-10173308D01*
X11609896Y-10173308D02*
X11628944Y-10144736D01*
X11628944Y-10144736D02*
X11638468Y-10135212D01*
X11714658Y-10230450D02*
X11714658Y-10363784D01*
X11714658Y-10249498D02*
X11724182Y-10239974D01*
X11724182Y-10239974D02*
X11743230Y-10230450D01*
X11743230Y-10230450D02*
X11771801Y-10230450D01*
X11771801Y-10230450D02*
X11790849Y-10239974D01*
X11790849Y-10239974D02*
X11800372Y-10259022D01*
X11800372Y-10259022D02*
X11800372Y-10363784D01*
X11924182Y-10363784D02*
X11905134Y-10354260D01*
X11905134Y-10354260D02*
X11895611Y-10344736D01*
X11895611Y-10344736D02*
X11886087Y-10325689D01*
X11886087Y-10325689D02*
X11886087Y-10268546D01*
X11886087Y-10268546D02*
X11895611Y-10249498D01*
X11895611Y-10249498D02*
X11905134Y-10239974D01*
X11905134Y-10239974D02*
X11924182Y-10230450D01*
X11924182Y-10230450D02*
X11952753Y-10230450D01*
X11952753Y-10230450D02*
X11971801Y-10239974D01*
X11971801Y-10239974D02*
X11981325Y-10249498D01*
X11981325Y-10249498D02*
X11990849Y-10268546D01*
X11990849Y-10268546D02*
X11990849Y-10325689D01*
X11990849Y-10325689D02*
X11981325Y-10344736D01*
X11981325Y-10344736D02*
X11971801Y-10354260D01*
X11971801Y-10354260D02*
X11952753Y-10363784D01*
X11952753Y-10363784D02*
X11924182Y-10363784D01*
X12047992Y-10230450D02*
X12124182Y-10230450D01*
X12076563Y-10163784D02*
X12076563Y-10335212D01*
X12076563Y-10335212D02*
X12086087Y-10354260D01*
X12086087Y-10354260D02*
X12105134Y-10363784D01*
X12105134Y-10363784D02*
X12124182Y-10363784D01*
X12343230Y-10230450D02*
X12343230Y-10430450D01*
X12343230Y-10239974D02*
X12362277Y-10230450D01*
X12362277Y-10230450D02*
X12400373Y-10230450D01*
X12400373Y-10230450D02*
X12419420Y-10239974D01*
X12419420Y-10239974D02*
X12428944Y-10249498D01*
X12428944Y-10249498D02*
X12438468Y-10268546D01*
X12438468Y-10268546D02*
X12438468Y-10325689D01*
X12438468Y-10325689D02*
X12428944Y-10344736D01*
X12428944Y-10344736D02*
X12419420Y-10354260D01*
X12419420Y-10354260D02*
X12400373Y-10363784D01*
X12400373Y-10363784D02*
X12362277Y-10363784D01*
X12362277Y-10363784D02*
X12343230Y-10354260D01*
X12552753Y-10363784D02*
X12533706Y-10354260D01*
X12533706Y-10354260D02*
X12524182Y-10335212D01*
X12524182Y-10335212D02*
X12524182Y-10163784D01*
X12714658Y-10363784D02*
X12714658Y-10259022D01*
X12714658Y-10259022D02*
X12705134Y-10239974D01*
X12705134Y-10239974D02*
X12686087Y-10230450D01*
X12686087Y-10230450D02*
X12647992Y-10230450D01*
X12647992Y-10230450D02*
X12628944Y-10239974D01*
X12714658Y-10354260D02*
X12695611Y-10363784D01*
X12695611Y-10363784D02*
X12647992Y-10363784D01*
X12647992Y-10363784D02*
X12628944Y-10354260D01*
X12628944Y-10354260D02*
X12619420Y-10335212D01*
X12619420Y-10335212D02*
X12619420Y-10316165D01*
X12619420Y-10316165D02*
X12628944Y-10297117D01*
X12628944Y-10297117D02*
X12647992Y-10287593D01*
X12647992Y-10287593D02*
X12695611Y-10287593D01*
X12695611Y-10287593D02*
X12714658Y-10278070D01*
X12781325Y-10230450D02*
X12857515Y-10230450D01*
X12809896Y-10163784D02*
X12809896Y-10335212D01*
X12809896Y-10335212D02*
X12819420Y-10354260D01*
X12819420Y-10354260D02*
X12838468Y-10363784D01*
X12838468Y-10363784D02*
X12857515Y-10363784D01*
X13000373Y-10354260D02*
X12981325Y-10363784D01*
X12981325Y-10363784D02*
X12943230Y-10363784D01*
X12943230Y-10363784D02*
X12924182Y-10354260D01*
X12924182Y-10354260D02*
X12914658Y-10335212D01*
X12914658Y-10335212D02*
X12914658Y-10259022D01*
X12914658Y-10259022D02*
X12924182Y-10239974D01*
X12924182Y-10239974D02*
X12943230Y-10230450D01*
X12943230Y-10230450D02*
X12981325Y-10230450D01*
X12981325Y-10230450D02*
X13000373Y-10239974D01*
X13000373Y-10239974D02*
X13009896Y-10259022D01*
X13009896Y-10259022D02*
X13009896Y-10278070D01*
X13009896Y-10278070D02*
X12914658Y-10297117D01*
X13181325Y-10363784D02*
X13181325Y-10163784D01*
X13181325Y-10354260D02*
X13162277Y-10363784D01*
X13162277Y-10363784D02*
X13124182Y-10363784D01*
X13124182Y-10363784D02*
X13105134Y-10354260D01*
X13105134Y-10354260D02*
X13095611Y-10344736D01*
X13095611Y-10344736D02*
X13086087Y-10325689D01*
X13086087Y-10325689D02*
X13086087Y-10268546D01*
X13086087Y-10268546D02*
X13095611Y-10249498D01*
X13095611Y-10249498D02*
X13105134Y-10239974D01*
X13105134Y-10239974D02*
X13124182Y-10230450D01*
X13124182Y-10230450D02*
X13162277Y-10230450D01*
X13162277Y-10230450D02*
X13181325Y-10239974D01*
X13257515Y-10439974D02*
X13267039Y-10430450D01*
X13267039Y-10430450D02*
X13286087Y-10401879D01*
X13286087Y-10401879D02*
X13295611Y-10382831D01*
X13295611Y-10382831D02*
X13305134Y-10354260D01*
X13305134Y-10354260D02*
X13314658Y-10306641D01*
X13314658Y-10306641D02*
X13314658Y-10268546D01*
X13314658Y-10268546D02*
X13305134Y-10220927D01*
X13305134Y-10220927D02*
X13295611Y-10192355D01*
X13295611Y-10192355D02*
X13286087Y-10173308D01*
X13286087Y-10173308D02*
X13267039Y-10144736D01*
X13267039Y-10144736D02*
X13257515Y-10135212D01*
X6501500Y-10536300D02*
G75*
G02*
X6301500Y-10536300I-100000J0D01*
G01*
X6301500Y-10536300D02*
G75*
G02*
X6501500Y-10536300I100000J0D01*
G01*
X6847991Y-10494450D02*
X6847991Y-10627784D01*
X6800372Y-10418260D02*
X6752753Y-10561117D01*
X6752753Y-10561117D02*
X6876562Y-10561117D01*
X6952753Y-10608736D02*
X6962277Y-10618260D01*
X6962277Y-10618260D02*
X6952753Y-10627784D01*
X6952753Y-10627784D02*
X6943229Y-10618260D01*
X6943229Y-10618260D02*
X6952753Y-10608736D01*
X6952753Y-10608736D02*
X6952753Y-10627784D01*
X7028943Y-10427784D02*
X7152753Y-10427784D01*
X7152753Y-10427784D02*
X7086086Y-10503974D01*
X7086086Y-10503974D02*
X7114658Y-10503974D01*
X7114658Y-10503974D02*
X7133705Y-10513498D01*
X7133705Y-10513498D02*
X7143229Y-10523022D01*
X7143229Y-10523022D02*
X7152753Y-10542070D01*
X7152753Y-10542070D02*
X7152753Y-10589689D01*
X7152753Y-10589689D02*
X7143229Y-10608736D01*
X7143229Y-10608736D02*
X7133705Y-10618260D01*
X7133705Y-10618260D02*
X7114658Y-10627784D01*
X7114658Y-10627784D02*
X7057515Y-10627784D01*
X7057515Y-10627784D02*
X7038467Y-10618260D01*
X7038467Y-10618260D02*
X7028943Y-10608736D01*
X7276562Y-10427784D02*
X7295610Y-10427784D01*
X7295610Y-10427784D02*
X7314658Y-10437308D01*
X7314658Y-10437308D02*
X7324182Y-10446831D01*
X7324182Y-10446831D02*
X7333705Y-10465879D01*
X7333705Y-10465879D02*
X7343229Y-10503974D01*
X7343229Y-10503974D02*
X7343229Y-10551593D01*
X7343229Y-10551593D02*
X7333705Y-10589689D01*
X7333705Y-10589689D02*
X7324182Y-10608736D01*
X7324182Y-10608736D02*
X7314658Y-10618260D01*
X7314658Y-10618260D02*
X7295610Y-10627784D01*
X7295610Y-10627784D02*
X7276562Y-10627784D01*
X7276562Y-10627784D02*
X7257515Y-10618260D01*
X7257515Y-10618260D02*
X7247991Y-10608736D01*
X7247991Y-10608736D02*
X7238467Y-10589689D01*
X7238467Y-10589689D02*
X7228943Y-10551593D01*
X7228943Y-10551593D02*
X7228943Y-10503974D01*
X7228943Y-10503974D02*
X7238467Y-10465879D01*
X7238467Y-10465879D02*
X7247991Y-10446831D01*
X7247991Y-10446831D02*
X7257515Y-10437308D01*
X7257515Y-10437308D02*
X7276562Y-10427784D01*
X7467039Y-10427784D02*
X7486086Y-10427784D01*
X7486086Y-10427784D02*
X7505134Y-10437308D01*
X7505134Y-10437308D02*
X7514658Y-10446831D01*
X7514658Y-10446831D02*
X7524182Y-10465879D01*
X7524182Y-10465879D02*
X7533705Y-10503974D01*
X7533705Y-10503974D02*
X7533705Y-10551593D01*
X7533705Y-10551593D02*
X7524182Y-10589689D01*
X7524182Y-10589689D02*
X7514658Y-10608736D01*
X7514658Y-10608736D02*
X7505134Y-10618260D01*
X7505134Y-10618260D02*
X7486086Y-10627784D01*
X7486086Y-10627784D02*
X7467039Y-10627784D01*
X7467039Y-10627784D02*
X7447991Y-10618260D01*
X7447991Y-10618260D02*
X7438467Y-10608736D01*
X7438467Y-10608736D02*
X7428943Y-10589689D01*
X7428943Y-10589689D02*
X7419420Y-10551593D01*
X7419420Y-10551593D02*
X7419420Y-10503974D01*
X7419420Y-10503974D02*
X7428943Y-10465879D01*
X7428943Y-10465879D02*
X7438467Y-10446831D01*
X7438467Y-10446831D02*
X7447991Y-10437308D01*
X7447991Y-10437308D02*
X7467039Y-10427784D01*
X7619420Y-10627784D02*
X7619420Y-10494450D01*
X7619420Y-10513498D02*
X7628943Y-10503974D01*
X7628943Y-10503974D02*
X7647991Y-10494450D01*
X7647991Y-10494450D02*
X7676563Y-10494450D01*
X7676563Y-10494450D02*
X7695610Y-10503974D01*
X7695610Y-10503974D02*
X7705134Y-10523022D01*
X7705134Y-10523022D02*
X7705134Y-10627784D01*
X7705134Y-10523022D02*
X7714658Y-10503974D01*
X7714658Y-10503974D02*
X7733705Y-10494450D01*
X7733705Y-10494450D02*
X7762277Y-10494450D01*
X7762277Y-10494450D02*
X7781324Y-10503974D01*
X7781324Y-10503974D02*
X7790848Y-10523022D01*
X7790848Y-10523022D02*
X7790848Y-10627784D01*
X7886086Y-10627784D02*
X7886086Y-10494450D01*
X7886086Y-10513498D02*
X7895610Y-10503974D01*
X7895610Y-10503974D02*
X7914658Y-10494450D01*
X7914658Y-10494450D02*
X7943229Y-10494450D01*
X7943229Y-10494450D02*
X7962277Y-10503974D01*
X7962277Y-10503974D02*
X7971801Y-10523022D01*
X7971801Y-10523022D02*
X7971801Y-10627784D01*
X7971801Y-10523022D02*
X7981324Y-10503974D01*
X7981324Y-10503974D02*
X8000372Y-10494450D01*
X8000372Y-10494450D02*
X8028943Y-10494450D01*
X8028943Y-10494450D02*
X8047991Y-10503974D01*
X8047991Y-10503974D02*
X8057515Y-10523022D01*
X8057515Y-10523022D02*
X8057515Y-10627784D01*
X8447991Y-10418260D02*
X8276563Y-10675403D01*
X8705134Y-10427784D02*
X8724182Y-10427784D01*
X8724182Y-10427784D02*
X8743229Y-10437308D01*
X8743229Y-10437308D02*
X8752753Y-10446831D01*
X8752753Y-10446831D02*
X8762277Y-10465879D01*
X8762277Y-10465879D02*
X8771801Y-10503974D01*
X8771801Y-10503974D02*
X8771801Y-10551593D01*
X8771801Y-10551593D02*
X8762277Y-10589689D01*
X8762277Y-10589689D02*
X8752753Y-10608736D01*
X8752753Y-10608736D02*
X8743229Y-10618260D01*
X8743229Y-10618260D02*
X8724182Y-10627784D01*
X8724182Y-10627784D02*
X8705134Y-10627784D01*
X8705134Y-10627784D02*
X8686087Y-10618260D01*
X8686087Y-10618260D02*
X8676563Y-10608736D01*
X8676563Y-10608736D02*
X8667039Y-10589689D01*
X8667039Y-10589689D02*
X8657515Y-10551593D01*
X8657515Y-10551593D02*
X8657515Y-10503974D01*
X8657515Y-10503974D02*
X8667039Y-10465879D01*
X8667039Y-10465879D02*
X8676563Y-10446831D01*
X8676563Y-10446831D02*
X8686087Y-10437308D01*
X8686087Y-10437308D02*
X8705134Y-10427784D01*
X8857515Y-10608736D02*
X8867039Y-10618260D01*
X8867039Y-10618260D02*
X8857515Y-10627784D01*
X8857515Y-10627784D02*
X8847991Y-10618260D01*
X8847991Y-10618260D02*
X8857515Y-10608736D01*
X8857515Y-10608736D02*
X8857515Y-10627784D01*
X9057515Y-10627784D02*
X8943229Y-10627784D01*
X9000372Y-10627784D02*
X9000372Y-10427784D01*
X9000372Y-10427784D02*
X8981325Y-10456355D01*
X8981325Y-10456355D02*
X8962277Y-10475403D01*
X8962277Y-10475403D02*
X8943229Y-10484927D01*
X9228944Y-10427784D02*
X9190848Y-10427784D01*
X9190848Y-10427784D02*
X9171801Y-10437308D01*
X9171801Y-10437308D02*
X9162277Y-10446831D01*
X9162277Y-10446831D02*
X9143229Y-10475403D01*
X9143229Y-10475403D02*
X9133706Y-10513498D01*
X9133706Y-10513498D02*
X9133706Y-10589689D01*
X9133706Y-10589689D02*
X9143229Y-10608736D01*
X9143229Y-10608736D02*
X9152753Y-10618260D01*
X9152753Y-10618260D02*
X9171801Y-10627784D01*
X9171801Y-10627784D02*
X9209896Y-10627784D01*
X9209896Y-10627784D02*
X9228944Y-10618260D01*
X9228944Y-10618260D02*
X9238468Y-10608736D01*
X9238468Y-10608736D02*
X9247991Y-10589689D01*
X9247991Y-10589689D02*
X9247991Y-10542070D01*
X9247991Y-10542070D02*
X9238468Y-10523022D01*
X9238468Y-10523022D02*
X9228944Y-10513498D01*
X9228944Y-10513498D02*
X9209896Y-10503974D01*
X9209896Y-10503974D02*
X9171801Y-10503974D01*
X9171801Y-10503974D02*
X9152753Y-10513498D01*
X9152753Y-10513498D02*
X9143229Y-10523022D01*
X9143229Y-10523022D02*
X9133706Y-10542070D01*
X9343229Y-10627784D02*
X9381325Y-10627784D01*
X9381325Y-10627784D02*
X9400372Y-10618260D01*
X9400372Y-10618260D02*
X9409896Y-10608736D01*
X9409896Y-10608736D02*
X9428944Y-10580165D01*
X9428944Y-10580165D02*
X9438468Y-10542070D01*
X9438468Y-10542070D02*
X9438468Y-10465879D01*
X9438468Y-10465879D02*
X9428944Y-10446831D01*
X9428944Y-10446831D02*
X9419420Y-10437308D01*
X9419420Y-10437308D02*
X9400372Y-10427784D01*
X9400372Y-10427784D02*
X9362277Y-10427784D01*
X9362277Y-10427784D02*
X9343229Y-10437308D01*
X9343229Y-10437308D02*
X9333706Y-10446831D01*
X9333706Y-10446831D02*
X9324182Y-10465879D01*
X9324182Y-10465879D02*
X9324182Y-10513498D01*
X9324182Y-10513498D02*
X9333706Y-10532546D01*
X9333706Y-10532546D02*
X9343229Y-10542070D01*
X9343229Y-10542070D02*
X9362277Y-10551593D01*
X9362277Y-10551593D02*
X9400372Y-10551593D01*
X9400372Y-10551593D02*
X9419420Y-10542070D01*
X9419420Y-10542070D02*
X9428944Y-10532546D01*
X9428944Y-10532546D02*
X9438468Y-10513498D01*
X9505134Y-10427784D02*
X9628944Y-10427784D01*
X9628944Y-10427784D02*
X9562277Y-10503974D01*
X9562277Y-10503974D02*
X9590849Y-10503974D01*
X9590849Y-10503974D02*
X9609896Y-10513498D01*
X9609896Y-10513498D02*
X9619420Y-10523022D01*
X9619420Y-10523022D02*
X9628944Y-10542070D01*
X9628944Y-10542070D02*
X9628944Y-10589689D01*
X9628944Y-10589689D02*
X9619420Y-10608736D01*
X9619420Y-10608736D02*
X9609896Y-10618260D01*
X9609896Y-10618260D02*
X9590849Y-10627784D01*
X9590849Y-10627784D02*
X9533706Y-10627784D01*
X9533706Y-10627784D02*
X9514658Y-10618260D01*
X9514658Y-10618260D02*
X9505134Y-10608736D01*
X9705134Y-10427784D02*
X9705134Y-10465879D01*
X9781325Y-10427784D02*
X9781325Y-10465879D01*
X10076563Y-10703974D02*
X10067039Y-10694450D01*
X10067039Y-10694450D02*
X10047991Y-10665879D01*
X10047991Y-10665879D02*
X10038468Y-10646831D01*
X10038468Y-10646831D02*
X10028944Y-10618260D01*
X10028944Y-10618260D02*
X10019420Y-10570641D01*
X10019420Y-10570641D02*
X10019420Y-10532546D01*
X10019420Y-10532546D02*
X10028944Y-10484927D01*
X10028944Y-10484927D02*
X10038468Y-10456355D01*
X10038468Y-10456355D02*
X10047991Y-10437308D01*
X10047991Y-10437308D02*
X10067039Y-10408736D01*
X10067039Y-10408736D02*
X10076563Y-10399212D01*
X10238468Y-10494450D02*
X10238468Y-10627784D01*
X10190849Y-10418260D02*
X10143230Y-10561117D01*
X10143230Y-10561117D02*
X10267039Y-10561117D01*
X10495611Y-10627784D02*
X10495611Y-10427784D01*
X10581325Y-10627784D02*
X10581325Y-10523022D01*
X10581325Y-10523022D02*
X10571801Y-10503974D01*
X10571801Y-10503974D02*
X10552753Y-10494450D01*
X10552753Y-10494450D02*
X10524182Y-10494450D01*
X10524182Y-10494450D02*
X10505134Y-10503974D01*
X10505134Y-10503974D02*
X10495611Y-10513498D01*
X10705134Y-10627784D02*
X10686087Y-10618260D01*
X10686087Y-10618260D02*
X10676563Y-10608736D01*
X10676563Y-10608736D02*
X10667039Y-10589689D01*
X10667039Y-10589689D02*
X10667039Y-10532546D01*
X10667039Y-10532546D02*
X10676563Y-10513498D01*
X10676563Y-10513498D02*
X10686087Y-10503974D01*
X10686087Y-10503974D02*
X10705134Y-10494450D01*
X10705134Y-10494450D02*
X10733706Y-10494450D01*
X10733706Y-10494450D02*
X10752753Y-10503974D01*
X10752753Y-10503974D02*
X10762277Y-10513498D01*
X10762277Y-10513498D02*
X10771801Y-10532546D01*
X10771801Y-10532546D02*
X10771801Y-10589689D01*
X10771801Y-10589689D02*
X10762277Y-10608736D01*
X10762277Y-10608736D02*
X10752753Y-10618260D01*
X10752753Y-10618260D02*
X10733706Y-10627784D01*
X10733706Y-10627784D02*
X10705134Y-10627784D01*
X10886087Y-10627784D02*
X10867039Y-10618260D01*
X10867039Y-10618260D02*
X10857515Y-10599212D01*
X10857515Y-10599212D02*
X10857515Y-10427784D01*
X11038468Y-10618260D02*
X11019420Y-10627784D01*
X11019420Y-10627784D02*
X10981325Y-10627784D01*
X10981325Y-10627784D02*
X10962277Y-10618260D01*
X10962277Y-10618260D02*
X10952753Y-10599212D01*
X10952753Y-10599212D02*
X10952753Y-10523022D01*
X10952753Y-10523022D02*
X10962277Y-10503974D01*
X10962277Y-10503974D02*
X10981325Y-10494450D01*
X10981325Y-10494450D02*
X11019420Y-10494450D01*
X11019420Y-10494450D02*
X11038468Y-10503974D01*
X11038468Y-10503974D02*
X11047992Y-10523022D01*
X11047992Y-10523022D02*
X11047992Y-10542070D01*
X11047992Y-10542070D02*
X10952753Y-10561117D01*
X11124182Y-10618260D02*
X11143230Y-10627784D01*
X11143230Y-10627784D02*
X11181325Y-10627784D01*
X11181325Y-10627784D02*
X11200372Y-10618260D01*
X11200372Y-10618260D02*
X11209896Y-10599212D01*
X11209896Y-10599212D02*
X11209896Y-10589689D01*
X11209896Y-10589689D02*
X11200372Y-10570641D01*
X11200372Y-10570641D02*
X11181325Y-10561117D01*
X11181325Y-10561117D02*
X11152753Y-10561117D01*
X11152753Y-10561117D02*
X11133706Y-10551593D01*
X11133706Y-10551593D02*
X11124182Y-10532546D01*
X11124182Y-10532546D02*
X11124182Y-10523022D01*
X11124182Y-10523022D02*
X11133706Y-10503974D01*
X11133706Y-10503974D02*
X11152753Y-10494450D01*
X11152753Y-10494450D02*
X11181325Y-10494450D01*
X11181325Y-10494450D02*
X11200372Y-10503974D01*
X11276563Y-10703974D02*
X11286087Y-10694450D01*
X11286087Y-10694450D02*
X11305134Y-10665879D01*
X11305134Y-10665879D02*
X11314658Y-10646831D01*
X11314658Y-10646831D02*
X11324182Y-10618260D01*
X11324182Y-10618260D02*
X11333706Y-10570641D01*
X11333706Y-10570641D02*
X11333706Y-10532546D01*
X11333706Y-10532546D02*
X11324182Y-10484927D01*
X11324182Y-10484927D02*
X11314658Y-10456355D01*
X11314658Y-10456355D02*
X11305134Y-10437308D01*
X11305134Y-10437308D02*
X11286087Y-10408736D01*
X11286087Y-10408736D02*
X11276563Y-10399212D01*
X11638468Y-10703974D02*
X11628944Y-10694450D01*
X11628944Y-10694450D02*
X11609896Y-10665879D01*
X11609896Y-10665879D02*
X11600372Y-10646831D01*
X11600372Y-10646831D02*
X11590849Y-10618260D01*
X11590849Y-10618260D02*
X11581325Y-10570641D01*
X11581325Y-10570641D02*
X11581325Y-10532546D01*
X11581325Y-10532546D02*
X11590849Y-10484927D01*
X11590849Y-10484927D02*
X11600372Y-10456355D01*
X11600372Y-10456355D02*
X11609896Y-10437308D01*
X11609896Y-10437308D02*
X11628944Y-10408736D01*
X11628944Y-10408736D02*
X11638468Y-10399212D01*
X11714658Y-10494450D02*
X11714658Y-10627784D01*
X11714658Y-10513498D02*
X11724182Y-10503974D01*
X11724182Y-10503974D02*
X11743230Y-10494450D01*
X11743230Y-10494450D02*
X11771801Y-10494450D01*
X11771801Y-10494450D02*
X11790849Y-10503974D01*
X11790849Y-10503974D02*
X11800372Y-10523022D01*
X11800372Y-10523022D02*
X11800372Y-10627784D01*
X11924182Y-10627784D02*
X11905134Y-10618260D01*
X11905134Y-10618260D02*
X11895611Y-10608736D01*
X11895611Y-10608736D02*
X11886087Y-10589689D01*
X11886087Y-10589689D02*
X11886087Y-10532546D01*
X11886087Y-10532546D02*
X11895611Y-10513498D01*
X11895611Y-10513498D02*
X11905134Y-10503974D01*
X11905134Y-10503974D02*
X11924182Y-10494450D01*
X11924182Y-10494450D02*
X11952753Y-10494450D01*
X11952753Y-10494450D02*
X11971801Y-10503974D01*
X11971801Y-10503974D02*
X11981325Y-10513498D01*
X11981325Y-10513498D02*
X11990849Y-10532546D01*
X11990849Y-10532546D02*
X11990849Y-10589689D01*
X11990849Y-10589689D02*
X11981325Y-10608736D01*
X11981325Y-10608736D02*
X11971801Y-10618260D01*
X11971801Y-10618260D02*
X11952753Y-10627784D01*
X11952753Y-10627784D02*
X11924182Y-10627784D01*
X12047992Y-10494450D02*
X12124182Y-10494450D01*
X12076563Y-10427784D02*
X12076563Y-10599212D01*
X12076563Y-10599212D02*
X12086087Y-10618260D01*
X12086087Y-10618260D02*
X12105134Y-10627784D01*
X12105134Y-10627784D02*
X12124182Y-10627784D01*
X12343230Y-10494450D02*
X12343230Y-10694450D01*
X12343230Y-10503974D02*
X12362277Y-10494450D01*
X12362277Y-10494450D02*
X12400373Y-10494450D01*
X12400373Y-10494450D02*
X12419420Y-10503974D01*
X12419420Y-10503974D02*
X12428944Y-10513498D01*
X12428944Y-10513498D02*
X12438468Y-10532546D01*
X12438468Y-10532546D02*
X12438468Y-10589689D01*
X12438468Y-10589689D02*
X12428944Y-10608736D01*
X12428944Y-10608736D02*
X12419420Y-10618260D01*
X12419420Y-10618260D02*
X12400373Y-10627784D01*
X12400373Y-10627784D02*
X12362277Y-10627784D01*
X12362277Y-10627784D02*
X12343230Y-10618260D01*
X12552753Y-10627784D02*
X12533706Y-10618260D01*
X12533706Y-10618260D02*
X12524182Y-10599212D01*
X12524182Y-10599212D02*
X12524182Y-10427784D01*
X12714658Y-10627784D02*
X12714658Y-10523022D01*
X12714658Y-10523022D02*
X12705134Y-10503974D01*
X12705134Y-10503974D02*
X12686087Y-10494450D01*
X12686087Y-10494450D02*
X12647992Y-10494450D01*
X12647992Y-10494450D02*
X12628944Y-10503974D01*
X12714658Y-10618260D02*
X12695611Y-10627784D01*
X12695611Y-10627784D02*
X12647992Y-10627784D01*
X12647992Y-10627784D02*
X12628944Y-10618260D01*
X12628944Y-10618260D02*
X12619420Y-10599212D01*
X12619420Y-10599212D02*
X12619420Y-10580165D01*
X12619420Y-10580165D02*
X12628944Y-10561117D01*
X12628944Y-10561117D02*
X12647992Y-10551593D01*
X12647992Y-10551593D02*
X12695611Y-10551593D01*
X12695611Y-10551593D02*
X12714658Y-10542070D01*
X12781325Y-10494450D02*
X12857515Y-10494450D01*
X12809896Y-10427784D02*
X12809896Y-10599212D01*
X12809896Y-10599212D02*
X12819420Y-10618260D01*
X12819420Y-10618260D02*
X12838468Y-10627784D01*
X12838468Y-10627784D02*
X12857515Y-10627784D01*
X13000373Y-10618260D02*
X12981325Y-10627784D01*
X12981325Y-10627784D02*
X12943230Y-10627784D01*
X12943230Y-10627784D02*
X12924182Y-10618260D01*
X12924182Y-10618260D02*
X12914658Y-10599212D01*
X12914658Y-10599212D02*
X12914658Y-10523022D01*
X12914658Y-10523022D02*
X12924182Y-10503974D01*
X12924182Y-10503974D02*
X12943230Y-10494450D01*
X12943230Y-10494450D02*
X12981325Y-10494450D01*
X12981325Y-10494450D02*
X13000373Y-10503974D01*
X13000373Y-10503974D02*
X13009896Y-10523022D01*
X13009896Y-10523022D02*
X13009896Y-10542070D01*
X13009896Y-10542070D02*
X12914658Y-10561117D01*
X13181325Y-10627784D02*
X13181325Y-10427784D01*
X13181325Y-10618260D02*
X13162277Y-10627784D01*
X13162277Y-10627784D02*
X13124182Y-10627784D01*
X13124182Y-10627784D02*
X13105134Y-10618260D01*
X13105134Y-10618260D02*
X13095611Y-10608736D01*
X13095611Y-10608736D02*
X13086087Y-10589689D01*
X13086087Y-10589689D02*
X13086087Y-10532546D01*
X13086087Y-10532546D02*
X13095611Y-10513498D01*
X13095611Y-10513498D02*
X13105134Y-10503974D01*
X13105134Y-10503974D02*
X13124182Y-10494450D01*
X13124182Y-10494450D02*
X13162277Y-10494450D01*
X13162277Y-10494450D02*
X13181325Y-10503974D01*
X13257515Y-10703974D02*
X13267039Y-10694450D01*
X13267039Y-10694450D02*
X13286087Y-10665879D01*
X13286087Y-10665879D02*
X13295611Y-10646831D01*
X13295611Y-10646831D02*
X13305134Y-10618260D01*
X13305134Y-10618260D02*
X13314658Y-10570641D01*
X13314658Y-10570641D02*
X13314658Y-10532546D01*
X13314658Y-10532546D02*
X13305134Y-10484927D01*
X13305134Y-10484927D02*
X13295611Y-10456355D01*
X13295611Y-10456355D02*
X13286087Y-10437308D01*
X13286087Y-10437308D02*
X13267039Y-10408736D01*
X13267039Y-10408736D02*
X13257515Y-10399212D01*
M02*
