%TF.GenerationSoftware,KiCad,Pcbnew,8.0.8-8.0.8-0~ubuntu24.04.1*%
%TF.CreationDate,2025-08-12T19:22:18-04:00*%
%TF.ProjectId,mainboard,6d61696e-626f-4617-9264-2e6b69636164,rev?*%
%TF.SameCoordinates,Original*%
%TF.FileFunction,Soldermask,Top*%
%TF.FilePolarity,Negative*%
%FSLAX46Y46*%
G04 Gerber Fmt 4.6, Leading zero omitted, Abs format (unit mm)*
G04 Created by KiCad (PCBNEW 8.0.8-8.0.8-0~ubuntu24.04.1) date 2025-08-12 19:22:18*
%MOMM*%
%LPD*%
G01*
G04 APERTURE LIST*
G04 Aperture macros list*
%AMRoundRect*
0 Rectangle with rounded corners*
0 $1 Rounding radius*
0 $2 $3 $4 $5 $6 $7 $8 $9 X,Y pos of 4 corners*
0 Add a 4 corners polygon primitive as box body*
4,1,4,$2,$3,$4,$5,$6,$7,$8,$9,$2,$3,0*
0 Add four circle primitives for the rounded corners*
1,1,$1+$1,$2,$3*
1,1,$1+$1,$4,$5*
1,1,$1+$1,$6,$7*
1,1,$1+$1,$8,$9*
0 Add four rect primitives between the rounded corners*
20,1,$1+$1,$2,$3,$4,$5,0*
20,1,$1+$1,$4,$5,$6,$7,0*
20,1,$1+$1,$6,$7,$8,$9,0*
20,1,$1+$1,$8,$9,$2,$3,0*%
%AMRotRect*
0 Rectangle, with rotation*
0 The origin of the aperture is its center*
0 $1 length*
0 $2 width*
0 $3 Rotation angle, in degrees counterclockwise*
0 Add horizontal line*
21,1,$1,$2,0,0,$3*%
%AMOutline5P*
0 Free polygon, 5 corners , with rotation*
0 The origin of the aperture is its center*
0 number of corners: always 5*
0 $1 to $10 corner X, Y*
0 $11 Rotation angle, in degrees counterclockwise*
0 create outline with 5 corners*
4,1,5,$1,$2,$3,$4,$5,$6,$7,$8,$9,$10,$1,$2,$11*%
%AMOutline6P*
0 Free polygon, 6 corners , with rotation*
0 The origin of the aperture is its center*
0 number of corners: always 6*
0 $1 to $12 corner X, Y*
0 $13 Rotation angle, in degrees counterclockwise*
0 create outline with 6 corners*
4,1,6,$1,$2,$3,$4,$5,$6,$7,$8,$9,$10,$11,$12,$1,$2,$13*%
%AMOutline7P*
0 Free polygon, 7 corners , with rotation*
0 The origin of the aperture is its center*
0 number of corners: always 7*
0 $1 to $14 corner X, Y*
0 $15 Rotation angle, in degrees counterclockwise*
0 create outline with 7 corners*
4,1,7,$1,$2,$3,$4,$5,$6,$7,$8,$9,$10,$11,$12,$13,$14,$1,$2,$15*%
%AMOutline8P*
0 Free polygon, 8 corners , with rotation*
0 The origin of the aperture is its center*
0 number of corners: always 8*
0 $1 to $16 corner X, Y*
0 $17 Rotation angle, in degrees counterclockwise*
0 create outline with 8 corners*
4,1,8,$1,$2,$3,$4,$5,$6,$7,$8,$9,$10,$11,$12,$13,$14,$15,$16,$1,$2,$17*%
G04 Aperture macros list end*
%ADD10RoundRect,0.102000X-0.355600X-0.596900X0.355600X-0.596900X0.355600X0.596900X-0.355600X0.596900X0*%
%ADD11RoundRect,0.102000X-0.381000X-0.596900X0.381000X-0.596900X0.381000X0.596900X-0.381000X0.596900X0*%
%ADD12RoundRect,0.102000X-0.406400X-0.596900X0.406400X-0.596900X0.406400X0.596900X-0.406400X0.596900X0*%
%ADD13O,1.296200X1.905800*%
%ADD14C,0.609600*%
%ADD15RoundRect,0.250000X-0.475000X0.250000X-0.475000X-0.250000X0.475000X-0.250000X0.475000X0.250000X0*%
%ADD16RoundRect,0.250000X0.475000X-0.250000X0.475000X0.250000X-0.475000X0.250000X-0.475000X-0.250000X0*%
%ADD17RoundRect,0.250000X0.250000X0.475000X-0.250000X0.475000X-0.250000X-0.475000X0.250000X-0.475000X0*%
%ADD18RoundRect,0.250000X0.350000X0.450000X-0.350000X0.450000X-0.350000X-0.450000X0.350000X-0.450000X0*%
%ADD19RoundRect,0.250000X-0.250000X-0.475000X0.250000X-0.475000X0.250000X0.475000X-0.250000X0.475000X0*%
%ADD20R,3.800000X2.000000*%
%ADD21RoundRect,0.102000X-0.754000X0.754000X-0.754000X-0.754000X0.754000X-0.754000X0.754000X0.754000X0*%
%ADD22C,1.712000*%
%ADD23R,1.700000X1.700000*%
%ADD24O,1.700000X1.700000*%
%ADD25RoundRect,0.250000X-0.450000X0.350000X-0.450000X-0.350000X0.450000X-0.350000X0.450000X0.350000X0*%
%ADD26RotRect,0.279400X1.778000X135.000000*%
%ADD27RotRect,0.279400X1.778000X45.000000*%
%ADD28C,4.300000*%
%ADD29RoundRect,0.219250X1.047750X0.657750X-1.047750X0.657750X-1.047750X-0.657750X1.047750X-0.657750X0*%
%ADD30RoundRect,0.102000X-0.400000X0.450000X-0.400000X-0.450000X0.400000X-0.450000X0.400000X0.450000X0*%
%ADD31C,1.219200*%
%ADD32Outline5P,-1.900000X0.600000X-1.500000X1.000000X1.900000X1.000000X1.900000X-1.000000X-1.900000X-1.000000X270.000000*%
%ADD33C,1.498600*%
%ADD34RoundRect,0.250000X-0.350000X-0.450000X0.350000X-0.450000X0.350000X0.450000X-0.350000X0.450000X0*%
%ADD35RoundRect,0.375000X-0.375000X0.625000X-0.375000X-0.625000X0.375000X-0.625000X0.375000X0.625000X0*%
%ADD36RoundRect,0.500000X-1.400000X0.500000X-1.400000X-0.500000X1.400000X-0.500000X1.400000X0.500000X0*%
%ADD37C,1.346200*%
%ADD38R,1.000000X1.250000*%
%ADD39RoundRect,0.102000X-0.754000X-0.754000X0.754000X-0.754000X0.754000X0.754000X-0.754000X0.754000X0*%
%ADD40RoundRect,0.243750X-0.243750X-0.456250X0.243750X-0.456250X0.243750X0.456250X-0.243750X0.456250X0*%
G04 APERTURE END LIST*
D10*
%TO.C,J8*%
X79272000Y-89072600D03*
D11*
X81292000Y-89072600D03*
D12*
X82522000Y-89072600D03*
D10*
X80272000Y-89072600D03*
D11*
X78252060Y-89072720D03*
D12*
X77022060Y-89072720D03*
D13*
X75452000Y-89152600D03*
X84092000Y-89152600D03*
X75452000Y-92952600D03*
X84092000Y-92952600D03*
D14*
X75454000Y-93250000D03*
X84090000Y-92665800D03*
X84090000Y-93250000D03*
X75454000Y-88855800D03*
X75454000Y-89440000D03*
X84090000Y-88855800D03*
X84090000Y-89440000D03*
X75454000Y-92665800D03*
%TD*%
D15*
%TO.C,C1*%
X83848440Y-77478001D03*
X83848440Y-79377999D03*
%TD*%
D16*
%TO.C,C11*%
X103839000Y-78977999D03*
X103839000Y-77078001D03*
%TD*%
D17*
%TO.C,C3*%
X90738997Y-75428000D03*
X88838999Y-75428000D03*
%TD*%
D18*
%TO.C,FB1*%
X109589000Y-79278000D03*
X107589000Y-79278000D03*
%TD*%
D19*
%TO.C,C5*%
X94239000Y-70390000D03*
X96138998Y-70390000D03*
%TD*%
D16*
%TO.C,C10*%
X110589000Y-75227999D03*
X110589000Y-73328001D03*
%TD*%
D20*
%TO.C,TP7*%
X81804000Y-49308000D03*
%TD*%
D21*
%TO.C,J7*%
X75812000Y-57265500D03*
D22*
X78352000Y-57265500D03*
X75812000Y-59805500D03*
X78352000Y-59805500D03*
X75811999Y-62345500D03*
X78352001Y-62345500D03*
X75812000Y-64885500D03*
X78352000Y-64885500D03*
X75812000Y-67425500D03*
X78352000Y-67425500D03*
%TD*%
D16*
%TO.C,C13*%
X128540000Y-77181999D03*
X128540000Y-75282001D03*
%TD*%
D23*
%TO.C,J6*%
X67199000Y-53753000D03*
D24*
X67199000Y-56293000D03*
X67199000Y-58832999D03*
X67199000Y-61373000D03*
X67199000Y-63913000D03*
X67199000Y-66453000D03*
%TD*%
D19*
%TO.C,C15*%
X107261001Y-69984000D03*
X109160999Y-69984000D03*
%TD*%
D25*
%TO.C,R8*%
X94239000Y-50028000D03*
X94239000Y-52028000D03*
%TD*%
D26*
%TO.C,U3*%
X108646761Y-63107812D03*
X109000314Y-63461364D03*
X109353868Y-63814919D03*
X109707421Y-64168471D03*
X110060976Y-64522026D03*
X110414528Y-64875579D03*
X110768081Y-65229131D03*
X111121635Y-65582686D03*
X111475188Y-65936239D03*
X111828743Y-66289793D03*
X112182295Y-66643346D03*
X112535848Y-66996898D03*
X112889403Y-67350453D03*
X113242955Y-67704006D03*
X113596510Y-68057560D03*
X113950062Y-68411113D03*
D27*
X116657150Y-68411113D03*
X117010702Y-68057560D03*
X117364257Y-67704006D03*
X117717809Y-67350453D03*
X118071364Y-66996898D03*
X118424917Y-66643346D03*
X118778469Y-66289793D03*
X119132024Y-65936239D03*
X119485577Y-65582686D03*
X119839131Y-65229131D03*
X120192684Y-64875579D03*
X120546236Y-64522026D03*
X120899791Y-64168471D03*
X121253344Y-63814919D03*
X121606898Y-63461364D03*
X121960451Y-63107812D03*
D26*
X121960451Y-60400724D03*
X121606898Y-60047172D03*
X121253344Y-59693617D03*
X120899791Y-59340065D03*
X120546236Y-58986510D03*
X120192684Y-58632957D03*
X119839131Y-58279405D03*
X119485577Y-57925850D03*
X119132024Y-57572297D03*
X118778469Y-57218743D03*
X118424917Y-56865190D03*
X118071364Y-56511638D03*
X117717809Y-56158083D03*
X117364257Y-55804530D03*
X117010702Y-55450976D03*
X116657150Y-55097423D03*
D27*
X113950062Y-55097423D03*
X113596510Y-55450976D03*
X113242955Y-55804530D03*
X112889403Y-56158083D03*
X112535848Y-56511638D03*
X112182295Y-56865190D03*
X111828743Y-57218743D03*
X111475188Y-57572297D03*
X111121635Y-57925850D03*
X110768081Y-58279405D03*
X110414528Y-58632957D03*
X110060976Y-58986510D03*
X109707421Y-59340065D03*
X109353868Y-59693617D03*
X109000314Y-60047172D03*
X108646761Y-60400724D03*
%TD*%
D28*
%TO.C,H1*%
X69612000Y-31782000D03*
%TD*%
D29*
%TO.C,D1*%
X78859000Y-76232000D03*
X74589000Y-76232000D03*
%TD*%
D30*
%TO.C,Y1*%
X102889001Y-69059000D03*
X102889001Y-70909000D03*
X104339001Y-70909000D03*
X104339001Y-69059000D03*
%TD*%
D17*
%TO.C,C14*%
X104588999Y-66428000D03*
X102689001Y-66428000D03*
%TD*%
D28*
%TO.C,H3*%
X69612000Y-91726000D03*
%TD*%
D31*
%TO.C,U1*%
X132299000Y-68028000D03*
X132299000Y-66028001D03*
X132299000Y-64028000D03*
X132299000Y-62028001D03*
X132299000Y-60028000D03*
X132299000Y-58028002D03*
X132299000Y-56028001D03*
X132299000Y-54028000D03*
X134839000Y-68028000D03*
X134839000Y-66028001D03*
X134839000Y-64028000D03*
X134839000Y-62028001D03*
X134839000Y-60028000D03*
X134839000Y-58028002D03*
X134839000Y-56028001D03*
X134839000Y-54028000D03*
%TD*%
D28*
%TO.C,H2*%
X138446000Y-31782000D03*
%TD*%
D20*
%TO.C,TP5*%
X109744000Y-87408000D03*
%TD*%
D17*
%TO.C,C4*%
X95961999Y-75470000D03*
X94062001Y-75470000D03*
%TD*%
D32*
%TO.C,TP1*%
X113839000Y-79428000D03*
%TD*%
D29*
%TO.C,D3*%
X78859000Y-83852000D03*
X74589000Y-83852000D03*
%TD*%
D33*
%TO.C,J5*%
X131839000Y-39028000D03*
X129339000Y-39028000D03*
X126839000Y-39028000D03*
%TD*%
D34*
%TO.C,R1*%
X89502060Y-92127424D03*
X91502060Y-92127424D03*
%TD*%
D35*
%TO.C,U2*%
X95539000Y-80078000D03*
X93239000Y-80078001D03*
D36*
X93239000Y-86377999D03*
D35*
X90939000Y-80078000D03*
%TD*%
D21*
%TO.C,J2*%
X68596000Y-40030002D03*
D22*
X68596000Y-42530002D03*
X68596000Y-45030000D03*
X68596000Y-47530000D03*
%TD*%
D34*
%TO.C,R13*%
X128021300Y-44532799D03*
X130021300Y-44532799D03*
%TD*%
D15*
%TO.C,C2*%
X83848440Y-82478001D03*
X83848440Y-84377999D03*
%TD*%
D16*
%TO.C,C9*%
X105934000Y-75227998D03*
X105934000Y-73328000D03*
%TD*%
D37*
%TO.C,J1*%
X95372399Y-37226306D03*
X95372399Y-39726306D03*
X97372400Y-37226306D03*
X97372400Y-39726306D03*
X99372398Y-37226306D03*
X99372398Y-39726306D03*
X101372400Y-37226306D03*
X101372400Y-39726306D03*
X103372398Y-37226306D03*
X103372398Y-39726306D03*
X105372399Y-37226306D03*
X105372399Y-39726306D03*
X107372400Y-37226306D03*
X107372400Y-39726306D03*
X109372399Y-37226306D03*
X109372399Y-39726306D03*
X111372400Y-37226306D03*
X111372400Y-39726306D03*
X113372398Y-37226306D03*
X113372398Y-39726306D03*
X115372399Y-37226306D03*
X115372399Y-39726306D03*
X117372398Y-37226306D03*
X117372398Y-39726306D03*
%TD*%
D17*
%TO.C,C12*%
X121292006Y-78856079D03*
X119392008Y-78856079D03*
%TD*%
D38*
%TO.C,SW1*%
X121301000Y-81185000D03*
X121301000Y-88935000D03*
%TD*%
D39*
%TO.C,J3*%
X79384002Y-30512000D03*
D22*
X81884002Y-30512000D03*
X84384000Y-30512000D03*
X86884000Y-30512000D03*
%TD*%
D23*
%TO.C,SW3*%
X90440000Y-52568000D03*
D24*
X90440000Y-50028000D03*
X90440000Y-47488001D03*
%TD*%
D40*
%TO.C,D2*%
X94914559Y-92127424D03*
X96789561Y-92127424D03*
%TD*%
D20*
%TO.C,TP3*%
X133039000Y-48228000D03*
%TD*%
D33*
%TO.C,SW2*%
X135779000Y-77248000D03*
X135779000Y-79748000D03*
%TD*%
%TO.C,J4*%
X69104000Y-80296000D03*
X69104000Y-77796000D03*
%TD*%
D28*
%TO.C,H4*%
X138446000Y-91726000D03*
%TD*%
D32*
%TO.C,TP2*%
X100239000Y-81828000D03*
%TD*%
M02*
