%TF.GenerationSoftware,KiCad,Pcbnew,8.0.8-8.0.8-0~ubuntu24.04.1*%
%TF.CreationDate,2025-08-12T19:22:18-04:00*%
%TF.ProjectId,mainboard,6d61696e-626f-4617-9264-2e6b69636164,rev?*%
%TF.SameCoordinates,Original*%
%TF.FileFunction,Soldermask,Bot*%
%TF.FilePolarity,Negative*%
%FSLAX46Y46*%
G04 Gerber Fmt 4.6, Leading zero omitted, Abs format (unit mm)*
G04 Created by KiCad (PCBNEW 8.0.8-8.0.8-0~ubuntu24.04.1) date 2025-08-12 19:22:18*
%MOMM*%
%LPD*%
G01*
G04 APERTURE LIST*
G04 Aperture macros list*
%AMRoundRect*
0 Rectangle with rounded corners*
0 $1 Rounding radius*
0 $2 $3 $4 $5 $6 $7 $8 $9 X,Y pos of 4 corners*
0 Add a 4 corners polygon primitive as box body*
4,1,4,$2,$3,$4,$5,$6,$7,$8,$9,$2,$3,0*
0 Add four circle primitives for the rounded corners*
1,1,$1+$1,$2,$3*
1,1,$1+$1,$4,$5*
1,1,$1+$1,$6,$7*
1,1,$1+$1,$8,$9*
0 Add four rect primitives between the rounded corners*
20,1,$1+$1,$2,$3,$4,$5,0*
20,1,$1+$1,$4,$5,$6,$7,0*
20,1,$1+$1,$6,$7,$8,$9,0*
20,1,$1+$1,$8,$9,$2,$3,0*%
G04 Aperture macros list end*
%ADD10C,0.609600*%
%ADD11RoundRect,0.102000X-0.754000X0.754000X-0.754000X-0.754000X0.754000X-0.754000X0.754000X0.754000X0*%
%ADD12C,1.712000*%
%ADD13R,1.700000X1.700000*%
%ADD14O,1.700000X1.700000*%
%ADD15C,4.300000*%
%ADD16C,1.219200*%
%ADD17C,1.498600*%
%ADD18C,1.346200*%
%ADD19RoundRect,0.102000X-0.754000X-0.754000X0.754000X-0.754000X0.754000X0.754000X-0.754000X0.754000X0*%
%ADD20RoundRect,0.250000X-0.159099X0.512652X-0.512652X0.159099X0.159099X-0.512652X0.512652X-0.159099X0*%
%ADD21R,3.800000X2.000000*%
%ADD22O,2.000000X3.800000*%
%ADD23RoundRect,0.250000X-0.475000X0.250000X-0.475000X-0.250000X0.475000X-0.250000X0.475000X0.250000X0*%
G04 APERTURE END LIST*
D10*
%TO.C,J8*%
X75454000Y-93250000D03*
X84090000Y-92665800D03*
X84090000Y-93250000D03*
X75454000Y-88855800D03*
X75454000Y-89440000D03*
X84090000Y-88855800D03*
X84090000Y-89440000D03*
X75454000Y-92665800D03*
%TD*%
D11*
%TO.C,J7*%
X75812000Y-57265500D03*
D12*
X78352000Y-57265500D03*
X75812000Y-59805500D03*
X78352000Y-59805500D03*
X75811999Y-62345500D03*
X78352001Y-62345500D03*
X75812000Y-64885500D03*
X78352000Y-64885500D03*
X75812000Y-67425500D03*
X78352000Y-67425500D03*
%TD*%
D13*
%TO.C,J6*%
X67199000Y-53753000D03*
D14*
X67199000Y-56293000D03*
X67199000Y-58832999D03*
X67199000Y-61373000D03*
X67199000Y-63913000D03*
X67199000Y-66453000D03*
%TD*%
D15*
%TO.C,H1*%
X69612000Y-31782000D03*
%TD*%
%TO.C,H3*%
X69612000Y-91726000D03*
%TD*%
D16*
%TO.C,U1*%
X132299000Y-68028000D03*
X132299000Y-66028001D03*
X132299000Y-64028000D03*
X132299000Y-62028001D03*
X132299000Y-60028000D03*
X132299000Y-58028002D03*
X132299000Y-56028001D03*
X132299000Y-54028000D03*
X134839000Y-68028000D03*
X134839000Y-66028001D03*
X134839000Y-64028000D03*
X134839000Y-62028001D03*
X134839000Y-60028000D03*
X134839000Y-58028002D03*
X134839000Y-56028001D03*
X134839000Y-54028000D03*
%TD*%
D15*
%TO.C,H2*%
X138446000Y-31782000D03*
%TD*%
D17*
%TO.C,J5*%
X131839000Y-39028000D03*
X129339000Y-39028000D03*
X126839000Y-39028000D03*
%TD*%
D11*
%TO.C,J2*%
X68596000Y-40030002D03*
D12*
X68596000Y-42530002D03*
X68596000Y-45030000D03*
X68596000Y-47530000D03*
%TD*%
D18*
%TO.C,J1*%
X95372399Y-37226306D03*
X95372399Y-39726306D03*
X97372400Y-37226306D03*
X97372400Y-39726306D03*
X99372398Y-37226306D03*
X99372398Y-39726306D03*
X101372400Y-37226306D03*
X101372400Y-39726306D03*
X103372398Y-37226306D03*
X103372398Y-39726306D03*
X105372399Y-37226306D03*
X105372399Y-39726306D03*
X107372400Y-37226306D03*
X107372400Y-39726306D03*
X109372399Y-37226306D03*
X109372399Y-39726306D03*
X111372400Y-37226306D03*
X111372400Y-39726306D03*
X113372398Y-37226306D03*
X113372398Y-39726306D03*
X115372399Y-37226306D03*
X115372399Y-39726306D03*
X117372398Y-37226306D03*
X117372398Y-39726306D03*
%TD*%
D19*
%TO.C,J3*%
X79384002Y-30512000D03*
D12*
X81884002Y-30512000D03*
X84384000Y-30512000D03*
X86884000Y-30512000D03*
%TD*%
D13*
%TO.C,SW3*%
X90440000Y-52568000D03*
D14*
X90440000Y-50028000D03*
X90440000Y-47488001D03*
%TD*%
D17*
%TO.C,SW2*%
X135779000Y-77248000D03*
X135779000Y-79748000D03*
%TD*%
%TO.C,J4*%
X69104000Y-80296000D03*
X69104000Y-77796000D03*
%TD*%
D15*
%TO.C,H4*%
X138446000Y-91726000D03*
%TD*%
D20*
%TO.C,C8*%
X120010751Y-61106249D03*
X118667249Y-62449751D03*
%TD*%
D21*
%TO.C,TP8*%
X122444000Y-86138000D03*
%TD*%
D22*
%TO.C,TP4*%
X76724000Y-79788000D03*
%TD*%
D20*
%TO.C,C6*%
X106110751Y-61556249D03*
X104767249Y-62899751D03*
%TD*%
D23*
%TO.C,C7*%
X118839000Y-71028000D03*
X118839000Y-72927998D03*
%TD*%
D21*
%TO.C,TP6*%
X85614000Y-67088000D03*
%TD*%
M02*
