%TF.GenerationSoftware,KiCad,Pcbnew,8.0.8-8.0.8-0~ubuntu24.04.1*%
%TF.CreationDate,2025-08-12T19:22:18-04:00*%
%TF.ProjectId,mainboard,6d61696e-626f-4617-9264-2e6b69636164,rev?*%
%TF.SameCoordinates,Original*%
%TF.FileFunction,Copper,L2,Inr*%
%TF.FilePolarity,Positive*%
%FSLAX46Y46*%
G04 Gerber Fmt 4.6, Leading zero omitted, Abs format (unit mm)*
G04 Created by KiCad (PCBNEW 8.0.8-8.0.8-0~ubuntu24.04.1) date 2025-08-12 19:22:18*
%MOMM*%
%LPD*%
G01*
G04 APERTURE LIST*
%TA.AperFunction,ComponentPad*%
%ADD10R,1.508000X1.508000*%
%TD*%
%TA.AperFunction,ComponentPad*%
%ADD11C,1.508000*%
%TD*%
%TA.AperFunction,ComponentPad*%
%ADD12R,1.700000X1.700000*%
%TD*%
%TA.AperFunction,ComponentPad*%
%ADD13O,1.700000X1.700000*%
%TD*%
%TA.AperFunction,ComponentPad*%
%ADD14C,1.219200*%
%TD*%
%TA.AperFunction,ComponentPad*%
%ADD15C,1.498600*%
%TD*%
%TA.AperFunction,ComponentPad*%
%ADD16C,1.346200*%
%TD*%
%TA.AperFunction,ViaPad*%
%ADD17C,0.860000*%
%TD*%
%TA.AperFunction,ViaPad*%
%ADD18C,0.700000*%
%TD*%
%TA.AperFunction,ViaPad*%
%ADD19C,1.000000*%
%TD*%
%TA.AperFunction,Conductor*%
%ADD20C,0.203200*%
%TD*%
G04 APERTURE END LIST*
D10*
%TO.N,RST*%
%TO.C,J7*%
X75812000Y-57265500D03*
D11*
%TO.N,SWDIO*%
X78352000Y-57265500D03*
%TO.N,GND*%
X75812000Y-59805500D03*
X78352000Y-59805500D03*
%TO.N,unconnected-(J7-Pad5)*%
X75811999Y-62345500D03*
%TO.N,SWCLK*%
X78352001Y-62345500D03*
%TO.N,unconnected-(J7-Pad7)*%
X75812000Y-64885500D03*
%TO.N,unconnected-(J7-Pad8)*%
X78352000Y-64885500D03*
%TO.N,/programming/5v5_in_jtag*%
X75812000Y-67425500D03*
X78352000Y-67425500D03*
%TD*%
D12*
%TO.N,unconnected-(J6-Pin_1-Pad1)*%
%TO.C,J6*%
X67199000Y-53753000D03*
D13*
%TO.N,PD2*%
X67199000Y-56293000D03*
%TO.N,PC12*%
X67199000Y-58832999D03*
%TO.N,unconnected-(J6-Pin_4-Pad4)*%
X67199000Y-61373000D03*
%TO.N,GND*%
X67199000Y-63913000D03*
X67199000Y-66453000D03*
%TD*%
D14*
%TO.N,PA0*%
%TO.C,U1*%
X132299000Y-68028000D03*
%TO.N,PA1*%
X132299000Y-66028001D03*
%TO.N,PA2*%
X132299000Y-64028000D03*
%TO.N,PA3*%
X132299000Y-62028001D03*
%TO.N,PA4*%
X132299000Y-60028000D03*
%TO.N,PA5*%
X132299000Y-58028002D03*
%TO.N,PA6*%
X132299000Y-56028001D03*
%TO.N,PA7*%
X132299000Y-54028000D03*
%TO.N,PA8*%
X134839000Y-68028000D03*
%TO.N,PA9*%
X134839000Y-66028001D03*
%TO.N,PA10*%
X134839000Y-64028000D03*
%TO.N,PB11*%
X134839000Y-62028001D03*
%TO.N,PB12*%
X134839000Y-60028000D03*
%TO.N,PB13*%
X134839000Y-58028002D03*
%TO.N,PB14*%
X134839000Y-56028001D03*
%TO.N,unconnected-(U1-Pad16)*%
X134839000Y-54028000D03*
%TD*%
D15*
%TO.N,+3.3V*%
%TO.C,J5*%
X131839000Y-39028000D03*
%TO.N,PC11*%
X129339000Y-39028000D03*
%TO.N,GND*%
X126839000Y-39028000D03*
%TD*%
D10*
%TO.N,PC13*%
%TO.C,J2*%
X68596000Y-40030002D03*
D11*
%TO.N,PC14*%
X68596000Y-42530002D03*
%TO.N,PC15*%
X68596000Y-45030000D03*
%TO.N,GND*%
X68596000Y-47530000D03*
%TD*%
D16*
%TO.N,PB0*%
%TO.C,J1*%
X95372399Y-37226306D03*
%TO.N,PB1*%
X95372399Y-39726306D03*
%TO.N,PB2*%
X97372400Y-37226306D03*
%TO.N,PB3*%
X97372400Y-39726306D03*
%TO.N,PB4*%
X99372398Y-37226306D03*
%TO.N,PB5*%
X99372398Y-39726306D03*
%TO.N,PB6*%
X101372400Y-37226306D03*
%TO.N,PB7*%
X101372400Y-39726306D03*
%TO.N,PB8*%
X103372398Y-37226306D03*
%TO.N,PB9*%
X103372398Y-39726306D03*
%TO.N,PB10*%
X105372399Y-37226306D03*
%TO.N,PC0*%
X105372399Y-39726306D03*
%TO.N,PC1*%
X107372400Y-37226306D03*
%TO.N,PC2*%
X107372400Y-39726306D03*
%TO.N,PC3*%
X109372399Y-37226306D03*
%TO.N,PC4*%
X109372399Y-39726306D03*
%TO.N,PC5*%
X111372400Y-37226306D03*
%TO.N,PC6*%
X111372400Y-39726306D03*
%TO.N,PC7*%
X113372398Y-37226306D03*
%TO.N,PC8*%
X113372398Y-39726306D03*
%TO.N,PC9*%
X115372399Y-37226306D03*
%TO.N,PC10*%
X115372399Y-39726306D03*
%TO.N,+3.3V*%
X117372398Y-37226306D03*
%TO.N,GND*%
X117372398Y-39726306D03*
%TD*%
D10*
%TO.N,PC13*%
%TO.C,J3*%
X79384002Y-30512000D03*
D11*
%TO.N,PC14*%
X81884002Y-30512000D03*
%TO.N,PC15*%
X84384000Y-30512000D03*
%TO.N,GND*%
X86884000Y-30512000D03*
%TD*%
D12*
%TO.N,GND*%
%TO.C,SW3*%
X90440000Y-52568000D03*
D13*
%TO.N,/stm/SW_BOOT0*%
X90440000Y-50028000D03*
%TO.N,+3.3V*%
X90440000Y-47488001D03*
%TD*%
D15*
%TO.N,RST*%
%TO.C,SW2*%
X135779000Y-77248000D03*
%TO.N,GND*%
X135779000Y-79748000D03*
%TD*%
%TO.N,+3.3V*%
%TO.C,J4*%
X69104000Y-80296000D03*
%TO.N,GND*%
X69104000Y-77796000D03*
%TD*%
D17*
%TO.N,+3.3V*%
X88916000Y-71152000D03*
D18*
X110506000Y-62008000D03*
X105039000Y-60628000D03*
D17*
X100854000Y-89440000D03*
D18*
%TO.N,GND*%
X88662000Y-52864000D03*
X123587000Y-63659000D03*
X118039000Y-58628000D03*
X89424000Y-67088000D03*
X96917000Y-68612000D03*
X120116938Y-48410474D03*
X114824000Y-87408000D03*
X120285000Y-75216000D03*
X111903000Y-61627000D03*
X76978000Y-91106200D03*
X88154000Y-91218000D03*
X74184000Y-50832000D03*
X88154000Y-76867000D03*
X93488000Y-76870000D03*
X115309319Y-65890553D03*
X116685231Y-65660275D03*
X135144000Y-87408000D03*
X73100498Y-87340281D03*
X75200000Y-36608000D03*
X95639000Y-78428000D03*
X135144000Y-36608000D03*
X102639000Y-77028000D03*
X106467938Y-31559856D03*
X124984000Y-36608000D03*
%TO.N,PC9*%
X128639000Y-53228000D03*
X128639000Y-49718131D03*
%TO.N,PC3*%
X114925519Y-64741481D03*
X109839000Y-45428000D03*
%TO.N,PC8*%
X127121500Y-49710500D03*
X125839000Y-54879600D03*
%TO.N,PC6*%
X123279072Y-56828000D03*
X123997500Y-49786500D03*
%TO.N,PB8*%
X113939000Y-53328000D03*
X109739000Y-51128000D03*
%TO.N,PC2*%
X117165870Y-58846283D03*
X109839000Y-46628000D03*
%TO.N,PC10*%
X112139000Y-53428000D03*
X112067495Y-45791665D03*
%TO.N,PB3*%
X105102144Y-52591144D03*
X109039000Y-54728000D03*
%TO.N,PC5*%
X118639000Y-60828000D03*
%TO.N,PB10*%
X118839000Y-63828000D03*
%TO.N,PB9*%
X114539000Y-52528000D03*
X109739000Y-50128000D03*
%TO.N,PC7*%
X124039000Y-55628000D03*
X125776662Y-49718131D03*
%TO.N,PB5*%
X102639000Y-52728000D03*
X107039000Y-56128000D03*
X99539000Y-49628000D03*
%TO.N,PC0*%
X115387400Y-58628000D03*
X109839000Y-49028000D03*
%TO.N,PC1*%
X116039000Y-59428000D03*
X109839000Y-47828000D03*
%TO.N,PB2*%
X122839000Y-66228000D03*
%TO.N,PC4*%
X118439000Y-59828000D03*
%TO.N,PB6*%
X101439000Y-52728000D03*
X106239000Y-56828000D03*
%TO.N,PB7*%
X104401500Y-57190500D03*
X101339000Y-47728000D03*
%TO.N,PB1*%
X121639000Y-66428000D03*
X96896800Y-64060200D03*
%TO.N,PB0*%
X120639000Y-66626400D03*
%TO.N,PB4*%
X98539000Y-47328000D03*
X108139000Y-55428000D03*
X103939000Y-52728000D03*
%TO.N,PA8*%
X125689000Y-51176400D03*
X123189000Y-53578000D03*
%TO.N,PB14*%
X128539000Y-55028000D03*
%TO.N,PB11*%
X125139000Y-62828000D03*
%TO.N,PB12*%
X125139000Y-59028000D03*
%TO.N,PB13*%
X126439000Y-56928000D03*
%TO.N,PA9*%
X123639000Y-51828000D03*
X121916695Y-53450305D03*
%TO.N,PC15*%
X97839000Y-53597177D03*
X99139000Y-61928000D03*
X88154000Y-45030000D03*
%TO.N,PC14*%
X85360000Y-42450000D03*
X100139000Y-61228000D03*
X98839000Y-52483000D03*
%TO.N,PC13*%
X100939000Y-60428000D03*
X99739000Y-53497697D03*
D19*
%TO.N,/programming/5v5_post_diode*%
X79264000Y-79788000D03*
D18*
%TO.N,PC11*%
X111039000Y-53228000D03*
X113739000Y-50528000D03*
%TO.N,RST*%
X110439000Y-68686000D03*
X114039000Y-74228000D03*
X111739000Y-63628000D03*
X96539000Y-55928000D03*
%TD*%
D20*
%TO.N,PB8*%
X109739000Y-51128000D02*
X111739000Y-51128000D01*
X111739000Y-51128000D02*
X113939000Y-53328000D01*
%TO.N,PC2*%
X113239000Y-46628000D02*
X109839000Y-46628000D01*
X113639000Y-47028000D02*
X113239000Y-46628000D01*
X117165870Y-58846283D02*
X117165870Y-50554870D01*
X117165870Y-50554870D02*
X113639000Y-47028000D01*
%TO.N,PB9*%
X114539000Y-52528000D02*
X112139000Y-50128000D01*
X112139000Y-50128000D02*
X109739000Y-50128000D01*
%TO.N,PC0*%
X115387400Y-58628000D02*
X115439000Y-58576400D01*
X113639000Y-49028000D02*
X109839000Y-49028000D01*
X115439000Y-50828000D02*
X113639000Y-49028000D01*
X115439000Y-58576400D02*
X115439000Y-50828000D01*
%TO.N,PC1*%
X116039000Y-59428000D02*
X116039000Y-50428000D01*
X116039000Y-50428000D02*
X113439000Y-47828000D01*
X113439000Y-47828000D02*
X109839000Y-47828000D01*
%TD*%
%TA.AperFunction,Conductor*%
%TO.N,GND*%
G36*
X77886075Y-59998493D02*
G01*
X77951901Y-60112507D01*
X78044993Y-60205599D01*
X78159007Y-60271425D01*
X78222590Y-60288462D01*
X77659555Y-60851496D01*
X77722601Y-60895642D01*
X77722609Y-60895646D01*
X77866711Y-60962842D01*
X77919151Y-61009014D01*
X77938303Y-61076207D01*
X77918087Y-61143089D01*
X77866712Y-61187606D01*
X77722354Y-61254921D01*
X77722350Y-61254923D01*
X77542548Y-61380822D01*
X77542542Y-61380827D01*
X77387328Y-61536041D01*
X77387323Y-61536047D01*
X77261424Y-61715849D01*
X77261420Y-61715857D01*
X77194382Y-61859622D01*
X77148210Y-61912062D01*
X77081016Y-61931214D01*
X77014135Y-61910998D01*
X76969618Y-61859622D01*
X76909484Y-61730665D01*
X76902578Y-61715854D01*
X76902576Y-61715851D01*
X76902575Y-61715849D01*
X76776676Y-61536047D01*
X76776671Y-61536041D01*
X76621457Y-61380827D01*
X76621451Y-61380822D01*
X76441649Y-61254923D01*
X76441645Y-61254921D01*
X76297287Y-61187606D01*
X76244848Y-61141434D01*
X76225696Y-61074240D01*
X76245912Y-61007359D01*
X76297288Y-60962842D01*
X76441390Y-60895646D01*
X76504442Y-60851495D01*
X75941410Y-60288462D01*
X76004993Y-60271425D01*
X76119007Y-60205599D01*
X76212099Y-60112507D01*
X76277925Y-59998493D01*
X76294962Y-59934909D01*
X76857995Y-60497942D01*
X76902145Y-60434892D01*
X76969618Y-60290197D01*
X77015790Y-60237758D01*
X77082984Y-60218606D01*
X77149865Y-60238822D01*
X77194382Y-60290197D01*
X77261854Y-60434892D01*
X77306003Y-60497943D01*
X77869037Y-59934909D01*
X77886075Y-59998493D01*
G37*
%TD.AperFunction*%
%TA.AperFunction,Conductor*%
G36*
X77271700Y-57916333D02*
G01*
X77292073Y-57938922D01*
X77387326Y-58074957D01*
X77387327Y-58074958D01*
X77542541Y-58230172D01*
X77542547Y-58230177D01*
X77722349Y-58356076D01*
X77722351Y-58356077D01*
X77722354Y-58356079D01*
X77825513Y-58404182D01*
X77866710Y-58423393D01*
X77919150Y-58469565D01*
X77938302Y-58536758D01*
X77918086Y-58603640D01*
X77866712Y-58648157D01*
X77722603Y-58715357D01*
X77659556Y-58759503D01*
X77659555Y-58759503D01*
X78222590Y-59322537D01*
X78159007Y-59339575D01*
X78044993Y-59405401D01*
X77951901Y-59498493D01*
X77886075Y-59612507D01*
X77869037Y-59676090D01*
X77306003Y-59113055D01*
X77306003Y-59113056D01*
X77261856Y-59176104D01*
X77261855Y-59176106D01*
X77194382Y-59320802D01*
X77148209Y-59373241D01*
X77081016Y-59392393D01*
X77014135Y-59372177D01*
X76969618Y-59320802D01*
X76902144Y-59176105D01*
X76902142Y-59176101D01*
X76857996Y-59113055D01*
X76294962Y-59676089D01*
X76277925Y-59612507D01*
X76212099Y-59498493D01*
X76119007Y-59405401D01*
X76004993Y-59339575D01*
X75941409Y-59322537D01*
X76504443Y-58759503D01*
X76484550Y-58745574D01*
X76440925Y-58690997D01*
X76433731Y-58621499D01*
X76465254Y-58559144D01*
X76525484Y-58523730D01*
X76555672Y-58519999D01*
X76613872Y-58519999D01*
X76673483Y-58513591D01*
X76808331Y-58463296D01*
X76923546Y-58377046D01*
X77009796Y-58261831D01*
X77060091Y-58126983D01*
X77066500Y-58067373D01*
X77066499Y-58010045D01*
X77086182Y-57943009D01*
X77138986Y-57897253D01*
X77208144Y-57887309D01*
X77271700Y-57916333D01*
G37*
%TD.AperFunction*%
%TA.AperFunction,Conductor*%
G36*
X67449000Y-66019988D02*
G01*
X67391993Y-65987075D01*
X67264826Y-65953000D01*
X67133174Y-65953000D01*
X67006007Y-65987075D01*
X66949000Y-66019988D01*
X66949000Y-64346012D01*
X67006007Y-64378925D01*
X67133174Y-64413000D01*
X67264826Y-64413000D01*
X67391993Y-64378925D01*
X67449000Y-64346012D01*
X67449000Y-66019988D01*
G37*
%TD.AperFunction*%
%TA.AperFunction,Conductor*%
G36*
X116460444Y-37967991D02*
G01*
X116471350Y-37980577D01*
X116495514Y-38012574D01*
X116501381Y-38020343D01*
X116662116Y-38166871D01*
X116847038Y-38281371D01*
X117052448Y-38360947D01*
X117107849Y-38403520D01*
X117131440Y-38469287D01*
X117115729Y-38537367D01*
X117065705Y-38586146D01*
X117052448Y-38592200D01*
X116847272Y-38671686D01*
X116847259Y-38671692D01*
X116738609Y-38738964D01*
X117309043Y-39309397D01*
X117210632Y-39335767D01*
X117115065Y-39390943D01*
X117037035Y-39468973D01*
X116981859Y-39564540D01*
X116955489Y-39662951D01*
X116364954Y-39072416D01*
X116362470Y-39071870D01*
X116323182Y-39037896D01*
X116298982Y-39005851D01*
X116243416Y-38932269D01*
X116082681Y-38785741D01*
X115897759Y-38671241D01*
X115897758Y-38671240D01*
X115772258Y-38622622D01*
X115694946Y-38592671D01*
X115694944Y-38592670D01*
X115693040Y-38591933D01*
X115637639Y-38549360D01*
X115614048Y-38483593D01*
X115629759Y-38415513D01*
X115679783Y-38366734D01*
X115693040Y-38360679D01*
X115694944Y-38359941D01*
X115694946Y-38359941D01*
X115897759Y-38281371D01*
X116082681Y-38166871D01*
X116243416Y-38020343D01*
X116273445Y-37980577D01*
X116329550Y-37938943D01*
X116399262Y-37934250D01*
X116460444Y-37967991D01*
G37*
%TD.AperFunction*%
%TA.AperFunction,Conductor*%
G36*
X140938201Y-27460185D02*
G01*
X140958843Y-27476819D01*
X142751181Y-29269157D01*
X142784666Y-29330480D01*
X142787500Y-29356838D01*
X142787500Y-94151162D01*
X142767815Y-94218201D01*
X142751181Y-94238843D01*
X140958843Y-96031181D01*
X140897520Y-96064666D01*
X140871162Y-96067500D01*
X67186838Y-96067500D01*
X67119799Y-96047815D01*
X67099157Y-96031181D01*
X65306819Y-94238843D01*
X65273334Y-94177520D01*
X65270500Y-94151162D01*
X65270500Y-91591186D01*
X67211500Y-91591186D01*
X67211500Y-91860813D01*
X67241686Y-92128719D01*
X67241688Y-92128731D01*
X67301684Y-92391594D01*
X67301687Y-92391602D01*
X67390734Y-92646082D01*
X67507714Y-92888994D01*
X67507716Y-92888997D01*
X67651162Y-93117289D01*
X67776573Y-93274549D01*
X67815294Y-93323105D01*
X67819266Y-93328085D01*
X68009915Y-93518734D01*
X68220711Y-93686838D01*
X68449003Y-93830284D01*
X68691921Y-93947267D01*
X68883049Y-94014145D01*
X68946397Y-94036312D01*
X68946405Y-94036315D01*
X68946408Y-94036315D01*
X68946409Y-94036316D01*
X69209268Y-94096312D01*
X69477187Y-94126499D01*
X69477188Y-94126500D01*
X69477191Y-94126500D01*
X69746812Y-94126500D01*
X69746812Y-94126499D01*
X70014732Y-94096312D01*
X70277591Y-94036316D01*
X70532079Y-93947267D01*
X70774997Y-93830284D01*
X71003289Y-93686838D01*
X71214085Y-93518734D01*
X71404734Y-93328085D01*
X71572838Y-93117289D01*
X71716284Y-92888997D01*
X71833267Y-92646079D01*
X71851948Y-92592693D01*
X74898700Y-92592693D01*
X74898700Y-92738906D01*
X74936542Y-92880137D01*
X74936545Y-92880144D01*
X74945642Y-92895901D01*
X74962115Y-92963801D01*
X74945642Y-93019899D01*
X74936545Y-93035655D01*
X74936542Y-93035662D01*
X74898700Y-93176893D01*
X74898700Y-93323106D01*
X74936542Y-93464339D01*
X74967948Y-93518734D01*
X75009649Y-93590962D01*
X75113038Y-93694351D01*
X75239662Y-93767458D01*
X75380893Y-93805300D01*
X75380895Y-93805300D01*
X75527105Y-93805300D01*
X75527107Y-93805300D01*
X75668338Y-93767458D01*
X75794962Y-93694351D01*
X75898351Y-93590962D01*
X75971458Y-93464338D01*
X76009300Y-93323107D01*
X76009300Y-93176893D01*
X75971458Y-93035662D01*
X75971457Y-93035661D01*
X75971457Y-93035659D01*
X75962360Y-93019905D01*
X75945884Y-92952006D01*
X75962360Y-92895895D01*
X75971457Y-92880140D01*
X75971458Y-92880137D01*
X76009300Y-92738907D01*
X76009300Y-92592693D01*
X83534700Y-92592693D01*
X83534700Y-92738906D01*
X83572542Y-92880137D01*
X83572545Y-92880144D01*
X83581642Y-92895901D01*
X83598115Y-92963801D01*
X83581642Y-93019899D01*
X83572545Y-93035655D01*
X83572542Y-93035662D01*
X83534700Y-93176893D01*
X83534700Y-93323106D01*
X83572542Y-93464339D01*
X83603948Y-93518734D01*
X83645649Y-93590962D01*
X83749038Y-93694351D01*
X83875662Y-93767458D01*
X84016893Y-93805300D01*
X84016895Y-93805300D01*
X84163105Y-93805300D01*
X84163107Y-93805300D01*
X84304338Y-93767458D01*
X84430962Y-93694351D01*
X84534351Y-93590962D01*
X84607458Y-93464338D01*
X84645300Y-93323107D01*
X84645300Y-93176893D01*
X84607458Y-93035662D01*
X84607457Y-93035661D01*
X84607457Y-93035659D01*
X84598360Y-93019905D01*
X84581884Y-92952006D01*
X84598360Y-92895895D01*
X84607457Y-92880140D01*
X84607458Y-92880137D01*
X84645300Y-92738907D01*
X84645300Y-92592693D01*
X84607458Y-92451462D01*
X84534351Y-92324838D01*
X84430962Y-92221449D01*
X84367650Y-92184895D01*
X84304339Y-92148342D01*
X84231103Y-92128719D01*
X84163107Y-92110500D01*
X84016893Y-92110500D01*
X83875660Y-92148342D01*
X83749038Y-92221449D01*
X83749035Y-92221451D01*
X83645651Y-92324835D01*
X83645649Y-92324838D01*
X83572542Y-92451460D01*
X83534700Y-92592693D01*
X76009300Y-92592693D01*
X75971458Y-92451462D01*
X75898351Y-92324838D01*
X75794962Y-92221449D01*
X75731650Y-92184895D01*
X75668339Y-92148342D01*
X75595103Y-92128719D01*
X75527107Y-92110500D01*
X75380893Y-92110500D01*
X75239660Y-92148342D01*
X75113038Y-92221449D01*
X75113035Y-92221451D01*
X75009651Y-92324835D01*
X75009649Y-92324838D01*
X74936542Y-92451460D01*
X74898700Y-92592693D01*
X71851948Y-92592693D01*
X71922316Y-92391591D01*
X71982312Y-92128732D01*
X72012500Y-91860809D01*
X72012500Y-91591191D01*
X72012499Y-91591186D01*
X136045500Y-91591186D01*
X136045500Y-91860813D01*
X136075686Y-92128719D01*
X136075688Y-92128731D01*
X136135684Y-92391594D01*
X136135687Y-92391602D01*
X136224734Y-92646082D01*
X136341714Y-92888994D01*
X136341716Y-92888997D01*
X136485162Y-93117289D01*
X136610573Y-93274549D01*
X136649294Y-93323105D01*
X136653266Y-93328085D01*
X136843915Y-93518734D01*
X137054711Y-93686838D01*
X137283003Y-93830284D01*
X137525921Y-93947267D01*
X137717049Y-94014145D01*
X137780397Y-94036312D01*
X137780405Y-94036315D01*
X137780408Y-94036315D01*
X137780409Y-94036316D01*
X138043268Y-94096312D01*
X138311187Y-94126499D01*
X138311188Y-94126500D01*
X138311191Y-94126500D01*
X138580812Y-94126500D01*
X138580812Y-94126499D01*
X138848732Y-94096312D01*
X139111591Y-94036316D01*
X139366079Y-93947267D01*
X139608997Y-93830284D01*
X139837289Y-93686838D01*
X140048085Y-93518734D01*
X140238734Y-93328085D01*
X140406838Y-93117289D01*
X140550284Y-92888997D01*
X140667267Y-92646079D01*
X140756316Y-92391591D01*
X140816312Y-92128732D01*
X140846500Y-91860809D01*
X140846500Y-91591191D01*
X140816312Y-91323268D01*
X140756316Y-91060409D01*
X140667267Y-90805921D01*
X140550284Y-90563003D01*
X140406838Y-90334711D01*
X140238734Y-90123915D01*
X140048085Y-89933266D01*
X139837289Y-89765162D01*
X139608997Y-89621716D01*
X139608994Y-89621714D01*
X139366082Y-89504734D01*
X139111602Y-89415687D01*
X139111594Y-89415684D01*
X138897824Y-89366893D01*
X138848732Y-89355688D01*
X138848728Y-89355687D01*
X138848719Y-89355686D01*
X138580813Y-89325500D01*
X138580809Y-89325500D01*
X138311191Y-89325500D01*
X138311186Y-89325500D01*
X138043280Y-89355686D01*
X138043268Y-89355688D01*
X137780405Y-89415684D01*
X137780397Y-89415687D01*
X137525917Y-89504734D01*
X137283005Y-89621714D01*
X137054712Y-89765161D01*
X136843915Y-89933265D01*
X136653265Y-90123915D01*
X136485161Y-90334712D01*
X136341714Y-90563005D01*
X136224734Y-90805917D01*
X136135687Y-91060397D01*
X136135684Y-91060405D01*
X136075688Y-91323268D01*
X136075686Y-91323280D01*
X136045500Y-91591186D01*
X72012499Y-91591186D01*
X71982312Y-91323268D01*
X71922316Y-91060409D01*
X71833267Y-90805921D01*
X71716284Y-90563003D01*
X71572838Y-90334711D01*
X71404734Y-90123915D01*
X71214085Y-89933266D01*
X71003289Y-89765162D01*
X70774997Y-89621716D01*
X70774994Y-89621714D01*
X70532082Y-89504734D01*
X70277602Y-89415687D01*
X70277594Y-89415684D01*
X70063824Y-89366893D01*
X70014732Y-89355688D01*
X70014728Y-89355687D01*
X70014719Y-89355686D01*
X69746813Y-89325500D01*
X69746809Y-89325500D01*
X69477191Y-89325500D01*
X69477186Y-89325500D01*
X69209280Y-89355686D01*
X69209268Y-89355688D01*
X68946405Y-89415684D01*
X68946397Y-89415687D01*
X68691917Y-89504734D01*
X68449005Y-89621714D01*
X68220712Y-89765161D01*
X68009915Y-89933265D01*
X67819265Y-90123915D01*
X67651161Y-90334712D01*
X67507714Y-90563005D01*
X67390734Y-90805917D01*
X67301687Y-91060397D01*
X67301684Y-91060405D01*
X67241688Y-91323268D01*
X67241686Y-91323280D01*
X67211500Y-91591186D01*
X65270500Y-91591186D01*
X65270500Y-88782693D01*
X74898700Y-88782693D01*
X74898700Y-88928907D01*
X74933678Y-89059447D01*
X74936542Y-89070137D01*
X74936545Y-89070144D01*
X74945642Y-89085901D01*
X74962115Y-89153801D01*
X74945642Y-89209899D01*
X74936545Y-89225655D01*
X74936542Y-89225662D01*
X74898700Y-89366893D01*
X74898700Y-89513106D01*
X74936542Y-89654339D01*
X74973095Y-89717650D01*
X75009649Y-89780962D01*
X75113038Y-89884351D01*
X75239662Y-89957458D01*
X75380893Y-89995300D01*
X75380895Y-89995300D01*
X75527105Y-89995300D01*
X75527107Y-89995300D01*
X75668338Y-89957458D01*
X75794962Y-89884351D01*
X75898351Y-89780962D01*
X75971458Y-89654338D01*
X76009300Y-89513107D01*
X76009300Y-89366893D01*
X75971458Y-89225662D01*
X75971457Y-89225661D01*
X75971457Y-89225659D01*
X75962360Y-89209905D01*
X75945884Y-89142006D01*
X75962360Y-89085895D01*
X75971457Y-89070140D01*
X75971458Y-89070137D01*
X76009300Y-88928907D01*
X76009300Y-88782693D01*
X83534700Y-88782693D01*
X83534700Y-88928907D01*
X83569678Y-89059447D01*
X83572542Y-89070137D01*
X83572545Y-89070144D01*
X83581642Y-89085901D01*
X83598115Y-89153801D01*
X83581642Y-89209899D01*
X83572545Y-89225655D01*
X83572542Y-89225662D01*
X83534700Y-89366893D01*
X83534700Y-89513106D01*
X83572542Y-89654339D01*
X83609095Y-89717650D01*
X83645649Y-89780962D01*
X83749038Y-89884351D01*
X83875662Y-89957458D01*
X84016893Y-89995300D01*
X84016895Y-89995300D01*
X84163105Y-89995300D01*
X84163107Y-89995300D01*
X84304338Y-89957458D01*
X84430962Y-89884351D01*
X84534351Y-89780962D01*
X84607458Y-89654338D01*
X84645300Y-89513107D01*
X84645300Y-89440000D01*
X99918375Y-89440000D01*
X99938821Y-89634528D01*
X99999264Y-89820555D01*
X99999265Y-89820556D01*
X100097060Y-89989942D01*
X100097063Y-89989947D01*
X100227945Y-90135305D01*
X100342916Y-90218836D01*
X100386188Y-90250276D01*
X100564876Y-90329832D01*
X100756201Y-90370500D01*
X100951799Y-90370500D01*
X101143124Y-90329832D01*
X101321813Y-90250275D01*
X101480055Y-90135305D01*
X101610937Y-89989947D01*
X101708736Y-89820553D01*
X101769179Y-89634527D01*
X101789625Y-89440000D01*
X101769179Y-89245473D01*
X101708736Y-89059447D01*
X101708735Y-89059446D01*
X101708735Y-89059444D01*
X101708734Y-89059443D01*
X101633369Y-88928907D01*
X101610937Y-88890053D01*
X101480055Y-88744695D01*
X101337965Y-88641460D01*
X101321811Y-88629723D01*
X101143123Y-88550167D01*
X100951799Y-88509500D01*
X100756201Y-88509500D01*
X100564876Y-88550167D01*
X100564871Y-88550169D01*
X100386188Y-88629725D01*
X100386183Y-88629727D01*
X100227948Y-88744692D01*
X100227945Y-88744694D01*
X100227945Y-88744695D01*
X100097063Y-88890053D01*
X100097061Y-88890054D01*
X100097060Y-88890057D01*
X99999265Y-89059443D01*
X99999264Y-89059444D01*
X99938821Y-89245471D01*
X99918375Y-89440000D01*
X84645300Y-89440000D01*
X84645300Y-89366893D01*
X84607458Y-89225662D01*
X84607457Y-89225661D01*
X84607457Y-89225659D01*
X84598360Y-89209905D01*
X84581884Y-89142006D01*
X84598360Y-89085895D01*
X84607457Y-89070140D01*
X84607458Y-89070137D01*
X84645300Y-88928907D01*
X84645300Y-88782693D01*
X84607458Y-88641462D01*
X84534351Y-88514838D01*
X84430962Y-88411449D01*
X84367650Y-88374895D01*
X84304339Y-88338342D01*
X84233722Y-88319421D01*
X84163107Y-88300500D01*
X84016893Y-88300500D01*
X83875660Y-88338342D01*
X83749038Y-88411449D01*
X83749035Y-88411451D01*
X83645651Y-88514835D01*
X83645649Y-88514838D01*
X83572542Y-88641460D01*
X83544881Y-88744695D01*
X83534700Y-88782693D01*
X76009300Y-88782693D01*
X75971458Y-88641462D01*
X75898351Y-88514838D01*
X75794962Y-88411449D01*
X75731650Y-88374895D01*
X75668339Y-88338342D01*
X75597722Y-88319421D01*
X75527107Y-88300500D01*
X75380893Y-88300500D01*
X75239660Y-88338342D01*
X75113038Y-88411449D01*
X75113035Y-88411451D01*
X75009651Y-88514835D01*
X75009649Y-88514838D01*
X74936542Y-88641460D01*
X74908881Y-88744695D01*
X74898700Y-88782693D01*
X65270500Y-88782693D01*
X65270500Y-80295999D01*
X67849426Y-80295999D01*
X67849426Y-80296000D01*
X67868485Y-80513849D01*
X67868487Y-80513859D01*
X67925083Y-80725082D01*
X67925085Y-80725086D01*
X67925086Y-80725090D01*
X67955644Y-80790621D01*
X68017506Y-80923286D01*
X68042593Y-80959114D01*
X68142941Y-81102425D01*
X68297575Y-81257059D01*
X68476713Y-81382493D01*
X68674910Y-81474914D01*
X68886146Y-81531514D01*
X69060429Y-81546762D01*
X69103999Y-81550574D01*
X69104000Y-81550574D01*
X69104001Y-81550574D01*
X69140309Y-81547397D01*
X69321854Y-81531514D01*
X69533090Y-81474914D01*
X69731287Y-81382493D01*
X69910425Y-81257059D01*
X70065059Y-81102425D01*
X70190493Y-80923287D01*
X70282914Y-80725090D01*
X70339514Y-80513854D01*
X70358574Y-80296000D01*
X70339514Y-80078146D01*
X70282914Y-79866910D01*
X70246118Y-79788000D01*
X78258659Y-79788000D01*
X78277975Y-79984129D01*
X78277976Y-79984132D01*
X78313595Y-80101553D01*
X78335188Y-80172733D01*
X78428086Y-80346532D01*
X78428090Y-80346539D01*
X78553116Y-80498883D01*
X78705460Y-80623909D01*
X78705467Y-80623913D01*
X78879266Y-80716811D01*
X78879269Y-80716811D01*
X78879273Y-80716814D01*
X79067868Y-80774024D01*
X79264000Y-80793341D01*
X79460132Y-80774024D01*
X79648727Y-80716814D01*
X79822538Y-80623910D01*
X79974883Y-80498883D01*
X80099910Y-80346538D01*
X80173134Y-80209546D01*
X80192811Y-80172733D01*
X80192811Y-80172732D01*
X80192814Y-80172727D01*
X80250024Y-79984132D01*
X80269341Y-79788000D01*
X80250024Y-79591868D01*
X80192814Y-79403273D01*
X80192811Y-79403269D01*
X80192811Y-79403266D01*
X80099913Y-79229467D01*
X80099909Y-79229460D01*
X79974883Y-79077116D01*
X79822539Y-78952090D01*
X79822532Y-78952086D01*
X79648733Y-78859188D01*
X79648727Y-78859186D01*
X79460132Y-78801976D01*
X79460129Y-78801975D01*
X79264000Y-78782659D01*
X79067870Y-78801975D01*
X78879266Y-78859188D01*
X78705467Y-78952086D01*
X78705460Y-78952090D01*
X78553116Y-79077116D01*
X78428090Y-79229460D01*
X78428086Y-79229467D01*
X78335188Y-79403266D01*
X78277975Y-79591870D01*
X78258659Y-79788000D01*
X70246118Y-79788000D01*
X70190493Y-79668713D01*
X70065059Y-79489575D01*
X69910425Y-79334941D01*
X69759783Y-79229460D01*
X69731286Y-79209506D01*
X69621056Y-79158105D01*
X69568617Y-79111932D01*
X69549465Y-79044739D01*
X69569681Y-78977858D01*
X69621057Y-78933340D01*
X69731037Y-78882056D01*
X69793069Y-78838621D01*
X69229573Y-78275125D01*
X69295179Y-78257546D01*
X69408121Y-78192339D01*
X69500339Y-78100121D01*
X69565546Y-77987179D01*
X69583125Y-77921573D01*
X70146621Y-78485069D01*
X70190057Y-78423035D01*
X70282440Y-78224919D01*
X70282444Y-78224910D01*
X70339018Y-78013771D01*
X70339020Y-78013761D01*
X70358072Y-77796001D01*
X70358072Y-77795998D01*
X70339020Y-77578238D01*
X70339018Y-77578228D01*
X70282444Y-77367089D01*
X70282440Y-77367080D01*
X70226912Y-77247999D01*
X134524426Y-77247999D01*
X134524426Y-77248000D01*
X134543485Y-77465849D01*
X134543487Y-77465859D01*
X134600083Y-77677082D01*
X134600085Y-77677086D01*
X134600086Y-77677090D01*
X134625128Y-77730793D01*
X134692506Y-77875286D01*
X134692507Y-77875287D01*
X134817941Y-78054425D01*
X134972575Y-78209059D01*
X135151713Y-78334493D01*
X135261943Y-78385894D01*
X135314382Y-78432066D01*
X135333534Y-78499260D01*
X135313318Y-78566141D01*
X135261943Y-78610658D01*
X135151964Y-78661942D01*
X135089930Y-78705377D01*
X135653428Y-79268874D01*
X135587821Y-79286454D01*
X135474879Y-79351661D01*
X135382661Y-79443879D01*
X135317454Y-79556821D01*
X135299874Y-79622427D01*
X134736377Y-79058930D01*
X134692942Y-79120964D01*
X134600559Y-79319080D01*
X134600555Y-79319089D01*
X134543981Y-79530228D01*
X134543979Y-79530238D01*
X134524928Y-79747998D01*
X134524928Y-79748001D01*
X134543979Y-79965761D01*
X134543981Y-79965771D01*
X134600555Y-80176910D01*
X134600559Y-80176919D01*
X134692944Y-80375039D01*
X134736376Y-80437068D01*
X134736377Y-80437069D01*
X135299874Y-79873572D01*
X135317454Y-79939179D01*
X135382661Y-80052121D01*
X135474879Y-80144339D01*
X135587821Y-80209546D01*
X135653427Y-80227125D01*
X135089929Y-80790621D01*
X135089930Y-80790622D01*
X135151960Y-80834055D01*
X135350080Y-80926440D01*
X135350089Y-80926444D01*
X135561228Y-80983018D01*
X135561238Y-80983020D01*
X135778998Y-81002072D01*
X135779002Y-81002072D01*
X135996761Y-80983020D01*
X135996771Y-80983018D01*
X136207910Y-80926444D01*
X136207919Y-80926440D01*
X136406035Y-80834057D01*
X136468069Y-80790621D01*
X135904573Y-80227125D01*
X135970179Y-80209546D01*
X136083121Y-80144339D01*
X136175339Y-80052121D01*
X136240546Y-79939179D01*
X136258125Y-79873573D01*
X136821621Y-80437069D01*
X136865057Y-80375035D01*
X136957440Y-80176919D01*
X136957444Y-80176910D01*
X137014018Y-79965771D01*
X137014020Y-79965761D01*
X137033072Y-79748001D01*
X137033072Y-79747998D01*
X137014020Y-79530238D01*
X137014018Y-79530228D01*
X136957444Y-79319089D01*
X136957440Y-79319080D01*
X136865055Y-79120960D01*
X136821622Y-79058930D01*
X136821621Y-79058929D01*
X136258124Y-79622426D01*
X136240546Y-79556821D01*
X136175339Y-79443879D01*
X136083121Y-79351661D01*
X135970179Y-79286454D01*
X135904572Y-79268874D01*
X136468069Y-78705377D01*
X136468068Y-78705376D01*
X136406038Y-78661943D01*
X136406036Y-78661942D01*
X136296057Y-78610658D01*
X136243617Y-78564486D01*
X136224465Y-78497292D01*
X136244681Y-78430411D01*
X136296057Y-78385894D01*
X136406287Y-78334493D01*
X136585425Y-78209059D01*
X136740059Y-78054425D01*
X136865493Y-77875287D01*
X136957914Y-77677090D01*
X137014514Y-77465854D01*
X137033574Y-77248000D01*
X137014514Y-77030146D01*
X136957914Y-76818910D01*
X136865493Y-76620713D01*
X136740059Y-76441575D01*
X136585425Y-76286941D01*
X136406287Y-76161507D01*
X136406288Y-76161507D01*
X136406286Y-76161506D01*
X136307188Y-76115296D01*
X136208090Y-76069086D01*
X136208086Y-76069085D01*
X136208082Y-76069083D01*
X135996859Y-76012487D01*
X135996849Y-76012485D01*
X135779001Y-75993426D01*
X135778999Y-75993426D01*
X135561150Y-76012485D01*
X135561140Y-76012487D01*
X135349917Y-76069083D01*
X135349908Y-76069087D01*
X135151713Y-76161506D01*
X135032201Y-76245190D01*
X134972575Y-76286941D01*
X134972573Y-76286942D01*
X134972570Y-76286945D01*
X134817945Y-76441570D01*
X134692506Y-76620713D01*
X134600087Y-76818908D01*
X134600083Y-76818917D01*
X134543487Y-77030140D01*
X134543485Y-77030150D01*
X134524426Y-77247999D01*
X70226912Y-77247999D01*
X70190055Y-77168960D01*
X70146622Y-77106930D01*
X70146621Y-77106929D01*
X69583124Y-77670426D01*
X69565546Y-77604821D01*
X69500339Y-77491879D01*
X69408121Y-77399661D01*
X69295179Y-77334454D01*
X69229572Y-77316874D01*
X69793069Y-76753377D01*
X69793068Y-76753376D01*
X69731039Y-76709944D01*
X69532919Y-76617559D01*
X69532910Y-76617555D01*
X69321771Y-76560981D01*
X69321761Y-76560979D01*
X69104002Y-76541928D01*
X69103998Y-76541928D01*
X68886238Y-76560979D01*
X68886228Y-76560981D01*
X68675089Y-76617555D01*
X68675080Y-76617559D01*
X68476964Y-76709942D01*
X68414930Y-76753377D01*
X68978428Y-77316874D01*
X68912821Y-77334454D01*
X68799879Y-77399661D01*
X68707661Y-77491879D01*
X68642454Y-77604821D01*
X68624874Y-77670427D01*
X68061377Y-77106930D01*
X68017942Y-77168964D01*
X67925559Y-77367080D01*
X67925555Y-77367089D01*
X67868981Y-77578228D01*
X67868979Y-77578238D01*
X67849928Y-77795998D01*
X67849928Y-77796001D01*
X67868979Y-78013761D01*
X67868981Y-78013771D01*
X67925555Y-78224910D01*
X67925559Y-78224919D01*
X68017944Y-78423039D01*
X68061376Y-78485068D01*
X68061377Y-78485069D01*
X68624874Y-77921571D01*
X68642454Y-77987179D01*
X68707661Y-78100121D01*
X68799879Y-78192339D01*
X68912821Y-78257546D01*
X68978427Y-78275125D01*
X68414929Y-78838621D01*
X68414930Y-78838622D01*
X68476961Y-78882056D01*
X68476962Y-78882057D01*
X68586942Y-78933341D01*
X68639382Y-78979513D01*
X68658534Y-79046706D01*
X68638319Y-79113587D01*
X68586944Y-79158105D01*
X68476711Y-79209508D01*
X68448217Y-79229460D01*
X68297575Y-79334941D01*
X68297573Y-79334942D01*
X68297570Y-79334945D01*
X68142945Y-79489570D01*
X68142942Y-79489573D01*
X68142941Y-79489575D01*
X68101190Y-79549201D01*
X68017506Y-79668713D01*
X67925087Y-79866908D01*
X67925083Y-79866917D01*
X67868487Y-80078140D01*
X67868485Y-80078150D01*
X67849426Y-80295999D01*
X65270500Y-80295999D01*
X65270500Y-74228000D01*
X113183815Y-74228000D01*
X113202503Y-74405805D01*
X113202504Y-74405807D01*
X113257747Y-74575829D01*
X113257750Y-74575835D01*
X113347141Y-74730665D01*
X113388812Y-74776946D01*
X113466764Y-74863521D01*
X113466767Y-74863523D01*
X113466770Y-74863526D01*
X113611407Y-74968612D01*
X113774733Y-75041329D01*
X113949609Y-75078500D01*
X113949610Y-75078500D01*
X114128389Y-75078500D01*
X114128391Y-75078500D01*
X114303267Y-75041329D01*
X114466593Y-74968612D01*
X114611230Y-74863526D01*
X114730859Y-74730665D01*
X114820250Y-74575835D01*
X114875497Y-74405803D01*
X114894185Y-74228000D01*
X114875497Y-74050197D01*
X114820250Y-73880165D01*
X114730859Y-73725335D01*
X114684003Y-73673296D01*
X114611235Y-73592478D01*
X114611232Y-73592476D01*
X114611231Y-73592475D01*
X114611230Y-73592474D01*
X114466593Y-73487388D01*
X114303267Y-73414671D01*
X114303265Y-73414670D01*
X114175594Y-73387533D01*
X114128391Y-73377500D01*
X113949609Y-73377500D01*
X113918954Y-73384015D01*
X113774733Y-73414670D01*
X113774728Y-73414672D01*
X113611408Y-73487387D01*
X113466768Y-73592475D01*
X113347140Y-73725336D01*
X113257750Y-73880164D01*
X113257747Y-73880170D01*
X113202504Y-74050192D01*
X113202503Y-74050194D01*
X113183815Y-74228000D01*
X65270500Y-74228000D01*
X65270500Y-71152000D01*
X87980375Y-71152000D01*
X88000821Y-71346528D01*
X88061264Y-71532555D01*
X88061265Y-71532556D01*
X88159060Y-71701942D01*
X88159063Y-71701947D01*
X88289945Y-71847305D01*
X88404916Y-71930836D01*
X88448188Y-71962276D01*
X88626876Y-72041832D01*
X88818201Y-72082500D01*
X89013799Y-72082500D01*
X89205124Y-72041832D01*
X89383813Y-71962275D01*
X89542055Y-71847305D01*
X89672937Y-71701947D01*
X89770736Y-71532553D01*
X89831179Y-71346527D01*
X89851625Y-71152000D01*
X89831179Y-70957473D01*
X89770736Y-70771447D01*
X89770735Y-70771446D01*
X89770735Y-70771444D01*
X89770734Y-70771443D01*
X89672939Y-70602057D01*
X89672937Y-70602053D01*
X89542055Y-70456695D01*
X89470355Y-70404601D01*
X89383811Y-70341723D01*
X89205123Y-70262167D01*
X89013799Y-70221500D01*
X88818201Y-70221500D01*
X88626876Y-70262167D01*
X88626871Y-70262169D01*
X88448188Y-70341725D01*
X88448183Y-70341727D01*
X88289948Y-70456692D01*
X88289945Y-70456694D01*
X88289945Y-70456695D01*
X88159063Y-70602053D01*
X88159061Y-70602054D01*
X88159060Y-70602057D01*
X88061265Y-70771443D01*
X88061264Y-70771444D01*
X88000821Y-70957471D01*
X87980375Y-71152000D01*
X65270500Y-71152000D01*
X65270500Y-68686000D01*
X109583815Y-68686000D01*
X109602503Y-68863805D01*
X109602504Y-68863807D01*
X109657747Y-69033829D01*
X109657750Y-69033835D01*
X109747141Y-69188665D01*
X109778484Y-69223475D01*
X109866764Y-69321521D01*
X109866767Y-69321523D01*
X109866770Y-69321526D01*
X110011407Y-69426612D01*
X110174733Y-69499329D01*
X110349609Y-69536500D01*
X110349610Y-69536500D01*
X110528389Y-69536500D01*
X110528391Y-69536500D01*
X110568385Y-69527999D01*
X118183722Y-69527999D01*
X118183722Y-69528000D01*
X118202762Y-69684818D01*
X118258780Y-69832523D01*
X118348517Y-69962530D01*
X118466760Y-70067283D01*
X118466762Y-70067284D01*
X118606634Y-70140696D01*
X118760014Y-70178500D01*
X118760015Y-70178500D01*
X118917985Y-70178500D01*
X119071365Y-70140696D01*
X119211240Y-70067283D01*
X119329483Y-69962530D01*
X119419220Y-69832523D01*
X119475237Y-69684818D01*
X119494278Y-69528000D01*
X119475237Y-69371182D01*
X119419220Y-69223477D01*
X119329483Y-69093470D01*
X119211240Y-68988717D01*
X119211238Y-68988716D01*
X119211237Y-68988715D01*
X119071365Y-68915303D01*
X118917986Y-68877500D01*
X118917985Y-68877500D01*
X118760015Y-68877500D01*
X118760014Y-68877500D01*
X118606634Y-68915303D01*
X118466762Y-68988715D01*
X118348516Y-69093471D01*
X118258781Y-69223475D01*
X118258780Y-69223476D01*
X118202762Y-69371181D01*
X118183722Y-69527999D01*
X110568385Y-69527999D01*
X110703267Y-69499329D01*
X110866593Y-69426612D01*
X111011230Y-69321526D01*
X111130859Y-69188665D01*
X111220250Y-69033835D01*
X111275497Y-68863803D01*
X111294185Y-68686000D01*
X111275497Y-68508197D01*
X111220250Y-68338165D01*
X111130859Y-68183335D01*
X111084003Y-68131296D01*
X111011235Y-68050478D01*
X111011232Y-68050476D01*
X111011231Y-68050475D01*
X111011230Y-68050474D01*
X110866593Y-67945388D01*
X110703267Y-67872671D01*
X110703265Y-67872670D01*
X110575594Y-67845533D01*
X110528391Y-67835500D01*
X110349609Y-67835500D01*
X110318954Y-67842015D01*
X110174733Y-67872670D01*
X110174728Y-67872672D01*
X110011408Y-67945387D01*
X109866768Y-68050475D01*
X109747140Y-68183336D01*
X109657750Y-68338164D01*
X109657747Y-68338170D01*
X109602504Y-68508192D01*
X109602503Y-68508194D01*
X109583815Y-68686000D01*
X65270500Y-68686000D01*
X65270500Y-56292999D01*
X65843341Y-56292999D01*
X65843341Y-56293000D01*
X65863936Y-56528403D01*
X65863938Y-56528413D01*
X65925094Y-56756655D01*
X65925096Y-56756659D01*
X65925097Y-56756663D01*
X66000178Y-56917675D01*
X66024965Y-56970830D01*
X66024967Y-56970834D01*
X66119477Y-57105807D01*
X66160505Y-57164401D01*
X66327599Y-57331495D01*
X66469225Y-57430663D01*
X66513157Y-57461424D01*
X66556782Y-57516001D01*
X66563976Y-57585499D01*
X66532453Y-57647854D01*
X66513158Y-57664574D01*
X66327594Y-57794507D01*
X66160505Y-57961596D01*
X66024965Y-58155168D01*
X66024964Y-58155170D01*
X65925098Y-58369334D01*
X65925094Y-58369343D01*
X65863938Y-58597585D01*
X65863936Y-58597595D01*
X65843341Y-58832998D01*
X65843341Y-58832999D01*
X65863936Y-59068402D01*
X65863938Y-59068412D01*
X65925094Y-59296654D01*
X65925096Y-59296658D01*
X65925097Y-59296662D01*
X66013600Y-59486457D01*
X66024965Y-59510829D01*
X66024967Y-59510833D01*
X66160501Y-59704394D01*
X66160506Y-59704401D01*
X66327597Y-59871492D01*
X66327603Y-59871497D01*
X66513158Y-60001424D01*
X66556783Y-60056001D01*
X66563977Y-60125499D01*
X66532454Y-60187854D01*
X66513159Y-60204574D01*
X66327594Y-60334508D01*
X66160505Y-60501597D01*
X66024965Y-60695169D01*
X66024964Y-60695171D01*
X65925098Y-60909335D01*
X65925094Y-60909344D01*
X65863938Y-61137586D01*
X65863936Y-61137596D01*
X65843341Y-61372999D01*
X65843341Y-61373000D01*
X65863936Y-61608403D01*
X65863938Y-61608413D01*
X65925094Y-61836655D01*
X65925096Y-61836659D01*
X65925097Y-61836663D01*
X65969187Y-61931214D01*
X66024965Y-62050830D01*
X66024967Y-62050834D01*
X66119477Y-62185807D01*
X66152420Y-62232855D01*
X66160501Y-62244395D01*
X66160506Y-62244402D01*
X66327597Y-62411493D01*
X66327603Y-62411498D01*
X66355085Y-62430741D01*
X66469225Y-62510663D01*
X66513594Y-62541730D01*
X66557219Y-62596307D01*
X66564413Y-62665805D01*
X66532890Y-62728160D01*
X66513595Y-62744880D01*
X66327922Y-62874890D01*
X66327920Y-62874891D01*
X66160891Y-63041920D01*
X66160886Y-63041926D01*
X66025400Y-63235420D01*
X66025399Y-63235422D01*
X65925570Y-63449507D01*
X65925567Y-63449513D01*
X65868364Y-63662999D01*
X65868364Y-63663000D01*
X66765988Y-63663000D01*
X66733075Y-63720007D01*
X66699000Y-63847174D01*
X66699000Y-63978826D01*
X66733075Y-64105993D01*
X66765988Y-64163000D01*
X65868364Y-64163000D01*
X65925567Y-64376486D01*
X65925570Y-64376492D01*
X66025399Y-64590578D01*
X66160894Y-64784082D01*
X66327917Y-64951105D01*
X66514031Y-65081425D01*
X66557656Y-65136003D01*
X66564848Y-65205501D01*
X66533326Y-65267856D01*
X66514031Y-65284575D01*
X66327922Y-65414890D01*
X66327920Y-65414891D01*
X66160891Y-65581920D01*
X66160886Y-65581926D01*
X66025400Y-65775420D01*
X66025399Y-65775422D01*
X65925570Y-65989507D01*
X65925567Y-65989513D01*
X65868364Y-66202999D01*
X65868364Y-66203000D01*
X66765988Y-66203000D01*
X66733075Y-66260007D01*
X66699000Y-66387174D01*
X66699000Y-66518826D01*
X66733075Y-66645993D01*
X66765988Y-66703000D01*
X65868364Y-66703000D01*
X65925567Y-66916486D01*
X65925570Y-66916492D01*
X66025399Y-67130578D01*
X66160894Y-67324082D01*
X66327917Y-67491105D01*
X66521421Y-67626600D01*
X66735507Y-67726429D01*
X66735516Y-67726433D01*
X66949000Y-67783634D01*
X66949000Y-66886012D01*
X67006007Y-66918925D01*
X67133174Y-66953000D01*
X67264826Y-66953000D01*
X67391993Y-66918925D01*
X67449000Y-66886012D01*
X67449000Y-67783633D01*
X67662483Y-67726433D01*
X67662492Y-67726429D01*
X67876578Y-67626600D01*
X68070082Y-67491105D01*
X68237105Y-67324082D01*
X68372600Y-67130578D01*
X68472429Y-66916492D01*
X68472432Y-66916486D01*
X68529636Y-66703000D01*
X67632012Y-66703000D01*
X67664925Y-66645993D01*
X67699000Y-66518826D01*
X67699000Y-66387174D01*
X67664925Y-66260007D01*
X67632012Y-66203000D01*
X68529636Y-66203000D01*
X68529635Y-66202999D01*
X68472432Y-65989513D01*
X68472429Y-65989507D01*
X68372600Y-65775422D01*
X68372599Y-65775420D01*
X68237113Y-65581926D01*
X68237108Y-65581920D01*
X68070082Y-65414894D01*
X67883968Y-65284575D01*
X67840344Y-65229998D01*
X67833151Y-65160499D01*
X67864673Y-65098145D01*
X67883968Y-65081425D01*
X68070082Y-64951105D01*
X68237105Y-64784082D01*
X68372600Y-64590578D01*
X68472429Y-64376492D01*
X68472432Y-64376486D01*
X68529636Y-64163000D01*
X67632012Y-64163000D01*
X67664925Y-64105993D01*
X67699000Y-63978826D01*
X67699000Y-63847174D01*
X67664925Y-63720007D01*
X67632012Y-63663000D01*
X68529636Y-63663000D01*
X68529635Y-63662999D01*
X68472432Y-63449513D01*
X68472429Y-63449507D01*
X68372600Y-63235422D01*
X68372599Y-63235420D01*
X68237113Y-63041926D01*
X68237108Y-63041920D01*
X68070078Y-62874890D01*
X67884405Y-62744879D01*
X67840780Y-62690302D01*
X67833588Y-62620804D01*
X67865110Y-62558449D01*
X67884406Y-62541730D01*
X68070401Y-62411495D01*
X68136399Y-62345497D01*
X74552707Y-62345497D01*
X74552707Y-62345502D01*
X74571780Y-62563521D01*
X74571838Y-62564174D01*
X74628652Y-62776203D01*
X74628653Y-62776206D01*
X74628654Y-62776208D01*
X74721418Y-62975142D01*
X74721422Y-62975150D01*
X74847321Y-63154952D01*
X74847326Y-63154958D01*
X75002540Y-63310172D01*
X75002546Y-63310177D01*
X75182348Y-63436076D01*
X75182350Y-63436077D01*
X75182353Y-63436079D01*
X75241214Y-63463526D01*
X75326119Y-63503118D01*
X75378559Y-63549290D01*
X75397711Y-63616483D01*
X75377495Y-63683365D01*
X75326120Y-63727882D01*
X75182353Y-63794921D01*
X75182349Y-63794923D01*
X75002547Y-63920822D01*
X75002541Y-63920827D01*
X74847327Y-64076041D01*
X74847322Y-64076047D01*
X74721423Y-64255849D01*
X74721419Y-64255857D01*
X74628655Y-64454791D01*
X74628653Y-64454795D01*
X74628653Y-64454797D01*
X74626315Y-64463523D01*
X74571839Y-64666824D01*
X74571838Y-64666831D01*
X74552708Y-64885497D01*
X74552708Y-64885502D01*
X74571838Y-65104168D01*
X74571839Y-65104175D01*
X74588240Y-65165385D01*
X74628653Y-65316203D01*
X74628654Y-65316206D01*
X74628655Y-65316208D01*
X74721419Y-65515142D01*
X74721423Y-65515150D01*
X74847322Y-65694952D01*
X74847327Y-65694958D01*
X75002541Y-65850172D01*
X75002547Y-65850177D01*
X75182349Y-65976076D01*
X75182351Y-65976077D01*
X75182354Y-65976079D01*
X75266963Y-66015532D01*
X75326120Y-66043118D01*
X75378560Y-66089290D01*
X75397712Y-66156483D01*
X75377496Y-66223365D01*
X75326120Y-66267882D01*
X75182357Y-66334919D01*
X75182349Y-66334923D01*
X75002547Y-66460822D01*
X75002541Y-66460827D01*
X74847327Y-66616041D01*
X74847322Y-66616047D01*
X74721423Y-66795849D01*
X74721419Y-66795857D01*
X74628655Y-66994791D01*
X74628653Y-66994795D01*
X74628653Y-66994797D01*
X74616185Y-67041329D01*
X74571839Y-67206824D01*
X74571838Y-67206831D01*
X74552708Y-67425497D01*
X74552708Y-67425502D01*
X74570301Y-67626600D01*
X74571839Y-67644174D01*
X74628653Y-67856203D01*
X74628654Y-67856206D01*
X74628655Y-67856208D01*
X74721419Y-68055142D01*
X74721423Y-68055150D01*
X74847322Y-68234952D01*
X74847327Y-68234958D01*
X75002541Y-68390172D01*
X75002547Y-68390177D01*
X75182349Y-68516076D01*
X75182351Y-68516077D01*
X75182354Y-68516079D01*
X75381297Y-68608847D01*
X75593326Y-68665661D01*
X75749521Y-68679326D01*
X75811998Y-68684792D01*
X75812000Y-68684792D01*
X75812002Y-68684792D01*
X75866668Y-68680009D01*
X76030674Y-68665661D01*
X76242703Y-68608847D01*
X76441646Y-68516079D01*
X76621457Y-68390174D01*
X76776674Y-68234957D01*
X76902579Y-68055146D01*
X76969618Y-67911378D01*
X77015790Y-67858939D01*
X77082983Y-67839787D01*
X77149864Y-67860002D01*
X77194382Y-67911379D01*
X77261419Y-68055142D01*
X77261423Y-68055150D01*
X77387322Y-68234952D01*
X77387327Y-68234958D01*
X77542541Y-68390172D01*
X77542547Y-68390177D01*
X77722349Y-68516076D01*
X77722351Y-68516077D01*
X77722354Y-68516079D01*
X77921297Y-68608847D01*
X78133326Y-68665661D01*
X78289521Y-68679326D01*
X78351998Y-68684792D01*
X78352000Y-68684792D01*
X78352002Y-68684792D01*
X78406668Y-68680009D01*
X78570674Y-68665661D01*
X78782703Y-68608847D01*
X78981646Y-68516079D01*
X79161457Y-68390174D01*
X79316674Y-68234957D01*
X79442579Y-68055146D01*
X79535347Y-67856203D01*
X79592161Y-67644174D01*
X79611292Y-67425500D01*
X79592161Y-67206826D01*
X79535347Y-66994797D01*
X79442579Y-66795854D01*
X79442577Y-66795851D01*
X79442576Y-66795849D01*
X79323926Y-66626400D01*
X119783815Y-66626400D01*
X119802503Y-66804205D01*
X119802504Y-66804207D01*
X119857747Y-66974229D01*
X119857750Y-66974235D01*
X119947141Y-67129065D01*
X119988812Y-67175346D01*
X120066764Y-67261921D01*
X120066767Y-67261923D01*
X120066770Y-67261926D01*
X120211407Y-67367012D01*
X120374733Y-67439729D01*
X120549609Y-67476900D01*
X120549610Y-67476900D01*
X120728389Y-67476900D01*
X120728391Y-67476900D01*
X120903267Y-67439729D01*
X121066593Y-67367012D01*
X121211230Y-67261926D01*
X121211235Y-67261919D01*
X121216060Y-67257577D01*
X121216930Y-67258544D01*
X121270443Y-67225565D01*
X121340300Y-67226885D01*
X121353562Y-67231903D01*
X121374733Y-67241329D01*
X121549609Y-67278500D01*
X121549610Y-67278500D01*
X121728389Y-67278500D01*
X121728391Y-67278500D01*
X121903267Y-67241329D01*
X122066593Y-67168612D01*
X122211230Y-67063526D01*
X122269236Y-66999103D01*
X122328720Y-66962456D01*
X122398577Y-66963785D01*
X122411820Y-66968796D01*
X122424856Y-66974600D01*
X122574733Y-67041329D01*
X122749609Y-67078500D01*
X122749610Y-67078500D01*
X122928389Y-67078500D01*
X122928391Y-67078500D01*
X123103267Y-67041329D01*
X123266593Y-66968612D01*
X123411230Y-66863526D01*
X123530859Y-66730665D01*
X123620250Y-66575835D01*
X123675497Y-66405803D01*
X123694185Y-66228000D01*
X123675497Y-66050197D01*
X123620250Y-65880165D01*
X123530859Y-65725335D01*
X123469236Y-65656896D01*
X123411235Y-65592478D01*
X123411232Y-65592476D01*
X123411231Y-65592475D01*
X123411230Y-65592474D01*
X123266593Y-65487388D01*
X123103267Y-65414671D01*
X123103265Y-65414670D01*
X122975594Y-65387533D01*
X122928391Y-65377500D01*
X122749609Y-65377500D01*
X122718954Y-65384015D01*
X122574733Y-65414670D01*
X122574728Y-65414672D01*
X122411408Y-65487387D01*
X122266768Y-65592475D01*
X122208763Y-65656896D01*
X122149276Y-65693544D01*
X122079419Y-65692213D01*
X122066179Y-65687203D01*
X121957298Y-65638727D01*
X121903267Y-65614671D01*
X121903265Y-65614670D01*
X121775594Y-65587533D01*
X121728391Y-65577500D01*
X121549609Y-65577500D01*
X121518954Y-65584015D01*
X121374733Y-65614670D01*
X121374728Y-65614672D01*
X121211408Y-65687387D01*
X121066766Y-65792476D01*
X121061941Y-65796822D01*
X121061074Y-65795859D01*
X121007527Y-65828842D01*
X120937670Y-65827505D01*
X120924439Y-65822497D01*
X120903270Y-65813072D01*
X120903266Y-65813070D01*
X120765561Y-65783800D01*
X120728391Y-65775900D01*
X120549609Y-65775900D01*
X120518954Y-65782415D01*
X120374733Y-65813070D01*
X120374728Y-65813072D01*
X120211408Y-65885787D01*
X120066768Y-65990875D01*
X119947140Y-66123736D01*
X119857750Y-66278564D01*
X119857747Y-66278570D01*
X119802504Y-66448592D01*
X119802503Y-66448594D01*
X119783815Y-66626400D01*
X79323926Y-66626400D01*
X79316677Y-66616047D01*
X79316672Y-66616041D01*
X79161458Y-66460827D01*
X79161452Y-66460822D01*
X78981650Y-66334923D01*
X78981642Y-66334919D01*
X78837879Y-66267882D01*
X78785439Y-66221710D01*
X78766287Y-66154517D01*
X78786502Y-66087636D01*
X78837879Y-66043118D01*
X78981646Y-65976079D01*
X79161457Y-65850174D01*
X79316674Y-65694957D01*
X79442579Y-65515146D01*
X79535347Y-65316203D01*
X79592161Y-65104174D01*
X79611292Y-64885500D01*
X79592161Y-64666826D01*
X79535347Y-64454797D01*
X79442579Y-64255854D01*
X79442577Y-64255851D01*
X79442576Y-64255849D01*
X79316677Y-64076047D01*
X79316672Y-64076041D01*
X79300831Y-64060200D01*
X96041615Y-64060200D01*
X96060303Y-64238005D01*
X96060304Y-64238007D01*
X96115547Y-64408029D01*
X96115550Y-64408035D01*
X96204941Y-64562865D01*
X96210116Y-64568612D01*
X96324564Y-64695721D01*
X96324567Y-64695723D01*
X96324570Y-64695726D01*
X96469207Y-64800812D01*
X96632533Y-64873529D01*
X96807409Y-64910700D01*
X96807410Y-64910700D01*
X96986189Y-64910700D01*
X96986191Y-64910700D01*
X97161067Y-64873529D01*
X97324393Y-64800812D01*
X97406054Y-64741481D01*
X114070334Y-64741481D01*
X114089022Y-64919286D01*
X114089023Y-64919288D01*
X114144266Y-65089310D01*
X114144269Y-65089316D01*
X114233660Y-65244146D01*
X114255009Y-65267856D01*
X114353283Y-65377002D01*
X114353286Y-65377004D01*
X114353289Y-65377007D01*
X114497926Y-65482093D01*
X114661252Y-65554810D01*
X114836128Y-65591981D01*
X114836129Y-65591981D01*
X115014908Y-65591981D01*
X115014910Y-65591981D01*
X115189786Y-65554810D01*
X115353112Y-65482093D01*
X115497749Y-65377007D01*
X115502817Y-65371379D01*
X115523667Y-65348222D01*
X115617378Y-65244146D01*
X115706769Y-65089316D01*
X115762016Y-64919284D01*
X115780704Y-64741481D01*
X115762016Y-64563678D01*
X115731972Y-64471212D01*
X115706771Y-64393651D01*
X115706768Y-64393645D01*
X115617378Y-64238816D01*
X115570522Y-64186777D01*
X115497754Y-64105959D01*
X115497751Y-64105957D01*
X115497750Y-64105956D01*
X115497749Y-64105955D01*
X115353112Y-64000869D01*
X115189786Y-63928152D01*
X115189784Y-63928151D01*
X115062113Y-63901014D01*
X115014910Y-63890981D01*
X114836128Y-63890981D01*
X114805473Y-63897496D01*
X114661252Y-63928151D01*
X114661247Y-63928153D01*
X114497927Y-64000868D01*
X114353287Y-64105956D01*
X114233659Y-64238817D01*
X114144269Y-64393645D01*
X114144266Y-64393651D01*
X114089023Y-64563673D01*
X114089022Y-64563675D01*
X114070334Y-64741481D01*
X97406054Y-64741481D01*
X97469030Y-64695726D01*
X97484541Y-64678500D01*
X97518009Y-64641329D01*
X97588659Y-64562865D01*
X97678050Y-64408035D01*
X97733297Y-64238003D01*
X97751985Y-64060200D01*
X97733297Y-63882397D01*
X97683092Y-63727882D01*
X97678052Y-63712370D01*
X97678049Y-63712364D01*
X97672154Y-63702153D01*
X97629342Y-63628000D01*
X110883815Y-63628000D01*
X110902503Y-63805805D01*
X110902504Y-63805807D01*
X110957747Y-63975829D01*
X110957750Y-63975835D01*
X111047141Y-64130665D01*
X111076256Y-64163000D01*
X111166764Y-64263521D01*
X111166767Y-64263523D01*
X111166770Y-64263526D01*
X111311407Y-64368612D01*
X111474733Y-64441329D01*
X111649609Y-64478500D01*
X111649610Y-64478500D01*
X111828389Y-64478500D01*
X111828391Y-64478500D01*
X112003267Y-64441329D01*
X112166593Y-64368612D01*
X112311230Y-64263526D01*
X112318136Y-64255857D01*
X112350415Y-64220007D01*
X112430859Y-64130665D01*
X112520250Y-63975835D01*
X112568285Y-63828000D01*
X117983815Y-63828000D01*
X118002503Y-64005805D01*
X118002504Y-64005807D01*
X118057747Y-64175829D01*
X118057750Y-64175835D01*
X118147141Y-64330665D01*
X118181307Y-64368610D01*
X118266764Y-64463521D01*
X118266767Y-64463523D01*
X118266770Y-64463526D01*
X118411407Y-64568612D01*
X118574733Y-64641329D01*
X118749609Y-64678500D01*
X118749610Y-64678500D01*
X118928389Y-64678500D01*
X118928391Y-64678500D01*
X119103267Y-64641329D01*
X119266593Y-64568612D01*
X119411230Y-64463526D01*
X119530859Y-64330665D01*
X119620250Y-64175835D01*
X119675497Y-64005803D01*
X119694185Y-63828000D01*
X119675497Y-63650197D01*
X119647873Y-63565181D01*
X119620252Y-63480170D01*
X119620249Y-63480164D01*
X119610643Y-63463526D01*
X119530859Y-63325335D01*
X119484003Y-63273296D01*
X119411235Y-63192478D01*
X119411232Y-63192476D01*
X119411231Y-63192475D01*
X119411230Y-63192474D01*
X119266593Y-63087388D01*
X119103267Y-63014671D01*
X119103265Y-63014670D01*
X118975594Y-62987533D01*
X118928391Y-62977500D01*
X118749609Y-62977500D01*
X118718954Y-62984015D01*
X118574733Y-63014670D01*
X118574728Y-63014672D01*
X118411408Y-63087387D01*
X118266768Y-63192475D01*
X118147140Y-63325336D01*
X118057750Y-63480164D01*
X118057747Y-63480170D01*
X118002504Y-63650192D01*
X118002503Y-63650194D01*
X117983815Y-63828000D01*
X112568285Y-63828000D01*
X112575497Y-63805803D01*
X112594185Y-63628000D01*
X112575497Y-63450197D01*
X112533060Y-63319589D01*
X112520252Y-63280170D01*
X112520249Y-63280164D01*
X112501028Y-63246872D01*
X112430859Y-63125335D01*
X112384003Y-63073296D01*
X112311235Y-62992478D01*
X112311232Y-62992476D01*
X112311231Y-62992475D01*
X112311230Y-62992474D01*
X112166593Y-62887388D01*
X112033205Y-62828000D01*
X124283815Y-62828000D01*
X124302503Y-63005805D01*
X124302504Y-63005807D01*
X124357747Y-63175829D01*
X124357750Y-63175835D01*
X124447141Y-63330665D01*
X124488812Y-63376946D01*
X124566764Y-63463521D01*
X124566767Y-63463523D01*
X124566770Y-63463526D01*
X124711407Y-63568612D01*
X124874733Y-63641329D01*
X125049609Y-63678500D01*
X125049610Y-63678500D01*
X125228389Y-63678500D01*
X125228391Y-63678500D01*
X125403267Y-63641329D01*
X125566593Y-63568612D01*
X125711230Y-63463526D01*
X125723848Y-63449513D01*
X125746212Y-63424675D01*
X125830859Y-63330665D01*
X125920250Y-63175835D01*
X125975497Y-63005803D01*
X125994185Y-62828000D01*
X125975497Y-62650197D01*
X125945686Y-62558449D01*
X125920252Y-62480170D01*
X125920249Y-62480164D01*
X125848468Y-62355835D01*
X125830859Y-62325335D01*
X125784003Y-62273296D01*
X125711235Y-62192478D01*
X125711232Y-62192476D01*
X125711231Y-62192475D01*
X125711230Y-62192474D01*
X125566593Y-62087388D01*
X125403267Y-62014671D01*
X125403265Y-62014670D01*
X125275594Y-61987533D01*
X125228391Y-61977500D01*
X125049609Y-61977500D01*
X125018954Y-61984015D01*
X124874733Y-62014670D01*
X124874728Y-62014672D01*
X124711408Y-62087387D01*
X124566768Y-62192475D01*
X124447140Y-62325336D01*
X124357750Y-62480164D01*
X124357747Y-62480170D01*
X124302504Y-62650192D01*
X124302503Y-62650194D01*
X124283815Y-62828000D01*
X112033205Y-62828000D01*
X112003267Y-62814671D01*
X112003265Y-62814670D01*
X111875594Y-62787533D01*
X111828391Y-62777500D01*
X111649609Y-62777500D01*
X111618954Y-62784015D01*
X111474733Y-62814670D01*
X111474728Y-62814672D01*
X111311408Y-62887387D01*
X111166768Y-62992475D01*
X111047140Y-63125336D01*
X110957750Y-63280164D01*
X110957747Y-63280170D01*
X110902504Y-63450192D01*
X110902503Y-63450194D01*
X110883815Y-63628000D01*
X97629342Y-63628000D01*
X97588659Y-63557535D01*
X97518999Y-63480170D01*
X97469035Y-63424678D01*
X97469032Y-63424676D01*
X97469031Y-63424675D01*
X97469030Y-63424674D01*
X97324393Y-63319588D01*
X97161067Y-63246871D01*
X97161065Y-63246870D01*
X97033394Y-63219733D01*
X96986191Y-63209700D01*
X96807409Y-63209700D01*
X96776754Y-63216215D01*
X96632533Y-63246870D01*
X96632528Y-63246872D01*
X96469208Y-63319587D01*
X96324568Y-63424675D01*
X96204940Y-63557536D01*
X96115550Y-63712364D01*
X96115547Y-63712370D01*
X96060304Y-63882392D01*
X96060303Y-63882394D01*
X96041615Y-64060200D01*
X79300831Y-64060200D01*
X79161458Y-63920827D01*
X79161452Y-63920822D01*
X78981650Y-63794923D01*
X78981642Y-63794919D01*
X78837880Y-63727882D01*
X78785440Y-63681710D01*
X78766288Y-63614517D01*
X78786504Y-63547635D01*
X78837880Y-63503118D01*
X78981647Y-63436079D01*
X79161458Y-63310174D01*
X79316675Y-63154957D01*
X79442580Y-62975146D01*
X79535348Y-62776203D01*
X79592162Y-62564174D01*
X79611293Y-62345500D01*
X79592162Y-62126826D01*
X79538886Y-61928000D01*
X98283815Y-61928000D01*
X98302503Y-62105805D01*
X98302504Y-62105807D01*
X98357747Y-62275829D01*
X98357750Y-62275835D01*
X98447141Y-62430665D01*
X98488812Y-62476946D01*
X98566764Y-62563521D01*
X98566767Y-62563523D01*
X98566770Y-62563526D01*
X98711407Y-62668612D01*
X98874733Y-62741329D01*
X99049609Y-62778500D01*
X99049610Y-62778500D01*
X99228389Y-62778500D01*
X99228391Y-62778500D01*
X99403267Y-62741329D01*
X99566593Y-62668612D01*
X99711230Y-62563526D01*
X99715802Y-62558449D01*
X99758828Y-62510663D01*
X99830859Y-62430665D01*
X99920250Y-62275835D01*
X99956528Y-62164180D01*
X99995965Y-62106507D01*
X100060324Y-62079308D01*
X100074459Y-62078500D01*
X100228389Y-62078500D01*
X100228391Y-62078500D01*
X100403267Y-62041329D01*
X100478126Y-62008000D01*
X109650815Y-62008000D01*
X109669503Y-62185805D01*
X109669504Y-62185807D01*
X109724747Y-62355829D01*
X109724750Y-62355835D01*
X109814141Y-62510665D01*
X109842112Y-62541730D01*
X109933764Y-62643521D01*
X109933767Y-62643523D01*
X109933770Y-62643526D01*
X110078407Y-62748612D01*
X110241733Y-62821329D01*
X110416609Y-62858500D01*
X110416610Y-62858500D01*
X110595389Y-62858500D01*
X110595391Y-62858500D01*
X110770267Y-62821329D01*
X110933593Y-62748612D01*
X111078230Y-62643526D01*
X111080779Y-62640696D01*
X111120746Y-62596307D01*
X111197859Y-62510665D01*
X111287250Y-62355835D01*
X111342497Y-62185803D01*
X111359083Y-62027999D01*
X120183722Y-62027999D01*
X120183722Y-62028000D01*
X120202762Y-62184818D01*
X120237281Y-62275835D01*
X120258780Y-62332523D01*
X120348517Y-62462530D01*
X120466760Y-62567283D01*
X120466762Y-62567284D01*
X120606634Y-62640696D01*
X120760014Y-62678500D01*
X120760015Y-62678500D01*
X120917985Y-62678500D01*
X121071365Y-62640696D01*
X121211240Y-62567283D01*
X121329483Y-62462530D01*
X121419220Y-62332523D01*
X121475237Y-62184818D01*
X121494278Y-62028000D01*
X121492660Y-62014670D01*
X121475237Y-61871181D01*
X121453992Y-61815164D01*
X121419220Y-61723477D01*
X121329483Y-61593470D01*
X121211240Y-61488717D01*
X121211238Y-61488716D01*
X121211237Y-61488715D01*
X121071365Y-61415303D01*
X120917986Y-61377500D01*
X120917985Y-61377500D01*
X120760015Y-61377500D01*
X120760014Y-61377500D01*
X120606634Y-61415303D01*
X120466762Y-61488715D01*
X120348516Y-61593471D01*
X120258781Y-61723475D01*
X120258780Y-61723476D01*
X120202762Y-61871181D01*
X120183722Y-62027999D01*
X111359083Y-62027999D01*
X111361185Y-62008000D01*
X111342497Y-61830197D01*
X111310156Y-61730663D01*
X111287252Y-61660170D01*
X111287249Y-61660164D01*
X111267103Y-61625270D01*
X111197859Y-61505335D01*
X111140026Y-61441105D01*
X111078235Y-61372478D01*
X111078232Y-61372476D01*
X111078231Y-61372475D01*
X111078230Y-61372474D01*
X110933593Y-61267388D01*
X110770267Y-61194671D01*
X110770265Y-61194670D01*
X110642594Y-61167533D01*
X110595391Y-61157500D01*
X110416609Y-61157500D01*
X110385954Y-61164015D01*
X110241733Y-61194670D01*
X110241728Y-61194672D01*
X110078408Y-61267387D01*
X109933768Y-61372475D01*
X109814140Y-61505336D01*
X109724750Y-61660164D01*
X109724747Y-61660170D01*
X109669504Y-61830192D01*
X109669503Y-61830194D01*
X109650815Y-62008000D01*
X100478126Y-62008000D01*
X100566593Y-61968612D01*
X100711230Y-61863526D01*
X100714746Y-61859622D01*
X100747584Y-61823151D01*
X100830859Y-61730665D01*
X100920250Y-61575835D01*
X100975497Y-61405803D01*
X100978557Y-61376685D01*
X101005140Y-61312074D01*
X101062437Y-61272089D01*
X101076067Y-61268366D01*
X101203267Y-61241329D01*
X101366593Y-61168612D01*
X101511230Y-61063526D01*
X101630859Y-60930665D01*
X101720250Y-60775835D01*
X101768285Y-60628000D01*
X104183815Y-60628000D01*
X104202503Y-60805805D01*
X104202504Y-60805807D01*
X104257747Y-60975829D01*
X104257750Y-60975835D01*
X104347141Y-61130665D01*
X104375493Y-61162153D01*
X104466764Y-61263521D01*
X104466767Y-61263523D01*
X104466770Y-61263526D01*
X104611407Y-61368612D01*
X104774733Y-61441329D01*
X104949609Y-61478500D01*
X104949610Y-61478500D01*
X105128389Y-61478500D01*
X105128391Y-61478500D01*
X105303267Y-61441329D01*
X105466593Y-61368612D01*
X105611230Y-61263526D01*
X105618977Y-61254923D01*
X105637148Y-61234741D01*
X105730859Y-61130665D01*
X105820250Y-60975835D01*
X105875497Y-60805803D01*
X105894185Y-60628000D01*
X105875497Y-60450197D01*
X105820250Y-60280165D01*
X105730859Y-60125335D01*
X105668430Y-60056001D01*
X105611235Y-59992478D01*
X105611232Y-59992476D01*
X105611231Y-59992475D01*
X105611230Y-59992474D01*
X105466593Y-59887388D01*
X105303267Y-59814671D01*
X105303265Y-59814670D01*
X105175594Y-59787533D01*
X105128391Y-59777500D01*
X104949609Y-59777500D01*
X104918954Y-59784015D01*
X104774733Y-59814670D01*
X104774728Y-59814672D01*
X104611408Y-59887387D01*
X104466768Y-59992475D01*
X104347140Y-60125336D01*
X104257750Y-60280164D01*
X104257747Y-60280170D01*
X104202504Y-60450192D01*
X104202503Y-60450194D01*
X104183815Y-60628000D01*
X101768285Y-60628000D01*
X101775497Y-60605803D01*
X101794185Y-60428000D01*
X101775497Y-60250197D01*
X101730759Y-60112507D01*
X101720252Y-60080170D01*
X101720249Y-60080164D01*
X101710643Y-60063526D01*
X101630859Y-59925335D01*
X101582229Y-59871326D01*
X101511235Y-59792478D01*
X101511232Y-59792476D01*
X101511231Y-59792475D01*
X101511230Y-59792474D01*
X101366593Y-59687388D01*
X101203267Y-59614671D01*
X101203265Y-59614670D01*
X101075594Y-59587533D01*
X101028391Y-59577500D01*
X100849609Y-59577500D01*
X100818954Y-59584015D01*
X100674733Y-59614670D01*
X100674728Y-59614672D01*
X100511408Y-59687387D01*
X100366768Y-59792475D01*
X100247140Y-59925336D01*
X100157750Y-60080164D01*
X100157747Y-60080170D01*
X100102503Y-60250195D01*
X100102502Y-60250199D01*
X100099442Y-60279314D01*
X100072857Y-60343928D01*
X100015559Y-60383912D01*
X100001903Y-60387640D01*
X99874733Y-60414670D01*
X99874728Y-60414672D01*
X99711408Y-60487387D01*
X99566768Y-60592475D01*
X99447140Y-60725336D01*
X99357750Y-60880164D01*
X99357747Y-60880171D01*
X99321471Y-60991818D01*
X99282033Y-61049494D01*
X99217675Y-61076692D01*
X99203540Y-61077500D01*
X99049609Y-61077500D01*
X99031266Y-61081399D01*
X98874733Y-61114670D01*
X98874728Y-61114672D01*
X98711408Y-61187387D01*
X98566768Y-61292475D01*
X98447140Y-61425336D01*
X98357750Y-61580164D01*
X98357747Y-61580170D01*
X98302504Y-61750192D01*
X98302503Y-61750194D01*
X98283815Y-61928000D01*
X79538886Y-61928000D01*
X79535348Y-61914797D01*
X79442580Y-61715854D01*
X79442578Y-61715851D01*
X79442577Y-61715849D01*
X79316678Y-61536047D01*
X79316673Y-61536041D01*
X79161459Y-61380827D01*
X79161453Y-61380822D01*
X78981651Y-61254923D01*
X78981643Y-61254919D01*
X78837289Y-61187606D01*
X78784849Y-61141434D01*
X78765697Y-61074241D01*
X78785913Y-61007359D01*
X78837289Y-60962842D01*
X78981390Y-60895646D01*
X79044442Y-60851495D01*
X78481410Y-60288462D01*
X78544993Y-60271425D01*
X78659007Y-60205599D01*
X78752099Y-60112507D01*
X78817925Y-59998493D01*
X78834962Y-59934909D01*
X79397995Y-60497942D01*
X79442145Y-60434892D01*
X79534874Y-60236033D01*
X79534878Y-60236024D01*
X79591664Y-60024092D01*
X79591666Y-60024082D01*
X79610790Y-59805500D01*
X79610790Y-59805499D01*
X79591666Y-59586917D01*
X79591664Y-59586907D01*
X79534878Y-59374975D01*
X79534874Y-59374966D01*
X79442144Y-59176105D01*
X79442142Y-59176101D01*
X79397996Y-59113055D01*
X78834962Y-59676089D01*
X78817925Y-59612507D01*
X78752099Y-59498493D01*
X78659007Y-59405401D01*
X78544993Y-59339575D01*
X78481409Y-59322537D01*
X79044443Y-58759503D01*
X78981392Y-58715354D01*
X78837288Y-58648157D01*
X78784849Y-58601984D01*
X78765697Y-58534791D01*
X78785913Y-58467910D01*
X78804275Y-58451999D01*
X102992722Y-58451999D01*
X102992722Y-58452000D01*
X103011762Y-58608818D01*
X103052168Y-58715357D01*
X103067780Y-58756523D01*
X103157517Y-58886530D01*
X103275760Y-58991283D01*
X103275762Y-58991284D01*
X103415634Y-59064696D01*
X103569014Y-59102500D01*
X103569015Y-59102500D01*
X103726985Y-59102500D01*
X103880365Y-59064696D01*
X103920584Y-59043587D01*
X104020240Y-58991283D01*
X104138483Y-58886530D01*
X104228220Y-58756523D01*
X104284237Y-58608818D01*
X104303278Y-58452000D01*
X104303058Y-58450192D01*
X104284237Y-58295182D01*
X104284237Y-58295181D01*
X104251540Y-58208968D01*
X104246174Y-58139309D01*
X104279321Y-58077802D01*
X104340459Y-58043981D01*
X104367483Y-58041000D01*
X104490889Y-58041000D01*
X104490891Y-58041000D01*
X104665767Y-58003829D01*
X104829093Y-57931112D01*
X104973730Y-57826026D01*
X104976322Y-57823148D01*
X105003392Y-57793083D01*
X105093359Y-57693165D01*
X105182750Y-57538335D01*
X105237997Y-57368303D01*
X105249063Y-57263010D01*
X105275646Y-57198400D01*
X105332943Y-57158415D01*
X105402762Y-57155755D01*
X105462936Y-57191264D01*
X105479770Y-57213976D01*
X105547140Y-57330663D01*
X105547139Y-57330663D01*
X105666764Y-57463521D01*
X105666767Y-57463523D01*
X105666770Y-57463526D01*
X105811407Y-57568612D01*
X105974733Y-57641329D01*
X106149609Y-57678500D01*
X106149610Y-57678500D01*
X106328389Y-57678500D01*
X106328391Y-57678500D01*
X106503267Y-57641329D01*
X106666593Y-57568612D01*
X106811230Y-57463526D01*
X106930859Y-57330665D01*
X107020250Y-57175835D01*
X107058979Y-57056638D01*
X107098416Y-56998963D01*
X107151127Y-56973667D01*
X107275859Y-56947154D01*
X107303263Y-56941330D01*
X107303263Y-56941329D01*
X107303267Y-56941329D01*
X107466593Y-56868612D01*
X107611230Y-56763526D01*
X107617410Y-56756663D01*
X107637148Y-56734741D01*
X107730859Y-56630665D01*
X107820250Y-56475835D01*
X107860542Y-56351829D01*
X107899978Y-56294156D01*
X107964336Y-56266957D01*
X108004251Y-56268858D01*
X108049609Y-56278500D01*
X108049610Y-56278500D01*
X108228389Y-56278500D01*
X108228391Y-56278500D01*
X108403267Y-56241329D01*
X108566593Y-56168612D01*
X108711230Y-56063526D01*
X108716570Y-56057596D01*
X108755220Y-56014670D01*
X108830859Y-55930665D01*
X108920250Y-55775835D01*
X108947188Y-55692929D01*
X108956529Y-55664182D01*
X108995967Y-55606506D01*
X109060325Y-55579308D01*
X109074460Y-55578500D01*
X109128389Y-55578500D01*
X109128391Y-55578500D01*
X109303267Y-55541329D01*
X109466593Y-55468612D01*
X109611230Y-55363526D01*
X109730859Y-55230665D01*
X109820250Y-55075835D01*
X109875497Y-54905803D01*
X109894185Y-54728000D01*
X109875497Y-54550197D01*
X109833416Y-54420686D01*
X109820252Y-54380170D01*
X109820249Y-54380164D01*
X109730859Y-54225335D01*
X109667156Y-54154586D01*
X109611235Y-54092478D01*
X109611232Y-54092476D01*
X109611231Y-54092475D01*
X109611230Y-54092474D01*
X109466593Y-53987388D01*
X109460963Y-53984881D01*
X109407728Y-53939633D01*
X109387406Y-53872784D01*
X109406451Y-53805560D01*
X109453770Y-53761809D01*
X109586240Y-53692283D01*
X109704483Y-53587530D01*
X109794220Y-53457523D01*
X109850237Y-53309818D01*
X109869278Y-53153000D01*
X109868918Y-53150030D01*
X109850237Y-52996181D01*
X109828541Y-52938973D01*
X109794220Y-52848477D01*
X109704483Y-52718470D01*
X109586240Y-52613717D01*
X109586238Y-52613716D01*
X109586237Y-52613715D01*
X109446365Y-52540303D01*
X109292986Y-52502500D01*
X109292985Y-52502500D01*
X109135015Y-52502500D01*
X109135014Y-52502500D01*
X108981634Y-52540303D01*
X108841762Y-52613715D01*
X108788759Y-52660671D01*
X108726870Y-52715500D01*
X108723516Y-52718471D01*
X108633781Y-52848475D01*
X108633780Y-52848476D01*
X108577762Y-52996181D01*
X108558722Y-53152999D01*
X108558722Y-53153000D01*
X108577762Y-53309818D01*
X108619312Y-53419374D01*
X108633780Y-53457523D01*
X108723517Y-53587530D01*
X108841760Y-53692283D01*
X108841761Y-53692283D01*
X108847252Y-53697148D01*
X108884379Y-53756338D01*
X108883611Y-53826203D01*
X108845194Y-53884563D01*
X108790808Y-53911254D01*
X108774730Y-53914671D01*
X108774728Y-53914672D01*
X108611408Y-53987387D01*
X108466768Y-54092475D01*
X108347140Y-54225336D01*
X108257750Y-54380164D01*
X108257747Y-54380171D01*
X108221471Y-54491818D01*
X108182033Y-54549494D01*
X108117675Y-54576692D01*
X108103540Y-54577500D01*
X108049609Y-54577500D01*
X108018954Y-54584015D01*
X107874733Y-54614670D01*
X107874728Y-54614672D01*
X107711408Y-54687387D01*
X107566768Y-54792475D01*
X107447140Y-54925336D01*
X107357750Y-55080164D01*
X107357748Y-55080168D01*
X107317458Y-55204169D01*
X107278020Y-55261844D01*
X107213661Y-55289042D01*
X107173748Y-55287141D01*
X107128391Y-55277500D01*
X106949609Y-55277500D01*
X106937048Y-55280170D01*
X106774733Y-55314670D01*
X106774728Y-55314672D01*
X106611408Y-55387387D01*
X106466768Y-55492475D01*
X106347140Y-55625336D01*
X106257750Y-55780164D01*
X106257748Y-55780168D01*
X106219020Y-55899362D01*
X106179582Y-55957037D01*
X106126870Y-55982333D01*
X105974733Y-56014670D01*
X105974728Y-56014672D01*
X105811408Y-56087387D01*
X105666768Y-56192475D01*
X105547140Y-56325336D01*
X105457750Y-56480164D01*
X105457747Y-56480170D01*
X105402504Y-56650192D01*
X105402503Y-56650195D01*
X105402503Y-56650197D01*
X105391993Y-56750197D01*
X105391437Y-56755485D01*
X105364852Y-56820100D01*
X105307555Y-56860084D01*
X105237736Y-56862744D01*
X105177562Y-56827234D01*
X105160729Y-56804523D01*
X105124244Y-56741329D01*
X105093359Y-56687835D01*
X105027685Y-56614897D01*
X104973735Y-56554978D01*
X104973732Y-56554976D01*
X104973731Y-56554975D01*
X104973730Y-56554974D01*
X104829093Y-56449888D01*
X104665767Y-56377171D01*
X104665765Y-56377170D01*
X104538094Y-56350033D01*
X104490891Y-56340000D01*
X104312109Y-56340000D01*
X104281454Y-56346515D01*
X104137233Y-56377170D01*
X104137228Y-56377172D01*
X103973908Y-56449887D01*
X103829268Y-56554975D01*
X103709640Y-56687836D01*
X103620250Y-56842664D01*
X103620247Y-56842670D01*
X103565004Y-57012692D01*
X103565003Y-57012694D01*
X103546315Y-57190500D01*
X103565003Y-57368305D01*
X103565004Y-57368307D01*
X103620247Y-57538329D01*
X103620249Y-57538332D01*
X103620250Y-57538335D01*
X103647480Y-57585499D01*
X103665070Y-57615966D01*
X103681541Y-57683866D01*
X103658689Y-57749893D01*
X103603767Y-57793083D01*
X103572631Y-57801061D01*
X103569012Y-57801500D01*
X103415634Y-57839303D01*
X103275762Y-57912715D01*
X103157516Y-58017471D01*
X103067781Y-58147475D01*
X103067780Y-58147476D01*
X103011762Y-58295181D01*
X102992722Y-58451999D01*
X78804275Y-58451999D01*
X78837288Y-58423393D01*
X78981646Y-58356079D01*
X79161457Y-58230174D01*
X79316674Y-58074957D01*
X79442579Y-57895146D01*
X79535347Y-57696203D01*
X79592161Y-57484174D01*
X79610292Y-57276928D01*
X79611292Y-57265502D01*
X79611292Y-57265497D01*
X79602447Y-57164395D01*
X79592161Y-57046826D01*
X79535347Y-56834797D01*
X79442579Y-56635854D01*
X79442577Y-56635851D01*
X79442576Y-56635849D01*
X79316677Y-56456047D01*
X79316672Y-56456041D01*
X79161458Y-56300827D01*
X79161452Y-56300822D01*
X78981650Y-56174923D01*
X78981642Y-56174919D01*
X78782708Y-56082155D01*
X78782706Y-56082154D01*
X78782703Y-56082153D01*
X78580609Y-56028001D01*
X78570675Y-56025339D01*
X78570668Y-56025338D01*
X78352002Y-56006208D01*
X78351998Y-56006208D01*
X78133331Y-56025338D01*
X78133324Y-56025339D01*
X78012981Y-56057586D01*
X77921297Y-56082153D01*
X77921295Y-56082153D01*
X77921291Y-56082155D01*
X77722357Y-56174919D01*
X77722349Y-56174923D01*
X77542547Y-56300822D01*
X77542541Y-56300827D01*
X77387327Y-56456041D01*
X77387326Y-56456043D01*
X77292074Y-56592077D01*
X77237497Y-56635701D01*
X77167998Y-56642894D01*
X77105644Y-56611372D01*
X77070230Y-56551142D01*
X77066499Y-56520953D01*
X77066499Y-56463629D01*
X77066498Y-56463623D01*
X77066497Y-56463616D01*
X77060091Y-56404017D01*
X77050078Y-56377172D01*
X77009797Y-56269171D01*
X77009793Y-56269164D01*
X76923547Y-56153955D01*
X76923544Y-56153952D01*
X76808335Y-56067706D01*
X76808328Y-56067702D01*
X76673482Y-56017408D01*
X76673483Y-56017408D01*
X76613883Y-56011001D01*
X76613881Y-56011000D01*
X76613873Y-56011000D01*
X76613864Y-56011000D01*
X75010129Y-56011000D01*
X75010123Y-56011001D01*
X74950516Y-56017408D01*
X74815671Y-56067702D01*
X74815664Y-56067706D01*
X74700455Y-56153952D01*
X74700452Y-56153955D01*
X74614206Y-56269164D01*
X74614202Y-56269171D01*
X74563908Y-56404017D01*
X74558315Y-56456043D01*
X74557501Y-56463623D01*
X74557500Y-56463635D01*
X74557500Y-58067370D01*
X74557501Y-58067376D01*
X74563908Y-58126983D01*
X74614202Y-58261828D01*
X74614206Y-58261835D01*
X74700452Y-58377044D01*
X74700455Y-58377047D01*
X74815664Y-58463293D01*
X74815671Y-58463297D01*
X74950517Y-58513591D01*
X74950516Y-58513591D01*
X74957444Y-58514335D01*
X75010127Y-58520000D01*
X75068325Y-58519999D01*
X75135362Y-58539682D01*
X75181118Y-58592486D01*
X75191062Y-58661644D01*
X75162038Y-58725200D01*
X75139448Y-58745573D01*
X75119556Y-58759501D01*
X75119555Y-58759503D01*
X75682590Y-59322537D01*
X75619007Y-59339575D01*
X75504993Y-59405401D01*
X75411901Y-59498493D01*
X75346075Y-59612507D01*
X75329037Y-59676090D01*
X74766003Y-59113055D01*
X74766003Y-59113056D01*
X74721856Y-59176104D01*
X74721855Y-59176106D01*
X74629124Y-59374966D01*
X74629121Y-59374975D01*
X74572335Y-59586907D01*
X74572333Y-59586917D01*
X74553210Y-59805499D01*
X74553210Y-59805500D01*
X74572333Y-60024082D01*
X74572335Y-60024092D01*
X74629121Y-60236024D01*
X74629125Y-60236033D01*
X74721854Y-60434892D01*
X74766003Y-60497943D01*
X75329037Y-59934909D01*
X75346075Y-59998493D01*
X75411901Y-60112507D01*
X75504993Y-60205599D01*
X75619007Y-60271425D01*
X75682590Y-60288462D01*
X75119555Y-60851496D01*
X75182601Y-60895642D01*
X75182605Y-60895644D01*
X75326711Y-60962842D01*
X75379150Y-61009014D01*
X75398302Y-61076208D01*
X75378086Y-61143089D01*
X75326711Y-61187606D01*
X75182352Y-61254921D01*
X75182348Y-61254923D01*
X75002546Y-61380822D01*
X75002540Y-61380827D01*
X74847326Y-61536041D01*
X74847321Y-61536047D01*
X74721422Y-61715849D01*
X74721418Y-61715857D01*
X74628654Y-61914791D01*
X74628652Y-61914795D01*
X74628652Y-61914797D01*
X74604641Y-62004402D01*
X74571838Y-62126824D01*
X74571837Y-62126831D01*
X74552707Y-62345497D01*
X68136399Y-62345497D01*
X68237495Y-62244401D01*
X68373035Y-62050830D01*
X68472903Y-61836663D01*
X68534063Y-61608408D01*
X68554659Y-61373000D01*
X68534063Y-61137592D01*
X68476449Y-60922572D01*
X68472905Y-60909344D01*
X68472904Y-60909343D01*
X68472903Y-60909337D01*
X68373035Y-60695171D01*
X68341541Y-60650192D01*
X68237494Y-60501597D01*
X68070402Y-60334506D01*
X68070401Y-60334505D01*
X68057305Y-60325335D01*
X67884839Y-60204573D01*
X67841216Y-60149997D01*
X67834023Y-60080498D01*
X67865545Y-60018144D01*
X67884837Y-60001427D01*
X68070401Y-59871494D01*
X68237495Y-59704400D01*
X68373035Y-59510829D01*
X68472903Y-59296662D01*
X68534063Y-59068407D01*
X68554659Y-58832999D01*
X68534063Y-58597591D01*
X68472903Y-58369336D01*
X68373035Y-58155170D01*
X68367649Y-58147477D01*
X68237494Y-57961596D01*
X68070402Y-57794505D01*
X68070401Y-57794504D01*
X67884842Y-57664574D01*
X67841218Y-57609997D01*
X67834025Y-57540498D01*
X67865547Y-57478144D01*
X67884843Y-57461424D01*
X67913860Y-57441106D01*
X68070401Y-57331495D01*
X68237495Y-57164401D01*
X68373035Y-56970830D01*
X68472903Y-56756663D01*
X68534063Y-56528408D01*
X68554659Y-56293000D01*
X68552380Y-56266957D01*
X68542494Y-56153954D01*
X68534063Y-56057592D01*
X68499339Y-55928000D01*
X95683815Y-55928000D01*
X95702503Y-56105805D01*
X95702504Y-56105807D01*
X95757747Y-56275829D01*
X95757750Y-56275835D01*
X95847141Y-56430665D01*
X95887807Y-56475829D01*
X95966764Y-56563521D01*
X95966767Y-56563523D01*
X95966770Y-56563526D01*
X96111407Y-56668612D01*
X96274733Y-56741329D01*
X96449609Y-56778500D01*
X96449610Y-56778500D01*
X96628389Y-56778500D01*
X96628391Y-56778500D01*
X96803267Y-56741329D01*
X96966593Y-56668612D01*
X97111230Y-56563526D01*
X97118929Y-56554976D01*
X97174332Y-56493444D01*
X97230859Y-56430665D01*
X97320250Y-56275835D01*
X97375497Y-56105803D01*
X97394185Y-55928000D01*
X97375497Y-55750197D01*
X97333262Y-55620212D01*
X97320252Y-55580170D01*
X97320249Y-55580164D01*
X97319755Y-55579308D01*
X97230859Y-55425335D01*
X97175201Y-55363521D01*
X97111235Y-55292478D01*
X97111232Y-55292476D01*
X97111231Y-55292475D01*
X97111230Y-55292474D01*
X96966593Y-55187388D01*
X96803267Y-55114671D01*
X96803265Y-55114670D01*
X96646734Y-55081399D01*
X96628391Y-55077500D01*
X96449609Y-55077500D01*
X96431266Y-55081399D01*
X96274733Y-55114670D01*
X96274728Y-55114672D01*
X96111408Y-55187387D01*
X95966768Y-55292475D01*
X95847140Y-55425336D01*
X95757750Y-55580164D01*
X95757747Y-55580170D01*
X95702504Y-55750192D01*
X95702503Y-55750194D01*
X95683815Y-55928000D01*
X68499339Y-55928000D01*
X68472903Y-55829337D01*
X68373035Y-55615171D01*
X68366475Y-55605803D01*
X68237496Y-55421600D01*
X68179417Y-55363521D01*
X68115567Y-55299671D01*
X68082084Y-55238351D01*
X68087068Y-55168659D01*
X68128939Y-55112725D01*
X68159915Y-55095810D01*
X68291331Y-55046796D01*
X68406546Y-54960546D01*
X68492796Y-54845331D01*
X68543091Y-54710483D01*
X68549500Y-54650873D01*
X68549499Y-52855128D01*
X68543091Y-52795517D01*
X68533562Y-52769969D01*
X68492797Y-52660671D01*
X68492793Y-52660664D01*
X68406547Y-52545455D01*
X68406544Y-52545452D01*
X68291335Y-52459206D01*
X68291328Y-52459202D01*
X68156482Y-52408908D01*
X68156483Y-52408908D01*
X68096883Y-52402501D01*
X68096881Y-52402500D01*
X68096873Y-52402500D01*
X68096864Y-52402500D01*
X66301129Y-52402500D01*
X66301123Y-52402501D01*
X66241516Y-52408908D01*
X66106671Y-52459202D01*
X66106664Y-52459206D01*
X65991455Y-52545452D01*
X65991452Y-52545455D01*
X65905206Y-52660664D01*
X65905202Y-52660671D01*
X65854908Y-52795517D01*
X65848501Y-52855116D01*
X65848500Y-52855135D01*
X65848500Y-54650870D01*
X65848501Y-54650876D01*
X65854908Y-54710483D01*
X65905202Y-54845328D01*
X65905206Y-54845335D01*
X65991452Y-54960544D01*
X65991455Y-54960547D01*
X66106664Y-55046793D01*
X66106671Y-55046797D01*
X66238081Y-55095810D01*
X66294015Y-55137681D01*
X66318432Y-55203145D01*
X66303580Y-55271418D01*
X66282430Y-55299673D01*
X66160503Y-55421600D01*
X66024965Y-55615169D01*
X66024964Y-55615171D01*
X65948027Y-55780164D01*
X65927984Y-55823147D01*
X65925098Y-55829335D01*
X65925094Y-55829344D01*
X65863938Y-56057586D01*
X65863936Y-56057596D01*
X65843341Y-56292999D01*
X65270500Y-56292999D01*
X65270500Y-42529999D01*
X67336708Y-42529999D01*
X67336708Y-42530004D01*
X67345264Y-42627807D01*
X67355839Y-42748676D01*
X67412653Y-42960705D01*
X67412654Y-42960708D01*
X67412655Y-42960710D01*
X67505419Y-43159644D01*
X67505423Y-43159652D01*
X67631322Y-43339454D01*
X67631327Y-43339460D01*
X67786541Y-43494674D01*
X67786547Y-43494679D01*
X67966349Y-43620578D01*
X67966351Y-43620579D01*
X67966354Y-43620581D01*
X68065728Y-43666919D01*
X68067228Y-43667619D01*
X68119667Y-43713791D01*
X68138819Y-43780985D01*
X68118603Y-43847866D01*
X68067228Y-43892383D01*
X67966353Y-43939421D01*
X67966349Y-43939423D01*
X67786547Y-44065322D01*
X67786541Y-44065327D01*
X67631327Y-44220541D01*
X67631322Y-44220547D01*
X67505423Y-44400349D01*
X67505419Y-44400357D01*
X67412655Y-44599291D01*
X67412653Y-44599295D01*
X67412653Y-44599297D01*
X67390448Y-44682164D01*
X67355839Y-44811324D01*
X67355838Y-44811331D01*
X67336708Y-45029997D01*
X67336708Y-45030002D01*
X67355838Y-45248668D01*
X67355839Y-45248675D01*
X67366645Y-45289001D01*
X67412653Y-45460703D01*
X67412654Y-45460706D01*
X67412655Y-45460708D01*
X67505419Y-45659642D01*
X67505423Y-45659650D01*
X67631322Y-45839452D01*
X67631327Y-45839458D01*
X67786541Y-45994672D01*
X67786547Y-45994677D01*
X67966349Y-46120576D01*
X67966351Y-46120577D01*
X67966354Y-46120579D01*
X68035749Y-46152938D01*
X68067820Y-46167893D01*
X68120260Y-46214065D01*
X68139412Y-46281258D01*
X68119197Y-46348139D01*
X68067822Y-46392657D01*
X67966603Y-46439857D01*
X67903556Y-46484003D01*
X67903555Y-46484003D01*
X68466590Y-47047037D01*
X68403007Y-47064075D01*
X68288993Y-47129901D01*
X68195901Y-47222993D01*
X68130075Y-47337007D01*
X68113037Y-47400590D01*
X67550003Y-46837555D01*
X67550003Y-46837556D01*
X67505856Y-46900604D01*
X67505855Y-46900606D01*
X67413124Y-47099466D01*
X67413121Y-47099475D01*
X67356335Y-47311407D01*
X67356333Y-47311417D01*
X67337210Y-47529999D01*
X67337210Y-47530000D01*
X67356333Y-47748582D01*
X67356335Y-47748592D01*
X67413121Y-47960524D01*
X67413125Y-47960533D01*
X67505854Y-48159392D01*
X67550003Y-48222443D01*
X68113037Y-47659408D01*
X68130075Y-47722993D01*
X68195901Y-47837007D01*
X68288993Y-47930099D01*
X68403007Y-47995925D01*
X68466590Y-48012962D01*
X67903555Y-48575996D01*
X67966601Y-48620142D01*
X67966605Y-48620144D01*
X68165466Y-48712874D01*
X68165475Y-48712878D01*
X68377407Y-48769664D01*
X68377417Y-48769666D01*
X68595999Y-48788790D01*
X68596001Y-48788790D01*
X68814582Y-48769666D01*
X68814592Y-48769664D01*
X69026524Y-48712878D01*
X69026533Y-48712874D01*
X69225392Y-48620145D01*
X69288443Y-48575995D01*
X68725410Y-48012962D01*
X68788993Y-47995925D01*
X68903007Y-47930099D01*
X68996099Y-47837007D01*
X69061925Y-47722993D01*
X69078962Y-47659409D01*
X69641995Y-48222442D01*
X69686145Y-48159392D01*
X69778874Y-47960533D01*
X69778878Y-47960524D01*
X69835664Y-47748592D01*
X69835666Y-47748582D01*
X69854790Y-47530000D01*
X69854790Y-47529999D01*
X69851115Y-47488000D01*
X89084341Y-47488000D01*
X89084341Y-47488001D01*
X89104936Y-47723404D01*
X89104938Y-47723414D01*
X89166094Y-47951656D01*
X89166096Y-47951660D01*
X89166097Y-47951664D01*
X89262962Y-48159392D01*
X89265965Y-48165831D01*
X89265967Y-48165835D01*
X89401501Y-48359396D01*
X89401506Y-48359403D01*
X89568597Y-48526494D01*
X89568603Y-48526499D01*
X89754157Y-48656425D01*
X89797782Y-48711002D01*
X89804976Y-48780500D01*
X89773453Y-48842855D01*
X89754158Y-48859575D01*
X89568594Y-48989508D01*
X89401505Y-49156597D01*
X89265965Y-49350169D01*
X89265964Y-49350171D01*
X89166098Y-49564335D01*
X89166094Y-49564344D01*
X89104938Y-49792586D01*
X89104936Y-49792596D01*
X89084341Y-50027999D01*
X89084341Y-50028000D01*
X89104936Y-50263403D01*
X89104938Y-50263413D01*
X89166094Y-50491655D01*
X89166096Y-50491659D01*
X89166097Y-50491663D01*
X89233869Y-50637000D01*
X89265965Y-50705830D01*
X89265967Y-50705834D01*
X89374281Y-50860521D01*
X89401501Y-50899396D01*
X89401506Y-50899402D01*
X89523818Y-51021714D01*
X89557303Y-51083037D01*
X89552319Y-51152729D01*
X89510447Y-51208662D01*
X89479471Y-51225577D01*
X89347912Y-51274646D01*
X89347906Y-51274649D01*
X89232812Y-51360809D01*
X89232809Y-51360812D01*
X89146649Y-51475906D01*
X89146645Y-51475913D01*
X89096403Y-51610620D01*
X89096401Y-51610627D01*
X89090000Y-51670155D01*
X89090000Y-52318000D01*
X90006988Y-52318000D01*
X89974075Y-52375007D01*
X89940000Y-52502174D01*
X89940000Y-52633826D01*
X89974075Y-52760993D01*
X90006988Y-52818000D01*
X89090000Y-52818000D01*
X89090000Y-53465844D01*
X89096401Y-53525372D01*
X89096403Y-53525379D01*
X89146645Y-53660086D01*
X89146649Y-53660093D01*
X89232809Y-53775187D01*
X89232812Y-53775190D01*
X89347906Y-53861350D01*
X89347913Y-53861354D01*
X89482620Y-53911596D01*
X89482627Y-53911598D01*
X89542155Y-53917999D01*
X89542172Y-53918000D01*
X90190000Y-53918000D01*
X90190000Y-53001012D01*
X90247007Y-53033925D01*
X90374174Y-53068000D01*
X90505826Y-53068000D01*
X90632993Y-53033925D01*
X90690000Y-53001012D01*
X90690000Y-53918000D01*
X91337828Y-53918000D01*
X91337844Y-53917999D01*
X91397372Y-53911598D01*
X91397379Y-53911596D01*
X91532086Y-53861354D01*
X91532093Y-53861350D01*
X91647187Y-53775190D01*
X91647190Y-53775187D01*
X91733350Y-53660093D01*
X91733354Y-53660086D01*
X91783596Y-53525379D01*
X91783598Y-53525372D01*
X91789999Y-53465844D01*
X91790000Y-53465827D01*
X91790000Y-52818000D01*
X90873012Y-52818000D01*
X90905925Y-52760993D01*
X90918115Y-52715499D01*
X96196222Y-52715499D01*
X96196222Y-52715500D01*
X96215262Y-52872318D01*
X96271280Y-53020023D01*
X96361017Y-53150030D01*
X96479260Y-53254783D01*
X96479262Y-53254784D01*
X96619134Y-53328196D01*
X96772514Y-53366000D01*
X96870397Y-53366000D01*
X96937436Y-53385685D01*
X96983191Y-53438489D01*
X96993717Y-53502960D01*
X96989685Y-53541329D01*
X96983815Y-53597177D01*
X97002503Y-53774982D01*
X97002504Y-53774984D01*
X97057747Y-53945006D01*
X97057750Y-53945012D01*
X97147141Y-54099842D01*
X97182388Y-54138988D01*
X97266764Y-54232698D01*
X97266767Y-54232700D01*
X97266770Y-54232703D01*
X97411407Y-54337789D01*
X97574733Y-54410506D01*
X97749609Y-54447677D01*
X97749610Y-54447677D01*
X97928389Y-54447677D01*
X97928391Y-54447677D01*
X98103267Y-54410506D01*
X98266593Y-54337789D01*
X98411230Y-54232703D01*
X98415467Y-54227998D01*
X98448856Y-54190915D01*
X98530859Y-54099842D01*
X98620250Y-53945012D01*
X98675497Y-53774980D01*
X98677902Y-53752097D01*
X98704485Y-53687485D01*
X98761782Y-53647500D01*
X98831601Y-53644840D01*
X98891775Y-53680349D01*
X98919153Y-53726743D01*
X98957747Y-53845526D01*
X98957750Y-53845532D01*
X99047141Y-54000362D01*
X99073017Y-54029100D01*
X99166764Y-54133218D01*
X99166767Y-54133220D01*
X99166770Y-54133223D01*
X99311407Y-54238309D01*
X99474733Y-54311026D01*
X99649609Y-54348197D01*
X99664178Y-54348197D01*
X99731217Y-54367882D01*
X99776972Y-54420686D01*
X99787273Y-54457249D01*
X99802763Y-54584818D01*
X99858780Y-54732523D01*
X99948517Y-54862530D01*
X100066760Y-54967283D01*
X100066762Y-54967284D01*
X100186299Y-55030023D01*
X100206635Y-55040696D01*
X100274436Y-55057407D01*
X100293995Y-55062228D01*
X100354375Y-55097384D01*
X100386164Y-55159603D01*
X100387416Y-55197569D01*
X100383722Y-55227997D01*
X100383722Y-55228000D01*
X100402762Y-55384818D01*
X100443591Y-55492474D01*
X100458780Y-55532523D01*
X100548517Y-55662530D01*
X100666760Y-55767283D01*
X100666762Y-55767284D01*
X100806634Y-55840696D01*
X100960014Y-55878500D01*
X100960015Y-55878500D01*
X101117985Y-55878500D01*
X101271365Y-55840696D01*
X101304801Y-55823147D01*
X101411240Y-55767283D01*
X101529483Y-55662530D01*
X101619220Y-55532523D01*
X101675237Y-55384818D01*
X101694278Y-55228000D01*
X101694210Y-55227435D01*
X101675237Y-55071181D01*
X101652950Y-55012417D01*
X101619220Y-54923477D01*
X101529483Y-54793470D01*
X101411240Y-54688717D01*
X101411238Y-54688716D01*
X101411237Y-54688715D01*
X101271367Y-54615304D01*
X101184003Y-54593771D01*
X101123623Y-54558614D01*
X101091835Y-54496395D01*
X101090583Y-54458430D01*
X101094278Y-54428000D01*
X101075237Y-54271182D01*
X101072374Y-54263634D01*
X101053369Y-54213521D01*
X101019220Y-54123477D01*
X100929483Y-53993470D01*
X100811240Y-53888717D01*
X100811238Y-53888716D01*
X100811237Y-53888715D01*
X100671365Y-53815303D01*
X100671361Y-53815302D01*
X100668537Y-53814606D01*
X100666689Y-53813530D01*
X100664350Y-53812643D01*
X100664497Y-53812254D01*
X100608156Y-53779450D01*
X100576368Y-53717230D01*
X100574892Y-53681248D01*
X100575495Y-53675503D01*
X100575497Y-53675500D01*
X100581824Y-53615301D01*
X106771024Y-53615301D01*
X106771024Y-53615302D01*
X106790064Y-53772120D01*
X106834284Y-53888717D01*
X106846082Y-53919825D01*
X106935819Y-54049832D01*
X107054062Y-54154585D01*
X107054064Y-54154586D01*
X107193936Y-54227998D01*
X107347316Y-54265802D01*
X107347317Y-54265802D01*
X107505287Y-54265802D01*
X107658667Y-54227998D01*
X107686250Y-54213521D01*
X107798542Y-54154585D01*
X107916785Y-54049832D01*
X108006522Y-53919825D01*
X108062539Y-53772120D01*
X108081580Y-53615302D01*
X108077112Y-53578500D01*
X108062539Y-53458483D01*
X108033757Y-53382592D01*
X108006522Y-53310779D01*
X107916785Y-53180772D01*
X107798542Y-53076019D01*
X107798540Y-53076018D01*
X107798539Y-53076017D01*
X107658667Y-53002605D01*
X107505288Y-52964802D01*
X107505287Y-52964802D01*
X107347317Y-52964802D01*
X107347316Y-52964802D01*
X107193936Y-53002605D01*
X107054064Y-53076017D01*
X106935818Y-53180773D01*
X106846083Y-53310777D01*
X106846082Y-53310778D01*
X106790064Y-53458483D01*
X106771024Y-53615301D01*
X100581824Y-53615301D01*
X100594185Y-53497697D01*
X100582086Y-53382588D01*
X100594655Y-53313862D01*
X100642387Y-53262838D01*
X100710127Y-53245720D01*
X100776369Y-53267942D01*
X100797557Y-53286658D01*
X100866764Y-53363521D01*
X100866767Y-53363523D01*
X100866770Y-53363526D01*
X101011407Y-53468612D01*
X101174733Y-53541329D01*
X101349609Y-53578500D01*
X101349610Y-53578500D01*
X101528389Y-53578500D01*
X101528391Y-53578500D01*
X101703267Y-53541329D01*
X101866593Y-53468612D01*
X101966114Y-53396304D01*
X102031920Y-53372824D01*
X102099974Y-53388649D01*
X102111886Y-53396305D01*
X102211401Y-53468608D01*
X102211402Y-53468609D01*
X102211404Y-53468610D01*
X102211407Y-53468612D01*
X102374733Y-53541329D01*
X102549609Y-53578500D01*
X102549610Y-53578500D01*
X102728389Y-53578500D01*
X102728391Y-53578500D01*
X102903267Y-53541329D01*
X103066593Y-53468612D01*
X103211230Y-53363526D01*
X103211233Y-53363523D01*
X103216114Y-53359977D01*
X103281920Y-53336497D01*
X103349974Y-53352322D01*
X103361886Y-53359977D01*
X103366767Y-53363523D01*
X103366770Y-53363526D01*
X103511407Y-53468612D01*
X103674733Y-53541329D01*
X103849609Y-53578500D01*
X103849610Y-53578500D01*
X104028389Y-53578500D01*
X104028391Y-53578500D01*
X104203267Y-53541329D01*
X104366593Y-53468612D01*
X104511230Y-53363526D01*
X104518721Y-53355205D01*
X104578206Y-53318555D01*
X104648063Y-53319882D01*
X104672879Y-53330790D01*
X104674541Y-53331749D01*
X104674551Y-53331756D01*
X104837877Y-53404473D01*
X105012753Y-53441644D01*
X105012754Y-53441644D01*
X105191533Y-53441644D01*
X105191535Y-53441644D01*
X105366411Y-53404473D01*
X105529737Y-53331756D01*
X105674374Y-53226670D01*
X105794003Y-53093809D01*
X105883394Y-52938979D01*
X105938641Y-52768947D01*
X105957329Y-52591144D01*
X105938641Y-52413341D01*
X105883394Y-52243309D01*
X105794003Y-52088479D01*
X105719561Y-52005803D01*
X105674379Y-51955622D01*
X105674376Y-51955620D01*
X105674375Y-51955619D01*
X105674374Y-51955618D01*
X105529737Y-51850532D01*
X105366411Y-51777815D01*
X105366409Y-51777814D01*
X105234540Y-51749785D01*
X105191535Y-51740644D01*
X105012753Y-51740644D01*
X104982098Y-51747159D01*
X104837877Y-51777814D01*
X104837872Y-51777816D01*
X104674552Y-51850531D01*
X104529913Y-51955618D01*
X104522416Y-51963945D01*
X104462927Y-52000591D01*
X104393070Y-51999258D01*
X104368269Y-51988356D01*
X104366595Y-51987389D01*
X104350754Y-51980336D01*
X104203267Y-51914671D01*
X104203265Y-51914670D01*
X104075594Y-51887533D01*
X104028391Y-51877500D01*
X103849609Y-51877500D01*
X103818954Y-51884015D01*
X103674733Y-51914670D01*
X103674728Y-51914672D01*
X103511408Y-51987388D01*
X103511403Y-51987390D01*
X103361885Y-52096022D01*
X103296079Y-52119502D01*
X103228025Y-52103676D01*
X103216114Y-52096022D01*
X103091944Y-52005807D01*
X103066593Y-51987388D01*
X102903267Y-51914671D01*
X102903265Y-51914670D01*
X102775594Y-51887533D01*
X102728391Y-51877500D01*
X102549609Y-51877500D01*
X102518954Y-51884015D01*
X102374733Y-51914670D01*
X102374728Y-51914672D01*
X102211408Y-51987388D01*
X102211403Y-51987390D01*
X102111885Y-52059695D01*
X102046079Y-52083175D01*
X101978025Y-52067349D01*
X101966114Y-52059695D01*
X101891944Y-52005807D01*
X101866593Y-51987388D01*
X101703267Y-51914671D01*
X101703265Y-51914670D01*
X101575594Y-51887533D01*
X101528391Y-51877500D01*
X101349609Y-51877500D01*
X101318954Y-51884015D01*
X101174733Y-51914670D01*
X101174728Y-51914672D01*
X101011408Y-51987387D01*
X100866768Y-52092475D01*
X100747140Y-52225336D01*
X100657750Y-52380164D01*
X100657747Y-52380170D01*
X100602504Y-52550192D01*
X100602503Y-52550194D01*
X100583815Y-52728000D01*
X100595913Y-52843105D01*
X100583343Y-52911834D01*
X100535611Y-52962858D01*
X100467871Y-52979976D01*
X100401630Y-52957753D01*
X100380442Y-52939038D01*
X100311235Y-52862175D01*
X100311232Y-52862173D01*
X100311231Y-52862172D01*
X100311230Y-52862171D01*
X100166593Y-52757085D01*
X100003267Y-52684368D01*
X100003265Y-52684367D01*
X99875594Y-52657230D01*
X99828391Y-52647197D01*
X99828390Y-52647197D01*
X99814643Y-52647197D01*
X99747604Y-52627512D01*
X99701849Y-52574708D01*
X99691322Y-52510235D01*
X99692135Y-52502500D01*
X99694185Y-52483000D01*
X99675497Y-52305197D01*
X99620250Y-52135165D01*
X99530859Y-51980335D01*
X99471734Y-51914670D01*
X99411235Y-51847478D01*
X99411232Y-51847476D01*
X99411231Y-51847475D01*
X99411230Y-51847474D01*
X99266593Y-51742388D01*
X99103267Y-51669671D01*
X99103265Y-51669670D01*
X98943596Y-51635732D01*
X98928391Y-51632500D01*
X98749609Y-51632500D01*
X98734404Y-51635732D01*
X98574733Y-51669670D01*
X98574728Y-51669672D01*
X98411408Y-51742387D01*
X98266768Y-51847475D01*
X98147140Y-51980336D01*
X98057750Y-52135164D01*
X98057747Y-52135170D01*
X98002504Y-52305192D01*
X98002503Y-52305194D01*
X97989631Y-52427662D01*
X97983815Y-52483000D01*
X97997133Y-52609717D01*
X97984565Y-52678445D01*
X97936833Y-52729469D01*
X97873813Y-52746677D01*
X97749608Y-52746677D01*
X97649120Y-52768036D01*
X97579453Y-52762720D01*
X97523720Y-52720583D01*
X97500244Y-52661694D01*
X97487737Y-52558682D01*
X97431720Y-52410977D01*
X97341983Y-52280970D01*
X97223740Y-52176217D01*
X97223738Y-52176216D01*
X97223737Y-52176215D01*
X97083865Y-52102803D01*
X96930486Y-52065000D01*
X96930485Y-52065000D01*
X96772515Y-52065000D01*
X96772514Y-52065000D01*
X96619134Y-52102803D01*
X96479262Y-52176215D01*
X96361016Y-52280971D01*
X96271281Y-52410975D01*
X96271280Y-52410976D01*
X96215262Y-52558681D01*
X96196222Y-52715499D01*
X90918115Y-52715499D01*
X90940000Y-52633826D01*
X90940000Y-52502174D01*
X90905925Y-52375007D01*
X90873012Y-52318000D01*
X91790000Y-52318000D01*
X91790000Y-51670172D01*
X91789999Y-51670155D01*
X91783598Y-51610627D01*
X91783596Y-51610620D01*
X91733354Y-51475913D01*
X91733350Y-51475906D01*
X91647190Y-51360812D01*
X91647187Y-51360809D01*
X91532093Y-51274649D01*
X91532088Y-51274646D01*
X91400528Y-51225577D01*
X91344595Y-51183705D01*
X91320178Y-51118241D01*
X91335030Y-51049968D01*
X91356175Y-51021720D01*
X91478495Y-50899401D01*
X91614035Y-50705830D01*
X91713903Y-50491663D01*
X91775063Y-50263408D01*
X91795659Y-50028000D01*
X91775063Y-49792592D01*
X91730961Y-49628000D01*
X98683815Y-49628000D01*
X98702503Y-49805805D01*
X98702504Y-49805807D01*
X98757747Y-49975829D01*
X98757750Y-49975835D01*
X98847141Y-50130665D01*
X98888812Y-50176946D01*
X98966764Y-50263521D01*
X98966767Y-50263523D01*
X98966770Y-50263526D01*
X99111407Y-50368612D01*
X99274733Y-50441329D01*
X99449609Y-50478500D01*
X99449610Y-50478500D01*
X99628389Y-50478500D01*
X99628391Y-50478500D01*
X99803267Y-50441329D01*
X99966593Y-50368612D01*
X100111230Y-50263526D01*
X100111337Y-50263408D01*
X100156575Y-50213165D01*
X100230859Y-50130665D01*
X100232398Y-50128000D01*
X108883815Y-50128000D01*
X108902503Y-50305805D01*
X108902504Y-50305807D01*
X108957750Y-50475836D01*
X109009806Y-50566000D01*
X109026279Y-50633900D01*
X109009806Y-50690000D01*
X108957750Y-50780163D01*
X108902504Y-50950192D01*
X108902503Y-50950194D01*
X108883815Y-51128000D01*
X108902503Y-51305805D01*
X108902504Y-51305807D01*
X108957747Y-51475829D01*
X108957750Y-51475835D01*
X109047141Y-51630665D01*
X109088812Y-51676946D01*
X109166764Y-51763521D01*
X109166767Y-51763523D01*
X109166770Y-51763526D01*
X109311407Y-51868612D01*
X109474733Y-51941329D01*
X109649609Y-51978500D01*
X109649610Y-51978500D01*
X109828389Y-51978500D01*
X109828391Y-51978500D01*
X110003267Y-51941329D01*
X110166593Y-51868612D01*
X110311230Y-51763526D01*
X110311235Y-51763519D01*
X110312986Y-51761945D01*
X110314220Y-51761352D01*
X110316487Y-51759706D01*
X110316788Y-51760120D01*
X110375979Y-51731719D01*
X110395953Y-51730100D01*
X111438240Y-51730100D01*
X111505279Y-51749785D01*
X111525921Y-51766419D01*
X112125841Y-52366339D01*
X112159326Y-52427662D01*
X112154342Y-52497354D01*
X112112470Y-52553287D01*
X112055827Y-52575498D01*
X112055966Y-52576149D01*
X112052041Y-52576983D01*
X112051134Y-52577339D01*
X112049616Y-52577498D01*
X111874733Y-52614670D01*
X111783204Y-52655422D01*
X111713954Y-52664706D01*
X111650678Y-52635078D01*
X111640619Y-52625114D01*
X111631215Y-52614670D01*
X111611230Y-52592474D01*
X111466593Y-52487388D01*
X111303267Y-52414671D01*
X111303265Y-52414670D01*
X111140952Y-52380170D01*
X111128391Y-52377500D01*
X110949609Y-52377500D01*
X110937048Y-52380170D01*
X110774733Y-52414670D01*
X110774728Y-52414672D01*
X110611408Y-52487387D01*
X110466768Y-52592475D01*
X110347140Y-52725336D01*
X110257750Y-52880164D01*
X110257747Y-52880170D01*
X110202504Y-53050192D01*
X110202503Y-53050194D01*
X110183815Y-53228000D01*
X110202503Y-53405805D01*
X110202504Y-53405807D01*
X110257747Y-53575829D01*
X110257750Y-53575835D01*
X110347141Y-53730665D01*
X110375181Y-53761806D01*
X110466764Y-53863521D01*
X110466767Y-53863523D01*
X110466770Y-53863526D01*
X110611407Y-53968612D01*
X110774733Y-54041329D01*
X110949609Y-54078500D01*
X110949610Y-54078500D01*
X111128389Y-54078500D01*
X111128391Y-54078500D01*
X111303267Y-54041329D01*
X111394796Y-54000577D01*
X111464044Y-53991293D01*
X111527321Y-54020921D01*
X111537379Y-54030884D01*
X111566770Y-54063526D01*
X111711407Y-54168612D01*
X111874733Y-54241329D01*
X112049609Y-54278500D01*
X112049610Y-54278500D01*
X112228389Y-54278500D01*
X112228391Y-54278500D01*
X112403267Y-54241329D01*
X112566593Y-54168612D01*
X112711230Y-54063526D01*
X112830859Y-53930665D01*
X112920250Y-53775835D01*
X112920528Y-53774981D01*
X112926585Y-53756338D01*
X112940504Y-53713498D01*
X112979940Y-53655823D01*
X113044299Y-53628624D01*
X113113145Y-53640538D01*
X113164622Y-53687782D01*
X113165818Y-53689809D01*
X113247141Y-53830665D01*
X113285065Y-53872784D01*
X113366764Y-53963521D01*
X113366767Y-53963523D01*
X113366770Y-53963526D01*
X113511407Y-54068612D01*
X113674733Y-54141329D01*
X113849609Y-54178500D01*
X113849610Y-54178500D01*
X114028389Y-54178500D01*
X114028391Y-54178500D01*
X114203267Y-54141329D01*
X114366593Y-54068612D01*
X114511230Y-53963526D01*
X114520737Y-53952968D01*
X114620750Y-53841892D01*
X114680236Y-53805243D01*
X114750093Y-53806573D01*
X114808142Y-53845460D01*
X114835952Y-53909557D01*
X114836900Y-53924864D01*
X114836900Y-57920740D01*
X114817215Y-57987779D01*
X114805050Y-58003712D01*
X114695540Y-58125335D01*
X114606150Y-58280164D01*
X114606147Y-58280170D01*
X114550904Y-58450192D01*
X114550903Y-58450194D01*
X114532215Y-58628000D01*
X114550903Y-58805805D01*
X114550904Y-58805807D01*
X114606147Y-58975829D01*
X114606150Y-58975835D01*
X114695541Y-59130665D01*
X114736452Y-59176101D01*
X114815164Y-59263521D01*
X114815167Y-59263523D01*
X114815170Y-59263526D01*
X114959807Y-59368612D01*
X115122863Y-59441208D01*
X115176098Y-59486457D01*
X115195746Y-59541522D01*
X115202503Y-59605803D01*
X115202504Y-59605805D01*
X115202504Y-59605807D01*
X115257747Y-59775829D01*
X115257750Y-59775834D01*
X115257750Y-59775835D01*
X115347141Y-59930665D01*
X115388812Y-59976946D01*
X115466764Y-60063521D01*
X115466767Y-60063523D01*
X115466770Y-60063526D01*
X115611407Y-60168612D01*
X115774733Y-60241329D01*
X115949609Y-60278500D01*
X115949610Y-60278500D01*
X116128389Y-60278500D01*
X116128391Y-60278500D01*
X116303267Y-60241329D01*
X116466593Y-60168612D01*
X116611230Y-60063526D01*
X116730859Y-59930665D01*
X116820250Y-59775835D01*
X116826327Y-59757131D01*
X116865762Y-59699456D01*
X116930120Y-59672257D01*
X116970035Y-59674157D01*
X117076479Y-59696783D01*
X117076480Y-59696783D01*
X117255259Y-59696783D01*
X117255261Y-59696783D01*
X117374584Y-59671420D01*
X117436494Y-59658261D01*
X117437002Y-59660651D01*
X117495799Y-59658964D01*
X117555637Y-59695037D01*
X117586474Y-59757733D01*
X117587614Y-59791856D01*
X117583815Y-59827999D01*
X117602503Y-60005805D01*
X117602504Y-60005807D01*
X117657747Y-60175829D01*
X117657750Y-60175835D01*
X117747141Y-60330665D01*
X117789312Y-60377500D01*
X117816210Y-60407374D01*
X117846440Y-60470365D01*
X117841991Y-60528664D01*
X117802504Y-60650192D01*
X117802503Y-60650194D01*
X117783815Y-60828000D01*
X117802503Y-61005805D01*
X117802504Y-61005807D01*
X117857747Y-61175829D01*
X117857750Y-61175835D01*
X117947141Y-61330665D01*
X117981307Y-61368610D01*
X118066764Y-61463521D01*
X118066767Y-61463523D01*
X118066770Y-61463526D01*
X118211407Y-61568612D01*
X118374733Y-61641329D01*
X118549609Y-61678500D01*
X118549610Y-61678500D01*
X118728389Y-61678500D01*
X118728391Y-61678500D01*
X118903267Y-61641329D01*
X119066593Y-61568612D01*
X119211230Y-61463526D01*
X119330859Y-61330665D01*
X119420250Y-61175835D01*
X119475497Y-61005803D01*
X119494185Y-60828000D01*
X119475497Y-60650197D01*
X119447873Y-60565181D01*
X119420252Y-60480170D01*
X119420249Y-60480164D01*
X119414592Y-60470365D01*
X119330859Y-60325335D01*
X119263204Y-60250197D01*
X119261789Y-60248625D01*
X119231559Y-60185634D01*
X119236007Y-60127338D01*
X119275497Y-60005803D01*
X119294185Y-59828000D01*
X119275497Y-59650197D01*
X119230215Y-59510833D01*
X119220252Y-59480170D01*
X119220249Y-59480164D01*
X119130859Y-59325335D01*
X119075201Y-59263521D01*
X119011235Y-59192478D01*
X119011232Y-59192476D01*
X119011231Y-59192475D01*
X119011230Y-59192474D01*
X118866593Y-59087388D01*
X118733205Y-59028000D01*
X124283815Y-59028000D01*
X124302503Y-59205805D01*
X124302504Y-59205807D01*
X124357747Y-59375829D01*
X124357750Y-59375835D01*
X124447141Y-59530665D01*
X124488812Y-59576946D01*
X124566764Y-59663521D01*
X124566767Y-59663523D01*
X124566770Y-59663526D01*
X124711407Y-59768612D01*
X124874733Y-59841329D01*
X125049609Y-59878500D01*
X125049610Y-59878500D01*
X125228389Y-59878500D01*
X125228391Y-59878500D01*
X125403267Y-59841329D01*
X125566593Y-59768612D01*
X125711230Y-59663526D01*
X125714755Y-59659612D01*
X125755220Y-59614670D01*
X125830859Y-59530665D01*
X125920250Y-59375835D01*
X125975497Y-59205803D01*
X125994185Y-59028000D01*
X125975497Y-58850197D01*
X125941503Y-58745574D01*
X125920252Y-58680170D01*
X125920249Y-58680164D01*
X125830859Y-58525335D01*
X125764827Y-58451999D01*
X125711235Y-58392478D01*
X125711232Y-58392476D01*
X125711231Y-58392475D01*
X125711230Y-58392474D01*
X125566593Y-58287388D01*
X125403267Y-58214671D01*
X125403265Y-58214670D01*
X125275594Y-58187533D01*
X125228391Y-58177500D01*
X125049609Y-58177500D01*
X125018954Y-58184015D01*
X124874733Y-58214670D01*
X124874728Y-58214672D01*
X124711408Y-58287387D01*
X124566768Y-58392475D01*
X124447140Y-58525336D01*
X124357750Y-58680164D01*
X124357747Y-58680170D01*
X124302504Y-58850192D01*
X124302503Y-58850194D01*
X124283815Y-59028000D01*
X118733205Y-59028000D01*
X118703267Y-59014671D01*
X118703265Y-59014670D01*
X118575594Y-58987533D01*
X118528391Y-58977500D01*
X118349609Y-58977500D01*
X118260667Y-58996404D01*
X118168376Y-59016022D01*
X118167870Y-59013643D01*
X118108999Y-59015299D01*
X118049182Y-58979191D01*
X118018383Y-58916476D01*
X118017256Y-58882426D01*
X118021055Y-58846283D01*
X118002367Y-58668480D01*
X117974743Y-58583464D01*
X117947122Y-58498453D01*
X117947119Y-58498447D01*
X117926825Y-58463297D01*
X117877029Y-58377046D01*
X117857730Y-58343619D01*
X117857725Y-58343612D01*
X117799820Y-58279302D01*
X117769590Y-58216310D01*
X117767970Y-58196330D01*
X117767970Y-56828000D01*
X122423887Y-56828000D01*
X122442575Y-57005805D01*
X122442576Y-57005807D01*
X122497819Y-57175829D01*
X122497822Y-57175835D01*
X122587213Y-57330665D01*
X122621104Y-57368305D01*
X122706836Y-57463521D01*
X122706839Y-57463523D01*
X122706842Y-57463526D01*
X122851479Y-57568612D01*
X123014805Y-57641329D01*
X123189681Y-57678500D01*
X123189682Y-57678500D01*
X123368461Y-57678500D01*
X123368463Y-57678500D01*
X123543339Y-57641329D01*
X123706665Y-57568612D01*
X123851302Y-57463526D01*
X123970931Y-57330665D01*
X124060322Y-57175835D01*
X124115569Y-57005803D01*
X124123746Y-56928000D01*
X125583815Y-56928000D01*
X125602503Y-57105805D01*
X125602504Y-57105807D01*
X125657747Y-57275829D01*
X125657750Y-57275835D01*
X125747141Y-57430665D01*
X125779889Y-57467035D01*
X125866764Y-57563521D01*
X125866767Y-57563523D01*
X125866770Y-57563526D01*
X126011407Y-57668612D01*
X126174733Y-57741329D01*
X126349609Y-57778500D01*
X126349610Y-57778500D01*
X126528389Y-57778500D01*
X126528391Y-57778500D01*
X126703267Y-57741329D01*
X126866593Y-57668612D01*
X127011230Y-57563526D01*
X127130859Y-57430665D01*
X127220250Y-57275835D01*
X127275497Y-57105803D01*
X127294185Y-56928000D01*
X127275497Y-56750197D01*
X127230390Y-56611372D01*
X127220252Y-56580170D01*
X127220249Y-56580164D01*
X127210643Y-56563526D01*
X127130859Y-56425335D01*
X127079783Y-56368610D01*
X127011235Y-56292478D01*
X127011232Y-56292476D01*
X127011231Y-56292475D01*
X127011230Y-56292474D01*
X126866593Y-56187388D01*
X126703267Y-56114671D01*
X126703265Y-56114670D01*
X126550291Y-56082155D01*
X126528391Y-56077500D01*
X126349609Y-56077500D01*
X126327709Y-56082155D01*
X126174733Y-56114670D01*
X126174728Y-56114672D01*
X126011408Y-56187387D01*
X125866768Y-56292475D01*
X125747140Y-56425336D01*
X125657750Y-56580164D01*
X125657747Y-56580170D01*
X125602504Y-56750192D01*
X125602503Y-56750194D01*
X125583815Y-56928000D01*
X124123746Y-56928000D01*
X124134257Y-56828000D01*
X124115569Y-56650197D01*
X124106769Y-56623116D01*
X124104773Y-56553278D01*
X124140852Y-56493444D01*
X124198914Y-56463509D01*
X124303267Y-56441329D01*
X124466593Y-56368612D01*
X124611230Y-56263526D01*
X124629806Y-56242896D01*
X124638851Y-56232850D01*
X124730859Y-56130665D01*
X124820250Y-55975835D01*
X124875497Y-55805803D01*
X124894185Y-55628000D01*
X124875497Y-55450197D01*
X124839933Y-55340745D01*
X124838545Y-55292143D01*
X124817776Y-55275160D01*
X124812747Y-55267169D01*
X124776374Y-55204169D01*
X124730859Y-55125335D01*
X124669696Y-55057407D01*
X124611235Y-54992478D01*
X124611232Y-54992476D01*
X124611231Y-54992475D01*
X124611230Y-54992474D01*
X124466593Y-54887388D01*
X124449101Y-54879600D01*
X124983815Y-54879600D01*
X125002503Y-55057405D01*
X125002504Y-55057407D01*
X125038065Y-55166851D01*
X125039453Y-55215454D01*
X125060223Y-55232438D01*
X125065252Y-55240430D01*
X125147140Y-55382263D01*
X125147139Y-55382263D01*
X125266764Y-55515121D01*
X125266767Y-55515123D01*
X125266770Y-55515126D01*
X125411407Y-55620212D01*
X125574733Y-55692929D01*
X125749609Y-55730100D01*
X125749610Y-55730100D01*
X125928389Y-55730100D01*
X125928391Y-55730100D01*
X126103267Y-55692929D01*
X126266593Y-55620212D01*
X126411230Y-55515126D01*
X126530859Y-55382265D01*
X126620250Y-55227435D01*
X126675497Y-55057403D01*
X126678587Y-55028000D01*
X127683815Y-55028000D01*
X127702503Y-55205805D01*
X127702504Y-55205807D01*
X127757747Y-55375829D01*
X127757750Y-55375835D01*
X127847141Y-55530665D01*
X127888812Y-55576946D01*
X127966764Y-55663521D01*
X127966767Y-55663523D01*
X127966770Y-55663526D01*
X128111407Y-55768612D01*
X128274733Y-55841329D01*
X128449609Y-55878500D01*
X128449610Y-55878500D01*
X128628389Y-55878500D01*
X128628391Y-55878500D01*
X128803267Y-55841329D01*
X128966593Y-55768612D01*
X129111230Y-55663526D01*
X129230859Y-55530665D01*
X129320250Y-55375835D01*
X129375497Y-55205803D01*
X129394185Y-55028000D01*
X129375497Y-54850197D01*
X129320250Y-54680165D01*
X129230859Y-54525335D01*
X129169556Y-54457251D01*
X129111235Y-54392478D01*
X129111232Y-54392476D01*
X129111231Y-54392475D01*
X129111230Y-54392474D01*
X128966593Y-54287388D01*
X128966592Y-54287387D01*
X128913030Y-54263540D01*
X128859793Y-54218290D01*
X128839472Y-54151441D01*
X128858517Y-54084217D01*
X128910884Y-54037962D01*
X128912961Y-54037012D01*
X128933203Y-54028000D01*
X131184144Y-54028000D01*
X131203126Y-54232849D01*
X131203126Y-54232851D01*
X131203127Y-54232854D01*
X131218643Y-54287387D01*
X131259427Y-54430730D01*
X131259431Y-54430740D01*
X131318914Y-54550197D01*
X131351130Y-54614896D01*
X131405873Y-54687388D01*
X131475112Y-54779076D01*
X131627146Y-54917672D01*
X131627152Y-54917676D01*
X131635059Y-54922572D01*
X131681696Y-54974599D01*
X131692801Y-55043580D01*
X131664850Y-55107615D01*
X131635065Y-55133425D01*
X131627149Y-55138326D01*
X131627146Y-55138328D01*
X131475112Y-55276924D01*
X131351129Y-55441106D01*
X131259431Y-55625260D01*
X131259427Y-55625270D01*
X131216590Y-55775828D01*
X131208062Y-55805804D01*
X131203126Y-55823151D01*
X131184144Y-56028001D01*
X131203126Y-56232850D01*
X131203126Y-56232852D01*
X131203127Y-56232855D01*
X131229440Y-56325335D01*
X131259427Y-56430731D01*
X131259431Y-56430741D01*
X131333838Y-56580170D01*
X131351130Y-56614897D01*
X131391692Y-56668610D01*
X131475112Y-56779077D01*
X131627146Y-56917673D01*
X131627152Y-56917677D01*
X131635059Y-56922573D01*
X131681696Y-56974600D01*
X131692801Y-57043581D01*
X131664850Y-57107616D01*
X131635065Y-57133426D01*
X131627149Y-57138327D01*
X131627146Y-57138329D01*
X131475112Y-57276925D01*
X131351129Y-57441107D01*
X131259431Y-57625261D01*
X131259427Y-57625271D01*
X131203126Y-57823152D01*
X131184144Y-58028002D01*
X131203126Y-58232851D01*
X131203126Y-58232853D01*
X131203127Y-58232856D01*
X131218643Y-58287388D01*
X131259427Y-58430732D01*
X131259431Y-58430742D01*
X131312221Y-58536758D01*
X131351130Y-58614898D01*
X131400417Y-58680165D01*
X131475112Y-58779078D01*
X131627146Y-58917674D01*
X131627153Y-58917679D01*
X131635061Y-58922576D01*
X131681696Y-58974605D01*
X131692798Y-59043587D01*
X131664843Y-59107621D01*
X131635061Y-59133426D01*
X131627153Y-59138322D01*
X131627146Y-59138327D01*
X131475112Y-59276923D01*
X131351129Y-59441105D01*
X131259431Y-59625259D01*
X131259427Y-59625269D01*
X131203126Y-59823150D01*
X131184144Y-60028000D01*
X131203126Y-60232849D01*
X131203126Y-60232851D01*
X131203127Y-60232854D01*
X131223797Y-60305500D01*
X131259427Y-60430730D01*
X131259431Y-60430740D01*
X131339965Y-60592474D01*
X131351130Y-60614896D01*
X131361026Y-60628000D01*
X131475112Y-60779076D01*
X131627146Y-60917672D01*
X131627152Y-60917676D01*
X131635059Y-60922572D01*
X131681696Y-60974599D01*
X131692801Y-61043580D01*
X131664850Y-61107615D01*
X131635065Y-61133425D01*
X131627149Y-61138326D01*
X131627146Y-61138328D01*
X131475112Y-61276924D01*
X131351129Y-61441106D01*
X131259431Y-61625260D01*
X131259427Y-61625270D01*
X131203126Y-61823151D01*
X131184144Y-62028001D01*
X131203126Y-62232850D01*
X131203126Y-62232852D01*
X131203127Y-62232855D01*
X131215354Y-62275829D01*
X131259427Y-62430731D01*
X131259431Y-62430741D01*
X131341873Y-62596307D01*
X131351130Y-62614897D01*
X131389574Y-62665805D01*
X131475112Y-62779077D01*
X131627146Y-62917673D01*
X131627151Y-62917676D01*
X131635059Y-62922573D01*
X131681695Y-62974600D01*
X131692799Y-63043582D01*
X131664846Y-63107616D01*
X131635065Y-63133424D01*
X131627148Y-63138326D01*
X131627146Y-63138327D01*
X131475112Y-63276923D01*
X131351129Y-63441105D01*
X131259431Y-63625259D01*
X131259427Y-63625269D01*
X131234645Y-63712370D01*
X131208062Y-63805803D01*
X131203126Y-63823150D01*
X131184144Y-64028000D01*
X131203126Y-64232849D01*
X131203126Y-64232851D01*
X131203127Y-64232854D01*
X131211853Y-64263523D01*
X131259427Y-64430730D01*
X131259431Y-64430740D01*
X131339021Y-64590578D01*
X131351130Y-64614896D01*
X131399161Y-64678500D01*
X131475112Y-64779076D01*
X131627146Y-64917672D01*
X131627152Y-64917676D01*
X131635059Y-64922572D01*
X131681696Y-64974599D01*
X131692801Y-65043580D01*
X131664850Y-65107615D01*
X131635065Y-65133425D01*
X131627149Y-65138326D01*
X131627146Y-65138328D01*
X131475112Y-65276924D01*
X131351129Y-65441106D01*
X131259431Y-65625260D01*
X131259427Y-65625270D01*
X131203126Y-65823151D01*
X131184144Y-66028001D01*
X131203126Y-66232850D01*
X131203126Y-66232852D01*
X131203127Y-66232855D01*
X131216133Y-66278565D01*
X131259427Y-66430731D01*
X131259431Y-66430741D01*
X131351129Y-66614895D01*
X131351130Y-66614897D01*
X131359817Y-66626400D01*
X131475112Y-66779077D01*
X131627146Y-66917673D01*
X131627151Y-66917676D01*
X131635059Y-66922573D01*
X131681695Y-66974600D01*
X131692799Y-67043582D01*
X131664846Y-67107616D01*
X131635065Y-67133424D01*
X131627148Y-67138326D01*
X131627146Y-67138327D01*
X131475112Y-67276923D01*
X131351129Y-67441105D01*
X131259431Y-67625259D01*
X131259427Y-67625269D01*
X131203126Y-67823150D01*
X131184144Y-68028000D01*
X131203126Y-68232849D01*
X131203126Y-68232851D01*
X131203127Y-68232854D01*
X131203726Y-68234958D01*
X131259427Y-68430730D01*
X131259431Y-68430740D01*
X131348116Y-68608844D01*
X131351130Y-68614896D01*
X131389465Y-68665660D01*
X131475112Y-68779076D01*
X131627146Y-68917672D01*
X131627151Y-68917676D01*
X131802062Y-69025976D01*
X131802063Y-69025976D01*
X131802066Y-69025978D01*
X131993905Y-69100297D01*
X132196134Y-69138100D01*
X132196136Y-69138100D01*
X132401864Y-69138100D01*
X132401866Y-69138100D01*
X132604095Y-69100297D01*
X132795934Y-69025978D01*
X132970851Y-68917674D01*
X133122889Y-68779074D01*
X133246870Y-68614896D01*
X133338572Y-68430732D01*
X133394873Y-68232854D01*
X133413856Y-68028000D01*
X133394873Y-67823146D01*
X133338572Y-67625268D01*
X133246870Y-67441104D01*
X133122889Y-67276926D01*
X133122887Y-67276923D01*
X132970853Y-67138327D01*
X132970849Y-67138324D01*
X132962938Y-67133426D01*
X132916303Y-67081398D01*
X132905200Y-67012416D01*
X132933154Y-66948382D01*
X132962940Y-66922572D01*
X132970851Y-66917675D01*
X133122889Y-66779075D01*
X133246870Y-66614897D01*
X133338572Y-66430733D01*
X133394873Y-66232855D01*
X133413856Y-66028001D01*
X133394873Y-65823147D01*
X133338572Y-65625269D01*
X133333295Y-65614672D01*
X133269916Y-65487388D01*
X133246870Y-65441105D01*
X133140152Y-65299787D01*
X133122887Y-65276924D01*
X132970853Y-65138328D01*
X132962937Y-65133427D01*
X132916302Y-65081399D01*
X132905198Y-65012417D01*
X132933151Y-64948383D01*
X132962940Y-64922572D01*
X132970851Y-64917674D01*
X133099046Y-64800810D01*
X133122887Y-64779076D01*
X133122889Y-64779074D01*
X133246870Y-64614896D01*
X133338572Y-64430732D01*
X133394873Y-64232854D01*
X133413856Y-64028000D01*
X133394873Y-63823146D01*
X133338572Y-63625268D01*
X133334197Y-63616482D01*
X133277749Y-63503118D01*
X133246870Y-63441104D01*
X133122889Y-63276926D01*
X133122887Y-63276923D01*
X132970853Y-63138327D01*
X132970849Y-63138324D01*
X132962938Y-63133426D01*
X132916303Y-63081398D01*
X132905200Y-63012416D01*
X132933154Y-62948382D01*
X132962940Y-62922572D01*
X132970851Y-62917675D01*
X133103031Y-62797177D01*
X133122887Y-62779077D01*
X133125054Y-62776208D01*
X133246870Y-62614897D01*
X133338572Y-62430733D01*
X133394873Y-62232855D01*
X133413856Y-62028001D01*
X133394873Y-61823147D01*
X133338572Y-61625269D01*
X133330176Y-61608408D01*
X133258034Y-61463526D01*
X133246870Y-61441105D01*
X133122889Y-61276927D01*
X133122887Y-61276924D01*
X132970853Y-61138328D01*
X132962937Y-61133427D01*
X132916302Y-61081399D01*
X132905198Y-61012417D01*
X132933151Y-60948383D01*
X132962940Y-60922572D01*
X132970851Y-60917674D01*
X133093566Y-60805805D01*
X133122887Y-60779076D01*
X133122889Y-60779074D01*
X133246870Y-60614896D01*
X133338572Y-60430732D01*
X133394873Y-60232854D01*
X133413856Y-60028000D01*
X133394873Y-59823146D01*
X133338572Y-59625268D01*
X133333295Y-59614671D01*
X133291465Y-59530663D01*
X133246870Y-59441104D01*
X133122889Y-59276926D01*
X133122887Y-59276923D01*
X132970853Y-59138327D01*
X132970848Y-59138324D01*
X132962941Y-59133428D01*
X132916305Y-59081401D01*
X132905201Y-59012419D01*
X132933154Y-58948385D01*
X132962941Y-58922574D01*
X132965168Y-58921194D01*
X132970851Y-58917676D01*
X133093566Y-58805807D01*
X133122887Y-58779078D01*
X133122889Y-58779076D01*
X133246870Y-58614898D01*
X133338572Y-58430734D01*
X133394873Y-58232856D01*
X133413856Y-58028002D01*
X133394873Y-57823148D01*
X133338572Y-57625270D01*
X133333939Y-57615966D01*
X133284163Y-57516001D01*
X133246870Y-57441106D01*
X133122889Y-57276928D01*
X133122887Y-57276925D01*
X132970853Y-57138329D01*
X132962937Y-57133428D01*
X132916302Y-57081400D01*
X132905198Y-57012418D01*
X132933151Y-56948384D01*
X132962940Y-56922573D01*
X132970851Y-56917675D01*
X133122889Y-56779075D01*
X133246870Y-56614897D01*
X133338572Y-56430733D01*
X133394873Y-56232855D01*
X133413856Y-56028001D01*
X133394873Y-55823147D01*
X133338572Y-55625269D01*
X133329229Y-55606506D01*
X133272449Y-55492475D01*
X133246870Y-55441105D01*
X133125334Y-55280165D01*
X133122887Y-55276924D01*
X132970853Y-55138328D01*
X132962937Y-55133427D01*
X132916302Y-55081399D01*
X132905198Y-55012417D01*
X132933151Y-54948383D01*
X132962940Y-54922572D01*
X132970851Y-54917674D01*
X133122889Y-54779074D01*
X133246870Y-54614896D01*
X133338572Y-54430732D01*
X133394873Y-54232854D01*
X133413856Y-54028000D01*
X133724144Y-54028000D01*
X133743126Y-54232849D01*
X133743126Y-54232851D01*
X133743127Y-54232854D01*
X133758643Y-54287387D01*
X133799427Y-54430730D01*
X133799431Y-54430740D01*
X133858914Y-54550197D01*
X133891130Y-54614896D01*
X133945873Y-54687388D01*
X134015112Y-54779076D01*
X134167146Y-54917672D01*
X134167152Y-54917676D01*
X134175059Y-54922572D01*
X134221696Y-54974599D01*
X134232801Y-55043580D01*
X134204850Y-55107615D01*
X134175065Y-55133425D01*
X134167149Y-55138326D01*
X134167146Y-55138328D01*
X134015112Y-55276924D01*
X133891129Y-55441106D01*
X133799431Y-55625260D01*
X133799427Y-55625270D01*
X133756590Y-55775828D01*
X133748062Y-55805804D01*
X133743126Y-55823151D01*
X133724144Y-56028001D01*
X133743126Y-56232850D01*
X133743126Y-56232852D01*
X133743127Y-56232855D01*
X133769440Y-56325335D01*
X133799427Y-56430731D01*
X133799431Y-56430741D01*
X133873838Y-56580170D01*
X133891130Y-56614897D01*
X133931692Y-56668610D01*
X134015112Y-56779077D01*
X134167146Y-56917673D01*
X134167152Y-56917677D01*
X134175059Y-56922573D01*
X134221696Y-56974600D01*
X134232801Y-57043581D01*
X134204850Y-57107616D01*
X134175065Y-57133426D01*
X134167149Y-57138327D01*
X134167146Y-57138329D01*
X134015112Y-57276925D01*
X133891129Y-57441107D01*
X133799431Y-57625261D01*
X133799427Y-57625271D01*
X133743126Y-57823152D01*
X133724144Y-58028002D01*
X133743126Y-58232851D01*
X133743126Y-58232853D01*
X133743127Y-58232856D01*
X133758643Y-58287388D01*
X133799427Y-58430732D01*
X133799431Y-58430742D01*
X133852221Y-58536758D01*
X133891130Y-58614898D01*
X133940417Y-58680165D01*
X134015112Y-58779078D01*
X134167146Y-58917674D01*
X134167153Y-58917679D01*
X134175061Y-58922576D01*
X134221696Y-58974605D01*
X134232798Y-59043587D01*
X134204843Y-59107621D01*
X134175061Y-59133426D01*
X134167153Y-59138322D01*
X134167146Y-59138327D01*
X134015112Y-59276923D01*
X133891129Y-59441105D01*
X133799431Y-59625259D01*
X133799427Y-59625269D01*
X133743126Y-59823150D01*
X133724144Y-60028000D01*
X133743126Y-60232849D01*
X133743126Y-60232851D01*
X133743127Y-60232854D01*
X133763797Y-60305500D01*
X133799427Y-60430730D01*
X133799431Y-60430740D01*
X133879965Y-60592474D01*
X133891130Y-60614896D01*
X133901026Y-60628000D01*
X134015112Y-60779076D01*
X134167146Y-60917672D01*
X134167152Y-60917676D01*
X134175059Y-60922572D01*
X134221696Y-60974599D01*
X134232801Y-61043580D01*
X134204850Y-61107615D01*
X134175065Y-61133425D01*
X134167149Y-61138326D01*
X134167146Y-61138328D01*
X134015112Y-61276924D01*
X133891129Y-61441106D01*
X133799431Y-61625260D01*
X133799427Y-61625270D01*
X133743126Y-61823151D01*
X133724144Y-62028001D01*
X133743126Y-62232850D01*
X133743126Y-62232852D01*
X133743127Y-62232855D01*
X133755354Y-62275829D01*
X133799427Y-62430731D01*
X133799431Y-62430741D01*
X133881873Y-62596307D01*
X133891130Y-62614897D01*
X133929574Y-62665805D01*
X134015112Y-62779077D01*
X134167146Y-62917673D01*
X134167151Y-62917676D01*
X134175059Y-62922573D01*
X134221695Y-62974600D01*
X134232799Y-63043582D01*
X134204846Y-63107616D01*
X134175065Y-63133424D01*
X134167148Y-63138326D01*
X134167146Y-63138327D01*
X134015112Y-63276923D01*
X133891129Y-63441105D01*
X133799431Y-63625259D01*
X133799427Y-63625269D01*
X133774645Y-63712370D01*
X133748062Y-63805803D01*
X133743126Y-63823150D01*
X133724144Y-64028000D01*
X133743126Y-64232849D01*
X133743126Y-64232851D01*
X133743127Y-64232854D01*
X133751853Y-64263523D01*
X133799427Y-64430730D01*
X133799431Y-64430740D01*
X133879021Y-64590578D01*
X133891130Y-64614896D01*
X133939161Y-64678500D01*
X134015112Y-64779076D01*
X134167146Y-64917672D01*
X134167152Y-64917676D01*
X134175059Y-64922572D01*
X134221696Y-64974599D01*
X134232801Y-65043580D01*
X134204850Y-65107615D01*
X134175065Y-65133425D01*
X134167149Y-65138326D01*
X134167146Y-65138328D01*
X134015112Y-65276924D01*
X133891129Y-65441106D01*
X133799431Y-65625260D01*
X133799427Y-65625270D01*
X133743126Y-65823151D01*
X133724144Y-66028001D01*
X133743126Y-66232850D01*
X133743126Y-66232852D01*
X133743127Y-66232855D01*
X133756133Y-66278565D01*
X133799427Y-66430731D01*
X133799431Y-66430741D01*
X133891129Y-66614895D01*
X133891130Y-66614897D01*
X133899817Y-66626400D01*
X134015112Y-66779077D01*
X134167146Y-66917673D01*
X134167151Y-66917676D01*
X134175059Y-66922573D01*
X134221695Y-66974600D01*
X134232799Y-67043582D01*
X134204846Y-67107616D01*
X134175065Y-67133424D01*
X134167148Y-67138326D01*
X134167146Y-67138327D01*
X134015112Y-67276923D01*
X133891129Y-67441105D01*
X133799431Y-67625259D01*
X133799427Y-67625269D01*
X133743126Y-67823150D01*
X133724144Y-68028000D01*
X133743126Y-68232849D01*
X133743126Y-68232851D01*
X133743127Y-68232854D01*
X133743726Y-68234958D01*
X133799427Y-68430730D01*
X133799431Y-68430740D01*
X133888116Y-68608844D01*
X133891130Y-68614896D01*
X133929465Y-68665660D01*
X134015112Y-68779076D01*
X134167146Y-68917672D01*
X134167151Y-68917676D01*
X134342062Y-69025976D01*
X134342063Y-69025976D01*
X134342066Y-69025978D01*
X134533905Y-69100297D01*
X134736134Y-69138100D01*
X134736136Y-69138100D01*
X134941864Y-69138100D01*
X134941866Y-69138100D01*
X135144095Y-69100297D01*
X135335934Y-69025978D01*
X135510851Y-68917674D01*
X135662889Y-68779074D01*
X135786870Y-68614896D01*
X135878572Y-68430732D01*
X135934873Y-68232854D01*
X135953856Y-68028000D01*
X135934873Y-67823146D01*
X135878572Y-67625268D01*
X135786870Y-67441104D01*
X135662889Y-67276926D01*
X135662887Y-67276923D01*
X135510853Y-67138327D01*
X135510849Y-67138324D01*
X135502938Y-67133426D01*
X135456303Y-67081398D01*
X135445200Y-67012416D01*
X135473154Y-66948382D01*
X135502940Y-66922572D01*
X135510851Y-66917675D01*
X135662889Y-66779075D01*
X135786870Y-66614897D01*
X135878572Y-66430733D01*
X135934873Y-66232855D01*
X135953856Y-66028001D01*
X135934873Y-65823147D01*
X135878572Y-65625269D01*
X135873295Y-65614672D01*
X135809916Y-65487388D01*
X135786870Y-65441105D01*
X135680152Y-65299787D01*
X135662887Y-65276924D01*
X135510853Y-65138328D01*
X135502937Y-65133427D01*
X135456302Y-65081399D01*
X135445198Y-65012417D01*
X135473151Y-64948383D01*
X135502940Y-64922572D01*
X135510851Y-64917674D01*
X135639046Y-64800810D01*
X135662887Y-64779076D01*
X135662889Y-64779074D01*
X135786870Y-64614896D01*
X135878572Y-64430732D01*
X135934873Y-64232854D01*
X135953856Y-64028000D01*
X135934873Y-63823146D01*
X135878572Y-63625268D01*
X135874197Y-63616482D01*
X135817749Y-63503118D01*
X135786870Y-63441104D01*
X135662889Y-63276926D01*
X135662887Y-63276923D01*
X135510853Y-63138327D01*
X135510849Y-63138324D01*
X135502938Y-63133426D01*
X135456303Y-63081398D01*
X135445200Y-63012416D01*
X135473154Y-62948382D01*
X135502940Y-62922572D01*
X135510851Y-62917675D01*
X135643031Y-62797177D01*
X135662887Y-62779077D01*
X135665054Y-62776208D01*
X135786870Y-62614897D01*
X135878572Y-62430733D01*
X135934873Y-62232855D01*
X135953856Y-62028001D01*
X135934873Y-61823147D01*
X135878572Y-61625269D01*
X135870176Y-61608408D01*
X135798034Y-61463526D01*
X135786870Y-61441105D01*
X135662889Y-61276927D01*
X135662887Y-61276924D01*
X135510853Y-61138328D01*
X135502937Y-61133427D01*
X135456302Y-61081399D01*
X135445198Y-61012417D01*
X135473151Y-60948383D01*
X135502940Y-60922572D01*
X135510851Y-60917674D01*
X135633566Y-60805805D01*
X135662887Y-60779076D01*
X135662889Y-60779074D01*
X135786870Y-60614896D01*
X135878572Y-60430732D01*
X135934873Y-60232854D01*
X135953856Y-60028000D01*
X135934873Y-59823146D01*
X135878572Y-59625268D01*
X135873295Y-59614671D01*
X135831465Y-59530663D01*
X135786870Y-59441104D01*
X135662889Y-59276926D01*
X135662887Y-59276923D01*
X135510853Y-59138327D01*
X135510848Y-59138324D01*
X135502941Y-59133428D01*
X135456305Y-59081401D01*
X135445201Y-59012419D01*
X135473154Y-58948385D01*
X135502941Y-58922574D01*
X135505168Y-58921194D01*
X135510851Y-58917676D01*
X135633566Y-58805807D01*
X135662887Y-58779078D01*
X135662889Y-58779076D01*
X135786870Y-58614898D01*
X135878572Y-58430734D01*
X135934873Y-58232856D01*
X135953856Y-58028002D01*
X135934873Y-57823148D01*
X135878572Y-57625270D01*
X135873939Y-57615966D01*
X135824163Y-57516001D01*
X135786870Y-57441106D01*
X135662889Y-57276928D01*
X135662887Y-57276925D01*
X135510853Y-57138329D01*
X135502937Y-57133428D01*
X135456302Y-57081400D01*
X135445198Y-57012418D01*
X135473151Y-56948384D01*
X135502940Y-56922573D01*
X135510851Y-56917675D01*
X135662889Y-56779075D01*
X135786870Y-56614897D01*
X135878572Y-56430733D01*
X135934873Y-56232855D01*
X135953856Y-56028001D01*
X135934873Y-55823147D01*
X135878572Y-55625269D01*
X135869229Y-55606506D01*
X135812449Y-55492475D01*
X135786870Y-55441105D01*
X135665334Y-55280165D01*
X135662887Y-55276924D01*
X135510853Y-55138328D01*
X135502937Y-55133427D01*
X135456302Y-55081399D01*
X135445198Y-55012417D01*
X135473151Y-54948383D01*
X135502940Y-54922572D01*
X135510851Y-54917674D01*
X135662889Y-54779074D01*
X135786870Y-54614896D01*
X135878572Y-54430732D01*
X135934873Y-54232854D01*
X135953856Y-54028000D01*
X135934873Y-53823146D01*
X135878572Y-53625268D01*
X135864584Y-53597177D01*
X135800566Y-53468610D01*
X135786870Y-53441104D01*
X135670238Y-53286658D01*
X135662887Y-53276923D01*
X135510853Y-53138327D01*
X135510848Y-53138323D01*
X135335937Y-53030023D01*
X135335931Y-53030021D01*
X135310126Y-53020024D01*
X135144095Y-52955703D01*
X134941866Y-52917900D01*
X134736134Y-52917900D01*
X134533905Y-52955703D01*
X134429417Y-52996182D01*
X134342068Y-53030021D01*
X134342062Y-53030023D01*
X134167151Y-53138323D01*
X134167146Y-53138327D01*
X134015112Y-53276923D01*
X133891129Y-53441105D01*
X133799431Y-53625259D01*
X133799427Y-53625269D01*
X133743126Y-53823150D01*
X133724144Y-54028000D01*
X133413856Y-54028000D01*
X133394873Y-53823146D01*
X133338572Y-53625268D01*
X133324584Y-53597177D01*
X133260566Y-53468610D01*
X133246870Y-53441104D01*
X133130238Y-53286658D01*
X133122887Y-53276923D01*
X132970853Y-53138327D01*
X132970848Y-53138323D01*
X132795937Y-53030023D01*
X132795931Y-53030021D01*
X132770126Y-53020024D01*
X132604095Y-52955703D01*
X132401866Y-52917900D01*
X132196134Y-52917900D01*
X131993905Y-52955703D01*
X131889417Y-52996182D01*
X131802068Y-53030021D01*
X131802062Y-53030023D01*
X131627151Y-53138323D01*
X131627146Y-53138327D01*
X131475112Y-53276923D01*
X131351129Y-53441105D01*
X131259431Y-53625259D01*
X131259427Y-53625269D01*
X131203126Y-53823150D01*
X131184144Y-54028000D01*
X128933203Y-54028000D01*
X129066593Y-53968612D01*
X129211230Y-53863526D01*
X129213190Y-53861350D01*
X129255278Y-53814606D01*
X129330859Y-53730665D01*
X129420250Y-53575835D01*
X129475497Y-53405803D01*
X129494185Y-53228000D01*
X129475497Y-53050197D01*
X129428637Y-52905978D01*
X129420252Y-52880170D01*
X129420249Y-52880164D01*
X129417272Y-52875007D01*
X129330859Y-52725335D01*
X129276268Y-52664706D01*
X129211235Y-52592478D01*
X129211232Y-52592476D01*
X129211231Y-52592475D01*
X129211230Y-52592474D01*
X129066593Y-52487388D01*
X128903267Y-52414671D01*
X128903265Y-52414670D01*
X128740952Y-52380170D01*
X128728391Y-52377500D01*
X128549609Y-52377500D01*
X128537048Y-52380170D01*
X128374733Y-52414670D01*
X128374728Y-52414672D01*
X128211408Y-52487387D01*
X128066768Y-52592475D01*
X127947140Y-52725336D01*
X127857750Y-52880164D01*
X127857747Y-52880170D01*
X127802504Y-53050192D01*
X127802503Y-53050194D01*
X127783815Y-53228000D01*
X127802503Y-53405805D01*
X127802504Y-53405807D01*
X127857747Y-53575829D01*
X127857750Y-53575835D01*
X127947141Y-53730665D01*
X127975181Y-53761806D01*
X128066764Y-53863521D01*
X128066767Y-53863523D01*
X128066770Y-53863526D01*
X128211407Y-53968612D01*
X128264969Y-53992459D01*
X128318205Y-54037708D01*
X128338527Y-54104557D01*
X128319482Y-54171781D01*
X128267116Y-54218037D01*
X128264969Y-54219017D01*
X128111408Y-54287387D01*
X127966768Y-54392475D01*
X127847140Y-54525336D01*
X127757750Y-54680164D01*
X127757747Y-54680170D01*
X127702504Y-54850192D01*
X127702503Y-54850194D01*
X127683815Y-55028000D01*
X126678587Y-55028000D01*
X126694185Y-54879600D01*
X126675497Y-54701797D01*
X126626238Y-54550194D01*
X126620252Y-54531770D01*
X126620249Y-54531764D01*
X126616538Y-54525336D01*
X126530859Y-54376935D01*
X126462311Y-54300805D01*
X126411235Y-54244078D01*
X126411232Y-54244076D01*
X126411231Y-54244075D01*
X126411230Y-54244074D01*
X126266593Y-54138988D01*
X126103267Y-54066271D01*
X126103265Y-54066270D01*
X125970083Y-54037962D01*
X125928391Y-54029100D01*
X125749609Y-54029100D01*
X125718954Y-54035615D01*
X125574733Y-54066270D01*
X125574728Y-54066272D01*
X125411408Y-54138987D01*
X125266768Y-54244075D01*
X125147140Y-54376936D01*
X125057750Y-54531764D01*
X125057747Y-54531770D01*
X125002504Y-54701792D01*
X125002503Y-54701794D01*
X124983815Y-54879600D01*
X124449101Y-54879600D01*
X124303267Y-54814671D01*
X124303265Y-54814670D01*
X124175594Y-54787533D01*
X124128391Y-54777500D01*
X123949609Y-54777500D01*
X123918954Y-54784015D01*
X123774733Y-54814670D01*
X123774728Y-54814672D01*
X123611408Y-54887387D01*
X123466768Y-54992475D01*
X123347140Y-55125336D01*
X123257750Y-55280164D01*
X123257747Y-55280170D01*
X123202504Y-55450192D01*
X123202503Y-55450194D01*
X123183815Y-55628000D01*
X123202503Y-55805804D01*
X123202504Y-55805807D01*
X123208138Y-55823147D01*
X123211302Y-55832882D01*
X123213297Y-55902724D01*
X123177217Y-55962557D01*
X123119152Y-55992491D01*
X123014805Y-56014670D01*
X123014800Y-56014672D01*
X122851480Y-56087387D01*
X122706840Y-56192475D01*
X122587212Y-56325336D01*
X122497822Y-56480164D01*
X122497819Y-56480170D01*
X122442576Y-56650192D01*
X122442575Y-56650194D01*
X122423887Y-56828000D01*
X117767970Y-56828000D01*
X117767970Y-53450305D01*
X121061510Y-53450305D01*
X121080198Y-53628110D01*
X121080199Y-53628112D01*
X121135442Y-53798134D01*
X121135445Y-53798140D01*
X121224836Y-53952970D01*
X121261303Y-53993471D01*
X121344459Y-54085826D01*
X121344462Y-54085828D01*
X121344465Y-54085831D01*
X121489102Y-54190917D01*
X121652428Y-54263634D01*
X121827304Y-54300805D01*
X121827305Y-54300805D01*
X122006084Y-54300805D01*
X122006086Y-54300805D01*
X122180962Y-54263634D01*
X122344288Y-54190917D01*
X122406376Y-54145806D01*
X122472181Y-54122326D01*
X122540236Y-54138151D01*
X122571412Y-54163152D01*
X122616764Y-54213521D01*
X122616767Y-54213523D01*
X122616770Y-54213526D01*
X122761407Y-54318612D01*
X122924733Y-54391329D01*
X123099609Y-54428500D01*
X123099610Y-54428500D01*
X123278389Y-54428500D01*
X123278391Y-54428500D01*
X123453267Y-54391329D01*
X123616593Y-54318612D01*
X123761230Y-54213526D01*
X123880859Y-54080665D01*
X123970250Y-53925835D01*
X123970566Y-53924864D01*
X123987487Y-53872784D01*
X124025497Y-53755803D01*
X124044185Y-53578000D01*
X124025497Y-53400197D01*
X123988606Y-53286658D01*
X123970252Y-53230170D01*
X123970249Y-53230164D01*
X123968229Y-53226665D01*
X123880859Y-53075335D01*
X123831056Y-53020023D01*
X123761235Y-52942478D01*
X123761232Y-52942476D01*
X123761231Y-52942475D01*
X123761230Y-52942474D01*
X123698020Y-52896548D01*
X123655356Y-52841220D01*
X123649377Y-52771606D01*
X123681983Y-52709811D01*
X123742822Y-52675454D01*
X123745058Y-52674957D01*
X123875660Y-52647197D01*
X123903263Y-52641330D01*
X123903263Y-52641329D01*
X123903267Y-52641329D01*
X124066593Y-52568612D01*
X124211230Y-52463526D01*
X124215124Y-52459202D01*
X124256417Y-52413341D01*
X124330859Y-52330665D01*
X124420250Y-52175835D01*
X124475497Y-52005803D01*
X124494185Y-51828000D01*
X124475497Y-51650197D01*
X124434569Y-51524235D01*
X124420252Y-51480170D01*
X124420249Y-51480164D01*
X124417750Y-51475835D01*
X124330859Y-51325335D01*
X124267699Y-51255189D01*
X124211235Y-51192478D01*
X124211232Y-51192476D01*
X124211231Y-51192475D01*
X124211230Y-51192474D01*
X124066593Y-51087388D01*
X123903267Y-51014671D01*
X123903265Y-51014670D01*
X123775594Y-50987533D01*
X123728391Y-50977500D01*
X123549609Y-50977500D01*
X123518954Y-50984015D01*
X123374733Y-51014670D01*
X123374728Y-51014672D01*
X123211408Y-51087387D01*
X123066768Y-51192475D01*
X122947140Y-51325336D01*
X122857750Y-51480164D01*
X122857747Y-51480170D01*
X122802504Y-51650192D01*
X122802503Y-51650194D01*
X122783815Y-51828000D01*
X122802503Y-52005805D01*
X122802504Y-52005807D01*
X122857747Y-52175829D01*
X122857750Y-52175835D01*
X122947141Y-52330665D01*
X122979262Y-52366339D01*
X123066764Y-52463521D01*
X123066767Y-52463523D01*
X123066770Y-52463526D01*
X123129979Y-52509450D01*
X123172643Y-52564779D01*
X123178622Y-52634393D01*
X123146016Y-52696187D01*
X123085177Y-52730545D01*
X123082873Y-52731057D01*
X122924733Y-52764670D01*
X122924728Y-52764672D01*
X122761408Y-52837388D01*
X122761404Y-52837390D01*
X122699316Y-52882499D01*
X122633510Y-52905978D01*
X122565456Y-52890152D01*
X122534282Y-52865152D01*
X122488930Y-52814783D01*
X122488927Y-52814781D01*
X122488926Y-52814780D01*
X122488925Y-52814779D01*
X122344288Y-52709693D01*
X122180962Y-52636976D01*
X122180960Y-52636975D01*
X122039075Y-52606817D01*
X122006086Y-52599805D01*
X121827304Y-52599805D01*
X121796649Y-52606320D01*
X121652428Y-52636975D01*
X121652423Y-52636977D01*
X121489103Y-52709692D01*
X121344463Y-52814780D01*
X121224835Y-52947641D01*
X121135445Y-53102469D01*
X121135442Y-53102475D01*
X121080199Y-53272497D01*
X121080198Y-53272499D01*
X121061510Y-53450305D01*
X117767970Y-53450305D01*
X117767970Y-50475603D01*
X117767970Y-50475602D01*
X117726937Y-50322468D01*
X117647670Y-50185172D01*
X117535568Y-50073070D01*
X117248998Y-49786500D01*
X123142315Y-49786500D01*
X123161003Y-49964305D01*
X123161004Y-49964307D01*
X123216247Y-50134329D01*
X123216250Y-50134335D01*
X123305641Y-50289165D01*
X123347312Y-50335446D01*
X123425264Y-50422021D01*
X123425267Y-50422023D01*
X123425270Y-50422026D01*
X123569907Y-50527112D01*
X123733233Y-50599829D01*
X123908109Y-50637000D01*
X123908110Y-50637000D01*
X124086889Y-50637000D01*
X124086891Y-50637000D01*
X124261767Y-50599829D01*
X124425093Y-50527112D01*
X124569730Y-50422026D01*
X124571276Y-50420310D01*
X124617826Y-50368610D01*
X124689359Y-50289165D01*
X124778750Y-50134335D01*
X124778752Y-50134329D01*
X124784924Y-50115334D01*
X124824361Y-50057659D01*
X124888719Y-50030460D01*
X124957566Y-50042374D01*
X125009042Y-50089618D01*
X125010242Y-50091652D01*
X125084802Y-50220795D01*
X125179519Y-50325990D01*
X125209749Y-50388982D01*
X125201123Y-50458317D01*
X125160256Y-50509279D01*
X125116769Y-50540874D01*
X124997140Y-50673736D01*
X124907750Y-50828564D01*
X124907747Y-50828570D01*
X124852504Y-50998592D01*
X124852503Y-50998594D01*
X124833815Y-51176400D01*
X124852503Y-51354205D01*
X124852504Y-51354207D01*
X124907747Y-51524229D01*
X124907750Y-51524235D01*
X124997141Y-51679065D01*
X125029201Y-51714671D01*
X125116764Y-51811921D01*
X125116767Y-51811923D01*
X125116770Y-51811926D01*
X125261407Y-51917012D01*
X125424733Y-51989729D01*
X125599609Y-52026900D01*
X125599610Y-52026900D01*
X125778389Y-52026900D01*
X125778391Y-52026900D01*
X125953267Y-51989729D01*
X126116593Y-51917012D01*
X126261230Y-51811926D01*
X126380859Y-51679065D01*
X126470250Y-51524235D01*
X126525497Y-51354203D01*
X126544185Y-51176400D01*
X126525497Y-50998597D01*
X126495849Y-50907351D01*
X126470252Y-50828570D01*
X126470249Y-50828564D01*
X126380859Y-50673735D01*
X126286142Y-50568540D01*
X126255912Y-50505548D01*
X126264538Y-50436213D01*
X126305405Y-50385252D01*
X126348892Y-50353657D01*
X126360365Y-50340913D01*
X126419850Y-50304265D01*
X126489707Y-50305594D01*
X126544668Y-50340915D01*
X126549270Y-50346026D01*
X126693907Y-50451112D01*
X126857233Y-50523829D01*
X127032109Y-50561000D01*
X127032110Y-50561000D01*
X127210889Y-50561000D01*
X127210891Y-50561000D01*
X127385767Y-50523829D01*
X127549093Y-50451112D01*
X127693730Y-50346026D01*
X127784665Y-50245032D01*
X127844150Y-50208385D01*
X127914007Y-50209714D01*
X127968964Y-50245033D01*
X128066764Y-50353652D01*
X128066767Y-50353654D01*
X128066770Y-50353657D01*
X128211407Y-50458743D01*
X128374733Y-50531460D01*
X128549609Y-50568631D01*
X128549610Y-50568631D01*
X128728389Y-50568631D01*
X128728391Y-50568631D01*
X128903267Y-50531460D01*
X129066593Y-50458743D01*
X129211230Y-50353657D01*
X129330859Y-50220796D01*
X129420250Y-50065966D01*
X129475497Y-49895934D01*
X129494185Y-49718131D01*
X129475497Y-49540328D01*
X129420250Y-49370296D01*
X129330859Y-49215466D01*
X129272790Y-49150974D01*
X129211235Y-49082609D01*
X129211232Y-49082607D01*
X129211231Y-49082606D01*
X129211230Y-49082605D01*
X129066593Y-48977519D01*
X128903267Y-48904802D01*
X128903265Y-48904801D01*
X128775594Y-48877664D01*
X128728391Y-48867631D01*
X128549609Y-48867631D01*
X128518954Y-48874146D01*
X128374733Y-48904801D01*
X128374728Y-48904803D01*
X128211408Y-48977518D01*
X128066768Y-49082606D01*
X127975834Y-49183598D01*
X127916347Y-49220246D01*
X127846490Y-49218915D01*
X127791535Y-49183597D01*
X127693735Y-49074978D01*
X127693732Y-49074976D01*
X127693731Y-49074975D01*
X127693730Y-49074974D01*
X127549093Y-48969888D01*
X127385767Y-48897171D01*
X127385765Y-48897170D01*
X127246792Y-48867631D01*
X127210891Y-48860000D01*
X127032109Y-48860000D01*
X127001454Y-48866515D01*
X126857233Y-48897170D01*
X126857228Y-48897172D01*
X126693908Y-48969887D01*
X126549269Y-49074974D01*
X126537792Y-49087721D01*
X126478304Y-49124367D01*
X126408447Y-49123034D01*
X126353496Y-49087719D01*
X126348892Y-49082605D01*
X126338394Y-49074978D01*
X126224840Y-48992475D01*
X126204255Y-48977519D01*
X126040929Y-48904802D01*
X126040927Y-48904801D01*
X125913256Y-48877664D01*
X125866053Y-48867631D01*
X125687271Y-48867631D01*
X125656616Y-48874146D01*
X125512395Y-48904801D01*
X125512390Y-48904803D01*
X125349070Y-48977518D01*
X125204430Y-49082606D01*
X125084802Y-49215467D01*
X124995412Y-49370295D01*
X124995407Y-49370307D01*
X124989235Y-49389301D01*
X124949795Y-49446975D01*
X124885436Y-49474170D01*
X124816590Y-49462253D01*
X124765116Y-49415007D01*
X124763966Y-49413059D01*
X124689359Y-49283835D01*
X124681404Y-49275001D01*
X124569735Y-49150978D01*
X124569732Y-49150976D01*
X124569731Y-49150975D01*
X124569730Y-49150974D01*
X124425093Y-49045888D01*
X124261767Y-48973171D01*
X124261765Y-48973170D01*
X124134094Y-48946033D01*
X124086891Y-48936000D01*
X123908109Y-48936000D01*
X123877454Y-48942515D01*
X123733233Y-48973170D01*
X123733228Y-48973172D01*
X123569908Y-49045887D01*
X123425268Y-49150975D01*
X123305640Y-49283836D01*
X123216250Y-49438664D01*
X123216247Y-49438670D01*
X123161004Y-49608692D01*
X123161003Y-49608694D01*
X123142315Y-49786500D01*
X117248998Y-49786500D01*
X114008698Y-46546200D01*
X113608698Y-46146200D01*
X113572558Y-46125335D01*
X113572558Y-46125334D01*
X113572556Y-46125334D01*
X113547678Y-46110971D01*
X113471404Y-46066934D01*
X113471403Y-46066933D01*
X113420357Y-46053255D01*
X113318268Y-46025900D01*
X113318266Y-46025900D01*
X113035777Y-46025900D01*
X112968738Y-46006215D01*
X112922983Y-45953411D01*
X112912456Y-45888939D01*
X112922680Y-45791665D01*
X112903992Y-45613862D01*
X112854229Y-45460708D01*
X112848747Y-45443835D01*
X112848744Y-45443829D01*
X112759354Y-45289000D01*
X112712498Y-45236961D01*
X112639730Y-45156143D01*
X112639727Y-45156141D01*
X112639726Y-45156140D01*
X112639725Y-45156139D01*
X112495088Y-45051053D01*
X112331762Y-44978336D01*
X112331760Y-44978335D01*
X112204089Y-44951198D01*
X112156886Y-44941165D01*
X111978104Y-44941165D01*
X111947449Y-44947680D01*
X111803228Y-44978335D01*
X111803223Y-44978337D01*
X111639903Y-45051052D01*
X111495263Y-45156140D01*
X111375635Y-45289001D01*
X111286245Y-45443829D01*
X111286242Y-45443835D01*
X111230999Y-45613857D01*
X111230998Y-45613859D01*
X111212310Y-45791665D01*
X111222534Y-45888939D01*
X111209964Y-45957668D01*
X111162232Y-46008692D01*
X111099213Y-46025900D01*
X110690649Y-46025900D01*
X110623610Y-46006215D01*
X110577855Y-45953411D01*
X110567911Y-45884253D01*
X110583262Y-45839900D01*
X110583521Y-45839452D01*
X110620250Y-45775835D01*
X110675497Y-45605803D01*
X110694185Y-45428000D01*
X110675497Y-45250197D01*
X110620250Y-45080165D01*
X110530859Y-44925335D01*
X110465005Y-44852197D01*
X110411235Y-44792478D01*
X110411232Y-44792476D01*
X110411231Y-44792475D01*
X110411230Y-44792474D01*
X110266593Y-44687388D01*
X110103267Y-44614671D01*
X110103265Y-44614670D01*
X109975594Y-44587533D01*
X109928391Y-44577500D01*
X109749609Y-44577500D01*
X109718954Y-44584015D01*
X109574733Y-44614670D01*
X109574728Y-44614672D01*
X109411408Y-44687387D01*
X109266768Y-44792475D01*
X109147140Y-44925336D01*
X109057750Y-45080164D01*
X109057747Y-45080170D01*
X109002504Y-45250192D01*
X109002503Y-45250194D01*
X108983815Y-45428000D01*
X109002503Y-45605805D01*
X109002504Y-45605807D01*
X109057747Y-45775829D01*
X109057750Y-45775835D01*
X109147140Y-45930664D01*
X109160074Y-45945029D01*
X109190303Y-46008021D01*
X109181677Y-46077356D01*
X109160074Y-46110971D01*
X109147142Y-46125334D01*
X109147140Y-46125335D01*
X109057750Y-46280164D01*
X109057747Y-46280170D01*
X109002504Y-46450192D01*
X109002503Y-46450194D01*
X108983815Y-46628000D01*
X109002503Y-46805805D01*
X109002504Y-46805807D01*
X109057747Y-46975829D01*
X109057750Y-46975835D01*
X109147140Y-47130664D01*
X109160074Y-47145029D01*
X109190303Y-47208021D01*
X109181677Y-47277356D01*
X109160074Y-47310971D01*
X109147140Y-47325335D01*
X109057750Y-47480164D01*
X109057747Y-47480170D01*
X109002504Y-47650192D01*
X109002503Y-47650194D01*
X108983815Y-47828000D01*
X109002503Y-48005805D01*
X109002504Y-48005807D01*
X109057747Y-48175829D01*
X109057750Y-48175835D01*
X109147140Y-48330664D01*
X109160074Y-48345029D01*
X109190303Y-48408021D01*
X109181677Y-48477356D01*
X109160074Y-48510971D01*
X109147140Y-48525335D01*
X109057750Y-48680164D01*
X109057747Y-48680170D01*
X109002504Y-48850192D01*
X109002503Y-48850194D01*
X108983815Y-49028000D01*
X109002503Y-49205805D01*
X109002504Y-49205807D01*
X109057750Y-49375836D01*
X109096328Y-49442656D01*
X109112801Y-49510557D01*
X109089948Y-49576584D01*
X109081093Y-49587626D01*
X109047142Y-49625333D01*
X109047138Y-49625338D01*
X108957750Y-49780164D01*
X108957747Y-49780170D01*
X108902504Y-49950192D01*
X108902503Y-49950194D01*
X108883815Y-50128000D01*
X100232398Y-50128000D01*
X100320250Y-49975835D01*
X100375497Y-49805803D01*
X100394185Y-49628000D01*
X100375497Y-49450197D01*
X100321443Y-49283836D01*
X100320252Y-49280170D01*
X100320249Y-49280164D01*
X100230859Y-49125335D01*
X100184003Y-49073296D01*
X100111235Y-48992478D01*
X100111232Y-48992476D01*
X100111231Y-48992475D01*
X100111230Y-48992474D01*
X99966593Y-48887388D01*
X99803267Y-48814671D01*
X99803265Y-48814670D01*
X99675594Y-48787533D01*
X99628391Y-48777500D01*
X99449609Y-48777500D01*
X99418954Y-48784015D01*
X99274733Y-48814670D01*
X99274728Y-48814672D01*
X99111408Y-48887387D01*
X98966768Y-48992475D01*
X98847140Y-49125336D01*
X98757750Y-49280164D01*
X98757747Y-49280170D01*
X98702504Y-49450192D01*
X98702503Y-49450194D01*
X98683815Y-49628000D01*
X91730961Y-49628000D01*
X91713903Y-49564337D01*
X91614035Y-49350171D01*
X91567587Y-49283835D01*
X91478494Y-49156597D01*
X91311402Y-48989506D01*
X91311401Y-48989505D01*
X91125842Y-48859575D01*
X91082218Y-48804998D01*
X91075025Y-48735499D01*
X91106547Y-48673145D01*
X91125843Y-48656425D01*
X91177656Y-48620145D01*
X91311401Y-48526496D01*
X91478495Y-48359402D01*
X91614035Y-48165831D01*
X91713903Y-47951664D01*
X91775063Y-47723409D01*
X91795659Y-47488001D01*
X91781660Y-47328000D01*
X97683815Y-47328000D01*
X97702503Y-47505805D01*
X97702504Y-47505807D01*
X97757747Y-47675829D01*
X97757750Y-47675835D01*
X97847141Y-47830665D01*
X97888812Y-47876946D01*
X97966764Y-47963521D01*
X97966767Y-47963523D01*
X97966770Y-47963526D01*
X98111407Y-48068612D01*
X98274733Y-48141329D01*
X98449609Y-48178500D01*
X98449610Y-48178500D01*
X98628389Y-48178500D01*
X98628391Y-48178500D01*
X98803267Y-48141329D01*
X98966593Y-48068612D01*
X99111230Y-47963526D01*
X99230859Y-47830665D01*
X99290133Y-47728000D01*
X100483815Y-47728000D01*
X100502503Y-47905805D01*
X100502504Y-47905807D01*
X100557747Y-48075829D01*
X100557750Y-48075835D01*
X100647141Y-48230665D01*
X100688812Y-48276946D01*
X100766764Y-48363521D01*
X100766767Y-48363523D01*
X100766770Y-48363526D01*
X100911407Y-48468612D01*
X101074733Y-48541329D01*
X101249609Y-48578500D01*
X101249610Y-48578500D01*
X101428389Y-48578500D01*
X101428391Y-48578500D01*
X101603267Y-48541329D01*
X101766593Y-48468612D01*
X101911230Y-48363526D01*
X101914943Y-48359403D01*
X101940819Y-48330664D01*
X102030859Y-48230665D01*
X102120250Y-48075835D01*
X102175497Y-47905803D01*
X102194185Y-47728000D01*
X102175497Y-47550197D01*
X102120250Y-47380165D01*
X102030859Y-47225335D01*
X101984003Y-47173296D01*
X101911235Y-47092478D01*
X101911232Y-47092476D01*
X101911231Y-47092475D01*
X101911230Y-47092474D01*
X101766593Y-46987388D01*
X101603267Y-46914671D01*
X101603265Y-46914670D01*
X101475594Y-46887533D01*
X101428391Y-46877500D01*
X101249609Y-46877500D01*
X101218954Y-46884015D01*
X101074733Y-46914670D01*
X101074728Y-46914672D01*
X100911408Y-46987387D01*
X100766768Y-47092475D01*
X100647140Y-47225336D01*
X100557750Y-47380164D01*
X100557747Y-47380170D01*
X100502504Y-47550192D01*
X100502503Y-47550194D01*
X100483815Y-47728000D01*
X99290133Y-47728000D01*
X99320250Y-47675835D01*
X99375497Y-47505803D01*
X99394185Y-47328000D01*
X99375497Y-47150197D01*
X99347514Y-47064075D01*
X99320252Y-46980170D01*
X99320249Y-46980164D01*
X99317750Y-46975835D01*
X99230859Y-46825335D01*
X99184003Y-46773296D01*
X99111235Y-46692478D01*
X99111232Y-46692476D01*
X99111231Y-46692475D01*
X99111230Y-46692474D01*
X98966593Y-46587388D01*
X98803267Y-46514671D01*
X98803265Y-46514670D01*
X98658985Y-46484003D01*
X98628391Y-46477500D01*
X98449609Y-46477500D01*
X98419015Y-46484003D01*
X98274733Y-46514670D01*
X98274728Y-46514672D01*
X98111408Y-46587387D01*
X97966768Y-46692475D01*
X97847140Y-46825336D01*
X97757750Y-46980164D01*
X97757747Y-46980170D01*
X97702504Y-47150192D01*
X97702503Y-47150194D01*
X97683815Y-47328000D01*
X91781660Y-47328000D01*
X91775063Y-47252593D01*
X91713903Y-47024338D01*
X91614035Y-46810172D01*
X91610978Y-46805805D01*
X91478494Y-46616598D01*
X91311402Y-46449507D01*
X91311395Y-46449502D01*
X91297616Y-46439854D01*
X91272521Y-46422282D01*
X91117834Y-46313968D01*
X91117830Y-46313966D01*
X91117828Y-46313965D01*
X90903663Y-46214098D01*
X90903659Y-46214097D01*
X90903655Y-46214095D01*
X90675413Y-46152939D01*
X90675403Y-46152937D01*
X90440001Y-46132342D01*
X90439999Y-46132342D01*
X90204596Y-46152937D01*
X90204586Y-46152939D01*
X89976344Y-46214095D01*
X89976335Y-46214099D01*
X89762171Y-46313965D01*
X89762169Y-46313966D01*
X89568597Y-46449506D01*
X89401505Y-46616598D01*
X89265965Y-46810170D01*
X89265964Y-46810172D01*
X89166098Y-47024336D01*
X89166094Y-47024345D01*
X89104938Y-47252587D01*
X89104936Y-47252597D01*
X89084341Y-47488000D01*
X69851115Y-47488000D01*
X69835666Y-47311417D01*
X69835664Y-47311407D01*
X69778878Y-47099475D01*
X69778874Y-47099466D01*
X69686144Y-46900605D01*
X69686142Y-46900601D01*
X69641996Y-46837555D01*
X69078962Y-47400589D01*
X69061925Y-47337007D01*
X68996099Y-47222993D01*
X68903007Y-47129901D01*
X68788993Y-47064075D01*
X68725409Y-47047037D01*
X69288443Y-46484003D01*
X69225392Y-46439854D01*
X69124178Y-46392657D01*
X69071739Y-46346484D01*
X69052587Y-46279291D01*
X69072803Y-46212410D01*
X69124175Y-46167895D01*
X69225646Y-46120579D01*
X69405457Y-45994674D01*
X69560674Y-45839457D01*
X69686579Y-45659646D01*
X69779347Y-45460703D01*
X69836161Y-45248674D01*
X69855292Y-45030000D01*
X87298815Y-45030000D01*
X87317503Y-45207805D01*
X87317504Y-45207807D01*
X87372747Y-45377829D01*
X87372750Y-45377835D01*
X87462141Y-45532665D01*
X87503812Y-45578946D01*
X87581764Y-45665521D01*
X87581767Y-45665523D01*
X87581770Y-45665526D01*
X87726407Y-45770612D01*
X87889733Y-45843329D01*
X88064609Y-45880500D01*
X88064610Y-45880500D01*
X88243389Y-45880500D01*
X88243391Y-45880500D01*
X88418267Y-45843329D01*
X88581593Y-45770612D01*
X88726230Y-45665526D01*
X88731525Y-45659646D01*
X88752148Y-45636741D01*
X88845859Y-45532665D01*
X88935250Y-45377835D01*
X88990497Y-45207803D01*
X89009185Y-45030000D01*
X88990497Y-44852197D01*
X88962873Y-44767181D01*
X88935252Y-44682170D01*
X88935249Y-44682164D01*
X88845859Y-44527335D01*
X88799003Y-44475296D01*
X88726235Y-44394478D01*
X88726232Y-44394476D01*
X88726231Y-44394475D01*
X88726230Y-44394474D01*
X88581593Y-44289388D01*
X88418267Y-44216671D01*
X88418265Y-44216670D01*
X88290594Y-44189533D01*
X88243391Y-44179500D01*
X88064609Y-44179500D01*
X88033954Y-44186015D01*
X87889733Y-44216670D01*
X87889728Y-44216672D01*
X87726408Y-44289387D01*
X87581768Y-44394475D01*
X87462140Y-44527336D01*
X87372750Y-44682164D01*
X87372747Y-44682170D01*
X87317504Y-44852192D01*
X87317503Y-44852194D01*
X87298815Y-45030000D01*
X69855292Y-45030000D01*
X69836161Y-44811326D01*
X69779347Y-44599297D01*
X69686579Y-44400354D01*
X69686577Y-44400351D01*
X69686576Y-44400349D01*
X69560677Y-44220547D01*
X69560672Y-44220541D01*
X69405458Y-44065327D01*
X69405452Y-44065322D01*
X69225650Y-43939423D01*
X69225642Y-43939419D01*
X69124772Y-43892383D01*
X69072332Y-43846211D01*
X69053180Y-43779018D01*
X69073395Y-43712136D01*
X69124772Y-43667619D01*
X69125702Y-43667185D01*
X69225646Y-43620581D01*
X69405457Y-43494676D01*
X69560674Y-43339459D01*
X69686579Y-43159648D01*
X69779347Y-42960705D01*
X69836161Y-42748676D01*
X69855292Y-42530002D01*
X69848293Y-42450000D01*
X84504815Y-42450000D01*
X84523503Y-42627805D01*
X84523504Y-42627807D01*
X84578747Y-42797829D01*
X84578750Y-42797835D01*
X84668141Y-42952665D01*
X84675385Y-42960710D01*
X84787764Y-43085521D01*
X84787767Y-43085523D01*
X84787770Y-43085526D01*
X84932407Y-43190612D01*
X85095733Y-43263329D01*
X85270609Y-43300500D01*
X85270610Y-43300500D01*
X85449389Y-43300500D01*
X85449391Y-43300500D01*
X85624267Y-43263329D01*
X85787593Y-43190612D01*
X85932230Y-43085526D01*
X86051859Y-42952665D01*
X86141250Y-42797835D01*
X86196497Y-42627803D01*
X86215185Y-42450000D01*
X86196497Y-42272197D01*
X86141250Y-42102165D01*
X86051859Y-41947335D01*
X86005003Y-41895296D01*
X85932235Y-41814478D01*
X85932232Y-41814476D01*
X85932231Y-41814475D01*
X85932230Y-41814474D01*
X85787593Y-41709388D01*
X85624267Y-41636671D01*
X85624265Y-41636670D01*
X85496594Y-41609533D01*
X85449391Y-41599500D01*
X85270609Y-41599500D01*
X85239954Y-41606015D01*
X85095733Y-41636670D01*
X85095728Y-41636672D01*
X84932408Y-41709387D01*
X84787768Y-41814475D01*
X84668140Y-41947336D01*
X84578750Y-42102164D01*
X84578747Y-42102170D01*
X84523504Y-42272192D01*
X84523503Y-42272194D01*
X84504815Y-42450000D01*
X69848293Y-42450000D01*
X69836161Y-42311328D01*
X69779347Y-42099299D01*
X69686579Y-41900356D01*
X69686577Y-41900353D01*
X69686576Y-41900351D01*
X69560677Y-41720549D01*
X69560672Y-41720543D01*
X69405458Y-41565329D01*
X69405452Y-41565324D01*
X69326549Y-41510076D01*
X69282924Y-41455499D01*
X69275730Y-41386001D01*
X69307253Y-41323646D01*
X69367482Y-41288232D01*
X69394573Y-41284883D01*
X69394571Y-41284856D01*
X69394573Y-41284855D01*
X69394564Y-41284678D01*
X69397520Y-41284519D01*
X69397672Y-41284501D01*
X69397871Y-41284501D01*
X69397872Y-41284501D01*
X69457483Y-41278093D01*
X69592331Y-41227798D01*
X69707546Y-41141548D01*
X69793796Y-41026333D01*
X69844091Y-40891485D01*
X69850500Y-40831875D01*
X69850499Y-39228130D01*
X69844091Y-39168519D01*
X69819680Y-39103071D01*
X69793797Y-39033673D01*
X69793793Y-39033666D01*
X69707547Y-38918457D01*
X69707544Y-38918454D01*
X69592335Y-38832208D01*
X69592328Y-38832204D01*
X69457482Y-38781910D01*
X69457483Y-38781910D01*
X69397883Y-38775503D01*
X69397881Y-38775502D01*
X69397873Y-38775502D01*
X69397864Y-38775502D01*
X67794129Y-38775502D01*
X67794123Y-38775503D01*
X67734516Y-38781910D01*
X67599671Y-38832204D01*
X67599664Y-38832208D01*
X67484455Y-38918454D01*
X67484452Y-38918457D01*
X67398206Y-39033666D01*
X67398202Y-39033673D01*
X67347908Y-39168519D01*
X67342462Y-39219179D01*
X67341501Y-39228125D01*
X67341500Y-39228137D01*
X67341500Y-40831872D01*
X67341501Y-40831878D01*
X67347908Y-40891485D01*
X67398202Y-41026330D01*
X67398206Y-41026337D01*
X67484452Y-41141546D01*
X67484455Y-41141549D01*
X67599664Y-41227795D01*
X67599671Y-41227799D01*
X67644618Y-41244563D01*
X67734517Y-41278093D01*
X67794127Y-41284502D01*
X67794294Y-41284501D01*
X67794329Y-41284512D01*
X67797453Y-41284680D01*
X67797413Y-41285416D01*
X67861336Y-41304167D01*
X67907106Y-41356957D01*
X67917069Y-41426113D01*
X67888062Y-41489677D01*
X67865450Y-41510075D01*
X67786550Y-41565321D01*
X67786541Y-41565329D01*
X67631327Y-41720543D01*
X67631322Y-41720549D01*
X67505423Y-41900351D01*
X67505419Y-41900359D01*
X67412655Y-42099293D01*
X67412653Y-42099297D01*
X67412653Y-42099299D01*
X67411885Y-42102165D01*
X67355839Y-42311326D01*
X67355838Y-42311333D01*
X67336708Y-42529999D01*
X65270500Y-42529999D01*
X65270500Y-37226305D01*
X94193771Y-37226305D01*
X94193771Y-37226306D01*
X94213838Y-37442877D01*
X94213839Y-37442880D01*
X94273358Y-37652071D01*
X94273361Y-37652076D01*
X94370309Y-37846774D01*
X94501382Y-38020343D01*
X94662117Y-38166871D01*
X94847039Y-38281371D01*
X95051757Y-38360679D01*
X95107158Y-38403252D01*
X95130749Y-38469019D01*
X95115038Y-38537099D01*
X95065014Y-38585878D01*
X95051757Y-38591933D01*
X94847039Y-38671240D01*
X94847038Y-38671241D01*
X94662121Y-38785738D01*
X94662119Y-38785739D01*
X94662117Y-38785741D01*
X94516534Y-38918456D01*
X94501381Y-38932270D01*
X94370309Y-39105837D01*
X94273361Y-39300534D01*
X94273358Y-39300540D01*
X94213839Y-39509731D01*
X94213838Y-39509734D01*
X94193771Y-39726305D01*
X94193771Y-39726306D01*
X94213838Y-39942877D01*
X94213839Y-39942880D01*
X94273358Y-40152071D01*
X94273361Y-40152077D01*
X94328604Y-40263020D01*
X94370309Y-40346774D01*
X94501382Y-40520343D01*
X94662117Y-40666871D01*
X94847039Y-40781371D01*
X95049852Y-40859941D01*
X95263649Y-40899906D01*
X95263652Y-40899906D01*
X95481146Y-40899906D01*
X95481149Y-40899906D01*
X95694946Y-40859941D01*
X95897759Y-40781371D01*
X96082681Y-40666871D01*
X96243416Y-40520343D01*
X96273444Y-40480578D01*
X96329552Y-40438942D01*
X96399264Y-40434249D01*
X96460446Y-40467991D01*
X96471353Y-40480577D01*
X96501383Y-40520343D01*
X96662118Y-40666871D01*
X96847040Y-40781371D01*
X97049853Y-40859941D01*
X97263650Y-40899906D01*
X97263653Y-40899906D01*
X97481147Y-40899906D01*
X97481150Y-40899906D01*
X97694947Y-40859941D01*
X97897760Y-40781371D01*
X98082682Y-40666871D01*
X98243417Y-40520343D01*
X98273445Y-40480578D01*
X98329553Y-40438942D01*
X98399265Y-40434250D01*
X98460447Y-40467992D01*
X98471351Y-40480577D01*
X98501381Y-40520343D01*
X98662116Y-40666871D01*
X98847038Y-40781371D01*
X99049851Y-40859941D01*
X99263648Y-40899906D01*
X99263651Y-40899906D01*
X99481145Y-40899906D01*
X99481148Y-40899906D01*
X99694945Y-40859941D01*
X99897758Y-40781371D01*
X100082680Y-40666871D01*
X100243415Y-40520343D01*
X100273445Y-40480575D01*
X100329553Y-40438941D01*
X100399265Y-40434248D01*
X100460447Y-40467990D01*
X100471347Y-40480569D01*
X100501383Y-40520343D01*
X100662118Y-40666871D01*
X100847040Y-40781371D01*
X101049853Y-40859941D01*
X101263650Y-40899906D01*
X101263653Y-40899906D01*
X101481147Y-40899906D01*
X101481150Y-40899906D01*
X101694947Y-40859941D01*
X101897760Y-40781371D01*
X102082682Y-40666871D01*
X102243417Y-40520343D01*
X102273445Y-40480578D01*
X102329553Y-40438942D01*
X102399265Y-40434250D01*
X102460447Y-40467992D01*
X102471351Y-40480577D01*
X102501381Y-40520343D01*
X102662116Y-40666871D01*
X102847038Y-40781371D01*
X103049851Y-40859941D01*
X103263648Y-40899906D01*
X103263651Y-40899906D01*
X103481145Y-40899906D01*
X103481148Y-40899906D01*
X103694945Y-40859941D01*
X103897758Y-40781371D01*
X104082680Y-40666871D01*
X104243415Y-40520343D01*
X104273443Y-40480578D01*
X104329551Y-40438942D01*
X104399263Y-40434249D01*
X104460445Y-40467991D01*
X104471352Y-40480577D01*
X104501382Y-40520343D01*
X104662117Y-40666871D01*
X104847039Y-40781371D01*
X105049852Y-40859941D01*
X105263649Y-40899906D01*
X105263652Y-40899906D01*
X105481146Y-40899906D01*
X105481149Y-40899906D01*
X105694946Y-40859941D01*
X105897759Y-40781371D01*
X106082681Y-40666871D01*
X106243416Y-40520343D01*
X106273444Y-40480578D01*
X106329552Y-40438942D01*
X106399264Y-40434249D01*
X106460446Y-40467991D01*
X106471353Y-40480577D01*
X106501383Y-40520343D01*
X106662118Y-40666871D01*
X106847040Y-40781371D01*
X107049853Y-40859941D01*
X107263650Y-40899906D01*
X107263653Y-40899906D01*
X107481147Y-40899906D01*
X107481150Y-40899906D01*
X107694947Y-40859941D01*
X107897760Y-40781371D01*
X108082682Y-40666871D01*
X108243417Y-40520343D01*
X108273446Y-40480577D01*
X108329551Y-40438943D01*
X108399263Y-40434250D01*
X108460445Y-40467991D01*
X108471351Y-40480577D01*
X108495515Y-40512574D01*
X108501382Y-40520343D01*
X108662117Y-40666871D01*
X108847039Y-40781371D01*
X109049852Y-40859941D01*
X109263649Y-40899906D01*
X109263652Y-40899906D01*
X109481146Y-40899906D01*
X109481149Y-40899906D01*
X109694946Y-40859941D01*
X109897759Y-40781371D01*
X110082681Y-40666871D01*
X110243416Y-40520343D01*
X110273444Y-40480578D01*
X110329552Y-40438942D01*
X110399264Y-40434249D01*
X110460446Y-40467991D01*
X110471353Y-40480577D01*
X110501383Y-40520343D01*
X110662118Y-40666871D01*
X110847040Y-40781371D01*
X111049853Y-40859941D01*
X111263650Y-40899906D01*
X111263653Y-40899906D01*
X111481147Y-40899906D01*
X111481150Y-40899906D01*
X111694947Y-40859941D01*
X111897760Y-40781371D01*
X112082682Y-40666871D01*
X112243417Y-40520343D01*
X112273445Y-40480578D01*
X112329553Y-40438942D01*
X112399265Y-40434250D01*
X112460447Y-40467992D01*
X112471351Y-40480577D01*
X112501381Y-40520343D01*
X112662116Y-40666871D01*
X112847038Y-40781371D01*
X113049851Y-40859941D01*
X113263648Y-40899906D01*
X113263651Y-40899906D01*
X113481145Y-40899906D01*
X113481148Y-40899906D01*
X113694945Y-40859941D01*
X113897758Y-40781371D01*
X114082680Y-40666871D01*
X114243415Y-40520343D01*
X114273443Y-40480578D01*
X114329551Y-40438942D01*
X114399263Y-40434249D01*
X114460445Y-40467991D01*
X114471352Y-40480577D01*
X114501382Y-40520343D01*
X114662117Y-40666871D01*
X114847039Y-40781371D01*
X115049852Y-40859941D01*
X115263649Y-40899906D01*
X115263652Y-40899906D01*
X115481146Y-40899906D01*
X115481149Y-40899906D01*
X115694946Y-40859941D01*
X115897759Y-40781371D01*
X116082681Y-40666871D01*
X116243416Y-40520343D01*
X116323184Y-40414712D01*
X116351299Y-40393849D01*
X116955489Y-39789660D01*
X116981859Y-39888072D01*
X117037035Y-39983639D01*
X117115065Y-40061669D01*
X117210632Y-40116845D01*
X117309043Y-40143214D01*
X116738609Y-40713646D01*
X116738610Y-40713647D01*
X116847258Y-40780919D01*
X116847264Y-40780922D01*
X117049986Y-40859456D01*
X117263696Y-40899406D01*
X117481100Y-40899406D01*
X117694809Y-40859456D01*
X117897533Y-40780921D01*
X117897535Y-40780920D01*
X118006185Y-40713646D01*
X117435753Y-40143214D01*
X117534164Y-40116845D01*
X117629731Y-40061669D01*
X117707761Y-39983639D01*
X117762937Y-39888072D01*
X117789306Y-39789660D01*
X118362054Y-40362408D01*
X118374059Y-40346511D01*
X118470966Y-40151897D01*
X118530464Y-39942781D01*
X118550524Y-39726306D01*
X118550524Y-39726305D01*
X118530464Y-39509830D01*
X118470966Y-39300714D01*
X118374064Y-39106109D01*
X118374056Y-39106096D01*
X118362053Y-39090202D01*
X117789306Y-39662950D01*
X117762937Y-39564540D01*
X117707761Y-39468973D01*
X117629731Y-39390943D01*
X117534164Y-39335767D01*
X117435753Y-39309397D01*
X117717152Y-39027998D01*
X125584928Y-39027998D01*
X125584928Y-39028001D01*
X125603979Y-39245761D01*
X125603981Y-39245771D01*
X125660555Y-39456910D01*
X125660559Y-39456919D01*
X125752944Y-39655039D01*
X125796376Y-39717068D01*
X125796377Y-39717069D01*
X126359874Y-39153572D01*
X126377454Y-39219179D01*
X126442661Y-39332121D01*
X126534879Y-39424339D01*
X126647821Y-39489546D01*
X126713427Y-39507125D01*
X126149929Y-40070621D01*
X126149930Y-40070622D01*
X126211960Y-40114055D01*
X126410080Y-40206440D01*
X126410089Y-40206444D01*
X126621228Y-40263018D01*
X126621238Y-40263020D01*
X126838998Y-40282072D01*
X126839002Y-40282072D01*
X127056761Y-40263020D01*
X127056771Y-40263018D01*
X127267910Y-40206444D01*
X127267919Y-40206440D01*
X127466035Y-40114057D01*
X127528069Y-40070621D01*
X126964573Y-39507125D01*
X127030179Y-39489546D01*
X127143121Y-39424339D01*
X127235339Y-39332121D01*
X127300546Y-39219179D01*
X127318125Y-39153573D01*
X127881621Y-39717069D01*
X127925056Y-39655037D01*
X127976340Y-39545057D01*
X128022512Y-39492618D01*
X128089706Y-39473465D01*
X128156587Y-39493680D01*
X128201105Y-39545056D01*
X128252506Y-39655286D01*
X128252507Y-39655287D01*
X128377941Y-39834425D01*
X128532575Y-39989059D01*
X128711713Y-40114493D01*
X128909910Y-40206914D01*
X129121146Y-40263514D01*
X129295429Y-40278762D01*
X129338999Y-40282574D01*
X129339000Y-40282574D01*
X129339001Y-40282574D01*
X129375309Y-40279397D01*
X129556854Y-40263514D01*
X129768090Y-40206914D01*
X129966287Y-40114493D01*
X130145425Y-39989059D01*
X130300059Y-39834425D01*
X130425493Y-39655287D01*
X130476618Y-39545648D01*
X130522790Y-39493209D01*
X130589984Y-39474057D01*
X130656865Y-39494273D01*
X130701381Y-39545648D01*
X130752507Y-39655287D01*
X130877941Y-39834425D01*
X131032575Y-39989059D01*
X131211713Y-40114493D01*
X131409910Y-40206914D01*
X131621146Y-40263514D01*
X131795429Y-40278762D01*
X131838999Y-40282574D01*
X131839000Y-40282574D01*
X131839001Y-40282574D01*
X131875309Y-40279397D01*
X132056854Y-40263514D01*
X132268090Y-40206914D01*
X132466287Y-40114493D01*
X132645425Y-39989059D01*
X132800059Y-39834425D01*
X132925493Y-39655287D01*
X133017914Y-39457090D01*
X133074514Y-39245854D01*
X133093574Y-39028000D01*
X133074514Y-38810146D01*
X133017914Y-38598910D01*
X132925493Y-38400713D01*
X132800059Y-38221575D01*
X132645425Y-38066941D01*
X132502114Y-37966593D01*
X132466286Y-37941506D01*
X132367188Y-37895296D01*
X132268090Y-37849086D01*
X132268086Y-37849085D01*
X132268082Y-37849083D01*
X132056859Y-37792487D01*
X132056849Y-37792485D01*
X131839001Y-37773426D01*
X131838999Y-37773426D01*
X131621150Y-37792485D01*
X131621140Y-37792487D01*
X131409917Y-37849083D01*
X131409910Y-37849085D01*
X131409910Y-37849086D01*
X131408932Y-37849542D01*
X131211713Y-37941506D01*
X131099125Y-38020342D01*
X131032575Y-38066941D01*
X131032573Y-38066942D01*
X131032570Y-38066945D01*
X130877945Y-38221570D01*
X130752506Y-38400713D01*
X130701382Y-38510351D01*
X130655210Y-38562790D01*
X130588016Y-38581942D01*
X130521135Y-38561726D01*
X130476618Y-38510351D01*
X130425493Y-38400713D01*
X130401888Y-38367002D01*
X130300059Y-38221575D01*
X130145425Y-38066941D01*
X130002114Y-37966593D01*
X129966286Y-37941506D01*
X129867188Y-37895296D01*
X129768090Y-37849086D01*
X129768086Y-37849085D01*
X129768082Y-37849083D01*
X129556859Y-37792487D01*
X129556849Y-37792485D01*
X129339001Y-37773426D01*
X129338999Y-37773426D01*
X129121150Y-37792485D01*
X129121140Y-37792487D01*
X128909917Y-37849083D01*
X128909910Y-37849085D01*
X128909910Y-37849086D01*
X128908932Y-37849542D01*
X128711713Y-37941506D01*
X128599125Y-38020342D01*
X128532575Y-38066941D01*
X128532573Y-38066942D01*
X128532570Y-38066945D01*
X128377945Y-38221570D01*
X128377942Y-38221573D01*
X128377941Y-38221575D01*
X128308354Y-38320954D01*
X128252508Y-38400711D01*
X128201105Y-38510944D01*
X128154932Y-38563383D01*
X128087738Y-38582534D01*
X128020857Y-38562318D01*
X127976341Y-38510942D01*
X127925057Y-38400962D01*
X127925056Y-38400961D01*
X127881622Y-38338930D01*
X127881621Y-38338929D01*
X127318124Y-38902426D01*
X127300546Y-38836821D01*
X127235339Y-38723879D01*
X127143121Y-38631661D01*
X127030179Y-38566454D01*
X126964572Y-38548874D01*
X127528069Y-37985377D01*
X127528068Y-37985376D01*
X127466039Y-37941944D01*
X127267919Y-37849559D01*
X127267910Y-37849555D01*
X127056771Y-37792981D01*
X127056761Y-37792979D01*
X126839002Y-37773928D01*
X126838998Y-37773928D01*
X126621238Y-37792979D01*
X126621228Y-37792981D01*
X126410089Y-37849555D01*
X126410080Y-37849559D01*
X126211964Y-37941942D01*
X126149930Y-37985377D01*
X126713428Y-38548874D01*
X126647821Y-38566454D01*
X126534879Y-38631661D01*
X126442661Y-38723879D01*
X126377454Y-38836821D01*
X126359874Y-38902427D01*
X125796377Y-38338930D01*
X125752942Y-38400964D01*
X125660559Y-38599080D01*
X125660555Y-38599089D01*
X125603981Y-38810228D01*
X125603979Y-38810238D01*
X125584928Y-39027998D01*
X117717152Y-39027998D01*
X118006185Y-38738964D01*
X118006184Y-38738963D01*
X117897537Y-38671693D01*
X117897531Y-38671689D01*
X117692347Y-38592201D01*
X117636945Y-38549628D01*
X117613355Y-38483861D01*
X117629066Y-38415781D01*
X117679090Y-38367002D01*
X117692347Y-38360947D01*
X117694942Y-38359941D01*
X117694945Y-38359941D01*
X117897758Y-38281371D01*
X118082680Y-38166871D01*
X118243415Y-38020343D01*
X118374488Y-37846774D01*
X118471436Y-37652076D01*
X118471436Y-37652073D01*
X118471438Y-37652071D01*
X118530957Y-37442880D01*
X118530958Y-37442877D01*
X118551026Y-37226306D01*
X118551026Y-37226305D01*
X118530958Y-37009734D01*
X118530957Y-37009731D01*
X118471438Y-36800540D01*
X118471435Y-36800534D01*
X118374488Y-36605838D01*
X118243415Y-36432269D01*
X118082680Y-36285741D01*
X117897758Y-36171241D01*
X117897757Y-36171240D01*
X117694948Y-36092672D01*
X117694947Y-36092671D01*
X117694945Y-36092671D01*
X117481148Y-36052706D01*
X117263648Y-36052706D01*
X117049851Y-36092671D01*
X117049849Y-36092671D01*
X117049847Y-36092672D01*
X116847038Y-36171240D01*
X116847037Y-36171241D01*
X116662120Y-36285738D01*
X116662118Y-36285739D01*
X116662116Y-36285741D01*
X116501381Y-36432269D01*
X116501379Y-36432271D01*
X116471351Y-36472034D01*
X116415242Y-36513669D01*
X116345530Y-36518360D01*
X116284348Y-36484617D01*
X116273444Y-36472032D01*
X116243419Y-36432272D01*
X116243416Y-36432269D01*
X116082681Y-36285741D01*
X115897759Y-36171241D01*
X115897758Y-36171240D01*
X115694949Y-36092672D01*
X115694948Y-36092671D01*
X115694946Y-36092671D01*
X115481149Y-36052706D01*
X115263649Y-36052706D01*
X115049852Y-36092671D01*
X115049850Y-36092671D01*
X115049848Y-36092672D01*
X114847039Y-36171240D01*
X114847038Y-36171241D01*
X114662121Y-36285738D01*
X114662119Y-36285739D01*
X114662117Y-36285741D01*
X114501382Y-36432269D01*
X114501380Y-36432271D01*
X114471351Y-36472035D01*
X114415242Y-36513670D01*
X114345530Y-36518361D01*
X114284348Y-36484618D01*
X114273444Y-36472034D01*
X114243417Y-36432272D01*
X114243415Y-36432269D01*
X114082680Y-36285741D01*
X113897758Y-36171241D01*
X113897757Y-36171240D01*
X113694948Y-36092672D01*
X113694947Y-36092671D01*
X113694945Y-36092671D01*
X113481148Y-36052706D01*
X113263648Y-36052706D01*
X113049851Y-36092671D01*
X113049849Y-36092671D01*
X113049847Y-36092672D01*
X112847038Y-36171240D01*
X112847037Y-36171241D01*
X112662120Y-36285738D01*
X112662118Y-36285739D01*
X112662116Y-36285741D01*
X112591416Y-36350191D01*
X112501379Y-36432270D01*
X112471353Y-36472032D01*
X112415243Y-36513668D01*
X112345531Y-36518359D01*
X112284350Y-36484617D01*
X112273445Y-36472032D01*
X112243418Y-36432270D01*
X112243417Y-36432269D01*
X112082682Y-36285741D01*
X111897760Y-36171241D01*
X111897759Y-36171240D01*
X111694950Y-36092672D01*
X111694949Y-36092671D01*
X111694947Y-36092671D01*
X111481150Y-36052706D01*
X111263650Y-36052706D01*
X111049853Y-36092671D01*
X111049851Y-36092671D01*
X111049849Y-36092672D01*
X110847040Y-36171240D01*
X110847039Y-36171241D01*
X110662122Y-36285738D01*
X110662120Y-36285739D01*
X110662118Y-36285741D01*
X110501383Y-36432269D01*
X110501381Y-36432271D01*
X110471352Y-36472035D01*
X110415243Y-36513670D01*
X110345531Y-36518361D01*
X110284349Y-36484618D01*
X110273445Y-36472034D01*
X110243418Y-36432272D01*
X110243416Y-36432269D01*
X110082681Y-36285741D01*
X109897759Y-36171241D01*
X109897758Y-36171240D01*
X109694949Y-36092672D01*
X109694948Y-36092671D01*
X109694946Y-36092671D01*
X109481149Y-36052706D01*
X109263649Y-36052706D01*
X109049852Y-36092671D01*
X109049850Y-36092671D01*
X109049848Y-36092672D01*
X108847039Y-36171240D01*
X108847038Y-36171241D01*
X108662121Y-36285738D01*
X108662119Y-36285739D01*
X108662117Y-36285741D01*
X108501382Y-36432269D01*
X108501380Y-36432271D01*
X108471352Y-36472034D01*
X108415243Y-36513669D01*
X108345531Y-36518360D01*
X108284349Y-36484617D01*
X108273445Y-36472032D01*
X108243420Y-36432272D01*
X108243417Y-36432269D01*
X108082682Y-36285741D01*
X107897760Y-36171241D01*
X107897759Y-36171240D01*
X107694950Y-36092672D01*
X107694949Y-36092671D01*
X107694947Y-36092671D01*
X107481150Y-36052706D01*
X107263650Y-36052706D01*
X107049853Y-36092671D01*
X107049851Y-36092671D01*
X107049849Y-36092672D01*
X106847040Y-36171240D01*
X106847039Y-36171241D01*
X106662122Y-36285738D01*
X106662120Y-36285739D01*
X106662118Y-36285741D01*
X106501383Y-36432269D01*
X106501381Y-36432271D01*
X106471352Y-36472035D01*
X106415243Y-36513670D01*
X106345531Y-36518361D01*
X106284349Y-36484618D01*
X106273445Y-36472034D01*
X106243418Y-36432272D01*
X106243416Y-36432269D01*
X106082681Y-36285741D01*
X105897759Y-36171241D01*
X105897758Y-36171240D01*
X105694949Y-36092672D01*
X105694948Y-36092671D01*
X105694946Y-36092671D01*
X105481149Y-36052706D01*
X105263649Y-36052706D01*
X105049852Y-36092671D01*
X105049850Y-36092671D01*
X105049848Y-36092672D01*
X104847039Y-36171240D01*
X104847038Y-36171241D01*
X104662121Y-36285738D01*
X104662119Y-36285739D01*
X104662117Y-36285741D01*
X104501382Y-36432269D01*
X104501380Y-36432271D01*
X104471351Y-36472035D01*
X104415242Y-36513670D01*
X104345530Y-36518361D01*
X104284348Y-36484618D01*
X104273444Y-36472034D01*
X104243417Y-36432272D01*
X104243415Y-36432269D01*
X104082680Y-36285741D01*
X103897758Y-36171241D01*
X103897757Y-36171240D01*
X103694948Y-36092672D01*
X103694947Y-36092671D01*
X103694945Y-36092671D01*
X103481148Y-36052706D01*
X103263648Y-36052706D01*
X103049851Y-36092671D01*
X103049849Y-36092671D01*
X103049847Y-36092672D01*
X102847038Y-36171240D01*
X102847037Y-36171241D01*
X102662120Y-36285738D01*
X102662118Y-36285739D01*
X102662116Y-36285741D01*
X102591416Y-36350191D01*
X102501379Y-36432270D01*
X102471353Y-36472032D01*
X102415243Y-36513668D01*
X102345531Y-36518359D01*
X102284350Y-36484617D01*
X102273445Y-36472032D01*
X102243418Y-36432270D01*
X102243417Y-36432269D01*
X102082682Y-36285741D01*
X101897760Y-36171241D01*
X101897759Y-36171240D01*
X101694950Y-36092672D01*
X101694949Y-36092671D01*
X101694947Y-36092671D01*
X101481150Y-36052706D01*
X101263650Y-36052706D01*
X101049853Y-36092671D01*
X101049851Y-36092671D01*
X101049849Y-36092672D01*
X100847040Y-36171240D01*
X100847039Y-36171241D01*
X100662122Y-36285738D01*
X100662120Y-36285739D01*
X100662118Y-36285741D01*
X100501383Y-36432269D01*
X100501382Y-36432270D01*
X100471353Y-36472035D01*
X100415244Y-36513671D01*
X100345532Y-36518362D01*
X100284350Y-36484620D01*
X100273445Y-36472035D01*
X100243417Y-36432272D01*
X100243415Y-36432269D01*
X100082680Y-36285741D01*
X99897758Y-36171241D01*
X99897757Y-36171240D01*
X99694948Y-36092672D01*
X99694947Y-36092671D01*
X99694945Y-36092671D01*
X99481148Y-36052706D01*
X99263648Y-36052706D01*
X99049851Y-36092671D01*
X99049849Y-36092671D01*
X99049847Y-36092672D01*
X98847038Y-36171240D01*
X98847037Y-36171241D01*
X98662120Y-36285738D01*
X98662118Y-36285739D01*
X98662116Y-36285741D01*
X98591416Y-36350191D01*
X98501379Y-36432270D01*
X98471353Y-36472032D01*
X98415243Y-36513668D01*
X98345531Y-36518359D01*
X98284350Y-36484617D01*
X98273445Y-36472032D01*
X98243418Y-36432270D01*
X98243417Y-36432269D01*
X98082682Y-36285741D01*
X97897760Y-36171241D01*
X97897759Y-36171240D01*
X97694950Y-36092672D01*
X97694949Y-36092671D01*
X97694947Y-36092671D01*
X97481150Y-36052706D01*
X97263650Y-36052706D01*
X97049853Y-36092671D01*
X97049851Y-36092671D01*
X97049849Y-36092672D01*
X96847040Y-36171240D01*
X96847039Y-36171241D01*
X96662122Y-36285738D01*
X96662120Y-36285739D01*
X96662118Y-36285741D01*
X96501383Y-36432269D01*
X96501381Y-36432271D01*
X96471352Y-36472035D01*
X96415243Y-36513670D01*
X96345531Y-36518361D01*
X96284349Y-36484618D01*
X96273445Y-36472034D01*
X96243418Y-36432272D01*
X96243416Y-36432269D01*
X96082681Y-36285741D01*
X95897759Y-36171241D01*
X95897758Y-36171240D01*
X95694949Y-36092672D01*
X95694948Y-36092671D01*
X95694946Y-36092671D01*
X95481149Y-36052706D01*
X95263649Y-36052706D01*
X95049852Y-36092671D01*
X95049850Y-36092671D01*
X95049848Y-36092672D01*
X94847039Y-36171240D01*
X94847038Y-36171241D01*
X94662121Y-36285738D01*
X94662119Y-36285739D01*
X94662117Y-36285741D01*
X94501382Y-36432269D01*
X94501381Y-36432270D01*
X94370309Y-36605837D01*
X94273361Y-36800534D01*
X94273358Y-36800540D01*
X94213839Y-37009731D01*
X94213838Y-37009734D01*
X94193771Y-37226305D01*
X65270500Y-37226305D01*
X65270500Y-31647186D01*
X67211500Y-31647186D01*
X67211500Y-31916813D01*
X67241686Y-32184719D01*
X67241688Y-32184731D01*
X67301684Y-32447594D01*
X67301687Y-32447602D01*
X67390734Y-32702082D01*
X67507714Y-32944994D01*
X67507716Y-32944997D01*
X67651162Y-33173289D01*
X67819266Y-33384085D01*
X68009915Y-33574734D01*
X68220711Y-33742838D01*
X68449003Y-33886284D01*
X68691921Y-34003267D01*
X68883049Y-34070145D01*
X68946397Y-34092312D01*
X68946405Y-34092315D01*
X68946408Y-34092315D01*
X68946409Y-34092316D01*
X69209268Y-34152312D01*
X69477187Y-34182499D01*
X69477188Y-34182500D01*
X69477191Y-34182500D01*
X69746812Y-34182500D01*
X69746812Y-34182499D01*
X70014732Y-34152312D01*
X70277591Y-34092316D01*
X70532079Y-34003267D01*
X70774997Y-33886284D01*
X71003289Y-33742838D01*
X71214085Y-33574734D01*
X71404734Y-33384085D01*
X71572838Y-33173289D01*
X71716284Y-32944997D01*
X71833267Y-32702079D01*
X71922316Y-32447591D01*
X71982312Y-32184732D01*
X72012500Y-31916809D01*
X72012500Y-31647191D01*
X71982312Y-31379268D01*
X71922316Y-31116409D01*
X71833267Y-30861921D01*
X71716284Y-30619003D01*
X71572838Y-30390711D01*
X71404734Y-30179915D01*
X71214085Y-29989266D01*
X71207258Y-29983822D01*
X71080336Y-29882605D01*
X71003289Y-29821162D01*
X70826591Y-29710135D01*
X78129502Y-29710135D01*
X78129502Y-31313870D01*
X78129503Y-31313876D01*
X78135910Y-31373483D01*
X78186204Y-31508328D01*
X78186208Y-31508335D01*
X78272454Y-31623544D01*
X78272457Y-31623547D01*
X78387666Y-31709793D01*
X78387673Y-31709797D01*
X78522519Y-31760091D01*
X78522518Y-31760091D01*
X78529446Y-31760835D01*
X78582129Y-31766500D01*
X80185874Y-31766499D01*
X80245485Y-31760091D01*
X80380333Y-31709796D01*
X80495548Y-31623546D01*
X80581798Y-31508331D01*
X80632093Y-31373483D01*
X80638502Y-31313873D01*
X80638501Y-31313704D01*
X80638512Y-31313669D01*
X80638680Y-31310547D01*
X80639416Y-31310586D01*
X80658167Y-31246663D01*
X80710958Y-31200893D01*
X80780113Y-31190930D01*
X80843677Y-31219937D01*
X80864076Y-31242549D01*
X80919328Y-31321457D01*
X80919329Y-31321458D01*
X81074543Y-31476672D01*
X81074549Y-31476677D01*
X81254351Y-31602576D01*
X81254353Y-31602577D01*
X81254356Y-31602579D01*
X81453299Y-31695347D01*
X81665328Y-31752161D01*
X81821523Y-31765826D01*
X81884000Y-31771292D01*
X81884002Y-31771292D01*
X81884004Y-31771292D01*
X81938799Y-31766498D01*
X82102676Y-31752161D01*
X82314705Y-31695347D01*
X82513648Y-31602579D01*
X82693459Y-31476674D01*
X82848676Y-31321457D01*
X82974581Y-31141646D01*
X83021619Y-31040772D01*
X83067791Y-30988332D01*
X83134984Y-30969180D01*
X83201866Y-30989395D01*
X83246383Y-31040772D01*
X83293419Y-31141642D01*
X83293423Y-31141650D01*
X83419322Y-31321452D01*
X83419327Y-31321458D01*
X83574541Y-31476672D01*
X83574547Y-31476677D01*
X83754349Y-31602576D01*
X83754351Y-31602577D01*
X83754354Y-31602579D01*
X83953297Y-31695347D01*
X84165326Y-31752161D01*
X84321521Y-31765826D01*
X84383998Y-31771292D01*
X84384000Y-31771292D01*
X84384002Y-31771292D01*
X84438797Y-31766498D01*
X84602674Y-31752161D01*
X84814703Y-31695347D01*
X85013646Y-31602579D01*
X85193457Y-31476674D01*
X85348674Y-31321457D01*
X85474579Y-31141646D01*
X85521895Y-31040175D01*
X85568064Y-30987740D01*
X85635258Y-30968587D01*
X85702139Y-30988802D01*
X85746657Y-31040178D01*
X85793854Y-31141392D01*
X85838003Y-31204443D01*
X86401037Y-30641409D01*
X86418075Y-30704993D01*
X86483901Y-30819007D01*
X86576993Y-30912099D01*
X86691007Y-30977925D01*
X86754590Y-30994962D01*
X86191555Y-31557996D01*
X86254601Y-31602142D01*
X86254605Y-31602144D01*
X86453466Y-31694874D01*
X86453475Y-31694878D01*
X86665407Y-31751664D01*
X86665417Y-31751666D01*
X86883999Y-31770790D01*
X86884001Y-31770790D01*
X87102582Y-31751666D01*
X87102592Y-31751664D01*
X87314524Y-31694878D01*
X87314533Y-31694874D01*
X87416801Y-31647186D01*
X136045500Y-31647186D01*
X136045500Y-31916813D01*
X136075686Y-32184719D01*
X136075688Y-32184731D01*
X136135684Y-32447594D01*
X136135687Y-32447602D01*
X136224734Y-32702082D01*
X136341714Y-32944994D01*
X136341716Y-32944997D01*
X136485162Y-33173289D01*
X136653266Y-33384085D01*
X136843915Y-33574734D01*
X137054711Y-33742838D01*
X137283003Y-33886284D01*
X137525921Y-34003267D01*
X137717049Y-34070145D01*
X137780397Y-34092312D01*
X137780405Y-34092315D01*
X137780408Y-34092315D01*
X137780409Y-34092316D01*
X138043268Y-34152312D01*
X138311187Y-34182499D01*
X138311188Y-34182500D01*
X138311191Y-34182500D01*
X138580812Y-34182500D01*
X138580812Y-34182499D01*
X138848732Y-34152312D01*
X139111591Y-34092316D01*
X139366079Y-34003267D01*
X139608997Y-33886284D01*
X139837289Y-33742838D01*
X140048085Y-33574734D01*
X140238734Y-33384085D01*
X140406838Y-33173289D01*
X140550284Y-32944997D01*
X140667267Y-32702079D01*
X140756316Y-32447591D01*
X140816312Y-32184732D01*
X140846500Y-31916809D01*
X140846500Y-31647191D01*
X140816312Y-31379268D01*
X140756316Y-31116409D01*
X140667267Y-30861921D01*
X140550284Y-30619003D01*
X140406838Y-30390711D01*
X140238734Y-30179915D01*
X140048085Y-29989266D01*
X140041258Y-29983822D01*
X139914336Y-29882605D01*
X139837289Y-29821162D01*
X139608997Y-29677716D01*
X139608994Y-29677714D01*
X139366082Y-29560734D01*
X139111602Y-29471687D01*
X139111594Y-29471684D01*
X138914446Y-29426687D01*
X138848732Y-29411688D01*
X138848728Y-29411687D01*
X138848719Y-29411686D01*
X138580813Y-29381500D01*
X138580809Y-29381500D01*
X138311191Y-29381500D01*
X138311186Y-29381500D01*
X138043280Y-29411686D01*
X138043268Y-29411688D01*
X137780405Y-29471684D01*
X137780397Y-29471687D01*
X137525917Y-29560734D01*
X137283005Y-29677714D01*
X137054712Y-29821161D01*
X136843915Y-29989265D01*
X136653265Y-30179915D01*
X136485161Y-30390712D01*
X136341714Y-30619005D01*
X136224734Y-30861917D01*
X136135687Y-31116397D01*
X136135684Y-31116405D01*
X136075688Y-31379268D01*
X136075686Y-31379280D01*
X136045500Y-31647186D01*
X87416801Y-31647186D01*
X87513392Y-31602145D01*
X87576443Y-31557995D01*
X87013410Y-30994962D01*
X87076993Y-30977925D01*
X87191007Y-30912099D01*
X87284099Y-30819007D01*
X87349925Y-30704993D01*
X87366962Y-30641409D01*
X87929995Y-31204442D01*
X87974145Y-31141392D01*
X88066874Y-30942533D01*
X88066878Y-30942524D01*
X88123664Y-30730592D01*
X88123666Y-30730582D01*
X88142790Y-30512000D01*
X88142790Y-30511999D01*
X88123666Y-30293417D01*
X88123664Y-30293407D01*
X88066878Y-30081475D01*
X88066874Y-30081466D01*
X87974144Y-29882605D01*
X87974142Y-29882601D01*
X87929996Y-29819555D01*
X87366962Y-30382589D01*
X87349925Y-30319007D01*
X87284099Y-30204993D01*
X87191007Y-30111901D01*
X87076993Y-30046075D01*
X87013409Y-30029037D01*
X87576443Y-29466003D01*
X87513392Y-29421854D01*
X87314533Y-29329125D01*
X87314524Y-29329121D01*
X87102592Y-29272335D01*
X87102582Y-29272333D01*
X86884001Y-29253210D01*
X86883999Y-29253210D01*
X86665417Y-29272333D01*
X86665407Y-29272335D01*
X86453475Y-29329121D01*
X86453466Y-29329124D01*
X86254606Y-29421855D01*
X86254604Y-29421856D01*
X86191556Y-29466003D01*
X86191555Y-29466003D01*
X86754590Y-30029037D01*
X86691007Y-30046075D01*
X86576993Y-30111901D01*
X86483901Y-30204993D01*
X86418075Y-30319007D01*
X86401037Y-30382590D01*
X85838003Y-29819555D01*
X85838003Y-29819556D01*
X85793857Y-29882603D01*
X85746657Y-29983822D01*
X85700484Y-30036261D01*
X85633290Y-30055412D01*
X85566409Y-30035196D01*
X85521893Y-29983820D01*
X85474580Y-29882357D01*
X85474579Y-29882354D01*
X85474577Y-29882351D01*
X85474576Y-29882349D01*
X85348677Y-29702547D01*
X85348672Y-29702541D01*
X85193458Y-29547327D01*
X85193452Y-29547322D01*
X85013650Y-29421423D01*
X85013642Y-29421419D01*
X84814708Y-29328655D01*
X84814706Y-29328654D01*
X84814703Y-29328653D01*
X84663885Y-29288240D01*
X84602675Y-29271839D01*
X84602668Y-29271838D01*
X84384002Y-29252708D01*
X84383998Y-29252708D01*
X84165331Y-29271838D01*
X84165324Y-29271839D01*
X84042902Y-29304642D01*
X83953297Y-29328653D01*
X83953295Y-29328653D01*
X83953291Y-29328655D01*
X83754357Y-29421419D01*
X83754349Y-29421423D01*
X83574547Y-29547322D01*
X83574541Y-29547327D01*
X83419327Y-29702541D01*
X83419322Y-29702547D01*
X83293423Y-29882349D01*
X83293421Y-29882353D01*
X83246383Y-29983228D01*
X83200211Y-30035667D01*
X83133017Y-30054819D01*
X83066136Y-30034603D01*
X83021619Y-29983228D01*
X82974582Y-29882357D01*
X82974581Y-29882354D01*
X82974579Y-29882351D01*
X82974578Y-29882349D01*
X82848679Y-29702547D01*
X82848674Y-29702541D01*
X82693460Y-29547327D01*
X82693454Y-29547322D01*
X82513652Y-29421423D01*
X82513644Y-29421419D01*
X82314710Y-29328655D01*
X82314708Y-29328654D01*
X82314705Y-29328653D01*
X82163887Y-29288240D01*
X82102677Y-29271839D01*
X82102670Y-29271838D01*
X81884004Y-29252708D01*
X81884000Y-29252708D01*
X81665333Y-29271838D01*
X81665326Y-29271839D01*
X81542904Y-29304642D01*
X81453299Y-29328653D01*
X81453297Y-29328653D01*
X81453293Y-29328655D01*
X81254359Y-29421419D01*
X81254351Y-29421423D01*
X81074549Y-29547322D01*
X81074543Y-29547327D01*
X80919329Y-29702541D01*
X80919328Y-29702543D01*
X80864076Y-29781451D01*
X80809499Y-29825076D01*
X80740000Y-29832268D01*
X80677646Y-29800746D01*
X80642232Y-29740516D01*
X80638883Y-29713425D01*
X80638856Y-29713429D01*
X80638855Y-29713426D01*
X80638678Y-29713436D01*
X80638519Y-29710478D01*
X80638501Y-29710327D01*
X80638501Y-29710129D01*
X80638500Y-29710123D01*
X80638499Y-29710116D01*
X80632093Y-29650517D01*
X80593605Y-29547326D01*
X80581799Y-29515671D01*
X80581795Y-29515664D01*
X80495549Y-29400455D01*
X80495546Y-29400452D01*
X80380337Y-29314206D01*
X80380330Y-29314202D01*
X80245484Y-29263908D01*
X80245485Y-29263908D01*
X80185885Y-29257501D01*
X80185883Y-29257500D01*
X80185875Y-29257500D01*
X80185866Y-29257500D01*
X78582131Y-29257500D01*
X78582125Y-29257501D01*
X78522518Y-29263908D01*
X78387673Y-29314202D01*
X78387666Y-29314206D01*
X78272457Y-29400452D01*
X78272454Y-29400455D01*
X78186208Y-29515664D01*
X78186204Y-29515671D01*
X78135910Y-29650517D01*
X78130317Y-29702543D01*
X78129503Y-29710123D01*
X78129502Y-29710135D01*
X70826591Y-29710135D01*
X70774997Y-29677716D01*
X70774994Y-29677714D01*
X70532082Y-29560734D01*
X70277602Y-29471687D01*
X70277594Y-29471684D01*
X70080446Y-29426687D01*
X70014732Y-29411688D01*
X70014728Y-29411687D01*
X70014719Y-29411686D01*
X69746813Y-29381500D01*
X69746809Y-29381500D01*
X69477191Y-29381500D01*
X69477186Y-29381500D01*
X69209280Y-29411686D01*
X69209268Y-29411688D01*
X68946405Y-29471684D01*
X68946397Y-29471687D01*
X68691917Y-29560734D01*
X68449005Y-29677714D01*
X68220712Y-29821161D01*
X68009915Y-29989265D01*
X67819265Y-30179915D01*
X67651161Y-30390712D01*
X67507714Y-30619005D01*
X67390734Y-30861917D01*
X67301687Y-31116397D01*
X67301684Y-31116405D01*
X67241688Y-31379268D01*
X67241686Y-31379280D01*
X67211500Y-31647186D01*
X65270500Y-31647186D01*
X65270500Y-29356838D01*
X65290185Y-29289799D01*
X65306819Y-29269157D01*
X67099157Y-27476819D01*
X67160480Y-27443334D01*
X67186838Y-27440500D01*
X140871162Y-27440500D01*
X140938201Y-27460185D01*
G37*
%TD.AperFunction*%
%TD*%
M02*
