%TF.GenerationSoftware,KiCad,Pcbnew,8.0.8-8.0.8-0~ubuntu24.04.1*%
%TF.CreationDate,2025-08-07T16:45:38-04:00*%
%TF.ProjectId,mainboard,6d61696e-626f-4617-9264-2e6b69636164,rev?*%
%TF.SameCoordinates,Original*%
%TF.FileFunction,Drillmap*%
%TF.FilePolarity,Positive*%
%FSLAX45Y45*%
G04 Gerber Fmt 4.5, Leading zero omitted, Abs format (unit mm)*
G04 Created by KiCad (PCBNEW 8.0.8-8.0.8-0~ubuntu24.04.1) date 2025-08-07 16:45:38*
%MOMM*%
%LPD*%
G01*
G04 APERTURE LIST*
%ADD10C,0.050000*%
%ADD11C,0.200000*%
%ADD12C,0.100000*%
G04 APERTURE END LIST*
D10*
X6397600Y-2108200D02*
X13795400Y-2108200D01*
X6197600Y-8817000D02*
X6397600Y-9017000D01*
X13995400Y-8817000D02*
X13795400Y-9017000D01*
X6397600Y-9017000D02*
X13795400Y-9017000D01*
X6197600Y-2308200D02*
X6397600Y-2108200D01*
X13995400Y-2308200D02*
X13795400Y-2108200D01*
X6197600Y-2308200D02*
X6197600Y-8817000D01*
X13995400Y-2308200D02*
X13995400Y-8817000D01*
D11*
D12*
X6988650Y-8106228D02*
X7018650Y-8136228D01*
X7018650Y-8106228D02*
X6988650Y-8136228D01*
X7097000Y-4455400D02*
X7127000Y-4485400D01*
X7127000Y-4455400D02*
X7097000Y-4485400D01*
X7198600Y-3033000D02*
X7228600Y-3063000D01*
X7228600Y-3033000D02*
X7198600Y-3063000D01*
X7376400Y-8482820D02*
X7406400Y-8512820D01*
X7406400Y-8482820D02*
X7376400Y-8512820D01*
X8214600Y-3617200D02*
X8244600Y-3647200D01*
X8244600Y-3617200D02*
X8214600Y-3647200D01*
X8494000Y-3875200D02*
X8524000Y-3905200D01*
X8524000Y-3875200D02*
X8494000Y-3905200D01*
X8494000Y-7058900D02*
X8524000Y-7088900D01*
X8524000Y-7058900D02*
X8494000Y-7088900D01*
X8494000Y-8494000D02*
X8524000Y-8524000D01*
X8524000Y-8494000D02*
X8494000Y-8524000D01*
X8595600Y-4633200D02*
X8625600Y-4663200D01*
X8625600Y-4633200D02*
X8595600Y-4663200D01*
X8621000Y-6081000D02*
X8651000Y-6111000D01*
X8651000Y-6081000D02*
X8621000Y-6111000D01*
X9027400Y-7059200D02*
X9057400Y-7089200D01*
X9057400Y-7059200D02*
X9027400Y-7089200D01*
X9242500Y-7215000D02*
X9272500Y-7245000D01*
X9272500Y-7215000D02*
X9242500Y-7245000D01*
X9302500Y-4960160D02*
X9332500Y-4990160D01*
X9332500Y-4960160D02*
X9302500Y-4990160D01*
X9363750Y-4643750D02*
X9393750Y-4673750D01*
X9393750Y-4643750D02*
X9363750Y-4673750D01*
X9370300Y-6233400D02*
X9400300Y-6263400D01*
X9400300Y-6233400D02*
X9370300Y-6263400D01*
X9433800Y-5827000D02*
X9463800Y-5857000D01*
X9463800Y-5827000D02*
X9433800Y-5857000D01*
X9462500Y-4665000D02*
X9492500Y-4695000D01*
X9492500Y-4665000D02*
X9462500Y-4695000D01*
X9532500Y-4105000D02*
X9562500Y-4135000D01*
X9562500Y-4105000D02*
X9532500Y-4135000D01*
X9562500Y-4645000D02*
X9592500Y-4675000D01*
X9592500Y-4645000D02*
X9562500Y-4675000D01*
X9592500Y-5565000D02*
X9622500Y-5595000D01*
X9622500Y-5565000D02*
X9592500Y-5595000D01*
X9632500Y-4335000D02*
X9662500Y-4365000D01*
X9662500Y-4335000D02*
X9632500Y-4365000D01*
X9652500Y-4635000D02*
X9682500Y-4665000D01*
X9682500Y-4635000D02*
X9652500Y-4665000D01*
X9692500Y-5495000D02*
X9722500Y-5525000D01*
X9722500Y-5495000D02*
X9692500Y-5525000D01*
X9722500Y-4815000D02*
X9752500Y-4845000D01*
X9752500Y-4815000D02*
X9722500Y-4845000D01*
X9772500Y-5415000D02*
X9802500Y-5445000D01*
X9802500Y-5415000D02*
X9772500Y-5445000D01*
X9782500Y-4895000D02*
X9812500Y-4925000D01*
X9812500Y-4895000D02*
X9782500Y-4925000D01*
X9812500Y-4145000D02*
X9842500Y-4175000D01*
X9842500Y-4145000D02*
X9812500Y-4175000D01*
X9822500Y-4645000D02*
X9852500Y-4675000D01*
X9852500Y-4645000D02*
X9822500Y-4675000D01*
X9942500Y-4645000D02*
X9972500Y-4675000D01*
X9972500Y-4645000D02*
X9942500Y-4675000D01*
X9942500Y-7075000D02*
X9972500Y-7105000D01*
X9972500Y-7075000D02*
X9942500Y-7105000D01*
X10022500Y-5255000D02*
X10052500Y-5285000D01*
X10052500Y-5255000D02*
X10022500Y-5285000D01*
X10072500Y-4645000D02*
X10102500Y-4675000D01*
X10102500Y-4645000D02*
X10072500Y-4675000D01*
X10172500Y-5155000D02*
X10202500Y-5185000D01*
X10202500Y-5155000D02*
X10172500Y-5185000D01*
X10182500Y-5435000D02*
X10212500Y-5465000D01*
X10212500Y-5435000D02*
X10182500Y-5465000D01*
X10199629Y-4642129D02*
X10229629Y-4672129D01*
X10229629Y-4642129D02*
X10199629Y-4672129D01*
X10302500Y-5055000D02*
X10332500Y-5085000D01*
X10332500Y-5055000D02*
X10302500Y-5085000D01*
X10325394Y-2528186D02*
X10355394Y-2558186D01*
X10355394Y-2528186D02*
X10325394Y-2558186D01*
X10382500Y-4985000D02*
X10412500Y-5015000D01*
X10412500Y-4985000D02*
X10382500Y-5015000D01*
X10421230Y-4733730D02*
X10451230Y-4763730D01*
X10451230Y-4733730D02*
X10421230Y-4763730D01*
X10492500Y-4915000D02*
X10522500Y-4945000D01*
X10522500Y-4915000D02*
X10492500Y-4945000D01*
X10582500Y-4845000D02*
X10612500Y-4875000D01*
X10612500Y-4845000D02*
X10582500Y-4875000D01*
X10600000Y-4687500D02*
X10630000Y-4717500D01*
X10630000Y-4687500D02*
X10600000Y-4717500D01*
X10652500Y-4385000D02*
X10682500Y-4415000D01*
X10682500Y-4385000D02*
X10652500Y-4415000D01*
X10652500Y-4485000D02*
X10682500Y-4515000D01*
X10682500Y-4485000D02*
X10652500Y-4515000D01*
X10662500Y-3915000D02*
X10692500Y-3945000D01*
X10692500Y-3915000D02*
X10662500Y-3945000D01*
X10662500Y-4035000D02*
X10692500Y-4065000D01*
X10692500Y-4035000D02*
X10662500Y-4065000D01*
X10662500Y-4155000D02*
X10692500Y-4185000D01*
X10692500Y-4155000D02*
X10662500Y-4185000D01*
X10662500Y-4275000D02*
X10692500Y-4305000D01*
X10692500Y-4275000D02*
X10662500Y-4305000D01*
X10722500Y-6240800D02*
X10752500Y-6270800D01*
X10752500Y-6240800D02*
X10722500Y-6270800D01*
X10729200Y-5573000D02*
X10759200Y-5603000D01*
X10759200Y-5573000D02*
X10729200Y-5603000D01*
X10782500Y-4695000D02*
X10812500Y-4725000D01*
X10812500Y-4695000D02*
X10782500Y-4725000D01*
X10852500Y-5735000D02*
X10882500Y-5765000D01*
X10882500Y-5735000D02*
X10852500Y-5765000D01*
X10868900Y-5534900D02*
X10898900Y-5564900D01*
X10898900Y-5534900D02*
X10868900Y-5564900D01*
X10892500Y-4715000D02*
X10922500Y-4745000D01*
X10922500Y-4715000D02*
X10892500Y-4745000D01*
X11052500Y-4425000D02*
X11082500Y-4455000D01*
X11082500Y-4425000D02*
X11052500Y-4455000D01*
X11062500Y-3975000D02*
X11092500Y-4005000D01*
X11092500Y-3975000D02*
X11062500Y-4005000D01*
X11072500Y-4705000D02*
X11102500Y-4735000D01*
X11102500Y-4705000D02*
X11072500Y-4735000D01*
X11082500Y-6795000D02*
X11112500Y-6825000D01*
X11112500Y-6795000D02*
X11082500Y-6825000D01*
X11132500Y-4625000D02*
X11162500Y-4655000D01*
X11162500Y-4625000D02*
X11132500Y-4655000D01*
X11161000Y-6017500D02*
X11191000Y-6047500D01*
X11191000Y-6017500D02*
X11161000Y-6047500D01*
X11161000Y-8113000D02*
X11191000Y-8143000D01*
X11191000Y-8113000D02*
X11161000Y-8143000D01*
X11171152Y-5846348D02*
X11201152Y-5876348D01*
X11201152Y-5846348D02*
X11171152Y-5876348D01*
X11217340Y-5235000D02*
X11247340Y-5265000D01*
X11247340Y-5235000D02*
X11217340Y-5265000D01*
X11282500Y-5315000D02*
X11312500Y-5345000D01*
X11312500Y-5315000D02*
X11282500Y-5345000D01*
X11295000Y-6005000D02*
X11325000Y-6035000D01*
X11325000Y-6005000D02*
X11295000Y-6035000D01*
X11395187Y-5256828D02*
X11425187Y-5286828D01*
X11425187Y-5256828D02*
X11395187Y-5286828D01*
X11482500Y-5235000D02*
X11512500Y-5265000D01*
X11512500Y-5235000D02*
X11482500Y-5265000D01*
X11522500Y-5355000D02*
X11552500Y-5385000D01*
X11552500Y-5355000D02*
X11522500Y-5385000D01*
X11542500Y-5455000D02*
X11572500Y-5485000D01*
X11572500Y-5455000D02*
X11542500Y-5485000D01*
X11562500Y-5755000D02*
X11592500Y-5785000D01*
X11592500Y-5755000D02*
X11562500Y-5785000D01*
X11562500Y-6325000D02*
X11592500Y-6355000D01*
X11592500Y-6325000D02*
X11562500Y-6355000D01*
X11690294Y-4213247D02*
X11720294Y-4243247D01*
X11720294Y-4213247D02*
X11690294Y-4243247D01*
X11707100Y-6893800D02*
X11737100Y-6923800D01*
X11737100Y-6893800D02*
X11707100Y-6923800D01*
X11742500Y-6034840D02*
X11772500Y-6064840D01*
X11772500Y-6034840D02*
X11742500Y-6064840D01*
X11762500Y-5575000D02*
X11792500Y-5605000D01*
X11792500Y-5575000D02*
X11762500Y-5605000D01*
X11842500Y-6015000D02*
X11872500Y-6045000D01*
X11872500Y-6015000D02*
X11842500Y-6045000D01*
X11870269Y-4717231D02*
X11900269Y-4747231D01*
X11900269Y-4717231D02*
X11870269Y-4747231D01*
X11962500Y-5995000D02*
X11992500Y-6025000D01*
X11992500Y-5995000D02*
X11962500Y-6025000D01*
X11997500Y-4730000D02*
X12027500Y-4760000D01*
X12027500Y-4730000D02*
X11997500Y-4760000D01*
X12006507Y-5055000D02*
X12036507Y-5085000D01*
X12036507Y-5055000D02*
X12006507Y-5085000D01*
X12037300Y-5738100D02*
X12067300Y-5768100D01*
X12067300Y-5738100D02*
X12037300Y-5768100D01*
X12042500Y-4555000D02*
X12072500Y-4585000D01*
X12072500Y-4555000D02*
X12042500Y-4585000D01*
X12082500Y-4935000D02*
X12112500Y-4965000D01*
X12112500Y-4935000D02*
X12082500Y-4965000D01*
X12142500Y-4415000D02*
X12172500Y-4445000D01*
X12172500Y-4415000D02*
X12142500Y-4445000D01*
X12177000Y-3033000D02*
X12207000Y-3063000D01*
X12207000Y-3033000D02*
X12177000Y-3063000D01*
X12192500Y-5275000D02*
X12222500Y-5305000D01*
X12222500Y-5275000D02*
X12192500Y-5305000D01*
X12192500Y-5655000D02*
X12222500Y-5685000D01*
X12222500Y-5655000D02*
X12192500Y-5685000D01*
X12247500Y-4489840D02*
X12277500Y-4519840D01*
X12277500Y-4489840D02*
X12247500Y-4519840D01*
X12262500Y-4860160D02*
X12292500Y-4890160D01*
X12292500Y-4860160D02*
X12262500Y-4890160D01*
X12322500Y-4409840D02*
X12352500Y-4439840D01*
X12352500Y-4409840D02*
X12322500Y-4439840D01*
X12322500Y-5065000D02*
X12352500Y-5095000D01*
X12352500Y-5065000D02*
X12322500Y-5095000D01*
X12422500Y-4409840D02*
X12452500Y-4439840D01*
X12452500Y-4409840D02*
X12422500Y-4439840D01*
X12532500Y-4875000D02*
X12562500Y-4905000D01*
X12562500Y-4875000D02*
X12532500Y-4905000D01*
X12542500Y-4409840D02*
X12572500Y-4439840D01*
X12572500Y-4409840D02*
X12542500Y-4439840D01*
X12542500Y-4695000D02*
X12572500Y-4725000D01*
X12572500Y-4695000D02*
X12542500Y-4725000D01*
X13193000Y-3033000D02*
X13223000Y-3063000D01*
X13223000Y-3033000D02*
X13193000Y-3063000D01*
X13193000Y-8113000D02*
X13223000Y-8143000D01*
X13223000Y-8113000D02*
X13193000Y-8143000D01*
X8602700Y-6502400D02*
G75*
G02*
X8567700Y-6502400I-17500J0D01*
G01*
X8567700Y-6502400D02*
G75*
G02*
X8602700Y-6502400I17500J0D01*
G01*
X9923500Y-8534400D02*
G75*
G02*
X9888500Y-8534400I-17500J0D01*
G01*
X9888500Y-8534400D02*
G75*
G02*
X9923500Y-8534400I17500J0D01*
G01*
X7620000Y-7346000D02*
X7620000Y-7386000D01*
X7600000Y-7366000D02*
X7640000Y-7366000D01*
X12948645Y-4815145D02*
X12948645Y-4764855D01*
X12898355Y-4764855D01*
X12898355Y-4815145D01*
X12948645Y-4815145D01*
X12948645Y-5015145D02*
X12948645Y-4964855D01*
X12898355Y-4964855D01*
X12898355Y-5015145D01*
X12948645Y-5015145D01*
X12948645Y-5215145D02*
X12948645Y-5164855D01*
X12898355Y-5164855D01*
X12898355Y-5215145D01*
X12948645Y-5215145D01*
X12948645Y-5415145D02*
X12948645Y-5364855D01*
X12898355Y-5364855D01*
X12898355Y-5415145D01*
X12948645Y-5415145D01*
X12948645Y-5615145D02*
X12948645Y-5564855D01*
X12898355Y-5564855D01*
X12898355Y-5615145D01*
X12948645Y-5615145D01*
X12948645Y-5815145D02*
X12948645Y-5764855D01*
X12898355Y-5764855D01*
X12898355Y-5815145D01*
X12948645Y-5815145D01*
X12948645Y-6015145D02*
X12948645Y-5964855D01*
X12898355Y-5964855D01*
X12898355Y-6015145D01*
X12948645Y-6015145D01*
X12948645Y-6215145D02*
X12948645Y-6164855D01*
X12898355Y-6164855D01*
X12898355Y-6215145D01*
X12948645Y-6215145D01*
X13202645Y-4815145D02*
X13202645Y-4764855D01*
X13152355Y-4764855D01*
X13152355Y-4815145D01*
X13202645Y-4815145D01*
X13202645Y-5015145D02*
X13202645Y-4964855D01*
X13152355Y-4964855D01*
X13152355Y-5015145D01*
X13202645Y-5015145D01*
X13202645Y-5215145D02*
X13202645Y-5164855D01*
X13152355Y-5164855D01*
X13152355Y-5215145D01*
X13202645Y-5215145D01*
X13202645Y-5415145D02*
X13202645Y-5364855D01*
X13152355Y-5364855D01*
X13152355Y-5415145D01*
X13202645Y-5415145D01*
X13202645Y-5615145D02*
X13202645Y-5564855D01*
X13152355Y-5564855D01*
X13152355Y-5615145D01*
X13202645Y-5615145D01*
X13202645Y-5815145D02*
X13202645Y-5764855D01*
X13152355Y-5764855D01*
X13152355Y-5815145D01*
X13202645Y-5815145D01*
X13202645Y-6015145D02*
X13202645Y-5964855D01*
X13152355Y-5964855D01*
X13152355Y-6015145D01*
X13202645Y-6015145D01*
X13202645Y-6215145D02*
X13202645Y-6164855D01*
X13152355Y-6164855D01*
X13152355Y-6215145D01*
X13202645Y-6215145D01*
X9230840Y-3151741D02*
X9272750Y-3109831D01*
X9230840Y-3067921D01*
X9188930Y-3109831D01*
X9230840Y-3151741D01*
X9230840Y-3401741D02*
X9272750Y-3359831D01*
X9230840Y-3317921D01*
X9188930Y-3359831D01*
X9230840Y-3401741D01*
X9430840Y-3151741D02*
X9472750Y-3109831D01*
X9430840Y-3067921D01*
X9388930Y-3109831D01*
X9430840Y-3151741D01*
X9430840Y-3401741D02*
X9472750Y-3359831D01*
X9430840Y-3317921D01*
X9388930Y-3359831D01*
X9430840Y-3401741D01*
X9630840Y-3151741D02*
X9672750Y-3109831D01*
X9630840Y-3067921D01*
X9588930Y-3109831D01*
X9630840Y-3151741D01*
X9630840Y-3401741D02*
X9672750Y-3359831D01*
X9630840Y-3317921D01*
X9588930Y-3359831D01*
X9630840Y-3401741D01*
X9830840Y-3151741D02*
X9872750Y-3109831D01*
X9830840Y-3067921D01*
X9788930Y-3109831D01*
X9830840Y-3151741D01*
X9830840Y-3401741D02*
X9872750Y-3359831D01*
X9830840Y-3317921D01*
X9788930Y-3359831D01*
X9830840Y-3401741D01*
X10030840Y-3151741D02*
X10072750Y-3109831D01*
X10030840Y-3067921D01*
X9988930Y-3109831D01*
X10030840Y-3151741D01*
X10030840Y-3401741D02*
X10072750Y-3359831D01*
X10030840Y-3317921D01*
X9988930Y-3359831D01*
X10030840Y-3401741D01*
X10230840Y-3151741D02*
X10272750Y-3109831D01*
X10230840Y-3067921D01*
X10188930Y-3109831D01*
X10230840Y-3151741D01*
X10230840Y-3401741D02*
X10272750Y-3359831D01*
X10230840Y-3317921D01*
X10188930Y-3359831D01*
X10230840Y-3401741D01*
X10430840Y-3151741D02*
X10472750Y-3109831D01*
X10430840Y-3067921D01*
X10388930Y-3109831D01*
X10430840Y-3151741D01*
X10430840Y-3401741D02*
X10472750Y-3359831D01*
X10430840Y-3317921D01*
X10388930Y-3359831D01*
X10430840Y-3401741D01*
X10630840Y-3151741D02*
X10672750Y-3109831D01*
X10630840Y-3067921D01*
X10588930Y-3109831D01*
X10630840Y-3151741D01*
X10630840Y-3401741D02*
X10672750Y-3359831D01*
X10630840Y-3317921D01*
X10588930Y-3359831D01*
X10630840Y-3401741D01*
X10830840Y-3151741D02*
X10872750Y-3109831D01*
X10830840Y-3067921D01*
X10788930Y-3109831D01*
X10830840Y-3151741D01*
X10830840Y-3401741D02*
X10872750Y-3359831D01*
X10830840Y-3317921D01*
X10788930Y-3359831D01*
X10830840Y-3401741D01*
X11030840Y-3151741D02*
X11072750Y-3109831D01*
X11030840Y-3067921D01*
X10988930Y-3109831D01*
X11030840Y-3151741D01*
X11030840Y-3401741D02*
X11072750Y-3359831D01*
X11030840Y-3317921D01*
X10988930Y-3359831D01*
X11030840Y-3401741D01*
X11230840Y-3151741D02*
X11272750Y-3109831D01*
X11230840Y-3067921D01*
X11188930Y-3109831D01*
X11230840Y-3151741D01*
X11230840Y-3401741D02*
X11272750Y-3359831D01*
X11230840Y-3317921D01*
X11188930Y-3359831D01*
X11230840Y-3401741D01*
X11430840Y-3151741D02*
X11472750Y-3109831D01*
X11430840Y-3067921D01*
X11388930Y-3109831D01*
X11430840Y-3151741D01*
X11430840Y-3401741D02*
X11472750Y-3359831D01*
X11430840Y-3317921D01*
X11388930Y-3359831D01*
X11430840Y-3401741D01*
X6554470Y-7117270D02*
X6653530Y-7216330D01*
X6653530Y-7117270D02*
X6554470Y-7216330D01*
X6653530Y-7166800D02*
G75*
G02*
X6554470Y-7166800I-49530J0D01*
G01*
X6554470Y-7166800D02*
G75*
G02*
X6653530Y-7166800I49530J0D01*
G01*
X6554470Y-7367270D02*
X6653530Y-7466330D01*
X6653530Y-7367270D02*
X6554470Y-7466330D01*
X6653530Y-7416800D02*
G75*
G02*
X6554470Y-7416800I-49530J0D01*
G01*
X6554470Y-7416800D02*
G75*
G02*
X6653530Y-7416800I49530J0D01*
G01*
X12327970Y-3240470D02*
X12427030Y-3339530D01*
X12427030Y-3240470D02*
X12327970Y-3339530D01*
X12427030Y-3290000D02*
G75*
G02*
X12327970Y-3290000I-49530J0D01*
G01*
X12327970Y-3290000D02*
G75*
G02*
X12427030Y-3290000I49530J0D01*
G01*
X12577970Y-3240470D02*
X12677030Y-3339530D01*
X12677030Y-3240470D02*
X12577970Y-3339530D01*
X12677030Y-3290000D02*
G75*
G02*
X12577970Y-3290000I-49530J0D01*
G01*
X12577970Y-3290000D02*
G75*
G02*
X12677030Y-3290000I49530J0D01*
G01*
X12827970Y-3240470D02*
X12927030Y-3339530D01*
X12927030Y-3240470D02*
X12827970Y-3339530D01*
X12927030Y-3290000D02*
G75*
G02*
X12827970Y-3290000I-49530J0D01*
G01*
X12827970Y-3290000D02*
G75*
G02*
X12927030Y-3290000I49530J0D01*
G01*
X13221970Y-7062470D02*
X13321030Y-7161530D01*
X13321030Y-7062470D02*
X13221970Y-7161530D01*
X13321030Y-7112000D02*
G75*
G02*
X13221970Y-7112000I-49530J0D01*
G01*
X13221970Y-7112000D02*
G75*
G02*
X13321030Y-7112000I49530J0D01*
G01*
X13221970Y-7312470D02*
X13321030Y-7411530D01*
X13321030Y-7312470D02*
X13221970Y-7411530D01*
X13321030Y-7362000D02*
G75*
G02*
X13221970Y-7362000I-49530J0D01*
G01*
X13221970Y-7362000D02*
G75*
G02*
X13321030Y-7362000I49530J0D01*
G01*
X6363500Y-4712500D02*
X6463500Y-4812500D01*
X6463500Y-4712500D02*
X6363500Y-4812500D01*
X6413500Y-4712500D02*
X6413500Y-4812500D01*
X6363500Y-4762500D02*
X6463500Y-4762500D01*
X6363500Y-4966500D02*
X6463500Y-5066500D01*
X6463500Y-4966500D02*
X6363500Y-5066500D01*
X6413500Y-4966500D02*
X6413500Y-5066500D01*
X6363500Y-5016500D02*
X6463500Y-5016500D01*
X6363500Y-5220500D02*
X6463500Y-5320500D01*
X6463500Y-5220500D02*
X6363500Y-5320500D01*
X6413500Y-5220500D02*
X6413500Y-5320500D01*
X6363500Y-5270500D02*
X6463500Y-5270500D01*
X6363500Y-5474500D02*
X6463500Y-5574500D01*
X6463500Y-5474500D02*
X6363500Y-5574500D01*
X6413500Y-5474500D02*
X6413500Y-5574500D01*
X6363500Y-5524500D02*
X6463500Y-5524500D01*
X6363500Y-5728500D02*
X6463500Y-5828500D01*
X6463500Y-5728500D02*
X6363500Y-5828500D01*
X6413500Y-5728500D02*
X6413500Y-5828500D01*
X6363500Y-5778500D02*
X6463500Y-5778500D01*
X6363500Y-5982500D02*
X6463500Y-6082500D01*
X6463500Y-5982500D02*
X6363500Y-6082500D01*
X6413500Y-5982500D02*
X6413500Y-6082500D01*
X6363500Y-6032500D02*
X6463500Y-6032500D01*
X6503200Y-3340200D02*
X6603200Y-3440200D01*
X6603200Y-3340200D02*
X6503200Y-3440200D01*
X6553200Y-3340200D02*
X6553200Y-3440200D01*
X6503200Y-3390200D02*
X6603200Y-3390200D01*
X6503200Y-3590200D02*
X6603200Y-3690200D01*
X6603200Y-3590200D02*
X6503200Y-3690200D01*
X6553200Y-3590200D02*
X6553200Y-3690200D01*
X6503200Y-3640200D02*
X6603200Y-3640200D01*
X6503200Y-3840200D02*
X6603200Y-3940200D01*
X6603200Y-3840200D02*
X6503200Y-3940200D01*
X6553200Y-3840200D02*
X6553200Y-3940200D01*
X6503200Y-3890200D02*
X6603200Y-3890200D01*
X6503200Y-4090200D02*
X6603200Y-4190200D01*
X6603200Y-4090200D02*
X6503200Y-4190200D01*
X6553200Y-4090200D02*
X6553200Y-4190200D01*
X6503200Y-4140200D02*
X6603200Y-4140200D01*
X7224800Y-5571750D02*
X7324800Y-5671750D01*
X7324800Y-5571750D02*
X7224800Y-5671750D01*
X7274800Y-5571750D02*
X7274800Y-5671750D01*
X7224800Y-5621750D02*
X7324800Y-5621750D01*
X7224800Y-5063750D02*
X7324800Y-5163750D01*
X7324800Y-5063750D02*
X7224800Y-5163750D01*
X7274800Y-5063750D02*
X7274800Y-5163750D01*
X7224800Y-5113750D02*
X7324800Y-5113750D01*
X7224800Y-5317750D02*
X7324800Y-5417750D01*
X7324800Y-5317750D02*
X7224800Y-5417750D01*
X7274800Y-5317750D02*
X7274800Y-5417750D01*
X7224800Y-5367750D02*
X7324800Y-5367750D01*
X7224800Y-5825750D02*
X7324800Y-5925750D01*
X7324800Y-5825750D02*
X7224800Y-5925750D01*
X7274800Y-5825750D02*
X7274800Y-5925750D01*
X7224800Y-5875750D02*
X7324800Y-5875750D01*
X7224800Y-6079750D02*
X7324800Y-6179750D01*
X7324800Y-6079750D02*
X7224800Y-6179750D01*
X7274800Y-6079750D02*
X7274800Y-6179750D01*
X7224800Y-6129750D02*
X7324800Y-6129750D01*
X7478800Y-5063750D02*
X7578800Y-5163750D01*
X7578800Y-5063750D02*
X7478800Y-5163750D01*
X7528800Y-5063750D02*
X7528800Y-5163750D01*
X7478800Y-5113750D02*
X7578800Y-5113750D01*
X7478800Y-5317750D02*
X7578800Y-5417750D01*
X7578800Y-5317750D02*
X7478800Y-5417750D01*
X7528800Y-5317750D02*
X7528800Y-5417750D01*
X7478800Y-5367750D02*
X7578800Y-5367750D01*
X7478800Y-5825750D02*
X7578800Y-5925750D01*
X7578800Y-5825750D02*
X7478800Y-5925750D01*
X7528800Y-5825750D02*
X7528800Y-5925750D01*
X7478800Y-5875750D02*
X7578800Y-5875750D01*
X7478800Y-6079750D02*
X7578800Y-6179750D01*
X7578800Y-6079750D02*
X7478800Y-6179750D01*
X7528800Y-6079750D02*
X7528800Y-6179750D01*
X7478800Y-6129750D02*
X7578800Y-6129750D01*
X7478800Y-5571750D02*
X7578800Y-5671750D01*
X7578800Y-5571750D02*
X7478800Y-5671750D01*
X7528800Y-5571750D02*
X7528800Y-5671750D01*
X7478800Y-5621750D02*
X7578800Y-5621750D01*
X7582000Y-2388400D02*
X7682000Y-2488400D01*
X7682000Y-2388400D02*
X7582000Y-2488400D01*
X7632000Y-2388400D02*
X7632000Y-2488400D01*
X7582000Y-2438400D02*
X7682000Y-2438400D01*
X7832000Y-2388400D02*
X7932000Y-2488400D01*
X7932000Y-2388400D02*
X7832000Y-2488400D01*
X7882000Y-2388400D02*
X7882000Y-2488400D01*
X7832000Y-2438400D02*
X7932000Y-2438400D01*
X8082000Y-2388400D02*
X8182000Y-2488400D01*
X8182000Y-2388400D02*
X8082000Y-2488400D01*
X8132000Y-2388400D02*
X8132000Y-2488400D01*
X8082000Y-2438400D02*
X8182000Y-2438400D01*
X8332000Y-2388400D02*
X8432000Y-2488400D01*
X8432000Y-2388400D02*
X8332000Y-2488400D01*
X8382000Y-2388400D02*
X8382000Y-2488400D01*
X8332000Y-2438400D02*
X8432000Y-2438400D01*
X8727500Y-4086000D02*
X8827500Y-4186000D01*
X8827500Y-4086000D02*
X8727500Y-4186000D01*
X8777500Y-4086000D02*
X8777500Y-4186000D01*
X8727500Y-4136000D02*
X8827500Y-4136000D01*
X8727500Y-4340000D02*
X8827500Y-4440000D01*
X8827500Y-4340000D02*
X8727500Y-4440000D01*
X8777500Y-4340000D02*
X8777500Y-4440000D01*
X8727500Y-4390000D02*
X8827500Y-4390000D01*
X8727500Y-4594000D02*
X8827500Y-4694000D01*
X8827500Y-4594000D02*
X8727500Y-4694000D01*
X8777500Y-4594000D02*
X8777500Y-4694000D01*
X8727500Y-4644000D02*
X8827500Y-4644000D01*
D11*
X6455877Y-9330984D02*
X6455877Y-9130984D01*
X6455877Y-9130984D02*
X6503496Y-9130984D01*
X6503496Y-9130984D02*
X6532067Y-9140508D01*
X6532067Y-9140508D02*
X6551115Y-9159555D01*
X6551115Y-9159555D02*
X6560639Y-9178603D01*
X6560639Y-9178603D02*
X6570162Y-9216698D01*
X6570162Y-9216698D02*
X6570162Y-9245270D01*
X6570162Y-9245270D02*
X6560639Y-9283365D01*
X6560639Y-9283365D02*
X6551115Y-9302412D01*
X6551115Y-9302412D02*
X6532067Y-9321460D01*
X6532067Y-9321460D02*
X6503496Y-9330984D01*
X6503496Y-9330984D02*
X6455877Y-9330984D01*
X6655877Y-9330984D02*
X6655877Y-9197650D01*
X6655877Y-9235746D02*
X6665401Y-9216698D01*
X6665401Y-9216698D02*
X6674924Y-9207174D01*
X6674924Y-9207174D02*
X6693972Y-9197650D01*
X6693972Y-9197650D02*
X6713020Y-9197650D01*
X6779686Y-9330984D02*
X6779686Y-9197650D01*
X6779686Y-9130984D02*
X6770162Y-9140508D01*
X6770162Y-9140508D02*
X6779686Y-9150031D01*
X6779686Y-9150031D02*
X6789210Y-9140508D01*
X6789210Y-9140508D02*
X6779686Y-9130984D01*
X6779686Y-9130984D02*
X6779686Y-9150031D01*
X6903496Y-9330984D02*
X6884448Y-9321460D01*
X6884448Y-9321460D02*
X6874924Y-9302412D01*
X6874924Y-9302412D02*
X6874924Y-9130984D01*
X7008258Y-9330984D02*
X6989210Y-9321460D01*
X6989210Y-9321460D02*
X6979686Y-9302412D01*
X6979686Y-9302412D02*
X6979686Y-9130984D01*
X7236829Y-9330984D02*
X7236829Y-9130984D01*
X7236829Y-9130984D02*
X7303496Y-9273841D01*
X7303496Y-9273841D02*
X7370162Y-9130984D01*
X7370162Y-9130984D02*
X7370162Y-9330984D01*
X7551115Y-9330984D02*
X7551115Y-9226222D01*
X7551115Y-9226222D02*
X7541591Y-9207174D01*
X7541591Y-9207174D02*
X7522543Y-9197650D01*
X7522543Y-9197650D02*
X7484448Y-9197650D01*
X7484448Y-9197650D02*
X7465401Y-9207174D01*
X7551115Y-9321460D02*
X7532067Y-9330984D01*
X7532067Y-9330984D02*
X7484448Y-9330984D01*
X7484448Y-9330984D02*
X7465401Y-9321460D01*
X7465401Y-9321460D02*
X7455877Y-9302412D01*
X7455877Y-9302412D02*
X7455877Y-9283365D01*
X7455877Y-9283365D02*
X7465401Y-9264317D01*
X7465401Y-9264317D02*
X7484448Y-9254793D01*
X7484448Y-9254793D02*
X7532067Y-9254793D01*
X7532067Y-9254793D02*
X7551115Y-9245270D01*
X7646353Y-9197650D02*
X7646353Y-9397650D01*
X7646353Y-9207174D02*
X7665401Y-9197650D01*
X7665401Y-9197650D02*
X7703496Y-9197650D01*
X7703496Y-9197650D02*
X7722543Y-9207174D01*
X7722543Y-9207174D02*
X7732067Y-9216698D01*
X7732067Y-9216698D02*
X7741591Y-9235746D01*
X7741591Y-9235746D02*
X7741591Y-9292889D01*
X7741591Y-9292889D02*
X7732067Y-9311936D01*
X7732067Y-9311936D02*
X7722543Y-9321460D01*
X7722543Y-9321460D02*
X7703496Y-9330984D01*
X7703496Y-9330984D02*
X7665401Y-9330984D01*
X7665401Y-9330984D02*
X7646353Y-9321460D01*
X7827305Y-9311936D02*
X7836829Y-9321460D01*
X7836829Y-9321460D02*
X7827305Y-9330984D01*
X7827305Y-9330984D02*
X7817782Y-9321460D01*
X7817782Y-9321460D02*
X7827305Y-9311936D01*
X7827305Y-9311936D02*
X7827305Y-9330984D01*
X7827305Y-9207174D02*
X7836829Y-9216698D01*
X7836829Y-9216698D02*
X7827305Y-9226222D01*
X7827305Y-9226222D02*
X7817782Y-9216698D01*
X7817782Y-9216698D02*
X7827305Y-9207174D01*
X7827305Y-9207174D02*
X7827305Y-9226222D01*
D12*
X6165100Y-9644500D02*
X6195100Y-9674500D01*
X6195100Y-9644500D02*
X6165100Y-9674500D01*
D11*
X6493972Y-9550984D02*
X6513020Y-9550984D01*
X6513020Y-9550984D02*
X6532067Y-9560508D01*
X6532067Y-9560508D02*
X6541591Y-9570031D01*
X6541591Y-9570031D02*
X6551115Y-9589079D01*
X6551115Y-9589079D02*
X6560639Y-9627174D01*
X6560639Y-9627174D02*
X6560639Y-9674793D01*
X6560639Y-9674793D02*
X6551115Y-9712889D01*
X6551115Y-9712889D02*
X6541591Y-9731936D01*
X6541591Y-9731936D02*
X6532067Y-9741460D01*
X6532067Y-9741460D02*
X6513020Y-9750984D01*
X6513020Y-9750984D02*
X6493972Y-9750984D01*
X6493972Y-9750984D02*
X6474924Y-9741460D01*
X6474924Y-9741460D02*
X6465401Y-9731936D01*
X6465401Y-9731936D02*
X6455877Y-9712889D01*
X6455877Y-9712889D02*
X6446353Y-9674793D01*
X6446353Y-9674793D02*
X6446353Y-9627174D01*
X6446353Y-9627174D02*
X6455877Y-9589079D01*
X6455877Y-9589079D02*
X6465401Y-9570031D01*
X6465401Y-9570031D02*
X6474924Y-9560508D01*
X6474924Y-9560508D02*
X6493972Y-9550984D01*
X6646353Y-9731936D02*
X6655877Y-9741460D01*
X6655877Y-9741460D02*
X6646353Y-9750984D01*
X6646353Y-9750984D02*
X6636829Y-9741460D01*
X6636829Y-9741460D02*
X6646353Y-9731936D01*
X6646353Y-9731936D02*
X6646353Y-9750984D01*
X6722543Y-9550984D02*
X6846353Y-9550984D01*
X6846353Y-9550984D02*
X6779686Y-9627174D01*
X6779686Y-9627174D02*
X6808258Y-9627174D01*
X6808258Y-9627174D02*
X6827305Y-9636698D01*
X6827305Y-9636698D02*
X6836829Y-9646222D01*
X6836829Y-9646222D02*
X6846353Y-9665270D01*
X6846353Y-9665270D02*
X6846353Y-9712889D01*
X6846353Y-9712889D02*
X6836829Y-9731936D01*
X6836829Y-9731936D02*
X6827305Y-9741460D01*
X6827305Y-9741460D02*
X6808258Y-9750984D01*
X6808258Y-9750984D02*
X6751115Y-9750984D01*
X6751115Y-9750984D02*
X6732067Y-9741460D01*
X6732067Y-9741460D02*
X6722543Y-9731936D01*
X6970162Y-9550984D02*
X6989210Y-9550984D01*
X6989210Y-9550984D02*
X7008258Y-9560508D01*
X7008258Y-9560508D02*
X7017782Y-9570031D01*
X7017782Y-9570031D02*
X7027305Y-9589079D01*
X7027305Y-9589079D02*
X7036829Y-9627174D01*
X7036829Y-9627174D02*
X7036829Y-9674793D01*
X7036829Y-9674793D02*
X7027305Y-9712889D01*
X7027305Y-9712889D02*
X7017782Y-9731936D01*
X7017782Y-9731936D02*
X7008258Y-9741460D01*
X7008258Y-9741460D02*
X6989210Y-9750984D01*
X6989210Y-9750984D02*
X6970162Y-9750984D01*
X6970162Y-9750984D02*
X6951115Y-9741460D01*
X6951115Y-9741460D02*
X6941591Y-9731936D01*
X6941591Y-9731936D02*
X6932067Y-9712889D01*
X6932067Y-9712889D02*
X6922543Y-9674793D01*
X6922543Y-9674793D02*
X6922543Y-9627174D01*
X6922543Y-9627174D02*
X6932067Y-9589079D01*
X6932067Y-9589079D02*
X6941591Y-9570031D01*
X6941591Y-9570031D02*
X6951115Y-9560508D01*
X6951115Y-9560508D02*
X6970162Y-9550984D01*
X7160639Y-9550984D02*
X7179686Y-9550984D01*
X7179686Y-9550984D02*
X7198734Y-9560508D01*
X7198734Y-9560508D02*
X7208258Y-9570031D01*
X7208258Y-9570031D02*
X7217782Y-9589079D01*
X7217782Y-9589079D02*
X7227305Y-9627174D01*
X7227305Y-9627174D02*
X7227305Y-9674793D01*
X7227305Y-9674793D02*
X7217782Y-9712889D01*
X7217782Y-9712889D02*
X7208258Y-9731936D01*
X7208258Y-9731936D02*
X7198734Y-9741460D01*
X7198734Y-9741460D02*
X7179686Y-9750984D01*
X7179686Y-9750984D02*
X7160639Y-9750984D01*
X7160639Y-9750984D02*
X7141591Y-9741460D01*
X7141591Y-9741460D02*
X7132067Y-9731936D01*
X7132067Y-9731936D02*
X7122543Y-9712889D01*
X7122543Y-9712889D02*
X7113020Y-9674793D01*
X7113020Y-9674793D02*
X7113020Y-9627174D01*
X7113020Y-9627174D02*
X7122543Y-9589079D01*
X7122543Y-9589079D02*
X7132067Y-9570031D01*
X7132067Y-9570031D02*
X7141591Y-9560508D01*
X7141591Y-9560508D02*
X7160639Y-9550984D01*
X7313020Y-9750984D02*
X7313020Y-9617650D01*
X7313020Y-9636698D02*
X7322543Y-9627174D01*
X7322543Y-9627174D02*
X7341591Y-9617650D01*
X7341591Y-9617650D02*
X7370163Y-9617650D01*
X7370163Y-9617650D02*
X7389210Y-9627174D01*
X7389210Y-9627174D02*
X7398734Y-9646222D01*
X7398734Y-9646222D02*
X7398734Y-9750984D01*
X7398734Y-9646222D02*
X7408258Y-9627174D01*
X7408258Y-9627174D02*
X7427305Y-9617650D01*
X7427305Y-9617650D02*
X7455877Y-9617650D01*
X7455877Y-9617650D02*
X7474924Y-9627174D01*
X7474924Y-9627174D02*
X7484448Y-9646222D01*
X7484448Y-9646222D02*
X7484448Y-9750984D01*
X7579686Y-9750984D02*
X7579686Y-9617650D01*
X7579686Y-9636698D02*
X7589210Y-9627174D01*
X7589210Y-9627174D02*
X7608258Y-9617650D01*
X7608258Y-9617650D02*
X7636829Y-9617650D01*
X7636829Y-9617650D02*
X7655877Y-9627174D01*
X7655877Y-9627174D02*
X7665401Y-9646222D01*
X7665401Y-9646222D02*
X7665401Y-9750984D01*
X7665401Y-9646222D02*
X7674924Y-9627174D01*
X7674924Y-9627174D02*
X7693972Y-9617650D01*
X7693972Y-9617650D02*
X7722543Y-9617650D01*
X7722543Y-9617650D02*
X7741591Y-9627174D01*
X7741591Y-9627174D02*
X7751115Y-9646222D01*
X7751115Y-9646222D02*
X7751115Y-9750984D01*
X8141591Y-9541460D02*
X7970163Y-9798603D01*
X8398734Y-9550984D02*
X8417782Y-9550984D01*
X8417782Y-9550984D02*
X8436829Y-9560508D01*
X8436829Y-9560508D02*
X8446353Y-9570031D01*
X8446353Y-9570031D02*
X8455877Y-9589079D01*
X8455877Y-9589079D02*
X8465401Y-9627174D01*
X8465401Y-9627174D02*
X8465401Y-9674793D01*
X8465401Y-9674793D02*
X8455877Y-9712889D01*
X8455877Y-9712889D02*
X8446353Y-9731936D01*
X8446353Y-9731936D02*
X8436829Y-9741460D01*
X8436829Y-9741460D02*
X8417782Y-9750984D01*
X8417782Y-9750984D02*
X8398734Y-9750984D01*
X8398734Y-9750984D02*
X8379686Y-9741460D01*
X8379686Y-9741460D02*
X8370163Y-9731936D01*
X8370163Y-9731936D02*
X8360639Y-9712889D01*
X8360639Y-9712889D02*
X8351115Y-9674793D01*
X8351115Y-9674793D02*
X8351115Y-9627174D01*
X8351115Y-9627174D02*
X8360639Y-9589079D01*
X8360639Y-9589079D02*
X8370163Y-9570031D01*
X8370163Y-9570031D02*
X8379686Y-9560508D01*
X8379686Y-9560508D02*
X8398734Y-9550984D01*
X8551115Y-9731936D02*
X8560639Y-9741460D01*
X8560639Y-9741460D02*
X8551115Y-9750984D01*
X8551115Y-9750984D02*
X8541591Y-9741460D01*
X8541591Y-9741460D02*
X8551115Y-9731936D01*
X8551115Y-9731936D02*
X8551115Y-9750984D01*
X8684448Y-9550984D02*
X8703496Y-9550984D01*
X8703496Y-9550984D02*
X8722544Y-9560508D01*
X8722544Y-9560508D02*
X8732068Y-9570031D01*
X8732068Y-9570031D02*
X8741591Y-9589079D01*
X8741591Y-9589079D02*
X8751115Y-9627174D01*
X8751115Y-9627174D02*
X8751115Y-9674793D01*
X8751115Y-9674793D02*
X8741591Y-9712889D01*
X8741591Y-9712889D02*
X8732068Y-9731936D01*
X8732068Y-9731936D02*
X8722544Y-9741460D01*
X8722544Y-9741460D02*
X8703496Y-9750984D01*
X8703496Y-9750984D02*
X8684448Y-9750984D01*
X8684448Y-9750984D02*
X8665401Y-9741460D01*
X8665401Y-9741460D02*
X8655877Y-9731936D01*
X8655877Y-9731936D02*
X8646353Y-9712889D01*
X8646353Y-9712889D02*
X8636829Y-9674793D01*
X8636829Y-9674793D02*
X8636829Y-9627174D01*
X8636829Y-9627174D02*
X8646353Y-9589079D01*
X8646353Y-9589079D02*
X8655877Y-9570031D01*
X8655877Y-9570031D02*
X8665401Y-9560508D01*
X8665401Y-9560508D02*
X8684448Y-9550984D01*
X8941591Y-9750984D02*
X8827306Y-9750984D01*
X8884448Y-9750984D02*
X8884448Y-9550984D01*
X8884448Y-9550984D02*
X8865401Y-9579555D01*
X8865401Y-9579555D02*
X8846353Y-9598603D01*
X8846353Y-9598603D02*
X8827306Y-9608127D01*
X9132068Y-9750984D02*
X9017782Y-9750984D01*
X9074925Y-9750984D02*
X9074925Y-9550984D01*
X9074925Y-9550984D02*
X9055877Y-9579555D01*
X9055877Y-9579555D02*
X9036829Y-9598603D01*
X9036829Y-9598603D02*
X9017782Y-9608127D01*
X9246353Y-9636698D02*
X9227306Y-9627174D01*
X9227306Y-9627174D02*
X9217782Y-9617650D01*
X9217782Y-9617650D02*
X9208258Y-9598603D01*
X9208258Y-9598603D02*
X9208258Y-9589079D01*
X9208258Y-9589079D02*
X9217782Y-9570031D01*
X9217782Y-9570031D02*
X9227306Y-9560508D01*
X9227306Y-9560508D02*
X9246353Y-9550984D01*
X9246353Y-9550984D02*
X9284449Y-9550984D01*
X9284449Y-9550984D02*
X9303496Y-9560508D01*
X9303496Y-9560508D02*
X9313020Y-9570031D01*
X9313020Y-9570031D02*
X9322544Y-9589079D01*
X9322544Y-9589079D02*
X9322544Y-9598603D01*
X9322544Y-9598603D02*
X9313020Y-9617650D01*
X9313020Y-9617650D02*
X9303496Y-9627174D01*
X9303496Y-9627174D02*
X9284449Y-9636698D01*
X9284449Y-9636698D02*
X9246353Y-9636698D01*
X9246353Y-9636698D02*
X9227306Y-9646222D01*
X9227306Y-9646222D02*
X9217782Y-9655746D01*
X9217782Y-9655746D02*
X9208258Y-9674793D01*
X9208258Y-9674793D02*
X9208258Y-9712889D01*
X9208258Y-9712889D02*
X9217782Y-9731936D01*
X9217782Y-9731936D02*
X9227306Y-9741460D01*
X9227306Y-9741460D02*
X9246353Y-9750984D01*
X9246353Y-9750984D02*
X9284449Y-9750984D01*
X9284449Y-9750984D02*
X9303496Y-9741460D01*
X9303496Y-9741460D02*
X9313020Y-9731936D01*
X9313020Y-9731936D02*
X9322544Y-9712889D01*
X9322544Y-9712889D02*
X9322544Y-9674793D01*
X9322544Y-9674793D02*
X9313020Y-9655746D01*
X9313020Y-9655746D02*
X9303496Y-9646222D01*
X9303496Y-9646222D02*
X9284449Y-9636698D01*
X9398734Y-9550984D02*
X9398734Y-9589079D01*
X9474925Y-9550984D02*
X9474925Y-9589079D01*
X9770163Y-9827174D02*
X9760639Y-9817650D01*
X9760639Y-9817650D02*
X9741591Y-9789079D01*
X9741591Y-9789079D02*
X9732068Y-9770031D01*
X9732068Y-9770031D02*
X9722544Y-9741460D01*
X9722544Y-9741460D02*
X9713020Y-9693841D01*
X9713020Y-9693841D02*
X9713020Y-9655746D01*
X9713020Y-9655746D02*
X9722544Y-9608127D01*
X9722544Y-9608127D02*
X9732068Y-9579555D01*
X9732068Y-9579555D02*
X9741591Y-9560508D01*
X9741591Y-9560508D02*
X9760639Y-9531936D01*
X9760639Y-9531936D02*
X9770163Y-9522412D01*
X9855877Y-9750984D02*
X9893972Y-9750984D01*
X9893972Y-9750984D02*
X9913020Y-9741460D01*
X9913020Y-9741460D02*
X9922544Y-9731936D01*
X9922544Y-9731936D02*
X9941591Y-9703365D01*
X9941591Y-9703365D02*
X9951115Y-9665270D01*
X9951115Y-9665270D02*
X9951115Y-9589079D01*
X9951115Y-9589079D02*
X9941591Y-9570031D01*
X9941591Y-9570031D02*
X9932068Y-9560508D01*
X9932068Y-9560508D02*
X9913020Y-9550984D01*
X9913020Y-9550984D02*
X9874925Y-9550984D01*
X9874925Y-9550984D02*
X9855877Y-9560508D01*
X9855877Y-9560508D02*
X9846353Y-9570031D01*
X9846353Y-9570031D02*
X9836830Y-9589079D01*
X9836830Y-9589079D02*
X9836830Y-9636698D01*
X9836830Y-9636698D02*
X9846353Y-9655746D01*
X9846353Y-9655746D02*
X9855877Y-9665270D01*
X9855877Y-9665270D02*
X9874925Y-9674793D01*
X9874925Y-9674793D02*
X9913020Y-9674793D01*
X9913020Y-9674793D02*
X9932068Y-9665270D01*
X9932068Y-9665270D02*
X9941591Y-9655746D01*
X9941591Y-9655746D02*
X9951115Y-9636698D01*
X10017782Y-9550984D02*
X10151115Y-9550984D01*
X10151115Y-9550984D02*
X10065401Y-9750984D01*
X10379687Y-9750984D02*
X10379687Y-9550984D01*
X10465401Y-9750984D02*
X10465401Y-9646222D01*
X10465401Y-9646222D02*
X10455877Y-9627174D01*
X10455877Y-9627174D02*
X10436830Y-9617650D01*
X10436830Y-9617650D02*
X10408258Y-9617650D01*
X10408258Y-9617650D02*
X10389211Y-9627174D01*
X10389211Y-9627174D02*
X10379687Y-9636698D01*
X10589211Y-9750984D02*
X10570163Y-9741460D01*
X10570163Y-9741460D02*
X10560639Y-9731936D01*
X10560639Y-9731936D02*
X10551115Y-9712889D01*
X10551115Y-9712889D02*
X10551115Y-9655746D01*
X10551115Y-9655746D02*
X10560639Y-9636698D01*
X10560639Y-9636698D02*
X10570163Y-9627174D01*
X10570163Y-9627174D02*
X10589211Y-9617650D01*
X10589211Y-9617650D02*
X10617782Y-9617650D01*
X10617782Y-9617650D02*
X10636830Y-9627174D01*
X10636830Y-9627174D02*
X10646353Y-9636698D01*
X10646353Y-9636698D02*
X10655877Y-9655746D01*
X10655877Y-9655746D02*
X10655877Y-9712889D01*
X10655877Y-9712889D02*
X10646353Y-9731936D01*
X10646353Y-9731936D02*
X10636830Y-9741460D01*
X10636830Y-9741460D02*
X10617782Y-9750984D01*
X10617782Y-9750984D02*
X10589211Y-9750984D01*
X10770163Y-9750984D02*
X10751115Y-9741460D01*
X10751115Y-9741460D02*
X10741592Y-9722412D01*
X10741592Y-9722412D02*
X10741592Y-9550984D01*
X10922544Y-9741460D02*
X10903496Y-9750984D01*
X10903496Y-9750984D02*
X10865401Y-9750984D01*
X10865401Y-9750984D02*
X10846353Y-9741460D01*
X10846353Y-9741460D02*
X10836830Y-9722412D01*
X10836830Y-9722412D02*
X10836830Y-9646222D01*
X10836830Y-9646222D02*
X10846353Y-9627174D01*
X10846353Y-9627174D02*
X10865401Y-9617650D01*
X10865401Y-9617650D02*
X10903496Y-9617650D01*
X10903496Y-9617650D02*
X10922544Y-9627174D01*
X10922544Y-9627174D02*
X10932068Y-9646222D01*
X10932068Y-9646222D02*
X10932068Y-9665270D01*
X10932068Y-9665270D02*
X10836830Y-9684317D01*
X11008258Y-9741460D02*
X11027306Y-9750984D01*
X11027306Y-9750984D02*
X11065401Y-9750984D01*
X11065401Y-9750984D02*
X11084449Y-9741460D01*
X11084449Y-9741460D02*
X11093973Y-9722412D01*
X11093973Y-9722412D02*
X11093973Y-9712889D01*
X11093973Y-9712889D02*
X11084449Y-9693841D01*
X11084449Y-9693841D02*
X11065401Y-9684317D01*
X11065401Y-9684317D02*
X11036830Y-9684317D01*
X11036830Y-9684317D02*
X11017782Y-9674793D01*
X11017782Y-9674793D02*
X11008258Y-9655746D01*
X11008258Y-9655746D02*
X11008258Y-9646222D01*
X11008258Y-9646222D02*
X11017782Y-9627174D01*
X11017782Y-9627174D02*
X11036830Y-9617650D01*
X11036830Y-9617650D02*
X11065401Y-9617650D01*
X11065401Y-9617650D02*
X11084449Y-9627174D01*
X11160639Y-9827174D02*
X11170163Y-9817650D01*
X11170163Y-9817650D02*
X11189211Y-9789079D01*
X11189211Y-9789079D02*
X11198734Y-9770031D01*
X11198734Y-9770031D02*
X11208258Y-9741460D01*
X11208258Y-9741460D02*
X11217782Y-9693841D01*
X11217782Y-9693841D02*
X11217782Y-9655746D01*
X11217782Y-9655746D02*
X11208258Y-9608127D01*
X11208258Y-9608127D02*
X11198734Y-9579555D01*
X11198734Y-9579555D02*
X11189211Y-9560508D01*
X11189211Y-9560508D02*
X11170163Y-9531936D01*
X11170163Y-9531936D02*
X11160639Y-9522412D01*
D12*
X6195100Y-9923500D02*
G75*
G02*
X6160100Y-9923500I-17500J0D01*
G01*
X6160100Y-9923500D02*
G75*
G02*
X6195100Y-9923500I17500J0D01*
G01*
D11*
X6493972Y-9814984D02*
X6513020Y-9814984D01*
X6513020Y-9814984D02*
X6532067Y-9824508D01*
X6532067Y-9824508D02*
X6541591Y-9834031D01*
X6541591Y-9834031D02*
X6551115Y-9853079D01*
X6551115Y-9853079D02*
X6560639Y-9891174D01*
X6560639Y-9891174D02*
X6560639Y-9938793D01*
X6560639Y-9938793D02*
X6551115Y-9976889D01*
X6551115Y-9976889D02*
X6541591Y-9995936D01*
X6541591Y-9995936D02*
X6532067Y-10005460D01*
X6532067Y-10005460D02*
X6513020Y-10014984D01*
X6513020Y-10014984D02*
X6493972Y-10014984D01*
X6493972Y-10014984D02*
X6474924Y-10005460D01*
X6474924Y-10005460D02*
X6465401Y-9995936D01*
X6465401Y-9995936D02*
X6455877Y-9976889D01*
X6455877Y-9976889D02*
X6446353Y-9938793D01*
X6446353Y-9938793D02*
X6446353Y-9891174D01*
X6446353Y-9891174D02*
X6455877Y-9853079D01*
X6455877Y-9853079D02*
X6465401Y-9834031D01*
X6465401Y-9834031D02*
X6474924Y-9824508D01*
X6474924Y-9824508D02*
X6493972Y-9814984D01*
X6646353Y-9995936D02*
X6655877Y-10005460D01*
X6655877Y-10005460D02*
X6646353Y-10014984D01*
X6646353Y-10014984D02*
X6636829Y-10005460D01*
X6636829Y-10005460D02*
X6646353Y-9995936D01*
X6646353Y-9995936D02*
X6646353Y-10014984D01*
X6722543Y-9814984D02*
X6846353Y-9814984D01*
X6846353Y-9814984D02*
X6779686Y-9891174D01*
X6779686Y-9891174D02*
X6808258Y-9891174D01*
X6808258Y-9891174D02*
X6827305Y-9900698D01*
X6827305Y-9900698D02*
X6836829Y-9910222D01*
X6836829Y-9910222D02*
X6846353Y-9929270D01*
X6846353Y-9929270D02*
X6846353Y-9976889D01*
X6846353Y-9976889D02*
X6836829Y-9995936D01*
X6836829Y-9995936D02*
X6827305Y-10005460D01*
X6827305Y-10005460D02*
X6808258Y-10014984D01*
X6808258Y-10014984D02*
X6751115Y-10014984D01*
X6751115Y-10014984D02*
X6732067Y-10005460D01*
X6732067Y-10005460D02*
X6722543Y-9995936D01*
X7027305Y-9814984D02*
X6932067Y-9814984D01*
X6932067Y-9814984D02*
X6922543Y-9910222D01*
X6922543Y-9910222D02*
X6932067Y-9900698D01*
X6932067Y-9900698D02*
X6951115Y-9891174D01*
X6951115Y-9891174D02*
X6998734Y-9891174D01*
X6998734Y-9891174D02*
X7017782Y-9900698D01*
X7017782Y-9900698D02*
X7027305Y-9910222D01*
X7027305Y-9910222D02*
X7036829Y-9929270D01*
X7036829Y-9929270D02*
X7036829Y-9976889D01*
X7036829Y-9976889D02*
X7027305Y-9995936D01*
X7027305Y-9995936D02*
X7017782Y-10005460D01*
X7017782Y-10005460D02*
X6998734Y-10014984D01*
X6998734Y-10014984D02*
X6951115Y-10014984D01*
X6951115Y-10014984D02*
X6932067Y-10005460D01*
X6932067Y-10005460D02*
X6922543Y-9995936D01*
X7160639Y-9814984D02*
X7179686Y-9814984D01*
X7179686Y-9814984D02*
X7198734Y-9824508D01*
X7198734Y-9824508D02*
X7208258Y-9834031D01*
X7208258Y-9834031D02*
X7217782Y-9853079D01*
X7217782Y-9853079D02*
X7227305Y-9891174D01*
X7227305Y-9891174D02*
X7227305Y-9938793D01*
X7227305Y-9938793D02*
X7217782Y-9976889D01*
X7217782Y-9976889D02*
X7208258Y-9995936D01*
X7208258Y-9995936D02*
X7198734Y-10005460D01*
X7198734Y-10005460D02*
X7179686Y-10014984D01*
X7179686Y-10014984D02*
X7160639Y-10014984D01*
X7160639Y-10014984D02*
X7141591Y-10005460D01*
X7141591Y-10005460D02*
X7132067Y-9995936D01*
X7132067Y-9995936D02*
X7122543Y-9976889D01*
X7122543Y-9976889D02*
X7113020Y-9938793D01*
X7113020Y-9938793D02*
X7113020Y-9891174D01*
X7113020Y-9891174D02*
X7122543Y-9853079D01*
X7122543Y-9853079D02*
X7132067Y-9834031D01*
X7132067Y-9834031D02*
X7141591Y-9824508D01*
X7141591Y-9824508D02*
X7160639Y-9814984D01*
X7313020Y-10014984D02*
X7313020Y-9881650D01*
X7313020Y-9900698D02*
X7322543Y-9891174D01*
X7322543Y-9891174D02*
X7341591Y-9881650D01*
X7341591Y-9881650D02*
X7370163Y-9881650D01*
X7370163Y-9881650D02*
X7389210Y-9891174D01*
X7389210Y-9891174D02*
X7398734Y-9910222D01*
X7398734Y-9910222D02*
X7398734Y-10014984D01*
X7398734Y-9910222D02*
X7408258Y-9891174D01*
X7408258Y-9891174D02*
X7427305Y-9881650D01*
X7427305Y-9881650D02*
X7455877Y-9881650D01*
X7455877Y-9881650D02*
X7474924Y-9891174D01*
X7474924Y-9891174D02*
X7484448Y-9910222D01*
X7484448Y-9910222D02*
X7484448Y-10014984D01*
X7579686Y-10014984D02*
X7579686Y-9881650D01*
X7579686Y-9900698D02*
X7589210Y-9891174D01*
X7589210Y-9891174D02*
X7608258Y-9881650D01*
X7608258Y-9881650D02*
X7636829Y-9881650D01*
X7636829Y-9881650D02*
X7655877Y-9891174D01*
X7655877Y-9891174D02*
X7665401Y-9910222D01*
X7665401Y-9910222D02*
X7665401Y-10014984D01*
X7665401Y-9910222D02*
X7674924Y-9891174D01*
X7674924Y-9891174D02*
X7693972Y-9881650D01*
X7693972Y-9881650D02*
X7722543Y-9881650D01*
X7722543Y-9881650D02*
X7741591Y-9891174D01*
X7741591Y-9891174D02*
X7751115Y-9910222D01*
X7751115Y-9910222D02*
X7751115Y-10014984D01*
X8141591Y-9805460D02*
X7970163Y-10062603D01*
X8398734Y-9814984D02*
X8417782Y-9814984D01*
X8417782Y-9814984D02*
X8436829Y-9824508D01*
X8436829Y-9824508D02*
X8446353Y-9834031D01*
X8446353Y-9834031D02*
X8455877Y-9853079D01*
X8455877Y-9853079D02*
X8465401Y-9891174D01*
X8465401Y-9891174D02*
X8465401Y-9938793D01*
X8465401Y-9938793D02*
X8455877Y-9976889D01*
X8455877Y-9976889D02*
X8446353Y-9995936D01*
X8446353Y-9995936D02*
X8436829Y-10005460D01*
X8436829Y-10005460D02*
X8417782Y-10014984D01*
X8417782Y-10014984D02*
X8398734Y-10014984D01*
X8398734Y-10014984D02*
X8379686Y-10005460D01*
X8379686Y-10005460D02*
X8370163Y-9995936D01*
X8370163Y-9995936D02*
X8360639Y-9976889D01*
X8360639Y-9976889D02*
X8351115Y-9938793D01*
X8351115Y-9938793D02*
X8351115Y-9891174D01*
X8351115Y-9891174D02*
X8360639Y-9853079D01*
X8360639Y-9853079D02*
X8370163Y-9834031D01*
X8370163Y-9834031D02*
X8379686Y-9824508D01*
X8379686Y-9824508D02*
X8398734Y-9814984D01*
X8551115Y-9995936D02*
X8560639Y-10005460D01*
X8560639Y-10005460D02*
X8551115Y-10014984D01*
X8551115Y-10014984D02*
X8541591Y-10005460D01*
X8541591Y-10005460D02*
X8551115Y-9995936D01*
X8551115Y-9995936D02*
X8551115Y-10014984D01*
X8684448Y-9814984D02*
X8703496Y-9814984D01*
X8703496Y-9814984D02*
X8722544Y-9824508D01*
X8722544Y-9824508D02*
X8732068Y-9834031D01*
X8732068Y-9834031D02*
X8741591Y-9853079D01*
X8741591Y-9853079D02*
X8751115Y-9891174D01*
X8751115Y-9891174D02*
X8751115Y-9938793D01*
X8751115Y-9938793D02*
X8741591Y-9976889D01*
X8741591Y-9976889D02*
X8732068Y-9995936D01*
X8732068Y-9995936D02*
X8722544Y-10005460D01*
X8722544Y-10005460D02*
X8703496Y-10014984D01*
X8703496Y-10014984D02*
X8684448Y-10014984D01*
X8684448Y-10014984D02*
X8665401Y-10005460D01*
X8665401Y-10005460D02*
X8655877Y-9995936D01*
X8655877Y-9995936D02*
X8646353Y-9976889D01*
X8646353Y-9976889D02*
X8636829Y-9938793D01*
X8636829Y-9938793D02*
X8636829Y-9891174D01*
X8636829Y-9891174D02*
X8646353Y-9853079D01*
X8646353Y-9853079D02*
X8655877Y-9834031D01*
X8655877Y-9834031D02*
X8665401Y-9824508D01*
X8665401Y-9824508D02*
X8684448Y-9814984D01*
X8941591Y-10014984D02*
X8827306Y-10014984D01*
X8884448Y-10014984D02*
X8884448Y-9814984D01*
X8884448Y-9814984D02*
X8865401Y-9843555D01*
X8865401Y-9843555D02*
X8846353Y-9862603D01*
X8846353Y-9862603D02*
X8827306Y-9872127D01*
X9008258Y-9814984D02*
X9132068Y-9814984D01*
X9132068Y-9814984D02*
X9065401Y-9891174D01*
X9065401Y-9891174D02*
X9093972Y-9891174D01*
X9093972Y-9891174D02*
X9113020Y-9900698D01*
X9113020Y-9900698D02*
X9122544Y-9910222D01*
X9122544Y-9910222D02*
X9132068Y-9929270D01*
X9132068Y-9929270D02*
X9132068Y-9976889D01*
X9132068Y-9976889D02*
X9122544Y-9995936D01*
X9122544Y-9995936D02*
X9113020Y-10005460D01*
X9113020Y-10005460D02*
X9093972Y-10014984D01*
X9093972Y-10014984D02*
X9036829Y-10014984D01*
X9036829Y-10014984D02*
X9017782Y-10005460D01*
X9017782Y-10005460D02*
X9008258Y-9995936D01*
X9246353Y-9900698D02*
X9227306Y-9891174D01*
X9227306Y-9891174D02*
X9217782Y-9881650D01*
X9217782Y-9881650D02*
X9208258Y-9862603D01*
X9208258Y-9862603D02*
X9208258Y-9853079D01*
X9208258Y-9853079D02*
X9217782Y-9834031D01*
X9217782Y-9834031D02*
X9227306Y-9824508D01*
X9227306Y-9824508D02*
X9246353Y-9814984D01*
X9246353Y-9814984D02*
X9284449Y-9814984D01*
X9284449Y-9814984D02*
X9303496Y-9824508D01*
X9303496Y-9824508D02*
X9313020Y-9834031D01*
X9313020Y-9834031D02*
X9322544Y-9853079D01*
X9322544Y-9853079D02*
X9322544Y-9862603D01*
X9322544Y-9862603D02*
X9313020Y-9881650D01*
X9313020Y-9881650D02*
X9303496Y-9891174D01*
X9303496Y-9891174D02*
X9284449Y-9900698D01*
X9284449Y-9900698D02*
X9246353Y-9900698D01*
X9246353Y-9900698D02*
X9227306Y-9910222D01*
X9227306Y-9910222D02*
X9217782Y-9919746D01*
X9217782Y-9919746D02*
X9208258Y-9938793D01*
X9208258Y-9938793D02*
X9208258Y-9976889D01*
X9208258Y-9976889D02*
X9217782Y-9995936D01*
X9217782Y-9995936D02*
X9227306Y-10005460D01*
X9227306Y-10005460D02*
X9246353Y-10014984D01*
X9246353Y-10014984D02*
X9284449Y-10014984D01*
X9284449Y-10014984D02*
X9303496Y-10005460D01*
X9303496Y-10005460D02*
X9313020Y-9995936D01*
X9313020Y-9995936D02*
X9322544Y-9976889D01*
X9322544Y-9976889D02*
X9322544Y-9938793D01*
X9322544Y-9938793D02*
X9313020Y-9919746D01*
X9313020Y-9919746D02*
X9303496Y-9910222D01*
X9303496Y-9910222D02*
X9284449Y-9900698D01*
X9398734Y-9814984D02*
X9398734Y-9853079D01*
X9474925Y-9814984D02*
X9474925Y-9853079D01*
X9770163Y-10091174D02*
X9760639Y-10081650D01*
X9760639Y-10081650D02*
X9741591Y-10053079D01*
X9741591Y-10053079D02*
X9732068Y-10034031D01*
X9732068Y-10034031D02*
X9722544Y-10005460D01*
X9722544Y-10005460D02*
X9713020Y-9957841D01*
X9713020Y-9957841D02*
X9713020Y-9919746D01*
X9713020Y-9919746D02*
X9722544Y-9872127D01*
X9722544Y-9872127D02*
X9732068Y-9843555D01*
X9732068Y-9843555D02*
X9741591Y-9824508D01*
X9741591Y-9824508D02*
X9760639Y-9795936D01*
X9760639Y-9795936D02*
X9770163Y-9786412D01*
X9836830Y-9834031D02*
X9846353Y-9824508D01*
X9846353Y-9824508D02*
X9865401Y-9814984D01*
X9865401Y-9814984D02*
X9913020Y-9814984D01*
X9913020Y-9814984D02*
X9932068Y-9824508D01*
X9932068Y-9824508D02*
X9941591Y-9834031D01*
X9941591Y-9834031D02*
X9951115Y-9853079D01*
X9951115Y-9853079D02*
X9951115Y-9872127D01*
X9951115Y-9872127D02*
X9941591Y-9900698D01*
X9941591Y-9900698D02*
X9827306Y-10014984D01*
X9827306Y-10014984D02*
X9951115Y-10014984D01*
X10189211Y-10014984D02*
X10189211Y-9814984D01*
X10274925Y-10014984D02*
X10274925Y-9910222D01*
X10274925Y-9910222D02*
X10265401Y-9891174D01*
X10265401Y-9891174D02*
X10246353Y-9881650D01*
X10246353Y-9881650D02*
X10217782Y-9881650D01*
X10217782Y-9881650D02*
X10198734Y-9891174D01*
X10198734Y-9891174D02*
X10189211Y-9900698D01*
X10398734Y-10014984D02*
X10379687Y-10005460D01*
X10379687Y-10005460D02*
X10370163Y-9995936D01*
X10370163Y-9995936D02*
X10360639Y-9976889D01*
X10360639Y-9976889D02*
X10360639Y-9919746D01*
X10360639Y-9919746D02*
X10370163Y-9900698D01*
X10370163Y-9900698D02*
X10379687Y-9891174D01*
X10379687Y-9891174D02*
X10398734Y-9881650D01*
X10398734Y-9881650D02*
X10427306Y-9881650D01*
X10427306Y-9881650D02*
X10446353Y-9891174D01*
X10446353Y-9891174D02*
X10455877Y-9900698D01*
X10455877Y-9900698D02*
X10465401Y-9919746D01*
X10465401Y-9919746D02*
X10465401Y-9976889D01*
X10465401Y-9976889D02*
X10455877Y-9995936D01*
X10455877Y-9995936D02*
X10446353Y-10005460D01*
X10446353Y-10005460D02*
X10427306Y-10014984D01*
X10427306Y-10014984D02*
X10398734Y-10014984D01*
X10579687Y-10014984D02*
X10560639Y-10005460D01*
X10560639Y-10005460D02*
X10551115Y-9986412D01*
X10551115Y-9986412D02*
X10551115Y-9814984D01*
X10732068Y-10005460D02*
X10713020Y-10014984D01*
X10713020Y-10014984D02*
X10674925Y-10014984D01*
X10674925Y-10014984D02*
X10655877Y-10005460D01*
X10655877Y-10005460D02*
X10646353Y-9986412D01*
X10646353Y-9986412D02*
X10646353Y-9910222D01*
X10646353Y-9910222D02*
X10655877Y-9891174D01*
X10655877Y-9891174D02*
X10674925Y-9881650D01*
X10674925Y-9881650D02*
X10713020Y-9881650D01*
X10713020Y-9881650D02*
X10732068Y-9891174D01*
X10732068Y-9891174D02*
X10741592Y-9910222D01*
X10741592Y-9910222D02*
X10741592Y-9929270D01*
X10741592Y-9929270D02*
X10646353Y-9948317D01*
X10817782Y-10005460D02*
X10836830Y-10014984D01*
X10836830Y-10014984D02*
X10874925Y-10014984D01*
X10874925Y-10014984D02*
X10893973Y-10005460D01*
X10893973Y-10005460D02*
X10903496Y-9986412D01*
X10903496Y-9986412D02*
X10903496Y-9976889D01*
X10903496Y-9976889D02*
X10893973Y-9957841D01*
X10893973Y-9957841D02*
X10874925Y-9948317D01*
X10874925Y-9948317D02*
X10846353Y-9948317D01*
X10846353Y-9948317D02*
X10827306Y-9938793D01*
X10827306Y-9938793D02*
X10817782Y-9919746D01*
X10817782Y-9919746D02*
X10817782Y-9910222D01*
X10817782Y-9910222D02*
X10827306Y-9891174D01*
X10827306Y-9891174D02*
X10846353Y-9881650D01*
X10846353Y-9881650D02*
X10874925Y-9881650D01*
X10874925Y-9881650D02*
X10893973Y-9891174D01*
X10970163Y-10091174D02*
X10979687Y-10081650D01*
X10979687Y-10081650D02*
X10998734Y-10053079D01*
X10998734Y-10053079D02*
X11008258Y-10034031D01*
X11008258Y-10034031D02*
X11017782Y-10005460D01*
X11017782Y-10005460D02*
X11027306Y-9957841D01*
X11027306Y-9957841D02*
X11027306Y-9919746D01*
X11027306Y-9919746D02*
X11017782Y-9872127D01*
X11017782Y-9872127D02*
X11008258Y-9843555D01*
X11008258Y-9843555D02*
X10998734Y-9824508D01*
X10998734Y-9824508D02*
X10979687Y-9795936D01*
X10979687Y-9795936D02*
X10970163Y-9786412D01*
D12*
X6175100Y-10167500D02*
X6175100Y-10207500D01*
X6155100Y-10187500D02*
X6195100Y-10187500D01*
D11*
X6493972Y-10078984D02*
X6513020Y-10078984D01*
X6513020Y-10078984D02*
X6532067Y-10088508D01*
X6532067Y-10088508D02*
X6541591Y-10098031D01*
X6541591Y-10098031D02*
X6551115Y-10117079D01*
X6551115Y-10117079D02*
X6560639Y-10155174D01*
X6560639Y-10155174D02*
X6560639Y-10202793D01*
X6560639Y-10202793D02*
X6551115Y-10240889D01*
X6551115Y-10240889D02*
X6541591Y-10259936D01*
X6541591Y-10259936D02*
X6532067Y-10269460D01*
X6532067Y-10269460D02*
X6513020Y-10278984D01*
X6513020Y-10278984D02*
X6493972Y-10278984D01*
X6493972Y-10278984D02*
X6474924Y-10269460D01*
X6474924Y-10269460D02*
X6465401Y-10259936D01*
X6465401Y-10259936D02*
X6455877Y-10240889D01*
X6455877Y-10240889D02*
X6446353Y-10202793D01*
X6446353Y-10202793D02*
X6446353Y-10155174D01*
X6446353Y-10155174D02*
X6455877Y-10117079D01*
X6455877Y-10117079D02*
X6465401Y-10098031D01*
X6465401Y-10098031D02*
X6474924Y-10088508D01*
X6474924Y-10088508D02*
X6493972Y-10078984D01*
X6646353Y-10259936D02*
X6655877Y-10269460D01*
X6655877Y-10269460D02*
X6646353Y-10278984D01*
X6646353Y-10278984D02*
X6636829Y-10269460D01*
X6636829Y-10269460D02*
X6646353Y-10259936D01*
X6646353Y-10259936D02*
X6646353Y-10278984D01*
X6827305Y-10145650D02*
X6827305Y-10278984D01*
X6779686Y-10069460D02*
X6732067Y-10212317D01*
X6732067Y-10212317D02*
X6855877Y-10212317D01*
X6970162Y-10078984D02*
X6989210Y-10078984D01*
X6989210Y-10078984D02*
X7008258Y-10088508D01*
X7008258Y-10088508D02*
X7017782Y-10098031D01*
X7017782Y-10098031D02*
X7027305Y-10117079D01*
X7027305Y-10117079D02*
X7036829Y-10155174D01*
X7036829Y-10155174D02*
X7036829Y-10202793D01*
X7036829Y-10202793D02*
X7027305Y-10240889D01*
X7027305Y-10240889D02*
X7017782Y-10259936D01*
X7017782Y-10259936D02*
X7008258Y-10269460D01*
X7008258Y-10269460D02*
X6989210Y-10278984D01*
X6989210Y-10278984D02*
X6970162Y-10278984D01*
X6970162Y-10278984D02*
X6951115Y-10269460D01*
X6951115Y-10269460D02*
X6941591Y-10259936D01*
X6941591Y-10259936D02*
X6932067Y-10240889D01*
X6932067Y-10240889D02*
X6922543Y-10202793D01*
X6922543Y-10202793D02*
X6922543Y-10155174D01*
X6922543Y-10155174D02*
X6932067Y-10117079D01*
X6932067Y-10117079D02*
X6941591Y-10098031D01*
X6941591Y-10098031D02*
X6951115Y-10088508D01*
X6951115Y-10088508D02*
X6970162Y-10078984D01*
X7160639Y-10078984D02*
X7179686Y-10078984D01*
X7179686Y-10078984D02*
X7198734Y-10088508D01*
X7198734Y-10088508D02*
X7208258Y-10098031D01*
X7208258Y-10098031D02*
X7217782Y-10117079D01*
X7217782Y-10117079D02*
X7227305Y-10155174D01*
X7227305Y-10155174D02*
X7227305Y-10202793D01*
X7227305Y-10202793D02*
X7217782Y-10240889D01*
X7217782Y-10240889D02*
X7208258Y-10259936D01*
X7208258Y-10259936D02*
X7198734Y-10269460D01*
X7198734Y-10269460D02*
X7179686Y-10278984D01*
X7179686Y-10278984D02*
X7160639Y-10278984D01*
X7160639Y-10278984D02*
X7141591Y-10269460D01*
X7141591Y-10269460D02*
X7132067Y-10259936D01*
X7132067Y-10259936D02*
X7122543Y-10240889D01*
X7122543Y-10240889D02*
X7113020Y-10202793D01*
X7113020Y-10202793D02*
X7113020Y-10155174D01*
X7113020Y-10155174D02*
X7122543Y-10117079D01*
X7122543Y-10117079D02*
X7132067Y-10098031D01*
X7132067Y-10098031D02*
X7141591Y-10088508D01*
X7141591Y-10088508D02*
X7160639Y-10078984D01*
X7313020Y-10278984D02*
X7313020Y-10145650D01*
X7313020Y-10164698D02*
X7322543Y-10155174D01*
X7322543Y-10155174D02*
X7341591Y-10145650D01*
X7341591Y-10145650D02*
X7370163Y-10145650D01*
X7370163Y-10145650D02*
X7389210Y-10155174D01*
X7389210Y-10155174D02*
X7398734Y-10174222D01*
X7398734Y-10174222D02*
X7398734Y-10278984D01*
X7398734Y-10174222D02*
X7408258Y-10155174D01*
X7408258Y-10155174D02*
X7427305Y-10145650D01*
X7427305Y-10145650D02*
X7455877Y-10145650D01*
X7455877Y-10145650D02*
X7474924Y-10155174D01*
X7474924Y-10155174D02*
X7484448Y-10174222D01*
X7484448Y-10174222D02*
X7484448Y-10278984D01*
X7579686Y-10278984D02*
X7579686Y-10145650D01*
X7579686Y-10164698D02*
X7589210Y-10155174D01*
X7589210Y-10155174D02*
X7608258Y-10145650D01*
X7608258Y-10145650D02*
X7636829Y-10145650D01*
X7636829Y-10145650D02*
X7655877Y-10155174D01*
X7655877Y-10155174D02*
X7665401Y-10174222D01*
X7665401Y-10174222D02*
X7665401Y-10278984D01*
X7665401Y-10174222D02*
X7674924Y-10155174D01*
X7674924Y-10155174D02*
X7693972Y-10145650D01*
X7693972Y-10145650D02*
X7722543Y-10145650D01*
X7722543Y-10145650D02*
X7741591Y-10155174D01*
X7741591Y-10155174D02*
X7751115Y-10174222D01*
X7751115Y-10174222D02*
X7751115Y-10278984D01*
X8141591Y-10069460D02*
X7970163Y-10326603D01*
X8398734Y-10078984D02*
X8417782Y-10078984D01*
X8417782Y-10078984D02*
X8436829Y-10088508D01*
X8436829Y-10088508D02*
X8446353Y-10098031D01*
X8446353Y-10098031D02*
X8455877Y-10117079D01*
X8455877Y-10117079D02*
X8465401Y-10155174D01*
X8465401Y-10155174D02*
X8465401Y-10202793D01*
X8465401Y-10202793D02*
X8455877Y-10240889D01*
X8455877Y-10240889D02*
X8446353Y-10259936D01*
X8446353Y-10259936D02*
X8436829Y-10269460D01*
X8436829Y-10269460D02*
X8417782Y-10278984D01*
X8417782Y-10278984D02*
X8398734Y-10278984D01*
X8398734Y-10278984D02*
X8379686Y-10269460D01*
X8379686Y-10269460D02*
X8370163Y-10259936D01*
X8370163Y-10259936D02*
X8360639Y-10240889D01*
X8360639Y-10240889D02*
X8351115Y-10202793D01*
X8351115Y-10202793D02*
X8351115Y-10155174D01*
X8351115Y-10155174D02*
X8360639Y-10117079D01*
X8360639Y-10117079D02*
X8370163Y-10098031D01*
X8370163Y-10098031D02*
X8379686Y-10088508D01*
X8379686Y-10088508D02*
X8398734Y-10078984D01*
X8551115Y-10259936D02*
X8560639Y-10269460D01*
X8560639Y-10269460D02*
X8551115Y-10278984D01*
X8551115Y-10278984D02*
X8541591Y-10269460D01*
X8541591Y-10269460D02*
X8551115Y-10259936D01*
X8551115Y-10259936D02*
X8551115Y-10278984D01*
X8684448Y-10078984D02*
X8703496Y-10078984D01*
X8703496Y-10078984D02*
X8722544Y-10088508D01*
X8722544Y-10088508D02*
X8732068Y-10098031D01*
X8732068Y-10098031D02*
X8741591Y-10117079D01*
X8741591Y-10117079D02*
X8751115Y-10155174D01*
X8751115Y-10155174D02*
X8751115Y-10202793D01*
X8751115Y-10202793D02*
X8741591Y-10240889D01*
X8741591Y-10240889D02*
X8732068Y-10259936D01*
X8732068Y-10259936D02*
X8722544Y-10269460D01*
X8722544Y-10269460D02*
X8703496Y-10278984D01*
X8703496Y-10278984D02*
X8684448Y-10278984D01*
X8684448Y-10278984D02*
X8665401Y-10269460D01*
X8665401Y-10269460D02*
X8655877Y-10259936D01*
X8655877Y-10259936D02*
X8646353Y-10240889D01*
X8646353Y-10240889D02*
X8636829Y-10202793D01*
X8636829Y-10202793D02*
X8636829Y-10155174D01*
X8636829Y-10155174D02*
X8646353Y-10117079D01*
X8646353Y-10117079D02*
X8655877Y-10098031D01*
X8655877Y-10098031D02*
X8665401Y-10088508D01*
X8665401Y-10088508D02*
X8684448Y-10078984D01*
X8941591Y-10278984D02*
X8827306Y-10278984D01*
X8884448Y-10278984D02*
X8884448Y-10078984D01*
X8884448Y-10078984D02*
X8865401Y-10107555D01*
X8865401Y-10107555D02*
X8846353Y-10126603D01*
X8846353Y-10126603D02*
X8827306Y-10136127D01*
X9122544Y-10078984D02*
X9027306Y-10078984D01*
X9027306Y-10078984D02*
X9017782Y-10174222D01*
X9017782Y-10174222D02*
X9027306Y-10164698D01*
X9027306Y-10164698D02*
X9046353Y-10155174D01*
X9046353Y-10155174D02*
X9093972Y-10155174D01*
X9093972Y-10155174D02*
X9113020Y-10164698D01*
X9113020Y-10164698D02*
X9122544Y-10174222D01*
X9122544Y-10174222D02*
X9132068Y-10193270D01*
X9132068Y-10193270D02*
X9132068Y-10240889D01*
X9132068Y-10240889D02*
X9122544Y-10259936D01*
X9122544Y-10259936D02*
X9113020Y-10269460D01*
X9113020Y-10269460D02*
X9093972Y-10278984D01*
X9093972Y-10278984D02*
X9046353Y-10278984D01*
X9046353Y-10278984D02*
X9027306Y-10269460D01*
X9027306Y-10269460D02*
X9017782Y-10259936D01*
X9198734Y-10078984D02*
X9332068Y-10078984D01*
X9332068Y-10078984D02*
X9246353Y-10278984D01*
X9398734Y-10078984D02*
X9398734Y-10117079D01*
X9474925Y-10078984D02*
X9474925Y-10117079D01*
X9770163Y-10355174D02*
X9760639Y-10345650D01*
X9760639Y-10345650D02*
X9741591Y-10317079D01*
X9741591Y-10317079D02*
X9732068Y-10298031D01*
X9732068Y-10298031D02*
X9722544Y-10269460D01*
X9722544Y-10269460D02*
X9713020Y-10221841D01*
X9713020Y-10221841D02*
X9713020Y-10183746D01*
X9713020Y-10183746D02*
X9722544Y-10136127D01*
X9722544Y-10136127D02*
X9732068Y-10107555D01*
X9732068Y-10107555D02*
X9741591Y-10088508D01*
X9741591Y-10088508D02*
X9760639Y-10059936D01*
X9760639Y-10059936D02*
X9770163Y-10050412D01*
X9951115Y-10278984D02*
X9836830Y-10278984D01*
X9893972Y-10278984D02*
X9893972Y-10078984D01*
X9893972Y-10078984D02*
X9874925Y-10107555D01*
X9874925Y-10107555D02*
X9855877Y-10126603D01*
X9855877Y-10126603D02*
X9836830Y-10136127D01*
X10189211Y-10278984D02*
X10189211Y-10078984D01*
X10274925Y-10278984D02*
X10274925Y-10174222D01*
X10274925Y-10174222D02*
X10265401Y-10155174D01*
X10265401Y-10155174D02*
X10246353Y-10145650D01*
X10246353Y-10145650D02*
X10217782Y-10145650D01*
X10217782Y-10145650D02*
X10198734Y-10155174D01*
X10198734Y-10155174D02*
X10189211Y-10164698D01*
X10398734Y-10278984D02*
X10379687Y-10269460D01*
X10379687Y-10269460D02*
X10370163Y-10259936D01*
X10370163Y-10259936D02*
X10360639Y-10240889D01*
X10360639Y-10240889D02*
X10360639Y-10183746D01*
X10360639Y-10183746D02*
X10370163Y-10164698D01*
X10370163Y-10164698D02*
X10379687Y-10155174D01*
X10379687Y-10155174D02*
X10398734Y-10145650D01*
X10398734Y-10145650D02*
X10427306Y-10145650D01*
X10427306Y-10145650D02*
X10446353Y-10155174D01*
X10446353Y-10155174D02*
X10455877Y-10164698D01*
X10455877Y-10164698D02*
X10465401Y-10183746D01*
X10465401Y-10183746D02*
X10465401Y-10240889D01*
X10465401Y-10240889D02*
X10455877Y-10259936D01*
X10455877Y-10259936D02*
X10446353Y-10269460D01*
X10446353Y-10269460D02*
X10427306Y-10278984D01*
X10427306Y-10278984D02*
X10398734Y-10278984D01*
X10579687Y-10278984D02*
X10560639Y-10269460D01*
X10560639Y-10269460D02*
X10551115Y-10250412D01*
X10551115Y-10250412D02*
X10551115Y-10078984D01*
X10732068Y-10269460D02*
X10713020Y-10278984D01*
X10713020Y-10278984D02*
X10674925Y-10278984D01*
X10674925Y-10278984D02*
X10655877Y-10269460D01*
X10655877Y-10269460D02*
X10646353Y-10250412D01*
X10646353Y-10250412D02*
X10646353Y-10174222D01*
X10646353Y-10174222D02*
X10655877Y-10155174D01*
X10655877Y-10155174D02*
X10674925Y-10145650D01*
X10674925Y-10145650D02*
X10713020Y-10145650D01*
X10713020Y-10145650D02*
X10732068Y-10155174D01*
X10732068Y-10155174D02*
X10741592Y-10174222D01*
X10741592Y-10174222D02*
X10741592Y-10193270D01*
X10741592Y-10193270D02*
X10646353Y-10212317D01*
X10808258Y-10355174D02*
X10817782Y-10345650D01*
X10817782Y-10345650D02*
X10836830Y-10317079D01*
X10836830Y-10317079D02*
X10846353Y-10298031D01*
X10846353Y-10298031D02*
X10855877Y-10269460D01*
X10855877Y-10269460D02*
X10865401Y-10221841D01*
X10865401Y-10221841D02*
X10865401Y-10183746D01*
X10865401Y-10183746D02*
X10855877Y-10136127D01*
X10855877Y-10136127D02*
X10846353Y-10107555D01*
X10846353Y-10107555D02*
X10836830Y-10088508D01*
X10836830Y-10088508D02*
X10817782Y-10059936D01*
X10817782Y-10059936D02*
X10808258Y-10050412D01*
D12*
X6184685Y-10476645D02*
X6184685Y-10426355D01*
X6134395Y-10426355D01*
X6134395Y-10476645D01*
X6184685Y-10476645D01*
D11*
X6493972Y-10342984D02*
X6513020Y-10342984D01*
X6513020Y-10342984D02*
X6532067Y-10352508D01*
X6532067Y-10352508D02*
X6541591Y-10362031D01*
X6541591Y-10362031D02*
X6551115Y-10381079D01*
X6551115Y-10381079D02*
X6560639Y-10419174D01*
X6560639Y-10419174D02*
X6560639Y-10466793D01*
X6560639Y-10466793D02*
X6551115Y-10504889D01*
X6551115Y-10504889D02*
X6541591Y-10523936D01*
X6541591Y-10523936D02*
X6532067Y-10533460D01*
X6532067Y-10533460D02*
X6513020Y-10542984D01*
X6513020Y-10542984D02*
X6493972Y-10542984D01*
X6493972Y-10542984D02*
X6474924Y-10533460D01*
X6474924Y-10533460D02*
X6465401Y-10523936D01*
X6465401Y-10523936D02*
X6455877Y-10504889D01*
X6455877Y-10504889D02*
X6446353Y-10466793D01*
X6446353Y-10466793D02*
X6446353Y-10419174D01*
X6446353Y-10419174D02*
X6455877Y-10381079D01*
X6455877Y-10381079D02*
X6465401Y-10362031D01*
X6465401Y-10362031D02*
X6474924Y-10352508D01*
X6474924Y-10352508D02*
X6493972Y-10342984D01*
X6646353Y-10523936D02*
X6655877Y-10533460D01*
X6655877Y-10533460D02*
X6646353Y-10542984D01*
X6646353Y-10542984D02*
X6636829Y-10533460D01*
X6636829Y-10533460D02*
X6646353Y-10523936D01*
X6646353Y-10523936D02*
X6646353Y-10542984D01*
X6722543Y-10342984D02*
X6855877Y-10342984D01*
X6855877Y-10342984D02*
X6770162Y-10542984D01*
X7036829Y-10542984D02*
X6922543Y-10542984D01*
X6979686Y-10542984D02*
X6979686Y-10342984D01*
X6979686Y-10342984D02*
X6960639Y-10371555D01*
X6960639Y-10371555D02*
X6941591Y-10390603D01*
X6941591Y-10390603D02*
X6922543Y-10400127D01*
X7227305Y-10542984D02*
X7113020Y-10542984D01*
X7170162Y-10542984D02*
X7170162Y-10342984D01*
X7170162Y-10342984D02*
X7151115Y-10371555D01*
X7151115Y-10371555D02*
X7132067Y-10390603D01*
X7132067Y-10390603D02*
X7113020Y-10400127D01*
X7313020Y-10542984D02*
X7313020Y-10409650D01*
X7313020Y-10428698D02*
X7322543Y-10419174D01*
X7322543Y-10419174D02*
X7341591Y-10409650D01*
X7341591Y-10409650D02*
X7370163Y-10409650D01*
X7370163Y-10409650D02*
X7389210Y-10419174D01*
X7389210Y-10419174D02*
X7398734Y-10438222D01*
X7398734Y-10438222D02*
X7398734Y-10542984D01*
X7398734Y-10438222D02*
X7408258Y-10419174D01*
X7408258Y-10419174D02*
X7427305Y-10409650D01*
X7427305Y-10409650D02*
X7455877Y-10409650D01*
X7455877Y-10409650D02*
X7474924Y-10419174D01*
X7474924Y-10419174D02*
X7484448Y-10438222D01*
X7484448Y-10438222D02*
X7484448Y-10542984D01*
X7579686Y-10542984D02*
X7579686Y-10409650D01*
X7579686Y-10428698D02*
X7589210Y-10419174D01*
X7589210Y-10419174D02*
X7608258Y-10409650D01*
X7608258Y-10409650D02*
X7636829Y-10409650D01*
X7636829Y-10409650D02*
X7655877Y-10419174D01*
X7655877Y-10419174D02*
X7665401Y-10438222D01*
X7665401Y-10438222D02*
X7665401Y-10542984D01*
X7665401Y-10438222D02*
X7674924Y-10419174D01*
X7674924Y-10419174D02*
X7693972Y-10409650D01*
X7693972Y-10409650D02*
X7722543Y-10409650D01*
X7722543Y-10409650D02*
X7741591Y-10419174D01*
X7741591Y-10419174D02*
X7751115Y-10438222D01*
X7751115Y-10438222D02*
X7751115Y-10542984D01*
X8141591Y-10333460D02*
X7970163Y-10590603D01*
X8398734Y-10342984D02*
X8417782Y-10342984D01*
X8417782Y-10342984D02*
X8436829Y-10352508D01*
X8436829Y-10352508D02*
X8446353Y-10362031D01*
X8446353Y-10362031D02*
X8455877Y-10381079D01*
X8455877Y-10381079D02*
X8465401Y-10419174D01*
X8465401Y-10419174D02*
X8465401Y-10466793D01*
X8465401Y-10466793D02*
X8455877Y-10504889D01*
X8455877Y-10504889D02*
X8446353Y-10523936D01*
X8446353Y-10523936D02*
X8436829Y-10533460D01*
X8436829Y-10533460D02*
X8417782Y-10542984D01*
X8417782Y-10542984D02*
X8398734Y-10542984D01*
X8398734Y-10542984D02*
X8379686Y-10533460D01*
X8379686Y-10533460D02*
X8370163Y-10523936D01*
X8370163Y-10523936D02*
X8360639Y-10504889D01*
X8360639Y-10504889D02*
X8351115Y-10466793D01*
X8351115Y-10466793D02*
X8351115Y-10419174D01*
X8351115Y-10419174D02*
X8360639Y-10381079D01*
X8360639Y-10381079D02*
X8370163Y-10362031D01*
X8370163Y-10362031D02*
X8379686Y-10352508D01*
X8379686Y-10352508D02*
X8398734Y-10342984D01*
X8551115Y-10523936D02*
X8560639Y-10533460D01*
X8560639Y-10533460D02*
X8551115Y-10542984D01*
X8551115Y-10542984D02*
X8541591Y-10533460D01*
X8541591Y-10533460D02*
X8551115Y-10523936D01*
X8551115Y-10523936D02*
X8551115Y-10542984D01*
X8684448Y-10342984D02*
X8703496Y-10342984D01*
X8703496Y-10342984D02*
X8722544Y-10352508D01*
X8722544Y-10352508D02*
X8732068Y-10362031D01*
X8732068Y-10362031D02*
X8741591Y-10381079D01*
X8741591Y-10381079D02*
X8751115Y-10419174D01*
X8751115Y-10419174D02*
X8751115Y-10466793D01*
X8751115Y-10466793D02*
X8741591Y-10504889D01*
X8741591Y-10504889D02*
X8732068Y-10523936D01*
X8732068Y-10523936D02*
X8722544Y-10533460D01*
X8722544Y-10533460D02*
X8703496Y-10542984D01*
X8703496Y-10542984D02*
X8684448Y-10542984D01*
X8684448Y-10542984D02*
X8665401Y-10533460D01*
X8665401Y-10533460D02*
X8655877Y-10523936D01*
X8655877Y-10523936D02*
X8646353Y-10504889D01*
X8646353Y-10504889D02*
X8636829Y-10466793D01*
X8636829Y-10466793D02*
X8636829Y-10419174D01*
X8636829Y-10419174D02*
X8646353Y-10381079D01*
X8646353Y-10381079D02*
X8655877Y-10362031D01*
X8655877Y-10362031D02*
X8665401Y-10352508D01*
X8665401Y-10352508D02*
X8684448Y-10342984D01*
X8827306Y-10362031D02*
X8836829Y-10352508D01*
X8836829Y-10352508D02*
X8855877Y-10342984D01*
X8855877Y-10342984D02*
X8903496Y-10342984D01*
X8903496Y-10342984D02*
X8922544Y-10352508D01*
X8922544Y-10352508D02*
X8932068Y-10362031D01*
X8932068Y-10362031D02*
X8941591Y-10381079D01*
X8941591Y-10381079D02*
X8941591Y-10400127D01*
X8941591Y-10400127D02*
X8932068Y-10428698D01*
X8932068Y-10428698D02*
X8817782Y-10542984D01*
X8817782Y-10542984D02*
X8941591Y-10542984D01*
X9055877Y-10428698D02*
X9036829Y-10419174D01*
X9036829Y-10419174D02*
X9027306Y-10409650D01*
X9027306Y-10409650D02*
X9017782Y-10390603D01*
X9017782Y-10390603D02*
X9017782Y-10381079D01*
X9017782Y-10381079D02*
X9027306Y-10362031D01*
X9027306Y-10362031D02*
X9036829Y-10352508D01*
X9036829Y-10352508D02*
X9055877Y-10342984D01*
X9055877Y-10342984D02*
X9093972Y-10342984D01*
X9093972Y-10342984D02*
X9113020Y-10352508D01*
X9113020Y-10352508D02*
X9122544Y-10362031D01*
X9122544Y-10362031D02*
X9132068Y-10381079D01*
X9132068Y-10381079D02*
X9132068Y-10390603D01*
X9132068Y-10390603D02*
X9122544Y-10409650D01*
X9122544Y-10409650D02*
X9113020Y-10419174D01*
X9113020Y-10419174D02*
X9093972Y-10428698D01*
X9093972Y-10428698D02*
X9055877Y-10428698D01*
X9055877Y-10428698D02*
X9036829Y-10438222D01*
X9036829Y-10438222D02*
X9027306Y-10447746D01*
X9027306Y-10447746D02*
X9017782Y-10466793D01*
X9017782Y-10466793D02*
X9017782Y-10504889D01*
X9017782Y-10504889D02*
X9027306Y-10523936D01*
X9027306Y-10523936D02*
X9036829Y-10533460D01*
X9036829Y-10533460D02*
X9055877Y-10542984D01*
X9055877Y-10542984D02*
X9093972Y-10542984D01*
X9093972Y-10542984D02*
X9113020Y-10533460D01*
X9113020Y-10533460D02*
X9122544Y-10523936D01*
X9122544Y-10523936D02*
X9132068Y-10504889D01*
X9132068Y-10504889D02*
X9132068Y-10466793D01*
X9132068Y-10466793D02*
X9122544Y-10447746D01*
X9122544Y-10447746D02*
X9113020Y-10438222D01*
X9113020Y-10438222D02*
X9093972Y-10428698D01*
X9255877Y-10342984D02*
X9274925Y-10342984D01*
X9274925Y-10342984D02*
X9293972Y-10352508D01*
X9293972Y-10352508D02*
X9303496Y-10362031D01*
X9303496Y-10362031D02*
X9313020Y-10381079D01*
X9313020Y-10381079D02*
X9322544Y-10419174D01*
X9322544Y-10419174D02*
X9322544Y-10466793D01*
X9322544Y-10466793D02*
X9313020Y-10504889D01*
X9313020Y-10504889D02*
X9303496Y-10523936D01*
X9303496Y-10523936D02*
X9293972Y-10533460D01*
X9293972Y-10533460D02*
X9274925Y-10542984D01*
X9274925Y-10542984D02*
X9255877Y-10542984D01*
X9255877Y-10542984D02*
X9236829Y-10533460D01*
X9236829Y-10533460D02*
X9227306Y-10523936D01*
X9227306Y-10523936D02*
X9217782Y-10504889D01*
X9217782Y-10504889D02*
X9208258Y-10466793D01*
X9208258Y-10466793D02*
X9208258Y-10419174D01*
X9208258Y-10419174D02*
X9217782Y-10381079D01*
X9217782Y-10381079D02*
X9227306Y-10362031D01*
X9227306Y-10362031D02*
X9236829Y-10352508D01*
X9236829Y-10352508D02*
X9255877Y-10342984D01*
X9398734Y-10342984D02*
X9398734Y-10381079D01*
X9474925Y-10342984D02*
X9474925Y-10381079D01*
X9770163Y-10619174D02*
X9760639Y-10609650D01*
X9760639Y-10609650D02*
X9741591Y-10581079D01*
X9741591Y-10581079D02*
X9732068Y-10562031D01*
X9732068Y-10562031D02*
X9722544Y-10533460D01*
X9722544Y-10533460D02*
X9713020Y-10485841D01*
X9713020Y-10485841D02*
X9713020Y-10447746D01*
X9713020Y-10447746D02*
X9722544Y-10400127D01*
X9722544Y-10400127D02*
X9732068Y-10371555D01*
X9732068Y-10371555D02*
X9741591Y-10352508D01*
X9741591Y-10352508D02*
X9760639Y-10323936D01*
X9760639Y-10323936D02*
X9770163Y-10314412D01*
X9951115Y-10542984D02*
X9836830Y-10542984D01*
X9893972Y-10542984D02*
X9893972Y-10342984D01*
X9893972Y-10342984D02*
X9874925Y-10371555D01*
X9874925Y-10371555D02*
X9855877Y-10390603D01*
X9855877Y-10390603D02*
X9836830Y-10400127D01*
X10122544Y-10342984D02*
X10084449Y-10342984D01*
X10084449Y-10342984D02*
X10065401Y-10352508D01*
X10065401Y-10352508D02*
X10055877Y-10362031D01*
X10055877Y-10362031D02*
X10036830Y-10390603D01*
X10036830Y-10390603D02*
X10027306Y-10428698D01*
X10027306Y-10428698D02*
X10027306Y-10504889D01*
X10027306Y-10504889D02*
X10036830Y-10523936D01*
X10036830Y-10523936D02*
X10046353Y-10533460D01*
X10046353Y-10533460D02*
X10065401Y-10542984D01*
X10065401Y-10542984D02*
X10103496Y-10542984D01*
X10103496Y-10542984D02*
X10122544Y-10533460D01*
X10122544Y-10533460D02*
X10132068Y-10523936D01*
X10132068Y-10523936D02*
X10141591Y-10504889D01*
X10141591Y-10504889D02*
X10141591Y-10457270D01*
X10141591Y-10457270D02*
X10132068Y-10438222D01*
X10132068Y-10438222D02*
X10122544Y-10428698D01*
X10122544Y-10428698D02*
X10103496Y-10419174D01*
X10103496Y-10419174D02*
X10065401Y-10419174D01*
X10065401Y-10419174D02*
X10046353Y-10428698D01*
X10046353Y-10428698D02*
X10036830Y-10438222D01*
X10036830Y-10438222D02*
X10027306Y-10457270D01*
X10379687Y-10542984D02*
X10379687Y-10342984D01*
X10465401Y-10542984D02*
X10465401Y-10438222D01*
X10465401Y-10438222D02*
X10455877Y-10419174D01*
X10455877Y-10419174D02*
X10436830Y-10409650D01*
X10436830Y-10409650D02*
X10408258Y-10409650D01*
X10408258Y-10409650D02*
X10389211Y-10419174D01*
X10389211Y-10419174D02*
X10379687Y-10428698D01*
X10589211Y-10542984D02*
X10570163Y-10533460D01*
X10570163Y-10533460D02*
X10560639Y-10523936D01*
X10560639Y-10523936D02*
X10551115Y-10504889D01*
X10551115Y-10504889D02*
X10551115Y-10447746D01*
X10551115Y-10447746D02*
X10560639Y-10428698D01*
X10560639Y-10428698D02*
X10570163Y-10419174D01*
X10570163Y-10419174D02*
X10589211Y-10409650D01*
X10589211Y-10409650D02*
X10617782Y-10409650D01*
X10617782Y-10409650D02*
X10636830Y-10419174D01*
X10636830Y-10419174D02*
X10646353Y-10428698D01*
X10646353Y-10428698D02*
X10655877Y-10447746D01*
X10655877Y-10447746D02*
X10655877Y-10504889D01*
X10655877Y-10504889D02*
X10646353Y-10523936D01*
X10646353Y-10523936D02*
X10636830Y-10533460D01*
X10636830Y-10533460D02*
X10617782Y-10542984D01*
X10617782Y-10542984D02*
X10589211Y-10542984D01*
X10770163Y-10542984D02*
X10751115Y-10533460D01*
X10751115Y-10533460D02*
X10741592Y-10514412D01*
X10741592Y-10514412D02*
X10741592Y-10342984D01*
X10922544Y-10533460D02*
X10903496Y-10542984D01*
X10903496Y-10542984D02*
X10865401Y-10542984D01*
X10865401Y-10542984D02*
X10846353Y-10533460D01*
X10846353Y-10533460D02*
X10836830Y-10514412D01*
X10836830Y-10514412D02*
X10836830Y-10438222D01*
X10836830Y-10438222D02*
X10846353Y-10419174D01*
X10846353Y-10419174D02*
X10865401Y-10409650D01*
X10865401Y-10409650D02*
X10903496Y-10409650D01*
X10903496Y-10409650D02*
X10922544Y-10419174D01*
X10922544Y-10419174D02*
X10932068Y-10438222D01*
X10932068Y-10438222D02*
X10932068Y-10457270D01*
X10932068Y-10457270D02*
X10836830Y-10476317D01*
X11008258Y-10533460D02*
X11027306Y-10542984D01*
X11027306Y-10542984D02*
X11065401Y-10542984D01*
X11065401Y-10542984D02*
X11084449Y-10533460D01*
X11084449Y-10533460D02*
X11093973Y-10514412D01*
X11093973Y-10514412D02*
X11093973Y-10504889D01*
X11093973Y-10504889D02*
X11084449Y-10485841D01*
X11084449Y-10485841D02*
X11065401Y-10476317D01*
X11065401Y-10476317D02*
X11036830Y-10476317D01*
X11036830Y-10476317D02*
X11017782Y-10466793D01*
X11017782Y-10466793D02*
X11008258Y-10447746D01*
X11008258Y-10447746D02*
X11008258Y-10438222D01*
X11008258Y-10438222D02*
X11017782Y-10419174D01*
X11017782Y-10419174D02*
X11036830Y-10409650D01*
X11036830Y-10409650D02*
X11065401Y-10409650D01*
X11065401Y-10409650D02*
X11084449Y-10419174D01*
X11160639Y-10619174D02*
X11170163Y-10609650D01*
X11170163Y-10609650D02*
X11189211Y-10581079D01*
X11189211Y-10581079D02*
X11198734Y-10562031D01*
X11198734Y-10562031D02*
X11208258Y-10533460D01*
X11208258Y-10533460D02*
X11217782Y-10485841D01*
X11217782Y-10485841D02*
X11217782Y-10447746D01*
X11217782Y-10447746D02*
X11208258Y-10400127D01*
X11208258Y-10400127D02*
X11198734Y-10371555D01*
X11198734Y-10371555D02*
X11189211Y-10352508D01*
X11189211Y-10352508D02*
X11170163Y-10323936D01*
X11170163Y-10323936D02*
X11160639Y-10314412D01*
D12*
X6153190Y-10757410D02*
X6195100Y-10715500D01*
X6153190Y-10673590D01*
X6111280Y-10715500D01*
X6153190Y-10757410D01*
D11*
X6493972Y-10606984D02*
X6513020Y-10606984D01*
X6513020Y-10606984D02*
X6532067Y-10616508D01*
X6532067Y-10616508D02*
X6541591Y-10626031D01*
X6541591Y-10626031D02*
X6551115Y-10645079D01*
X6551115Y-10645079D02*
X6560639Y-10683174D01*
X6560639Y-10683174D02*
X6560639Y-10730793D01*
X6560639Y-10730793D02*
X6551115Y-10768889D01*
X6551115Y-10768889D02*
X6541591Y-10787936D01*
X6541591Y-10787936D02*
X6532067Y-10797460D01*
X6532067Y-10797460D02*
X6513020Y-10806984D01*
X6513020Y-10806984D02*
X6493972Y-10806984D01*
X6493972Y-10806984D02*
X6474924Y-10797460D01*
X6474924Y-10797460D02*
X6465401Y-10787936D01*
X6465401Y-10787936D02*
X6455877Y-10768889D01*
X6455877Y-10768889D02*
X6446353Y-10730793D01*
X6446353Y-10730793D02*
X6446353Y-10683174D01*
X6446353Y-10683174D02*
X6455877Y-10645079D01*
X6455877Y-10645079D02*
X6465401Y-10626031D01*
X6465401Y-10626031D02*
X6474924Y-10616508D01*
X6474924Y-10616508D02*
X6493972Y-10606984D01*
X6646353Y-10787936D02*
X6655877Y-10797460D01*
X6655877Y-10797460D02*
X6646353Y-10806984D01*
X6646353Y-10806984D02*
X6636829Y-10797460D01*
X6636829Y-10797460D02*
X6646353Y-10787936D01*
X6646353Y-10787936D02*
X6646353Y-10806984D01*
X6770162Y-10692698D02*
X6751115Y-10683174D01*
X6751115Y-10683174D02*
X6741591Y-10673650D01*
X6741591Y-10673650D02*
X6732067Y-10654603D01*
X6732067Y-10654603D02*
X6732067Y-10645079D01*
X6732067Y-10645079D02*
X6741591Y-10626031D01*
X6741591Y-10626031D02*
X6751115Y-10616508D01*
X6751115Y-10616508D02*
X6770162Y-10606984D01*
X6770162Y-10606984D02*
X6808258Y-10606984D01*
X6808258Y-10606984D02*
X6827305Y-10616508D01*
X6827305Y-10616508D02*
X6836829Y-10626031D01*
X6836829Y-10626031D02*
X6846353Y-10645079D01*
X6846353Y-10645079D02*
X6846353Y-10654603D01*
X6846353Y-10654603D02*
X6836829Y-10673650D01*
X6836829Y-10673650D02*
X6827305Y-10683174D01*
X6827305Y-10683174D02*
X6808258Y-10692698D01*
X6808258Y-10692698D02*
X6770162Y-10692698D01*
X6770162Y-10692698D02*
X6751115Y-10702222D01*
X6751115Y-10702222D02*
X6741591Y-10711746D01*
X6741591Y-10711746D02*
X6732067Y-10730793D01*
X6732067Y-10730793D02*
X6732067Y-10768889D01*
X6732067Y-10768889D02*
X6741591Y-10787936D01*
X6741591Y-10787936D02*
X6751115Y-10797460D01*
X6751115Y-10797460D02*
X6770162Y-10806984D01*
X6770162Y-10806984D02*
X6808258Y-10806984D01*
X6808258Y-10806984D02*
X6827305Y-10797460D01*
X6827305Y-10797460D02*
X6836829Y-10787936D01*
X6836829Y-10787936D02*
X6846353Y-10768889D01*
X6846353Y-10768889D02*
X6846353Y-10730793D01*
X6846353Y-10730793D02*
X6836829Y-10711746D01*
X6836829Y-10711746D02*
X6827305Y-10702222D01*
X6827305Y-10702222D02*
X6808258Y-10692698D01*
X6913020Y-10606984D02*
X7036829Y-10606984D01*
X7036829Y-10606984D02*
X6970162Y-10683174D01*
X6970162Y-10683174D02*
X6998734Y-10683174D01*
X6998734Y-10683174D02*
X7017782Y-10692698D01*
X7017782Y-10692698D02*
X7027305Y-10702222D01*
X7027305Y-10702222D02*
X7036829Y-10721270D01*
X7036829Y-10721270D02*
X7036829Y-10768889D01*
X7036829Y-10768889D02*
X7027305Y-10787936D01*
X7027305Y-10787936D02*
X7017782Y-10797460D01*
X7017782Y-10797460D02*
X6998734Y-10806984D01*
X6998734Y-10806984D02*
X6941591Y-10806984D01*
X6941591Y-10806984D02*
X6922543Y-10797460D01*
X6922543Y-10797460D02*
X6913020Y-10787936D01*
X7151115Y-10692698D02*
X7132067Y-10683174D01*
X7132067Y-10683174D02*
X7122543Y-10673650D01*
X7122543Y-10673650D02*
X7113020Y-10654603D01*
X7113020Y-10654603D02*
X7113020Y-10645079D01*
X7113020Y-10645079D02*
X7122543Y-10626031D01*
X7122543Y-10626031D02*
X7132067Y-10616508D01*
X7132067Y-10616508D02*
X7151115Y-10606984D01*
X7151115Y-10606984D02*
X7189210Y-10606984D01*
X7189210Y-10606984D02*
X7208258Y-10616508D01*
X7208258Y-10616508D02*
X7217782Y-10626031D01*
X7217782Y-10626031D02*
X7227305Y-10645079D01*
X7227305Y-10645079D02*
X7227305Y-10654603D01*
X7227305Y-10654603D02*
X7217782Y-10673650D01*
X7217782Y-10673650D02*
X7208258Y-10683174D01*
X7208258Y-10683174D02*
X7189210Y-10692698D01*
X7189210Y-10692698D02*
X7151115Y-10692698D01*
X7151115Y-10692698D02*
X7132067Y-10702222D01*
X7132067Y-10702222D02*
X7122543Y-10711746D01*
X7122543Y-10711746D02*
X7113020Y-10730793D01*
X7113020Y-10730793D02*
X7113020Y-10768889D01*
X7113020Y-10768889D02*
X7122543Y-10787936D01*
X7122543Y-10787936D02*
X7132067Y-10797460D01*
X7132067Y-10797460D02*
X7151115Y-10806984D01*
X7151115Y-10806984D02*
X7189210Y-10806984D01*
X7189210Y-10806984D02*
X7208258Y-10797460D01*
X7208258Y-10797460D02*
X7217782Y-10787936D01*
X7217782Y-10787936D02*
X7227305Y-10768889D01*
X7227305Y-10768889D02*
X7227305Y-10730793D01*
X7227305Y-10730793D02*
X7217782Y-10711746D01*
X7217782Y-10711746D02*
X7208258Y-10702222D01*
X7208258Y-10702222D02*
X7189210Y-10692698D01*
X7313020Y-10806984D02*
X7313020Y-10673650D01*
X7313020Y-10692698D02*
X7322543Y-10683174D01*
X7322543Y-10683174D02*
X7341591Y-10673650D01*
X7341591Y-10673650D02*
X7370163Y-10673650D01*
X7370163Y-10673650D02*
X7389210Y-10683174D01*
X7389210Y-10683174D02*
X7398734Y-10702222D01*
X7398734Y-10702222D02*
X7398734Y-10806984D01*
X7398734Y-10702222D02*
X7408258Y-10683174D01*
X7408258Y-10683174D02*
X7427305Y-10673650D01*
X7427305Y-10673650D02*
X7455877Y-10673650D01*
X7455877Y-10673650D02*
X7474924Y-10683174D01*
X7474924Y-10683174D02*
X7484448Y-10702222D01*
X7484448Y-10702222D02*
X7484448Y-10806984D01*
X7579686Y-10806984D02*
X7579686Y-10673650D01*
X7579686Y-10692698D02*
X7589210Y-10683174D01*
X7589210Y-10683174D02*
X7608258Y-10673650D01*
X7608258Y-10673650D02*
X7636829Y-10673650D01*
X7636829Y-10673650D02*
X7655877Y-10683174D01*
X7655877Y-10683174D02*
X7665401Y-10702222D01*
X7665401Y-10702222D02*
X7665401Y-10806984D01*
X7665401Y-10702222D02*
X7674924Y-10683174D01*
X7674924Y-10683174D02*
X7693972Y-10673650D01*
X7693972Y-10673650D02*
X7722543Y-10673650D01*
X7722543Y-10673650D02*
X7741591Y-10683174D01*
X7741591Y-10683174D02*
X7751115Y-10702222D01*
X7751115Y-10702222D02*
X7751115Y-10806984D01*
X8141591Y-10597460D02*
X7970163Y-10854603D01*
X8398734Y-10606984D02*
X8417782Y-10606984D01*
X8417782Y-10606984D02*
X8436829Y-10616508D01*
X8436829Y-10616508D02*
X8446353Y-10626031D01*
X8446353Y-10626031D02*
X8455877Y-10645079D01*
X8455877Y-10645079D02*
X8465401Y-10683174D01*
X8465401Y-10683174D02*
X8465401Y-10730793D01*
X8465401Y-10730793D02*
X8455877Y-10768889D01*
X8455877Y-10768889D02*
X8446353Y-10787936D01*
X8446353Y-10787936D02*
X8436829Y-10797460D01*
X8436829Y-10797460D02*
X8417782Y-10806984D01*
X8417782Y-10806984D02*
X8398734Y-10806984D01*
X8398734Y-10806984D02*
X8379686Y-10797460D01*
X8379686Y-10797460D02*
X8370163Y-10787936D01*
X8370163Y-10787936D02*
X8360639Y-10768889D01*
X8360639Y-10768889D02*
X8351115Y-10730793D01*
X8351115Y-10730793D02*
X8351115Y-10683174D01*
X8351115Y-10683174D02*
X8360639Y-10645079D01*
X8360639Y-10645079D02*
X8370163Y-10626031D01*
X8370163Y-10626031D02*
X8379686Y-10616508D01*
X8379686Y-10616508D02*
X8398734Y-10606984D01*
X8551115Y-10787936D02*
X8560639Y-10797460D01*
X8560639Y-10797460D02*
X8551115Y-10806984D01*
X8551115Y-10806984D02*
X8541591Y-10797460D01*
X8541591Y-10797460D02*
X8551115Y-10787936D01*
X8551115Y-10787936D02*
X8551115Y-10806984D01*
X8684448Y-10606984D02*
X8703496Y-10606984D01*
X8703496Y-10606984D02*
X8722544Y-10616508D01*
X8722544Y-10616508D02*
X8732068Y-10626031D01*
X8732068Y-10626031D02*
X8741591Y-10645079D01*
X8741591Y-10645079D02*
X8751115Y-10683174D01*
X8751115Y-10683174D02*
X8751115Y-10730793D01*
X8751115Y-10730793D02*
X8741591Y-10768889D01*
X8741591Y-10768889D02*
X8732068Y-10787936D01*
X8732068Y-10787936D02*
X8722544Y-10797460D01*
X8722544Y-10797460D02*
X8703496Y-10806984D01*
X8703496Y-10806984D02*
X8684448Y-10806984D01*
X8684448Y-10806984D02*
X8665401Y-10797460D01*
X8665401Y-10797460D02*
X8655877Y-10787936D01*
X8655877Y-10787936D02*
X8646353Y-10768889D01*
X8646353Y-10768889D02*
X8636829Y-10730793D01*
X8636829Y-10730793D02*
X8636829Y-10683174D01*
X8636829Y-10683174D02*
X8646353Y-10645079D01*
X8646353Y-10645079D02*
X8655877Y-10626031D01*
X8655877Y-10626031D02*
X8665401Y-10616508D01*
X8665401Y-10616508D02*
X8684448Y-10606984D01*
X8817782Y-10606984D02*
X8941591Y-10606984D01*
X8941591Y-10606984D02*
X8874925Y-10683174D01*
X8874925Y-10683174D02*
X8903496Y-10683174D01*
X8903496Y-10683174D02*
X8922544Y-10692698D01*
X8922544Y-10692698D02*
X8932068Y-10702222D01*
X8932068Y-10702222D02*
X8941591Y-10721270D01*
X8941591Y-10721270D02*
X8941591Y-10768889D01*
X8941591Y-10768889D02*
X8932068Y-10787936D01*
X8932068Y-10787936D02*
X8922544Y-10797460D01*
X8922544Y-10797460D02*
X8903496Y-10806984D01*
X8903496Y-10806984D02*
X8846353Y-10806984D01*
X8846353Y-10806984D02*
X8827306Y-10797460D01*
X8827306Y-10797460D02*
X8817782Y-10787936D01*
X9008258Y-10606984D02*
X9132068Y-10606984D01*
X9132068Y-10606984D02*
X9065401Y-10683174D01*
X9065401Y-10683174D02*
X9093972Y-10683174D01*
X9093972Y-10683174D02*
X9113020Y-10692698D01*
X9113020Y-10692698D02*
X9122544Y-10702222D01*
X9122544Y-10702222D02*
X9132068Y-10721270D01*
X9132068Y-10721270D02*
X9132068Y-10768889D01*
X9132068Y-10768889D02*
X9122544Y-10787936D01*
X9122544Y-10787936D02*
X9113020Y-10797460D01*
X9113020Y-10797460D02*
X9093972Y-10806984D01*
X9093972Y-10806984D02*
X9036829Y-10806984D01*
X9036829Y-10806984D02*
X9017782Y-10797460D01*
X9017782Y-10797460D02*
X9008258Y-10787936D01*
X9255877Y-10606984D02*
X9274925Y-10606984D01*
X9274925Y-10606984D02*
X9293972Y-10616508D01*
X9293972Y-10616508D02*
X9303496Y-10626031D01*
X9303496Y-10626031D02*
X9313020Y-10645079D01*
X9313020Y-10645079D02*
X9322544Y-10683174D01*
X9322544Y-10683174D02*
X9322544Y-10730793D01*
X9322544Y-10730793D02*
X9313020Y-10768889D01*
X9313020Y-10768889D02*
X9303496Y-10787936D01*
X9303496Y-10787936D02*
X9293972Y-10797460D01*
X9293972Y-10797460D02*
X9274925Y-10806984D01*
X9274925Y-10806984D02*
X9255877Y-10806984D01*
X9255877Y-10806984D02*
X9236829Y-10797460D01*
X9236829Y-10797460D02*
X9227306Y-10787936D01*
X9227306Y-10787936D02*
X9217782Y-10768889D01*
X9217782Y-10768889D02*
X9208258Y-10730793D01*
X9208258Y-10730793D02*
X9208258Y-10683174D01*
X9208258Y-10683174D02*
X9217782Y-10645079D01*
X9217782Y-10645079D02*
X9227306Y-10626031D01*
X9227306Y-10626031D02*
X9236829Y-10616508D01*
X9236829Y-10616508D02*
X9255877Y-10606984D01*
X9398734Y-10606984D02*
X9398734Y-10645079D01*
X9474925Y-10606984D02*
X9474925Y-10645079D01*
X9770163Y-10883174D02*
X9760639Y-10873650D01*
X9760639Y-10873650D02*
X9741591Y-10845079D01*
X9741591Y-10845079D02*
X9732068Y-10826031D01*
X9732068Y-10826031D02*
X9722544Y-10797460D01*
X9722544Y-10797460D02*
X9713020Y-10749841D01*
X9713020Y-10749841D02*
X9713020Y-10711746D01*
X9713020Y-10711746D02*
X9722544Y-10664127D01*
X9722544Y-10664127D02*
X9732068Y-10635555D01*
X9732068Y-10635555D02*
X9741591Y-10616508D01*
X9741591Y-10616508D02*
X9760639Y-10587936D01*
X9760639Y-10587936D02*
X9770163Y-10578412D01*
X9836830Y-10626031D02*
X9846353Y-10616508D01*
X9846353Y-10616508D02*
X9865401Y-10606984D01*
X9865401Y-10606984D02*
X9913020Y-10606984D01*
X9913020Y-10606984D02*
X9932068Y-10616508D01*
X9932068Y-10616508D02*
X9941591Y-10626031D01*
X9941591Y-10626031D02*
X9951115Y-10645079D01*
X9951115Y-10645079D02*
X9951115Y-10664127D01*
X9951115Y-10664127D02*
X9941591Y-10692698D01*
X9941591Y-10692698D02*
X9827306Y-10806984D01*
X9827306Y-10806984D02*
X9951115Y-10806984D01*
X10122544Y-10673650D02*
X10122544Y-10806984D01*
X10074925Y-10597460D02*
X10027306Y-10740317D01*
X10027306Y-10740317D02*
X10151115Y-10740317D01*
X10379687Y-10806984D02*
X10379687Y-10606984D01*
X10465401Y-10806984D02*
X10465401Y-10702222D01*
X10465401Y-10702222D02*
X10455877Y-10683174D01*
X10455877Y-10683174D02*
X10436830Y-10673650D01*
X10436830Y-10673650D02*
X10408258Y-10673650D01*
X10408258Y-10673650D02*
X10389211Y-10683174D01*
X10389211Y-10683174D02*
X10379687Y-10692698D01*
X10589211Y-10806984D02*
X10570163Y-10797460D01*
X10570163Y-10797460D02*
X10560639Y-10787936D01*
X10560639Y-10787936D02*
X10551115Y-10768889D01*
X10551115Y-10768889D02*
X10551115Y-10711746D01*
X10551115Y-10711746D02*
X10560639Y-10692698D01*
X10560639Y-10692698D02*
X10570163Y-10683174D01*
X10570163Y-10683174D02*
X10589211Y-10673650D01*
X10589211Y-10673650D02*
X10617782Y-10673650D01*
X10617782Y-10673650D02*
X10636830Y-10683174D01*
X10636830Y-10683174D02*
X10646353Y-10692698D01*
X10646353Y-10692698D02*
X10655877Y-10711746D01*
X10655877Y-10711746D02*
X10655877Y-10768889D01*
X10655877Y-10768889D02*
X10646353Y-10787936D01*
X10646353Y-10787936D02*
X10636830Y-10797460D01*
X10636830Y-10797460D02*
X10617782Y-10806984D01*
X10617782Y-10806984D02*
X10589211Y-10806984D01*
X10770163Y-10806984D02*
X10751115Y-10797460D01*
X10751115Y-10797460D02*
X10741592Y-10778412D01*
X10741592Y-10778412D02*
X10741592Y-10606984D01*
X10922544Y-10797460D02*
X10903496Y-10806984D01*
X10903496Y-10806984D02*
X10865401Y-10806984D01*
X10865401Y-10806984D02*
X10846353Y-10797460D01*
X10846353Y-10797460D02*
X10836830Y-10778412D01*
X10836830Y-10778412D02*
X10836830Y-10702222D01*
X10836830Y-10702222D02*
X10846353Y-10683174D01*
X10846353Y-10683174D02*
X10865401Y-10673650D01*
X10865401Y-10673650D02*
X10903496Y-10673650D01*
X10903496Y-10673650D02*
X10922544Y-10683174D01*
X10922544Y-10683174D02*
X10932068Y-10702222D01*
X10932068Y-10702222D02*
X10932068Y-10721270D01*
X10932068Y-10721270D02*
X10836830Y-10740317D01*
X11008258Y-10797460D02*
X11027306Y-10806984D01*
X11027306Y-10806984D02*
X11065401Y-10806984D01*
X11065401Y-10806984D02*
X11084449Y-10797460D01*
X11084449Y-10797460D02*
X11093973Y-10778412D01*
X11093973Y-10778412D02*
X11093973Y-10768889D01*
X11093973Y-10768889D02*
X11084449Y-10749841D01*
X11084449Y-10749841D02*
X11065401Y-10740317D01*
X11065401Y-10740317D02*
X11036830Y-10740317D01*
X11036830Y-10740317D02*
X11017782Y-10730793D01*
X11017782Y-10730793D02*
X11008258Y-10711746D01*
X11008258Y-10711746D02*
X11008258Y-10702222D01*
X11008258Y-10702222D02*
X11017782Y-10683174D01*
X11017782Y-10683174D02*
X11036830Y-10673650D01*
X11036830Y-10673650D02*
X11065401Y-10673650D01*
X11065401Y-10673650D02*
X11084449Y-10683174D01*
X11160639Y-10883174D02*
X11170163Y-10873650D01*
X11170163Y-10873650D02*
X11189211Y-10845079D01*
X11189211Y-10845079D02*
X11198734Y-10826031D01*
X11198734Y-10826031D02*
X11208258Y-10797460D01*
X11208258Y-10797460D02*
X11217782Y-10749841D01*
X11217782Y-10749841D02*
X11217782Y-10711746D01*
X11217782Y-10711746D02*
X11208258Y-10664127D01*
X11208258Y-10664127D02*
X11198734Y-10635555D01*
X11198734Y-10635555D02*
X11189211Y-10616508D01*
X11189211Y-10616508D02*
X11170163Y-10587936D01*
X11170163Y-10587936D02*
X11160639Y-10578412D01*
D12*
X6096040Y-10929970D02*
X6195100Y-11029030D01*
X6195100Y-10929970D02*
X6096040Y-11029030D01*
X6195100Y-10979500D02*
G75*
G02*
X6096040Y-10979500I-49530J0D01*
G01*
X6096040Y-10979500D02*
G75*
G02*
X6195100Y-10979500I49530J0D01*
G01*
D11*
X6493972Y-10870984D02*
X6513020Y-10870984D01*
X6513020Y-10870984D02*
X6532067Y-10880508D01*
X6532067Y-10880508D02*
X6541591Y-10890031D01*
X6541591Y-10890031D02*
X6551115Y-10909079D01*
X6551115Y-10909079D02*
X6560639Y-10947174D01*
X6560639Y-10947174D02*
X6560639Y-10994793D01*
X6560639Y-10994793D02*
X6551115Y-11032889D01*
X6551115Y-11032889D02*
X6541591Y-11051936D01*
X6541591Y-11051936D02*
X6532067Y-11061460D01*
X6532067Y-11061460D02*
X6513020Y-11070984D01*
X6513020Y-11070984D02*
X6493972Y-11070984D01*
X6493972Y-11070984D02*
X6474924Y-11061460D01*
X6474924Y-11061460D02*
X6465401Y-11051936D01*
X6465401Y-11051936D02*
X6455877Y-11032889D01*
X6455877Y-11032889D02*
X6446353Y-10994793D01*
X6446353Y-10994793D02*
X6446353Y-10947174D01*
X6446353Y-10947174D02*
X6455877Y-10909079D01*
X6455877Y-10909079D02*
X6465401Y-10890031D01*
X6465401Y-10890031D02*
X6474924Y-10880508D01*
X6474924Y-10880508D02*
X6493972Y-10870984D01*
X6646353Y-11051936D02*
X6655877Y-11061460D01*
X6655877Y-11061460D02*
X6646353Y-11070984D01*
X6646353Y-11070984D02*
X6636829Y-11061460D01*
X6636829Y-11061460D02*
X6646353Y-11051936D01*
X6646353Y-11051936D02*
X6646353Y-11070984D01*
X6751115Y-11070984D02*
X6789210Y-11070984D01*
X6789210Y-11070984D02*
X6808258Y-11061460D01*
X6808258Y-11061460D02*
X6817782Y-11051936D01*
X6817782Y-11051936D02*
X6836829Y-11023365D01*
X6836829Y-11023365D02*
X6846353Y-10985270D01*
X6846353Y-10985270D02*
X6846353Y-10909079D01*
X6846353Y-10909079D02*
X6836829Y-10890031D01*
X6836829Y-10890031D02*
X6827305Y-10880508D01*
X6827305Y-10880508D02*
X6808258Y-10870984D01*
X6808258Y-10870984D02*
X6770162Y-10870984D01*
X6770162Y-10870984D02*
X6751115Y-10880508D01*
X6751115Y-10880508D02*
X6741591Y-10890031D01*
X6741591Y-10890031D02*
X6732067Y-10909079D01*
X6732067Y-10909079D02*
X6732067Y-10956698D01*
X6732067Y-10956698D02*
X6741591Y-10975746D01*
X6741591Y-10975746D02*
X6751115Y-10985270D01*
X6751115Y-10985270D02*
X6770162Y-10994793D01*
X6770162Y-10994793D02*
X6808258Y-10994793D01*
X6808258Y-10994793D02*
X6827305Y-10985270D01*
X6827305Y-10985270D02*
X6836829Y-10975746D01*
X6836829Y-10975746D02*
X6846353Y-10956698D01*
X6941591Y-11070984D02*
X6979686Y-11070984D01*
X6979686Y-11070984D02*
X6998734Y-11061460D01*
X6998734Y-11061460D02*
X7008258Y-11051936D01*
X7008258Y-11051936D02*
X7027305Y-11023365D01*
X7027305Y-11023365D02*
X7036829Y-10985270D01*
X7036829Y-10985270D02*
X7036829Y-10909079D01*
X7036829Y-10909079D02*
X7027305Y-10890031D01*
X7027305Y-10890031D02*
X7017782Y-10880508D01*
X7017782Y-10880508D02*
X6998734Y-10870984D01*
X6998734Y-10870984D02*
X6960639Y-10870984D01*
X6960639Y-10870984D02*
X6941591Y-10880508D01*
X6941591Y-10880508D02*
X6932067Y-10890031D01*
X6932067Y-10890031D02*
X6922543Y-10909079D01*
X6922543Y-10909079D02*
X6922543Y-10956698D01*
X6922543Y-10956698D02*
X6932067Y-10975746D01*
X6932067Y-10975746D02*
X6941591Y-10985270D01*
X6941591Y-10985270D02*
X6960639Y-10994793D01*
X6960639Y-10994793D02*
X6998734Y-10994793D01*
X6998734Y-10994793D02*
X7017782Y-10985270D01*
X7017782Y-10985270D02*
X7027305Y-10975746D01*
X7027305Y-10975746D02*
X7036829Y-10956698D01*
X7227305Y-11070984D02*
X7113020Y-11070984D01*
X7170162Y-11070984D02*
X7170162Y-10870984D01*
X7170162Y-10870984D02*
X7151115Y-10899555D01*
X7151115Y-10899555D02*
X7132067Y-10918603D01*
X7132067Y-10918603D02*
X7113020Y-10928127D01*
X7313020Y-11070984D02*
X7313020Y-10937650D01*
X7313020Y-10956698D02*
X7322543Y-10947174D01*
X7322543Y-10947174D02*
X7341591Y-10937650D01*
X7341591Y-10937650D02*
X7370163Y-10937650D01*
X7370163Y-10937650D02*
X7389210Y-10947174D01*
X7389210Y-10947174D02*
X7398734Y-10966222D01*
X7398734Y-10966222D02*
X7398734Y-11070984D01*
X7398734Y-10966222D02*
X7408258Y-10947174D01*
X7408258Y-10947174D02*
X7427305Y-10937650D01*
X7427305Y-10937650D02*
X7455877Y-10937650D01*
X7455877Y-10937650D02*
X7474924Y-10947174D01*
X7474924Y-10947174D02*
X7484448Y-10966222D01*
X7484448Y-10966222D02*
X7484448Y-11070984D01*
X7579686Y-11070984D02*
X7579686Y-10937650D01*
X7579686Y-10956698D02*
X7589210Y-10947174D01*
X7589210Y-10947174D02*
X7608258Y-10937650D01*
X7608258Y-10937650D02*
X7636829Y-10937650D01*
X7636829Y-10937650D02*
X7655877Y-10947174D01*
X7655877Y-10947174D02*
X7665401Y-10966222D01*
X7665401Y-10966222D02*
X7665401Y-11070984D01*
X7665401Y-10966222D02*
X7674924Y-10947174D01*
X7674924Y-10947174D02*
X7693972Y-10937650D01*
X7693972Y-10937650D02*
X7722543Y-10937650D01*
X7722543Y-10937650D02*
X7741591Y-10947174D01*
X7741591Y-10947174D02*
X7751115Y-10966222D01*
X7751115Y-10966222D02*
X7751115Y-11070984D01*
X8141591Y-10861460D02*
X7970163Y-11118603D01*
X8398734Y-10870984D02*
X8417782Y-10870984D01*
X8417782Y-10870984D02*
X8436829Y-10880508D01*
X8436829Y-10880508D02*
X8446353Y-10890031D01*
X8446353Y-10890031D02*
X8455877Y-10909079D01*
X8455877Y-10909079D02*
X8465401Y-10947174D01*
X8465401Y-10947174D02*
X8465401Y-10994793D01*
X8465401Y-10994793D02*
X8455877Y-11032889D01*
X8455877Y-11032889D02*
X8446353Y-11051936D01*
X8446353Y-11051936D02*
X8436829Y-11061460D01*
X8436829Y-11061460D02*
X8417782Y-11070984D01*
X8417782Y-11070984D02*
X8398734Y-11070984D01*
X8398734Y-11070984D02*
X8379686Y-11061460D01*
X8379686Y-11061460D02*
X8370163Y-11051936D01*
X8370163Y-11051936D02*
X8360639Y-11032889D01*
X8360639Y-11032889D02*
X8351115Y-10994793D01*
X8351115Y-10994793D02*
X8351115Y-10947174D01*
X8351115Y-10947174D02*
X8360639Y-10909079D01*
X8360639Y-10909079D02*
X8370163Y-10890031D01*
X8370163Y-10890031D02*
X8379686Y-10880508D01*
X8379686Y-10880508D02*
X8398734Y-10870984D01*
X8551115Y-11051936D02*
X8560639Y-11061460D01*
X8560639Y-11061460D02*
X8551115Y-11070984D01*
X8551115Y-11070984D02*
X8541591Y-11061460D01*
X8541591Y-11061460D02*
X8551115Y-11051936D01*
X8551115Y-11051936D02*
X8551115Y-11070984D01*
X8684448Y-10870984D02*
X8703496Y-10870984D01*
X8703496Y-10870984D02*
X8722544Y-10880508D01*
X8722544Y-10880508D02*
X8732068Y-10890031D01*
X8732068Y-10890031D02*
X8741591Y-10909079D01*
X8741591Y-10909079D02*
X8751115Y-10947174D01*
X8751115Y-10947174D02*
X8751115Y-10994793D01*
X8751115Y-10994793D02*
X8741591Y-11032889D01*
X8741591Y-11032889D02*
X8732068Y-11051936D01*
X8732068Y-11051936D02*
X8722544Y-11061460D01*
X8722544Y-11061460D02*
X8703496Y-11070984D01*
X8703496Y-11070984D02*
X8684448Y-11070984D01*
X8684448Y-11070984D02*
X8665401Y-11061460D01*
X8665401Y-11061460D02*
X8655877Y-11051936D01*
X8655877Y-11051936D02*
X8646353Y-11032889D01*
X8646353Y-11032889D02*
X8636829Y-10994793D01*
X8636829Y-10994793D02*
X8636829Y-10947174D01*
X8636829Y-10947174D02*
X8646353Y-10909079D01*
X8646353Y-10909079D02*
X8655877Y-10890031D01*
X8655877Y-10890031D02*
X8665401Y-10880508D01*
X8665401Y-10880508D02*
X8684448Y-10870984D01*
X8817782Y-10870984D02*
X8941591Y-10870984D01*
X8941591Y-10870984D02*
X8874925Y-10947174D01*
X8874925Y-10947174D02*
X8903496Y-10947174D01*
X8903496Y-10947174D02*
X8922544Y-10956698D01*
X8922544Y-10956698D02*
X8932068Y-10966222D01*
X8932068Y-10966222D02*
X8941591Y-10985270D01*
X8941591Y-10985270D02*
X8941591Y-11032889D01*
X8941591Y-11032889D02*
X8932068Y-11051936D01*
X8932068Y-11051936D02*
X8922544Y-11061460D01*
X8922544Y-11061460D02*
X8903496Y-11070984D01*
X8903496Y-11070984D02*
X8846353Y-11070984D01*
X8846353Y-11070984D02*
X8827306Y-11061460D01*
X8827306Y-11061460D02*
X8817782Y-11051936D01*
X9036829Y-11070984D02*
X9074925Y-11070984D01*
X9074925Y-11070984D02*
X9093972Y-11061460D01*
X9093972Y-11061460D02*
X9103496Y-11051936D01*
X9103496Y-11051936D02*
X9122544Y-11023365D01*
X9122544Y-11023365D02*
X9132068Y-10985270D01*
X9132068Y-10985270D02*
X9132068Y-10909079D01*
X9132068Y-10909079D02*
X9122544Y-10890031D01*
X9122544Y-10890031D02*
X9113020Y-10880508D01*
X9113020Y-10880508D02*
X9093972Y-10870984D01*
X9093972Y-10870984D02*
X9055877Y-10870984D01*
X9055877Y-10870984D02*
X9036829Y-10880508D01*
X9036829Y-10880508D02*
X9027306Y-10890031D01*
X9027306Y-10890031D02*
X9017782Y-10909079D01*
X9017782Y-10909079D02*
X9017782Y-10956698D01*
X9017782Y-10956698D02*
X9027306Y-10975746D01*
X9027306Y-10975746D02*
X9036829Y-10985270D01*
X9036829Y-10985270D02*
X9055877Y-10994793D01*
X9055877Y-10994793D02*
X9093972Y-10994793D01*
X9093972Y-10994793D02*
X9113020Y-10985270D01*
X9113020Y-10985270D02*
X9122544Y-10975746D01*
X9122544Y-10975746D02*
X9132068Y-10956698D01*
X9255877Y-10870984D02*
X9274925Y-10870984D01*
X9274925Y-10870984D02*
X9293972Y-10880508D01*
X9293972Y-10880508D02*
X9303496Y-10890031D01*
X9303496Y-10890031D02*
X9313020Y-10909079D01*
X9313020Y-10909079D02*
X9322544Y-10947174D01*
X9322544Y-10947174D02*
X9322544Y-10994793D01*
X9322544Y-10994793D02*
X9313020Y-11032889D01*
X9313020Y-11032889D02*
X9303496Y-11051936D01*
X9303496Y-11051936D02*
X9293972Y-11061460D01*
X9293972Y-11061460D02*
X9274925Y-11070984D01*
X9274925Y-11070984D02*
X9255877Y-11070984D01*
X9255877Y-11070984D02*
X9236829Y-11061460D01*
X9236829Y-11061460D02*
X9227306Y-11051936D01*
X9227306Y-11051936D02*
X9217782Y-11032889D01*
X9217782Y-11032889D02*
X9208258Y-10994793D01*
X9208258Y-10994793D02*
X9208258Y-10947174D01*
X9208258Y-10947174D02*
X9217782Y-10909079D01*
X9217782Y-10909079D02*
X9227306Y-10890031D01*
X9227306Y-10890031D02*
X9236829Y-10880508D01*
X9236829Y-10880508D02*
X9255877Y-10870984D01*
X9398734Y-10870984D02*
X9398734Y-10909079D01*
X9474925Y-10870984D02*
X9474925Y-10909079D01*
X9770163Y-11147174D02*
X9760639Y-11137650D01*
X9760639Y-11137650D02*
X9741591Y-11109079D01*
X9741591Y-11109079D02*
X9732068Y-11090031D01*
X9732068Y-11090031D02*
X9722544Y-11061460D01*
X9722544Y-11061460D02*
X9713020Y-11013841D01*
X9713020Y-11013841D02*
X9713020Y-10975746D01*
X9713020Y-10975746D02*
X9722544Y-10928127D01*
X9722544Y-10928127D02*
X9732068Y-10899555D01*
X9732068Y-10899555D02*
X9741591Y-10880508D01*
X9741591Y-10880508D02*
X9760639Y-10851936D01*
X9760639Y-10851936D02*
X9770163Y-10842412D01*
X9827306Y-10870984D02*
X9960639Y-10870984D01*
X9960639Y-10870984D02*
X9874925Y-11070984D01*
X10189211Y-11070984D02*
X10189211Y-10870984D01*
X10274925Y-11070984D02*
X10274925Y-10966222D01*
X10274925Y-10966222D02*
X10265401Y-10947174D01*
X10265401Y-10947174D02*
X10246353Y-10937650D01*
X10246353Y-10937650D02*
X10217782Y-10937650D01*
X10217782Y-10937650D02*
X10198734Y-10947174D01*
X10198734Y-10947174D02*
X10189211Y-10956698D01*
X10398734Y-11070984D02*
X10379687Y-11061460D01*
X10379687Y-11061460D02*
X10370163Y-11051936D01*
X10370163Y-11051936D02*
X10360639Y-11032889D01*
X10360639Y-11032889D02*
X10360639Y-10975746D01*
X10360639Y-10975746D02*
X10370163Y-10956698D01*
X10370163Y-10956698D02*
X10379687Y-10947174D01*
X10379687Y-10947174D02*
X10398734Y-10937650D01*
X10398734Y-10937650D02*
X10427306Y-10937650D01*
X10427306Y-10937650D02*
X10446353Y-10947174D01*
X10446353Y-10947174D02*
X10455877Y-10956698D01*
X10455877Y-10956698D02*
X10465401Y-10975746D01*
X10465401Y-10975746D02*
X10465401Y-11032889D01*
X10465401Y-11032889D02*
X10455877Y-11051936D01*
X10455877Y-11051936D02*
X10446353Y-11061460D01*
X10446353Y-11061460D02*
X10427306Y-11070984D01*
X10427306Y-11070984D02*
X10398734Y-11070984D01*
X10579687Y-11070984D02*
X10560639Y-11061460D01*
X10560639Y-11061460D02*
X10551115Y-11042412D01*
X10551115Y-11042412D02*
X10551115Y-10870984D01*
X10732068Y-11061460D02*
X10713020Y-11070984D01*
X10713020Y-11070984D02*
X10674925Y-11070984D01*
X10674925Y-11070984D02*
X10655877Y-11061460D01*
X10655877Y-11061460D02*
X10646353Y-11042412D01*
X10646353Y-11042412D02*
X10646353Y-10966222D01*
X10646353Y-10966222D02*
X10655877Y-10947174D01*
X10655877Y-10947174D02*
X10674925Y-10937650D01*
X10674925Y-10937650D02*
X10713020Y-10937650D01*
X10713020Y-10937650D02*
X10732068Y-10947174D01*
X10732068Y-10947174D02*
X10741592Y-10966222D01*
X10741592Y-10966222D02*
X10741592Y-10985270D01*
X10741592Y-10985270D02*
X10646353Y-11004317D01*
X10817782Y-11061460D02*
X10836830Y-11070984D01*
X10836830Y-11070984D02*
X10874925Y-11070984D01*
X10874925Y-11070984D02*
X10893973Y-11061460D01*
X10893973Y-11061460D02*
X10903496Y-11042412D01*
X10903496Y-11042412D02*
X10903496Y-11032889D01*
X10903496Y-11032889D02*
X10893973Y-11013841D01*
X10893973Y-11013841D02*
X10874925Y-11004317D01*
X10874925Y-11004317D02*
X10846353Y-11004317D01*
X10846353Y-11004317D02*
X10827306Y-10994793D01*
X10827306Y-10994793D02*
X10817782Y-10975746D01*
X10817782Y-10975746D02*
X10817782Y-10966222D01*
X10817782Y-10966222D02*
X10827306Y-10947174D01*
X10827306Y-10947174D02*
X10846353Y-10937650D01*
X10846353Y-10937650D02*
X10874925Y-10937650D01*
X10874925Y-10937650D02*
X10893973Y-10947174D01*
X10970163Y-11147174D02*
X10979687Y-11137650D01*
X10979687Y-11137650D02*
X10998734Y-11109079D01*
X10998734Y-11109079D02*
X11008258Y-11090031D01*
X11008258Y-11090031D02*
X11017782Y-11061460D01*
X11017782Y-11061460D02*
X11027306Y-11013841D01*
X11027306Y-11013841D02*
X11027306Y-10975746D01*
X11027306Y-10975746D02*
X11017782Y-10928127D01*
X11017782Y-10928127D02*
X11008258Y-10899555D01*
X11008258Y-10899555D02*
X10998734Y-10880508D01*
X10998734Y-10880508D02*
X10979687Y-10851936D01*
X10979687Y-10851936D02*
X10970163Y-10842412D01*
D12*
X6095100Y-11193500D02*
X6195100Y-11293500D01*
X6195100Y-11193500D02*
X6095100Y-11293500D01*
X6145100Y-11193500D02*
X6145100Y-11293500D01*
X6095100Y-11243500D02*
X6195100Y-11243500D01*
D11*
X6560639Y-11334984D02*
X6446353Y-11334984D01*
X6503496Y-11334984D02*
X6503496Y-11134984D01*
X6503496Y-11134984D02*
X6484448Y-11163555D01*
X6484448Y-11163555D02*
X6465401Y-11182603D01*
X6465401Y-11182603D02*
X6446353Y-11192127D01*
X6646353Y-11315936D02*
X6655877Y-11325460D01*
X6655877Y-11325460D02*
X6646353Y-11334984D01*
X6646353Y-11334984D02*
X6636829Y-11325460D01*
X6636829Y-11325460D02*
X6646353Y-11315936D01*
X6646353Y-11315936D02*
X6646353Y-11334984D01*
X6779686Y-11134984D02*
X6798734Y-11134984D01*
X6798734Y-11134984D02*
X6817782Y-11144508D01*
X6817782Y-11144508D02*
X6827305Y-11154031D01*
X6827305Y-11154031D02*
X6836829Y-11173079D01*
X6836829Y-11173079D02*
X6846353Y-11211174D01*
X6846353Y-11211174D02*
X6846353Y-11258793D01*
X6846353Y-11258793D02*
X6836829Y-11296888D01*
X6836829Y-11296888D02*
X6827305Y-11315936D01*
X6827305Y-11315936D02*
X6817782Y-11325460D01*
X6817782Y-11325460D02*
X6798734Y-11334984D01*
X6798734Y-11334984D02*
X6779686Y-11334984D01*
X6779686Y-11334984D02*
X6760639Y-11325460D01*
X6760639Y-11325460D02*
X6751115Y-11315936D01*
X6751115Y-11315936D02*
X6741591Y-11296888D01*
X6741591Y-11296888D02*
X6732067Y-11258793D01*
X6732067Y-11258793D02*
X6732067Y-11211174D01*
X6732067Y-11211174D02*
X6741591Y-11173079D01*
X6741591Y-11173079D02*
X6751115Y-11154031D01*
X6751115Y-11154031D02*
X6760639Y-11144508D01*
X6760639Y-11144508D02*
X6779686Y-11134984D01*
X6970162Y-11134984D02*
X6989210Y-11134984D01*
X6989210Y-11134984D02*
X7008258Y-11144508D01*
X7008258Y-11144508D02*
X7017782Y-11154031D01*
X7017782Y-11154031D02*
X7027305Y-11173079D01*
X7027305Y-11173079D02*
X7036829Y-11211174D01*
X7036829Y-11211174D02*
X7036829Y-11258793D01*
X7036829Y-11258793D02*
X7027305Y-11296888D01*
X7027305Y-11296888D02*
X7017782Y-11315936D01*
X7017782Y-11315936D02*
X7008258Y-11325460D01*
X7008258Y-11325460D02*
X6989210Y-11334984D01*
X6989210Y-11334984D02*
X6970162Y-11334984D01*
X6970162Y-11334984D02*
X6951115Y-11325460D01*
X6951115Y-11325460D02*
X6941591Y-11315936D01*
X6941591Y-11315936D02*
X6932067Y-11296888D01*
X6932067Y-11296888D02*
X6922543Y-11258793D01*
X6922543Y-11258793D02*
X6922543Y-11211174D01*
X6922543Y-11211174D02*
X6932067Y-11173079D01*
X6932067Y-11173079D02*
X6941591Y-11154031D01*
X6941591Y-11154031D02*
X6951115Y-11144508D01*
X6951115Y-11144508D02*
X6970162Y-11134984D01*
X7160639Y-11134984D02*
X7179686Y-11134984D01*
X7179686Y-11134984D02*
X7198734Y-11144508D01*
X7198734Y-11144508D02*
X7208258Y-11154031D01*
X7208258Y-11154031D02*
X7217782Y-11173079D01*
X7217782Y-11173079D02*
X7227305Y-11211174D01*
X7227305Y-11211174D02*
X7227305Y-11258793D01*
X7227305Y-11258793D02*
X7217782Y-11296888D01*
X7217782Y-11296888D02*
X7208258Y-11315936D01*
X7208258Y-11315936D02*
X7198734Y-11325460D01*
X7198734Y-11325460D02*
X7179686Y-11334984D01*
X7179686Y-11334984D02*
X7160639Y-11334984D01*
X7160639Y-11334984D02*
X7141591Y-11325460D01*
X7141591Y-11325460D02*
X7132067Y-11315936D01*
X7132067Y-11315936D02*
X7122543Y-11296888D01*
X7122543Y-11296888D02*
X7113020Y-11258793D01*
X7113020Y-11258793D02*
X7113020Y-11211174D01*
X7113020Y-11211174D02*
X7122543Y-11173079D01*
X7122543Y-11173079D02*
X7132067Y-11154031D01*
X7132067Y-11154031D02*
X7141591Y-11144508D01*
X7141591Y-11144508D02*
X7160639Y-11134984D01*
X7313020Y-11334984D02*
X7313020Y-11201650D01*
X7313020Y-11220698D02*
X7322543Y-11211174D01*
X7322543Y-11211174D02*
X7341591Y-11201650D01*
X7341591Y-11201650D02*
X7370163Y-11201650D01*
X7370163Y-11201650D02*
X7389210Y-11211174D01*
X7389210Y-11211174D02*
X7398734Y-11230222D01*
X7398734Y-11230222D02*
X7398734Y-11334984D01*
X7398734Y-11230222D02*
X7408258Y-11211174D01*
X7408258Y-11211174D02*
X7427305Y-11201650D01*
X7427305Y-11201650D02*
X7455877Y-11201650D01*
X7455877Y-11201650D02*
X7474924Y-11211174D01*
X7474924Y-11211174D02*
X7484448Y-11230222D01*
X7484448Y-11230222D02*
X7484448Y-11334984D01*
X7579686Y-11334984D02*
X7579686Y-11201650D01*
X7579686Y-11220698D02*
X7589210Y-11211174D01*
X7589210Y-11211174D02*
X7608258Y-11201650D01*
X7608258Y-11201650D02*
X7636829Y-11201650D01*
X7636829Y-11201650D02*
X7655877Y-11211174D01*
X7655877Y-11211174D02*
X7665401Y-11230222D01*
X7665401Y-11230222D02*
X7665401Y-11334984D01*
X7665401Y-11230222D02*
X7674924Y-11211174D01*
X7674924Y-11211174D02*
X7693972Y-11201650D01*
X7693972Y-11201650D02*
X7722543Y-11201650D01*
X7722543Y-11201650D02*
X7741591Y-11211174D01*
X7741591Y-11211174D02*
X7751115Y-11230222D01*
X7751115Y-11230222D02*
X7751115Y-11334984D01*
X8141591Y-11125460D02*
X7970163Y-11382603D01*
X8398734Y-11134984D02*
X8417782Y-11134984D01*
X8417782Y-11134984D02*
X8436829Y-11144508D01*
X8436829Y-11144508D02*
X8446353Y-11154031D01*
X8446353Y-11154031D02*
X8455877Y-11173079D01*
X8455877Y-11173079D02*
X8465401Y-11211174D01*
X8465401Y-11211174D02*
X8465401Y-11258793D01*
X8465401Y-11258793D02*
X8455877Y-11296888D01*
X8455877Y-11296888D02*
X8446353Y-11315936D01*
X8446353Y-11315936D02*
X8436829Y-11325460D01*
X8436829Y-11325460D02*
X8417782Y-11334984D01*
X8417782Y-11334984D02*
X8398734Y-11334984D01*
X8398734Y-11334984D02*
X8379686Y-11325460D01*
X8379686Y-11325460D02*
X8370163Y-11315936D01*
X8370163Y-11315936D02*
X8360639Y-11296888D01*
X8360639Y-11296888D02*
X8351115Y-11258793D01*
X8351115Y-11258793D02*
X8351115Y-11211174D01*
X8351115Y-11211174D02*
X8360639Y-11173079D01*
X8360639Y-11173079D02*
X8370163Y-11154031D01*
X8370163Y-11154031D02*
X8379686Y-11144508D01*
X8379686Y-11144508D02*
X8398734Y-11134984D01*
X8551115Y-11315936D02*
X8560639Y-11325460D01*
X8560639Y-11325460D02*
X8551115Y-11334984D01*
X8551115Y-11334984D02*
X8541591Y-11325460D01*
X8541591Y-11325460D02*
X8551115Y-11315936D01*
X8551115Y-11315936D02*
X8551115Y-11334984D01*
X8684448Y-11134984D02*
X8703496Y-11134984D01*
X8703496Y-11134984D02*
X8722544Y-11144508D01*
X8722544Y-11144508D02*
X8732068Y-11154031D01*
X8732068Y-11154031D02*
X8741591Y-11173079D01*
X8741591Y-11173079D02*
X8751115Y-11211174D01*
X8751115Y-11211174D02*
X8751115Y-11258793D01*
X8751115Y-11258793D02*
X8741591Y-11296888D01*
X8741591Y-11296888D02*
X8732068Y-11315936D01*
X8732068Y-11315936D02*
X8722544Y-11325460D01*
X8722544Y-11325460D02*
X8703496Y-11334984D01*
X8703496Y-11334984D02*
X8684448Y-11334984D01*
X8684448Y-11334984D02*
X8665401Y-11325460D01*
X8665401Y-11325460D02*
X8655877Y-11315936D01*
X8655877Y-11315936D02*
X8646353Y-11296888D01*
X8646353Y-11296888D02*
X8636829Y-11258793D01*
X8636829Y-11258793D02*
X8636829Y-11211174D01*
X8636829Y-11211174D02*
X8646353Y-11173079D01*
X8646353Y-11173079D02*
X8655877Y-11154031D01*
X8655877Y-11154031D02*
X8665401Y-11144508D01*
X8665401Y-11144508D02*
X8684448Y-11134984D01*
X8817782Y-11134984D02*
X8941591Y-11134984D01*
X8941591Y-11134984D02*
X8874925Y-11211174D01*
X8874925Y-11211174D02*
X8903496Y-11211174D01*
X8903496Y-11211174D02*
X8922544Y-11220698D01*
X8922544Y-11220698D02*
X8932068Y-11230222D01*
X8932068Y-11230222D02*
X8941591Y-11249269D01*
X8941591Y-11249269D02*
X8941591Y-11296888D01*
X8941591Y-11296888D02*
X8932068Y-11315936D01*
X8932068Y-11315936D02*
X8922544Y-11325460D01*
X8922544Y-11325460D02*
X8903496Y-11334984D01*
X8903496Y-11334984D02*
X8846353Y-11334984D01*
X8846353Y-11334984D02*
X8827306Y-11325460D01*
X8827306Y-11325460D02*
X8817782Y-11315936D01*
X9036829Y-11334984D02*
X9074925Y-11334984D01*
X9074925Y-11334984D02*
X9093972Y-11325460D01*
X9093972Y-11325460D02*
X9103496Y-11315936D01*
X9103496Y-11315936D02*
X9122544Y-11287365D01*
X9122544Y-11287365D02*
X9132068Y-11249269D01*
X9132068Y-11249269D02*
X9132068Y-11173079D01*
X9132068Y-11173079D02*
X9122544Y-11154031D01*
X9122544Y-11154031D02*
X9113020Y-11144508D01*
X9113020Y-11144508D02*
X9093972Y-11134984D01*
X9093972Y-11134984D02*
X9055877Y-11134984D01*
X9055877Y-11134984D02*
X9036829Y-11144508D01*
X9036829Y-11144508D02*
X9027306Y-11154031D01*
X9027306Y-11154031D02*
X9017782Y-11173079D01*
X9017782Y-11173079D02*
X9017782Y-11220698D01*
X9017782Y-11220698D02*
X9027306Y-11239746D01*
X9027306Y-11239746D02*
X9036829Y-11249269D01*
X9036829Y-11249269D02*
X9055877Y-11258793D01*
X9055877Y-11258793D02*
X9093972Y-11258793D01*
X9093972Y-11258793D02*
X9113020Y-11249269D01*
X9113020Y-11249269D02*
X9122544Y-11239746D01*
X9122544Y-11239746D02*
X9132068Y-11220698D01*
X9303496Y-11201650D02*
X9303496Y-11334984D01*
X9255877Y-11125460D02*
X9208258Y-11268317D01*
X9208258Y-11268317D02*
X9332068Y-11268317D01*
X9398734Y-11134984D02*
X9398734Y-11173079D01*
X9474925Y-11134984D02*
X9474925Y-11173079D01*
X9770163Y-11411174D02*
X9760639Y-11401650D01*
X9760639Y-11401650D02*
X9741591Y-11373079D01*
X9741591Y-11373079D02*
X9732068Y-11354031D01*
X9732068Y-11354031D02*
X9722544Y-11325460D01*
X9722544Y-11325460D02*
X9713020Y-11277841D01*
X9713020Y-11277841D02*
X9713020Y-11239746D01*
X9713020Y-11239746D02*
X9722544Y-11192127D01*
X9722544Y-11192127D02*
X9732068Y-11163555D01*
X9732068Y-11163555D02*
X9741591Y-11144508D01*
X9741591Y-11144508D02*
X9760639Y-11115936D01*
X9760639Y-11115936D02*
X9770163Y-11106412D01*
X9836830Y-11154031D02*
X9846353Y-11144508D01*
X9846353Y-11144508D02*
X9865401Y-11134984D01*
X9865401Y-11134984D02*
X9913020Y-11134984D01*
X9913020Y-11134984D02*
X9932068Y-11144508D01*
X9932068Y-11144508D02*
X9941591Y-11154031D01*
X9941591Y-11154031D02*
X9951115Y-11173079D01*
X9951115Y-11173079D02*
X9951115Y-11192127D01*
X9951115Y-11192127D02*
X9941591Y-11220698D01*
X9941591Y-11220698D02*
X9827306Y-11334984D01*
X9827306Y-11334984D02*
X9951115Y-11334984D01*
X10017782Y-11134984D02*
X10151115Y-11134984D01*
X10151115Y-11134984D02*
X10065401Y-11334984D01*
X10379687Y-11334984D02*
X10379687Y-11134984D01*
X10465401Y-11334984D02*
X10465401Y-11230222D01*
X10465401Y-11230222D02*
X10455877Y-11211174D01*
X10455877Y-11211174D02*
X10436830Y-11201650D01*
X10436830Y-11201650D02*
X10408258Y-11201650D01*
X10408258Y-11201650D02*
X10389211Y-11211174D01*
X10389211Y-11211174D02*
X10379687Y-11220698D01*
X10589211Y-11334984D02*
X10570163Y-11325460D01*
X10570163Y-11325460D02*
X10560639Y-11315936D01*
X10560639Y-11315936D02*
X10551115Y-11296888D01*
X10551115Y-11296888D02*
X10551115Y-11239746D01*
X10551115Y-11239746D02*
X10560639Y-11220698D01*
X10560639Y-11220698D02*
X10570163Y-11211174D01*
X10570163Y-11211174D02*
X10589211Y-11201650D01*
X10589211Y-11201650D02*
X10617782Y-11201650D01*
X10617782Y-11201650D02*
X10636830Y-11211174D01*
X10636830Y-11211174D02*
X10646353Y-11220698D01*
X10646353Y-11220698D02*
X10655877Y-11239746D01*
X10655877Y-11239746D02*
X10655877Y-11296888D01*
X10655877Y-11296888D02*
X10646353Y-11315936D01*
X10646353Y-11315936D02*
X10636830Y-11325460D01*
X10636830Y-11325460D02*
X10617782Y-11334984D01*
X10617782Y-11334984D02*
X10589211Y-11334984D01*
X10770163Y-11334984D02*
X10751115Y-11325460D01*
X10751115Y-11325460D02*
X10741592Y-11306412D01*
X10741592Y-11306412D02*
X10741592Y-11134984D01*
X10922544Y-11325460D02*
X10903496Y-11334984D01*
X10903496Y-11334984D02*
X10865401Y-11334984D01*
X10865401Y-11334984D02*
X10846353Y-11325460D01*
X10846353Y-11325460D02*
X10836830Y-11306412D01*
X10836830Y-11306412D02*
X10836830Y-11230222D01*
X10836830Y-11230222D02*
X10846353Y-11211174D01*
X10846353Y-11211174D02*
X10865401Y-11201650D01*
X10865401Y-11201650D02*
X10903496Y-11201650D01*
X10903496Y-11201650D02*
X10922544Y-11211174D01*
X10922544Y-11211174D02*
X10932068Y-11230222D01*
X10932068Y-11230222D02*
X10932068Y-11249269D01*
X10932068Y-11249269D02*
X10836830Y-11268317D01*
X11008258Y-11325460D02*
X11027306Y-11334984D01*
X11027306Y-11334984D02*
X11065401Y-11334984D01*
X11065401Y-11334984D02*
X11084449Y-11325460D01*
X11084449Y-11325460D02*
X11093973Y-11306412D01*
X11093973Y-11306412D02*
X11093973Y-11296888D01*
X11093973Y-11296888D02*
X11084449Y-11277841D01*
X11084449Y-11277841D02*
X11065401Y-11268317D01*
X11065401Y-11268317D02*
X11036830Y-11268317D01*
X11036830Y-11268317D02*
X11017782Y-11258793D01*
X11017782Y-11258793D02*
X11008258Y-11239746D01*
X11008258Y-11239746D02*
X11008258Y-11230222D01*
X11008258Y-11230222D02*
X11017782Y-11211174D01*
X11017782Y-11211174D02*
X11036830Y-11201650D01*
X11036830Y-11201650D02*
X11065401Y-11201650D01*
X11065401Y-11201650D02*
X11084449Y-11211174D01*
X11160639Y-11411174D02*
X11170163Y-11401650D01*
X11170163Y-11401650D02*
X11189211Y-11373079D01*
X11189211Y-11373079D02*
X11198734Y-11354031D01*
X11198734Y-11354031D02*
X11208258Y-11325460D01*
X11208258Y-11325460D02*
X11217782Y-11277841D01*
X11217782Y-11277841D02*
X11217782Y-11239746D01*
X11217782Y-11239746D02*
X11208258Y-11192127D01*
X11208258Y-11192127D02*
X11198734Y-11163555D01*
X11198734Y-11163555D02*
X11189211Y-11144508D01*
X11189211Y-11144508D02*
X11170163Y-11115936D01*
X11170163Y-11115936D02*
X11160639Y-11106412D01*
M02*
