%TF.GenerationSoftware,KiCad,Pcbnew,8.0.8-8.0.8-0~ubuntu24.04.1*%
%TF.CreationDate,2025-08-07T16:45:33-04:00*%
%TF.ProjectId,mainboard,6d61696e-626f-4617-9264-2e6b69636164,rev?*%
%TF.SameCoordinates,Original*%
%TF.FileFunction,Copper,L3,Inr*%
%TF.FilePolarity,Positive*%
%FSLAX46Y46*%
G04 Gerber Fmt 4.6, Leading zero omitted, Abs format (unit mm)*
G04 Created by KiCad (PCBNEW 8.0.8-8.0.8-0~ubuntu24.04.1) date 2025-08-07 16:45:33*
%MOMM*%
%LPD*%
G01*
G04 APERTURE LIST*
%TA.AperFunction,ComponentPad*%
%ADD10R,1.508000X1.508000*%
%TD*%
%TA.AperFunction,ComponentPad*%
%ADD11C,1.508000*%
%TD*%
%TA.AperFunction,ComponentPad*%
%ADD12R,1.700000X1.700000*%
%TD*%
%TA.AperFunction,ComponentPad*%
%ADD13O,1.700000X1.700000*%
%TD*%
%TA.AperFunction,ComponentPad*%
%ADD14C,1.219200*%
%TD*%
%TA.AperFunction,ComponentPad*%
%ADD15C,1.498600*%
%TD*%
%TA.AperFunction,ComponentPad*%
%ADD16C,1.346200*%
%TD*%
%TA.AperFunction,ViaPad*%
%ADD17C,1.000000*%
%TD*%
%TA.AperFunction,ViaPad*%
%ADD18C,0.860000*%
%TD*%
%TA.AperFunction,ViaPad*%
%ADD19C,0.700000*%
%TD*%
%TA.AperFunction,Conductor*%
%ADD20C,0.203200*%
%TD*%
G04 APERTURE END LIST*
D10*
%TO.N,RST*%
%TO.C,J7*%
X72748000Y-51137500D03*
D11*
%TO.N,SWDIO*%
X75288000Y-51137500D03*
%TO.N,GND*%
X72748000Y-53677500D03*
X75288000Y-53677500D03*
%TO.N,unconnected-(J7-Pad5)*%
X72747999Y-56217500D03*
%TO.N,SWCLK*%
X75288001Y-56217500D03*
%TO.N,unconnected-(J7-Pad7)*%
X72748000Y-58757500D03*
%TO.N,unconnected-(J7-Pad8)*%
X75288000Y-58757500D03*
%TO.N,/programming/5v5_in_jtag*%
X72748000Y-61297500D03*
X75288000Y-61297500D03*
%TD*%
D12*
%TO.N,unconnected-(J6-Pin_1-Pad1)*%
%TO.C,J6*%
X64135000Y-47625000D03*
D13*
%TO.N,PD2*%
X64135000Y-50165000D03*
%TO.N,PC12*%
X64135000Y-52704999D03*
%TO.N,unconnected-(J6-Pin_4-Pad4)*%
X64135000Y-55245000D03*
%TO.N,GND*%
X64135000Y-57785000D03*
X64135000Y-60325000D03*
%TD*%
D14*
%TO.N,PA0*%
%TO.C,U1*%
X129235000Y-61900000D03*
%TO.N,PA1*%
X129235000Y-59900001D03*
%TO.N,PA2*%
X129235000Y-57900000D03*
%TO.N,PA3*%
X129235000Y-55900001D03*
%TO.N,PA4*%
X129235000Y-53900000D03*
%TO.N,PA5*%
X129235000Y-51900002D03*
%TO.N,PA6*%
X129235000Y-49900001D03*
%TO.N,PA7*%
X129235000Y-47900000D03*
%TO.N,PA8*%
X131775000Y-61900000D03*
%TO.N,PA9*%
X131775000Y-59900001D03*
%TO.N,PA10*%
X131775000Y-57900000D03*
%TO.N,PB11*%
X131775000Y-55900001D03*
%TO.N,PB12*%
X131775000Y-53900000D03*
%TO.N,PB13*%
X131775000Y-51900002D03*
%TO.N,PB14*%
X131775000Y-49900001D03*
%TO.N,unconnected-(U1-Pad16)*%
X131775000Y-47900000D03*
%TD*%
D15*
%TO.N,+3.3V*%
%TO.C,J5*%
X128775000Y-32900000D03*
%TO.N,PC11*%
X126275000Y-32900000D03*
%TO.N,GND*%
X123775000Y-32900000D03*
%TD*%
D10*
%TO.N,PC13*%
%TO.C,J2*%
X65532000Y-33902002D03*
D11*
%TO.N,PC14*%
X65532000Y-36402002D03*
%TO.N,PC15*%
X65532000Y-38902000D03*
%TO.N,GND*%
X65532000Y-41402000D03*
%TD*%
D16*
%TO.N,PB0*%
%TO.C,J1*%
X92308399Y-31098306D03*
%TO.N,PB1*%
X92308399Y-33598306D03*
%TO.N,PB2*%
X94308400Y-31098306D03*
%TO.N,PB3*%
X94308400Y-33598306D03*
%TO.N,PB4*%
X96308398Y-31098306D03*
%TO.N,PB5*%
X96308398Y-33598306D03*
%TO.N,PB6*%
X98308400Y-31098306D03*
%TO.N,PB7*%
X98308400Y-33598306D03*
%TO.N,PB8*%
X100308398Y-31098306D03*
%TO.N,PB9*%
X100308398Y-33598306D03*
%TO.N,PB10*%
X102308399Y-31098306D03*
%TO.N,PC0*%
X102308399Y-33598306D03*
%TO.N,PC1*%
X104308400Y-31098306D03*
%TO.N,PC2*%
X104308400Y-33598306D03*
%TO.N,PC3*%
X106308399Y-31098306D03*
%TO.N,PC4*%
X106308399Y-33598306D03*
%TO.N,PC5*%
X108308400Y-31098306D03*
%TO.N,PC6*%
X108308400Y-33598306D03*
%TO.N,PC7*%
X110308398Y-31098306D03*
%TO.N,PC8*%
X110308398Y-33598306D03*
%TO.N,PC9*%
X112308399Y-31098306D03*
%TO.N,PC10*%
X112308399Y-33598306D03*
%TO.N,+3.3V*%
X114308398Y-31098306D03*
%TO.N,GND*%
X114308398Y-33598306D03*
%TD*%
D10*
%TO.N,PC13*%
%TO.C,J3*%
X76320002Y-24384000D03*
D11*
%TO.N,PC14*%
X78820002Y-24384000D03*
%TO.N,PC15*%
X81320000Y-24384000D03*
%TO.N,GND*%
X83820000Y-24384000D03*
%TD*%
D12*
%TO.N,GND*%
%TO.C,SW3*%
X87775000Y-46440000D03*
D13*
%TO.N,/stm/SW_BOOT0*%
X87775000Y-43900000D03*
%TO.N,+3.3V*%
X87775000Y-41360001D03*
%TD*%
D15*
%TO.N,RST*%
%TO.C,SW2*%
X132715000Y-71120000D03*
%TO.N,GND*%
X132715000Y-73620000D03*
%TD*%
%TO.N,+3.3V*%
%TO.C,J4*%
X66040000Y-74168000D03*
%TO.N,GND*%
X66040000Y-71668000D03*
%TD*%
D17*
%TO.N,/programming/5v5_post_diode*%
X76200000Y-73660000D03*
D18*
%TO.N,+3.3V*%
X85852000Y-65024000D03*
D19*
X115775000Y-63400000D03*
X117775000Y-55900000D03*
X107442000Y-55880000D03*
X101975000Y-54500000D03*
D18*
X99060000Y-85344000D03*
D19*
%TO.N,GND*%
X86106000Y-46482000D03*
X114975000Y-52500000D03*
X86360000Y-60960000D03*
X93853000Y-62484000D03*
X117052938Y-42282474D03*
X111760000Y-81280000D03*
X117221000Y-69088000D03*
X108839000Y-55499000D03*
X73914000Y-84978200D03*
X85090000Y-85090000D03*
X71120000Y-44704000D03*
X85090000Y-70739000D03*
X90424000Y-70742000D03*
X132080000Y-81280000D03*
X70036498Y-81212281D03*
X72136000Y-30480000D03*
X92575000Y-72300000D03*
X132080000Y-30480000D03*
X99575000Y-70900000D03*
X103403938Y-25431856D03*
X121920000Y-30480000D03*
%TO.N,PC9*%
X125575000Y-47100000D03*
X125575000Y-44248400D03*
%TO.N,PC3*%
X111861519Y-58613481D03*
X106775000Y-39300000D03*
%TO.N,PC8*%
X124375000Y-44248400D03*
X122775000Y-48751600D03*
%TO.N,PC6*%
X120215072Y-50700000D03*
X121575000Y-44300000D03*
%TO.N,PB8*%
X110875000Y-47200000D03*
X106675000Y-45000000D03*
%TO.N,PC2*%
X114101870Y-52718283D03*
X106775000Y-40500000D03*
%TO.N,PC10*%
X109075000Y-47300000D03*
X110775000Y-39900000D03*
%TO.N,PB3*%
X102146288Y-46571288D03*
X105975000Y-48600000D03*
%TO.N,PC5*%
X115575000Y-54700000D03*
%TO.N,PB10*%
X115775000Y-57700000D03*
%TO.N,PB9*%
X111475000Y-46400000D03*
X106675000Y-44000000D03*
%TO.N,PC7*%
X120975000Y-49500000D03*
X123375000Y-44248400D03*
%TO.N,PB5*%
X99575000Y-46600000D03*
X103975000Y-50000000D03*
X96475000Y-43500000D03*
%TO.N,PC0*%
X112323400Y-52500000D03*
X106775000Y-42900000D03*
%TO.N,PC1*%
X112975000Y-53300000D03*
X106775000Y-41700000D03*
%TO.N,PB2*%
X119775000Y-60100000D03*
%TO.N,PC4*%
X115375000Y-53700000D03*
%TO.N,PB6*%
X98375000Y-46600000D03*
X103175000Y-50700000D03*
%TO.N,PB7*%
X101875000Y-51700000D03*
X98275000Y-41600000D03*
%TO.N,PB1*%
X118575000Y-60300000D03*
X94488000Y-58420000D03*
%TO.N,PB0*%
X117575000Y-60498400D03*
%TO.N,PB4*%
X95475000Y-41200000D03*
X105075000Y-49300000D03*
X100875000Y-46600000D03*
%TO.N,PA8*%
X122625000Y-45048400D03*
X120125000Y-47450000D03*
%TO.N,PB14*%
X125475000Y-48900000D03*
%TO.N,PB11*%
X122075000Y-56700000D03*
%TO.N,PB12*%
X122075000Y-52900000D03*
%TO.N,PB13*%
X123375000Y-50800000D03*
%TO.N,PA9*%
X120575000Y-45700000D03*
X118852695Y-47322305D03*
%TO.N,PC15*%
X94775000Y-46800000D03*
X96075000Y-55800000D03*
X85090000Y-38902000D03*
%TO.N,PC14*%
X82296000Y-36322000D03*
X97075000Y-55100000D03*
X95775000Y-46600000D03*
%TO.N,PC13*%
X97875000Y-54300000D03*
X96675000Y-46500000D03*
%TO.N,PC11*%
X107975000Y-47100000D03*
X110675000Y-44400000D03*
%TO.N,RST*%
X107375000Y-62558000D03*
X110975000Y-68100000D03*
X108675000Y-57500000D03*
X93175000Y-49751600D03*
%TD*%
D20*
%TO.N,PC9*%
X125575000Y-44248400D02*
X125575000Y-47100000D01*
%TO.N,PC3*%
X106775000Y-46900000D02*
X106775000Y-50900000D01*
X107975000Y-39900000D02*
X107975000Y-45700000D01*
X111861519Y-57986519D02*
X111861519Y-58613481D01*
X109675000Y-55800000D02*
X111861519Y-57986519D01*
X109675000Y-53800000D02*
X109675000Y-55800000D01*
X106775000Y-50900000D02*
X109675000Y-53800000D01*
X107975000Y-45700000D02*
X106775000Y-46900000D01*
X106775000Y-39300000D02*
X107375000Y-39300000D01*
X107375000Y-39300000D02*
X107975000Y-39900000D01*
%TO.N,PC8*%
X124375000Y-44248400D02*
X124375000Y-47151600D01*
X124375000Y-47151600D02*
X122775000Y-48751600D01*
%TO.N,PC6*%
X120215072Y-48570679D02*
X121575000Y-47210751D01*
X121575000Y-47210751D02*
X121575000Y-44300000D01*
X120215072Y-50700000D02*
X120215072Y-48570679D01*
%TO.N,PB3*%
X105975000Y-48600000D02*
X104175000Y-48600000D01*
X104175000Y-48600000D02*
X102146288Y-46571288D01*
%TO.N,PC7*%
X120975000Y-49500000D02*
X123375000Y-47100000D01*
X123375000Y-47100000D02*
X123375000Y-44248400D01*
%TO.N,PB5*%
X102975000Y-50000000D02*
X99575000Y-46600000D01*
X103975000Y-50000000D02*
X102975000Y-50000000D01*
%TO.N,PB6*%
X102475000Y-50700000D02*
X98375000Y-46600000D01*
X103175000Y-50700000D02*
X102475000Y-50700000D01*
%TO.N,PB7*%
X101875000Y-51600000D02*
X97675000Y-47400000D01*
X98275000Y-45778498D02*
X98275000Y-41600000D01*
X97675000Y-46378498D02*
X98275000Y-45778498D01*
X101875000Y-51700000D02*
X101875000Y-51600000D01*
X97675000Y-47400000D02*
X97675000Y-46378498D01*
%TO.N,PB1*%
X92308399Y-56240399D02*
X92308399Y-33598306D01*
X94488000Y-58420000D02*
X92308399Y-56240399D01*
%TO.N,PB4*%
X103575000Y-49300000D02*
X100875000Y-46600000D01*
X105075000Y-49300000D02*
X103575000Y-49300000D01*
%TO.N,PC15*%
X96075000Y-55800000D02*
X94775000Y-54500000D01*
X94775000Y-54500000D02*
X94775000Y-46800000D01*
%TO.N,PC14*%
X97075000Y-55100000D02*
X95775000Y-53800000D01*
X95775000Y-53800000D02*
X95775000Y-46600000D01*
%TO.N,PC13*%
X96675000Y-53100000D02*
X96675000Y-46500000D01*
X97875000Y-54300000D02*
X96675000Y-53100000D01*
%TO.N,PC11*%
X107975000Y-47100000D02*
X110675000Y-44400000D01*
%TD*%
%TA.AperFunction,Conductor*%
%TO.N,+3.3V*%
G36*
X113917859Y-31260072D02*
G01*
X113973035Y-31355639D01*
X114051065Y-31433669D01*
X114146632Y-31488845D01*
X114245043Y-31515214D01*
X113674609Y-32085646D01*
X113674610Y-32085647D01*
X113783258Y-32152919D01*
X113783264Y-32152922D01*
X113988448Y-32232410D01*
X114043849Y-32274983D01*
X114067440Y-32340750D01*
X114051729Y-32408830D01*
X114001705Y-32457609D01*
X113988448Y-32463663D01*
X113783047Y-32543236D01*
X113783037Y-32543241D01*
X113598120Y-32657738D01*
X113598118Y-32657739D01*
X113598116Y-32657741D01*
X113452532Y-32790457D01*
X113437379Y-32804271D01*
X113407351Y-32844034D01*
X113351242Y-32885669D01*
X113281530Y-32890360D01*
X113220348Y-32856617D01*
X113209444Y-32844032D01*
X113179419Y-32804272D01*
X113179416Y-32804269D01*
X113018681Y-32657741D01*
X112833759Y-32543241D01*
X112833758Y-32543240D01*
X112708258Y-32494622D01*
X112630946Y-32464671D01*
X112630944Y-32464670D01*
X112629040Y-32463933D01*
X112573639Y-32421360D01*
X112550048Y-32355593D01*
X112565759Y-32287513D01*
X112615783Y-32238734D01*
X112629040Y-32232679D01*
X112630944Y-32231941D01*
X112630946Y-32231941D01*
X112833759Y-32153371D01*
X113018681Y-32038871D01*
X113179416Y-31892343D01*
X113259184Y-31786712D01*
X113287299Y-31765849D01*
X113891489Y-31161660D01*
X113917859Y-31260072D01*
G37*
%TD.AperFunction*%
%TA.AperFunction,Conductor*%
G36*
X137874201Y-21332185D02*
G01*
X137894843Y-21348819D01*
X139687181Y-23141157D01*
X139720666Y-23202480D01*
X139723500Y-23228838D01*
X139723500Y-88023162D01*
X139703815Y-88090201D01*
X139687181Y-88110843D01*
X137894843Y-89903181D01*
X137833520Y-89936666D01*
X137807162Y-89939500D01*
X64122838Y-89939500D01*
X64055799Y-89919815D01*
X64035157Y-89903181D01*
X62242819Y-88110843D01*
X62209334Y-88049520D01*
X62206500Y-88023162D01*
X62206500Y-85463186D01*
X64147500Y-85463186D01*
X64147500Y-85732813D01*
X64177686Y-86000719D01*
X64177688Y-86000731D01*
X64237684Y-86263594D01*
X64237687Y-86263602D01*
X64326734Y-86518082D01*
X64443714Y-86760994D01*
X64443716Y-86760997D01*
X64587162Y-86989289D01*
X64755266Y-87200085D01*
X64945915Y-87390734D01*
X65156711Y-87558838D01*
X65385003Y-87702284D01*
X65627921Y-87819267D01*
X65819049Y-87886145D01*
X65882397Y-87908312D01*
X65882405Y-87908315D01*
X65882408Y-87908315D01*
X65882409Y-87908316D01*
X66145268Y-87968312D01*
X66413187Y-87998499D01*
X66413188Y-87998500D01*
X66413191Y-87998500D01*
X66682812Y-87998500D01*
X66682812Y-87998499D01*
X66950732Y-87968312D01*
X67213591Y-87908316D01*
X67468079Y-87819267D01*
X67710997Y-87702284D01*
X67939289Y-87558838D01*
X68150085Y-87390734D01*
X68340734Y-87200085D01*
X68508838Y-86989289D01*
X68652284Y-86760997D01*
X68769267Y-86518079D01*
X68858316Y-86263591D01*
X68918312Y-86000732D01*
X68948500Y-85732809D01*
X68948500Y-85463191D01*
X68918312Y-85195268D01*
X68868768Y-84978200D01*
X73058815Y-84978200D01*
X73077503Y-85156005D01*
X73077504Y-85156007D01*
X73132747Y-85326029D01*
X73132750Y-85326035D01*
X73222141Y-85480865D01*
X73263812Y-85527146D01*
X73341764Y-85613721D01*
X73341767Y-85613723D01*
X73341770Y-85613726D01*
X73486407Y-85718812D01*
X73649733Y-85791529D01*
X73824609Y-85828700D01*
X73824610Y-85828700D01*
X74003389Y-85828700D01*
X74003391Y-85828700D01*
X74178267Y-85791529D01*
X74341593Y-85718812D01*
X74486230Y-85613726D01*
X74505194Y-85592665D01*
X74512148Y-85584941D01*
X74605859Y-85480865D01*
X74695250Y-85326035D01*
X74750497Y-85156003D01*
X74757434Y-85090000D01*
X84234815Y-85090000D01*
X84253503Y-85267805D01*
X84253504Y-85267807D01*
X84308747Y-85437829D01*
X84308750Y-85437835D01*
X84398141Y-85592665D01*
X84439812Y-85638946D01*
X84517764Y-85725521D01*
X84517767Y-85725523D01*
X84517770Y-85725526D01*
X84662407Y-85830612D01*
X84825733Y-85903329D01*
X85000609Y-85940500D01*
X85000610Y-85940500D01*
X85179389Y-85940500D01*
X85179391Y-85940500D01*
X85354267Y-85903329D01*
X85517593Y-85830612D01*
X85662230Y-85725526D01*
X85668276Y-85718812D01*
X85688148Y-85696741D01*
X85781859Y-85592665D01*
X85856614Y-85463186D01*
X132981500Y-85463186D01*
X132981500Y-85732813D01*
X133011686Y-86000719D01*
X133011688Y-86000731D01*
X133071684Y-86263594D01*
X133071687Y-86263602D01*
X133160734Y-86518082D01*
X133277714Y-86760994D01*
X133277716Y-86760997D01*
X133421162Y-86989289D01*
X133589266Y-87200085D01*
X133779915Y-87390734D01*
X133990711Y-87558838D01*
X134219003Y-87702284D01*
X134461921Y-87819267D01*
X134653049Y-87886145D01*
X134716397Y-87908312D01*
X134716405Y-87908315D01*
X134716408Y-87908315D01*
X134716409Y-87908316D01*
X134979268Y-87968312D01*
X135247187Y-87998499D01*
X135247188Y-87998500D01*
X135247191Y-87998500D01*
X135516812Y-87998500D01*
X135516812Y-87998499D01*
X135784732Y-87968312D01*
X136047591Y-87908316D01*
X136302079Y-87819267D01*
X136544997Y-87702284D01*
X136773289Y-87558838D01*
X136984085Y-87390734D01*
X137174734Y-87200085D01*
X137342838Y-86989289D01*
X137486284Y-86760997D01*
X137603267Y-86518079D01*
X137692316Y-86263591D01*
X137752312Y-86000732D01*
X137782500Y-85732809D01*
X137782500Y-85463191D01*
X137752312Y-85195268D01*
X137692316Y-84932409D01*
X137685242Y-84912194D01*
X137646121Y-84800392D01*
X137603267Y-84677921D01*
X137486284Y-84435003D01*
X137342838Y-84206711D01*
X137174734Y-83995915D01*
X136984085Y-83805266D01*
X136773289Y-83637162D01*
X136544997Y-83493716D01*
X136544994Y-83493714D01*
X136302082Y-83376734D01*
X136047602Y-83287687D01*
X136047594Y-83287684D01*
X135850446Y-83242687D01*
X135784732Y-83227688D01*
X135784728Y-83227687D01*
X135784719Y-83227686D01*
X135516813Y-83197500D01*
X135516809Y-83197500D01*
X135247191Y-83197500D01*
X135247186Y-83197500D01*
X134979280Y-83227686D01*
X134979268Y-83227688D01*
X134716405Y-83287684D01*
X134716397Y-83287687D01*
X134461917Y-83376734D01*
X134219005Y-83493714D01*
X133990712Y-83637161D01*
X133779915Y-83805265D01*
X133589265Y-83995915D01*
X133421161Y-84206712D01*
X133277714Y-84435005D01*
X133160734Y-84677917D01*
X133071687Y-84932397D01*
X133071684Y-84932405D01*
X133011688Y-85195268D01*
X133011686Y-85195280D01*
X132981500Y-85463186D01*
X85856614Y-85463186D01*
X85871250Y-85437835D01*
X85926497Y-85267803D01*
X85945185Y-85090000D01*
X85926497Y-84912197D01*
X85871250Y-84742165D01*
X85781859Y-84587335D01*
X85735003Y-84535296D01*
X85662235Y-84454478D01*
X85662232Y-84454476D01*
X85662231Y-84454475D01*
X85662230Y-84454474D01*
X85517593Y-84349388D01*
X85354267Y-84276671D01*
X85354265Y-84276670D01*
X85226594Y-84249533D01*
X85179391Y-84239500D01*
X85000609Y-84239500D01*
X84969954Y-84246015D01*
X84825733Y-84276670D01*
X84825728Y-84276672D01*
X84662408Y-84349387D01*
X84517768Y-84454475D01*
X84398140Y-84587336D01*
X84308750Y-84742164D01*
X84308747Y-84742170D01*
X84253504Y-84912192D01*
X84253503Y-84912194D01*
X84234815Y-85090000D01*
X74757434Y-85090000D01*
X74769185Y-84978200D01*
X74750497Y-84800397D01*
X74695250Y-84630365D01*
X74605859Y-84475535D01*
X74559003Y-84423496D01*
X74486235Y-84342678D01*
X74486232Y-84342676D01*
X74486231Y-84342675D01*
X74486230Y-84342674D01*
X74341593Y-84237588D01*
X74178267Y-84164871D01*
X74178265Y-84164870D01*
X74050594Y-84137733D01*
X74003391Y-84127700D01*
X73824609Y-84127700D01*
X73793954Y-84134215D01*
X73649733Y-84164870D01*
X73649728Y-84164872D01*
X73486408Y-84237587D01*
X73341768Y-84342675D01*
X73222140Y-84475536D01*
X73132750Y-84630364D01*
X73132747Y-84630370D01*
X73077504Y-84800392D01*
X73077503Y-84800394D01*
X73058815Y-84978200D01*
X68868768Y-84978200D01*
X68858316Y-84932409D01*
X68851242Y-84912194D01*
X68812121Y-84800392D01*
X68769267Y-84677921D01*
X68652284Y-84435003D01*
X68508838Y-84206711D01*
X68340734Y-83995915D01*
X68150085Y-83805266D01*
X67939289Y-83637162D01*
X67710997Y-83493716D01*
X67710994Y-83493714D01*
X67468082Y-83376734D01*
X67213602Y-83287687D01*
X67213594Y-83287684D01*
X67016446Y-83242687D01*
X66950732Y-83227688D01*
X66950728Y-83227687D01*
X66950719Y-83227686D01*
X66682813Y-83197500D01*
X66682809Y-83197500D01*
X66413191Y-83197500D01*
X66413186Y-83197500D01*
X66145280Y-83227686D01*
X66145268Y-83227688D01*
X65882405Y-83287684D01*
X65882397Y-83287687D01*
X65627917Y-83376734D01*
X65385005Y-83493714D01*
X65156712Y-83637161D01*
X64945915Y-83805265D01*
X64755265Y-83995915D01*
X64587161Y-84206712D01*
X64443714Y-84435005D01*
X64326734Y-84677917D01*
X64237687Y-84932397D01*
X64237684Y-84932405D01*
X64177688Y-85195268D01*
X64177686Y-85195280D01*
X64147500Y-85463186D01*
X62206500Y-85463186D01*
X62206500Y-81212281D01*
X69181313Y-81212281D01*
X69200001Y-81390086D01*
X69200002Y-81390088D01*
X69255245Y-81560110D01*
X69255248Y-81560116D01*
X69344639Y-81714946D01*
X69386310Y-81761227D01*
X69464262Y-81847802D01*
X69464265Y-81847804D01*
X69464268Y-81847807D01*
X69608905Y-81952893D01*
X69772231Y-82025610D01*
X69947107Y-82062781D01*
X69947108Y-82062781D01*
X70125887Y-82062781D01*
X70125889Y-82062781D01*
X70300765Y-82025610D01*
X70464091Y-81952893D01*
X70608728Y-81847807D01*
X70728357Y-81714946D01*
X70817748Y-81560116D01*
X70872995Y-81390084D01*
X70884565Y-81280000D01*
X110904815Y-81280000D01*
X110923503Y-81457805D01*
X110923504Y-81457807D01*
X110978747Y-81627829D01*
X110978750Y-81627835D01*
X111068141Y-81782665D01*
X111109812Y-81828946D01*
X111187764Y-81915521D01*
X111187767Y-81915523D01*
X111187770Y-81915526D01*
X111332407Y-82020612D01*
X111495733Y-82093329D01*
X111670609Y-82130500D01*
X111670610Y-82130500D01*
X111849389Y-82130500D01*
X111849391Y-82130500D01*
X112024267Y-82093329D01*
X112187593Y-82020612D01*
X112332230Y-81915526D01*
X112451859Y-81782665D01*
X112541250Y-81627835D01*
X112596497Y-81457803D01*
X112615185Y-81280000D01*
X131224815Y-81280000D01*
X131243503Y-81457805D01*
X131243504Y-81457807D01*
X131298747Y-81627829D01*
X131298750Y-81627835D01*
X131388141Y-81782665D01*
X131429812Y-81828946D01*
X131507764Y-81915521D01*
X131507767Y-81915523D01*
X131507770Y-81915526D01*
X131652407Y-82020612D01*
X131815733Y-82093329D01*
X131990609Y-82130500D01*
X131990610Y-82130500D01*
X132169389Y-82130500D01*
X132169391Y-82130500D01*
X132344267Y-82093329D01*
X132507593Y-82020612D01*
X132652230Y-81915526D01*
X132771859Y-81782665D01*
X132861250Y-81627835D01*
X132916497Y-81457803D01*
X132935185Y-81280000D01*
X132916497Y-81102197D01*
X132861250Y-80932165D01*
X132771859Y-80777335D01*
X132710885Y-80709617D01*
X132652235Y-80644478D01*
X132652232Y-80644476D01*
X132652231Y-80644475D01*
X132652230Y-80644474D01*
X132507593Y-80539388D01*
X132344267Y-80466671D01*
X132344265Y-80466670D01*
X132216594Y-80439533D01*
X132169391Y-80429500D01*
X131990609Y-80429500D01*
X131959954Y-80436015D01*
X131815733Y-80466670D01*
X131815728Y-80466672D01*
X131652408Y-80539387D01*
X131507768Y-80644475D01*
X131388140Y-80777336D01*
X131298750Y-80932164D01*
X131298747Y-80932170D01*
X131243504Y-81102192D01*
X131243503Y-81102194D01*
X131224815Y-81280000D01*
X112615185Y-81280000D01*
X112596497Y-81102197D01*
X112541250Y-80932165D01*
X112451859Y-80777335D01*
X112390885Y-80709617D01*
X112332235Y-80644478D01*
X112332232Y-80644476D01*
X112332231Y-80644475D01*
X112332230Y-80644474D01*
X112187593Y-80539388D01*
X112024267Y-80466671D01*
X112024265Y-80466670D01*
X111896594Y-80439533D01*
X111849391Y-80429500D01*
X111670609Y-80429500D01*
X111639954Y-80436015D01*
X111495733Y-80466670D01*
X111495728Y-80466672D01*
X111332408Y-80539387D01*
X111187768Y-80644475D01*
X111068140Y-80777336D01*
X110978750Y-80932164D01*
X110978747Y-80932170D01*
X110923504Y-81102192D01*
X110923503Y-81102194D01*
X110904815Y-81280000D01*
X70884565Y-81280000D01*
X70891683Y-81212281D01*
X70872995Y-81034478D01*
X70817748Y-80864446D01*
X70728357Y-80709616D01*
X70681501Y-80657577D01*
X70608733Y-80576759D01*
X70608730Y-80576757D01*
X70608729Y-80576756D01*
X70608728Y-80576755D01*
X70464091Y-80471669D01*
X70300765Y-80398952D01*
X70300763Y-80398951D01*
X70173092Y-80371814D01*
X70125889Y-80361781D01*
X69947107Y-80361781D01*
X69916452Y-80368296D01*
X69772231Y-80398951D01*
X69772226Y-80398953D01*
X69608906Y-80471668D01*
X69464266Y-80576756D01*
X69344638Y-80709617D01*
X69255248Y-80864445D01*
X69255245Y-80864451D01*
X69200002Y-81034473D01*
X69200001Y-81034475D01*
X69181313Y-81212281D01*
X62206500Y-81212281D01*
X62206500Y-71667999D01*
X64785426Y-71667999D01*
X64785426Y-71668000D01*
X64804485Y-71885849D01*
X64804487Y-71885859D01*
X64861083Y-72097082D01*
X64861085Y-72097086D01*
X64861086Y-72097090D01*
X64872794Y-72122197D01*
X64953506Y-72295286D01*
X64956807Y-72300000D01*
X65078941Y-72474425D01*
X65233575Y-72629059D01*
X65379430Y-72731188D01*
X65412713Y-72754493D01*
X65522943Y-72805894D01*
X65575382Y-72852066D01*
X65594534Y-72919260D01*
X65574318Y-72986141D01*
X65522943Y-73030658D01*
X65412964Y-73081942D01*
X65350930Y-73125377D01*
X65914428Y-73688874D01*
X65848821Y-73706454D01*
X65735879Y-73771661D01*
X65643661Y-73863879D01*
X65578454Y-73976821D01*
X65560874Y-74042427D01*
X64997377Y-73478930D01*
X64953942Y-73540964D01*
X64861559Y-73739080D01*
X64861555Y-73739089D01*
X64804981Y-73950228D01*
X64804979Y-73950238D01*
X64785928Y-74167998D01*
X64785928Y-74168001D01*
X64804979Y-74385761D01*
X64804981Y-74385771D01*
X64861555Y-74596910D01*
X64861559Y-74596919D01*
X64953944Y-74795039D01*
X64997376Y-74857068D01*
X64997377Y-74857069D01*
X65560874Y-74293572D01*
X65578454Y-74359179D01*
X65643661Y-74472121D01*
X65735879Y-74564339D01*
X65848821Y-74629546D01*
X65914427Y-74647125D01*
X65350929Y-75210621D01*
X65350930Y-75210622D01*
X65412960Y-75254055D01*
X65611080Y-75346440D01*
X65611089Y-75346444D01*
X65822228Y-75403018D01*
X65822238Y-75403020D01*
X66039998Y-75422072D01*
X66040002Y-75422072D01*
X66257761Y-75403020D01*
X66257771Y-75403018D01*
X66468910Y-75346444D01*
X66468919Y-75346440D01*
X66667035Y-75254057D01*
X66729069Y-75210621D01*
X66165573Y-74647125D01*
X66231179Y-74629546D01*
X66344121Y-74564339D01*
X66436339Y-74472121D01*
X66501546Y-74359179D01*
X66519125Y-74293573D01*
X67082621Y-74857069D01*
X67126057Y-74795035D01*
X67218440Y-74596919D01*
X67218444Y-74596910D01*
X67275018Y-74385771D01*
X67275020Y-74385761D01*
X67294072Y-74168001D01*
X67294072Y-74167998D01*
X67275020Y-73950238D01*
X67275018Y-73950228D01*
X67218444Y-73739089D01*
X67218440Y-73739080D01*
X67181564Y-73660000D01*
X75194659Y-73660000D01*
X75213975Y-73856129D01*
X75271188Y-74044733D01*
X75364086Y-74218532D01*
X75364090Y-74218539D01*
X75489116Y-74370883D01*
X75641460Y-74495909D01*
X75641467Y-74495913D01*
X75815266Y-74588811D01*
X75815269Y-74588811D01*
X75815273Y-74588814D01*
X76003868Y-74646024D01*
X76200000Y-74665341D01*
X76396132Y-74646024D01*
X76584727Y-74588814D01*
X76630517Y-74564339D01*
X76758532Y-74495913D01*
X76758538Y-74495910D01*
X76910883Y-74370883D01*
X77035910Y-74218538D01*
X77097777Y-74102793D01*
X77128811Y-74044733D01*
X77128811Y-74044732D01*
X77128814Y-74044727D01*
X77186024Y-73856132D01*
X77205341Y-73660000D01*
X77186024Y-73463868D01*
X77128814Y-73275273D01*
X77128811Y-73275269D01*
X77128811Y-73275266D01*
X77035913Y-73101467D01*
X77035909Y-73101460D01*
X76910883Y-72949116D01*
X76758539Y-72824090D01*
X76758532Y-72824086D01*
X76584733Y-72731188D01*
X76584727Y-72731186D01*
X76396132Y-72673976D01*
X76396129Y-72673975D01*
X76200000Y-72654659D01*
X76003870Y-72673975D01*
X75815266Y-72731188D01*
X75641467Y-72824086D01*
X75641460Y-72824090D01*
X75489116Y-72949116D01*
X75364090Y-73101460D01*
X75364086Y-73101467D01*
X75271188Y-73275266D01*
X75213975Y-73463870D01*
X75194659Y-73660000D01*
X67181564Y-73660000D01*
X67126055Y-73540960D01*
X67082622Y-73478930D01*
X67082621Y-73478929D01*
X66519124Y-74042426D01*
X66501546Y-73976821D01*
X66436339Y-73863879D01*
X66344121Y-73771661D01*
X66231179Y-73706454D01*
X66165572Y-73688874D01*
X66729069Y-73125377D01*
X66729068Y-73125376D01*
X66667038Y-73081943D01*
X66667036Y-73081942D01*
X66557057Y-73030658D01*
X66504617Y-72984486D01*
X66485465Y-72917292D01*
X66505681Y-72850411D01*
X66557057Y-72805894D01*
X66563986Y-72802663D01*
X66667287Y-72754493D01*
X66846425Y-72629059D01*
X67001059Y-72474425D01*
X67123193Y-72300000D01*
X91719815Y-72300000D01*
X91738503Y-72477805D01*
X91738504Y-72477807D01*
X91793747Y-72647829D01*
X91793750Y-72647835D01*
X91883141Y-72802665D01*
X91922983Y-72846914D01*
X92002764Y-72935521D01*
X92002767Y-72935523D01*
X92002770Y-72935526D01*
X92147407Y-73040612D01*
X92310733Y-73113329D01*
X92485609Y-73150500D01*
X92485610Y-73150500D01*
X92664389Y-73150500D01*
X92664391Y-73150500D01*
X92839267Y-73113329D01*
X93002593Y-73040612D01*
X93147230Y-72935526D01*
X93266859Y-72802665D01*
X93356250Y-72647835D01*
X93411497Y-72477803D01*
X93430185Y-72300000D01*
X93411497Y-72122197D01*
X93356250Y-71952165D01*
X93266859Y-71797335D01*
X93220003Y-71745296D01*
X93147235Y-71664478D01*
X93147232Y-71664476D01*
X93147231Y-71664475D01*
X93147230Y-71664474D01*
X93002593Y-71559388D01*
X92839267Y-71486671D01*
X92839265Y-71486670D01*
X92711594Y-71459533D01*
X92664391Y-71449500D01*
X92485609Y-71449500D01*
X92454954Y-71456015D01*
X92310733Y-71486670D01*
X92310728Y-71486672D01*
X92147408Y-71559387D01*
X92002768Y-71664475D01*
X91883140Y-71797336D01*
X91793750Y-71952164D01*
X91793747Y-71952170D01*
X91738504Y-72122192D01*
X91738503Y-72122194D01*
X91719815Y-72300000D01*
X67123193Y-72300000D01*
X67126493Y-72295287D01*
X67218914Y-72097090D01*
X67275514Y-71885854D01*
X67294574Y-71668000D01*
X67275514Y-71450146D01*
X67232539Y-71289760D01*
X67218916Y-71238917D01*
X67218915Y-71238916D01*
X67218914Y-71238910D01*
X67126493Y-71040713D01*
X67001059Y-70861575D01*
X66878484Y-70739000D01*
X84234815Y-70739000D01*
X84253503Y-70916805D01*
X84253504Y-70916807D01*
X84308747Y-71086829D01*
X84308750Y-71086835D01*
X84398141Y-71241665D01*
X84403697Y-71247835D01*
X84517764Y-71374521D01*
X84517767Y-71374523D01*
X84517770Y-71374526D01*
X84662407Y-71479612D01*
X84825733Y-71552329D01*
X85000609Y-71589500D01*
X85000610Y-71589500D01*
X85179389Y-71589500D01*
X85179391Y-71589500D01*
X85354267Y-71552329D01*
X85517593Y-71479612D01*
X85662230Y-71374526D01*
X85781859Y-71241665D01*
X85871250Y-71086835D01*
X85926497Y-70916803D01*
X85944870Y-70742000D01*
X89568815Y-70742000D01*
X89587503Y-70919805D01*
X89587504Y-70919807D01*
X89642747Y-71089829D01*
X89642750Y-71089835D01*
X89732141Y-71244665D01*
X89773812Y-71290946D01*
X89851764Y-71377521D01*
X89851767Y-71377523D01*
X89851770Y-71377526D01*
X89996407Y-71482612D01*
X90159733Y-71555329D01*
X90334609Y-71592500D01*
X90334610Y-71592500D01*
X90513389Y-71592500D01*
X90513391Y-71592500D01*
X90688267Y-71555329D01*
X90851593Y-71482612D01*
X90996230Y-71377526D01*
X90998932Y-71374526D01*
X91031955Y-71337849D01*
X91115859Y-71244665D01*
X91205250Y-71089835D01*
X91260497Y-70919803D01*
X91262578Y-70900000D01*
X98719815Y-70900000D01*
X98738503Y-71077805D01*
X98738504Y-71077807D01*
X98793747Y-71247829D01*
X98793750Y-71247835D01*
X98883141Y-71402665D01*
X98924812Y-71448946D01*
X99002764Y-71535521D01*
X99002767Y-71535523D01*
X99002770Y-71535526D01*
X99147407Y-71640612D01*
X99310733Y-71713329D01*
X99485609Y-71750500D01*
X99485610Y-71750500D01*
X99664389Y-71750500D01*
X99664391Y-71750500D01*
X99839267Y-71713329D01*
X100002593Y-71640612D01*
X100147230Y-71535526D01*
X100266859Y-71402665D01*
X100356250Y-71247835D01*
X100397787Y-71119999D01*
X131460426Y-71119999D01*
X131460426Y-71120000D01*
X131479485Y-71337849D01*
X131479487Y-71337859D01*
X131536083Y-71549082D01*
X131536085Y-71549086D01*
X131536086Y-71549090D01*
X131578763Y-71640610D01*
X131628506Y-71747286D01*
X131653593Y-71783114D01*
X131753941Y-71926425D01*
X131908575Y-72081059D01*
X132087713Y-72206493D01*
X132197351Y-72257618D01*
X132249790Y-72303790D01*
X132268942Y-72370984D01*
X132248726Y-72437865D01*
X132197351Y-72482382D01*
X132087713Y-72533506D01*
X131968201Y-72617190D01*
X131908575Y-72658941D01*
X131908573Y-72658942D01*
X131908570Y-72658945D01*
X131753945Y-72813570D01*
X131753942Y-72813573D01*
X131753941Y-72813575D01*
X131730597Y-72846914D01*
X131628506Y-72992713D01*
X131536087Y-73190908D01*
X131536083Y-73190917D01*
X131479487Y-73402140D01*
X131479485Y-73402150D01*
X131460426Y-73619999D01*
X131460426Y-73620000D01*
X131479485Y-73837849D01*
X131479487Y-73837859D01*
X131536083Y-74049082D01*
X131536085Y-74049086D01*
X131536086Y-74049090D01*
X131561128Y-74102793D01*
X131628506Y-74247286D01*
X131628507Y-74247287D01*
X131753941Y-74426425D01*
X131908575Y-74581059D01*
X132087713Y-74706493D01*
X132285910Y-74798914D01*
X132497146Y-74855514D01*
X132671429Y-74870762D01*
X132714999Y-74874574D01*
X132715000Y-74874574D01*
X132715001Y-74874574D01*
X132751309Y-74871397D01*
X132932854Y-74855514D01*
X133144090Y-74798914D01*
X133342287Y-74706493D01*
X133521425Y-74581059D01*
X133676059Y-74426425D01*
X133801493Y-74247287D01*
X133893914Y-74049090D01*
X133950514Y-73837854D01*
X133969574Y-73620000D01*
X133950514Y-73402146D01*
X133893914Y-73190910D01*
X133801493Y-72992713D01*
X133676059Y-72813575D01*
X133521425Y-72658941D01*
X133342287Y-72533507D01*
X133232648Y-72482381D01*
X133180209Y-72436210D01*
X133161057Y-72369016D01*
X133181273Y-72302135D01*
X133232649Y-72257618D01*
X133342287Y-72206493D01*
X133521425Y-72081059D01*
X133676059Y-71926425D01*
X133801493Y-71747287D01*
X133893914Y-71549090D01*
X133950514Y-71337854D01*
X133969574Y-71120000D01*
X133950514Y-70902146D01*
X133898211Y-70706945D01*
X133893916Y-70690917D01*
X133893915Y-70690916D01*
X133893914Y-70690910D01*
X133801493Y-70492713D01*
X133676059Y-70313575D01*
X133521425Y-70158941D01*
X133342287Y-70033507D01*
X133342288Y-70033507D01*
X133342286Y-70033506D01*
X133243188Y-69987296D01*
X133144090Y-69941086D01*
X133144086Y-69941085D01*
X133144082Y-69941083D01*
X132932859Y-69884487D01*
X132932849Y-69884485D01*
X132715001Y-69865426D01*
X132714999Y-69865426D01*
X132497150Y-69884485D01*
X132497140Y-69884487D01*
X132285917Y-69941083D01*
X132285908Y-69941087D01*
X132087713Y-70033506D01*
X131983500Y-70106478D01*
X131908575Y-70158941D01*
X131908573Y-70158942D01*
X131908570Y-70158945D01*
X131753945Y-70313570D01*
X131628506Y-70492713D01*
X131536087Y-70690908D01*
X131536083Y-70690917D01*
X131479487Y-70902140D01*
X131479485Y-70902150D01*
X131460426Y-71119999D01*
X100397787Y-71119999D01*
X100411497Y-71077803D01*
X100430185Y-70900000D01*
X100411497Y-70722197D01*
X100365784Y-70581506D01*
X100356252Y-70552170D01*
X100356249Y-70552164D01*
X100321925Y-70492713D01*
X100266859Y-70397335D01*
X100191441Y-70313575D01*
X100147235Y-70264478D01*
X100147232Y-70264476D01*
X100147231Y-70264475D01*
X100147230Y-70264474D01*
X100002593Y-70159388D01*
X99839267Y-70086671D01*
X99839265Y-70086670D01*
X99711594Y-70059533D01*
X99664391Y-70049500D01*
X99485609Y-70049500D01*
X99454954Y-70056015D01*
X99310733Y-70086670D01*
X99310728Y-70086672D01*
X99147408Y-70159387D01*
X99002768Y-70264475D01*
X98883140Y-70397336D01*
X98793750Y-70552164D01*
X98793747Y-70552170D01*
X98738504Y-70722192D01*
X98738503Y-70722194D01*
X98719815Y-70900000D01*
X91262578Y-70900000D01*
X91279185Y-70742000D01*
X91260497Y-70564197D01*
X91217702Y-70432487D01*
X91205252Y-70394170D01*
X91205249Y-70394164D01*
X91115859Y-70239335D01*
X91069003Y-70187296D01*
X90996235Y-70106478D01*
X90996232Y-70106476D01*
X90996231Y-70106475D01*
X90996230Y-70106474D01*
X90851593Y-70001388D01*
X90688267Y-69928671D01*
X90688265Y-69928670D01*
X90559633Y-69901329D01*
X90513391Y-69891500D01*
X90334609Y-69891500D01*
X90303954Y-69898015D01*
X90159733Y-69928670D01*
X90159728Y-69928672D01*
X89996408Y-70001387D01*
X89851768Y-70106475D01*
X89732140Y-70239336D01*
X89642750Y-70394164D01*
X89642747Y-70394170D01*
X89587504Y-70564192D01*
X89587503Y-70564194D01*
X89568815Y-70742000D01*
X85944870Y-70742000D01*
X85945185Y-70739000D01*
X85926497Y-70561197D01*
X85898873Y-70476181D01*
X85871252Y-70391170D01*
X85871249Y-70391164D01*
X85826453Y-70313575D01*
X85781859Y-70236335D01*
X85735003Y-70184296D01*
X85662235Y-70103478D01*
X85662232Y-70103476D01*
X85662231Y-70103475D01*
X85662230Y-70103474D01*
X85517593Y-69998388D01*
X85354267Y-69925671D01*
X85354265Y-69925670D01*
X85226594Y-69898533D01*
X85179391Y-69888500D01*
X85000609Y-69888500D01*
X84969954Y-69895015D01*
X84825733Y-69925670D01*
X84825728Y-69925672D01*
X84662408Y-69998387D01*
X84517768Y-70103475D01*
X84398140Y-70236336D01*
X84308750Y-70391164D01*
X84308747Y-70391170D01*
X84253504Y-70561192D01*
X84253503Y-70561194D01*
X84234815Y-70739000D01*
X66878484Y-70739000D01*
X66846425Y-70706941D01*
X66667287Y-70581507D01*
X66667288Y-70581507D01*
X66667286Y-70581506D01*
X66568188Y-70535296D01*
X66469090Y-70489086D01*
X66469086Y-70489085D01*
X66469082Y-70489083D01*
X66257859Y-70432487D01*
X66257849Y-70432485D01*
X66040001Y-70413426D01*
X66039999Y-70413426D01*
X65822150Y-70432485D01*
X65822140Y-70432487D01*
X65610917Y-70489083D01*
X65610908Y-70489087D01*
X65412713Y-70581506D01*
X65293201Y-70665190D01*
X65233575Y-70706941D01*
X65233573Y-70706942D01*
X65233570Y-70706945D01*
X65078945Y-70861570D01*
X65078942Y-70861573D01*
X65078941Y-70861575D01*
X65040267Y-70916807D01*
X64953506Y-71040713D01*
X64861087Y-71238908D01*
X64861083Y-71238917D01*
X64804487Y-71450140D01*
X64804485Y-71450150D01*
X64785426Y-71667999D01*
X62206500Y-71667999D01*
X62206500Y-69088000D01*
X116365815Y-69088000D01*
X116384503Y-69265805D01*
X116384504Y-69265807D01*
X116439747Y-69435829D01*
X116439750Y-69435835D01*
X116529141Y-69590665D01*
X116570812Y-69636946D01*
X116648764Y-69723521D01*
X116648767Y-69723523D01*
X116648770Y-69723526D01*
X116793407Y-69828612D01*
X116956733Y-69901329D01*
X117131609Y-69938500D01*
X117131610Y-69938500D01*
X117310389Y-69938500D01*
X117310391Y-69938500D01*
X117485267Y-69901329D01*
X117648593Y-69828612D01*
X117793230Y-69723526D01*
X117912859Y-69590665D01*
X118002250Y-69435835D01*
X118057497Y-69265803D01*
X118076185Y-69088000D01*
X118057497Y-68910197D01*
X118002250Y-68740165D01*
X117912859Y-68585335D01*
X117866003Y-68533296D01*
X117793235Y-68452478D01*
X117793232Y-68452476D01*
X117793231Y-68452475D01*
X117793230Y-68452474D01*
X117648593Y-68347388D01*
X117485267Y-68274671D01*
X117485265Y-68274670D01*
X117357594Y-68247533D01*
X117310391Y-68237500D01*
X117131609Y-68237500D01*
X117100954Y-68244015D01*
X116956733Y-68274670D01*
X116956728Y-68274672D01*
X116793408Y-68347387D01*
X116648768Y-68452475D01*
X116529140Y-68585336D01*
X116439750Y-68740164D01*
X116439747Y-68740170D01*
X116384504Y-68910192D01*
X116384503Y-68910194D01*
X116365815Y-69088000D01*
X62206500Y-69088000D01*
X62206500Y-68100000D01*
X110119815Y-68100000D01*
X110138503Y-68277805D01*
X110138504Y-68277807D01*
X110193747Y-68447829D01*
X110193750Y-68447835D01*
X110283141Y-68602665D01*
X110324812Y-68648946D01*
X110402764Y-68735521D01*
X110402767Y-68735523D01*
X110402770Y-68735526D01*
X110547407Y-68840612D01*
X110710733Y-68913329D01*
X110885609Y-68950500D01*
X110885610Y-68950500D01*
X111064389Y-68950500D01*
X111064391Y-68950500D01*
X111239267Y-68913329D01*
X111402593Y-68840612D01*
X111547230Y-68735526D01*
X111666859Y-68602665D01*
X111756250Y-68447835D01*
X111811497Y-68277803D01*
X111830185Y-68100000D01*
X111811497Y-67922197D01*
X111756250Y-67752165D01*
X111666859Y-67597335D01*
X111620003Y-67545296D01*
X111547235Y-67464478D01*
X111547232Y-67464476D01*
X111547231Y-67464475D01*
X111547230Y-67464474D01*
X111402593Y-67359388D01*
X111239267Y-67286671D01*
X111239265Y-67286670D01*
X111111594Y-67259533D01*
X111064391Y-67249500D01*
X110885609Y-67249500D01*
X110854954Y-67256015D01*
X110710733Y-67286670D01*
X110710728Y-67286672D01*
X110547408Y-67359387D01*
X110402768Y-67464475D01*
X110283140Y-67597336D01*
X110193750Y-67752164D01*
X110193747Y-67752170D01*
X110138504Y-67922192D01*
X110138503Y-67922194D01*
X110119815Y-68100000D01*
X62206500Y-68100000D01*
X62206500Y-50164999D01*
X62779341Y-50164999D01*
X62779341Y-50165000D01*
X62799936Y-50400403D01*
X62799938Y-50400413D01*
X62861094Y-50628655D01*
X62861096Y-50628659D01*
X62861097Y-50628663D01*
X62936178Y-50789675D01*
X62960965Y-50842830D01*
X62960967Y-50842834D01*
X63055477Y-50977807D01*
X63096505Y-51036401D01*
X63263599Y-51203495D01*
X63405225Y-51302663D01*
X63449157Y-51333424D01*
X63492782Y-51388001D01*
X63499976Y-51457499D01*
X63468453Y-51519854D01*
X63449158Y-51536574D01*
X63263594Y-51666507D01*
X63096505Y-51833596D01*
X62960965Y-52027168D01*
X62960964Y-52027170D01*
X62861098Y-52241334D01*
X62861094Y-52241343D01*
X62799938Y-52469585D01*
X62799936Y-52469595D01*
X62779341Y-52704998D01*
X62779341Y-52704999D01*
X62799936Y-52940402D01*
X62799938Y-52940412D01*
X62861094Y-53168654D01*
X62861096Y-53168658D01*
X62861097Y-53168662D01*
X62949600Y-53358457D01*
X62960965Y-53382829D01*
X62960967Y-53382833D01*
X63096501Y-53576394D01*
X63096506Y-53576401D01*
X63263597Y-53743492D01*
X63263603Y-53743497D01*
X63449158Y-53873424D01*
X63492783Y-53928001D01*
X63499977Y-53997499D01*
X63468454Y-54059854D01*
X63449159Y-54076574D01*
X63263594Y-54206508D01*
X63096505Y-54373597D01*
X62960965Y-54567169D01*
X62960964Y-54567171D01*
X62861098Y-54781335D01*
X62861094Y-54781344D01*
X62799938Y-55009586D01*
X62799936Y-55009596D01*
X62779341Y-55244999D01*
X62779341Y-55245000D01*
X62799936Y-55480403D01*
X62799938Y-55480413D01*
X62861094Y-55708655D01*
X62861096Y-55708659D01*
X62861097Y-55708663D01*
X62922625Y-55840610D01*
X62960965Y-55922830D01*
X62960967Y-55922834D01*
X63040335Y-56036182D01*
X63088420Y-56104855D01*
X63096501Y-56116395D01*
X63096506Y-56116402D01*
X63263597Y-56283493D01*
X63263603Y-56283498D01*
X63449158Y-56413425D01*
X63492783Y-56468002D01*
X63499977Y-56537500D01*
X63468454Y-56599855D01*
X63449158Y-56616575D01*
X63263597Y-56746505D01*
X63096505Y-56913597D01*
X62960965Y-57107169D01*
X62960964Y-57107171D01*
X62861098Y-57321335D01*
X62861094Y-57321344D01*
X62799938Y-57549586D01*
X62799936Y-57549596D01*
X62779341Y-57784999D01*
X62779341Y-57785000D01*
X62799936Y-58020403D01*
X62799938Y-58020413D01*
X62861094Y-58248655D01*
X62861096Y-58248659D01*
X62861097Y-58248663D01*
X62948302Y-58435675D01*
X62960965Y-58462830D01*
X62960967Y-58462834D01*
X63055477Y-58597807D01*
X63092776Y-58651076D01*
X63096501Y-58656395D01*
X63096506Y-58656402D01*
X63263597Y-58823493D01*
X63263603Y-58823498D01*
X63449158Y-58953425D01*
X63492783Y-59008002D01*
X63499977Y-59077500D01*
X63468454Y-59139855D01*
X63449158Y-59156575D01*
X63263597Y-59286505D01*
X63096505Y-59453597D01*
X62960965Y-59647169D01*
X62960964Y-59647171D01*
X62861098Y-59861335D01*
X62861094Y-59861344D01*
X62799938Y-60089586D01*
X62799936Y-60089596D01*
X62779341Y-60324999D01*
X62779341Y-60325000D01*
X62799936Y-60560403D01*
X62799938Y-60560413D01*
X62861094Y-60788655D01*
X62861096Y-60788659D01*
X62861097Y-60788663D01*
X62940993Y-60960000D01*
X62960965Y-61002830D01*
X62960967Y-61002834D01*
X63063263Y-61148926D01*
X63096505Y-61196401D01*
X63263599Y-61363495D01*
X63360384Y-61431265D01*
X63457165Y-61499032D01*
X63457167Y-61499033D01*
X63457170Y-61499035D01*
X63671337Y-61598903D01*
X63899592Y-61660063D01*
X64087918Y-61676539D01*
X64134999Y-61680659D01*
X64135000Y-61680659D01*
X64135001Y-61680659D01*
X64174234Y-61677226D01*
X64370408Y-61660063D01*
X64598663Y-61598903D01*
X64812830Y-61499035D01*
X65006401Y-61363495D01*
X65173495Y-61196401D01*
X65309035Y-61002830D01*
X65408903Y-60788663D01*
X65470063Y-60560408D01*
X65490659Y-60325000D01*
X65470063Y-60089592D01*
X65408903Y-59861337D01*
X65309035Y-59647171D01*
X65284289Y-59611829D01*
X65173494Y-59453597D01*
X65006402Y-59286506D01*
X65006396Y-59286501D01*
X64820842Y-59156575D01*
X64777217Y-59101998D01*
X64770023Y-59032500D01*
X64801546Y-58970145D01*
X64820842Y-58953425D01*
X64864772Y-58922665D01*
X65006401Y-58823495D01*
X65173495Y-58656401D01*
X65309035Y-58462830D01*
X65408903Y-58248663D01*
X65470063Y-58020408D01*
X65490659Y-57785000D01*
X65470063Y-57549592D01*
X65412704Y-57335521D01*
X65408905Y-57321344D01*
X65408904Y-57321343D01*
X65408903Y-57321337D01*
X65309035Y-57107171D01*
X65301543Y-57096470D01*
X65173494Y-56913597D01*
X65006402Y-56746506D01*
X65006396Y-56746501D01*
X64820842Y-56616575D01*
X64777217Y-56561998D01*
X64770023Y-56492500D01*
X64801546Y-56430145D01*
X64820842Y-56413425D01*
X64908330Y-56352165D01*
X65006401Y-56283495D01*
X65072399Y-56217497D01*
X71488707Y-56217497D01*
X71488707Y-56217502D01*
X71507780Y-56435521D01*
X71507838Y-56436174D01*
X71564652Y-56648203D01*
X71564653Y-56648206D01*
X71564654Y-56648208D01*
X71657418Y-56847142D01*
X71657422Y-56847150D01*
X71783321Y-57026952D01*
X71783326Y-57026958D01*
X71938540Y-57182172D01*
X71938546Y-57182177D01*
X72118348Y-57308076D01*
X72118350Y-57308077D01*
X72118353Y-57308079D01*
X72177214Y-57335526D01*
X72262119Y-57375118D01*
X72314559Y-57421290D01*
X72333711Y-57488483D01*
X72313495Y-57555365D01*
X72262120Y-57599882D01*
X72118353Y-57666921D01*
X72118349Y-57666923D01*
X71938547Y-57792822D01*
X71938541Y-57792827D01*
X71783327Y-57948041D01*
X71783322Y-57948047D01*
X71657423Y-58127849D01*
X71657419Y-58127857D01*
X71564655Y-58326791D01*
X71564653Y-58326795D01*
X71564653Y-58326797D01*
X71562315Y-58335523D01*
X71507839Y-58538824D01*
X71507838Y-58538831D01*
X71488708Y-58757497D01*
X71488708Y-58757502D01*
X71507311Y-58970145D01*
X71507839Y-58976174D01*
X71564653Y-59188203D01*
X71564654Y-59188206D01*
X71564655Y-59188208D01*
X71657419Y-59387142D01*
X71657423Y-59387150D01*
X71783322Y-59566952D01*
X71783327Y-59566958D01*
X71938541Y-59722172D01*
X71938547Y-59722177D01*
X72118349Y-59848076D01*
X72118351Y-59848077D01*
X72118354Y-59848079D01*
X72202963Y-59887532D01*
X72262120Y-59915118D01*
X72314560Y-59961290D01*
X72333712Y-60028483D01*
X72313496Y-60095365D01*
X72262120Y-60139882D01*
X72118357Y-60206919D01*
X72118349Y-60206923D01*
X71938547Y-60332822D01*
X71938541Y-60332827D01*
X71783327Y-60488041D01*
X71783322Y-60488047D01*
X71657423Y-60667849D01*
X71657419Y-60667857D01*
X71564655Y-60866791D01*
X71564653Y-60866795D01*
X71564653Y-60866797D01*
X71552185Y-60913329D01*
X71507839Y-61078824D01*
X71507838Y-61078831D01*
X71488708Y-61297497D01*
X71488708Y-61297502D01*
X71506339Y-61499035D01*
X71507839Y-61516174D01*
X71564653Y-61728203D01*
X71564654Y-61728206D01*
X71564655Y-61728208D01*
X71657419Y-61927142D01*
X71657423Y-61927150D01*
X71783322Y-62106952D01*
X71783327Y-62106958D01*
X71938541Y-62262172D01*
X71938547Y-62262177D01*
X72118349Y-62388076D01*
X72118351Y-62388077D01*
X72118354Y-62388079D01*
X72317297Y-62480847D01*
X72529326Y-62537661D01*
X72685521Y-62551326D01*
X72747998Y-62556792D01*
X72748000Y-62556792D01*
X72748002Y-62556792D01*
X72802668Y-62552009D01*
X72966674Y-62537661D01*
X73178703Y-62480847D01*
X73377646Y-62388079D01*
X73557457Y-62262174D01*
X73712674Y-62106957D01*
X73838579Y-61927146D01*
X73905618Y-61783378D01*
X73951790Y-61730939D01*
X74018983Y-61711787D01*
X74085864Y-61732002D01*
X74130381Y-61783378D01*
X74146240Y-61817387D01*
X74197419Y-61927142D01*
X74197423Y-61927150D01*
X74323322Y-62106952D01*
X74323327Y-62106958D01*
X74478541Y-62262172D01*
X74478547Y-62262177D01*
X74658349Y-62388076D01*
X74658351Y-62388077D01*
X74658354Y-62388079D01*
X74857297Y-62480847D01*
X75069326Y-62537661D01*
X75225521Y-62551326D01*
X75287998Y-62556792D01*
X75288000Y-62556792D01*
X75288002Y-62556792D01*
X75342668Y-62552009D01*
X75506674Y-62537661D01*
X75706936Y-62484000D01*
X92997815Y-62484000D01*
X93016503Y-62661805D01*
X93016504Y-62661807D01*
X93071747Y-62831829D01*
X93071750Y-62831835D01*
X93161141Y-62986665D01*
X93182242Y-63010100D01*
X93280764Y-63119521D01*
X93280767Y-63119523D01*
X93280770Y-63119526D01*
X93425407Y-63224612D01*
X93588733Y-63297329D01*
X93763609Y-63334500D01*
X93763610Y-63334500D01*
X93942389Y-63334500D01*
X93942391Y-63334500D01*
X94117267Y-63297329D01*
X94280593Y-63224612D01*
X94425230Y-63119526D01*
X94544859Y-62986665D01*
X94634250Y-62831835D01*
X94689497Y-62661803D01*
X94700407Y-62558000D01*
X106519815Y-62558000D01*
X106538503Y-62735805D01*
X106538504Y-62735807D01*
X106593747Y-62905829D01*
X106593750Y-62905835D01*
X106683141Y-63060665D01*
X106724812Y-63106946D01*
X106802764Y-63193521D01*
X106802767Y-63193523D01*
X106802770Y-63193526D01*
X106947407Y-63298612D01*
X107110733Y-63371329D01*
X107285609Y-63408500D01*
X107285610Y-63408500D01*
X107464389Y-63408500D01*
X107464391Y-63408500D01*
X107639267Y-63371329D01*
X107802593Y-63298612D01*
X107947230Y-63193526D01*
X108066859Y-63060665D01*
X108156250Y-62905835D01*
X108211497Y-62735803D01*
X108230185Y-62558000D01*
X108211497Y-62380197D01*
X108156250Y-62210165D01*
X108066859Y-62055335D01*
X108000229Y-61981335D01*
X107947235Y-61922478D01*
X107947232Y-61922476D01*
X107947231Y-61922475D01*
X107947230Y-61922474D01*
X107802593Y-61817388D01*
X107639267Y-61744671D01*
X107639265Y-61744670D01*
X107511594Y-61717533D01*
X107464391Y-61707500D01*
X107285609Y-61707500D01*
X107254954Y-61714015D01*
X107110733Y-61744670D01*
X107110728Y-61744672D01*
X106947408Y-61817387D01*
X106802768Y-61922475D01*
X106683140Y-62055336D01*
X106593750Y-62210164D01*
X106593747Y-62210170D01*
X106538504Y-62380192D01*
X106538503Y-62380194D01*
X106519815Y-62558000D01*
X94700407Y-62558000D01*
X94708185Y-62484000D01*
X94689497Y-62306197D01*
X94634250Y-62136165D01*
X94544859Y-61981335D01*
X94491860Y-61922474D01*
X94425235Y-61848478D01*
X94425232Y-61848476D01*
X94425231Y-61848475D01*
X94425230Y-61848474D01*
X94280593Y-61743388D01*
X94117267Y-61670671D01*
X94117265Y-61670670D01*
X93989594Y-61643533D01*
X93942391Y-61633500D01*
X93763609Y-61633500D01*
X93732954Y-61640015D01*
X93588733Y-61670670D01*
X93588728Y-61670672D01*
X93425408Y-61743387D01*
X93280768Y-61848475D01*
X93161140Y-61981336D01*
X93071750Y-62136164D01*
X93071747Y-62136170D01*
X93016504Y-62306192D01*
X93016503Y-62306194D01*
X92997815Y-62484000D01*
X75706936Y-62484000D01*
X75718703Y-62480847D01*
X75917646Y-62388079D01*
X76097457Y-62262174D01*
X76252674Y-62106957D01*
X76378579Y-61927146D01*
X76471347Y-61728203D01*
X76528161Y-61516174D01*
X76547292Y-61297500D01*
X76528161Y-61078826D01*
X76496321Y-60960000D01*
X85504815Y-60960000D01*
X85523503Y-61137805D01*
X85523504Y-61137807D01*
X85578747Y-61307829D01*
X85578750Y-61307835D01*
X85668141Y-61462665D01*
X85699290Y-61497259D01*
X85787764Y-61595521D01*
X85787767Y-61595523D01*
X85787770Y-61595526D01*
X85932407Y-61700612D01*
X86095733Y-61773329D01*
X86270609Y-61810500D01*
X86270610Y-61810500D01*
X86449389Y-61810500D01*
X86449391Y-61810500D01*
X86624267Y-61773329D01*
X86787593Y-61700612D01*
X86932230Y-61595526D01*
X87051859Y-61462665D01*
X87141250Y-61307835D01*
X87196497Y-61137803D01*
X87215185Y-60960000D01*
X87196497Y-60782197D01*
X87159343Y-60667849D01*
X87141252Y-60612170D01*
X87141249Y-60612164D01*
X87089254Y-60522106D01*
X87051859Y-60457335D01*
X87005003Y-60405296D01*
X86932235Y-60324478D01*
X86932232Y-60324476D01*
X86932231Y-60324475D01*
X86932230Y-60324474D01*
X86787593Y-60219388D01*
X86624267Y-60146671D01*
X86624265Y-60146670D01*
X86496594Y-60119533D01*
X86449391Y-60109500D01*
X86270609Y-60109500D01*
X86239954Y-60116015D01*
X86095733Y-60146670D01*
X86095728Y-60146672D01*
X85932408Y-60219387D01*
X85787768Y-60324475D01*
X85668140Y-60457336D01*
X85578750Y-60612164D01*
X85578747Y-60612170D01*
X85523504Y-60782192D01*
X85523503Y-60782194D01*
X85504815Y-60960000D01*
X76496321Y-60960000D01*
X76471347Y-60866797D01*
X76378579Y-60667854D01*
X76378577Y-60667851D01*
X76378576Y-60667849D01*
X76252677Y-60488047D01*
X76252672Y-60488041D01*
X76097458Y-60332827D01*
X76097452Y-60332822D01*
X75917650Y-60206923D01*
X75917642Y-60206919D01*
X75796787Y-60150564D01*
X75773878Y-60139881D01*
X75721439Y-60093710D01*
X75702287Y-60026517D01*
X75722502Y-59959636D01*
X75773879Y-59915118D01*
X75917646Y-59848079D01*
X76097457Y-59722174D01*
X76252674Y-59566957D01*
X76378579Y-59387146D01*
X76471347Y-59188203D01*
X76528161Y-58976174D01*
X76547292Y-58757500D01*
X76528161Y-58538826D01*
X76471347Y-58326797D01*
X76378579Y-58127854D01*
X76378577Y-58127851D01*
X76378576Y-58127849D01*
X76252677Y-57948047D01*
X76252672Y-57948041D01*
X76097458Y-57792827D01*
X76097452Y-57792822D01*
X75917650Y-57666923D01*
X75917642Y-57666919D01*
X75773880Y-57599882D01*
X75721440Y-57553710D01*
X75702288Y-57486517D01*
X75722504Y-57419635D01*
X75773880Y-57375118D01*
X75917647Y-57308079D01*
X76097458Y-57182174D01*
X76252675Y-57026957D01*
X76378580Y-56847146D01*
X76471348Y-56648203D01*
X76528162Y-56436174D01*
X76547293Y-56217500D01*
X76528162Y-55998826D01*
X76471348Y-55786797D01*
X76378580Y-55587854D01*
X76378578Y-55587851D01*
X76378577Y-55587849D01*
X76252678Y-55408047D01*
X76252673Y-55408041D01*
X76097459Y-55252827D01*
X76097453Y-55252822D01*
X75917651Y-55126923D01*
X75917647Y-55126921D01*
X75773879Y-55059881D01*
X75721440Y-55013709D01*
X75702288Y-54946515D01*
X75722504Y-54879634D01*
X75773875Y-54835119D01*
X75917646Y-54768079D01*
X76097457Y-54642174D01*
X76252674Y-54486957D01*
X76378579Y-54307146D01*
X76471347Y-54108203D01*
X76528161Y-53896174D01*
X76543510Y-53720732D01*
X76547292Y-53677502D01*
X76547292Y-53677497D01*
X76534871Y-53535521D01*
X76528161Y-53458826D01*
X76471347Y-53246797D01*
X76378579Y-53047854D01*
X76378577Y-53047851D01*
X76378576Y-53047849D01*
X76252677Y-52868047D01*
X76252672Y-52868041D01*
X76097458Y-52712827D01*
X76097452Y-52712822D01*
X75917650Y-52586923D01*
X75917642Y-52586919D01*
X75823847Y-52543182D01*
X75773878Y-52519881D01*
X75721439Y-52473710D01*
X75702287Y-52406517D01*
X75722502Y-52339636D01*
X75773879Y-52295118D01*
X75917646Y-52228079D01*
X76097457Y-52102174D01*
X76252674Y-51946957D01*
X76378579Y-51767146D01*
X76471347Y-51568203D01*
X76528161Y-51356174D01*
X76546292Y-51148928D01*
X76547292Y-51137502D01*
X76547292Y-51137497D01*
X76533449Y-50979268D01*
X76528161Y-50918826D01*
X76471347Y-50706797D01*
X76378579Y-50507854D01*
X76378577Y-50507851D01*
X76378576Y-50507849D01*
X76252677Y-50328047D01*
X76252672Y-50328041D01*
X76097458Y-50172827D01*
X76097452Y-50172822D01*
X75917650Y-50046923D01*
X75917642Y-50046919D01*
X75718708Y-49954155D01*
X75718706Y-49954154D01*
X75718703Y-49954153D01*
X75516609Y-49900001D01*
X75506675Y-49897339D01*
X75506668Y-49897338D01*
X75288002Y-49878208D01*
X75287998Y-49878208D01*
X75069331Y-49897338D01*
X75069324Y-49897339D01*
X74949664Y-49929403D01*
X74857297Y-49954153D01*
X74857295Y-49954153D01*
X74857291Y-49954155D01*
X74658357Y-50046919D01*
X74658349Y-50046923D01*
X74478547Y-50172822D01*
X74478541Y-50172827D01*
X74323327Y-50328041D01*
X74323326Y-50328043D01*
X74228074Y-50464077D01*
X74173497Y-50507701D01*
X74103998Y-50514894D01*
X74041644Y-50483372D01*
X74006230Y-50423142D01*
X74002499Y-50392953D01*
X74002499Y-50335629D01*
X74002498Y-50335623D01*
X74002497Y-50335616D01*
X73996091Y-50276017D01*
X73966742Y-50197329D01*
X73945797Y-50141171D01*
X73945793Y-50141164D01*
X73859547Y-50025955D01*
X73859544Y-50025952D01*
X73744335Y-49939706D01*
X73744328Y-49939702D01*
X73609482Y-49889408D01*
X73609483Y-49889408D01*
X73549883Y-49883001D01*
X73549881Y-49883000D01*
X73549873Y-49883000D01*
X73549864Y-49883000D01*
X71946129Y-49883000D01*
X71946123Y-49883001D01*
X71886516Y-49889408D01*
X71751671Y-49939702D01*
X71751664Y-49939706D01*
X71636455Y-50025952D01*
X71636452Y-50025955D01*
X71550206Y-50141164D01*
X71550202Y-50141171D01*
X71499908Y-50276017D01*
X71494315Y-50328043D01*
X71493501Y-50335623D01*
X71493500Y-50335635D01*
X71493500Y-51939370D01*
X71493501Y-51939376D01*
X71499908Y-51998983D01*
X71550202Y-52133828D01*
X71550206Y-52133835D01*
X71636452Y-52249044D01*
X71636455Y-52249047D01*
X71751664Y-52335293D01*
X71751671Y-52335297D01*
X71886517Y-52385591D01*
X71886516Y-52385591D01*
X71893444Y-52386335D01*
X71946127Y-52392000D01*
X72003453Y-52391999D01*
X72070490Y-52411682D01*
X72116246Y-52464486D01*
X72126190Y-52533644D01*
X72097166Y-52597200D01*
X72074576Y-52617574D01*
X71938543Y-52712826D01*
X71938541Y-52712827D01*
X71783327Y-52868041D01*
X71783322Y-52868047D01*
X71657423Y-53047849D01*
X71657419Y-53047857D01*
X71564655Y-53246791D01*
X71564653Y-53246795D01*
X71564653Y-53246797D01*
X71545520Y-53318200D01*
X71507839Y-53458824D01*
X71507838Y-53458831D01*
X71488708Y-53677497D01*
X71488708Y-53677502D01*
X71507838Y-53896168D01*
X71507839Y-53896175D01*
X71522842Y-53952164D01*
X71564653Y-54108203D01*
X71564654Y-54108206D01*
X71564655Y-54108208D01*
X71657419Y-54307142D01*
X71657423Y-54307150D01*
X71783322Y-54486952D01*
X71783327Y-54486958D01*
X71938541Y-54642172D01*
X71938547Y-54642177D01*
X72118349Y-54768076D01*
X72118351Y-54768077D01*
X72118354Y-54768079D01*
X72262119Y-54835117D01*
X72314559Y-54881289D01*
X72333711Y-54948482D01*
X72313496Y-55015363D01*
X72262120Y-55059881D01*
X72118352Y-55126921D01*
X72118348Y-55126923D01*
X71938546Y-55252822D01*
X71938540Y-55252827D01*
X71783326Y-55408041D01*
X71783321Y-55408047D01*
X71657422Y-55587849D01*
X71657418Y-55587857D01*
X71564654Y-55786791D01*
X71564652Y-55786795D01*
X71564652Y-55786797D01*
X71540641Y-55876402D01*
X71507838Y-55998824D01*
X71507837Y-55998831D01*
X71488707Y-56217497D01*
X65072399Y-56217497D01*
X65173495Y-56116401D01*
X65309035Y-55922830D01*
X65408903Y-55708663D01*
X65470063Y-55480408D01*
X65490659Y-55245000D01*
X65470063Y-55009592D01*
X65412449Y-54794572D01*
X65408905Y-54781344D01*
X65408904Y-54781343D01*
X65408903Y-54781337D01*
X65309035Y-54567171D01*
X65280270Y-54526089D01*
X65173494Y-54373597D01*
X65006402Y-54206506D01*
X65006401Y-54206505D01*
X64944811Y-54163379D01*
X64820839Y-54076573D01*
X64777216Y-54021997D01*
X64770023Y-53952498D01*
X64801545Y-53890144D01*
X64820837Y-53873427D01*
X65006401Y-53743494D01*
X65173495Y-53576400D01*
X65309035Y-53382829D01*
X65408903Y-53168662D01*
X65470063Y-52940407D01*
X65490659Y-52704999D01*
X65470063Y-52469591D01*
X65408903Y-52241336D01*
X65309035Y-52027170D01*
X65289299Y-51998983D01*
X65173494Y-51833596D01*
X65006402Y-51666505D01*
X65006401Y-51666504D01*
X64820842Y-51536574D01*
X64777218Y-51481997D01*
X64770025Y-51412498D01*
X64801547Y-51350144D01*
X64820843Y-51333424D01*
X64849860Y-51313106D01*
X65006401Y-51203495D01*
X65173495Y-51036401D01*
X65309035Y-50842830D01*
X65408903Y-50628663D01*
X65470063Y-50400408D01*
X65490659Y-50165000D01*
X65488380Y-50138957D01*
X65478494Y-50025954D01*
X65470063Y-49929592D01*
X65408903Y-49701337D01*
X65309035Y-49487171D01*
X65302475Y-49477803D01*
X65173496Y-49293600D01*
X65127245Y-49247349D01*
X65051567Y-49171671D01*
X65018084Y-49110351D01*
X65023068Y-49040659D01*
X65064939Y-48984725D01*
X65095915Y-48967810D01*
X65227331Y-48918796D01*
X65342546Y-48832546D01*
X65428796Y-48717331D01*
X65479091Y-48582483D01*
X65485500Y-48522873D01*
X65485499Y-46727128D01*
X65482296Y-46697336D01*
X65479091Y-46667516D01*
X65428797Y-46532671D01*
X65428793Y-46532664D01*
X65390866Y-46482000D01*
X85250815Y-46482000D01*
X85269503Y-46659803D01*
X85269504Y-46659806D01*
X85269504Y-46659807D01*
X85324747Y-46829829D01*
X85324750Y-46829835D01*
X85414141Y-46984665D01*
X85447783Y-47022028D01*
X85533764Y-47117521D01*
X85533767Y-47117523D01*
X85533770Y-47117526D01*
X85678407Y-47222612D01*
X85841733Y-47295329D01*
X86016609Y-47332500D01*
X86016610Y-47332500D01*
X86195389Y-47332500D01*
X86195391Y-47332500D01*
X86286557Y-47313122D01*
X86356224Y-47318438D01*
X86411958Y-47360575D01*
X86428520Y-47391079D01*
X86481202Y-47532328D01*
X86481206Y-47532335D01*
X86567452Y-47647544D01*
X86567455Y-47647547D01*
X86682664Y-47733793D01*
X86682671Y-47733797D01*
X86817517Y-47784091D01*
X86817516Y-47784091D01*
X86824444Y-47784835D01*
X86877127Y-47790500D01*
X88672872Y-47790499D01*
X88732483Y-47784091D01*
X88867331Y-47733796D01*
X88982546Y-47647546D01*
X89068796Y-47532331D01*
X89119091Y-47397483D01*
X89125500Y-47337873D01*
X89125499Y-45542128D01*
X89119091Y-45482517D01*
X89104953Y-45444612D01*
X89068797Y-45347671D01*
X89068793Y-45347664D01*
X88982547Y-45232455D01*
X88982544Y-45232452D01*
X88867335Y-45146206D01*
X88867328Y-45146202D01*
X88735917Y-45097189D01*
X88679983Y-45055318D01*
X88655566Y-44989853D01*
X88670418Y-44921580D01*
X88691563Y-44893332D01*
X88813495Y-44771401D01*
X88949035Y-44577830D01*
X89048903Y-44363663D01*
X89110063Y-44135408D01*
X89130659Y-43900000D01*
X89110063Y-43664592D01*
X89048903Y-43436337D01*
X88949035Y-43222171D01*
X88900017Y-43152165D01*
X88813494Y-43028597D01*
X88646402Y-42861506D01*
X88646396Y-42861501D01*
X88500563Y-42759388D01*
X88460405Y-42731269D01*
X88416781Y-42676693D01*
X88409587Y-42607195D01*
X88441110Y-42544840D01*
X88460405Y-42528120D01*
X88646082Y-42398106D01*
X88813105Y-42231083D01*
X88948600Y-42037579D01*
X89048429Y-41823493D01*
X89048432Y-41823487D01*
X89105636Y-41610001D01*
X88208012Y-41610001D01*
X88240925Y-41552994D01*
X88275000Y-41425827D01*
X88275000Y-41294175D01*
X88240925Y-41167008D01*
X88208012Y-41110001D01*
X89105636Y-41110001D01*
X89105635Y-41110000D01*
X89048432Y-40896514D01*
X89048429Y-40896508D01*
X88948600Y-40682423D01*
X88948599Y-40682421D01*
X88813113Y-40488927D01*
X88813108Y-40488921D01*
X88646082Y-40321895D01*
X88452578Y-40186400D01*
X88238492Y-40086571D01*
X88238486Y-40086568D01*
X88025000Y-40029365D01*
X88025000Y-40926989D01*
X87967993Y-40894076D01*
X87840826Y-40860001D01*
X87709174Y-40860001D01*
X87582007Y-40894076D01*
X87525000Y-40926989D01*
X87525000Y-40029365D01*
X87524999Y-40029365D01*
X87311513Y-40086568D01*
X87311507Y-40086571D01*
X87097422Y-40186400D01*
X87097420Y-40186401D01*
X86903926Y-40321887D01*
X86903920Y-40321892D01*
X86736891Y-40488921D01*
X86736886Y-40488927D01*
X86601400Y-40682421D01*
X86601399Y-40682423D01*
X86501570Y-40896508D01*
X86501567Y-40896514D01*
X86444364Y-41110000D01*
X86444364Y-41110001D01*
X87341988Y-41110001D01*
X87309075Y-41167008D01*
X87275000Y-41294175D01*
X87275000Y-41425827D01*
X87309075Y-41552994D01*
X87341988Y-41610001D01*
X86444364Y-41610001D01*
X86501567Y-41823487D01*
X86501570Y-41823493D01*
X86601399Y-42037579D01*
X86736894Y-42231083D01*
X86903917Y-42398106D01*
X87089594Y-42528120D01*
X87133219Y-42582698D01*
X87140411Y-42652196D01*
X87108889Y-42714551D01*
X87089594Y-42731270D01*
X86903594Y-42861508D01*
X86736505Y-43028597D01*
X86600965Y-43222169D01*
X86600964Y-43222171D01*
X86501098Y-43436335D01*
X86501094Y-43436344D01*
X86439938Y-43664586D01*
X86439936Y-43664596D01*
X86419341Y-43899999D01*
X86419341Y-43900000D01*
X86439936Y-44135403D01*
X86439938Y-44135413D01*
X86501094Y-44363655D01*
X86501096Y-44363659D01*
X86501097Y-44363663D01*
X86576886Y-44526192D01*
X86600965Y-44577830D01*
X86600967Y-44577834D01*
X86689310Y-44704000D01*
X86736501Y-44771396D01*
X86736506Y-44771402D01*
X86858430Y-44893326D01*
X86891915Y-44954649D01*
X86886931Y-45024341D01*
X86845059Y-45080274D01*
X86814083Y-45097189D01*
X86682669Y-45146203D01*
X86682664Y-45146206D01*
X86567455Y-45232452D01*
X86567452Y-45232455D01*
X86481206Y-45347664D01*
X86481202Y-45347671D01*
X86430908Y-45482516D01*
X86424673Y-45540515D01*
X86397935Y-45605066D01*
X86340542Y-45644914D01*
X86275604Y-45648549D01*
X86195391Y-45631500D01*
X86016609Y-45631500D01*
X85985954Y-45638015D01*
X85841733Y-45668670D01*
X85841728Y-45668672D01*
X85678408Y-45741387D01*
X85533768Y-45846475D01*
X85414140Y-45979336D01*
X85324750Y-46134164D01*
X85324747Y-46134170D01*
X85269504Y-46304192D01*
X85269503Y-46304194D01*
X85258140Y-46412304D01*
X85250815Y-46482000D01*
X65390866Y-46482000D01*
X65342547Y-46417455D01*
X65342544Y-46417452D01*
X65227335Y-46331206D01*
X65227328Y-46331202D01*
X65092482Y-46280908D01*
X65092483Y-46280908D01*
X65032883Y-46274501D01*
X65032881Y-46274500D01*
X65032873Y-46274500D01*
X65032864Y-46274500D01*
X63237129Y-46274500D01*
X63237123Y-46274501D01*
X63177516Y-46280908D01*
X63042671Y-46331202D01*
X63042664Y-46331206D01*
X62927455Y-46417452D01*
X62927452Y-46417455D01*
X62841206Y-46532664D01*
X62841202Y-46532671D01*
X62790908Y-46667517D01*
X62784501Y-46727116D01*
X62784500Y-46727135D01*
X62784500Y-48522870D01*
X62784501Y-48522876D01*
X62790908Y-48582483D01*
X62841202Y-48717328D01*
X62841206Y-48717335D01*
X62927452Y-48832544D01*
X62927455Y-48832547D01*
X63042664Y-48918793D01*
X63042671Y-48918797D01*
X63174081Y-48967810D01*
X63230015Y-49009681D01*
X63254432Y-49075145D01*
X63239580Y-49143418D01*
X63218430Y-49171673D01*
X63096503Y-49293600D01*
X62960965Y-49487169D01*
X62960964Y-49487171D01*
X62872071Y-49677803D01*
X62863984Y-49695147D01*
X62861098Y-49701335D01*
X62861094Y-49701344D01*
X62799938Y-49929586D01*
X62799936Y-49929596D01*
X62779341Y-50164999D01*
X62206500Y-50164999D01*
X62206500Y-44704000D01*
X70264815Y-44704000D01*
X70283503Y-44881805D01*
X70283504Y-44881807D01*
X70338747Y-45051829D01*
X70338750Y-45051835D01*
X70428141Y-45206665D01*
X70451360Y-45232452D01*
X70547764Y-45339521D01*
X70547767Y-45339523D01*
X70547770Y-45339526D01*
X70692407Y-45444612D01*
X70855733Y-45517329D01*
X71030609Y-45554500D01*
X71030610Y-45554500D01*
X71209389Y-45554500D01*
X71209391Y-45554500D01*
X71384267Y-45517329D01*
X71547593Y-45444612D01*
X71692230Y-45339526D01*
X71811859Y-45206665D01*
X71901250Y-45051835D01*
X71956497Y-44881803D01*
X71975185Y-44704000D01*
X71956497Y-44526197D01*
X71924008Y-44426207D01*
X71901252Y-44356170D01*
X71901249Y-44356164D01*
X71896441Y-44347836D01*
X71811859Y-44201335D01*
X71752604Y-44135526D01*
X71692235Y-44068478D01*
X71692232Y-44068476D01*
X71692231Y-44068475D01*
X71692230Y-44068474D01*
X71547593Y-43963388D01*
X71384267Y-43890671D01*
X71384265Y-43890670D01*
X71256594Y-43863533D01*
X71209391Y-43853500D01*
X71030609Y-43853500D01*
X70999954Y-43860015D01*
X70855733Y-43890670D01*
X70855728Y-43890672D01*
X70692408Y-43963387D01*
X70547768Y-44068475D01*
X70428140Y-44201336D01*
X70338750Y-44356164D01*
X70338747Y-44356170D01*
X70283504Y-44526192D01*
X70283503Y-44526194D01*
X70264815Y-44704000D01*
X62206500Y-44704000D01*
X62206500Y-36401999D01*
X64272708Y-36401999D01*
X64272708Y-36402004D01*
X64281264Y-36499807D01*
X64291839Y-36620676D01*
X64348653Y-36832705D01*
X64348654Y-36832708D01*
X64348655Y-36832710D01*
X64441419Y-37031644D01*
X64441423Y-37031652D01*
X64567322Y-37211454D01*
X64567327Y-37211460D01*
X64722541Y-37366674D01*
X64722547Y-37366679D01*
X64902349Y-37492578D01*
X64902351Y-37492579D01*
X64902354Y-37492581D01*
X65001728Y-37538919D01*
X65003228Y-37539619D01*
X65055667Y-37585791D01*
X65074819Y-37652985D01*
X65054603Y-37719866D01*
X65003228Y-37764383D01*
X64902353Y-37811421D01*
X64902349Y-37811423D01*
X64722547Y-37937322D01*
X64722541Y-37937327D01*
X64567327Y-38092541D01*
X64567322Y-38092547D01*
X64441423Y-38272349D01*
X64441419Y-38272357D01*
X64348655Y-38471291D01*
X64348653Y-38471295D01*
X64348653Y-38471297D01*
X64326448Y-38554164D01*
X64291839Y-38683324D01*
X64291838Y-38683331D01*
X64272708Y-38901997D01*
X64272708Y-38902002D01*
X64291838Y-39120668D01*
X64291839Y-39120675D01*
X64302213Y-39159389D01*
X64348653Y-39332703D01*
X64348654Y-39332706D01*
X64348655Y-39332708D01*
X64441419Y-39531642D01*
X64441423Y-39531650D01*
X64567322Y-39711452D01*
X64567327Y-39711458D01*
X64722541Y-39866672D01*
X64722547Y-39866677D01*
X64902349Y-39992576D01*
X64902351Y-39992577D01*
X64902354Y-39992579D01*
X64990736Y-40033791D01*
X65003230Y-40039618D01*
X65055669Y-40085790D01*
X65074821Y-40152984D01*
X65054605Y-40219865D01*
X65003230Y-40264382D01*
X64902353Y-40311421D01*
X64902349Y-40311423D01*
X64722547Y-40437322D01*
X64722541Y-40437327D01*
X64567327Y-40592541D01*
X64567322Y-40592547D01*
X64441423Y-40772349D01*
X64441419Y-40772357D01*
X64348655Y-40971291D01*
X64348653Y-40971295D01*
X64348653Y-40971297D01*
X64335015Y-41022194D01*
X64291839Y-41183324D01*
X64291838Y-41183331D01*
X64272708Y-41401997D01*
X64272708Y-41402002D01*
X64285466Y-41547835D01*
X64291839Y-41620674D01*
X64348653Y-41832703D01*
X64348654Y-41832706D01*
X64348655Y-41832708D01*
X64441419Y-42031642D01*
X64441423Y-42031650D01*
X64567322Y-42211452D01*
X64567327Y-42211458D01*
X64722541Y-42366672D01*
X64722547Y-42366677D01*
X64902349Y-42492576D01*
X64902351Y-42492577D01*
X64902354Y-42492579D01*
X65101297Y-42585347D01*
X65313326Y-42642161D01*
X65469521Y-42655826D01*
X65531998Y-42661292D01*
X65532000Y-42661292D01*
X65532002Y-42661292D01*
X65586668Y-42656509D01*
X65750674Y-42642161D01*
X65962703Y-42585347D01*
X66161646Y-42492579D01*
X66341457Y-42366674D01*
X66496674Y-42211457D01*
X66622579Y-42031646D01*
X66715347Y-41832703D01*
X66772161Y-41620674D01*
X66788670Y-41431974D01*
X66791292Y-41402002D01*
X66791292Y-41401997D01*
X66778183Y-41252164D01*
X66772161Y-41183326D01*
X66715347Y-40971297D01*
X66622579Y-40772354D01*
X66622577Y-40772351D01*
X66622576Y-40772349D01*
X66496677Y-40592547D01*
X66496672Y-40592541D01*
X66341458Y-40437327D01*
X66341452Y-40437322D01*
X66161650Y-40311423D01*
X66161642Y-40311419D01*
X66060770Y-40264382D01*
X66008330Y-40218210D01*
X65989178Y-40151017D01*
X66009393Y-40084135D01*
X66060770Y-40039618D01*
X66068860Y-40035845D01*
X66161646Y-39992579D01*
X66341457Y-39866674D01*
X66496674Y-39711457D01*
X66622579Y-39531646D01*
X66715347Y-39332703D01*
X66772161Y-39120674D01*
X66791292Y-38902000D01*
X84234815Y-38902000D01*
X84253503Y-39079805D01*
X84253504Y-39079807D01*
X84308747Y-39249829D01*
X84308750Y-39249835D01*
X84398141Y-39404665D01*
X84439812Y-39450946D01*
X84517764Y-39537521D01*
X84517767Y-39537523D01*
X84517770Y-39537526D01*
X84662407Y-39642612D01*
X84825733Y-39715329D01*
X85000609Y-39752500D01*
X85000610Y-39752500D01*
X85179389Y-39752500D01*
X85179391Y-39752500D01*
X85354267Y-39715329D01*
X85517593Y-39642612D01*
X85662230Y-39537526D01*
X85667525Y-39531646D01*
X85716003Y-39477805D01*
X85781859Y-39404665D01*
X85871250Y-39249835D01*
X85926497Y-39079803D01*
X85945185Y-38902000D01*
X85926497Y-38724197D01*
X85898873Y-38639181D01*
X85871252Y-38554170D01*
X85871249Y-38554164D01*
X85781859Y-38399335D01*
X85735003Y-38347296D01*
X85662235Y-38266478D01*
X85662232Y-38266476D01*
X85662231Y-38266475D01*
X85662230Y-38266474D01*
X85517593Y-38161388D01*
X85354267Y-38088671D01*
X85354265Y-38088670D01*
X85226594Y-38061533D01*
X85179391Y-38051500D01*
X85000609Y-38051500D01*
X84969954Y-38058015D01*
X84825733Y-38088670D01*
X84825728Y-38088672D01*
X84662408Y-38161387D01*
X84517768Y-38266475D01*
X84398140Y-38399336D01*
X84308750Y-38554164D01*
X84308747Y-38554170D01*
X84253504Y-38724192D01*
X84253503Y-38724194D01*
X84234815Y-38902000D01*
X66791292Y-38902000D01*
X66772161Y-38683326D01*
X66715347Y-38471297D01*
X66622579Y-38272354D01*
X66622577Y-38272351D01*
X66622576Y-38272349D01*
X66496677Y-38092547D01*
X66496672Y-38092541D01*
X66341458Y-37937327D01*
X66341452Y-37937322D01*
X66161650Y-37811423D01*
X66161642Y-37811419D01*
X66060772Y-37764383D01*
X66008332Y-37718211D01*
X65989180Y-37651018D01*
X66009395Y-37584136D01*
X66060772Y-37539619D01*
X66061702Y-37539185D01*
X66161646Y-37492581D01*
X66341457Y-37366676D01*
X66496674Y-37211459D01*
X66622579Y-37031648D01*
X66715347Y-36832705D01*
X66772161Y-36620676D01*
X66791292Y-36402002D01*
X66784293Y-36322000D01*
X81440815Y-36322000D01*
X81459503Y-36499805D01*
X81459504Y-36499807D01*
X81514747Y-36669829D01*
X81514750Y-36669835D01*
X81604141Y-36824665D01*
X81611385Y-36832710D01*
X81723764Y-36957521D01*
X81723767Y-36957523D01*
X81723770Y-36957526D01*
X81868407Y-37062612D01*
X82031733Y-37135329D01*
X82206609Y-37172500D01*
X82206610Y-37172500D01*
X82385389Y-37172500D01*
X82385391Y-37172500D01*
X82560267Y-37135329D01*
X82723593Y-37062612D01*
X82868230Y-36957526D01*
X82987859Y-36824665D01*
X83077250Y-36669835D01*
X83132497Y-36499803D01*
X83151185Y-36322000D01*
X83132497Y-36144197D01*
X83077250Y-35974165D01*
X82987859Y-35819335D01*
X82941003Y-35767296D01*
X82868235Y-35686478D01*
X82868232Y-35686476D01*
X82868231Y-35686475D01*
X82868230Y-35686474D01*
X82723593Y-35581388D01*
X82560267Y-35508671D01*
X82560265Y-35508670D01*
X82432594Y-35481533D01*
X82385391Y-35471500D01*
X82206609Y-35471500D01*
X82175954Y-35478015D01*
X82031733Y-35508670D01*
X82031728Y-35508672D01*
X81868408Y-35581387D01*
X81723768Y-35686475D01*
X81604140Y-35819336D01*
X81514750Y-35974164D01*
X81514747Y-35974170D01*
X81459504Y-36144192D01*
X81459503Y-36144194D01*
X81440815Y-36322000D01*
X66784293Y-36322000D01*
X66772161Y-36183328D01*
X66715347Y-35971299D01*
X66622579Y-35772356D01*
X66622577Y-35772353D01*
X66622576Y-35772351D01*
X66496677Y-35592549D01*
X66496672Y-35592543D01*
X66341458Y-35437329D01*
X66341452Y-35437324D01*
X66262549Y-35382076D01*
X66218924Y-35327499D01*
X66211730Y-35258001D01*
X66243253Y-35195646D01*
X66303482Y-35160232D01*
X66330573Y-35156883D01*
X66330571Y-35156856D01*
X66330573Y-35156855D01*
X66330564Y-35156678D01*
X66333520Y-35156519D01*
X66333672Y-35156501D01*
X66333871Y-35156501D01*
X66333872Y-35156501D01*
X66393483Y-35150093D01*
X66528331Y-35099798D01*
X66643546Y-35013548D01*
X66729796Y-34898333D01*
X66780091Y-34763485D01*
X66786500Y-34703875D01*
X66786499Y-33100130D01*
X66780091Y-33040519D01*
X66755680Y-32975071D01*
X66729797Y-32905673D01*
X66729793Y-32905666D01*
X66643547Y-32790457D01*
X66643544Y-32790454D01*
X66528335Y-32704208D01*
X66528328Y-32704204D01*
X66393482Y-32653910D01*
X66393483Y-32653910D01*
X66333883Y-32647503D01*
X66333881Y-32647502D01*
X66333873Y-32647502D01*
X66333864Y-32647502D01*
X64730129Y-32647502D01*
X64730123Y-32647503D01*
X64670516Y-32653910D01*
X64535671Y-32704204D01*
X64535664Y-32704208D01*
X64420455Y-32790454D01*
X64420452Y-32790457D01*
X64334206Y-32905666D01*
X64334202Y-32905673D01*
X64283908Y-33040519D01*
X64278462Y-33091179D01*
X64277501Y-33100125D01*
X64277500Y-33100137D01*
X64277500Y-34703872D01*
X64277501Y-34703878D01*
X64283908Y-34763485D01*
X64334202Y-34898330D01*
X64334206Y-34898337D01*
X64420452Y-35013546D01*
X64420455Y-35013549D01*
X64535664Y-35099795D01*
X64535671Y-35099799D01*
X64580618Y-35116563D01*
X64670517Y-35150093D01*
X64730127Y-35156502D01*
X64730294Y-35156501D01*
X64730329Y-35156512D01*
X64733453Y-35156680D01*
X64733413Y-35157416D01*
X64797336Y-35176167D01*
X64843106Y-35228957D01*
X64853069Y-35298113D01*
X64824062Y-35361677D01*
X64801450Y-35382075D01*
X64722550Y-35437321D01*
X64722541Y-35437329D01*
X64567327Y-35592543D01*
X64567322Y-35592549D01*
X64441423Y-35772351D01*
X64441419Y-35772359D01*
X64348655Y-35971293D01*
X64348653Y-35971297D01*
X64348653Y-35971299D01*
X64347885Y-35974165D01*
X64291839Y-36183326D01*
X64291838Y-36183333D01*
X64272708Y-36401999D01*
X62206500Y-36401999D01*
X62206500Y-30480000D01*
X71280815Y-30480000D01*
X71299503Y-30657805D01*
X71299504Y-30657807D01*
X71354747Y-30827829D01*
X71354750Y-30827835D01*
X71444141Y-30982665D01*
X71485812Y-31028946D01*
X71563764Y-31115521D01*
X71563767Y-31115523D01*
X71563770Y-31115526D01*
X71708407Y-31220612D01*
X71871733Y-31293329D01*
X72046609Y-31330500D01*
X72046610Y-31330500D01*
X72225389Y-31330500D01*
X72225391Y-31330500D01*
X72400267Y-31293329D01*
X72563593Y-31220612D01*
X72708230Y-31115526D01*
X72723736Y-31098305D01*
X91129771Y-31098305D01*
X91129771Y-31098306D01*
X91149838Y-31314877D01*
X91149839Y-31314880D01*
X91209358Y-31524071D01*
X91209361Y-31524076D01*
X91306309Y-31718774D01*
X91437382Y-31892343D01*
X91598117Y-32038871D01*
X91783039Y-32153371D01*
X91987757Y-32232679D01*
X92043158Y-32275252D01*
X92066749Y-32341019D01*
X92051038Y-32409099D01*
X92001014Y-32457878D01*
X91987757Y-32463933D01*
X91783039Y-32543240D01*
X91783038Y-32543241D01*
X91598121Y-32657738D01*
X91598119Y-32657739D01*
X91598117Y-32657741D01*
X91452534Y-32790456D01*
X91437381Y-32804270D01*
X91306309Y-32977837D01*
X91209361Y-33172534D01*
X91209358Y-33172540D01*
X91149839Y-33381731D01*
X91149838Y-33381734D01*
X91129771Y-33598305D01*
X91129771Y-33598306D01*
X91149838Y-33814877D01*
X91149839Y-33814880D01*
X91209358Y-34024071D01*
X91209361Y-34024077D01*
X91264604Y-34135020D01*
X91306309Y-34218774D01*
X91437382Y-34392343D01*
X91598117Y-34538871D01*
X91598122Y-34538874D01*
X91598125Y-34538876D01*
X91647576Y-34569495D01*
X91694212Y-34621523D01*
X91706299Y-34674922D01*
X91706299Y-56319667D01*
X91731422Y-56413425D01*
X91747332Y-56472802D01*
X91747333Y-56472803D01*
X91787966Y-56543182D01*
X91815121Y-56590216D01*
X91826598Y-56610096D01*
X93601332Y-58384830D01*
X93634817Y-58446153D01*
X93636972Y-58459549D01*
X93651503Y-58597804D01*
X93651504Y-58597807D01*
X93706747Y-58767829D01*
X93706750Y-58767835D01*
X93796141Y-58922665D01*
X93823814Y-58953399D01*
X93915764Y-59055521D01*
X93915767Y-59055523D01*
X93915770Y-59055526D01*
X94060407Y-59160612D01*
X94223733Y-59233329D01*
X94398609Y-59270500D01*
X94398610Y-59270500D01*
X94577389Y-59270500D01*
X94577391Y-59270500D01*
X94752267Y-59233329D01*
X94915593Y-59160612D01*
X95060230Y-59055526D01*
X95179859Y-58922665D01*
X95269250Y-58767835D01*
X95324497Y-58597803D01*
X95343185Y-58420000D01*
X95324497Y-58242197D01*
X95281807Y-58110810D01*
X95269252Y-58072170D01*
X95269249Y-58072164D01*
X95268163Y-58070283D01*
X95179859Y-57917335D01*
X95117281Y-57847835D01*
X95060235Y-57784478D01*
X95060232Y-57784476D01*
X95060231Y-57784475D01*
X95060230Y-57784474D01*
X94915593Y-57679388D01*
X94752267Y-57606671D01*
X94752265Y-57606670D01*
X94624594Y-57579533D01*
X94577391Y-57569500D01*
X94577390Y-57569500D01*
X94540360Y-57569500D01*
X94473321Y-57549815D01*
X94452679Y-57533181D01*
X94419498Y-57500000D01*
X107819815Y-57500000D01*
X107838503Y-57677805D01*
X107838504Y-57677807D01*
X107893747Y-57847829D01*
X107893750Y-57847835D01*
X107983141Y-58002665D01*
X108022610Y-58046500D01*
X108102764Y-58135521D01*
X108102767Y-58135523D01*
X108102770Y-58135526D01*
X108247407Y-58240612D01*
X108410733Y-58313329D01*
X108585609Y-58350500D01*
X108585610Y-58350500D01*
X108764389Y-58350500D01*
X108764391Y-58350500D01*
X108939267Y-58313329D01*
X109102593Y-58240612D01*
X109247230Y-58135526D01*
X109249306Y-58133221D01*
X109304276Y-58072170D01*
X109366859Y-58002665D01*
X109456250Y-57847835D01*
X109511497Y-57677803D01*
X109530185Y-57500000D01*
X109511497Y-57322197D01*
X109456250Y-57152165D01*
X109366859Y-56997335D01*
X109295698Y-56918303D01*
X109247235Y-56864478D01*
X109247232Y-56864476D01*
X109247231Y-56864475D01*
X109247230Y-56864474D01*
X109102593Y-56759388D01*
X108939267Y-56686671D01*
X108939265Y-56686670D01*
X108811594Y-56659533D01*
X108764391Y-56649500D01*
X108585609Y-56649500D01*
X108554954Y-56656015D01*
X108410733Y-56686670D01*
X108410728Y-56686672D01*
X108247408Y-56759387D01*
X108102768Y-56864475D01*
X107983140Y-56997336D01*
X107893750Y-57152164D01*
X107893747Y-57152170D01*
X107838504Y-57322192D01*
X107838503Y-57322194D01*
X107819815Y-57500000D01*
X94419498Y-57500000D01*
X92946818Y-56027320D01*
X92913333Y-55965997D01*
X92910499Y-55939639D01*
X92910499Y-50718005D01*
X92930184Y-50650966D01*
X92982988Y-50605211D01*
X93052146Y-50595267D01*
X93060231Y-50596705D01*
X93085609Y-50602100D01*
X93085614Y-50602100D01*
X93264389Y-50602100D01*
X93264391Y-50602100D01*
X93439267Y-50564929D01*
X93602593Y-50492212D01*
X93747230Y-50387126D01*
X93866859Y-50254265D01*
X93941514Y-50124957D01*
X93992079Y-50076744D01*
X94060686Y-50063520D01*
X94125551Y-50089488D01*
X94166080Y-50146402D01*
X94172900Y-50186959D01*
X94172900Y-54579268D01*
X94191539Y-54648827D01*
X94213933Y-54732403D01*
X94213934Y-54732404D01*
X94285764Y-54856818D01*
X94293200Y-54869698D01*
X94293203Y-54869702D01*
X95188332Y-55764830D01*
X95221817Y-55826153D01*
X95223971Y-55839545D01*
X95228925Y-55886671D01*
X95238503Y-55977804D01*
X95238504Y-55977807D01*
X95293747Y-56147829D01*
X95293750Y-56147835D01*
X95383141Y-56302665D01*
X95391843Y-56312329D01*
X95502764Y-56435521D01*
X95502767Y-56435523D01*
X95502770Y-56435526D01*
X95647407Y-56540612D01*
X95810733Y-56613329D01*
X95985609Y-56650500D01*
X95985610Y-56650500D01*
X96164389Y-56650500D01*
X96164391Y-56650500D01*
X96339267Y-56613329D01*
X96502593Y-56540612D01*
X96647230Y-56435526D01*
X96766859Y-56302665D01*
X96856250Y-56147835D01*
X96892528Y-56036180D01*
X96931965Y-55978507D01*
X96996324Y-55951308D01*
X97010459Y-55950500D01*
X97164389Y-55950500D01*
X97164391Y-55950500D01*
X97339267Y-55913329D01*
X97502593Y-55840612D01*
X97647230Y-55735526D01*
X97650746Y-55731622D01*
X97683584Y-55695151D01*
X97766859Y-55602665D01*
X97856250Y-55447835D01*
X97911497Y-55277803D01*
X97914557Y-55248685D01*
X97941140Y-55184074D01*
X97998437Y-55144089D01*
X98012067Y-55140366D01*
X98139267Y-55113329D01*
X98302593Y-55040612D01*
X98447230Y-54935526D01*
X98566859Y-54802665D01*
X98656250Y-54647835D01*
X98711497Y-54477803D01*
X98730185Y-54300000D01*
X98711497Y-54122197D01*
X98670980Y-53997499D01*
X98656252Y-53952170D01*
X98656249Y-53952164D01*
X98646643Y-53935526D01*
X98566859Y-53797335D01*
X98497886Y-53720733D01*
X98447235Y-53664478D01*
X98447232Y-53664476D01*
X98447231Y-53664475D01*
X98447230Y-53664474D01*
X98302593Y-53559388D01*
X98139267Y-53486671D01*
X98139265Y-53486670D01*
X98008257Y-53458824D01*
X97964391Y-53449500D01*
X97964390Y-53449500D01*
X97927360Y-53449500D01*
X97860321Y-53429815D01*
X97839679Y-53413181D01*
X97313419Y-52886921D01*
X97279934Y-52825598D01*
X97277100Y-52799240D01*
X97277100Y-52699999D01*
X99719722Y-52699999D01*
X99719722Y-52700000D01*
X99738762Y-52856818D01*
X99779334Y-52963796D01*
X99794780Y-53004523D01*
X99884517Y-53134530D01*
X100002760Y-53239283D01*
X100002762Y-53239284D01*
X100142634Y-53312696D01*
X100296014Y-53350500D01*
X100296015Y-53350500D01*
X100453985Y-53350500D01*
X100607365Y-53312696D01*
X100747240Y-53239283D01*
X100865483Y-53134530D01*
X100955220Y-53004523D01*
X101011237Y-52856818D01*
X101030278Y-52700000D01*
X101011237Y-52543182D01*
X101002400Y-52519882D01*
X100983325Y-52469585D01*
X100955220Y-52395477D01*
X100865483Y-52265470D01*
X100747240Y-52160717D01*
X100747238Y-52160716D01*
X100747237Y-52160715D01*
X100607365Y-52087303D01*
X100453986Y-52049500D01*
X100453985Y-52049500D01*
X100296015Y-52049500D01*
X100296014Y-52049500D01*
X100142634Y-52087303D01*
X100002762Y-52160715D01*
X99884516Y-52265471D01*
X99794781Y-52395475D01*
X99794780Y-52395476D01*
X99738762Y-52543181D01*
X99719722Y-52699999D01*
X97277100Y-52699999D01*
X97277100Y-49626291D01*
X97296785Y-49559252D01*
X97349589Y-49513497D01*
X97418747Y-49503553D01*
X97482303Y-49532578D01*
X97483327Y-49533475D01*
X97484515Y-49534528D01*
X97484517Y-49534530D01*
X97560789Y-49602100D01*
X97602762Y-49639285D01*
X97742634Y-49712696D01*
X97896014Y-49750500D01*
X97896015Y-49750500D01*
X98053985Y-49750500D01*
X98207365Y-49712696D01*
X98240801Y-49695147D01*
X98347240Y-49639283D01*
X98465483Y-49534530D01*
X98555220Y-49404523D01*
X98562224Y-49386053D01*
X98604397Y-49330354D01*
X98669994Y-49306295D01*
X98738185Y-49321519D01*
X98765846Y-49342344D01*
X100987854Y-51564352D01*
X101021339Y-51625675D01*
X101023494Y-51664993D01*
X101019815Y-51699998D01*
X101038503Y-51877805D01*
X101038504Y-51877807D01*
X101093747Y-52047829D01*
X101093750Y-52047835D01*
X101183141Y-52202665D01*
X101206024Y-52228079D01*
X101302764Y-52335521D01*
X101302767Y-52335523D01*
X101302770Y-52335526D01*
X101447407Y-52440612D01*
X101610733Y-52513329D01*
X101785609Y-52550500D01*
X101785610Y-52550500D01*
X101964389Y-52550500D01*
X101964391Y-52550500D01*
X102139267Y-52513329D01*
X102302593Y-52440612D01*
X102447230Y-52335526D01*
X102447437Y-52335297D01*
X102476758Y-52302732D01*
X102566859Y-52202665D01*
X102656250Y-52047835D01*
X102711497Y-51877803D01*
X102730185Y-51700000D01*
X102723187Y-51633427D01*
X102735756Y-51564702D01*
X102783487Y-51513678D01*
X102851227Y-51496559D01*
X102896941Y-51507188D01*
X102910733Y-51513329D01*
X103085609Y-51550500D01*
X103085610Y-51550500D01*
X103264389Y-51550500D01*
X103264391Y-51550500D01*
X103439267Y-51513329D01*
X103602593Y-51440612D01*
X103747230Y-51335526D01*
X103866859Y-51202665D01*
X103956250Y-51047835D01*
X103994979Y-50928638D01*
X104034416Y-50870963D01*
X104087127Y-50845667D01*
X104211859Y-50819154D01*
X104239263Y-50813330D01*
X104239263Y-50813329D01*
X104239267Y-50813329D01*
X104402593Y-50740612D01*
X104547230Y-50635526D01*
X104553410Y-50628663D01*
X104583479Y-50595267D01*
X104666859Y-50502665D01*
X104756250Y-50347835D01*
X104796542Y-50223829D01*
X104835978Y-50166156D01*
X104900336Y-50138957D01*
X104940251Y-50140858D01*
X104985609Y-50150500D01*
X104985610Y-50150500D01*
X105164389Y-50150500D01*
X105164391Y-50150500D01*
X105339267Y-50113329D01*
X105502593Y-50040612D01*
X105647230Y-49935526D01*
X105652570Y-49929596D01*
X105688755Y-49889408D01*
X105766859Y-49802665D01*
X105856250Y-49647835D01*
X105883188Y-49564929D01*
X105892529Y-49536182D01*
X105931967Y-49478506D01*
X105996325Y-49451308D01*
X106010460Y-49450500D01*
X106048900Y-49450500D01*
X106115939Y-49470185D01*
X106161694Y-49522989D01*
X106172900Y-49574500D01*
X106172900Y-50979268D01*
X106191271Y-51047829D01*
X106213933Y-51132403D01*
X106213934Y-51132404D01*
X106216876Y-51137500D01*
X106233042Y-51165500D01*
X106254980Y-51203498D01*
X106293199Y-51269697D01*
X109036581Y-54013079D01*
X109070066Y-54074402D01*
X109072900Y-54100760D01*
X109072900Y-54526089D01*
X109053215Y-54593128D01*
X109000411Y-54638883D01*
X108934941Y-54648296D01*
X108934849Y-54649179D01*
X108931357Y-54648811D01*
X108931253Y-54648827D01*
X108930893Y-54648763D01*
X108928391Y-54648500D01*
X108749609Y-54648500D01*
X108737490Y-54651076D01*
X108574733Y-54685670D01*
X108574728Y-54685672D01*
X108411408Y-54758387D01*
X108266768Y-54863475D01*
X108147140Y-54996336D01*
X108057750Y-55151164D01*
X108057747Y-55151170D01*
X108002504Y-55321192D01*
X108002503Y-55321194D01*
X107983815Y-55499000D01*
X108002503Y-55676805D01*
X108002504Y-55676807D01*
X108057747Y-55846829D01*
X108057750Y-55846835D01*
X108147141Y-56001665D01*
X108188812Y-56047946D01*
X108266764Y-56134521D01*
X108266767Y-56134523D01*
X108266770Y-56134526D01*
X108411407Y-56239612D01*
X108574733Y-56312329D01*
X108749609Y-56349500D01*
X108749610Y-56349500D01*
X108928389Y-56349500D01*
X108928391Y-56349500D01*
X109103267Y-56312329D01*
X109186333Y-56275345D01*
X109255577Y-56266060D01*
X109318854Y-56295688D01*
X109324446Y-56300944D01*
X111089443Y-58065941D01*
X111122928Y-58127264D01*
X111117944Y-58196956D01*
X111109150Y-58215620D01*
X111080269Y-58265644D01*
X111025023Y-58435673D01*
X111025022Y-58435675D01*
X111006334Y-58613481D01*
X111025022Y-58791286D01*
X111025023Y-58791288D01*
X111080266Y-58961310D01*
X111080269Y-58961316D01*
X111169660Y-59116146D01*
X111191008Y-59139855D01*
X111289283Y-59249002D01*
X111289286Y-59249004D01*
X111289289Y-59249007D01*
X111433926Y-59354093D01*
X111597252Y-59426810D01*
X111597254Y-59426810D01*
X111597255Y-59426811D01*
X111653213Y-59438705D01*
X111714695Y-59471897D01*
X111748472Y-59533060D01*
X111743820Y-59602774D01*
X111702216Y-59658907D01*
X111657108Y-59680392D01*
X111527633Y-59712304D01*
X111387762Y-59785715D01*
X111269516Y-59890471D01*
X111179781Y-60020475D01*
X111179780Y-60020476D01*
X111123762Y-60168181D01*
X111104722Y-60324999D01*
X111104722Y-60325000D01*
X111123762Y-60481818D01*
X111173197Y-60612165D01*
X111179780Y-60629523D01*
X111269517Y-60759530D01*
X111387760Y-60864283D01*
X111387762Y-60864284D01*
X111527634Y-60937696D01*
X111681014Y-60975500D01*
X111681015Y-60975500D01*
X111838985Y-60975500D01*
X111992365Y-60937696D01*
X112034499Y-60915582D01*
X112132240Y-60864283D01*
X112250483Y-60759530D01*
X112340220Y-60629523D01*
X112350709Y-60601864D01*
X112392884Y-60546164D01*
X112458482Y-60522106D01*
X112526672Y-60537332D01*
X112568699Y-60575395D01*
X112609517Y-60634530D01*
X112727760Y-60739283D01*
X112727762Y-60739284D01*
X112867634Y-60812696D01*
X113021014Y-60850500D01*
X113021015Y-60850500D01*
X113178985Y-60850500D01*
X113332365Y-60812696D01*
X113366895Y-60794573D01*
X113472240Y-60739283D01*
X113590483Y-60634530D01*
X113680220Y-60504523D01*
X113682542Y-60498400D01*
X116719815Y-60498400D01*
X116738503Y-60676205D01*
X116738504Y-60676207D01*
X116793747Y-60846229D01*
X116793750Y-60846235D01*
X116883141Y-61001065D01*
X116924812Y-61047346D01*
X117002764Y-61133921D01*
X117002767Y-61133923D01*
X117002770Y-61133926D01*
X117147407Y-61239012D01*
X117310733Y-61311729D01*
X117485609Y-61348900D01*
X117485610Y-61348900D01*
X117664389Y-61348900D01*
X117664391Y-61348900D01*
X117839267Y-61311729D01*
X118002593Y-61239012D01*
X118147230Y-61133926D01*
X118147235Y-61133919D01*
X118152060Y-61129577D01*
X118152930Y-61130544D01*
X118206443Y-61097565D01*
X118276300Y-61098885D01*
X118289562Y-61103903D01*
X118310733Y-61113329D01*
X118485609Y-61150500D01*
X118485610Y-61150500D01*
X118664389Y-61150500D01*
X118664391Y-61150500D01*
X118839267Y-61113329D01*
X119002593Y-61040612D01*
X119147230Y-60935526D01*
X119205236Y-60871103D01*
X119264720Y-60834456D01*
X119334577Y-60835785D01*
X119347820Y-60840796D01*
X119360856Y-60846600D01*
X119510733Y-60913329D01*
X119685609Y-60950500D01*
X119685610Y-60950500D01*
X119864389Y-60950500D01*
X119864391Y-60950500D01*
X120039267Y-60913329D01*
X120202593Y-60840612D01*
X120347230Y-60735526D01*
X120466859Y-60602665D01*
X120556250Y-60447835D01*
X120611497Y-60277803D01*
X120630185Y-60100000D01*
X120611497Y-59922197D01*
X120567151Y-59785715D01*
X120556252Y-59752170D01*
X120556249Y-59752164D01*
X120466859Y-59597335D01*
X120412229Y-59536662D01*
X120347235Y-59464478D01*
X120347232Y-59464476D01*
X120347231Y-59464475D01*
X120347230Y-59464474D01*
X120202593Y-59359388D01*
X120039267Y-59286671D01*
X120039265Y-59286670D01*
X119911594Y-59259533D01*
X119864391Y-59249500D01*
X119685609Y-59249500D01*
X119654954Y-59256015D01*
X119510733Y-59286670D01*
X119510728Y-59286672D01*
X119347408Y-59359387D01*
X119202768Y-59464475D01*
X119144763Y-59528896D01*
X119085276Y-59565544D01*
X119015419Y-59564213D01*
X119002179Y-59559203D01*
X118893298Y-59510727D01*
X118839267Y-59486671D01*
X118839265Y-59486670D01*
X118683675Y-59453599D01*
X118664391Y-59449500D01*
X118485609Y-59449500D01*
X118466334Y-59453597D01*
X118310733Y-59486670D01*
X118310728Y-59486672D01*
X118147408Y-59559387D01*
X118002766Y-59664476D01*
X117997941Y-59668822D01*
X117997074Y-59667859D01*
X117943527Y-59700842D01*
X117873670Y-59699505D01*
X117860439Y-59694497D01*
X117839270Y-59685072D01*
X117839266Y-59685070D01*
X117701561Y-59655800D01*
X117664391Y-59647900D01*
X117485609Y-59647900D01*
X117454954Y-59654415D01*
X117310733Y-59685070D01*
X117310728Y-59685072D01*
X117147408Y-59757787D01*
X117002768Y-59862875D01*
X116883140Y-59995736D01*
X116793750Y-60150564D01*
X116793747Y-60150570D01*
X116738504Y-60320592D01*
X116738503Y-60320594D01*
X116719815Y-60498400D01*
X113682542Y-60498400D01*
X113736237Y-60356818D01*
X113755278Y-60200000D01*
X113749276Y-60150564D01*
X113736237Y-60043181D01*
X113711834Y-59978837D01*
X113680220Y-59895477D01*
X113590483Y-59765470D01*
X113472240Y-59660717D01*
X113472238Y-59660716D01*
X113472237Y-59660715D01*
X113332365Y-59587303D01*
X113178986Y-59549500D01*
X113178985Y-59549500D01*
X113021015Y-59549500D01*
X113021014Y-59549500D01*
X112867634Y-59587303D01*
X112727762Y-59660715D01*
X112683977Y-59699505D01*
X112618190Y-59757787D01*
X112609516Y-59765471D01*
X112519781Y-59895475D01*
X112519779Y-59895478D01*
X112509290Y-59923135D01*
X112467111Y-59978837D01*
X112401513Y-60002893D01*
X112333323Y-59987665D01*
X112291299Y-59949602D01*
X112267496Y-59915118D01*
X112250483Y-59890470D01*
X112132240Y-59785717D01*
X112132238Y-59785716D01*
X112132237Y-59785715D01*
X111992365Y-59712303D01*
X111956909Y-59703565D01*
X111896528Y-59668410D01*
X111864739Y-59606190D01*
X111871634Y-59536662D01*
X111915025Y-59481899D01*
X111960800Y-59461878D01*
X112125786Y-59426810D01*
X112289112Y-59354093D01*
X112433749Y-59249007D01*
X112438817Y-59243379D01*
X112459667Y-59220222D01*
X112553378Y-59116146D01*
X112642769Y-58961316D01*
X112698016Y-58791284D01*
X112716704Y-58613481D01*
X112698016Y-58435678D01*
X112667972Y-58343212D01*
X112642771Y-58265651D01*
X112642768Y-58265645D01*
X112642767Y-58265644D01*
X112572361Y-58143696D01*
X112553379Y-58110817D01*
X112553374Y-58110810D01*
X112495469Y-58046500D01*
X112465239Y-57983508D01*
X112463619Y-57963528D01*
X112463619Y-57907252D01*
X112455729Y-57877807D01*
X112422586Y-57754117D01*
X112391342Y-57700000D01*
X114919815Y-57700000D01*
X114938503Y-57877805D01*
X114938504Y-57877807D01*
X114993747Y-58047829D01*
X114993750Y-58047835D01*
X115083141Y-58202665D01*
X115118733Y-58242194D01*
X115202764Y-58335521D01*
X115202767Y-58335523D01*
X115202770Y-58335526D01*
X115347407Y-58440612D01*
X115510733Y-58513329D01*
X115685609Y-58550500D01*
X115685610Y-58550500D01*
X115864389Y-58550500D01*
X115864391Y-58550500D01*
X116039267Y-58513329D01*
X116202593Y-58440612D01*
X116347230Y-58335526D01*
X116466859Y-58202665D01*
X116556250Y-58047835D01*
X116611497Y-57877803D01*
X116630185Y-57700000D01*
X116612422Y-57530999D01*
X119867722Y-57530999D01*
X119867722Y-57531000D01*
X119886762Y-57687818D01*
X119942780Y-57835523D01*
X120032517Y-57965530D01*
X120150760Y-58070283D01*
X120150762Y-58070284D01*
X120290634Y-58143696D01*
X120444014Y-58181500D01*
X120444015Y-58181500D01*
X120601985Y-58181500D01*
X120755365Y-58143696D01*
X120785549Y-58127854D01*
X120895240Y-58070283D01*
X121013483Y-57965530D01*
X121103220Y-57835523D01*
X121159237Y-57687818D01*
X121178278Y-57531000D01*
X121173116Y-57488482D01*
X121159237Y-57374181D01*
X121134166Y-57308075D01*
X121103220Y-57226477D01*
X121013483Y-57096470D01*
X120895240Y-56991717D01*
X120895238Y-56991716D01*
X120895237Y-56991715D01*
X120755365Y-56918303D01*
X120601986Y-56880500D01*
X120601985Y-56880500D01*
X120444015Y-56880500D01*
X120444014Y-56880500D01*
X120290634Y-56918303D01*
X120150762Y-56991715D01*
X120032516Y-57096471D01*
X119942781Y-57226475D01*
X119942780Y-57226476D01*
X119886762Y-57374181D01*
X119867722Y-57530999D01*
X116612422Y-57530999D01*
X116611497Y-57522197D01*
X116578710Y-57421289D01*
X116556252Y-57352170D01*
X116556249Y-57352164D01*
X116546643Y-57335526D01*
X116466859Y-57197335D01*
X116385675Y-57107171D01*
X116347235Y-57064478D01*
X116347232Y-57064476D01*
X116347231Y-57064475D01*
X116347230Y-57064474D01*
X116202593Y-56959388D01*
X116039267Y-56886671D01*
X116039265Y-56886670D01*
X115911594Y-56859533D01*
X115864391Y-56849500D01*
X115685609Y-56849500D01*
X115654954Y-56856015D01*
X115510733Y-56886670D01*
X115510728Y-56886672D01*
X115347408Y-56959387D01*
X115202768Y-57064475D01*
X115083140Y-57197336D01*
X114993750Y-57352164D01*
X114993747Y-57352170D01*
X114938504Y-57522192D01*
X114938503Y-57522194D01*
X114919815Y-57700000D01*
X112391342Y-57700000D01*
X112343319Y-57616821D01*
X112231217Y-57504719D01*
X111426498Y-56700000D01*
X121219815Y-56700000D01*
X121238503Y-56877805D01*
X121238504Y-56877807D01*
X121293747Y-57047829D01*
X121293750Y-57047835D01*
X121383141Y-57202665D01*
X121424812Y-57248946D01*
X121502764Y-57335521D01*
X121502767Y-57335523D01*
X121502770Y-57335526D01*
X121647407Y-57440612D01*
X121810733Y-57513329D01*
X121985609Y-57550500D01*
X121985610Y-57550500D01*
X122164389Y-57550500D01*
X122164391Y-57550500D01*
X122339267Y-57513329D01*
X122502593Y-57440612D01*
X122647230Y-57335526D01*
X122766859Y-57202665D01*
X122856250Y-57047835D01*
X122911497Y-56877803D01*
X122930185Y-56700000D01*
X122911497Y-56522197D01*
X122881587Y-56430145D01*
X122856252Y-56352170D01*
X122856249Y-56352164D01*
X122837486Y-56319665D01*
X122766859Y-56197335D01*
X122720003Y-56145296D01*
X122647235Y-56064478D01*
X122647232Y-56064476D01*
X122647231Y-56064475D01*
X122647230Y-56064474D01*
X122502593Y-55959388D01*
X122339267Y-55886671D01*
X122339265Y-55886670D01*
X122211594Y-55859533D01*
X122164391Y-55849500D01*
X121985609Y-55849500D01*
X121954954Y-55856015D01*
X121810733Y-55886670D01*
X121810728Y-55886672D01*
X121647408Y-55959387D01*
X121502768Y-56064475D01*
X121383140Y-56197336D01*
X121293750Y-56352164D01*
X121293747Y-56352170D01*
X121238504Y-56522192D01*
X121238503Y-56522194D01*
X121219815Y-56700000D01*
X111426498Y-56700000D01*
X110313419Y-55586921D01*
X110279934Y-55525598D01*
X110277100Y-55499240D01*
X110277100Y-53720733D01*
X110275116Y-53713329D01*
X110236067Y-53567598D01*
X110156800Y-53430302D01*
X110044698Y-53318200D01*
X109226498Y-52500000D01*
X111468215Y-52500000D01*
X111486903Y-52677805D01*
X111486904Y-52677807D01*
X111542147Y-52847829D01*
X111542150Y-52847835D01*
X111631541Y-53002665D01*
X111672225Y-53047849D01*
X111751164Y-53135521D01*
X111751167Y-53135523D01*
X111751170Y-53135526D01*
X111895807Y-53240612D01*
X112058863Y-53313208D01*
X112112098Y-53358457D01*
X112131746Y-53413522D01*
X112138503Y-53477803D01*
X112138504Y-53477805D01*
X112138504Y-53477807D01*
X112193747Y-53647829D01*
X112193750Y-53647834D01*
X112193750Y-53647835D01*
X112283141Y-53802665D01*
X112324812Y-53848946D01*
X112402764Y-53935521D01*
X112402767Y-53935523D01*
X112402770Y-53935526D01*
X112547407Y-54040612D01*
X112710733Y-54113329D01*
X112885609Y-54150500D01*
X112885610Y-54150500D01*
X113064389Y-54150500D01*
X113064391Y-54150500D01*
X113239267Y-54113329D01*
X113402593Y-54040612D01*
X113547230Y-53935526D01*
X113666859Y-53802665D01*
X113756250Y-53647835D01*
X113762327Y-53629131D01*
X113801762Y-53571456D01*
X113866120Y-53544257D01*
X113906035Y-53546157D01*
X114012479Y-53568783D01*
X114012480Y-53568783D01*
X114191259Y-53568783D01*
X114191261Y-53568783D01*
X114310584Y-53543420D01*
X114372494Y-53530261D01*
X114373002Y-53532651D01*
X114431799Y-53530964D01*
X114491637Y-53567037D01*
X114522474Y-53629733D01*
X114523614Y-53663856D01*
X114519815Y-53699999D01*
X114538503Y-53877805D01*
X114538504Y-53877807D01*
X114593747Y-54047829D01*
X114593750Y-54047835D01*
X114683141Y-54202665D01*
X114731824Y-54256733D01*
X114752210Y-54279374D01*
X114782440Y-54342365D01*
X114777991Y-54400664D01*
X114738504Y-54522192D01*
X114738503Y-54522194D01*
X114719815Y-54700000D01*
X114738503Y-54877805D01*
X114738504Y-54877807D01*
X114793747Y-55047829D01*
X114793750Y-55047835D01*
X114883141Y-55202665D01*
X114921259Y-55244999D01*
X115002764Y-55335521D01*
X115002767Y-55335523D01*
X115002770Y-55335526D01*
X115147407Y-55440612D01*
X115310733Y-55513329D01*
X115485609Y-55550500D01*
X115485610Y-55550500D01*
X115664389Y-55550500D01*
X115664391Y-55550500D01*
X115839267Y-55513329D01*
X116002593Y-55440612D01*
X116147230Y-55335526D01*
X116160137Y-55321192D01*
X116173148Y-55306741D01*
X116266859Y-55202665D01*
X116356250Y-55047835D01*
X116411497Y-54877803D01*
X116430185Y-54700000D01*
X116411497Y-54522197D01*
X116383873Y-54437181D01*
X116356252Y-54352170D01*
X116356249Y-54352164D01*
X116350592Y-54342365D01*
X116266859Y-54197335D01*
X116197789Y-54120625D01*
X116167559Y-54057634D01*
X116172007Y-53999338D01*
X116211497Y-53877803D01*
X116230185Y-53700000D01*
X116211497Y-53522197D01*
X116166215Y-53382833D01*
X116156252Y-53352170D01*
X116156249Y-53352164D01*
X116066859Y-53197335D01*
X116010307Y-53134528D01*
X115947235Y-53064478D01*
X115947226Y-53064471D01*
X115808662Y-52963796D01*
X115765996Y-52908466D01*
X115765269Y-52900000D01*
X121219815Y-52900000D01*
X121238503Y-53077805D01*
X121238504Y-53077807D01*
X121293747Y-53247829D01*
X121293750Y-53247835D01*
X121383141Y-53402665D01*
X121424812Y-53448946D01*
X121502764Y-53535521D01*
X121502767Y-53535523D01*
X121502770Y-53535526D01*
X121647407Y-53640612D01*
X121810733Y-53713329D01*
X121985609Y-53750500D01*
X121985610Y-53750500D01*
X122164389Y-53750500D01*
X122164391Y-53750500D01*
X122339267Y-53713329D01*
X122502593Y-53640612D01*
X122647230Y-53535526D01*
X122650755Y-53531612D01*
X122691220Y-53486670D01*
X122766859Y-53402665D01*
X122856250Y-53247835D01*
X122911497Y-53077803D01*
X122930185Y-52900000D01*
X122911497Y-52722197D01*
X122867543Y-52586921D01*
X122856252Y-52552170D01*
X122856249Y-52552164D01*
X122766859Y-52397335D01*
X122716396Y-52341290D01*
X122647235Y-52264478D01*
X122647232Y-52264476D01*
X122647231Y-52264475D01*
X122647230Y-52264474D01*
X122502593Y-52159388D01*
X122339267Y-52086671D01*
X122339265Y-52086670D01*
X122211594Y-52059533D01*
X122164391Y-52049500D01*
X121985609Y-52049500D01*
X121954954Y-52056015D01*
X121810733Y-52086670D01*
X121810728Y-52086672D01*
X121647408Y-52159387D01*
X121502768Y-52264475D01*
X121383140Y-52397336D01*
X121293750Y-52552164D01*
X121293747Y-52552170D01*
X121238504Y-52722192D01*
X121238503Y-52722194D01*
X121219815Y-52900000D01*
X115765269Y-52900000D01*
X115760018Y-52838853D01*
X115763617Y-52825161D01*
X115765169Y-52820385D01*
X115811497Y-52677803D01*
X115830185Y-52500000D01*
X115811497Y-52322197D01*
X115759028Y-52160715D01*
X115756252Y-52152170D01*
X115756249Y-52152164D01*
X115745667Y-52133835D01*
X115666859Y-51997335D01*
X115583731Y-51905012D01*
X115547235Y-51864478D01*
X115547232Y-51864476D01*
X115547231Y-51864475D01*
X115547230Y-51864474D01*
X115402593Y-51759388D01*
X115239267Y-51686671D01*
X115239265Y-51686670D01*
X115111594Y-51659533D01*
X115064391Y-51649500D01*
X114885609Y-51649500D01*
X114854954Y-51656015D01*
X114710733Y-51686670D01*
X114710728Y-51686672D01*
X114547408Y-51759387D01*
X114397514Y-51868293D01*
X114396008Y-51866221D01*
X114343314Y-51891484D01*
X114297601Y-51890386D01*
X114238401Y-51877803D01*
X114191261Y-51867783D01*
X114012479Y-51867783D01*
X113981824Y-51874298D01*
X113837603Y-51904953D01*
X113837598Y-51904955D01*
X113674278Y-51977670D01*
X113529638Y-52082758D01*
X113410011Y-52215617D01*
X113367061Y-52290009D01*
X113316493Y-52338224D01*
X113247886Y-52351446D01*
X113183022Y-52325478D01*
X113142494Y-52268564D01*
X113141743Y-52266326D01*
X113141465Y-52265471D01*
X113107428Y-52160715D01*
X113104652Y-52152170D01*
X113104649Y-52152164D01*
X113094067Y-52133835D01*
X113015259Y-51997335D01*
X112932131Y-51905012D01*
X112895635Y-51864478D01*
X112895632Y-51864476D01*
X112895631Y-51864475D01*
X112895630Y-51864474D01*
X112750993Y-51759388D01*
X112587667Y-51686671D01*
X112587665Y-51686670D01*
X112459994Y-51659533D01*
X112412791Y-51649500D01*
X112234009Y-51649500D01*
X112203354Y-51656015D01*
X112059133Y-51686670D01*
X112059128Y-51686672D01*
X111895808Y-51759387D01*
X111751168Y-51864475D01*
X111631540Y-51997336D01*
X111542150Y-52152164D01*
X111542147Y-52152170D01*
X111486904Y-52322192D01*
X111486903Y-52322194D01*
X111468215Y-52500000D01*
X109226498Y-52500000D01*
X107413419Y-50686921D01*
X107379934Y-50625598D01*
X107377100Y-50599240D01*
X107377100Y-47955729D01*
X107396785Y-47888690D01*
X107449589Y-47842935D01*
X107518747Y-47832991D01*
X107551529Y-47842447D01*
X107710733Y-47913329D01*
X107885609Y-47950500D01*
X107885610Y-47950500D01*
X108064389Y-47950500D01*
X108064391Y-47950500D01*
X108239267Y-47913329D01*
X108330796Y-47872577D01*
X108400044Y-47863293D01*
X108463321Y-47892921D01*
X108473379Y-47902884D01*
X108502770Y-47935526D01*
X108647407Y-48040612D01*
X108810733Y-48113329D01*
X108985609Y-48150500D01*
X108985610Y-48150500D01*
X109164389Y-48150500D01*
X109164391Y-48150500D01*
X109339267Y-48113329D01*
X109502593Y-48040612D01*
X109647230Y-47935526D01*
X109766859Y-47802665D01*
X109856250Y-47647835D01*
X109876504Y-47585498D01*
X109915940Y-47527823D01*
X109980299Y-47500624D01*
X110049145Y-47512538D01*
X110100622Y-47559782D01*
X110101818Y-47561809D01*
X110183141Y-47702665D01*
X110224812Y-47748946D01*
X110302764Y-47835521D01*
X110302767Y-47835523D01*
X110302770Y-47835526D01*
X110447407Y-47940612D01*
X110610733Y-48013329D01*
X110785609Y-48050500D01*
X110785610Y-48050500D01*
X110964389Y-48050500D01*
X110964391Y-48050500D01*
X111139267Y-48013329D01*
X111302593Y-47940612D01*
X111447230Y-47835526D01*
X111456737Y-47824968D01*
X111486578Y-47791826D01*
X111566859Y-47702665D01*
X111656250Y-47547835D01*
X111711497Y-47377803D01*
X111717329Y-47322305D01*
X117997510Y-47322305D01*
X118016198Y-47500110D01*
X118016199Y-47500112D01*
X118071442Y-47670134D01*
X118071445Y-47670140D01*
X118160836Y-47824970D01*
X118191826Y-47859388D01*
X118280459Y-47957826D01*
X118280462Y-47957828D01*
X118280465Y-47957831D01*
X118425102Y-48062917D01*
X118588428Y-48135634D01*
X118763304Y-48172805D01*
X118763305Y-48172805D01*
X118942084Y-48172805D01*
X118942086Y-48172805D01*
X119116962Y-48135634D01*
X119280288Y-48062917D01*
X119342376Y-48017806D01*
X119408181Y-47994326D01*
X119476236Y-48010151D01*
X119507412Y-48035152D01*
X119552764Y-48085521D01*
X119552767Y-48085523D01*
X119552770Y-48085526D01*
X119636565Y-48146407D01*
X119679230Y-48201738D01*
X119685209Y-48271351D01*
X119671067Y-48308723D01*
X119654007Y-48338272D01*
X119654005Y-48338275D01*
X119638180Y-48397335D01*
X119614183Y-48486894D01*
X119612972Y-48491412D01*
X119612972Y-50050047D01*
X119593287Y-50117086D01*
X119581122Y-50133019D01*
X119523216Y-50197329D01*
X119523211Y-50197336D01*
X119433822Y-50352164D01*
X119433819Y-50352170D01*
X119378576Y-50522192D01*
X119378575Y-50522194D01*
X119359887Y-50700000D01*
X119378575Y-50877805D01*
X119378576Y-50877807D01*
X119433819Y-51047829D01*
X119433822Y-51047835D01*
X119523213Y-51202665D01*
X119564884Y-51248946D01*
X119642836Y-51335521D01*
X119642839Y-51335523D01*
X119642842Y-51335526D01*
X119787479Y-51440612D01*
X119950805Y-51513329D01*
X120125681Y-51550500D01*
X120125682Y-51550500D01*
X120304461Y-51550500D01*
X120304463Y-51550500D01*
X120479339Y-51513329D01*
X120642665Y-51440612D01*
X120787302Y-51335526D01*
X120906931Y-51202665D01*
X120996322Y-51047835D01*
X121051569Y-50877803D01*
X121059746Y-50800000D01*
X122519815Y-50800000D01*
X122538503Y-50977805D01*
X122538504Y-50977807D01*
X122593747Y-51147829D01*
X122593750Y-51147835D01*
X122683141Y-51302665D01*
X122715889Y-51339035D01*
X122802764Y-51435521D01*
X122802767Y-51435523D01*
X122802770Y-51435526D01*
X122947407Y-51540612D01*
X123110733Y-51613329D01*
X123285609Y-51650500D01*
X123285610Y-51650500D01*
X123464389Y-51650500D01*
X123464391Y-51650500D01*
X123639267Y-51613329D01*
X123802593Y-51540612D01*
X123947230Y-51435526D01*
X124066859Y-51302665D01*
X124156250Y-51147835D01*
X124211497Y-50977803D01*
X124230185Y-50800000D01*
X124211497Y-50622197D01*
X124169262Y-50492212D01*
X124156252Y-50452170D01*
X124156249Y-50452164D01*
X124066859Y-50297335D01*
X124015783Y-50240610D01*
X123947235Y-50164478D01*
X123947232Y-50164476D01*
X123947231Y-50164475D01*
X123947230Y-50164474D01*
X123802593Y-50059388D01*
X123639267Y-49986671D01*
X123639265Y-49986670D01*
X123486291Y-49954155D01*
X123464391Y-49949500D01*
X123285609Y-49949500D01*
X123263709Y-49954155D01*
X123110733Y-49986670D01*
X123110728Y-49986672D01*
X122947408Y-50059387D01*
X122802768Y-50164475D01*
X122683140Y-50297336D01*
X122593750Y-50452164D01*
X122593747Y-50452170D01*
X122538504Y-50622192D01*
X122538503Y-50622194D01*
X122519815Y-50800000D01*
X121059746Y-50800000D01*
X121070257Y-50700000D01*
X121051569Y-50522197D01*
X121042769Y-50495116D01*
X121040773Y-50425278D01*
X121076852Y-50365444D01*
X121134914Y-50335509D01*
X121239267Y-50313329D01*
X121402593Y-50240612D01*
X121547230Y-50135526D01*
X121549488Y-50133019D01*
X121574851Y-50104850D01*
X121666859Y-50002665D01*
X121756250Y-49847835D01*
X121811497Y-49677803D01*
X121826028Y-49539545D01*
X121852611Y-49474934D01*
X121861658Y-49464838D01*
X121985577Y-49340919D01*
X122046898Y-49307436D01*
X122116590Y-49312420D01*
X122165406Y-49345630D01*
X122202764Y-49387121D01*
X122202767Y-49387123D01*
X122202770Y-49387126D01*
X122347407Y-49492212D01*
X122510733Y-49564929D01*
X122685609Y-49602100D01*
X122685610Y-49602100D01*
X122864389Y-49602100D01*
X122864391Y-49602100D01*
X123039267Y-49564929D01*
X123202593Y-49492212D01*
X123347230Y-49387126D01*
X123466859Y-49254265D01*
X123556250Y-49099435D01*
X123611497Y-48929403D01*
X123626028Y-48791145D01*
X123652611Y-48726534D01*
X123661658Y-48716438D01*
X124739714Y-47638382D01*
X124801035Y-47604899D01*
X124870727Y-47609883D01*
X124919542Y-47643092D01*
X124943891Y-47670134D01*
X125001209Y-47733793D01*
X125002770Y-47735526D01*
X125147407Y-47840612D01*
X125200969Y-47864459D01*
X125254205Y-47909708D01*
X125274527Y-47976557D01*
X125255482Y-48043781D01*
X125203116Y-48090037D01*
X125200969Y-48091017D01*
X125047408Y-48159387D01*
X124902768Y-48264475D01*
X124783140Y-48397336D01*
X124693750Y-48552164D01*
X124693747Y-48552170D01*
X124638504Y-48722192D01*
X124638503Y-48722194D01*
X124619815Y-48900000D01*
X124638503Y-49077805D01*
X124638504Y-49077807D01*
X124693747Y-49247829D01*
X124693750Y-49247835D01*
X124783141Y-49402665D01*
X124824812Y-49448946D01*
X124902764Y-49535521D01*
X124902767Y-49535523D01*
X124902770Y-49535526D01*
X125047407Y-49640612D01*
X125210733Y-49713329D01*
X125385609Y-49750500D01*
X125385610Y-49750500D01*
X125564389Y-49750500D01*
X125564391Y-49750500D01*
X125739267Y-49713329D01*
X125902593Y-49640612D01*
X126047230Y-49535526D01*
X126049885Y-49532578D01*
X126081685Y-49497260D01*
X126166859Y-49402665D01*
X126256250Y-49247835D01*
X126311497Y-49077803D01*
X126330185Y-48900000D01*
X126311497Y-48722197D01*
X126256250Y-48552165D01*
X126166859Y-48397335D01*
X126113678Y-48338272D01*
X126047235Y-48264478D01*
X126047232Y-48264476D01*
X126047231Y-48264475D01*
X126047230Y-48264474D01*
X125902593Y-48159388D01*
X125902592Y-48159387D01*
X125849030Y-48135540D01*
X125795793Y-48090290D01*
X125775472Y-48023441D01*
X125794517Y-47956217D01*
X125846884Y-47909962D01*
X125848961Y-47909012D01*
X125869203Y-47900000D01*
X128120144Y-47900000D01*
X128139126Y-48104849D01*
X128139126Y-48104851D01*
X128139127Y-48104854D01*
X128154643Y-48159387D01*
X128195427Y-48302730D01*
X128195431Y-48302740D01*
X128287129Y-48486894D01*
X128287130Y-48486896D01*
X128349120Y-48568985D01*
X128411112Y-48651076D01*
X128563146Y-48789672D01*
X128563152Y-48789676D01*
X128571059Y-48794572D01*
X128617696Y-48846599D01*
X128628801Y-48915580D01*
X128600850Y-48979615D01*
X128571065Y-49005425D01*
X128563149Y-49010326D01*
X128563146Y-49010328D01*
X128411112Y-49148924D01*
X128287129Y-49313106D01*
X128195431Y-49497260D01*
X128195427Y-49497270D01*
X128152590Y-49647828D01*
X128144062Y-49677804D01*
X128139126Y-49695151D01*
X128120144Y-49900001D01*
X128139126Y-50104850D01*
X128139126Y-50104852D01*
X128139127Y-50104855D01*
X128162488Y-50186959D01*
X128195427Y-50302731D01*
X128195431Y-50302741D01*
X128269838Y-50452170D01*
X128287130Y-50486897D01*
X128345978Y-50564824D01*
X128411112Y-50651077D01*
X128563146Y-50789673D01*
X128563152Y-50789677D01*
X128571059Y-50794573D01*
X128617696Y-50846600D01*
X128628801Y-50915581D01*
X128600850Y-50979616D01*
X128571065Y-51005426D01*
X128563149Y-51010327D01*
X128563146Y-51010329D01*
X128411112Y-51148925D01*
X128287129Y-51313107D01*
X128195431Y-51497261D01*
X128195427Y-51497271D01*
X128139126Y-51695152D01*
X128120144Y-51900002D01*
X128139126Y-52104851D01*
X128139126Y-52104853D01*
X128139127Y-52104856D01*
X128154643Y-52159388D01*
X128195427Y-52302732D01*
X128195431Y-52302742D01*
X128275970Y-52464486D01*
X128287130Y-52486898D01*
X128336417Y-52552165D01*
X128411112Y-52651078D01*
X128563146Y-52789674D01*
X128563153Y-52789679D01*
X128571061Y-52794576D01*
X128617696Y-52846605D01*
X128628798Y-52915587D01*
X128600843Y-52979621D01*
X128571061Y-53005426D01*
X128563153Y-53010322D01*
X128563146Y-53010327D01*
X128411112Y-53148923D01*
X128287129Y-53313105D01*
X128195431Y-53497259D01*
X128195427Y-53497269D01*
X128139126Y-53695150D01*
X128120144Y-53900000D01*
X128139126Y-54104849D01*
X128139126Y-54104851D01*
X128139127Y-54104854D01*
X128155779Y-54163379D01*
X128195427Y-54302730D01*
X128195431Y-54302740D01*
X128282602Y-54477803D01*
X128287130Y-54486896D01*
X128287177Y-54486958D01*
X128411112Y-54651076D01*
X128563146Y-54789672D01*
X128563152Y-54789676D01*
X128571059Y-54794572D01*
X128617696Y-54846599D01*
X128628801Y-54915580D01*
X128600850Y-54979615D01*
X128571065Y-55005425D01*
X128563149Y-55010326D01*
X128563146Y-55010328D01*
X128411112Y-55148924D01*
X128287129Y-55313106D01*
X128195431Y-55497260D01*
X128195427Y-55497270D01*
X128139126Y-55695151D01*
X128120144Y-55900001D01*
X128139126Y-56104850D01*
X128139126Y-56104852D01*
X128139127Y-56104855D01*
X128147569Y-56134526D01*
X128195427Y-56302731D01*
X128195431Y-56302741D01*
X128277721Y-56468002D01*
X128287130Y-56486897D01*
X128327692Y-56540610D01*
X128411112Y-56651077D01*
X128563146Y-56789673D01*
X128563151Y-56789676D01*
X128571059Y-56794573D01*
X128617695Y-56846600D01*
X128628799Y-56915582D01*
X128600846Y-56979616D01*
X128571065Y-57005424D01*
X128563148Y-57010326D01*
X128563146Y-57010327D01*
X128411112Y-57148923D01*
X128287129Y-57313105D01*
X128195431Y-57497259D01*
X128195427Y-57497269D01*
X128164300Y-57606671D01*
X128144062Y-57677803D01*
X128139126Y-57695150D01*
X128120144Y-57900000D01*
X128139126Y-58104849D01*
X128139126Y-58104851D01*
X128139127Y-58104854D01*
X128160935Y-58181500D01*
X128195427Y-58302730D01*
X128195431Y-58302740D01*
X128273513Y-58459549D01*
X128287130Y-58486896D01*
X128335161Y-58550500D01*
X128411112Y-58651076D01*
X128563146Y-58789672D01*
X128563152Y-58789676D01*
X128571059Y-58794572D01*
X128617696Y-58846599D01*
X128628801Y-58915580D01*
X128600850Y-58979615D01*
X128571065Y-59005425D01*
X128563149Y-59010326D01*
X128563146Y-59010328D01*
X128411112Y-59148924D01*
X128287129Y-59313106D01*
X128195431Y-59497260D01*
X128195427Y-59497270D01*
X128139126Y-59695151D01*
X128120144Y-59900001D01*
X128139126Y-60104850D01*
X128139126Y-60104852D01*
X128139127Y-60104855D01*
X128152133Y-60150565D01*
X128195427Y-60302731D01*
X128195431Y-60302741D01*
X128272410Y-60457335D01*
X128287130Y-60486897D01*
X128349120Y-60568986D01*
X128411112Y-60651077D01*
X128563146Y-60789673D01*
X128563151Y-60789676D01*
X128571059Y-60794573D01*
X128617695Y-60846600D01*
X128628799Y-60915582D01*
X128600846Y-60979616D01*
X128571065Y-61005424D01*
X128563148Y-61010326D01*
X128563146Y-61010327D01*
X128411112Y-61148923D01*
X128287129Y-61313105D01*
X128195431Y-61497259D01*
X128195427Y-61497269D01*
X128139126Y-61695150D01*
X128120144Y-61900000D01*
X128139126Y-62104849D01*
X128139126Y-62104851D01*
X128139127Y-62104854D01*
X128148036Y-62136165D01*
X128195427Y-62302730D01*
X128195431Y-62302740D01*
X128284116Y-62480844D01*
X128287130Y-62486896D01*
X128325465Y-62537660D01*
X128411112Y-62651076D01*
X128563146Y-62789672D01*
X128563151Y-62789676D01*
X128738062Y-62897976D01*
X128738063Y-62897976D01*
X128738066Y-62897978D01*
X128929905Y-62972297D01*
X129132134Y-63010100D01*
X129132136Y-63010100D01*
X129337864Y-63010100D01*
X129337866Y-63010100D01*
X129540095Y-62972297D01*
X129731934Y-62897978D01*
X129906851Y-62789674D01*
X129982870Y-62720374D01*
X130058887Y-62651076D01*
X130058889Y-62651074D01*
X130182870Y-62486896D01*
X130274572Y-62302732D01*
X130330873Y-62104854D01*
X130349856Y-61900000D01*
X130330873Y-61695146D01*
X130274572Y-61497268D01*
X130182870Y-61313104D01*
X130058889Y-61148926D01*
X130058887Y-61148923D01*
X129906853Y-61010327D01*
X129906849Y-61010324D01*
X129898938Y-61005426D01*
X129852303Y-60953398D01*
X129841200Y-60884416D01*
X129869154Y-60820382D01*
X129898940Y-60794572D01*
X129906851Y-60789675D01*
X130058889Y-60651075D01*
X130182870Y-60486897D01*
X130274572Y-60302733D01*
X130330873Y-60104855D01*
X130349856Y-59900001D01*
X130330873Y-59695147D01*
X130274572Y-59497269D01*
X130269295Y-59486672D01*
X130205916Y-59359388D01*
X130182870Y-59313105D01*
X130067712Y-59160610D01*
X130058887Y-59148924D01*
X129906853Y-59010328D01*
X129898937Y-59005427D01*
X129852302Y-58953399D01*
X129841198Y-58884417D01*
X129869151Y-58820383D01*
X129898940Y-58794572D01*
X129906851Y-58789674D01*
X130008209Y-58697274D01*
X130058887Y-58651076D01*
X130058889Y-58651074D01*
X130182870Y-58486896D01*
X130274572Y-58302732D01*
X130330873Y-58104854D01*
X130349856Y-57900000D01*
X130330873Y-57695146D01*
X130274572Y-57497268D01*
X130270197Y-57488482D01*
X130213749Y-57375118D01*
X130182870Y-57313104D01*
X130058889Y-57148926D01*
X130058887Y-57148923D01*
X129906853Y-57010327D01*
X129906849Y-57010324D01*
X129898938Y-57005426D01*
X129852303Y-56953398D01*
X129841200Y-56884416D01*
X129869154Y-56820382D01*
X129898940Y-56794572D01*
X129906851Y-56789675D01*
X130039031Y-56669177D01*
X130058887Y-56651077D01*
X130061054Y-56648208D01*
X130182870Y-56486897D01*
X130274572Y-56302733D01*
X130330873Y-56104855D01*
X130349856Y-55900001D01*
X130330873Y-55695147D01*
X130274572Y-55497269D01*
X130266176Y-55480408D01*
X130194034Y-55335526D01*
X130182870Y-55313105D01*
X130060579Y-55151165D01*
X130058887Y-55148924D01*
X129906853Y-55010328D01*
X129898937Y-55005427D01*
X129852302Y-54953399D01*
X129841198Y-54884417D01*
X129869151Y-54820383D01*
X129898940Y-54794572D01*
X129906851Y-54789674D01*
X130020939Y-54685670D01*
X130058887Y-54651076D01*
X130060320Y-54649179D01*
X130182870Y-54486896D01*
X130274572Y-54302732D01*
X130330873Y-54104854D01*
X130349856Y-53900000D01*
X130330873Y-53695146D01*
X130274572Y-53497268D01*
X130269295Y-53486671D01*
X130227465Y-53402663D01*
X130182870Y-53313104D01*
X130058889Y-53148926D01*
X130058887Y-53148923D01*
X129906853Y-53010327D01*
X129906848Y-53010324D01*
X129898941Y-53005428D01*
X129852305Y-52953401D01*
X129841201Y-52884419D01*
X129869154Y-52820385D01*
X129898941Y-52794574D01*
X129901168Y-52793194D01*
X129906851Y-52789676D01*
X130029566Y-52677807D01*
X130058887Y-52651078D01*
X130084188Y-52617574D01*
X130182870Y-52486898D01*
X130274572Y-52302734D01*
X130330873Y-52104856D01*
X130349856Y-51900002D01*
X130330873Y-51695148D01*
X130274572Y-51497270D01*
X130243827Y-51435526D01*
X130216800Y-51381247D01*
X130182870Y-51313106D01*
X130058889Y-51148928D01*
X130058887Y-51148925D01*
X129906853Y-51010329D01*
X129898937Y-51005428D01*
X129852302Y-50953400D01*
X129841198Y-50884418D01*
X129869151Y-50820384D01*
X129898940Y-50794573D01*
X129906851Y-50789675D01*
X130058889Y-50651075D01*
X130182870Y-50486897D01*
X130274572Y-50302733D01*
X130330873Y-50104855D01*
X130349856Y-49900001D01*
X130330873Y-49695147D01*
X130274572Y-49497269D01*
X130274270Y-49496663D01*
X130197429Y-49342344D01*
X130182870Y-49313105D01*
X130058889Y-49148927D01*
X130058887Y-49148924D01*
X129906853Y-49010328D01*
X129898937Y-49005427D01*
X129852302Y-48953399D01*
X129841198Y-48884417D01*
X129869151Y-48820383D01*
X129898940Y-48794572D01*
X129906851Y-48789674D01*
X130058889Y-48651074D01*
X130182870Y-48486896D01*
X130274572Y-48302732D01*
X130330873Y-48104854D01*
X130349856Y-47900000D01*
X130660144Y-47900000D01*
X130679126Y-48104849D01*
X130679126Y-48104851D01*
X130679127Y-48104854D01*
X130694643Y-48159387D01*
X130735427Y-48302730D01*
X130735431Y-48302740D01*
X130827129Y-48486894D01*
X130827130Y-48486896D01*
X130889120Y-48568985D01*
X130951112Y-48651076D01*
X131103146Y-48789672D01*
X131103152Y-48789676D01*
X131111059Y-48794572D01*
X131157696Y-48846599D01*
X131168801Y-48915580D01*
X131140850Y-48979615D01*
X131111065Y-49005425D01*
X131103149Y-49010326D01*
X131103146Y-49010328D01*
X130951112Y-49148924D01*
X130827129Y-49313106D01*
X130735431Y-49497260D01*
X130735427Y-49497270D01*
X130692590Y-49647828D01*
X130684062Y-49677804D01*
X130679126Y-49695151D01*
X130660144Y-49900001D01*
X130679126Y-50104850D01*
X130679126Y-50104852D01*
X130679127Y-50104855D01*
X130702488Y-50186959D01*
X130735427Y-50302731D01*
X130735431Y-50302741D01*
X130809838Y-50452170D01*
X130827130Y-50486897D01*
X130885978Y-50564824D01*
X130951112Y-50651077D01*
X131103146Y-50789673D01*
X131103152Y-50789677D01*
X131111059Y-50794573D01*
X131157696Y-50846600D01*
X131168801Y-50915581D01*
X131140850Y-50979616D01*
X131111065Y-51005426D01*
X131103149Y-51010327D01*
X131103146Y-51010329D01*
X130951112Y-51148925D01*
X130827129Y-51313107D01*
X130735431Y-51497261D01*
X130735427Y-51497271D01*
X130679126Y-51695152D01*
X130660144Y-51900002D01*
X130679126Y-52104851D01*
X130679126Y-52104853D01*
X130679127Y-52104856D01*
X130694643Y-52159388D01*
X130735427Y-52302732D01*
X130735431Y-52302742D01*
X130815970Y-52464486D01*
X130827130Y-52486898D01*
X130876417Y-52552165D01*
X130951112Y-52651078D01*
X131103146Y-52789674D01*
X131103153Y-52789679D01*
X131111061Y-52794576D01*
X131157696Y-52846605D01*
X131168798Y-52915587D01*
X131140843Y-52979621D01*
X131111061Y-53005426D01*
X131103153Y-53010322D01*
X131103146Y-53010327D01*
X130951112Y-53148923D01*
X130827129Y-53313105D01*
X130735431Y-53497259D01*
X130735427Y-53497269D01*
X130679126Y-53695150D01*
X130660144Y-53900000D01*
X130679126Y-54104849D01*
X130679126Y-54104851D01*
X130679127Y-54104854D01*
X130695779Y-54163379D01*
X130735427Y-54302730D01*
X130735431Y-54302740D01*
X130822602Y-54477803D01*
X130827130Y-54486896D01*
X130827177Y-54486958D01*
X130951112Y-54651076D01*
X131103146Y-54789672D01*
X131103152Y-54789676D01*
X131111059Y-54794572D01*
X131157696Y-54846599D01*
X131168801Y-54915580D01*
X131140850Y-54979615D01*
X131111065Y-55005425D01*
X131103149Y-55010326D01*
X131103146Y-55010328D01*
X130951112Y-55148924D01*
X130827129Y-55313106D01*
X130735431Y-55497260D01*
X130735427Y-55497270D01*
X130679126Y-55695151D01*
X130660144Y-55900001D01*
X130679126Y-56104850D01*
X130679126Y-56104852D01*
X130679127Y-56104855D01*
X130687569Y-56134526D01*
X130735427Y-56302731D01*
X130735431Y-56302741D01*
X130817721Y-56468002D01*
X130827130Y-56486897D01*
X130867692Y-56540610D01*
X130951112Y-56651077D01*
X131103146Y-56789673D01*
X131103151Y-56789676D01*
X131111059Y-56794573D01*
X131157695Y-56846600D01*
X131168799Y-56915582D01*
X131140846Y-56979616D01*
X131111065Y-57005424D01*
X131103148Y-57010326D01*
X131103146Y-57010327D01*
X130951112Y-57148923D01*
X130827129Y-57313105D01*
X130735431Y-57497259D01*
X130735427Y-57497269D01*
X130704300Y-57606671D01*
X130684062Y-57677803D01*
X130679126Y-57695150D01*
X130660144Y-57900000D01*
X130679126Y-58104849D01*
X130679126Y-58104851D01*
X130679127Y-58104854D01*
X130700935Y-58181500D01*
X130735427Y-58302730D01*
X130735431Y-58302740D01*
X130813513Y-58459549D01*
X130827130Y-58486896D01*
X130875161Y-58550500D01*
X130951112Y-58651076D01*
X131103146Y-58789672D01*
X131103152Y-58789676D01*
X131111059Y-58794572D01*
X131157696Y-58846599D01*
X131168801Y-58915580D01*
X131140850Y-58979615D01*
X131111065Y-59005425D01*
X131103149Y-59010326D01*
X131103146Y-59010328D01*
X130951112Y-59148924D01*
X130827129Y-59313106D01*
X130735431Y-59497260D01*
X130735427Y-59497270D01*
X130679126Y-59695151D01*
X130660144Y-59900001D01*
X130679126Y-60104850D01*
X130679126Y-60104852D01*
X130679127Y-60104855D01*
X130692133Y-60150565D01*
X130735427Y-60302731D01*
X130735431Y-60302741D01*
X130812410Y-60457335D01*
X130827130Y-60486897D01*
X130889120Y-60568986D01*
X130951112Y-60651077D01*
X131103146Y-60789673D01*
X131103151Y-60789676D01*
X131111059Y-60794573D01*
X131157695Y-60846600D01*
X131168799Y-60915582D01*
X131140846Y-60979616D01*
X131111065Y-61005424D01*
X131103148Y-61010326D01*
X131103146Y-61010327D01*
X130951112Y-61148923D01*
X130827129Y-61313105D01*
X130735431Y-61497259D01*
X130735427Y-61497269D01*
X130679126Y-61695150D01*
X130660144Y-61900000D01*
X130679126Y-62104849D01*
X130679126Y-62104851D01*
X130679127Y-62104854D01*
X130688036Y-62136165D01*
X130735427Y-62302730D01*
X130735431Y-62302740D01*
X130824116Y-62480844D01*
X130827130Y-62486896D01*
X130865465Y-62537660D01*
X130951112Y-62651076D01*
X131103146Y-62789672D01*
X131103151Y-62789676D01*
X131278062Y-62897976D01*
X131278063Y-62897976D01*
X131278066Y-62897978D01*
X131469905Y-62972297D01*
X131672134Y-63010100D01*
X131672136Y-63010100D01*
X131877864Y-63010100D01*
X131877866Y-63010100D01*
X132080095Y-62972297D01*
X132271934Y-62897978D01*
X132446851Y-62789674D01*
X132522870Y-62720374D01*
X132598887Y-62651076D01*
X132598889Y-62651074D01*
X132722870Y-62486896D01*
X132814572Y-62302732D01*
X132870873Y-62104854D01*
X132889856Y-61900000D01*
X132870873Y-61695146D01*
X132814572Y-61497268D01*
X132722870Y-61313104D01*
X132598889Y-61148926D01*
X132598887Y-61148923D01*
X132446853Y-61010327D01*
X132446849Y-61010324D01*
X132438938Y-61005426D01*
X132392303Y-60953398D01*
X132381200Y-60884416D01*
X132409154Y-60820382D01*
X132438940Y-60794572D01*
X132446851Y-60789675D01*
X132598889Y-60651075D01*
X132722870Y-60486897D01*
X132814572Y-60302733D01*
X132870873Y-60104855D01*
X132889856Y-59900001D01*
X132870873Y-59695147D01*
X132814572Y-59497269D01*
X132809295Y-59486672D01*
X132745916Y-59359388D01*
X132722870Y-59313105D01*
X132607712Y-59160610D01*
X132598887Y-59148924D01*
X132446853Y-59010328D01*
X132438937Y-59005427D01*
X132392302Y-58953399D01*
X132381198Y-58884417D01*
X132409151Y-58820383D01*
X132438940Y-58794572D01*
X132446851Y-58789674D01*
X132548209Y-58697274D01*
X132598887Y-58651076D01*
X132598889Y-58651074D01*
X132722870Y-58486896D01*
X132814572Y-58302732D01*
X132870873Y-58104854D01*
X132889856Y-57900000D01*
X132870873Y-57695146D01*
X132814572Y-57497268D01*
X132810197Y-57488482D01*
X132753749Y-57375118D01*
X132722870Y-57313104D01*
X132598889Y-57148926D01*
X132598887Y-57148923D01*
X132446853Y-57010327D01*
X132446849Y-57010324D01*
X132438938Y-57005426D01*
X132392303Y-56953398D01*
X132381200Y-56884416D01*
X132409154Y-56820382D01*
X132438940Y-56794572D01*
X132446851Y-56789675D01*
X132579031Y-56669177D01*
X132598887Y-56651077D01*
X132601054Y-56648208D01*
X132722870Y-56486897D01*
X132814572Y-56302733D01*
X132870873Y-56104855D01*
X132889856Y-55900001D01*
X132870873Y-55695147D01*
X132814572Y-55497269D01*
X132806176Y-55480408D01*
X132734034Y-55335526D01*
X132722870Y-55313105D01*
X132600579Y-55151165D01*
X132598887Y-55148924D01*
X132446853Y-55010328D01*
X132438937Y-55005427D01*
X132392302Y-54953399D01*
X132381198Y-54884417D01*
X132409151Y-54820383D01*
X132438940Y-54794572D01*
X132446851Y-54789674D01*
X132560939Y-54685670D01*
X132598887Y-54651076D01*
X132600320Y-54649179D01*
X132722870Y-54486896D01*
X132814572Y-54302732D01*
X132870873Y-54104854D01*
X132889856Y-53900000D01*
X132870873Y-53695146D01*
X132814572Y-53497268D01*
X132809295Y-53486671D01*
X132767465Y-53402663D01*
X132722870Y-53313104D01*
X132598889Y-53148926D01*
X132598887Y-53148923D01*
X132446853Y-53010327D01*
X132446848Y-53010324D01*
X132438941Y-53005428D01*
X132392305Y-52953401D01*
X132381201Y-52884419D01*
X132409154Y-52820385D01*
X132438941Y-52794574D01*
X132441168Y-52793194D01*
X132446851Y-52789676D01*
X132569566Y-52677807D01*
X132598887Y-52651078D01*
X132624188Y-52617574D01*
X132722870Y-52486898D01*
X132814572Y-52302734D01*
X132870873Y-52104856D01*
X132889856Y-51900002D01*
X132870873Y-51695148D01*
X132814572Y-51497270D01*
X132783827Y-51435526D01*
X132756800Y-51381247D01*
X132722870Y-51313106D01*
X132598889Y-51148928D01*
X132598887Y-51148925D01*
X132446853Y-51010329D01*
X132438937Y-51005428D01*
X132392302Y-50953400D01*
X132381198Y-50884418D01*
X132409151Y-50820384D01*
X132438940Y-50794573D01*
X132446851Y-50789675D01*
X132598889Y-50651075D01*
X132722870Y-50486897D01*
X132814572Y-50302733D01*
X132870873Y-50104855D01*
X132889856Y-49900001D01*
X132870873Y-49695147D01*
X132814572Y-49497269D01*
X132814270Y-49496663D01*
X132737429Y-49342344D01*
X132722870Y-49313105D01*
X132598889Y-49148927D01*
X132598887Y-49148924D01*
X132446853Y-49010328D01*
X132438937Y-49005427D01*
X132392302Y-48953399D01*
X132381198Y-48884417D01*
X132409151Y-48820383D01*
X132438940Y-48794572D01*
X132446851Y-48789674D01*
X132598889Y-48651074D01*
X132722870Y-48486896D01*
X132814572Y-48302732D01*
X132870873Y-48104854D01*
X132889856Y-47900000D01*
X132870873Y-47695146D01*
X132814572Y-47497268D01*
X132789957Y-47447835D01*
X132749696Y-47366979D01*
X132722870Y-47313104D01*
X132629231Y-47189106D01*
X132598887Y-47148923D01*
X132446853Y-47010327D01*
X132446848Y-47010323D01*
X132271937Y-46902023D01*
X132271931Y-46902021D01*
X132246126Y-46892024D01*
X132080095Y-46827703D01*
X131877866Y-46789900D01*
X131672134Y-46789900D01*
X131469905Y-46827703D01*
X131365417Y-46868182D01*
X131278068Y-46902021D01*
X131278062Y-46902023D01*
X131103151Y-47010323D01*
X131103146Y-47010327D01*
X130951112Y-47148923D01*
X130827129Y-47313105D01*
X130735431Y-47497259D01*
X130735427Y-47497269D01*
X130679126Y-47695150D01*
X130660144Y-47900000D01*
X130349856Y-47900000D01*
X130330873Y-47695146D01*
X130274572Y-47497268D01*
X130249957Y-47447835D01*
X130209696Y-47366979D01*
X130182870Y-47313104D01*
X130089231Y-47189106D01*
X130058887Y-47148923D01*
X129906853Y-47010327D01*
X129906848Y-47010323D01*
X129731937Y-46902023D01*
X129731931Y-46902021D01*
X129706126Y-46892024D01*
X129540095Y-46827703D01*
X129337866Y-46789900D01*
X129132134Y-46789900D01*
X128929905Y-46827703D01*
X128825417Y-46868182D01*
X128738068Y-46902021D01*
X128738062Y-46902023D01*
X128563151Y-47010323D01*
X128563146Y-47010327D01*
X128411112Y-47148923D01*
X128287129Y-47313105D01*
X128195431Y-47497259D01*
X128195427Y-47497269D01*
X128139126Y-47695150D01*
X128120144Y-47900000D01*
X125869203Y-47900000D01*
X126002593Y-47840612D01*
X126147230Y-47735526D01*
X126148791Y-47733793D01*
X126183588Y-47695146D01*
X126266859Y-47602665D01*
X126356250Y-47447835D01*
X126411497Y-47277803D01*
X126430185Y-47100000D01*
X126411497Y-46922197D01*
X126376496Y-46814474D01*
X126356252Y-46752170D01*
X126356249Y-46752164D01*
X126353746Y-46747829D01*
X126302927Y-46659807D01*
X126266860Y-46597336D01*
X126266855Y-46597329D01*
X126208950Y-46533019D01*
X126178720Y-46470027D01*
X126177100Y-46450047D01*
X126177100Y-44898351D01*
X126196785Y-44831312D01*
X126208950Y-44815379D01*
X126266859Y-44751065D01*
X126356250Y-44596235D01*
X126411497Y-44426203D01*
X126430185Y-44248400D01*
X126411497Y-44070597D01*
X126356250Y-43900565D01*
X126266859Y-43745735D01*
X126205696Y-43677807D01*
X126147235Y-43612878D01*
X126147232Y-43612876D01*
X126147231Y-43612875D01*
X126147230Y-43612874D01*
X126002593Y-43507788D01*
X125839267Y-43435071D01*
X125839265Y-43435070D01*
X125711594Y-43407933D01*
X125664391Y-43397900D01*
X125485609Y-43397900D01*
X125454954Y-43404415D01*
X125310733Y-43435070D01*
X125310728Y-43435072D01*
X125147408Y-43507788D01*
X125147403Y-43507790D01*
X125047885Y-43580095D01*
X124982079Y-43603575D01*
X124914025Y-43587749D01*
X124902114Y-43580095D01*
X124802593Y-43507788D01*
X124639267Y-43435071D01*
X124639265Y-43435070D01*
X124511594Y-43407933D01*
X124464391Y-43397900D01*
X124285609Y-43397900D01*
X124254954Y-43404415D01*
X124110733Y-43435070D01*
X124110728Y-43435072D01*
X123947408Y-43507788D01*
X123941775Y-43511040D01*
X123941097Y-43509865D01*
X123882064Y-43530921D01*
X123814012Y-43515087D01*
X123803207Y-43508142D01*
X123802597Y-43507790D01*
X123802593Y-43507788D01*
X123639267Y-43435071D01*
X123639265Y-43435070D01*
X123511594Y-43407933D01*
X123464391Y-43397900D01*
X123285609Y-43397900D01*
X123254954Y-43404415D01*
X123110733Y-43435070D01*
X123110728Y-43435072D01*
X122947408Y-43507787D01*
X122802768Y-43612875D01*
X122683140Y-43745736D01*
X122593750Y-43900564D01*
X122593746Y-43900574D01*
X122583557Y-43931932D01*
X122544119Y-43989607D01*
X122479760Y-44016804D01*
X122410914Y-44004889D01*
X122359439Y-43957644D01*
X122358240Y-43955612D01*
X122326464Y-43900574D01*
X122266859Y-43797335D01*
X122220003Y-43745296D01*
X122147235Y-43664478D01*
X122147232Y-43664476D01*
X122147231Y-43664475D01*
X122147230Y-43664474D01*
X122002593Y-43559388D01*
X121839267Y-43486671D01*
X121839265Y-43486670D01*
X121711594Y-43459533D01*
X121664391Y-43449500D01*
X121485609Y-43449500D01*
X121454954Y-43456015D01*
X121310733Y-43486670D01*
X121310728Y-43486672D01*
X121147408Y-43559387D01*
X121002768Y-43664475D01*
X120883140Y-43797336D01*
X120793750Y-43952164D01*
X120793747Y-43952170D01*
X120738504Y-44122192D01*
X120738503Y-44122194D01*
X120719815Y-44300000D01*
X120738503Y-44477805D01*
X120738504Y-44477807D01*
X120793747Y-44647829D01*
X120793750Y-44647835D01*
X120805310Y-44667857D01*
X120821783Y-44735757D01*
X120798930Y-44801784D01*
X120744009Y-44844975D01*
X120674456Y-44851616D01*
X120672167Y-44851152D01*
X120664391Y-44849500D01*
X120485609Y-44849500D01*
X120454954Y-44856015D01*
X120310733Y-44886670D01*
X120310728Y-44886672D01*
X120147408Y-44959387D01*
X120002768Y-45064475D01*
X119883140Y-45197336D01*
X119793750Y-45352164D01*
X119793747Y-45352170D01*
X119738504Y-45522192D01*
X119738503Y-45522194D01*
X119719815Y-45700000D01*
X119738503Y-45877805D01*
X119738504Y-45877807D01*
X119793747Y-46047829D01*
X119793750Y-46047835D01*
X119883141Y-46202665D01*
X119924812Y-46248946D01*
X120002764Y-46335521D01*
X120002767Y-46335523D01*
X120002770Y-46335526D01*
X120065979Y-46381450D01*
X120108643Y-46436779D01*
X120114622Y-46506393D01*
X120082016Y-46568187D01*
X120021177Y-46602545D01*
X120018873Y-46603057D01*
X119860733Y-46636670D01*
X119860728Y-46636672D01*
X119697408Y-46709388D01*
X119697404Y-46709390D01*
X119635316Y-46754499D01*
X119569510Y-46777978D01*
X119501456Y-46762152D01*
X119470282Y-46737152D01*
X119424930Y-46686783D01*
X119424927Y-46686781D01*
X119424926Y-46686780D01*
X119424925Y-46686779D01*
X119280288Y-46581693D01*
X119116962Y-46508976D01*
X119116960Y-46508975D01*
X118989289Y-46481838D01*
X118942086Y-46471805D01*
X118763304Y-46471805D01*
X118732649Y-46478320D01*
X118588428Y-46508975D01*
X118588423Y-46508977D01*
X118425103Y-46581692D01*
X118280463Y-46686780D01*
X118160835Y-46819641D01*
X118071445Y-46974469D01*
X118071442Y-46974475D01*
X118016199Y-47144497D01*
X118016198Y-47144499D01*
X117997510Y-47322305D01*
X111717329Y-47322305D01*
X111720785Y-47289422D01*
X111747369Y-47224810D01*
X111793668Y-47189108D01*
X111902593Y-47140612D01*
X112047230Y-47035526D01*
X112166859Y-46902665D01*
X112256250Y-46747835D01*
X112311497Y-46577803D01*
X112330185Y-46400000D01*
X112311497Y-46222197D01*
X112281302Y-46129267D01*
X112256252Y-46052170D01*
X112256249Y-46052164D01*
X112255488Y-46050846D01*
X112166859Y-45897335D01*
X112115433Y-45840221D01*
X112047235Y-45764478D01*
X112047232Y-45764476D01*
X112047231Y-45764475D01*
X112047230Y-45764474D01*
X111902593Y-45659388D01*
X111739267Y-45586671D01*
X111739265Y-45586670D01*
X111587914Y-45554500D01*
X111564391Y-45549500D01*
X111385609Y-45549500D01*
X111362086Y-45554500D01*
X111210733Y-45586670D01*
X111210728Y-45586672D01*
X111047408Y-45659387D01*
X110902768Y-45764475D01*
X110783140Y-45897336D01*
X110693750Y-46052164D01*
X110693747Y-46052170D01*
X110638504Y-46222192D01*
X110638502Y-46222203D01*
X110629212Y-46310577D01*
X110602627Y-46375191D01*
X110556329Y-46410892D01*
X110447406Y-46459388D01*
X110302768Y-46564475D01*
X110183140Y-46697336D01*
X110093750Y-46852164D01*
X110093748Y-46852168D01*
X110073495Y-46914502D01*
X110034057Y-46972177D01*
X109969698Y-46999375D01*
X109900852Y-46987460D01*
X109849376Y-46940216D01*
X109848177Y-46938182D01*
X109766862Y-46797339D01*
X109766860Y-46797336D01*
X109647235Y-46664478D01*
X109647226Y-46664471D01*
X109541578Y-46587711D01*
X109498912Y-46532381D01*
X109492934Y-46462767D01*
X109525541Y-46400973D01*
X109526707Y-46399789D01*
X110639679Y-45286819D01*
X110701002Y-45253334D01*
X110727360Y-45250500D01*
X110764389Y-45250500D01*
X110764391Y-45250500D01*
X110939267Y-45213329D01*
X111102593Y-45140612D01*
X111247230Y-45035526D01*
X111366859Y-44902665D01*
X111456250Y-44747835D01*
X111511497Y-44577803D01*
X111530185Y-44400000D01*
X111511497Y-44222197D01*
X111462238Y-44070594D01*
X111456252Y-44052170D01*
X111456249Y-44052164D01*
X111427670Y-44002663D01*
X111366859Y-43897335D01*
X111320003Y-43845296D01*
X111247235Y-43764478D01*
X111247232Y-43764476D01*
X111247231Y-43764475D01*
X111247230Y-43764474D01*
X111102593Y-43659388D01*
X110939267Y-43586671D01*
X110939265Y-43586670D01*
X110810906Y-43559387D01*
X110764391Y-43549500D01*
X110585609Y-43549500D01*
X110554954Y-43556015D01*
X110410733Y-43586670D01*
X110410728Y-43586672D01*
X110247408Y-43659387D01*
X110102768Y-43764475D01*
X109983140Y-43897336D01*
X109893750Y-44052164D01*
X109893747Y-44052170D01*
X109838504Y-44222192D01*
X109838503Y-44222195D01*
X109823972Y-44360449D01*
X109797387Y-44425064D01*
X109788332Y-44435168D01*
X108788781Y-45434720D01*
X108727458Y-45468205D01*
X108657766Y-45463221D01*
X108601833Y-45421349D01*
X108577416Y-45355885D01*
X108577100Y-45347039D01*
X108577100Y-42282474D01*
X116197753Y-42282474D01*
X116216441Y-42460279D01*
X116216442Y-42460281D01*
X116271685Y-42630303D01*
X116271688Y-42630309D01*
X116361079Y-42785139D01*
X116402750Y-42831420D01*
X116480702Y-42917995D01*
X116480705Y-42917997D01*
X116480708Y-42918000D01*
X116625345Y-43023086D01*
X116788671Y-43095803D01*
X116963547Y-43132974D01*
X116963548Y-43132974D01*
X117142327Y-43132974D01*
X117142329Y-43132974D01*
X117317205Y-43095803D01*
X117480531Y-43023086D01*
X117625168Y-42918000D01*
X117641376Y-42900000D01*
X117651086Y-42889215D01*
X117744797Y-42785139D01*
X117834188Y-42630309D01*
X117889435Y-42460277D01*
X117908123Y-42282474D01*
X117889435Y-42104671D01*
X117834188Y-41934639D01*
X117744797Y-41779809D01*
X117675336Y-41702665D01*
X117625173Y-41646952D01*
X117625170Y-41646950D01*
X117625169Y-41646949D01*
X117625168Y-41646948D01*
X117480531Y-41541862D01*
X117317205Y-41469145D01*
X117317203Y-41469144D01*
X117189532Y-41442007D01*
X117142329Y-41431974D01*
X116963547Y-41431974D01*
X116932892Y-41438489D01*
X116788671Y-41469144D01*
X116788666Y-41469146D01*
X116625346Y-41541861D01*
X116480706Y-41646949D01*
X116361078Y-41779810D01*
X116271688Y-41934638D01*
X116271685Y-41934644D01*
X116216442Y-42104666D01*
X116216441Y-42104668D01*
X116197753Y-42282474D01*
X108577100Y-42282474D01*
X108577100Y-39900000D01*
X109919815Y-39900000D01*
X109938503Y-40077805D01*
X109938504Y-40077807D01*
X109993747Y-40247829D01*
X109993750Y-40247835D01*
X110083141Y-40402665D01*
X110114350Y-40437326D01*
X110202764Y-40535521D01*
X110202767Y-40535523D01*
X110202770Y-40535526D01*
X110347407Y-40640612D01*
X110510733Y-40713329D01*
X110685609Y-40750500D01*
X110685610Y-40750500D01*
X110864389Y-40750500D01*
X110864391Y-40750500D01*
X111039267Y-40713329D01*
X111202593Y-40640612D01*
X111347230Y-40535526D01*
X111466859Y-40402665D01*
X111556250Y-40247835D01*
X111611497Y-40077803D01*
X111630185Y-39900000D01*
X111611497Y-39722197D01*
X111556250Y-39552165D01*
X111466859Y-39397335D01*
X111420003Y-39345296D01*
X111347235Y-39264478D01*
X111347232Y-39264476D01*
X111347231Y-39264475D01*
X111347230Y-39264474D01*
X111202593Y-39159388D01*
X111039267Y-39086671D01*
X111039265Y-39086670D01*
X110911594Y-39059533D01*
X110864391Y-39049500D01*
X110685609Y-39049500D01*
X110654954Y-39056015D01*
X110510733Y-39086670D01*
X110510728Y-39086672D01*
X110347408Y-39159387D01*
X110202768Y-39264475D01*
X110083140Y-39397336D01*
X109993750Y-39552164D01*
X109993747Y-39552170D01*
X109938504Y-39722192D01*
X109938503Y-39722194D01*
X109919815Y-39900000D01*
X108577100Y-39900000D01*
X108577100Y-39820733D01*
X108577100Y-39820732D01*
X108536067Y-39667598D01*
X108456800Y-39530302D01*
X108344698Y-39418200D01*
X107744698Y-38818200D01*
X107607402Y-38738933D01*
X107607403Y-38738933D01*
X107552389Y-38724192D01*
X107454268Y-38697900D01*
X107454266Y-38697900D01*
X107431953Y-38697900D01*
X107364914Y-38678215D01*
X107348986Y-38666055D01*
X107347232Y-38664476D01*
X107347231Y-38664475D01*
X107347230Y-38664474D01*
X107202593Y-38559388D01*
X107039267Y-38486671D01*
X107039265Y-38486670D01*
X106911594Y-38459533D01*
X106864391Y-38449500D01*
X106685609Y-38449500D01*
X106654954Y-38456015D01*
X106510733Y-38486670D01*
X106510728Y-38486672D01*
X106347408Y-38559387D01*
X106202768Y-38664475D01*
X106083140Y-38797336D01*
X105993750Y-38952164D01*
X105993747Y-38952170D01*
X105938504Y-39122192D01*
X105938503Y-39122194D01*
X105919815Y-39300000D01*
X105938503Y-39477805D01*
X105938504Y-39477807D01*
X105993747Y-39647829D01*
X105993750Y-39647835D01*
X106083140Y-39802664D01*
X106096074Y-39817029D01*
X106126303Y-39880021D01*
X106117677Y-39949356D01*
X106096074Y-39982971D01*
X106083140Y-39997335D01*
X105993750Y-40152164D01*
X105993747Y-40152170D01*
X105938504Y-40322192D01*
X105938503Y-40322194D01*
X105919815Y-40500000D01*
X105938503Y-40677805D01*
X105938504Y-40677807D01*
X105993747Y-40847829D01*
X105993750Y-40847835D01*
X106083140Y-41002664D01*
X106096074Y-41017029D01*
X106126303Y-41080021D01*
X106117677Y-41149356D01*
X106096074Y-41182971D01*
X106083140Y-41197335D01*
X105993750Y-41352164D01*
X105993747Y-41352170D01*
X105938504Y-41522192D01*
X105938503Y-41522194D01*
X105919815Y-41700000D01*
X105938503Y-41877805D01*
X105938504Y-41877807D01*
X105993747Y-42047829D01*
X105993750Y-42047835D01*
X106083140Y-42202664D01*
X106096074Y-42217029D01*
X106126303Y-42280021D01*
X106117677Y-42349356D01*
X106096074Y-42382971D01*
X106083140Y-42397335D01*
X105993750Y-42552164D01*
X105993747Y-42552170D01*
X105938504Y-42722192D01*
X105938503Y-42722194D01*
X105919815Y-42900000D01*
X105938503Y-43077805D01*
X105938504Y-43077807D01*
X105993750Y-43247836D01*
X106032328Y-43314656D01*
X106048801Y-43382557D01*
X106025948Y-43448584D01*
X106017093Y-43459626D01*
X105983142Y-43497333D01*
X105983138Y-43497338D01*
X105893750Y-43652164D01*
X105893747Y-43652170D01*
X105838504Y-43822192D01*
X105838503Y-43822194D01*
X105819815Y-44000000D01*
X105838503Y-44177805D01*
X105838504Y-44177807D01*
X105893750Y-44347836D01*
X105945806Y-44438000D01*
X105962279Y-44505900D01*
X105945806Y-44562000D01*
X105893750Y-44652163D01*
X105838504Y-44822192D01*
X105838503Y-44822194D01*
X105819815Y-45000000D01*
X105838503Y-45177805D01*
X105838504Y-45177807D01*
X105893747Y-45347829D01*
X105893750Y-45347835D01*
X105983141Y-45502665D01*
X106018669Y-45542123D01*
X106102764Y-45635521D01*
X106102767Y-45635523D01*
X106102770Y-45635526D01*
X106247407Y-45740612D01*
X106410733Y-45813329D01*
X106585609Y-45850500D01*
X106585610Y-45850500D01*
X106673639Y-45850500D01*
X106740678Y-45870185D01*
X106786433Y-45922989D01*
X106796377Y-45992147D01*
X106767352Y-46055703D01*
X106761320Y-46062181D01*
X106454949Y-46368552D01*
X106393626Y-46402037D01*
X106337594Y-46401268D01*
X106228986Y-46374500D01*
X106228985Y-46374500D01*
X106071015Y-46374500D01*
X106071014Y-46374500D01*
X105917634Y-46412303D01*
X105777762Y-46485715D01*
X105724759Y-46532671D01*
X105662870Y-46587500D01*
X105659516Y-46590471D01*
X105569781Y-46720475D01*
X105569780Y-46720476D01*
X105513762Y-46868181D01*
X105494722Y-47024999D01*
X105494722Y-47025000D01*
X105513762Y-47181818D01*
X105551000Y-47280004D01*
X105569780Y-47329523D01*
X105659517Y-47459530D01*
X105777760Y-47564283D01*
X105777761Y-47564283D01*
X105783252Y-47569148D01*
X105820379Y-47628338D01*
X105819611Y-47698203D01*
X105781194Y-47756563D01*
X105726808Y-47783254D01*
X105710730Y-47786671D01*
X105710728Y-47786672D01*
X105547408Y-47859387D01*
X105402767Y-47964476D01*
X105401022Y-47966048D01*
X105399791Y-47966638D01*
X105397513Y-47968294D01*
X105397210Y-47967877D01*
X105338031Y-47996279D01*
X105318048Y-47997900D01*
X105036541Y-47997900D01*
X104969502Y-47978215D01*
X104923747Y-47925411D01*
X104913803Y-47856253D01*
X104934491Y-47803460D01*
X104935041Y-47802663D01*
X104942522Y-47791825D01*
X104998539Y-47644120D01*
X105017580Y-47487302D01*
X104999438Y-47337883D01*
X104998539Y-47330483D01*
X104973702Y-47264994D01*
X104942522Y-47182779D01*
X104852785Y-47052772D01*
X104734542Y-46948019D01*
X104734540Y-46948018D01*
X104734539Y-46948017D01*
X104594667Y-46874605D01*
X104441288Y-46836802D01*
X104441287Y-46836802D01*
X104283317Y-46836802D01*
X104283316Y-46836802D01*
X104129936Y-46874605D01*
X103990064Y-46948017D01*
X103871819Y-47052771D01*
X103796034Y-47162565D01*
X103741750Y-47206555D01*
X103672302Y-47214214D01*
X103609737Y-47183110D01*
X103606303Y-47179805D01*
X103032955Y-46606457D01*
X102999470Y-46545134D01*
X102997317Y-46531754D01*
X102982785Y-46393485D01*
X102927538Y-46223453D01*
X102838147Y-46068623D01*
X102772140Y-45995315D01*
X102718523Y-45935766D01*
X102718520Y-45935764D01*
X102718519Y-45935763D01*
X102718518Y-45935762D01*
X102573881Y-45830676D01*
X102410555Y-45757959D01*
X102410553Y-45757958D01*
X102282882Y-45730821D01*
X102235679Y-45720788D01*
X102056897Y-45720788D01*
X102026242Y-45727303D01*
X101882021Y-45757958D01*
X101882016Y-45757960D01*
X101718696Y-45830675D01*
X101653826Y-45877807D01*
X101574058Y-45935762D01*
X101574056Y-45935763D01*
X101568801Y-45939582D01*
X101568026Y-45938516D01*
X101511395Y-45965690D01*
X101442060Y-45957061D01*
X101418540Y-45943629D01*
X101302593Y-45859388D01*
X101139267Y-45786671D01*
X101139265Y-45786670D01*
X101004192Y-45757960D01*
X100964391Y-45749500D01*
X100785609Y-45749500D01*
X100754954Y-45756015D01*
X100610733Y-45786670D01*
X100610728Y-45786672D01*
X100447408Y-45859388D01*
X100447403Y-45859390D01*
X100297885Y-45968022D01*
X100232079Y-45991502D01*
X100164025Y-45975676D01*
X100152114Y-45968022D01*
X100027944Y-45877807D01*
X100002593Y-45859388D01*
X99839267Y-45786671D01*
X99839265Y-45786670D01*
X99704192Y-45757960D01*
X99664391Y-45749500D01*
X99485609Y-45749500D01*
X99454954Y-45756015D01*
X99310733Y-45786670D01*
X99310728Y-45786672D01*
X99147408Y-45859388D01*
X99147403Y-45859390D01*
X99073985Y-45912732D01*
X99008179Y-45936212D01*
X98940125Y-45920386D01*
X98891430Y-45870280D01*
X98877100Y-45812414D01*
X98877100Y-42249951D01*
X98896785Y-42182912D01*
X98908950Y-42166979D01*
X98966859Y-42102665D01*
X99056250Y-41947835D01*
X99111497Y-41777803D01*
X99130185Y-41600000D01*
X99111497Y-41422197D01*
X99056250Y-41252165D01*
X98966859Y-41097335D01*
X98920003Y-41045296D01*
X98847235Y-40964478D01*
X98847232Y-40964476D01*
X98847231Y-40964475D01*
X98847230Y-40964474D01*
X98702593Y-40859388D01*
X98539267Y-40786671D01*
X98539265Y-40786670D01*
X98411594Y-40759533D01*
X98364391Y-40749500D01*
X98185609Y-40749500D01*
X98154954Y-40756015D01*
X98010733Y-40786670D01*
X98010728Y-40786672D01*
X97847408Y-40859387D01*
X97702768Y-40964475D01*
X97583140Y-41097336D01*
X97493750Y-41252164D01*
X97493747Y-41252170D01*
X97438504Y-41422192D01*
X97438503Y-41422194D01*
X97419815Y-41600000D01*
X97438503Y-41777805D01*
X97438504Y-41777807D01*
X97493747Y-41947829D01*
X97493750Y-41947835D01*
X97583141Y-42102665D01*
X97641050Y-42166979D01*
X97671280Y-42229970D01*
X97672900Y-42249951D01*
X97672900Y-45477738D01*
X97653215Y-45544777D01*
X97636581Y-45565419D01*
X97374415Y-45827584D01*
X97313092Y-45861069D01*
X97243400Y-45856085D01*
X97213851Y-45840222D01*
X97102593Y-45759388D01*
X96939267Y-45686671D01*
X96939265Y-45686670D01*
X96810906Y-45659387D01*
X96764391Y-45649500D01*
X96585609Y-45649500D01*
X96554954Y-45656015D01*
X96410733Y-45686670D01*
X96410728Y-45686672D01*
X96247408Y-45759388D01*
X96247404Y-45759390D01*
X96202956Y-45791683D01*
X96137149Y-45815162D01*
X96079639Y-45804645D01*
X96039265Y-45786670D01*
X95904192Y-45757960D01*
X95864391Y-45749500D01*
X95685609Y-45749500D01*
X95654954Y-45756015D01*
X95510733Y-45786670D01*
X95510728Y-45786672D01*
X95347408Y-45859387D01*
X95202768Y-45964475D01*
X95201993Y-45965337D01*
X95201418Y-45965690D01*
X95197941Y-45968822D01*
X95197368Y-45968185D01*
X95142504Y-46001982D01*
X95072648Y-46000649D01*
X95059413Y-45995640D01*
X95039270Y-45986672D01*
X95039265Y-45986670D01*
X94899963Y-45957061D01*
X94864391Y-45949500D01*
X94685609Y-45949500D01*
X94654954Y-45956015D01*
X94510733Y-45986670D01*
X94510728Y-45986672D01*
X94347408Y-46059388D01*
X94347400Y-46059392D01*
X94331792Y-46070732D01*
X94265985Y-46094210D01*
X94197932Y-46078383D01*
X94176686Y-46063230D01*
X94159740Y-46048217D01*
X94159738Y-46048216D01*
X94159737Y-46048215D01*
X94019865Y-45974803D01*
X93866486Y-45937000D01*
X93866485Y-45937000D01*
X93708515Y-45937000D01*
X93708514Y-45937000D01*
X93555134Y-45974803D01*
X93415262Y-46048215D01*
X93297016Y-46152971D01*
X93207281Y-46282975D01*
X93207280Y-46282976D01*
X93150441Y-46432848D01*
X93108263Y-46488551D01*
X93042665Y-46512608D01*
X92974475Y-46497381D01*
X92925342Y-46447705D01*
X92910499Y-46388877D01*
X92910499Y-43500000D01*
X95619815Y-43500000D01*
X95638503Y-43677805D01*
X95638504Y-43677807D01*
X95693747Y-43847829D01*
X95693750Y-43847835D01*
X95783141Y-44002665D01*
X95785144Y-44004889D01*
X95902764Y-44135521D01*
X95902767Y-44135523D01*
X95902770Y-44135526D01*
X96047407Y-44240612D01*
X96210733Y-44313329D01*
X96385609Y-44350500D01*
X96385610Y-44350500D01*
X96564389Y-44350500D01*
X96564391Y-44350500D01*
X96739267Y-44313329D01*
X96902593Y-44240612D01*
X97047230Y-44135526D01*
X97047337Y-44135408D01*
X97073148Y-44106741D01*
X97166859Y-44002665D01*
X97256250Y-43847835D01*
X97311497Y-43677803D01*
X97330185Y-43500000D01*
X97311497Y-43322197D01*
X97256250Y-43152165D01*
X97166859Y-42997335D01*
X97120003Y-42945296D01*
X97047235Y-42864478D01*
X97047232Y-42864476D01*
X97047231Y-42864475D01*
X97047230Y-42864474D01*
X96902593Y-42759388D01*
X96739267Y-42686671D01*
X96739265Y-42686670D01*
X96611594Y-42659533D01*
X96564391Y-42649500D01*
X96385609Y-42649500D01*
X96354954Y-42656015D01*
X96210733Y-42686670D01*
X96210728Y-42686672D01*
X96047408Y-42759387D01*
X95902768Y-42864475D01*
X95783140Y-42997336D01*
X95693750Y-43152164D01*
X95693747Y-43152170D01*
X95638504Y-43322192D01*
X95638503Y-43322194D01*
X95619815Y-43500000D01*
X92910499Y-43500000D01*
X92910499Y-41200000D01*
X94619815Y-41200000D01*
X94638503Y-41377805D01*
X94638504Y-41377807D01*
X94693747Y-41547829D01*
X94693750Y-41547835D01*
X94783141Y-41702665D01*
X94824812Y-41748946D01*
X94902764Y-41835521D01*
X94902767Y-41835523D01*
X94902770Y-41835526D01*
X95047407Y-41940612D01*
X95210733Y-42013329D01*
X95385609Y-42050500D01*
X95385610Y-42050500D01*
X95564389Y-42050500D01*
X95564391Y-42050500D01*
X95739267Y-42013329D01*
X95902593Y-41940612D01*
X96047230Y-41835526D01*
X96049768Y-41832708D01*
X96097398Y-41779809D01*
X96166859Y-41702665D01*
X96256250Y-41547835D01*
X96311497Y-41377803D01*
X96330185Y-41200000D01*
X96311497Y-41022197D01*
X96258796Y-40860001D01*
X96256252Y-40852170D01*
X96256249Y-40852164D01*
X96253750Y-40847835D01*
X96166859Y-40697335D01*
X96115783Y-40640610D01*
X96047235Y-40564478D01*
X96047232Y-40564476D01*
X96047231Y-40564475D01*
X96047230Y-40564474D01*
X95902593Y-40459388D01*
X95739267Y-40386671D01*
X95739265Y-40386670D01*
X95611594Y-40359533D01*
X95564391Y-40349500D01*
X95385609Y-40349500D01*
X95354954Y-40356015D01*
X95210733Y-40386670D01*
X95210728Y-40386672D01*
X95047408Y-40459387D01*
X94902768Y-40564475D01*
X94783140Y-40697336D01*
X94693750Y-40852164D01*
X94693747Y-40852170D01*
X94638504Y-41022192D01*
X94638503Y-41022194D01*
X94619815Y-41200000D01*
X92910499Y-41200000D01*
X92910499Y-34674922D01*
X92930184Y-34607883D01*
X92969222Y-34569495D01*
X92972159Y-34567676D01*
X93018681Y-34538871D01*
X93179416Y-34392343D01*
X93209444Y-34352578D01*
X93265552Y-34310942D01*
X93335264Y-34306249D01*
X93396446Y-34339991D01*
X93407353Y-34352577D01*
X93437383Y-34392343D01*
X93598118Y-34538871D01*
X93783040Y-34653371D01*
X93985853Y-34731941D01*
X94199650Y-34771906D01*
X94199653Y-34771906D01*
X94417147Y-34771906D01*
X94417150Y-34771906D01*
X94630947Y-34731941D01*
X94833760Y-34653371D01*
X95018682Y-34538871D01*
X95179417Y-34392343D01*
X95209445Y-34352578D01*
X95265553Y-34310942D01*
X95335265Y-34306250D01*
X95396447Y-34339992D01*
X95407351Y-34352577D01*
X95437381Y-34392343D01*
X95598116Y-34538871D01*
X95783038Y-34653371D01*
X95985851Y-34731941D01*
X96199648Y-34771906D01*
X96199651Y-34771906D01*
X96417145Y-34771906D01*
X96417148Y-34771906D01*
X96630945Y-34731941D01*
X96833758Y-34653371D01*
X97018680Y-34538871D01*
X97179415Y-34392343D01*
X97209445Y-34352575D01*
X97265553Y-34310941D01*
X97335265Y-34306248D01*
X97396447Y-34339990D01*
X97407347Y-34352569D01*
X97437383Y-34392343D01*
X97598118Y-34538871D01*
X97783040Y-34653371D01*
X97985853Y-34731941D01*
X98199650Y-34771906D01*
X98199653Y-34771906D01*
X98417147Y-34771906D01*
X98417150Y-34771906D01*
X98630947Y-34731941D01*
X98833760Y-34653371D01*
X99018682Y-34538871D01*
X99179417Y-34392343D01*
X99209445Y-34352578D01*
X99265553Y-34310942D01*
X99335265Y-34306250D01*
X99396447Y-34339992D01*
X99407351Y-34352577D01*
X99437381Y-34392343D01*
X99598116Y-34538871D01*
X99783038Y-34653371D01*
X99985851Y-34731941D01*
X100199648Y-34771906D01*
X100199651Y-34771906D01*
X100417145Y-34771906D01*
X100417148Y-34771906D01*
X100630945Y-34731941D01*
X100833758Y-34653371D01*
X101018680Y-34538871D01*
X101179415Y-34392343D01*
X101209443Y-34352578D01*
X101265551Y-34310942D01*
X101335263Y-34306249D01*
X101396445Y-34339991D01*
X101407352Y-34352577D01*
X101437382Y-34392343D01*
X101598117Y-34538871D01*
X101783039Y-34653371D01*
X101985852Y-34731941D01*
X102199649Y-34771906D01*
X102199652Y-34771906D01*
X102417146Y-34771906D01*
X102417149Y-34771906D01*
X102630946Y-34731941D01*
X102833759Y-34653371D01*
X103018681Y-34538871D01*
X103179416Y-34392343D01*
X103209444Y-34352578D01*
X103265552Y-34310942D01*
X103335264Y-34306249D01*
X103396446Y-34339991D01*
X103407353Y-34352577D01*
X103437383Y-34392343D01*
X103598118Y-34538871D01*
X103783040Y-34653371D01*
X103985853Y-34731941D01*
X104199650Y-34771906D01*
X104199653Y-34771906D01*
X104417147Y-34771906D01*
X104417150Y-34771906D01*
X104630947Y-34731941D01*
X104833760Y-34653371D01*
X105018682Y-34538871D01*
X105179417Y-34392343D01*
X105209446Y-34352577D01*
X105265551Y-34310943D01*
X105335263Y-34306250D01*
X105396445Y-34339991D01*
X105407351Y-34352577D01*
X105431515Y-34384574D01*
X105437382Y-34392343D01*
X105598117Y-34538871D01*
X105783039Y-34653371D01*
X105985852Y-34731941D01*
X106199649Y-34771906D01*
X106199652Y-34771906D01*
X106417146Y-34771906D01*
X106417149Y-34771906D01*
X106630946Y-34731941D01*
X106833759Y-34653371D01*
X107018681Y-34538871D01*
X107179416Y-34392343D01*
X107209444Y-34352578D01*
X107265552Y-34310942D01*
X107335264Y-34306249D01*
X107396446Y-34339991D01*
X107407353Y-34352577D01*
X107437383Y-34392343D01*
X107598118Y-34538871D01*
X107783040Y-34653371D01*
X107985853Y-34731941D01*
X108199650Y-34771906D01*
X108199653Y-34771906D01*
X108417147Y-34771906D01*
X108417150Y-34771906D01*
X108630947Y-34731941D01*
X108833760Y-34653371D01*
X109018682Y-34538871D01*
X109179417Y-34392343D01*
X109209445Y-34352578D01*
X109265553Y-34310942D01*
X109335265Y-34306250D01*
X109396447Y-34339992D01*
X109407351Y-34352577D01*
X109437381Y-34392343D01*
X109598116Y-34538871D01*
X109783038Y-34653371D01*
X109985851Y-34731941D01*
X110199648Y-34771906D01*
X110199651Y-34771906D01*
X110417145Y-34771906D01*
X110417148Y-34771906D01*
X110630945Y-34731941D01*
X110833758Y-34653371D01*
X111018680Y-34538871D01*
X111179415Y-34392343D01*
X111209443Y-34352578D01*
X111265551Y-34310942D01*
X111335263Y-34306249D01*
X111396445Y-34339991D01*
X111407352Y-34352577D01*
X111437382Y-34392343D01*
X111598117Y-34538871D01*
X111783039Y-34653371D01*
X111985852Y-34731941D01*
X112199649Y-34771906D01*
X112199652Y-34771906D01*
X112417146Y-34771906D01*
X112417149Y-34771906D01*
X112630946Y-34731941D01*
X112833759Y-34653371D01*
X113018681Y-34538871D01*
X113179416Y-34392343D01*
X113209445Y-34352577D01*
X113265550Y-34310943D01*
X113335262Y-34306250D01*
X113396444Y-34339991D01*
X113407350Y-34352577D01*
X113431514Y-34384574D01*
X113437381Y-34392343D01*
X113598116Y-34538871D01*
X113783038Y-34653371D01*
X113985851Y-34731941D01*
X114199648Y-34771906D01*
X114199651Y-34771906D01*
X114417145Y-34771906D01*
X114417148Y-34771906D01*
X114630945Y-34731941D01*
X114833758Y-34653371D01*
X115018680Y-34538871D01*
X115179415Y-34392343D01*
X115310488Y-34218774D01*
X115407436Y-34024076D01*
X115407436Y-34024073D01*
X115407438Y-34024071D01*
X115466957Y-33814880D01*
X115466958Y-33814877D01*
X115487026Y-33598306D01*
X115487026Y-33598305D01*
X115466958Y-33381734D01*
X115466957Y-33381731D01*
X115462390Y-33365681D01*
X115451980Y-33329091D01*
X115407438Y-33172540D01*
X115407435Y-33172534D01*
X115380210Y-33117859D01*
X115310488Y-32977838D01*
X115251707Y-32899999D01*
X122520426Y-32899999D01*
X122520426Y-32900000D01*
X122539485Y-33117849D01*
X122539487Y-33117859D01*
X122596083Y-33329082D01*
X122596085Y-33329086D01*
X122596086Y-33329090D01*
X122626960Y-33395300D01*
X122688506Y-33527286D01*
X122688507Y-33527287D01*
X122813941Y-33706425D01*
X122968575Y-33861059D01*
X123147713Y-33986493D01*
X123345910Y-34078914D01*
X123557146Y-34135514D01*
X123731429Y-34150762D01*
X123774999Y-34154574D01*
X123775000Y-34154574D01*
X123775001Y-34154574D01*
X123811309Y-34151397D01*
X123992854Y-34135514D01*
X124204090Y-34078914D01*
X124402287Y-33986493D01*
X124581425Y-33861059D01*
X124736059Y-33706425D01*
X124861493Y-33527287D01*
X124912618Y-33417648D01*
X124958790Y-33365209D01*
X125025984Y-33346057D01*
X125092865Y-33366273D01*
X125137381Y-33417648D01*
X125188507Y-33527287D01*
X125313941Y-33706425D01*
X125468575Y-33861059D01*
X125647713Y-33986493D01*
X125845910Y-34078914D01*
X126057146Y-34135514D01*
X126231429Y-34150762D01*
X126274999Y-34154574D01*
X126275000Y-34154574D01*
X126275001Y-34154574D01*
X126311309Y-34151397D01*
X126492854Y-34135514D01*
X126704090Y-34078914D01*
X126902287Y-33986493D01*
X127081425Y-33861059D01*
X127236059Y-33706425D01*
X127361493Y-33527287D01*
X127412894Y-33417056D01*
X127459066Y-33364617D01*
X127526259Y-33345465D01*
X127593141Y-33365681D01*
X127637658Y-33417057D01*
X127688942Y-33527036D01*
X127688943Y-33527038D01*
X127732376Y-33589068D01*
X127732377Y-33589069D01*
X128295874Y-33025572D01*
X128313454Y-33091179D01*
X128378661Y-33204121D01*
X128470879Y-33296339D01*
X128583821Y-33361546D01*
X128649427Y-33379125D01*
X128085929Y-33942621D01*
X128085930Y-33942622D01*
X128147960Y-33986055D01*
X128346080Y-34078440D01*
X128346089Y-34078444D01*
X128557228Y-34135018D01*
X128557238Y-34135020D01*
X128774998Y-34154072D01*
X128775002Y-34154072D01*
X128992761Y-34135020D01*
X128992771Y-34135018D01*
X129203910Y-34078444D01*
X129203919Y-34078440D01*
X129402035Y-33986057D01*
X129464069Y-33942621D01*
X128900573Y-33379125D01*
X128966179Y-33361546D01*
X129079121Y-33296339D01*
X129171339Y-33204121D01*
X129236546Y-33091179D01*
X129254125Y-33025573D01*
X129817621Y-33589069D01*
X129861057Y-33527035D01*
X129953440Y-33328919D01*
X129953444Y-33328910D01*
X130010018Y-33117771D01*
X130010020Y-33117761D01*
X130029072Y-32900001D01*
X130029072Y-32899998D01*
X130010020Y-32682238D01*
X130010018Y-32682228D01*
X129953444Y-32471089D01*
X129953440Y-32471080D01*
X129861055Y-32272960D01*
X129817622Y-32210930D01*
X129817621Y-32210929D01*
X129254124Y-32774426D01*
X129236546Y-32708821D01*
X129171339Y-32595879D01*
X129079121Y-32503661D01*
X128966179Y-32438454D01*
X128900572Y-32420874D01*
X129464069Y-31857377D01*
X129464068Y-31857376D01*
X129402039Y-31813944D01*
X129203919Y-31721559D01*
X129203910Y-31721555D01*
X128992771Y-31664981D01*
X128992761Y-31664979D01*
X128775002Y-31645928D01*
X128774998Y-31645928D01*
X128557238Y-31664979D01*
X128557228Y-31664981D01*
X128346089Y-31721555D01*
X128346080Y-31721559D01*
X128147964Y-31813942D01*
X128085930Y-31857377D01*
X128649428Y-32420874D01*
X128583821Y-32438454D01*
X128470879Y-32503661D01*
X128378661Y-32595879D01*
X128313454Y-32708821D01*
X128295874Y-32774427D01*
X127732377Y-32210930D01*
X127688942Y-32272964D01*
X127637658Y-32382943D01*
X127591486Y-32435382D01*
X127524292Y-32454534D01*
X127457411Y-32434318D01*
X127412894Y-32382943D01*
X127361493Y-32272713D01*
X127360928Y-32271906D01*
X127236059Y-32093575D01*
X127081425Y-31938941D01*
X126938114Y-31838593D01*
X126902286Y-31813506D01*
X126800084Y-31765849D01*
X126704090Y-31721086D01*
X126704086Y-31721085D01*
X126704082Y-31721083D01*
X126492859Y-31664487D01*
X126492849Y-31664485D01*
X126275001Y-31645426D01*
X126274999Y-31645426D01*
X126057150Y-31664485D01*
X126057140Y-31664487D01*
X125845917Y-31721083D01*
X125845910Y-31721085D01*
X125845910Y-31721086D01*
X125844932Y-31721542D01*
X125647713Y-31813506D01*
X125535125Y-31892342D01*
X125468575Y-31938941D01*
X125468573Y-31938942D01*
X125468570Y-31938945D01*
X125313945Y-32093570D01*
X125188506Y-32272713D01*
X125137382Y-32382351D01*
X125091210Y-32434790D01*
X125024016Y-32453942D01*
X124957135Y-32433726D01*
X124912618Y-32382351D01*
X124861493Y-32272713D01*
X124860928Y-32271906D01*
X124736059Y-32093575D01*
X124581425Y-31938941D01*
X124438114Y-31838593D01*
X124402286Y-31813506D01*
X124300084Y-31765849D01*
X124204090Y-31721086D01*
X124204086Y-31721085D01*
X124204082Y-31721083D01*
X123992859Y-31664487D01*
X123992849Y-31664485D01*
X123775001Y-31645426D01*
X123774999Y-31645426D01*
X123557150Y-31664485D01*
X123557140Y-31664487D01*
X123345917Y-31721083D01*
X123345910Y-31721085D01*
X123345910Y-31721086D01*
X123344932Y-31721542D01*
X123147713Y-31813506D01*
X123035125Y-31892342D01*
X122968575Y-31938941D01*
X122968573Y-31938942D01*
X122968570Y-31938945D01*
X122813945Y-32093570D01*
X122688506Y-32272713D01*
X122596087Y-32470908D01*
X122596083Y-32470917D01*
X122539487Y-32682140D01*
X122539485Y-32682150D01*
X122520426Y-32899999D01*
X115251707Y-32899999D01*
X115179415Y-32804269D01*
X115018680Y-32657741D01*
X114833758Y-32543241D01*
X114833757Y-32543240D01*
X114628347Y-32463664D01*
X114572945Y-32421091D01*
X114549355Y-32355324D01*
X114565066Y-32287243D01*
X114615090Y-32238465D01*
X114628347Y-32232410D01*
X114833533Y-32152921D01*
X114833535Y-32152920D01*
X114942185Y-32085646D01*
X114371753Y-31515214D01*
X114470164Y-31488845D01*
X114565731Y-31433669D01*
X114643761Y-31355639D01*
X114698937Y-31260072D01*
X114725306Y-31161660D01*
X115298054Y-31734408D01*
X115310059Y-31718511D01*
X115406966Y-31523897D01*
X115466464Y-31314781D01*
X115486524Y-31098306D01*
X115486524Y-31098305D01*
X115466464Y-30881830D01*
X115406966Y-30672714D01*
X115311006Y-30480000D01*
X121064815Y-30480000D01*
X121083503Y-30657805D01*
X121083504Y-30657807D01*
X121138747Y-30827829D01*
X121138750Y-30827835D01*
X121228141Y-30982665D01*
X121269812Y-31028946D01*
X121347764Y-31115521D01*
X121347767Y-31115523D01*
X121347770Y-31115526D01*
X121492407Y-31220612D01*
X121655733Y-31293329D01*
X121830609Y-31330500D01*
X121830610Y-31330500D01*
X122009389Y-31330500D01*
X122009391Y-31330500D01*
X122184267Y-31293329D01*
X122347593Y-31220612D01*
X122492230Y-31115526D01*
X122611859Y-30982665D01*
X122701250Y-30827835D01*
X122756497Y-30657803D01*
X122775185Y-30480000D01*
X131224815Y-30480000D01*
X131243503Y-30657805D01*
X131243504Y-30657807D01*
X131298747Y-30827829D01*
X131298750Y-30827835D01*
X131388141Y-30982665D01*
X131429812Y-31028946D01*
X131507764Y-31115521D01*
X131507767Y-31115523D01*
X131507770Y-31115526D01*
X131652407Y-31220612D01*
X131815733Y-31293329D01*
X131990609Y-31330500D01*
X131990610Y-31330500D01*
X132169389Y-31330500D01*
X132169391Y-31330500D01*
X132344267Y-31293329D01*
X132507593Y-31220612D01*
X132652230Y-31115526D01*
X132771859Y-30982665D01*
X132861250Y-30827835D01*
X132916497Y-30657803D01*
X132935185Y-30480000D01*
X132916497Y-30302197D01*
X132861250Y-30132165D01*
X132771859Y-29977335D01*
X132724471Y-29924706D01*
X132652235Y-29844478D01*
X132652232Y-29844476D01*
X132652231Y-29844475D01*
X132652230Y-29844474D01*
X132507593Y-29739388D01*
X132344267Y-29666671D01*
X132344265Y-29666670D01*
X132216594Y-29639533D01*
X132169391Y-29629500D01*
X131990609Y-29629500D01*
X131959954Y-29636015D01*
X131815733Y-29666670D01*
X131815728Y-29666672D01*
X131652408Y-29739387D01*
X131507768Y-29844475D01*
X131388140Y-29977336D01*
X131298750Y-30132164D01*
X131298747Y-30132170D01*
X131243504Y-30302192D01*
X131243503Y-30302194D01*
X131224815Y-30480000D01*
X122775185Y-30480000D01*
X122756497Y-30302197D01*
X122701250Y-30132165D01*
X122611859Y-29977335D01*
X122564471Y-29924706D01*
X122492235Y-29844478D01*
X122492232Y-29844476D01*
X122492231Y-29844475D01*
X122492230Y-29844474D01*
X122347593Y-29739388D01*
X122184267Y-29666671D01*
X122184265Y-29666670D01*
X122056594Y-29639533D01*
X122009391Y-29629500D01*
X121830609Y-29629500D01*
X121799954Y-29636015D01*
X121655733Y-29666670D01*
X121655728Y-29666672D01*
X121492408Y-29739387D01*
X121347768Y-29844475D01*
X121228140Y-29977336D01*
X121138750Y-30132164D01*
X121138747Y-30132170D01*
X121083504Y-30302192D01*
X121083503Y-30302194D01*
X121064815Y-30480000D01*
X115311006Y-30480000D01*
X115310064Y-30478109D01*
X115310056Y-30478096D01*
X115298053Y-30462202D01*
X114725306Y-31034950D01*
X114698937Y-30936540D01*
X114643761Y-30840973D01*
X114565731Y-30762943D01*
X114470164Y-30707767D01*
X114371753Y-30681397D01*
X114942185Y-30110964D01*
X114942184Y-30110963D01*
X114833537Y-30043693D01*
X114833531Y-30043689D01*
X114630809Y-29965155D01*
X114417100Y-29925206D01*
X114199696Y-29925206D01*
X113985981Y-29965156D01*
X113783272Y-30043686D01*
X113783259Y-30043692D01*
X113674609Y-30110964D01*
X114245043Y-30681397D01*
X114146632Y-30707767D01*
X114051065Y-30762943D01*
X113973035Y-30840973D01*
X113917859Y-30936540D01*
X113891489Y-31034951D01*
X113300954Y-30444416D01*
X113298470Y-30443870D01*
X113259182Y-30409896D01*
X113234982Y-30377851D01*
X113179416Y-30304269D01*
X113018681Y-30157741D01*
X112833759Y-30043241D01*
X112833758Y-30043240D01*
X112630949Y-29964672D01*
X112630948Y-29964671D01*
X112630946Y-29964671D01*
X112417149Y-29924706D01*
X112199649Y-29924706D01*
X111985852Y-29964671D01*
X111985850Y-29964671D01*
X111985848Y-29964672D01*
X111783039Y-30043240D01*
X111783038Y-30043241D01*
X111598121Y-30157738D01*
X111598119Y-30157739D01*
X111598117Y-30157741D01*
X111439658Y-30302194D01*
X111437380Y-30304271D01*
X111407351Y-30344035D01*
X111351242Y-30385670D01*
X111281530Y-30390361D01*
X111220348Y-30356618D01*
X111209444Y-30344034D01*
X111179417Y-30304272D01*
X111179415Y-30304269D01*
X111018680Y-30157741D01*
X110833758Y-30043241D01*
X110833757Y-30043240D01*
X110630948Y-29964672D01*
X110630947Y-29964671D01*
X110630945Y-29964671D01*
X110417148Y-29924706D01*
X110199648Y-29924706D01*
X109985851Y-29964671D01*
X109985849Y-29964671D01*
X109985847Y-29964672D01*
X109783038Y-30043240D01*
X109783037Y-30043241D01*
X109598120Y-30157738D01*
X109598118Y-30157739D01*
X109598116Y-30157741D01*
X109527416Y-30222191D01*
X109437379Y-30304270D01*
X109407353Y-30344032D01*
X109351243Y-30385668D01*
X109281531Y-30390359D01*
X109220350Y-30356617D01*
X109209445Y-30344032D01*
X109179418Y-30304270D01*
X109177141Y-30302194D01*
X109018682Y-30157741D01*
X108833760Y-30043241D01*
X108833759Y-30043240D01*
X108630950Y-29964672D01*
X108630949Y-29964671D01*
X108630947Y-29964671D01*
X108417150Y-29924706D01*
X108199650Y-29924706D01*
X107985853Y-29964671D01*
X107985851Y-29964671D01*
X107985849Y-29964672D01*
X107783040Y-30043240D01*
X107783039Y-30043241D01*
X107598122Y-30157738D01*
X107598120Y-30157739D01*
X107598118Y-30157741D01*
X107439659Y-30302194D01*
X107437381Y-30304271D01*
X107407352Y-30344035D01*
X107351243Y-30385670D01*
X107281531Y-30390361D01*
X107220349Y-30356618D01*
X107209445Y-30344034D01*
X107179418Y-30304272D01*
X107179416Y-30304269D01*
X107018681Y-30157741D01*
X106833759Y-30043241D01*
X106833758Y-30043240D01*
X106630949Y-29964672D01*
X106630948Y-29964671D01*
X106630946Y-29964671D01*
X106417149Y-29924706D01*
X106199649Y-29924706D01*
X105985852Y-29964671D01*
X105985850Y-29964671D01*
X105985848Y-29964672D01*
X105783039Y-30043240D01*
X105783038Y-30043241D01*
X105598121Y-30157738D01*
X105598119Y-30157739D01*
X105598117Y-30157741D01*
X105439658Y-30302194D01*
X105437380Y-30304271D01*
X105407352Y-30344034D01*
X105351243Y-30385669D01*
X105281531Y-30390360D01*
X105220349Y-30356617D01*
X105209445Y-30344032D01*
X105179420Y-30304272D01*
X105177141Y-30302194D01*
X105018682Y-30157741D01*
X104833760Y-30043241D01*
X104833759Y-30043240D01*
X104630950Y-29964672D01*
X104630949Y-29964671D01*
X104630947Y-29964671D01*
X104417150Y-29924706D01*
X104199650Y-29924706D01*
X103985853Y-29964671D01*
X103985851Y-29964671D01*
X103985849Y-29964672D01*
X103783040Y-30043240D01*
X103783039Y-30043241D01*
X103598122Y-30157738D01*
X103598120Y-30157739D01*
X103598118Y-30157741D01*
X103439659Y-30302194D01*
X103437381Y-30304271D01*
X103407352Y-30344035D01*
X103351243Y-30385670D01*
X103281531Y-30390361D01*
X103220349Y-30356618D01*
X103209445Y-30344034D01*
X103179418Y-30304272D01*
X103179416Y-30304269D01*
X103018681Y-30157741D01*
X102833759Y-30043241D01*
X102833758Y-30043240D01*
X102630949Y-29964672D01*
X102630948Y-29964671D01*
X102630946Y-29964671D01*
X102417149Y-29924706D01*
X102199649Y-29924706D01*
X101985852Y-29964671D01*
X101985850Y-29964671D01*
X101985848Y-29964672D01*
X101783039Y-30043240D01*
X101783038Y-30043241D01*
X101598121Y-30157738D01*
X101598119Y-30157739D01*
X101598117Y-30157741D01*
X101439658Y-30302194D01*
X101437380Y-30304271D01*
X101407351Y-30344035D01*
X101351242Y-30385670D01*
X101281530Y-30390361D01*
X101220348Y-30356618D01*
X101209444Y-30344034D01*
X101179417Y-30304272D01*
X101179415Y-30304269D01*
X101018680Y-30157741D01*
X100833758Y-30043241D01*
X100833757Y-30043240D01*
X100630948Y-29964672D01*
X100630947Y-29964671D01*
X100630945Y-29964671D01*
X100417148Y-29924706D01*
X100199648Y-29924706D01*
X99985851Y-29964671D01*
X99985849Y-29964671D01*
X99985847Y-29964672D01*
X99783038Y-30043240D01*
X99783037Y-30043241D01*
X99598120Y-30157738D01*
X99598118Y-30157739D01*
X99598116Y-30157741D01*
X99527416Y-30222191D01*
X99437379Y-30304270D01*
X99407353Y-30344032D01*
X99351243Y-30385668D01*
X99281531Y-30390359D01*
X99220350Y-30356617D01*
X99209445Y-30344032D01*
X99179418Y-30304270D01*
X99177141Y-30302194D01*
X99018682Y-30157741D01*
X98833760Y-30043241D01*
X98833759Y-30043240D01*
X98630950Y-29964672D01*
X98630949Y-29964671D01*
X98630947Y-29964671D01*
X98417150Y-29924706D01*
X98199650Y-29924706D01*
X97985853Y-29964671D01*
X97985851Y-29964671D01*
X97985849Y-29964672D01*
X97783040Y-30043240D01*
X97783039Y-30043241D01*
X97598122Y-30157738D01*
X97598120Y-30157739D01*
X97598118Y-30157741D01*
X97439661Y-30302192D01*
X97437382Y-30304270D01*
X97407353Y-30344035D01*
X97351244Y-30385671D01*
X97281532Y-30390362D01*
X97220350Y-30356620D01*
X97209445Y-30344035D01*
X97179417Y-30304272D01*
X97179415Y-30304269D01*
X97018680Y-30157741D01*
X96833758Y-30043241D01*
X96833757Y-30043240D01*
X96630948Y-29964672D01*
X96630947Y-29964671D01*
X96630945Y-29964671D01*
X96417148Y-29924706D01*
X96199648Y-29924706D01*
X95985851Y-29964671D01*
X95985849Y-29964671D01*
X95985847Y-29964672D01*
X95783038Y-30043240D01*
X95783037Y-30043241D01*
X95598120Y-30157738D01*
X95598118Y-30157739D01*
X95598116Y-30157741D01*
X95527416Y-30222191D01*
X95437379Y-30304270D01*
X95407353Y-30344032D01*
X95351243Y-30385668D01*
X95281531Y-30390359D01*
X95220350Y-30356617D01*
X95209445Y-30344032D01*
X95179418Y-30304270D01*
X95177141Y-30302194D01*
X95018682Y-30157741D01*
X94833760Y-30043241D01*
X94833759Y-30043240D01*
X94630950Y-29964672D01*
X94630949Y-29964671D01*
X94630947Y-29964671D01*
X94417150Y-29924706D01*
X94199650Y-29924706D01*
X93985853Y-29964671D01*
X93985851Y-29964671D01*
X93985849Y-29964672D01*
X93783040Y-30043240D01*
X93783039Y-30043241D01*
X93598122Y-30157738D01*
X93598120Y-30157739D01*
X93598118Y-30157741D01*
X93439659Y-30302194D01*
X93437381Y-30304271D01*
X93407352Y-30344035D01*
X93351243Y-30385670D01*
X93281531Y-30390361D01*
X93220349Y-30356618D01*
X93209445Y-30344034D01*
X93179418Y-30304272D01*
X93179416Y-30304269D01*
X93018681Y-30157741D01*
X92833759Y-30043241D01*
X92833758Y-30043240D01*
X92630949Y-29964672D01*
X92630948Y-29964671D01*
X92630946Y-29964671D01*
X92417149Y-29924706D01*
X92199649Y-29924706D01*
X91985852Y-29964671D01*
X91985850Y-29964671D01*
X91985848Y-29964672D01*
X91783039Y-30043240D01*
X91783038Y-30043241D01*
X91598121Y-30157738D01*
X91598119Y-30157739D01*
X91598117Y-30157741D01*
X91439660Y-30302192D01*
X91437381Y-30304270D01*
X91306309Y-30477837D01*
X91209361Y-30672534D01*
X91209358Y-30672540D01*
X91149839Y-30881731D01*
X91149838Y-30881734D01*
X91129771Y-31098305D01*
X72723736Y-31098305D01*
X72827859Y-30982665D01*
X72917250Y-30827835D01*
X72972497Y-30657803D01*
X72991185Y-30480000D01*
X72972497Y-30302197D01*
X72917250Y-30132165D01*
X72827859Y-29977335D01*
X72780471Y-29924706D01*
X72708235Y-29844478D01*
X72708232Y-29844476D01*
X72708231Y-29844475D01*
X72708230Y-29844474D01*
X72563593Y-29739388D01*
X72400267Y-29666671D01*
X72400265Y-29666670D01*
X72272594Y-29639533D01*
X72225391Y-29629500D01*
X72046609Y-29629500D01*
X72015954Y-29636015D01*
X71871733Y-29666670D01*
X71871728Y-29666672D01*
X71708408Y-29739387D01*
X71563768Y-29844475D01*
X71444140Y-29977336D01*
X71354750Y-30132164D01*
X71354747Y-30132170D01*
X71299504Y-30302192D01*
X71299503Y-30302194D01*
X71280815Y-30480000D01*
X62206500Y-30480000D01*
X62206500Y-25519186D01*
X64147500Y-25519186D01*
X64147500Y-25788813D01*
X64177686Y-26056719D01*
X64177688Y-26056731D01*
X64237684Y-26319594D01*
X64237687Y-26319602D01*
X64326734Y-26574082D01*
X64443714Y-26816994D01*
X64443716Y-26816997D01*
X64587162Y-27045289D01*
X64755266Y-27256085D01*
X64945915Y-27446734D01*
X65156711Y-27614838D01*
X65385003Y-27758284D01*
X65627921Y-27875267D01*
X65819049Y-27942145D01*
X65882397Y-27964312D01*
X65882405Y-27964315D01*
X65882408Y-27964315D01*
X65882409Y-27964316D01*
X66145268Y-28024312D01*
X66413187Y-28054499D01*
X66413188Y-28054500D01*
X66413191Y-28054500D01*
X66682812Y-28054500D01*
X66682812Y-28054499D01*
X66950732Y-28024312D01*
X67213591Y-27964316D01*
X67468079Y-27875267D01*
X67710997Y-27758284D01*
X67939289Y-27614838D01*
X68150085Y-27446734D01*
X68340734Y-27256085D01*
X68508838Y-27045289D01*
X68652284Y-26816997D01*
X68769267Y-26574079D01*
X68858316Y-26319591D01*
X68918312Y-26056732D01*
X68948500Y-25788809D01*
X68948500Y-25519191D01*
X68918312Y-25251268D01*
X68858316Y-24988409D01*
X68769267Y-24733921D01*
X68652284Y-24491003D01*
X68508838Y-24262711D01*
X68340734Y-24051915D01*
X68150085Y-23861266D01*
X67939289Y-23693162D01*
X67762591Y-23582135D01*
X75065502Y-23582135D01*
X75065502Y-25185870D01*
X75065503Y-25185876D01*
X75071910Y-25245483D01*
X75122204Y-25380328D01*
X75122208Y-25380335D01*
X75208454Y-25495544D01*
X75208457Y-25495547D01*
X75323666Y-25581793D01*
X75323673Y-25581797D01*
X75458519Y-25632091D01*
X75458518Y-25632091D01*
X75465446Y-25632835D01*
X75518129Y-25638500D01*
X77121874Y-25638499D01*
X77181485Y-25632091D01*
X77316333Y-25581796D01*
X77431548Y-25495546D01*
X77517798Y-25380331D01*
X77568093Y-25245483D01*
X77574502Y-25185873D01*
X77574501Y-25185704D01*
X77574512Y-25185669D01*
X77574680Y-25182547D01*
X77575416Y-25182586D01*
X77594167Y-25118663D01*
X77646958Y-25072893D01*
X77716113Y-25062930D01*
X77779677Y-25091937D01*
X77800076Y-25114549D01*
X77855328Y-25193457D01*
X77855329Y-25193458D01*
X78010543Y-25348672D01*
X78010549Y-25348677D01*
X78190351Y-25474576D01*
X78190353Y-25474577D01*
X78190356Y-25474579D01*
X78389299Y-25567347D01*
X78601328Y-25624161D01*
X78757523Y-25637826D01*
X78820000Y-25643292D01*
X78820002Y-25643292D01*
X78820004Y-25643292D01*
X78874799Y-25638498D01*
X79038676Y-25624161D01*
X79250705Y-25567347D01*
X79449648Y-25474579D01*
X79629459Y-25348674D01*
X79784676Y-25193457D01*
X79910581Y-25013646D01*
X79957619Y-24912772D01*
X80003791Y-24860332D01*
X80070984Y-24841180D01*
X80137866Y-24861395D01*
X80182383Y-24912772D01*
X80229419Y-25013642D01*
X80229423Y-25013650D01*
X80355322Y-25193452D01*
X80355327Y-25193458D01*
X80510541Y-25348672D01*
X80510547Y-25348677D01*
X80690349Y-25474576D01*
X80690351Y-25474577D01*
X80690354Y-25474579D01*
X80889297Y-25567347D01*
X81101326Y-25624161D01*
X81257521Y-25637826D01*
X81319998Y-25643292D01*
X81320000Y-25643292D01*
X81320002Y-25643292D01*
X81374797Y-25638498D01*
X81538674Y-25624161D01*
X81750703Y-25567347D01*
X81949646Y-25474579D01*
X82129457Y-25348674D01*
X82284674Y-25193457D01*
X82410579Y-25013646D01*
X82457618Y-24912770D01*
X82503790Y-24860330D01*
X82570983Y-24841178D01*
X82637865Y-24861393D01*
X82682382Y-24912770D01*
X82729419Y-25013642D01*
X82729423Y-25013650D01*
X82855322Y-25193452D01*
X82855327Y-25193458D01*
X83010541Y-25348672D01*
X83010547Y-25348677D01*
X83190349Y-25474576D01*
X83190351Y-25474577D01*
X83190354Y-25474579D01*
X83389297Y-25567347D01*
X83601326Y-25624161D01*
X83757521Y-25637826D01*
X83819998Y-25643292D01*
X83820000Y-25643292D01*
X83820002Y-25643292D01*
X83874797Y-25638498D01*
X84038674Y-25624161D01*
X84250703Y-25567347D01*
X84449646Y-25474579D01*
X84510661Y-25431856D01*
X102548753Y-25431856D01*
X102567441Y-25609661D01*
X102567442Y-25609663D01*
X102622685Y-25779685D01*
X102622688Y-25779691D01*
X102712079Y-25934521D01*
X102753750Y-25980802D01*
X102831702Y-26067377D01*
X102831705Y-26067379D01*
X102831708Y-26067382D01*
X102976345Y-26172468D01*
X103139671Y-26245185D01*
X103314547Y-26282356D01*
X103314548Y-26282356D01*
X103493327Y-26282356D01*
X103493329Y-26282356D01*
X103668205Y-26245185D01*
X103831531Y-26172468D01*
X103976168Y-26067382D01*
X103985758Y-26056732D01*
X104002086Y-26038597D01*
X104095797Y-25934521D01*
X104185188Y-25779691D01*
X104240435Y-25609659D01*
X104249944Y-25519186D01*
X132981500Y-25519186D01*
X132981500Y-25788813D01*
X133011686Y-26056719D01*
X133011688Y-26056731D01*
X133071684Y-26319594D01*
X133071687Y-26319602D01*
X133160734Y-26574082D01*
X133277714Y-26816994D01*
X133277716Y-26816997D01*
X133421162Y-27045289D01*
X133589266Y-27256085D01*
X133779915Y-27446734D01*
X133990711Y-27614838D01*
X134219003Y-27758284D01*
X134461921Y-27875267D01*
X134653049Y-27942145D01*
X134716397Y-27964312D01*
X134716405Y-27964315D01*
X134716408Y-27964315D01*
X134716409Y-27964316D01*
X134979268Y-28024312D01*
X135247187Y-28054499D01*
X135247188Y-28054500D01*
X135247191Y-28054500D01*
X135516812Y-28054500D01*
X135516812Y-28054499D01*
X135784732Y-28024312D01*
X136047591Y-27964316D01*
X136302079Y-27875267D01*
X136544997Y-27758284D01*
X136773289Y-27614838D01*
X136984085Y-27446734D01*
X137174734Y-27256085D01*
X137342838Y-27045289D01*
X137486284Y-26816997D01*
X137603267Y-26574079D01*
X137692316Y-26319591D01*
X137752312Y-26056732D01*
X137782500Y-25788809D01*
X137782500Y-25519191D01*
X137752312Y-25251268D01*
X137692316Y-24988409D01*
X137603267Y-24733921D01*
X137486284Y-24491003D01*
X137342838Y-24262711D01*
X137174734Y-24051915D01*
X136984085Y-23861266D01*
X136773289Y-23693162D01*
X136544997Y-23549716D01*
X136544994Y-23549714D01*
X136302082Y-23432734D01*
X136047602Y-23343687D01*
X136047594Y-23343684D01*
X135850446Y-23298687D01*
X135784732Y-23283688D01*
X135784728Y-23283687D01*
X135784719Y-23283686D01*
X135516813Y-23253500D01*
X135516809Y-23253500D01*
X135247191Y-23253500D01*
X135247186Y-23253500D01*
X134979280Y-23283686D01*
X134979268Y-23283688D01*
X134716405Y-23343684D01*
X134716397Y-23343687D01*
X134461917Y-23432734D01*
X134219005Y-23549714D01*
X133990712Y-23693161D01*
X133779915Y-23861265D01*
X133589265Y-24051915D01*
X133421161Y-24262712D01*
X133277714Y-24491005D01*
X133160734Y-24733917D01*
X133071687Y-24988397D01*
X133071684Y-24988405D01*
X133011688Y-25251268D01*
X133011686Y-25251280D01*
X132981500Y-25519186D01*
X104249944Y-25519186D01*
X104259123Y-25431856D01*
X104240435Y-25254053D01*
X104185188Y-25084021D01*
X104095797Y-24929191D01*
X104033794Y-24860330D01*
X103976173Y-24796334D01*
X103976170Y-24796332D01*
X103976169Y-24796331D01*
X103976168Y-24796330D01*
X103831531Y-24691244D01*
X103668205Y-24618527D01*
X103668203Y-24618526D01*
X103540532Y-24591389D01*
X103493329Y-24581356D01*
X103314547Y-24581356D01*
X103283892Y-24587871D01*
X103139671Y-24618526D01*
X103139666Y-24618528D01*
X102976346Y-24691243D01*
X102831706Y-24796331D01*
X102712078Y-24929192D01*
X102622688Y-25084020D01*
X102622685Y-25084026D01*
X102567442Y-25254048D01*
X102567441Y-25254050D01*
X102548753Y-25431856D01*
X84510661Y-25431856D01*
X84629457Y-25348674D01*
X84784674Y-25193457D01*
X84910579Y-25013646D01*
X85003347Y-24814703D01*
X85060161Y-24602674D01*
X85079292Y-24384000D01*
X85060161Y-24165326D01*
X85003347Y-23953297D01*
X84910579Y-23754354D01*
X84910577Y-23754351D01*
X84910576Y-23754349D01*
X84784677Y-23574547D01*
X84784672Y-23574541D01*
X84629458Y-23419327D01*
X84629452Y-23419322D01*
X84449650Y-23293423D01*
X84449642Y-23293419D01*
X84250708Y-23200655D01*
X84250706Y-23200654D01*
X84250703Y-23200653D01*
X84099885Y-23160240D01*
X84038675Y-23143839D01*
X84038668Y-23143838D01*
X83820002Y-23124708D01*
X83819998Y-23124708D01*
X83601331Y-23143838D01*
X83601324Y-23143839D01*
X83478902Y-23176642D01*
X83389297Y-23200653D01*
X83389295Y-23200653D01*
X83389291Y-23200655D01*
X83190357Y-23293419D01*
X83190349Y-23293423D01*
X83010547Y-23419322D01*
X83010541Y-23419327D01*
X82855327Y-23574541D01*
X82855322Y-23574547D01*
X82729423Y-23754349D01*
X82729421Y-23754353D01*
X82682382Y-23855230D01*
X82636210Y-23907669D01*
X82569016Y-23926821D01*
X82502135Y-23906605D01*
X82457618Y-23855230D01*
X82410580Y-23754357D01*
X82410579Y-23754354D01*
X82410577Y-23754351D01*
X82410576Y-23754349D01*
X82284677Y-23574547D01*
X82284672Y-23574541D01*
X82129458Y-23419327D01*
X82129452Y-23419322D01*
X81949650Y-23293423D01*
X81949642Y-23293419D01*
X81750708Y-23200655D01*
X81750706Y-23200654D01*
X81750703Y-23200653D01*
X81599885Y-23160240D01*
X81538675Y-23143839D01*
X81538668Y-23143838D01*
X81320002Y-23124708D01*
X81319998Y-23124708D01*
X81101331Y-23143838D01*
X81101324Y-23143839D01*
X80978902Y-23176642D01*
X80889297Y-23200653D01*
X80889295Y-23200653D01*
X80889291Y-23200655D01*
X80690357Y-23293419D01*
X80690349Y-23293423D01*
X80510547Y-23419322D01*
X80510541Y-23419327D01*
X80355327Y-23574541D01*
X80355322Y-23574547D01*
X80229423Y-23754349D01*
X80229421Y-23754353D01*
X80182383Y-23855228D01*
X80136211Y-23907667D01*
X80069017Y-23926819D01*
X80002136Y-23906603D01*
X79957619Y-23855228D01*
X79910582Y-23754357D01*
X79910581Y-23754354D01*
X79910579Y-23754351D01*
X79910578Y-23754349D01*
X79784679Y-23574547D01*
X79784674Y-23574541D01*
X79629460Y-23419327D01*
X79629454Y-23419322D01*
X79449652Y-23293423D01*
X79449644Y-23293419D01*
X79250710Y-23200655D01*
X79250708Y-23200654D01*
X79250705Y-23200653D01*
X79099887Y-23160240D01*
X79038677Y-23143839D01*
X79038670Y-23143838D01*
X78820004Y-23124708D01*
X78820000Y-23124708D01*
X78601333Y-23143838D01*
X78601326Y-23143839D01*
X78478904Y-23176642D01*
X78389299Y-23200653D01*
X78389297Y-23200653D01*
X78389293Y-23200655D01*
X78190359Y-23293419D01*
X78190351Y-23293423D01*
X78010549Y-23419322D01*
X78010543Y-23419327D01*
X77855329Y-23574541D01*
X77855328Y-23574543D01*
X77800076Y-23653451D01*
X77745499Y-23697076D01*
X77676000Y-23704268D01*
X77613646Y-23672746D01*
X77578232Y-23612516D01*
X77574883Y-23585425D01*
X77574856Y-23585429D01*
X77574855Y-23585426D01*
X77574678Y-23585436D01*
X77574519Y-23582478D01*
X77574501Y-23582327D01*
X77574501Y-23582129D01*
X77574500Y-23582123D01*
X77574499Y-23582116D01*
X77568093Y-23522517D01*
X77529605Y-23419326D01*
X77517799Y-23387671D01*
X77517795Y-23387664D01*
X77431549Y-23272455D01*
X77431546Y-23272452D01*
X77316337Y-23186206D01*
X77316330Y-23186202D01*
X77181484Y-23135908D01*
X77181485Y-23135908D01*
X77121885Y-23129501D01*
X77121883Y-23129500D01*
X77121875Y-23129500D01*
X77121866Y-23129500D01*
X75518131Y-23129500D01*
X75518125Y-23129501D01*
X75458518Y-23135908D01*
X75323673Y-23186202D01*
X75323666Y-23186206D01*
X75208457Y-23272452D01*
X75208454Y-23272455D01*
X75122208Y-23387664D01*
X75122204Y-23387671D01*
X75071910Y-23522517D01*
X75066317Y-23574543D01*
X75065503Y-23582123D01*
X75065502Y-23582135D01*
X67762591Y-23582135D01*
X67710997Y-23549716D01*
X67710994Y-23549714D01*
X67468082Y-23432734D01*
X67213602Y-23343687D01*
X67213594Y-23343684D01*
X67016446Y-23298687D01*
X66950732Y-23283688D01*
X66950728Y-23283687D01*
X66950719Y-23283686D01*
X66682813Y-23253500D01*
X66682809Y-23253500D01*
X66413191Y-23253500D01*
X66413186Y-23253500D01*
X66145280Y-23283686D01*
X66145268Y-23283688D01*
X65882405Y-23343684D01*
X65882397Y-23343687D01*
X65627917Y-23432734D01*
X65385005Y-23549714D01*
X65156712Y-23693161D01*
X64945915Y-23861265D01*
X64755265Y-24051915D01*
X64587161Y-24262712D01*
X64443714Y-24491005D01*
X64326734Y-24733917D01*
X64237687Y-24988397D01*
X64237684Y-24988405D01*
X64177688Y-25251268D01*
X64177686Y-25251280D01*
X64147500Y-25519186D01*
X62206500Y-25519186D01*
X62206500Y-23228838D01*
X62226185Y-23161799D01*
X62242819Y-23141157D01*
X64035157Y-21348819D01*
X64096480Y-21315334D01*
X64122838Y-21312500D01*
X137807162Y-21312500D01*
X137874201Y-21332185D01*
G37*
%TD.AperFunction*%
%TD*%
M02*
