%TF.GenerationSoftware,KiCad,Pcbnew,8.0.8-8.0.8-0~ubuntu24.04.1*%
%TF.CreationDate,2025-08-07T16:45:34-04:00*%
%TF.ProjectId,mainboard,6d61696e-626f-4617-9264-2e6b69636164,rev?*%
%TF.SameCoordinates,Original*%
%TF.FileFunction,Soldermask,Top*%
%TF.FilePolarity,Negative*%
%FSLAX46Y46*%
G04 Gerber Fmt 4.6, Leading zero omitted, Abs format (unit mm)*
G04 Created by KiCad (PCBNEW 8.0.8-8.0.8-0~ubuntu24.04.1) date 2025-08-07 16:45:34*
%MOMM*%
%LPD*%
G01*
G04 APERTURE LIST*
G04 Aperture macros list*
%AMRoundRect*
0 Rectangle with rounded corners*
0 $1 Rounding radius*
0 $2 $3 $4 $5 $6 $7 $8 $9 X,Y pos of 4 corners*
0 Add a 4 corners polygon primitive as box body*
4,1,4,$2,$3,$4,$5,$6,$7,$8,$9,$2,$3,0*
0 Add four circle primitives for the rounded corners*
1,1,$1+$1,$2,$3*
1,1,$1+$1,$4,$5*
1,1,$1+$1,$6,$7*
1,1,$1+$1,$8,$9*
0 Add four rect primitives between the rounded corners*
20,1,$1+$1,$2,$3,$4,$5,0*
20,1,$1+$1,$4,$5,$6,$7,0*
20,1,$1+$1,$6,$7,$8,$9,0*
20,1,$1+$1,$8,$9,$2,$3,0*%
%AMRotRect*
0 Rectangle, with rotation*
0 The origin of the aperture is its center*
0 $1 length*
0 $2 width*
0 $3 Rotation angle, in degrees counterclockwise*
0 Add horizontal line*
21,1,$1,$2,0,0,$3*%
%AMOutline5P*
0 Free polygon, 5 corners , with rotation*
0 The origin of the aperture is its center*
0 number of corners: always 5*
0 $1 to $10 corner X, Y*
0 $11 Rotation angle, in degrees counterclockwise*
0 create outline with 5 corners*
4,1,5,$1,$2,$3,$4,$5,$6,$7,$8,$9,$10,$1,$2,$11*%
%AMOutline6P*
0 Free polygon, 6 corners , with rotation*
0 The origin of the aperture is its center*
0 number of corners: always 6*
0 $1 to $12 corner X, Y*
0 $13 Rotation angle, in degrees counterclockwise*
0 create outline with 6 corners*
4,1,6,$1,$2,$3,$4,$5,$6,$7,$8,$9,$10,$11,$12,$1,$2,$13*%
%AMOutline7P*
0 Free polygon, 7 corners , with rotation*
0 The origin of the aperture is its center*
0 number of corners: always 7*
0 $1 to $14 corner X, Y*
0 $15 Rotation angle, in degrees counterclockwise*
0 create outline with 7 corners*
4,1,7,$1,$2,$3,$4,$5,$6,$7,$8,$9,$10,$11,$12,$13,$14,$1,$2,$15*%
%AMOutline8P*
0 Free polygon, 8 corners , with rotation*
0 The origin of the aperture is its center*
0 number of corners: always 8*
0 $1 to $16 corner X, Y*
0 $17 Rotation angle, in degrees counterclockwise*
0 create outline with 8 corners*
4,1,8,$1,$2,$3,$4,$5,$6,$7,$8,$9,$10,$11,$12,$13,$14,$15,$16,$1,$2,$17*%
G04 Aperture macros list end*
%ADD10R,3.800000X2.000000*%
%ADD11RoundRect,0.250000X-0.475000X0.250000X-0.475000X-0.250000X0.475000X-0.250000X0.475000X0.250000X0*%
%ADD12RoundRect,0.250000X0.475000X-0.250000X0.475000X0.250000X-0.475000X0.250000X-0.475000X-0.250000X0*%
%ADD13RoundRect,0.250000X0.250000X0.475000X-0.250000X0.475000X-0.250000X-0.475000X0.250000X-0.475000X0*%
%ADD14RoundRect,0.250000X0.350000X0.450000X-0.350000X0.450000X-0.350000X-0.450000X0.350000X-0.450000X0*%
%ADD15RoundRect,0.250000X-0.250000X-0.475000X0.250000X-0.475000X0.250000X0.475000X-0.250000X0.475000X0*%
%ADD16RoundRect,0.102000X-0.754000X0.754000X-0.754000X-0.754000X0.754000X-0.754000X0.754000X0.754000X0*%
%ADD17C,1.712000*%
%ADD18R,1.700000X1.700000*%
%ADD19O,1.700000X1.700000*%
%ADD20RoundRect,0.250000X-0.450000X0.350000X-0.450000X-0.350000X0.450000X-0.350000X0.450000X0.350000X0*%
%ADD21RotRect,0.279400X1.778000X135.000000*%
%ADD22RotRect,0.279400X1.778000X45.000000*%
%ADD23C,4.300000*%
%ADD24RoundRect,0.219250X1.047750X0.657750X-1.047750X0.657750X-1.047750X-0.657750X1.047750X-0.657750X0*%
%ADD25O,1.092200X1.701800*%
%ADD26R,0.711200X1.193800*%
%ADD27R,0.762000X1.193800*%
%ADD28R,0.812800X1.193800*%
%ADD29RoundRect,0.102000X-0.400000X0.450000X-0.400000X-0.450000X0.400000X-0.450000X0.400000X0.450000X0*%
%ADD30C,1.219200*%
%ADD31Outline5P,-1.900000X0.600000X-1.500000X1.000000X1.900000X1.000000X1.900000X-1.000000X-1.900000X-1.000000X270.000000*%
%ADD32C,1.498600*%
%ADD33RoundRect,0.250000X-0.350000X-0.450000X0.350000X-0.450000X0.350000X0.450000X-0.350000X0.450000X0*%
%ADD34RoundRect,0.375000X-0.375000X0.625000X-0.375000X-0.625000X0.375000X-0.625000X0.375000X0.625000X0*%
%ADD35RoundRect,0.500000X-1.400000X0.500000X-1.400000X-0.500000X1.400000X-0.500000X1.400000X0.500000X0*%
%ADD36C,1.346200*%
%ADD37R,1.000000X1.250000*%
%ADD38RoundRect,0.102000X-0.754000X-0.754000X0.754000X-0.754000X0.754000X0.754000X-0.754000X0.754000X0*%
%ADD39RoundRect,0.243750X-0.243750X-0.456250X0.243750X-0.456250X0.243750X0.456250X-0.243750X0.456250X0*%
G04 APERTURE END LIST*
D10*
%TO.C,TP7*%
X78740000Y-43180000D03*
%TD*%
%TO.C,TP5*%
X106680000Y-81280000D03*
%TD*%
D11*
%TO.C,C1*%
X80784440Y-71350001D03*
X80784440Y-73249999D03*
%TD*%
D12*
%TO.C,C11*%
X100775000Y-72849999D03*
X100775000Y-70950001D03*
%TD*%
D13*
%TO.C,C3*%
X87674997Y-69300000D03*
X85774999Y-69300000D03*
%TD*%
D14*
%TO.C,FB1*%
X106525000Y-73150000D03*
X104525000Y-73150000D03*
%TD*%
D15*
%TO.C,C5*%
X91175000Y-64262000D03*
X93074998Y-64262000D03*
%TD*%
D12*
%TO.C,C10*%
X107525000Y-69099999D03*
X107525000Y-67200001D03*
%TD*%
D16*
%TO.C,J7*%
X72748000Y-51137500D03*
D17*
X75288000Y-51137500D03*
X72748000Y-53677500D03*
X75288000Y-53677500D03*
X72747999Y-56217500D03*
X75288001Y-56217500D03*
X72748000Y-58757500D03*
X75288000Y-58757500D03*
X72748000Y-61297500D03*
X75288000Y-61297500D03*
%TD*%
D12*
%TO.C,C13*%
X125476000Y-71053999D03*
X125476000Y-69154001D03*
%TD*%
D18*
%TO.C,J6*%
X64135000Y-47625000D03*
D19*
X64135000Y-50165000D03*
X64135000Y-52704999D03*
X64135000Y-55245000D03*
X64135000Y-57785000D03*
X64135000Y-60325000D03*
%TD*%
D15*
%TO.C,C15*%
X104197001Y-63856000D03*
X106096999Y-63856000D03*
%TD*%
D20*
%TO.C,R8*%
X91175000Y-43900000D03*
X91175000Y-45900000D03*
%TD*%
D21*
%TO.C,U3*%
X105582761Y-56979812D03*
X105936314Y-57333364D03*
X106289868Y-57686919D03*
X106643421Y-58040471D03*
X106996976Y-58394026D03*
X107350528Y-58747579D03*
X107704081Y-59101131D03*
X108057635Y-59454686D03*
X108411188Y-59808239D03*
X108764743Y-60161793D03*
X109118295Y-60515346D03*
X109471848Y-60868898D03*
X109825403Y-61222453D03*
X110178955Y-61576006D03*
X110532510Y-61929560D03*
X110886062Y-62283113D03*
D22*
X113593150Y-62283113D03*
X113946702Y-61929560D03*
X114300257Y-61576006D03*
X114653809Y-61222453D03*
X115007364Y-60868898D03*
X115360917Y-60515346D03*
X115714469Y-60161793D03*
X116068024Y-59808239D03*
X116421577Y-59454686D03*
X116775131Y-59101131D03*
X117128684Y-58747579D03*
X117482236Y-58394026D03*
X117835791Y-58040471D03*
X118189344Y-57686919D03*
X118542898Y-57333364D03*
X118896451Y-56979812D03*
D21*
X118896451Y-54272724D03*
X118542898Y-53919172D03*
X118189344Y-53565617D03*
X117835791Y-53212065D03*
X117482236Y-52858510D03*
X117128684Y-52504957D03*
X116775131Y-52151405D03*
X116421577Y-51797850D03*
X116068024Y-51444297D03*
X115714469Y-51090743D03*
X115360917Y-50737190D03*
X115007364Y-50383638D03*
X114653809Y-50030083D03*
X114300257Y-49676530D03*
X113946702Y-49322976D03*
X113593150Y-48969423D03*
D22*
X110886062Y-48969423D03*
X110532510Y-49322976D03*
X110178955Y-49676530D03*
X109825403Y-50030083D03*
X109471848Y-50383638D03*
X109118295Y-50737190D03*
X108764743Y-51090743D03*
X108411188Y-51444297D03*
X108057635Y-51797850D03*
X107704081Y-52151405D03*
X107350528Y-52504957D03*
X106996976Y-52858510D03*
X106643421Y-53212065D03*
X106289868Y-53565617D03*
X105936314Y-53919172D03*
X105582761Y-54272724D03*
%TD*%
D23*
%TO.C,H1*%
X66548000Y-25654000D03*
%TD*%
D24*
%TO.C,D1*%
X75795000Y-70104000D03*
X71525000Y-70104000D03*
%TD*%
D25*
%TO.C,J8*%
X72388000Y-83024600D03*
X81028000Y-83024600D03*
X72388000Y-86824599D03*
X81028000Y-86824599D03*
D26*
X76208001Y-82944599D03*
D27*
X78228000Y-82944599D03*
D28*
X79458000Y-82944599D03*
D26*
X77207999Y-82944599D03*
D27*
X75188000Y-82944599D03*
D28*
X73958000Y-82944599D03*
%TD*%
D29*
%TO.C,Y1*%
X99825001Y-62931000D03*
X99825001Y-64781000D03*
X101275001Y-64781000D03*
X101275001Y-62931000D03*
%TD*%
D13*
%TO.C,C14*%
X101524999Y-60300000D03*
X99625001Y-60300000D03*
%TD*%
D23*
%TO.C,H3*%
X66548000Y-85598000D03*
%TD*%
D30*
%TO.C,U1*%
X129235000Y-61900000D03*
X129235000Y-59900001D03*
X129235000Y-57900000D03*
X129235000Y-55900001D03*
X129235000Y-53900000D03*
X129235000Y-51900002D03*
X129235000Y-49900001D03*
X129235000Y-47900000D03*
X131775000Y-61900000D03*
X131775000Y-59900001D03*
X131775000Y-57900000D03*
X131775000Y-55900001D03*
X131775000Y-53900000D03*
X131775000Y-51900002D03*
X131775000Y-49900001D03*
X131775000Y-47900000D03*
%TD*%
D23*
%TO.C,H2*%
X135382000Y-25654000D03*
%TD*%
D13*
%TO.C,C4*%
X92897999Y-69342000D03*
X90998001Y-69342000D03*
%TD*%
D31*
%TO.C,TP1*%
X110775000Y-73300000D03*
%TD*%
D24*
%TO.C,D3*%
X75795000Y-77724000D03*
X71525000Y-77724000D03*
%TD*%
D32*
%TO.C,J5*%
X128775000Y-32900000D03*
X126275000Y-32900000D03*
X123775000Y-32900000D03*
%TD*%
D33*
%TO.C,R1*%
X86438060Y-85999424D03*
X88438060Y-85999424D03*
%TD*%
D34*
%TO.C,U2*%
X92475000Y-73950000D03*
X90175000Y-73950001D03*
D35*
X90175000Y-80249999D03*
D34*
X87875000Y-73950000D03*
%TD*%
D16*
%TO.C,J2*%
X65532000Y-33902002D03*
D17*
X65532000Y-36402002D03*
X65532000Y-38902000D03*
X65532000Y-41402000D03*
%TD*%
D33*
%TO.C,R13*%
X124957300Y-38404799D03*
X126957300Y-38404799D03*
%TD*%
D11*
%TO.C,C2*%
X80784440Y-76350001D03*
X80784440Y-78249999D03*
%TD*%
D12*
%TO.C,C9*%
X102870000Y-69099998D03*
X102870000Y-67200000D03*
%TD*%
D36*
%TO.C,J1*%
X92308399Y-31098306D03*
X92308399Y-33598306D03*
X94308400Y-31098306D03*
X94308400Y-33598306D03*
X96308398Y-31098306D03*
X96308398Y-33598306D03*
X98308400Y-31098306D03*
X98308400Y-33598306D03*
X100308398Y-31098306D03*
X100308398Y-33598306D03*
X102308399Y-31098306D03*
X102308399Y-33598306D03*
X104308400Y-31098306D03*
X104308400Y-33598306D03*
X106308399Y-31098306D03*
X106308399Y-33598306D03*
X108308400Y-31098306D03*
X108308400Y-33598306D03*
X110308398Y-31098306D03*
X110308398Y-33598306D03*
X112308399Y-31098306D03*
X112308399Y-33598306D03*
X114308398Y-31098306D03*
X114308398Y-33598306D03*
%TD*%
D13*
%TO.C,C12*%
X118228006Y-72728079D03*
X116328008Y-72728079D03*
%TD*%
D37*
%TO.C,SW1*%
X118237000Y-75057000D03*
X118237000Y-82807000D03*
%TD*%
D38*
%TO.C,J3*%
X76320002Y-24384000D03*
D17*
X78820002Y-24384000D03*
X81320000Y-24384000D03*
X83820000Y-24384000D03*
%TD*%
D18*
%TO.C,SW3*%
X87775000Y-46440000D03*
D19*
X87775000Y-43900000D03*
X87775000Y-41360001D03*
%TD*%
D39*
%TO.C,D2*%
X91850559Y-85999424D03*
X93725561Y-85999424D03*
%TD*%
D10*
%TO.C,TP3*%
X129975000Y-42100000D03*
%TD*%
D32*
%TO.C,SW2*%
X132715000Y-71120000D03*
X132715000Y-73620000D03*
%TD*%
%TO.C,J4*%
X66040000Y-74168000D03*
X66040000Y-71668000D03*
%TD*%
D23*
%TO.C,H4*%
X135382000Y-85598000D03*
%TD*%
D31*
%TO.C,TP2*%
X97175000Y-75700000D03*
%TD*%
M02*
