M48
; DRILL file {KiCad 8.0.8-8.0.8-0~ubuntu24.04.1} date 2025-08-07T16:45:36-0400
; FORMAT={-:-/ absolute / metric / decimal}
; #@! TF.CreationDate,2025-08-07T16:45:36-04:00
; #@! TF.GenerationSoftware,Kicad,Pcbnew,8.0.8-8.0.8-0~ubuntu24.04.1
; #@! TF.FileFunction,Plated,1,4,PTH
FMAT,2
METRIC
; #@! TA.AperFunction,Plated,PTH,ViaDrill
T1C0.300
; #@! TA.AperFunction,Plated,PTH,ViaDrill
T2C0.350
; #@! TA.AperFunction,Plated,PTH,ViaDrill
T3C0.400
; #@! TA.AperFunction,Plated,PTH,ComponentDrill
T4C0.711
; #@! TA.AperFunction,Plated,PTH,ComponentDrill
T5C0.838
; #@! TA.AperFunction,Plated,PTH,ComponentDrill
T6C0.991
; #@! TA.AperFunction,Plated,PTH,ComponentDrill
T7C1.000
%
G90
G05
T1
X70.036Y-81.212
X71.12Y-44.704
X72.136Y-30.48
X73.914Y-84.978
X82.296Y-36.322
X85.09Y-38.902
X85.09Y-70.739
X85.09Y-85.09
X86.106Y-46.482
X86.36Y-60.96
X90.424Y-70.742
X92.575Y-72.3
X93.175Y-49.752
X93.787Y-46.587
X93.853Y-62.484
X94.488Y-58.42
X94.775Y-46.8
X95.475Y-41.2
X95.775Y-46.6
X96.075Y-55.8
X96.475Y-43.5
X96.675Y-46.5
X97.075Y-55.1
X97.375Y-48.3
X97.875Y-54.3
X97.975Y-49.1
X98.275Y-41.6
X98.375Y-46.6
X99.575Y-46.6
X99.575Y-70.9
X100.375Y-52.7
X100.875Y-46.6
X101.875Y-51.7
X101.975Y-54.5
X102.146Y-46.571
X103.175Y-50.7
X103.404Y-25.432
X103.975Y-50.0
X104.362Y-47.487
X105.075Y-49.3
X105.975Y-48.6
X106.15Y-47.025
X106.675Y-44.0
X106.675Y-45.0
X106.775Y-39.3
X106.775Y-40.5
X106.775Y-41.7
X106.775Y-42.9
X107.375Y-62.558
X107.442Y-55.88
X107.975Y-47.1
X108.675Y-57.5
X108.839Y-55.499
X109.075Y-47.3
X110.675Y-44.4
X110.775Y-39.9
X110.875Y-47.2
X110.975Y-68.1
X111.475Y-46.4
X111.76Y-60.325
X111.76Y-81.28
X111.862Y-58.613
X112.323Y-52.5
X112.975Y-53.3
X113.1Y-60.2
X114.102Y-52.718
X114.975Y-52.5
X115.375Y-53.7
X115.575Y-54.7
X115.775Y-57.7
X115.775Y-63.4
X117.053Y-42.282
X117.221Y-69.088
X117.575Y-60.498
X117.775Y-55.9
X118.575Y-60.3
X118.853Y-47.322
X119.775Y-60.1
X120.125Y-47.45
X120.215Y-50.7
X120.523Y-57.531
X120.575Y-45.7
X120.975Y-49.5
X121.575Y-44.3
X121.92Y-30.48
X122.075Y-52.9
X122.075Y-56.7
X122.625Y-45.048
X122.775Y-48.752
X123.375Y-44.248
X123.375Y-50.8
X124.375Y-44.248
X125.475Y-48.9
X125.575Y-44.248
X125.575Y-47.1
X132.08Y-30.48
X132.08Y-81.28
T2
X85.852Y-65.024
X99.06Y-85.344
T3
X76.2Y-73.66
T4
X129.235Y-47.9
X129.235Y-49.9
X129.235Y-51.9
X129.235Y-53.9
X129.235Y-55.9
X129.235Y-57.9
X129.235Y-59.9
X129.235Y-61.9
X131.775Y-47.9
X131.775Y-49.9
X131.775Y-51.9
X131.775Y-53.9
X131.775Y-55.9
X131.775Y-57.9
X131.775Y-59.9
X131.775Y-61.9
T5
X92.308Y-31.098
X92.308Y-33.598
X94.308Y-31.098
X94.308Y-33.598
X96.308Y-31.098
X96.308Y-33.598
X98.308Y-31.098
X98.308Y-33.598
X100.308Y-31.098
X100.308Y-33.598
X102.308Y-31.098
X102.308Y-33.598
X104.308Y-31.098
X104.308Y-33.598
X106.308Y-31.098
X106.308Y-33.598
X108.308Y-31.098
X108.308Y-33.598
X110.308Y-31.098
X110.308Y-33.598
X112.308Y-31.098
X112.308Y-33.598
X114.308Y-31.098
X114.308Y-33.598
T6
X66.04Y-71.668
X66.04Y-74.168
X123.775Y-32.9
X126.275Y-32.9
X128.775Y-32.9
X132.715Y-71.12
X132.715Y-73.62
T7
X64.135Y-47.625
X64.135Y-50.165
X64.135Y-52.705
X64.135Y-55.245
X64.135Y-57.785
X64.135Y-60.325
X65.532Y-33.902
X65.532Y-36.402
X65.532Y-38.902
X65.532Y-41.402
X72.748Y-56.217
X72.748Y-51.137
X72.748Y-53.677
X72.748Y-58.758
X72.748Y-61.297
X75.288Y-51.137
X75.288Y-53.677
X75.288Y-58.758
X75.288Y-61.297
X75.288Y-56.217
X76.32Y-24.384
X78.82Y-24.384
X81.32Y-24.384
X83.82Y-24.384
X87.775Y-41.36
X87.775Y-43.9
X87.775Y-46.44
M30
