%TF.GenerationSoftware,KiCad,Pcbnew,8.0.8-8.0.8-0~ubuntu24.04.1*%
%TF.CreationDate,2025-08-07T16:45:33-04:00*%
%TF.ProjectId,mainboard,6d61696e-626f-4617-9264-2e6b69636164,rev?*%
%TF.SameCoordinates,Original*%
%TF.FileFunction,Copper,L4,Bot*%
%TF.FilePolarity,Positive*%
%FSLAX46Y46*%
G04 Gerber Fmt 4.6, Leading zero omitted, Abs format (unit mm)*
G04 Created by KiCad (PCBNEW 8.0.8-8.0.8-0~ubuntu24.04.1) date 2025-08-07 16:45:33*
%MOMM*%
%LPD*%
G01*
G04 APERTURE LIST*
G04 Aperture macros list*
%AMRoundRect*
0 Rectangle with rounded corners*
0 $1 Rounding radius*
0 $2 $3 $4 $5 $6 $7 $8 $9 X,Y pos of 4 corners*
0 Add a 4 corners polygon primitive as box body*
4,1,4,$2,$3,$4,$5,$6,$7,$8,$9,$2,$3,0*
0 Add four circle primitives for the rounded corners*
1,1,$1+$1,$2,$3*
1,1,$1+$1,$4,$5*
1,1,$1+$1,$6,$7*
1,1,$1+$1,$8,$9*
0 Add four rect primitives between the rounded corners*
20,1,$1+$1,$2,$3,$4,$5,0*
20,1,$1+$1,$4,$5,$6,$7,0*
20,1,$1+$1,$6,$7,$8,$9,0*
20,1,$1+$1,$8,$9,$2,$3,0*%
G04 Aperture macros list end*
%TA.AperFunction,SMDPad,CuDef*%
%ADD10R,3.800000X2.000000*%
%TD*%
%TA.AperFunction,SMDPad,CuDef*%
%ADD11O,2.000000X3.800000*%
%TD*%
%TA.AperFunction,ComponentPad*%
%ADD12R,1.508000X1.508000*%
%TD*%
%TA.AperFunction,ComponentPad*%
%ADD13C,1.508000*%
%TD*%
%TA.AperFunction,ComponentPad*%
%ADD14R,1.700000X1.700000*%
%TD*%
%TA.AperFunction,ComponentPad*%
%ADD15O,1.700000X1.700000*%
%TD*%
%TA.AperFunction,ComponentPad*%
%ADD16C,1.219200*%
%TD*%
%TA.AperFunction,ComponentPad*%
%ADD17C,1.498600*%
%TD*%
%TA.AperFunction,ComponentPad*%
%ADD18C,1.346200*%
%TD*%
%TA.AperFunction,SMDPad,CuDef*%
%ADD19RoundRect,0.250000X-0.159099X0.512652X-0.512652X0.159099X0.159099X-0.512652X0.512652X-0.159099X0*%
%TD*%
%TA.AperFunction,SMDPad,CuDef*%
%ADD20RoundRect,0.250000X-0.475000X0.250000X-0.475000X-0.250000X0.475000X-0.250000X0.475000X0.250000X0*%
%TD*%
%TA.AperFunction,ViaPad*%
%ADD21C,1.000000*%
%TD*%
%TA.AperFunction,ViaPad*%
%ADD22C,0.860000*%
%TD*%
%TA.AperFunction,ViaPad*%
%ADD23C,0.700000*%
%TD*%
%TA.AperFunction,Conductor*%
%ADD24C,0.889000*%
%TD*%
%TA.AperFunction,Conductor*%
%ADD25C,0.381000*%
%TD*%
%TA.AperFunction,Conductor*%
%ADD26C,0.254000*%
%TD*%
%TA.AperFunction,Conductor*%
%ADD27C,0.203200*%
%TD*%
%TA.AperFunction,Conductor*%
%ADD28C,0.200000*%
%TD*%
G04 APERTURE END LIST*
D10*
%TO.P,TP8,1,1*%
%TO.N,GND*%
X119380000Y-80010000D03*
%TD*%
%TO.P,TP6,1,1*%
%TO.N,GND*%
X82550000Y-60960000D03*
%TD*%
D11*
%TO.P,TP4,1,1*%
%TO.N,/programming/5v5_post_diode*%
X73660000Y-73660000D03*
%TD*%
D12*
%TO.P,J7,1,1*%
%TO.N,RST*%
X72748000Y-51137500D03*
D13*
%TO.P,J7,2,2*%
%TO.N,SWDIO*%
X75288000Y-51137500D03*
%TO.P,J7,3,3*%
%TO.N,GND*%
X72748000Y-53677500D03*
%TO.P,J7,4,4*%
X75288000Y-53677500D03*
%TO.P,J7,5,5*%
%TO.N,unconnected-(J7-Pad5)*%
X72747999Y-56217500D03*
%TO.P,J7,6,6*%
%TO.N,SWCLK*%
X75288001Y-56217500D03*
%TO.P,J7,7,7*%
%TO.N,unconnected-(J7-Pad7)*%
X72748000Y-58757500D03*
%TO.P,J7,8,8*%
%TO.N,unconnected-(J7-Pad8)*%
X75288000Y-58757500D03*
%TO.P,J7,9,9*%
%TO.N,/programming/5v5_in_jtag*%
X72748000Y-61297500D03*
%TO.P,J7,10,10*%
X75288000Y-61297500D03*
%TD*%
D14*
%TO.P,J6,1,Pin_1*%
%TO.N,unconnected-(J6-Pin_1-Pad1)*%
X64135000Y-47625000D03*
D15*
%TO.P,J6,2,Pin_2*%
%TO.N,PD2*%
X64135000Y-50165000D03*
%TO.P,J6,3,Pin_3*%
%TO.N,PC12*%
X64135000Y-52704999D03*
%TO.P,J6,4,Pin_4*%
%TO.N,unconnected-(J6-Pin_4-Pad4)*%
X64135000Y-55245000D03*
%TO.P,J6,5,Pin_5*%
%TO.N,GND*%
X64135000Y-57785000D03*
%TO.P,J6,6,Pin_6*%
X64135000Y-60325000D03*
%TD*%
D16*
%TO.P,U1,1,1*%
%TO.N,PA0*%
X129235000Y-61900000D03*
%TO.P,U1,2,2*%
%TO.N,PA1*%
X129235000Y-59900001D03*
%TO.P,U1,3,3*%
%TO.N,PA2*%
X129235000Y-57900000D03*
%TO.P,U1,4,4*%
%TO.N,PA3*%
X129235000Y-55900001D03*
%TO.P,U1,5,5*%
%TO.N,PA4*%
X129235000Y-53900000D03*
%TO.P,U1,6,6*%
%TO.N,PA5*%
X129235000Y-51900002D03*
%TO.P,U1,7,7*%
%TO.N,PA6*%
X129235000Y-49900001D03*
%TO.P,U1,8,8*%
%TO.N,PA7*%
X129235000Y-47900000D03*
%TO.P,U1,9,9*%
%TO.N,PA8*%
X131775000Y-61900000D03*
%TO.P,U1,10,10*%
%TO.N,PA9*%
X131775000Y-59900001D03*
%TO.P,U1,11,11*%
%TO.N,PA10*%
X131775000Y-57900000D03*
%TO.P,U1,12,12*%
%TO.N,PB11*%
X131775000Y-55900001D03*
%TO.P,U1,13,13*%
%TO.N,PB12*%
X131775000Y-53900000D03*
%TO.P,U1,14,14*%
%TO.N,PB13*%
X131775000Y-51900002D03*
%TO.P,U1,15,15*%
%TO.N,PB14*%
X131775000Y-49900001D03*
%TO.P,U1,16,16*%
%TO.N,unconnected-(U1-Pad16)*%
X131775000Y-47900000D03*
%TD*%
D17*
%TO.P,J5,1,Pin_1*%
%TO.N,+3.3V*%
X128775000Y-32900000D03*
%TO.P,J5,2,Pin_2*%
%TO.N,PC11*%
X126275000Y-32900000D03*
%TO.P,J5,3,Pin_3*%
%TO.N,GND*%
X123775000Y-32900000D03*
%TD*%
D12*
%TO.P,J2,1,1*%
%TO.N,PC13*%
X65532000Y-33902002D03*
D13*
%TO.P,J2,2,2*%
%TO.N,PC14*%
X65532000Y-36402002D03*
%TO.P,J2,3,3*%
%TO.N,PC15*%
X65532000Y-38902000D03*
%TO.P,J2,4,4*%
%TO.N,GND*%
X65532000Y-41402000D03*
%TD*%
D18*
%TO.P,J1,1,1*%
%TO.N,PB0*%
X92308399Y-31098306D03*
%TO.P,J1,2,2*%
%TO.N,PB1*%
X92308399Y-33598306D03*
%TO.P,J1,3,3*%
%TO.N,PB2*%
X94308400Y-31098306D03*
%TO.P,J1,4,4*%
%TO.N,PB3*%
X94308400Y-33598306D03*
%TO.P,J1,5,5*%
%TO.N,PB4*%
X96308398Y-31098306D03*
%TO.P,J1,6,6*%
%TO.N,PB5*%
X96308398Y-33598306D03*
%TO.P,J1,7,7*%
%TO.N,PB6*%
X98308400Y-31098306D03*
%TO.P,J1,8,8*%
%TO.N,PB7*%
X98308400Y-33598306D03*
%TO.P,J1,9,9*%
%TO.N,PB8*%
X100308398Y-31098306D03*
%TO.P,J1,10,10*%
%TO.N,PB9*%
X100308398Y-33598306D03*
%TO.P,J1,11,11*%
%TO.N,PB10*%
X102308399Y-31098306D03*
%TO.P,J1,12,12*%
%TO.N,PC0*%
X102308399Y-33598306D03*
%TO.P,J1,13,13*%
%TO.N,PC1*%
X104308400Y-31098306D03*
%TO.P,J1,14,14*%
%TO.N,PC2*%
X104308400Y-33598306D03*
%TO.P,J1,15,15*%
%TO.N,PC3*%
X106308399Y-31098306D03*
%TO.P,J1,16,16*%
%TO.N,PC4*%
X106308399Y-33598306D03*
%TO.P,J1,17,17*%
%TO.N,PC5*%
X108308400Y-31098306D03*
%TO.P,J1,18,18*%
%TO.N,PC6*%
X108308400Y-33598306D03*
%TO.P,J1,19,19*%
%TO.N,PC7*%
X110308398Y-31098306D03*
%TO.P,J1,20,20*%
%TO.N,PC8*%
X110308398Y-33598306D03*
%TO.P,J1,21,21*%
%TO.N,PC9*%
X112308399Y-31098306D03*
%TO.P,J1,22,22*%
%TO.N,PC10*%
X112308399Y-33598306D03*
%TO.P,J1,23,23*%
%TO.N,+3.3V*%
X114308398Y-31098306D03*
%TO.P,J1,24,24*%
%TO.N,GND*%
X114308398Y-33598306D03*
%TD*%
D12*
%TO.P,J3,1,1*%
%TO.N,PC13*%
X76320002Y-24384000D03*
D13*
%TO.P,J3,2,2*%
%TO.N,PC14*%
X78820002Y-24384000D03*
%TO.P,J3,3,3*%
%TO.N,PC15*%
X81320000Y-24384000D03*
%TO.P,J3,4,4*%
%TO.N,GND*%
X83820000Y-24384000D03*
%TD*%
D14*
%TO.P,SW3,1,A*%
%TO.N,GND*%
X87775000Y-46440000D03*
D15*
%TO.P,SW3,2,B*%
%TO.N,/stm/SW_BOOT0*%
X87775000Y-43900000D03*
%TO.P,SW3,3,C*%
%TO.N,+3.3V*%
X87775000Y-41360001D03*
%TD*%
D17*
%TO.P,SW2,1,A*%
%TO.N,RST*%
X132715000Y-71120000D03*
%TO.P,SW2,2,B*%
%TO.N,GND*%
X132715000Y-73620000D03*
%TD*%
%TO.P,J4,1,1*%
%TO.N,+3.3V*%
X66040000Y-74168000D03*
%TO.P,J4,2,2*%
%TO.N,GND*%
X66040000Y-71668000D03*
%TD*%
D19*
%TO.P,C8,1*%
%TO.N,+3.3V*%
X116946751Y-54978249D03*
%TO.P,C8,2*%
%TO.N,GND*%
X115603249Y-56321751D03*
%TD*%
%TO.P,C6,1*%
%TO.N,+3.3V*%
X103046751Y-55428249D03*
%TO.P,C6,2*%
%TO.N,GND*%
X101703249Y-56771751D03*
%TD*%
D20*
%TO.P,C7,1*%
%TO.N,+3.3V*%
X115775000Y-64900000D03*
%TO.P,C7,2*%
%TO.N,GND*%
X115775000Y-66799998D03*
%TD*%
D21*
%TO.N,/programming/5v5_post_diode*%
X76200000Y-73660000D03*
D22*
%TO.N,+3.3V*%
X85852000Y-65024000D03*
D23*
X115775000Y-63400000D03*
X117775000Y-55900000D03*
X107442000Y-55880000D03*
X101975000Y-54500000D03*
D22*
X99060000Y-85344000D03*
D23*
%TO.N,GND*%
X86106000Y-46482000D03*
X120523000Y-57531000D03*
X114975000Y-52500000D03*
X86360000Y-60960000D03*
X93853000Y-62484000D03*
X117052938Y-42282474D03*
X111760000Y-81280000D03*
X117221000Y-69088000D03*
X108839000Y-55499000D03*
X73914000Y-84978200D03*
X85090000Y-85090000D03*
X71120000Y-44704000D03*
X85090000Y-70739000D03*
X90424000Y-70742000D03*
X111760000Y-60325000D03*
X113100000Y-60200000D03*
X132080000Y-81280000D03*
X70036498Y-81212281D03*
X72136000Y-30480000D03*
X92575000Y-72300000D03*
X132080000Y-30480000D03*
X99575000Y-70900000D03*
X103403938Y-25431856D03*
X121920000Y-30480000D03*
%TO.N,PC9*%
X125575000Y-47100000D03*
X125575000Y-44248400D03*
%TO.N,PC3*%
X111861519Y-58613481D03*
X106775000Y-39300000D03*
%TO.N,PC8*%
X124375000Y-44248400D03*
X122775000Y-48751600D03*
%TO.N,PC6*%
X120215072Y-50700000D03*
X121575000Y-44300000D03*
%TO.N,PB8*%
X110875000Y-47200000D03*
X106675000Y-45000000D03*
%TO.N,PC2*%
X114101870Y-52718283D03*
X106775000Y-40500000D03*
%TO.N,PC10*%
X109075000Y-47300000D03*
X110775000Y-39900000D03*
%TO.N,PB3*%
X102146288Y-46571288D03*
X105975000Y-48600000D03*
%TO.N,PC5*%
X115575000Y-54700000D03*
%TO.N,PB10*%
X115775000Y-57700000D03*
%TO.N,PB9*%
X111475000Y-46400000D03*
X106675000Y-44000000D03*
%TO.N,PC7*%
X120975000Y-49500000D03*
X123375000Y-44248400D03*
%TO.N,PB5*%
X99575000Y-46600000D03*
X103975000Y-50000000D03*
X96475000Y-43500000D03*
%TO.N,PC0*%
X112323400Y-52500000D03*
X106775000Y-42900000D03*
%TO.N,PC1*%
X112975000Y-53300000D03*
X106775000Y-41700000D03*
%TO.N,PB2*%
X119775000Y-60100000D03*
%TO.N,PC4*%
X115375000Y-53700000D03*
%TO.N,PB6*%
X98375000Y-46600000D03*
X103175000Y-50700000D03*
%TO.N,PB7*%
X101875000Y-51700000D03*
X98275000Y-41600000D03*
%TO.N,PB1*%
X118575000Y-60300000D03*
X94488000Y-58420000D03*
%TO.N,PB0*%
X117575000Y-60498400D03*
%TO.N,PB4*%
X95475000Y-41200000D03*
X105075000Y-49300000D03*
X100875000Y-46600000D03*
%TO.N,PA8*%
X122625000Y-45048400D03*
X120125000Y-47450000D03*
%TO.N,PB14*%
X125475000Y-48900000D03*
%TO.N,PB11*%
X122075000Y-56700000D03*
%TO.N,PB12*%
X122075000Y-52900000D03*
%TO.N,PB13*%
X123375000Y-50800000D03*
%TO.N,PA9*%
X120575000Y-45700000D03*
X118852695Y-47322305D03*
%TO.N,PC15*%
X94775000Y-46800000D03*
X96075000Y-55800000D03*
X85090000Y-38902000D03*
%TO.N,PC14*%
X82296000Y-36322000D03*
X97075000Y-55100000D03*
X95775000Y-46600000D03*
%TO.N,PC13*%
X97875000Y-54300000D03*
X96675000Y-46500000D03*
%TO.N,/stm/BOOT0*%
X100375000Y-52700000D03*
X93787500Y-46587500D03*
%TO.N,PC11*%
X107975000Y-47100000D03*
X110675000Y-44400000D03*
%TO.N,PD2*%
X97375000Y-48300000D03*
X104362302Y-47487302D03*
%TO.N,PC12*%
X106150000Y-47025000D03*
X97975000Y-49100000D03*
%TO.N,RST*%
X107375000Y-62558000D03*
X110975000Y-68100000D03*
X108675000Y-57500000D03*
X93175000Y-49751600D03*
%TD*%
D24*
%TO.N,/programming/5v5_post_diode*%
X76200000Y-73660000D02*
X73660000Y-73660000D01*
D25*
%TO.N,+3.3V*%
X102903249Y-55428249D02*
X101975000Y-54500000D01*
D26*
X116946751Y-55071751D02*
X117775000Y-55900000D01*
D25*
X103046751Y-55428249D02*
X102903249Y-55428249D01*
D26*
X116946751Y-54978249D02*
X116946751Y-55071751D01*
X115775000Y-63400000D02*
X115775000Y-64900000D01*
D27*
%TO.N,PC9*%
X117775000Y-30700000D02*
X116575000Y-29500000D01*
X116575000Y-29500000D02*
X112975000Y-29500000D01*
X112975000Y-29500000D02*
X112308399Y-30166601D01*
X112308399Y-30166601D02*
X112308399Y-31098306D01*
X125575000Y-44248400D02*
X125575000Y-43100000D01*
X125575000Y-43100000D02*
X117775000Y-35300000D01*
X117775000Y-35300000D02*
X117775000Y-30700000D01*
%TO.N,PC8*%
X112410092Y-35700000D02*
X110308398Y-33598306D01*
X116175000Y-35700000D02*
X112410092Y-35700000D01*
X124375000Y-43900000D02*
X116175000Y-35700000D01*
X124375000Y-44248400D02*
X124375000Y-43900000D01*
%TO.N,PC6*%
X112575000Y-38700000D02*
X115975000Y-38700000D01*
X108308400Y-33598306D02*
X108308400Y-34433400D01*
X115975000Y-38700000D02*
X121575000Y-44300000D01*
X108308400Y-34433400D02*
X112575000Y-38700000D01*
%TO.N,PC10*%
X110775000Y-39900000D02*
X108775000Y-41900000D01*
X108775000Y-47000000D02*
X109075000Y-47300000D01*
X108775000Y-41900000D02*
X108775000Y-47000000D01*
%TO.N,PC5*%
X107283099Y-34408099D02*
X107283099Y-32123607D01*
X116975000Y-44100000D02*
X107283099Y-34408099D01*
X115575000Y-54700000D02*
X116975000Y-53300000D01*
X107283099Y-32123607D02*
X108308400Y-31098306D01*
X116975000Y-53300000D02*
X116975000Y-44100000D01*
%TO.N,PB10*%
X105656373Y-45981373D02*
X101329040Y-41654040D01*
X107323400Y-46848400D02*
X106456373Y-45981373D01*
X106456373Y-45981373D02*
X105656373Y-45981373D01*
X115775000Y-57700000D02*
X115775000Y-57668133D01*
X101329040Y-32077665D02*
X102308399Y-31098306D01*
X107323400Y-49216533D02*
X107323400Y-46848400D01*
X101329040Y-41654040D02*
X101329040Y-32077665D01*
X115775000Y-57668133D02*
X107323400Y-49216533D01*
%TO.N,PC7*%
X109333698Y-34258698D02*
X109333698Y-32073006D01*
X123375000Y-44248400D02*
X116226600Y-37100000D01*
X109333698Y-32073006D02*
X110308398Y-31098306D01*
X112175000Y-37100000D02*
X109333698Y-34258698D01*
X116226600Y-37100000D02*
X112175000Y-37100000D01*
%TO.N,PB5*%
X96308398Y-43333398D02*
X96308398Y-33598306D01*
X96475000Y-43500000D02*
X96308398Y-43333398D01*
%TO.N,PB2*%
X90975000Y-29700000D02*
X92910094Y-29700000D01*
X89571800Y-31103200D02*
X90975000Y-29700000D01*
X96450400Y-61906400D02*
X89571800Y-55027800D01*
X92910094Y-29700000D02*
X94308400Y-31098306D01*
X118368600Y-61906400D02*
X96450400Y-61906400D01*
X119775000Y-60500000D02*
X118368600Y-61906400D01*
X119775000Y-60100000D02*
X119775000Y-60500000D01*
X89571800Y-55027800D02*
X89571800Y-31103200D01*
%TO.N,PC4*%
X115975000Y-53100000D02*
X115375000Y-53700000D01*
X106308399Y-33598306D02*
X106308399Y-34511897D01*
X106308399Y-34511897D02*
X115975000Y-44178498D01*
X115975000Y-44178498D02*
X115975000Y-53100000D01*
%TO.N,PB6*%
X98375000Y-46600000D02*
X97333700Y-45558700D01*
X97333700Y-32073006D02*
X98308400Y-31098306D01*
X97333700Y-45558700D02*
X97333700Y-32073006D01*
%TO.N,PB1*%
X117491702Y-61503200D02*
X118575000Y-60419902D01*
X94488000Y-58587399D02*
X97403801Y-61503200D01*
X118575000Y-60419902D02*
X118575000Y-60300000D01*
X97403801Y-61503200D02*
X117491702Y-61503200D01*
X94488000Y-58420000D02*
X94488000Y-58587399D01*
%TO.N,PB0*%
X98775000Y-61100000D02*
X90375000Y-52700000D01*
X116973400Y-61100000D02*
X98775000Y-61100000D01*
X90375000Y-52700000D02*
X90375000Y-33031705D01*
X90375000Y-33031705D02*
X92308399Y-31098306D01*
X117575000Y-60498400D02*
X116973400Y-61100000D01*
%TO.N,PB4*%
X95283100Y-32123604D02*
X96308398Y-31098306D01*
X95475000Y-41200000D02*
X95283100Y-41008100D01*
X95283100Y-41008100D02*
X95283100Y-32123604D01*
%TO.N,PA8*%
X122625000Y-45050000D02*
X120225000Y-47450000D01*
X122625000Y-45048400D02*
X122625000Y-45050000D01*
X120225000Y-47450000D02*
X120125000Y-47450000D01*
%TO.N,PB14*%
X130774999Y-48900000D02*
X131775000Y-49900001D01*
X125475000Y-48900000D02*
X130774999Y-48900000D01*
%TO.N,PB11*%
X130775000Y-54900001D02*
X131775000Y-55900001D01*
X123875000Y-54900000D02*
X130775000Y-54900000D01*
X130775000Y-54900000D02*
X130775000Y-54900001D01*
X122075000Y-56700000D02*
X123875000Y-54900000D01*
%TO.N,PB12*%
X122075000Y-52900000D02*
X130775000Y-52900000D01*
X130775000Y-52900000D02*
X131775000Y-53900000D01*
%TO.N,PB13*%
X130774998Y-50900000D02*
X131775000Y-51900002D01*
X123675000Y-50900000D02*
X130774998Y-50900000D01*
X123375000Y-50800000D02*
X123575000Y-50800000D01*
X123575000Y-50800000D02*
X123675000Y-50900000D01*
%TO.N,PA9*%
X120475000Y-45700000D02*
X118852695Y-47322305D01*
X120575000Y-45700000D02*
X120475000Y-45700000D01*
D28*
%TO.N,PC15*%
X81320000Y-24384000D02*
X85090000Y-28154000D01*
X85090000Y-28154000D02*
X85090000Y-38902000D01*
%TO.N,PC14*%
X78820002Y-24384000D02*
X82296000Y-27859998D01*
X82296000Y-27859998D02*
X82296000Y-36322000D01*
D27*
%TO.N,/stm/BOOT0*%
X97575000Y-52700000D02*
X100375000Y-52700000D01*
X93787500Y-46587500D02*
X93787500Y-48912500D01*
X93787500Y-48912500D02*
X97575000Y-52700000D01*
%TO.N,PD2*%
X103549604Y-48300000D02*
X104362302Y-47487302D01*
X97375000Y-48300000D02*
X103549604Y-48300000D01*
%TO.N,PC12*%
X106150000Y-47025000D02*
X104075000Y-49100000D01*
X104075000Y-49100000D02*
X97975000Y-49100000D01*
%TO.N,RST*%
X108175000Y-56800000D02*
X106275000Y-56800000D01*
X106275000Y-56800000D02*
X102826600Y-53351600D01*
X108175000Y-65300000D02*
X110975000Y-68100000D01*
X102826600Y-53351600D02*
X97026600Y-53351600D01*
X108675000Y-57500000D02*
X108675000Y-57300000D01*
X107375000Y-62700000D02*
X108175000Y-63500000D01*
X93475000Y-49800000D02*
X93426600Y-49751600D01*
X97026600Y-53351600D02*
X93475000Y-49800000D01*
X108175000Y-63500000D02*
X108175000Y-65300000D01*
X107375000Y-62558000D02*
X107375000Y-62700000D01*
X93426600Y-49751600D02*
X93175000Y-49751600D01*
X108675000Y-57300000D02*
X108175000Y-56800000D01*
%TD*%
%TA.AperFunction,Conductor*%
%TO.N,GND*%
G36*
X111472616Y-40534027D02*
G01*
X111499323Y-40554319D01*
X115336581Y-44391577D01*
X115370066Y-44452900D01*
X115372900Y-44479258D01*
X115372900Y-52730532D01*
X115353215Y-52797571D01*
X115300411Y-52843326D01*
X115274681Y-52851822D01*
X115104376Y-52888022D01*
X115103870Y-52885643D01*
X115044999Y-52887299D01*
X114985182Y-52851191D01*
X114954383Y-52788476D01*
X114953256Y-52754426D01*
X114957055Y-52718283D01*
X114938367Y-52540480D01*
X114905917Y-52440610D01*
X114883122Y-52370453D01*
X114883119Y-52370447D01*
X114883071Y-52370363D01*
X114793729Y-52215618D01*
X114736598Y-52152168D01*
X114674105Y-52082761D01*
X114674102Y-52082759D01*
X114674101Y-52082758D01*
X114674100Y-52082757D01*
X114529463Y-51977671D01*
X114366137Y-51904954D01*
X114366135Y-51904953D01*
X114223892Y-51874719D01*
X114191261Y-51867783D01*
X114012479Y-51867783D01*
X113981824Y-51874298D01*
X113837603Y-51904953D01*
X113837598Y-51904955D01*
X113674278Y-51977670D01*
X113529638Y-52082758D01*
X113410011Y-52215617D01*
X113367061Y-52290009D01*
X113316493Y-52338224D01*
X113247886Y-52351446D01*
X113183022Y-52325478D01*
X113142494Y-52268564D01*
X113141743Y-52266326D01*
X113141141Y-52264474D01*
X113119327Y-52197335D01*
X113104652Y-52152170D01*
X113104649Y-52152164D01*
X113015259Y-51997335D01*
X112963062Y-51939365D01*
X112895635Y-51864478D01*
X112895632Y-51864476D01*
X112895631Y-51864475D01*
X112895630Y-51864474D01*
X112750993Y-51759388D01*
X112587667Y-51686671D01*
X112587665Y-51686670D01*
X112459994Y-51659533D01*
X112412791Y-51649500D01*
X112234009Y-51649500D01*
X112203354Y-51656015D01*
X112059133Y-51686670D01*
X112059128Y-51686672D01*
X111895808Y-51759387D01*
X111751168Y-51864475D01*
X111631540Y-51997336D01*
X111542150Y-52152164D01*
X111542148Y-52152168D01*
X111498829Y-52285490D01*
X111459391Y-52343165D01*
X111395032Y-52370363D01*
X111326186Y-52358448D01*
X111293217Y-52334852D01*
X107961819Y-49003454D01*
X107928334Y-48942131D01*
X107925500Y-48915773D01*
X107925500Y-48074500D01*
X107945185Y-48007461D01*
X107997989Y-47961706D01*
X108049500Y-47950500D01*
X108064389Y-47950500D01*
X108064391Y-47950500D01*
X108239267Y-47913329D01*
X108330796Y-47872577D01*
X108400044Y-47863293D01*
X108463321Y-47892921D01*
X108473379Y-47902884D01*
X108502770Y-47935526D01*
X108647407Y-48040612D01*
X108810733Y-48113329D01*
X108985609Y-48150500D01*
X108985610Y-48150500D01*
X109164389Y-48150500D01*
X109164391Y-48150500D01*
X109339267Y-48113329D01*
X109502593Y-48040612D01*
X109647230Y-47935526D01*
X109766859Y-47802665D01*
X109856250Y-47647835D01*
X109876504Y-47585498D01*
X109915940Y-47527823D01*
X109980299Y-47500624D01*
X110049145Y-47512538D01*
X110100622Y-47559782D01*
X110101818Y-47561809D01*
X110183141Y-47702665D01*
X110217395Y-47740708D01*
X110302764Y-47835521D01*
X110302767Y-47835523D01*
X110302770Y-47835526D01*
X110447407Y-47940612D01*
X110610733Y-48013329D01*
X110785609Y-48050500D01*
X110785610Y-48050500D01*
X110964389Y-48050500D01*
X110964391Y-48050500D01*
X111139267Y-48013329D01*
X111302593Y-47940612D01*
X111447230Y-47835526D01*
X111456737Y-47824968D01*
X111481167Y-47797835D01*
X111566859Y-47702665D01*
X111656250Y-47547835D01*
X111711497Y-47377803D01*
X111720785Y-47289422D01*
X111747369Y-47224810D01*
X111793668Y-47189108D01*
X111902593Y-47140612D01*
X112047230Y-47035526D01*
X112166859Y-46902665D01*
X112256250Y-46747835D01*
X112311497Y-46577803D01*
X112330185Y-46400000D01*
X112311497Y-46222197D01*
X112256250Y-46052165D01*
X112166859Y-45897335D01*
X112120003Y-45845296D01*
X112047235Y-45764478D01*
X112047232Y-45764476D01*
X112047231Y-45764475D01*
X112047230Y-45764474D01*
X111902593Y-45659388D01*
X111739267Y-45586671D01*
X111739265Y-45586670D01*
X111611594Y-45559533D01*
X111564391Y-45549500D01*
X111385609Y-45549500D01*
X111354954Y-45556015D01*
X111210733Y-45586670D01*
X111210728Y-45586672D01*
X111047408Y-45659387D01*
X110902768Y-45764475D01*
X110783140Y-45897336D01*
X110693750Y-46052164D01*
X110693747Y-46052170D01*
X110638504Y-46222192D01*
X110638502Y-46222203D01*
X110629212Y-46310577D01*
X110602627Y-46375191D01*
X110556329Y-46410892D01*
X110447406Y-46459388D01*
X110302768Y-46564475D01*
X110183140Y-46697336D01*
X110093750Y-46852164D01*
X110093748Y-46852168D01*
X110073495Y-46914502D01*
X110034057Y-46972177D01*
X109969698Y-46999375D01*
X109900852Y-46987460D01*
X109849376Y-46940216D01*
X109848177Y-46938182D01*
X109766862Y-46797339D01*
X109766860Y-46797336D01*
X109647235Y-46664478D01*
X109647232Y-46664476D01*
X109647231Y-46664475D01*
X109647230Y-46664474D01*
X109502593Y-46559388D01*
X109476285Y-46547675D01*
X109450663Y-46536267D01*
X109397427Y-46491016D01*
X109377106Y-46424167D01*
X109377100Y-46422988D01*
X109377100Y-44400000D01*
X109819815Y-44400000D01*
X109838503Y-44577805D01*
X109838504Y-44577807D01*
X109893747Y-44747829D01*
X109893750Y-44747835D01*
X109983141Y-44902665D01*
X110013520Y-44936404D01*
X110102764Y-45035521D01*
X110102767Y-45035523D01*
X110102770Y-45035526D01*
X110247407Y-45140612D01*
X110410733Y-45213329D01*
X110585609Y-45250500D01*
X110585610Y-45250500D01*
X110764389Y-45250500D01*
X110764391Y-45250500D01*
X110939267Y-45213329D01*
X111102593Y-45140612D01*
X111247230Y-45035526D01*
X111366859Y-44902665D01*
X111456250Y-44747835D01*
X111511497Y-44577803D01*
X111530185Y-44400000D01*
X111511497Y-44222197D01*
X111462238Y-44070594D01*
X111456252Y-44052170D01*
X111456249Y-44052164D01*
X111366859Y-43897335D01*
X111320003Y-43845296D01*
X111247235Y-43764478D01*
X111247232Y-43764476D01*
X111247231Y-43764475D01*
X111247230Y-43764474D01*
X111102593Y-43659388D01*
X110939267Y-43586671D01*
X110939265Y-43586670D01*
X110810783Y-43559361D01*
X110764391Y-43549500D01*
X110585609Y-43549500D01*
X110554954Y-43556015D01*
X110410733Y-43586670D01*
X110410728Y-43586672D01*
X110247408Y-43659387D01*
X110102768Y-43764475D01*
X109983140Y-43897336D01*
X109893750Y-44052164D01*
X109893747Y-44052170D01*
X109838504Y-44222192D01*
X109838503Y-44222194D01*
X109819815Y-44400000D01*
X109377100Y-44400000D01*
X109377100Y-42200760D01*
X109396785Y-42133721D01*
X109413419Y-42113079D01*
X110739679Y-40786819D01*
X110801002Y-40753334D01*
X110827360Y-40750500D01*
X110864389Y-40750500D01*
X110864391Y-40750500D01*
X111039267Y-40713329D01*
X111202593Y-40640612D01*
X111338758Y-40541681D01*
X111404562Y-40518202D01*
X111472616Y-40534027D01*
G37*
%TD.AperFunction*%
%TA.AperFunction,Conductor*%
G36*
X116341279Y-30121785D02*
G01*
X116361921Y-30138419D01*
X117136581Y-30913079D01*
X117170066Y-30974402D01*
X117172900Y-31000760D01*
X117172900Y-35379268D01*
X117188458Y-35437329D01*
X117213933Y-35532402D01*
X117227981Y-35556734D01*
X117244452Y-35624635D01*
X117221600Y-35690661D01*
X117166678Y-35733851D01*
X117097124Y-35740492D01*
X117035022Y-35708475D01*
X117032912Y-35706414D01*
X116544699Y-35218201D01*
X116544691Y-35218195D01*
X116447081Y-35161841D01*
X116447078Y-35161840D01*
X116439415Y-35157416D01*
X116407404Y-35138934D01*
X116407403Y-35138933D01*
X116356357Y-35125255D01*
X116254268Y-35097900D01*
X116254266Y-35097900D01*
X112710852Y-35097900D01*
X112643813Y-35078215D01*
X112623171Y-35061581D01*
X112513014Y-34951424D01*
X112479529Y-34890101D01*
X112484513Y-34820409D01*
X112526385Y-34764476D01*
X112577907Y-34741855D01*
X112630946Y-34731941D01*
X112833759Y-34653371D01*
X113018681Y-34538871D01*
X113179416Y-34392343D01*
X113259184Y-34286712D01*
X113287299Y-34265849D01*
X113891489Y-33661660D01*
X113917859Y-33760072D01*
X113973035Y-33855639D01*
X114051065Y-33933669D01*
X114146632Y-33988845D01*
X114245043Y-34015214D01*
X113674609Y-34585646D01*
X113674610Y-34585647D01*
X113783258Y-34652919D01*
X113783264Y-34652922D01*
X113985986Y-34731456D01*
X114199696Y-34771406D01*
X114417100Y-34771406D01*
X114630809Y-34731456D01*
X114833533Y-34652921D01*
X114833535Y-34652920D01*
X114942185Y-34585646D01*
X114371753Y-34015214D01*
X114470164Y-33988845D01*
X114565731Y-33933669D01*
X114643761Y-33855639D01*
X114698937Y-33760072D01*
X114725306Y-33661660D01*
X115298054Y-34234408D01*
X115310059Y-34218511D01*
X115406966Y-34023897D01*
X115466464Y-33814781D01*
X115486524Y-33598306D01*
X115486524Y-33598305D01*
X115466464Y-33381830D01*
X115406966Y-33172714D01*
X115310064Y-32978109D01*
X115310056Y-32978096D01*
X115298053Y-32962202D01*
X114725306Y-33534950D01*
X114698937Y-33436540D01*
X114643761Y-33340973D01*
X114565731Y-33262943D01*
X114470164Y-33207767D01*
X114371753Y-33181397D01*
X114942185Y-32610964D01*
X114942184Y-32610963D01*
X114833537Y-32543693D01*
X114833531Y-32543689D01*
X114628347Y-32464201D01*
X114572945Y-32421628D01*
X114549355Y-32355861D01*
X114565066Y-32287781D01*
X114615090Y-32239002D01*
X114628347Y-32232947D01*
X114630942Y-32231941D01*
X114630945Y-32231941D01*
X114833758Y-32153371D01*
X115018680Y-32038871D01*
X115179415Y-31892343D01*
X115310488Y-31718774D01*
X115407436Y-31524076D01*
X115407436Y-31524073D01*
X115407438Y-31524071D01*
X115446914Y-31385324D01*
X115466958Y-31314878D01*
X115487026Y-31098306D01*
X115480134Y-31023933D01*
X115466958Y-30881734D01*
X115466957Y-30881731D01*
X115407438Y-30672540D01*
X115407435Y-30672534D01*
X115361857Y-30581001D01*
X115310488Y-30477838D01*
X115199073Y-30330300D01*
X115176816Y-30300827D01*
X115152124Y-30235465D01*
X115166689Y-30167131D01*
X115215887Y-30117518D01*
X115275770Y-30102100D01*
X116274240Y-30102100D01*
X116341279Y-30121785D01*
G37*
%TD.AperFunction*%
%TA.AperFunction,Conductor*%
G36*
X113396444Y-31839991D02*
G01*
X113407350Y-31852577D01*
X113431514Y-31884574D01*
X113437381Y-31892343D01*
X113598116Y-32038871D01*
X113783038Y-32153371D01*
X113911429Y-32203110D01*
X113988448Y-32232947D01*
X114043849Y-32275520D01*
X114067440Y-32341287D01*
X114051729Y-32409367D01*
X114001705Y-32458146D01*
X113988448Y-32464200D01*
X113783272Y-32543686D01*
X113783259Y-32543692D01*
X113674609Y-32610964D01*
X114245043Y-33181397D01*
X114146632Y-33207767D01*
X114051065Y-33262943D01*
X113973035Y-33340973D01*
X113917859Y-33436540D01*
X113891489Y-33534951D01*
X113300954Y-32944416D01*
X113298470Y-32943870D01*
X113259182Y-32909896D01*
X113212228Y-32847719D01*
X113179416Y-32804269D01*
X113018681Y-32657741D01*
X112833759Y-32543241D01*
X112833758Y-32543240D01*
X112708258Y-32494622D01*
X112630946Y-32464671D01*
X112630944Y-32464670D01*
X112629040Y-32463933D01*
X112573639Y-32421360D01*
X112550048Y-32355593D01*
X112565759Y-32287513D01*
X112615783Y-32238734D01*
X112629040Y-32232679D01*
X112630944Y-32231941D01*
X112630946Y-32231941D01*
X112833759Y-32153371D01*
X113018681Y-32038871D01*
X113179416Y-31892343D01*
X113209445Y-31852577D01*
X113265550Y-31810943D01*
X113335262Y-31806250D01*
X113396444Y-31839991D01*
G37*
%TD.AperFunction*%
%TA.AperFunction,Conductor*%
G36*
X74822075Y-53870493D02*
G01*
X74887901Y-53984507D01*
X74980993Y-54077599D01*
X75095007Y-54143425D01*
X75158590Y-54160462D01*
X74595555Y-54723496D01*
X74658601Y-54767642D01*
X74658609Y-54767646D01*
X74802711Y-54834842D01*
X74855151Y-54881014D01*
X74874303Y-54948207D01*
X74854087Y-55015089D01*
X74802712Y-55059606D01*
X74658354Y-55126921D01*
X74658350Y-55126923D01*
X74478548Y-55252822D01*
X74478542Y-55252827D01*
X74323328Y-55408041D01*
X74323323Y-55408047D01*
X74197424Y-55587849D01*
X74197420Y-55587857D01*
X74130382Y-55731622D01*
X74084210Y-55784062D01*
X74017016Y-55803214D01*
X73950135Y-55782998D01*
X73905618Y-55731622D01*
X73845484Y-55602665D01*
X73838578Y-55587854D01*
X73838576Y-55587851D01*
X73838575Y-55587849D01*
X73712676Y-55408047D01*
X73712671Y-55408041D01*
X73557457Y-55252827D01*
X73557451Y-55252822D01*
X73377649Y-55126923D01*
X73377645Y-55126921D01*
X73233287Y-55059606D01*
X73180848Y-55013434D01*
X73161696Y-54946240D01*
X73181912Y-54879359D01*
X73233288Y-54834842D01*
X73377390Y-54767646D01*
X73440443Y-54723495D01*
X72877410Y-54160462D01*
X72940993Y-54143425D01*
X73055007Y-54077599D01*
X73148099Y-53984507D01*
X73213925Y-53870493D01*
X73230962Y-53806909D01*
X73793995Y-54369942D01*
X73838145Y-54306892D01*
X73905618Y-54162197D01*
X73951790Y-54109758D01*
X74018984Y-54090606D01*
X74085865Y-54110822D01*
X74130382Y-54162197D01*
X74197854Y-54306892D01*
X74242003Y-54369943D01*
X74805037Y-53806909D01*
X74822075Y-53870493D01*
G37*
%TD.AperFunction*%
%TA.AperFunction,Conductor*%
G36*
X74207700Y-51788333D02*
G01*
X74228073Y-51810922D01*
X74323326Y-51946957D01*
X74323327Y-51946958D01*
X74478541Y-52102172D01*
X74478547Y-52102177D01*
X74658349Y-52228076D01*
X74658351Y-52228077D01*
X74658354Y-52228079D01*
X74740376Y-52266326D01*
X74802710Y-52295393D01*
X74855150Y-52341565D01*
X74874302Y-52408758D01*
X74854086Y-52475640D01*
X74802712Y-52520157D01*
X74658603Y-52587357D01*
X74595556Y-52631503D01*
X74595555Y-52631503D01*
X75158590Y-53194537D01*
X75095007Y-53211575D01*
X74980993Y-53277401D01*
X74887901Y-53370493D01*
X74822075Y-53484507D01*
X74805037Y-53548090D01*
X74242003Y-52985055D01*
X74242003Y-52985056D01*
X74197856Y-53048104D01*
X74197855Y-53048106D01*
X74130382Y-53192802D01*
X74084209Y-53245241D01*
X74017016Y-53264393D01*
X73950135Y-53244177D01*
X73905618Y-53192802D01*
X73838144Y-53048105D01*
X73838142Y-53048101D01*
X73793996Y-52985055D01*
X73230962Y-53548089D01*
X73213925Y-53484507D01*
X73148099Y-53370493D01*
X73055007Y-53277401D01*
X72940993Y-53211575D01*
X72877409Y-53194537D01*
X73440443Y-52631503D01*
X73420550Y-52617574D01*
X73376925Y-52562997D01*
X73369731Y-52493499D01*
X73401254Y-52431144D01*
X73461484Y-52395730D01*
X73491672Y-52391999D01*
X73549872Y-52391999D01*
X73609483Y-52385591D01*
X73744331Y-52335296D01*
X73859546Y-52249046D01*
X73945796Y-52133831D01*
X73996091Y-51998983D01*
X74002500Y-51939373D01*
X74002499Y-51882045D01*
X74022182Y-51815009D01*
X74074986Y-51769253D01*
X74144144Y-51759309D01*
X74207700Y-51788333D01*
G37*
%TD.AperFunction*%
%TA.AperFunction,Conductor*%
G36*
X64385000Y-59891988D02*
G01*
X64327993Y-59859075D01*
X64200826Y-59825000D01*
X64069174Y-59825000D01*
X63942007Y-59859075D01*
X63885000Y-59891988D01*
X63885000Y-58218012D01*
X63942007Y-58250925D01*
X64069174Y-58285000D01*
X64200826Y-58285000D01*
X64327993Y-58250925D01*
X64385000Y-58218012D01*
X64385000Y-59891988D01*
G37*
%TD.AperFunction*%
%TA.AperFunction,Conductor*%
G36*
X137874201Y-21332185D02*
G01*
X137894843Y-21348819D01*
X139687181Y-23141157D01*
X139720666Y-23202480D01*
X139723500Y-23228838D01*
X139723500Y-88023162D01*
X139703815Y-88090201D01*
X139687181Y-88110843D01*
X137894843Y-89903181D01*
X137833520Y-89936666D01*
X137807162Y-89939500D01*
X64122838Y-89939500D01*
X64055799Y-89919815D01*
X64035157Y-89903181D01*
X62242819Y-88110843D01*
X62209334Y-88049520D01*
X62206500Y-88023162D01*
X62206500Y-85463186D01*
X64147500Y-85463186D01*
X64147500Y-85732813D01*
X64177686Y-86000719D01*
X64177688Y-86000731D01*
X64237684Y-86263594D01*
X64237687Y-86263602D01*
X64326734Y-86518082D01*
X64443714Y-86760994D01*
X64443716Y-86760997D01*
X64587162Y-86989289D01*
X64755266Y-87200085D01*
X64945915Y-87390734D01*
X65156711Y-87558838D01*
X65385003Y-87702284D01*
X65627921Y-87819267D01*
X65819049Y-87886145D01*
X65882397Y-87908312D01*
X65882405Y-87908315D01*
X65882408Y-87908315D01*
X65882409Y-87908316D01*
X66145268Y-87968312D01*
X66413187Y-87998499D01*
X66413188Y-87998500D01*
X66413191Y-87998500D01*
X66682812Y-87998500D01*
X66682812Y-87998499D01*
X66950732Y-87968312D01*
X67213591Y-87908316D01*
X67468079Y-87819267D01*
X67710997Y-87702284D01*
X67939289Y-87558838D01*
X68150085Y-87390734D01*
X68340734Y-87200085D01*
X68508838Y-86989289D01*
X68652284Y-86760997D01*
X68769267Y-86518079D01*
X68858316Y-86263591D01*
X68918312Y-86000732D01*
X68948500Y-85732809D01*
X68948500Y-85463191D01*
X68935070Y-85344000D01*
X98124375Y-85344000D01*
X98144821Y-85538528D01*
X98205264Y-85724555D01*
X98205265Y-85724556D01*
X98303060Y-85893942D01*
X98303063Y-85893947D01*
X98433945Y-86039305D01*
X98548916Y-86122836D01*
X98592188Y-86154276D01*
X98770876Y-86233832D01*
X98962201Y-86274500D01*
X99157799Y-86274500D01*
X99349124Y-86233832D01*
X99527813Y-86154275D01*
X99686055Y-86039305D01*
X99816937Y-85893947D01*
X99914736Y-85724553D01*
X99975179Y-85538527D01*
X99983098Y-85463186D01*
X132981500Y-85463186D01*
X132981500Y-85732813D01*
X133011686Y-86000719D01*
X133011688Y-86000731D01*
X133071684Y-86263594D01*
X133071687Y-86263602D01*
X133160734Y-86518082D01*
X133277714Y-86760994D01*
X133277716Y-86760997D01*
X133421162Y-86989289D01*
X133589266Y-87200085D01*
X133779915Y-87390734D01*
X133990711Y-87558838D01*
X134219003Y-87702284D01*
X134461921Y-87819267D01*
X134653049Y-87886145D01*
X134716397Y-87908312D01*
X134716405Y-87908315D01*
X134716408Y-87908315D01*
X134716409Y-87908316D01*
X134979268Y-87968312D01*
X135247187Y-87998499D01*
X135247188Y-87998500D01*
X135247191Y-87998500D01*
X135516812Y-87998500D01*
X135516812Y-87998499D01*
X135784732Y-87968312D01*
X136047591Y-87908316D01*
X136302079Y-87819267D01*
X136544997Y-87702284D01*
X136773289Y-87558838D01*
X136984085Y-87390734D01*
X137174734Y-87200085D01*
X137342838Y-86989289D01*
X137486284Y-86760997D01*
X137603267Y-86518079D01*
X137692316Y-86263591D01*
X137752312Y-86000732D01*
X137782500Y-85732809D01*
X137782500Y-85463191D01*
X137752312Y-85195268D01*
X137692316Y-84932409D01*
X137603267Y-84677921D01*
X137486284Y-84435003D01*
X137342838Y-84206711D01*
X137174734Y-83995915D01*
X136984085Y-83805266D01*
X136773289Y-83637162D01*
X136544997Y-83493716D01*
X136544994Y-83493714D01*
X136302082Y-83376734D01*
X136047602Y-83287687D01*
X136047594Y-83287684D01*
X135850446Y-83242687D01*
X135784732Y-83227688D01*
X135784728Y-83227687D01*
X135784719Y-83227686D01*
X135516813Y-83197500D01*
X135516809Y-83197500D01*
X135247191Y-83197500D01*
X135247186Y-83197500D01*
X134979280Y-83227686D01*
X134979268Y-83227688D01*
X134716405Y-83287684D01*
X134716397Y-83287687D01*
X134461917Y-83376734D01*
X134219005Y-83493714D01*
X133990712Y-83637161D01*
X133779915Y-83805265D01*
X133589265Y-83995915D01*
X133421161Y-84206712D01*
X133277714Y-84435005D01*
X133160734Y-84677917D01*
X133071687Y-84932397D01*
X133071684Y-84932405D01*
X133011688Y-85195268D01*
X133011686Y-85195280D01*
X132981500Y-85463186D01*
X99983098Y-85463186D01*
X99995625Y-85344000D01*
X99975179Y-85149473D01*
X99914736Y-84963447D01*
X99914735Y-84963446D01*
X99914735Y-84963444D01*
X99914734Y-84963443D01*
X99816939Y-84794057D01*
X99816937Y-84794053D01*
X99686055Y-84648695D01*
X99614355Y-84596601D01*
X99527811Y-84533723D01*
X99349123Y-84454167D01*
X99157799Y-84413500D01*
X98962201Y-84413500D01*
X98770876Y-84454167D01*
X98770871Y-84454169D01*
X98592188Y-84533725D01*
X98592183Y-84533727D01*
X98433948Y-84648692D01*
X98433945Y-84648694D01*
X98433945Y-84648695D01*
X98303063Y-84794053D01*
X98303061Y-84794054D01*
X98303060Y-84794057D01*
X98205265Y-84963443D01*
X98205264Y-84963444D01*
X98144821Y-85149471D01*
X98124375Y-85344000D01*
X68935070Y-85344000D01*
X68918312Y-85195268D01*
X68858316Y-84932409D01*
X68769267Y-84677921D01*
X68652284Y-84435003D01*
X68508838Y-84206711D01*
X68340734Y-83995915D01*
X68150085Y-83805266D01*
X67939289Y-83637162D01*
X67710997Y-83493716D01*
X67710994Y-83493714D01*
X67468082Y-83376734D01*
X67213602Y-83287687D01*
X67213594Y-83287684D01*
X67016446Y-83242687D01*
X66950732Y-83227688D01*
X66950728Y-83227687D01*
X66950719Y-83227686D01*
X66682813Y-83197500D01*
X66682809Y-83197500D01*
X66413191Y-83197500D01*
X66413186Y-83197500D01*
X66145280Y-83227686D01*
X66145268Y-83227688D01*
X65882405Y-83287684D01*
X65882397Y-83287687D01*
X65627917Y-83376734D01*
X65385005Y-83493714D01*
X65156712Y-83637161D01*
X64945915Y-83805265D01*
X64755265Y-83995915D01*
X64587161Y-84206712D01*
X64443714Y-84435005D01*
X64326734Y-84677917D01*
X64237687Y-84932397D01*
X64237684Y-84932405D01*
X64177688Y-85195268D01*
X64177686Y-85195280D01*
X64147500Y-85463186D01*
X62206500Y-85463186D01*
X62206500Y-81057844D01*
X116980000Y-81057844D01*
X116986401Y-81117372D01*
X116986403Y-81117379D01*
X117036645Y-81252086D01*
X117036649Y-81252093D01*
X117122809Y-81367187D01*
X117122812Y-81367190D01*
X117237906Y-81453350D01*
X117237913Y-81453354D01*
X117372620Y-81503596D01*
X117372627Y-81503598D01*
X117432155Y-81509999D01*
X117432172Y-81510000D01*
X119130000Y-81510000D01*
X119630000Y-81510000D01*
X121327828Y-81510000D01*
X121327844Y-81509999D01*
X121387372Y-81503598D01*
X121387379Y-81503596D01*
X121522086Y-81453354D01*
X121522093Y-81453350D01*
X121637187Y-81367190D01*
X121637190Y-81367187D01*
X121723350Y-81252093D01*
X121723354Y-81252086D01*
X121773596Y-81117379D01*
X121773598Y-81117372D01*
X121779999Y-81057844D01*
X121780000Y-81057827D01*
X121780000Y-80260000D01*
X119630000Y-80260000D01*
X119630000Y-81510000D01*
X119130000Y-81510000D01*
X119130000Y-80260000D01*
X116980000Y-80260000D01*
X116980000Y-81057844D01*
X62206500Y-81057844D01*
X62206500Y-78962155D01*
X116980000Y-78962155D01*
X116980000Y-79760000D01*
X119130000Y-79760000D01*
X119630000Y-79760000D01*
X121780000Y-79760000D01*
X121780000Y-78962172D01*
X121779999Y-78962155D01*
X121773598Y-78902627D01*
X121773596Y-78902620D01*
X121723354Y-78767913D01*
X121723350Y-78767906D01*
X121637190Y-78652812D01*
X121637187Y-78652809D01*
X121522093Y-78566649D01*
X121522086Y-78566645D01*
X121387379Y-78516403D01*
X121387372Y-78516401D01*
X121327844Y-78510000D01*
X119630000Y-78510000D01*
X119630000Y-79760000D01*
X119130000Y-79760000D01*
X119130000Y-78510000D01*
X117432155Y-78510000D01*
X117372627Y-78516401D01*
X117372620Y-78516403D01*
X117237913Y-78566645D01*
X117237906Y-78566649D01*
X117122812Y-78652809D01*
X117122809Y-78652812D01*
X117036649Y-78767906D01*
X117036645Y-78767913D01*
X116986403Y-78902620D01*
X116986401Y-78902627D01*
X116980000Y-78962155D01*
X62206500Y-78962155D01*
X62206500Y-74167999D01*
X64785426Y-74167999D01*
X64785426Y-74168000D01*
X64804485Y-74385849D01*
X64804487Y-74385859D01*
X64861083Y-74597082D01*
X64861085Y-74597086D01*
X64861086Y-74597090D01*
X64884111Y-74646467D01*
X64953506Y-74795286D01*
X64978593Y-74831114D01*
X65078941Y-74974425D01*
X65233575Y-75129059D01*
X65412713Y-75254493D01*
X65610910Y-75346914D01*
X65822146Y-75403514D01*
X65996429Y-75418762D01*
X66039999Y-75422574D01*
X66040000Y-75422574D01*
X66040001Y-75422574D01*
X66076309Y-75419397D01*
X66257854Y-75403514D01*
X66469090Y-75346914D01*
X66667287Y-75254493D01*
X66846425Y-75129059D01*
X67001059Y-74974425D01*
X67126493Y-74795287D01*
X67218914Y-74597090D01*
X67275514Y-74385854D01*
X67294574Y-74168000D01*
X67275514Y-73950146D01*
X67218914Y-73738910D01*
X67126493Y-73540713D01*
X67001059Y-73361575D01*
X66846425Y-73206941D01*
X66695783Y-73101460D01*
X66667286Y-73081506D01*
X66557056Y-73030105D01*
X66504617Y-72983932D01*
X66485465Y-72916739D01*
X66505681Y-72849858D01*
X66557057Y-72805340D01*
X66667037Y-72754056D01*
X66729069Y-72710621D01*
X66660350Y-72641902D01*
X72159500Y-72641902D01*
X72159500Y-74678097D01*
X72196446Y-74911368D01*
X72269433Y-75135996D01*
X72329811Y-75254493D01*
X72376657Y-75346433D01*
X72515483Y-75537510D01*
X72682490Y-75704517D01*
X72873567Y-75843343D01*
X72972991Y-75894002D01*
X73084003Y-75950566D01*
X73084005Y-75950566D01*
X73084008Y-75950568D01*
X73204412Y-75989689D01*
X73308631Y-76023553D01*
X73541903Y-76060500D01*
X73541908Y-76060500D01*
X73778097Y-76060500D01*
X74011368Y-76023553D01*
X74235992Y-75950568D01*
X74446433Y-75843343D01*
X74637510Y-75704517D01*
X74804517Y-75537510D01*
X74943343Y-75346433D01*
X75050568Y-75135992D01*
X75123553Y-74911368D01*
X75132478Y-74855018D01*
X75155510Y-74709602D01*
X75185439Y-74646467D01*
X75244751Y-74609536D01*
X75277983Y-74605000D01*
X75850235Y-74605000D01*
X75886230Y-74610339D01*
X75950241Y-74629756D01*
X76003868Y-74646024D01*
X76200000Y-74665341D01*
X76396132Y-74646024D01*
X76584727Y-74588814D01*
X76758538Y-74495910D01*
X76910883Y-74370883D01*
X77035910Y-74218538D01*
X77109134Y-74081546D01*
X77128811Y-74044733D01*
X77128811Y-74044732D01*
X77128814Y-74044727D01*
X77186024Y-73856132D01*
X77205341Y-73660000D01*
X77186024Y-73463868D01*
X77128814Y-73275273D01*
X77128811Y-73275269D01*
X77128811Y-73275266D01*
X77035913Y-73101467D01*
X77035909Y-73101460D01*
X76910883Y-72949116D01*
X76758539Y-72824090D01*
X76758532Y-72824086D01*
X76584733Y-72731188D01*
X76584727Y-72731186D01*
X76396132Y-72673976D01*
X76396129Y-72673975D01*
X76200000Y-72654659D01*
X76003869Y-72673975D01*
X75886230Y-72709661D01*
X75850235Y-72715000D01*
X75277983Y-72715000D01*
X75210944Y-72695315D01*
X75165189Y-72642511D01*
X75155510Y-72610398D01*
X75123553Y-72408631D01*
X75050566Y-72184003D01*
X74943342Y-71973566D01*
X74909092Y-71926425D01*
X74804517Y-71782490D01*
X74637510Y-71615483D01*
X74446433Y-71476657D01*
X74394583Y-71450238D01*
X74235996Y-71369433D01*
X74011368Y-71296446D01*
X73778097Y-71259500D01*
X73778092Y-71259500D01*
X73541908Y-71259500D01*
X73541903Y-71259500D01*
X73308631Y-71296446D01*
X73084003Y-71369433D01*
X72873566Y-71476657D01*
X72773883Y-71549082D01*
X72682490Y-71615483D01*
X72682488Y-71615485D01*
X72682487Y-71615485D01*
X72515485Y-71782487D01*
X72515485Y-71782488D01*
X72515483Y-71782490D01*
X72459765Y-71859179D01*
X72376657Y-71973566D01*
X72269433Y-72184003D01*
X72196446Y-72408631D01*
X72159500Y-72641902D01*
X66660350Y-72641902D01*
X66165573Y-72147125D01*
X66231179Y-72129546D01*
X66344121Y-72064339D01*
X66436339Y-71972121D01*
X66501546Y-71859179D01*
X66519125Y-71793573D01*
X67082621Y-72357069D01*
X67126057Y-72295035D01*
X67218440Y-72096919D01*
X67218444Y-72096910D01*
X67275018Y-71885771D01*
X67275020Y-71885761D01*
X67294072Y-71668001D01*
X67294072Y-71667998D01*
X67275020Y-71450238D01*
X67275018Y-71450228D01*
X67218444Y-71239089D01*
X67218440Y-71239080D01*
X67162912Y-71119999D01*
X131460426Y-71119999D01*
X131460426Y-71120000D01*
X131479485Y-71337849D01*
X131479487Y-71337859D01*
X131536083Y-71549082D01*
X131536085Y-71549086D01*
X131536086Y-71549090D01*
X131561128Y-71602793D01*
X131628506Y-71747286D01*
X131628507Y-71747287D01*
X131753941Y-71926425D01*
X131908575Y-72081059D01*
X132087713Y-72206493D01*
X132197943Y-72257894D01*
X132250382Y-72304066D01*
X132269534Y-72371260D01*
X132249318Y-72438141D01*
X132197943Y-72482658D01*
X132087964Y-72533942D01*
X132025930Y-72577377D01*
X132589428Y-73140874D01*
X132523821Y-73158454D01*
X132410879Y-73223661D01*
X132318661Y-73315879D01*
X132253454Y-73428821D01*
X132235874Y-73494427D01*
X131672377Y-72930930D01*
X131628942Y-72992964D01*
X131536559Y-73191080D01*
X131536555Y-73191089D01*
X131479981Y-73402228D01*
X131479979Y-73402238D01*
X131460928Y-73619998D01*
X131460928Y-73620001D01*
X131479979Y-73837761D01*
X131479981Y-73837771D01*
X131536555Y-74048910D01*
X131536559Y-74048919D01*
X131628944Y-74247039D01*
X131672376Y-74309068D01*
X131672377Y-74309069D01*
X132235874Y-73745572D01*
X132253454Y-73811179D01*
X132318661Y-73924121D01*
X132410879Y-74016339D01*
X132523821Y-74081546D01*
X132589427Y-74099125D01*
X132025929Y-74662621D01*
X132025930Y-74662622D01*
X132087960Y-74706055D01*
X132286080Y-74798440D01*
X132286089Y-74798444D01*
X132497228Y-74855018D01*
X132497238Y-74855020D01*
X132714998Y-74874072D01*
X132715002Y-74874072D01*
X132932761Y-74855020D01*
X132932771Y-74855018D01*
X133143910Y-74798444D01*
X133143919Y-74798440D01*
X133342035Y-74706057D01*
X133404069Y-74662621D01*
X132840573Y-74099125D01*
X132906179Y-74081546D01*
X133019121Y-74016339D01*
X133111339Y-73924121D01*
X133176546Y-73811179D01*
X133194125Y-73745573D01*
X133757621Y-74309069D01*
X133801057Y-74247035D01*
X133893440Y-74048919D01*
X133893444Y-74048910D01*
X133950018Y-73837771D01*
X133950020Y-73837761D01*
X133969072Y-73620001D01*
X133969072Y-73619998D01*
X133950020Y-73402238D01*
X133950018Y-73402228D01*
X133893444Y-73191089D01*
X133893440Y-73191080D01*
X133801055Y-72992960D01*
X133757622Y-72930930D01*
X133757621Y-72930929D01*
X133194124Y-73494426D01*
X133176546Y-73428821D01*
X133111339Y-73315879D01*
X133019121Y-73223661D01*
X132906179Y-73158454D01*
X132840572Y-73140874D01*
X133404069Y-72577377D01*
X133404068Y-72577376D01*
X133342038Y-72533943D01*
X133342036Y-72533942D01*
X133232057Y-72482658D01*
X133179617Y-72436486D01*
X133160465Y-72369292D01*
X133180681Y-72302411D01*
X133232057Y-72257894D01*
X133342287Y-72206493D01*
X133521425Y-72081059D01*
X133676059Y-71926425D01*
X133801493Y-71747287D01*
X133893914Y-71549090D01*
X133950514Y-71337854D01*
X133969574Y-71120000D01*
X133950514Y-70902146D01*
X133893914Y-70690910D01*
X133801493Y-70492713D01*
X133676059Y-70313575D01*
X133521425Y-70158941D01*
X133342287Y-70033507D01*
X133342288Y-70033507D01*
X133342286Y-70033506D01*
X133243188Y-69987296D01*
X133144090Y-69941086D01*
X133144086Y-69941085D01*
X133144082Y-69941083D01*
X132932859Y-69884487D01*
X132932849Y-69884485D01*
X132715001Y-69865426D01*
X132714999Y-69865426D01*
X132497150Y-69884485D01*
X132497140Y-69884487D01*
X132285917Y-69941083D01*
X132285908Y-69941087D01*
X132087713Y-70033506D01*
X131968201Y-70117190D01*
X131908575Y-70158941D01*
X131908573Y-70158942D01*
X131908570Y-70158945D01*
X131753945Y-70313570D01*
X131628506Y-70492713D01*
X131536087Y-70690908D01*
X131536083Y-70690917D01*
X131479487Y-70902140D01*
X131479485Y-70902150D01*
X131460426Y-71119999D01*
X67162912Y-71119999D01*
X67126055Y-71040960D01*
X67082622Y-70978930D01*
X67082621Y-70978929D01*
X66519124Y-71542426D01*
X66501546Y-71476821D01*
X66436339Y-71363879D01*
X66344121Y-71271661D01*
X66231179Y-71206454D01*
X66165572Y-71188874D01*
X66729069Y-70625377D01*
X66729068Y-70625376D01*
X66667039Y-70581944D01*
X66468919Y-70489559D01*
X66468910Y-70489555D01*
X66257771Y-70432981D01*
X66257761Y-70432979D01*
X66040002Y-70413928D01*
X66039998Y-70413928D01*
X65822238Y-70432979D01*
X65822228Y-70432981D01*
X65611089Y-70489555D01*
X65611080Y-70489559D01*
X65412964Y-70581942D01*
X65350930Y-70625377D01*
X65914428Y-71188874D01*
X65848821Y-71206454D01*
X65735879Y-71271661D01*
X65643661Y-71363879D01*
X65578454Y-71476821D01*
X65560874Y-71542427D01*
X64997377Y-70978930D01*
X64953942Y-71040964D01*
X64861559Y-71239080D01*
X64861555Y-71239089D01*
X64804981Y-71450228D01*
X64804979Y-71450238D01*
X64785928Y-71667998D01*
X64785928Y-71668001D01*
X64804979Y-71885761D01*
X64804981Y-71885771D01*
X64861555Y-72096910D01*
X64861559Y-72096919D01*
X64953944Y-72295039D01*
X64997376Y-72357068D01*
X64997377Y-72357069D01*
X65560874Y-71793572D01*
X65578454Y-71859179D01*
X65643661Y-71972121D01*
X65735879Y-72064339D01*
X65848821Y-72129546D01*
X65914427Y-72147125D01*
X65350929Y-72710621D01*
X65350930Y-72710622D01*
X65412961Y-72754056D01*
X65412962Y-72754057D01*
X65522942Y-72805341D01*
X65575382Y-72851513D01*
X65594534Y-72918706D01*
X65574319Y-72985587D01*
X65522944Y-73030105D01*
X65412711Y-73081508D01*
X65384217Y-73101460D01*
X65233575Y-73206941D01*
X65233573Y-73206942D01*
X65233570Y-73206945D01*
X65078945Y-73361570D01*
X65078942Y-73361573D01*
X65078941Y-73361575D01*
X65037190Y-73421201D01*
X64953506Y-73540713D01*
X64861087Y-73738908D01*
X64861083Y-73738917D01*
X64804487Y-73950140D01*
X64804485Y-73950150D01*
X64785426Y-74167999D01*
X62206500Y-74167999D01*
X62206500Y-65024000D01*
X84916375Y-65024000D01*
X84936821Y-65218528D01*
X84997264Y-65404555D01*
X84997265Y-65404556D01*
X85034663Y-65469331D01*
X85095063Y-65573947D01*
X85225945Y-65719305D01*
X85264462Y-65747289D01*
X85384188Y-65834276D01*
X85562876Y-65913832D01*
X85754201Y-65954500D01*
X85949799Y-65954500D01*
X86141124Y-65913832D01*
X86318380Y-65834913D01*
X86319811Y-65834276D01*
X86319811Y-65834275D01*
X86319813Y-65834275D01*
X86478055Y-65719305D01*
X86608937Y-65573947D01*
X86706736Y-65404553D01*
X86767179Y-65218527D01*
X86787625Y-65024000D01*
X86767179Y-64829473D01*
X86706736Y-64643447D01*
X86706735Y-64643446D01*
X86706735Y-64643444D01*
X86706734Y-64643443D01*
X86622303Y-64497204D01*
X86608937Y-64474053D01*
X86478055Y-64328695D01*
X86406355Y-64276601D01*
X86319811Y-64213723D01*
X86141123Y-64134167D01*
X85949799Y-64093500D01*
X85754201Y-64093500D01*
X85562876Y-64134167D01*
X85562871Y-64134169D01*
X85384188Y-64213725D01*
X85384183Y-64213727D01*
X85225948Y-64328692D01*
X85225945Y-64328694D01*
X85225945Y-64328695D01*
X85095063Y-64474053D01*
X85095061Y-64474054D01*
X85095060Y-64474057D01*
X84997265Y-64643443D01*
X84997264Y-64643444D01*
X84936821Y-64829471D01*
X84916375Y-65024000D01*
X62206500Y-65024000D01*
X62206500Y-50164999D01*
X62779341Y-50164999D01*
X62779341Y-50165000D01*
X62799936Y-50400403D01*
X62799938Y-50400413D01*
X62861094Y-50628655D01*
X62861096Y-50628659D01*
X62861097Y-50628663D01*
X62936178Y-50789675D01*
X62960965Y-50842830D01*
X62960967Y-50842834D01*
X63055477Y-50977807D01*
X63096505Y-51036401D01*
X63263599Y-51203495D01*
X63405225Y-51302663D01*
X63449157Y-51333424D01*
X63492782Y-51388001D01*
X63499976Y-51457499D01*
X63468453Y-51519854D01*
X63449158Y-51536574D01*
X63263594Y-51666507D01*
X63096505Y-51833596D01*
X62960965Y-52027168D01*
X62960964Y-52027170D01*
X62861098Y-52241334D01*
X62861094Y-52241343D01*
X62799938Y-52469585D01*
X62799936Y-52469595D01*
X62779341Y-52704998D01*
X62779341Y-52704999D01*
X62799936Y-52940402D01*
X62799938Y-52940412D01*
X62861094Y-53168654D01*
X62861096Y-53168658D01*
X62861097Y-53168662D01*
X62911803Y-53277401D01*
X62960965Y-53382829D01*
X62960967Y-53382833D01*
X63096501Y-53576394D01*
X63096506Y-53576401D01*
X63263597Y-53743492D01*
X63263603Y-53743497D01*
X63449158Y-53873424D01*
X63492783Y-53928001D01*
X63499977Y-53997499D01*
X63468454Y-54059854D01*
X63449159Y-54076574D01*
X63263594Y-54206508D01*
X63096505Y-54373597D01*
X62960965Y-54567169D01*
X62960964Y-54567171D01*
X62861098Y-54781335D01*
X62861094Y-54781344D01*
X62799938Y-55009586D01*
X62799936Y-55009596D01*
X62779341Y-55244999D01*
X62779341Y-55245000D01*
X62799936Y-55480403D01*
X62799938Y-55480413D01*
X62861094Y-55708655D01*
X62861096Y-55708659D01*
X62861097Y-55708663D01*
X62925449Y-55846666D01*
X62960965Y-55922830D01*
X62960967Y-55922834D01*
X63068560Y-56076492D01*
X63088420Y-56104855D01*
X63096501Y-56116395D01*
X63096506Y-56116402D01*
X63263597Y-56283493D01*
X63263603Y-56283498D01*
X63291085Y-56302741D01*
X63433791Y-56402665D01*
X63449594Y-56413730D01*
X63493219Y-56468307D01*
X63500413Y-56537805D01*
X63468890Y-56600160D01*
X63449595Y-56616880D01*
X63263922Y-56746890D01*
X63263920Y-56746891D01*
X63096891Y-56913920D01*
X63096886Y-56913926D01*
X62961400Y-57107420D01*
X62961399Y-57107422D01*
X62861570Y-57321507D01*
X62861567Y-57321513D01*
X62804364Y-57534999D01*
X62804364Y-57535000D01*
X63701988Y-57535000D01*
X63669075Y-57592007D01*
X63635000Y-57719174D01*
X63635000Y-57850826D01*
X63669075Y-57977993D01*
X63701988Y-58035000D01*
X62804364Y-58035000D01*
X62861567Y-58248486D01*
X62861570Y-58248492D01*
X62961399Y-58462578D01*
X63096894Y-58656082D01*
X63263917Y-58823105D01*
X63450031Y-58953425D01*
X63493656Y-59008003D01*
X63500848Y-59077501D01*
X63469326Y-59139856D01*
X63450031Y-59156575D01*
X63263922Y-59286890D01*
X63263920Y-59286891D01*
X63096891Y-59453920D01*
X63096886Y-59453926D01*
X62961400Y-59647420D01*
X62961399Y-59647422D01*
X62861570Y-59861507D01*
X62861567Y-59861513D01*
X62804364Y-60074999D01*
X62804364Y-60075000D01*
X63701988Y-60075000D01*
X63669075Y-60132007D01*
X63635000Y-60259174D01*
X63635000Y-60390826D01*
X63669075Y-60517993D01*
X63701988Y-60575000D01*
X62804364Y-60575000D01*
X62861567Y-60788486D01*
X62861570Y-60788492D01*
X62961399Y-61002578D01*
X63096894Y-61196082D01*
X63263917Y-61363105D01*
X63457421Y-61498600D01*
X63671507Y-61598429D01*
X63671516Y-61598433D01*
X63885000Y-61655634D01*
X63885000Y-60758012D01*
X63942007Y-60790925D01*
X64069174Y-60825000D01*
X64200826Y-60825000D01*
X64327993Y-60790925D01*
X64385000Y-60758012D01*
X64385000Y-61655633D01*
X64598483Y-61598433D01*
X64598492Y-61598429D01*
X64812578Y-61498600D01*
X65006082Y-61363105D01*
X65173105Y-61196082D01*
X65308600Y-61002578D01*
X65408429Y-60788492D01*
X65408432Y-60788486D01*
X65465636Y-60575000D01*
X64568012Y-60575000D01*
X64600925Y-60517993D01*
X64635000Y-60390826D01*
X64635000Y-60259174D01*
X64600925Y-60132007D01*
X64568012Y-60075000D01*
X65465636Y-60075000D01*
X65465635Y-60074999D01*
X65408432Y-59861513D01*
X65408429Y-59861507D01*
X65308600Y-59647422D01*
X65308599Y-59647420D01*
X65173113Y-59453926D01*
X65173108Y-59453920D01*
X65006082Y-59286894D01*
X64819968Y-59156575D01*
X64776344Y-59101998D01*
X64769151Y-59032499D01*
X64800673Y-58970145D01*
X64819968Y-58953425D01*
X65006082Y-58823105D01*
X65173105Y-58656082D01*
X65308600Y-58462578D01*
X65408429Y-58248492D01*
X65408432Y-58248486D01*
X65465636Y-58035000D01*
X64568012Y-58035000D01*
X64600925Y-57977993D01*
X64635000Y-57850826D01*
X64635000Y-57719174D01*
X64600925Y-57592007D01*
X64568012Y-57535000D01*
X65465636Y-57535000D01*
X65465635Y-57534999D01*
X65408432Y-57321513D01*
X65408429Y-57321507D01*
X65308600Y-57107422D01*
X65308599Y-57107420D01*
X65173113Y-56913926D01*
X65173108Y-56913920D01*
X65006078Y-56746890D01*
X64820405Y-56616879D01*
X64776780Y-56562302D01*
X64769588Y-56492804D01*
X64801110Y-56430449D01*
X64820406Y-56413730D01*
X65006401Y-56283495D01*
X65072399Y-56217497D01*
X71488707Y-56217497D01*
X71488707Y-56217502D01*
X71507837Y-56436168D01*
X71507838Y-56436175D01*
X71516448Y-56468307D01*
X71564652Y-56648203D01*
X71564653Y-56648206D01*
X71564654Y-56648208D01*
X71657418Y-56847142D01*
X71657422Y-56847150D01*
X71783321Y-57026952D01*
X71783326Y-57026958D01*
X71938540Y-57182172D01*
X71938546Y-57182177D01*
X72118348Y-57308076D01*
X72118350Y-57308077D01*
X72118353Y-57308079D01*
X72177214Y-57335526D01*
X72262119Y-57375118D01*
X72314559Y-57421290D01*
X72333711Y-57488483D01*
X72313495Y-57555365D01*
X72262120Y-57599882D01*
X72118353Y-57666921D01*
X72118349Y-57666923D01*
X71938547Y-57792822D01*
X71938541Y-57792827D01*
X71783327Y-57948041D01*
X71783322Y-57948047D01*
X71657423Y-58127849D01*
X71657419Y-58127857D01*
X71564655Y-58326791D01*
X71564653Y-58326795D01*
X71564653Y-58326797D01*
X71562315Y-58335523D01*
X71507839Y-58538824D01*
X71507838Y-58538831D01*
X71488708Y-58757497D01*
X71488708Y-58757502D01*
X71507838Y-58976168D01*
X71507839Y-58976175D01*
X71524240Y-59037385D01*
X71564653Y-59188203D01*
X71564654Y-59188206D01*
X71564655Y-59188208D01*
X71657419Y-59387142D01*
X71657423Y-59387150D01*
X71783322Y-59566952D01*
X71783327Y-59566958D01*
X71938541Y-59722172D01*
X71938547Y-59722177D01*
X72118349Y-59848076D01*
X72118351Y-59848077D01*
X72118354Y-59848079D01*
X72202963Y-59887532D01*
X72262120Y-59915118D01*
X72314560Y-59961290D01*
X72333712Y-60028483D01*
X72313496Y-60095365D01*
X72262120Y-60139882D01*
X72118357Y-60206919D01*
X72118349Y-60206923D01*
X71938547Y-60332822D01*
X71938541Y-60332827D01*
X71783327Y-60488041D01*
X71783322Y-60488047D01*
X71657423Y-60667849D01*
X71657419Y-60667857D01*
X71564655Y-60866791D01*
X71564653Y-60866795D01*
X71564653Y-60866797D01*
X71551581Y-60915582D01*
X71507839Y-61078824D01*
X71507838Y-61078831D01*
X71488708Y-61297497D01*
X71488708Y-61297502D01*
X71506301Y-61498600D01*
X71507839Y-61516174D01*
X71564653Y-61728203D01*
X71564654Y-61728206D01*
X71564655Y-61728208D01*
X71657419Y-61927142D01*
X71657423Y-61927150D01*
X71783322Y-62106952D01*
X71783327Y-62106958D01*
X71938541Y-62262172D01*
X71938547Y-62262177D01*
X72118349Y-62388076D01*
X72118351Y-62388077D01*
X72118354Y-62388079D01*
X72317297Y-62480847D01*
X72529326Y-62537661D01*
X72685521Y-62551326D01*
X72747998Y-62556792D01*
X72748000Y-62556792D01*
X72748002Y-62556792D01*
X72802668Y-62552009D01*
X72966674Y-62537661D01*
X73178703Y-62480847D01*
X73377646Y-62388079D01*
X73557457Y-62262174D01*
X73712674Y-62106957D01*
X73838579Y-61927146D01*
X73905618Y-61783378D01*
X73951790Y-61730939D01*
X74018983Y-61711787D01*
X74085864Y-61732002D01*
X74130382Y-61783379D01*
X74197419Y-61927142D01*
X74197423Y-61927150D01*
X74323322Y-62106952D01*
X74323327Y-62106958D01*
X74478541Y-62262172D01*
X74478547Y-62262177D01*
X74658349Y-62388076D01*
X74658351Y-62388077D01*
X74658354Y-62388079D01*
X74857297Y-62480847D01*
X75069326Y-62537661D01*
X75225521Y-62551326D01*
X75287998Y-62556792D01*
X75288000Y-62556792D01*
X75288002Y-62556792D01*
X75342668Y-62552009D01*
X75506674Y-62537661D01*
X75718703Y-62480847D01*
X75917646Y-62388079D01*
X76097457Y-62262174D01*
X76252674Y-62106957D01*
X76322074Y-62007844D01*
X80150000Y-62007844D01*
X80156401Y-62067372D01*
X80156403Y-62067379D01*
X80206645Y-62202086D01*
X80206649Y-62202093D01*
X80292809Y-62317187D01*
X80292812Y-62317190D01*
X80407906Y-62403350D01*
X80407913Y-62403354D01*
X80542620Y-62453596D01*
X80542627Y-62453598D01*
X80602155Y-62459999D01*
X80602172Y-62460000D01*
X82300000Y-62460000D01*
X82800000Y-62460000D01*
X84497828Y-62460000D01*
X84497844Y-62459999D01*
X84557372Y-62453598D01*
X84557379Y-62453596D01*
X84692086Y-62403354D01*
X84692093Y-62403350D01*
X84807187Y-62317190D01*
X84807190Y-62317187D01*
X84893350Y-62202093D01*
X84893354Y-62202086D01*
X84943596Y-62067379D01*
X84943598Y-62067372D01*
X84949999Y-62007844D01*
X84950000Y-62007827D01*
X84950000Y-61210000D01*
X82800000Y-61210000D01*
X82800000Y-62460000D01*
X82300000Y-62460000D01*
X82300000Y-61210000D01*
X80150000Y-61210000D01*
X80150000Y-62007844D01*
X76322074Y-62007844D01*
X76378579Y-61927146D01*
X76471347Y-61728203D01*
X76528161Y-61516174D01*
X76547292Y-61297500D01*
X76528161Y-61078826D01*
X76471347Y-60866797D01*
X76378579Y-60667854D01*
X76378577Y-60667851D01*
X76378576Y-60667849D01*
X76252677Y-60488047D01*
X76252672Y-60488041D01*
X76097458Y-60332827D01*
X76097452Y-60332822D01*
X75917650Y-60206923D01*
X75917642Y-60206919D01*
X75773879Y-60139882D01*
X75721439Y-60093710D01*
X75702287Y-60026517D01*
X75722502Y-59959636D01*
X75773879Y-59915118D01*
X75780197Y-59912172D01*
X75780233Y-59912155D01*
X80150000Y-59912155D01*
X80150000Y-60710000D01*
X82300000Y-60710000D01*
X82800000Y-60710000D01*
X84950000Y-60710000D01*
X84950000Y-59912172D01*
X84949999Y-59912155D01*
X84943598Y-59852627D01*
X84943596Y-59852620D01*
X84893354Y-59717913D01*
X84893350Y-59717906D01*
X84807190Y-59602812D01*
X84807187Y-59602809D01*
X84692093Y-59516649D01*
X84692086Y-59516645D01*
X84557379Y-59466403D01*
X84557372Y-59466401D01*
X84497844Y-59460000D01*
X82800000Y-59460000D01*
X82800000Y-60710000D01*
X82300000Y-60710000D01*
X82300000Y-59460000D01*
X80602155Y-59460000D01*
X80542627Y-59466401D01*
X80542620Y-59466403D01*
X80407913Y-59516645D01*
X80407906Y-59516649D01*
X80292812Y-59602809D01*
X80292809Y-59602812D01*
X80206649Y-59717906D01*
X80206645Y-59717913D01*
X80156403Y-59852620D01*
X80156401Y-59852627D01*
X80150000Y-59912155D01*
X75780233Y-59912155D01*
X75917646Y-59848079D01*
X76097457Y-59722174D01*
X76252674Y-59566957D01*
X76378579Y-59387146D01*
X76471347Y-59188203D01*
X76528161Y-58976174D01*
X76547292Y-58757500D01*
X76528161Y-58538826D01*
X76471347Y-58326797D01*
X76378579Y-58127854D01*
X76378577Y-58127851D01*
X76378576Y-58127849D01*
X76252677Y-57948047D01*
X76252672Y-57948041D01*
X76097458Y-57792827D01*
X76097452Y-57792822D01*
X75917650Y-57666923D01*
X75917642Y-57666919D01*
X75773880Y-57599882D01*
X75721440Y-57553710D01*
X75702288Y-57486517D01*
X75722504Y-57419635D01*
X75773880Y-57375118D01*
X75917647Y-57308079D01*
X76097458Y-57182174D01*
X76252675Y-57026957D01*
X76378580Y-56847146D01*
X76471348Y-56648203D01*
X76528162Y-56436174D01*
X76545967Y-56232654D01*
X76547293Y-56217502D01*
X76547293Y-56217497D01*
X76535497Y-56082670D01*
X76528162Y-55998826D01*
X76471348Y-55786797D01*
X76378580Y-55587854D01*
X76378578Y-55587851D01*
X76378577Y-55587849D01*
X76252678Y-55408047D01*
X76252673Y-55408041D01*
X76097459Y-55252827D01*
X76097453Y-55252822D01*
X75917651Y-55126923D01*
X75917643Y-55126919D01*
X75773289Y-55059606D01*
X75720849Y-55013434D01*
X75701697Y-54946241D01*
X75721913Y-54879359D01*
X75773289Y-54834842D01*
X75917390Y-54767646D01*
X75980443Y-54723495D01*
X75417410Y-54160462D01*
X75480993Y-54143425D01*
X75595007Y-54077599D01*
X75688099Y-53984507D01*
X75753925Y-53870493D01*
X75770962Y-53806909D01*
X76333995Y-54369942D01*
X76378145Y-54306892D01*
X76470874Y-54108033D01*
X76470878Y-54108024D01*
X76527664Y-53896092D01*
X76527666Y-53896082D01*
X76546790Y-53677500D01*
X76546790Y-53677499D01*
X76527666Y-53458917D01*
X76527664Y-53458907D01*
X76470878Y-53246975D01*
X76470874Y-53246966D01*
X76378144Y-53048105D01*
X76378142Y-53048101D01*
X76333996Y-52985055D01*
X75770962Y-53548089D01*
X75753925Y-53484507D01*
X75688099Y-53370493D01*
X75595007Y-53277401D01*
X75480993Y-53211575D01*
X75417409Y-53194537D01*
X75980443Y-52631503D01*
X75917392Y-52587354D01*
X75773288Y-52520157D01*
X75720849Y-52473984D01*
X75701697Y-52406791D01*
X75721913Y-52339910D01*
X75773288Y-52295393D01*
X75917646Y-52228079D01*
X76097457Y-52102174D01*
X76252674Y-51946957D01*
X76378579Y-51767146D01*
X76471347Y-51568203D01*
X76528161Y-51356174D01*
X76546292Y-51148928D01*
X76547292Y-51137502D01*
X76547292Y-51137497D01*
X76533321Y-50977805D01*
X76528161Y-50918826D01*
X76471347Y-50706797D01*
X76378579Y-50507854D01*
X76378577Y-50507851D01*
X76378576Y-50507849D01*
X76252677Y-50328047D01*
X76252672Y-50328041D01*
X76097458Y-50172827D01*
X76097452Y-50172822D01*
X75917650Y-50046923D01*
X75917642Y-50046919D01*
X75718708Y-49954155D01*
X75718706Y-49954154D01*
X75718703Y-49954153D01*
X75566348Y-49913329D01*
X75506675Y-49897339D01*
X75506668Y-49897338D01*
X75288002Y-49878208D01*
X75287998Y-49878208D01*
X75069331Y-49897338D01*
X75069324Y-49897339D01*
X74949664Y-49929403D01*
X74857297Y-49954153D01*
X74857295Y-49954153D01*
X74857291Y-49954155D01*
X74658357Y-50046919D01*
X74658349Y-50046923D01*
X74478547Y-50172822D01*
X74478541Y-50172827D01*
X74323327Y-50328041D01*
X74323326Y-50328043D01*
X74228074Y-50464077D01*
X74173497Y-50507701D01*
X74103998Y-50514894D01*
X74041644Y-50483372D01*
X74006230Y-50423142D01*
X74002499Y-50392953D01*
X74002499Y-50335629D01*
X74002498Y-50335623D01*
X74002497Y-50335616D01*
X73996091Y-50276017D01*
X73993209Y-50268291D01*
X73945797Y-50141171D01*
X73945793Y-50141164D01*
X73859547Y-50025955D01*
X73859544Y-50025952D01*
X73744335Y-49939706D01*
X73744328Y-49939702D01*
X73609482Y-49889408D01*
X73609483Y-49889408D01*
X73549883Y-49883001D01*
X73549881Y-49883000D01*
X73549873Y-49883000D01*
X73549864Y-49883000D01*
X71946129Y-49883000D01*
X71946123Y-49883001D01*
X71886516Y-49889408D01*
X71751671Y-49939702D01*
X71751664Y-49939706D01*
X71636455Y-50025952D01*
X71636452Y-50025955D01*
X71550206Y-50141164D01*
X71550202Y-50141171D01*
X71499908Y-50276017D01*
X71494315Y-50328043D01*
X71493501Y-50335623D01*
X71493500Y-50335635D01*
X71493500Y-51939370D01*
X71493501Y-51939376D01*
X71499908Y-51998983D01*
X71550202Y-52133828D01*
X71550206Y-52133835D01*
X71636452Y-52249044D01*
X71636455Y-52249047D01*
X71751664Y-52335293D01*
X71751671Y-52335297D01*
X71886517Y-52385591D01*
X71886516Y-52385591D01*
X71893444Y-52386335D01*
X71946127Y-52392000D01*
X72004325Y-52391999D01*
X72071362Y-52411682D01*
X72117118Y-52464486D01*
X72127062Y-52533644D01*
X72098038Y-52597200D01*
X72075448Y-52617573D01*
X72055556Y-52631501D01*
X72055555Y-52631503D01*
X72618590Y-53194537D01*
X72555007Y-53211575D01*
X72440993Y-53277401D01*
X72347901Y-53370493D01*
X72282075Y-53484507D01*
X72265037Y-53548090D01*
X71702003Y-52985055D01*
X71702003Y-52985056D01*
X71657856Y-53048104D01*
X71657855Y-53048106D01*
X71565124Y-53246966D01*
X71565121Y-53246975D01*
X71508335Y-53458907D01*
X71508333Y-53458917D01*
X71489210Y-53677499D01*
X71489210Y-53677500D01*
X71508333Y-53896082D01*
X71508335Y-53896092D01*
X71565121Y-54108024D01*
X71565125Y-54108033D01*
X71657854Y-54306892D01*
X71702003Y-54369943D01*
X72265037Y-53806909D01*
X72282075Y-53870493D01*
X72347901Y-53984507D01*
X72440993Y-54077599D01*
X72555007Y-54143425D01*
X72618590Y-54160462D01*
X72055555Y-54723496D01*
X72118601Y-54767642D01*
X72118605Y-54767644D01*
X72262711Y-54834842D01*
X72315150Y-54881014D01*
X72334302Y-54948208D01*
X72314086Y-55015089D01*
X72262711Y-55059606D01*
X72118352Y-55126921D01*
X72118348Y-55126923D01*
X71938546Y-55252822D01*
X71938540Y-55252827D01*
X71783326Y-55408041D01*
X71783321Y-55408047D01*
X71657422Y-55587849D01*
X71657418Y-55587857D01*
X71564654Y-55786791D01*
X71564652Y-55786795D01*
X71564652Y-55786797D01*
X71543374Y-55866206D01*
X71507838Y-55998824D01*
X71507837Y-55998831D01*
X71488707Y-56217497D01*
X65072399Y-56217497D01*
X65173495Y-56116401D01*
X65309035Y-55922830D01*
X65408903Y-55708663D01*
X65470063Y-55480408D01*
X65490659Y-55245000D01*
X65470063Y-55009592D01*
X65414617Y-54802663D01*
X65408905Y-54781344D01*
X65408904Y-54781343D01*
X65408903Y-54781337D01*
X65309035Y-54567171D01*
X65277541Y-54522192D01*
X65173494Y-54373597D01*
X65006402Y-54206506D01*
X65006401Y-54206505D01*
X65000914Y-54202663D01*
X64820839Y-54076573D01*
X64777216Y-54021997D01*
X64770023Y-53952498D01*
X64801545Y-53890144D01*
X64820837Y-53873427D01*
X65006401Y-53743494D01*
X65173495Y-53576400D01*
X65309035Y-53382829D01*
X65408903Y-53168662D01*
X65470063Y-52940407D01*
X65490659Y-52704999D01*
X65470063Y-52469591D01*
X65416199Y-52268564D01*
X65408905Y-52241343D01*
X65408904Y-52241342D01*
X65408903Y-52241336D01*
X65309035Y-52027170D01*
X65289299Y-51998983D01*
X65173494Y-51833596D01*
X65006402Y-51666505D01*
X65006401Y-51666504D01*
X64820842Y-51536574D01*
X64777218Y-51481997D01*
X64770025Y-51412498D01*
X64801547Y-51350144D01*
X64820843Y-51333424D01*
X64849860Y-51313106D01*
X65006401Y-51203495D01*
X65173495Y-51036401D01*
X65309035Y-50842830D01*
X65408903Y-50628663D01*
X65470063Y-50400408D01*
X65490659Y-50165000D01*
X65488380Y-50138957D01*
X65478494Y-50025954D01*
X65470063Y-49929592D01*
X65418063Y-49735523D01*
X65408905Y-49701344D01*
X65408904Y-49701343D01*
X65408903Y-49701337D01*
X65309035Y-49487171D01*
X65302475Y-49477803D01*
X65173496Y-49293600D01*
X65115422Y-49235526D01*
X65051567Y-49171671D01*
X65018084Y-49110351D01*
X65023068Y-49040659D01*
X65064939Y-48984725D01*
X65095915Y-48967810D01*
X65227331Y-48918796D01*
X65342546Y-48832546D01*
X65428796Y-48717331D01*
X65479091Y-48582483D01*
X65485500Y-48522873D01*
X65485499Y-46727128D01*
X65479091Y-46667517D01*
X65466214Y-46632993D01*
X65428797Y-46532671D01*
X65428793Y-46532664D01*
X65342547Y-46417455D01*
X65342544Y-46417452D01*
X65227335Y-46331206D01*
X65227328Y-46331202D01*
X65092482Y-46280908D01*
X65092483Y-46280908D01*
X65032883Y-46274501D01*
X65032881Y-46274500D01*
X65032873Y-46274500D01*
X65032864Y-46274500D01*
X63237129Y-46274500D01*
X63237123Y-46274501D01*
X63177516Y-46280908D01*
X63042671Y-46331202D01*
X63042664Y-46331206D01*
X62927455Y-46417452D01*
X62927452Y-46417455D01*
X62841206Y-46532664D01*
X62841202Y-46532671D01*
X62790908Y-46667517D01*
X62784501Y-46727116D01*
X62784501Y-46727123D01*
X62784500Y-46727135D01*
X62784500Y-48522870D01*
X62784501Y-48522876D01*
X62790908Y-48582483D01*
X62841202Y-48717328D01*
X62841206Y-48717335D01*
X62927452Y-48832544D01*
X62927455Y-48832547D01*
X63042664Y-48918793D01*
X63042671Y-48918797D01*
X63174081Y-48967810D01*
X63230015Y-49009681D01*
X63254432Y-49075145D01*
X63239580Y-49143418D01*
X63218430Y-49171673D01*
X63096503Y-49293600D01*
X62960965Y-49487169D01*
X62960964Y-49487171D01*
X62878331Y-49664379D01*
X62863984Y-49695147D01*
X62861098Y-49701335D01*
X62861094Y-49701344D01*
X62799938Y-49929586D01*
X62799936Y-49929596D01*
X62779341Y-50164999D01*
X62206500Y-50164999D01*
X62206500Y-36401999D01*
X64272708Y-36401999D01*
X64272708Y-36402004D01*
X64281264Y-36499807D01*
X64291839Y-36620676D01*
X64348653Y-36832705D01*
X64348654Y-36832708D01*
X64348655Y-36832710D01*
X64441419Y-37031644D01*
X64441423Y-37031652D01*
X64567322Y-37211454D01*
X64567327Y-37211460D01*
X64722541Y-37366674D01*
X64722547Y-37366679D01*
X64902349Y-37492578D01*
X64902351Y-37492579D01*
X64902354Y-37492581D01*
X65001728Y-37538919D01*
X65003228Y-37539619D01*
X65055667Y-37585791D01*
X65074819Y-37652985D01*
X65054603Y-37719866D01*
X65003228Y-37764383D01*
X64902353Y-37811421D01*
X64902349Y-37811423D01*
X64722547Y-37937322D01*
X64722541Y-37937327D01*
X64567327Y-38092541D01*
X64567322Y-38092547D01*
X64441423Y-38272349D01*
X64441419Y-38272357D01*
X64348655Y-38471291D01*
X64348653Y-38471295D01*
X64348653Y-38471297D01*
X64326448Y-38554164D01*
X64291839Y-38683324D01*
X64291838Y-38683331D01*
X64272708Y-38901997D01*
X64272708Y-38902002D01*
X64291838Y-39120668D01*
X64291839Y-39120675D01*
X64292246Y-39122194D01*
X64348653Y-39332703D01*
X64348654Y-39332706D01*
X64348655Y-39332708D01*
X64441419Y-39531642D01*
X64441423Y-39531650D01*
X64567322Y-39711452D01*
X64567327Y-39711458D01*
X64722541Y-39866672D01*
X64722547Y-39866677D01*
X64902349Y-39992576D01*
X64902351Y-39992577D01*
X64902354Y-39992579D01*
X64971749Y-40024938D01*
X65003820Y-40039893D01*
X65056260Y-40086065D01*
X65075412Y-40153258D01*
X65055197Y-40220139D01*
X65003822Y-40264657D01*
X64902603Y-40311857D01*
X64839556Y-40356003D01*
X64839555Y-40356003D01*
X65402590Y-40919037D01*
X65339007Y-40936075D01*
X65224993Y-41001901D01*
X65131901Y-41094993D01*
X65066075Y-41209007D01*
X65049037Y-41272590D01*
X64486003Y-40709555D01*
X64486003Y-40709556D01*
X64441856Y-40772604D01*
X64441855Y-40772606D01*
X64349124Y-40971466D01*
X64349121Y-40971475D01*
X64292335Y-41183407D01*
X64292333Y-41183417D01*
X64273210Y-41401999D01*
X64273210Y-41402000D01*
X64292333Y-41620582D01*
X64292335Y-41620592D01*
X64349121Y-41832524D01*
X64349125Y-41832533D01*
X64441854Y-42031392D01*
X64486003Y-42094443D01*
X65049037Y-41531409D01*
X65066075Y-41594993D01*
X65131901Y-41709007D01*
X65224993Y-41802099D01*
X65339007Y-41867925D01*
X65402590Y-41884962D01*
X64839555Y-42447996D01*
X64902601Y-42492142D01*
X64902605Y-42492144D01*
X65101466Y-42584874D01*
X65101475Y-42584878D01*
X65313407Y-42641664D01*
X65313417Y-42641666D01*
X65531999Y-42660790D01*
X65532001Y-42660790D01*
X65750582Y-42641666D01*
X65750592Y-42641664D01*
X65962524Y-42584878D01*
X65962533Y-42584874D01*
X66161392Y-42492145D01*
X66224443Y-42447995D01*
X65661410Y-41884962D01*
X65724993Y-41867925D01*
X65839007Y-41802099D01*
X65932099Y-41709007D01*
X65997925Y-41594993D01*
X66014962Y-41531409D01*
X66577995Y-42094442D01*
X66622145Y-42031392D01*
X66714874Y-41832533D01*
X66714878Y-41832524D01*
X66771664Y-41620592D01*
X66771666Y-41620582D01*
X66790790Y-41402000D01*
X66790790Y-41401999D01*
X66787115Y-41360000D01*
X86419341Y-41360000D01*
X86419341Y-41360001D01*
X86439936Y-41595404D01*
X86439938Y-41595414D01*
X86501094Y-41823656D01*
X86501096Y-41823660D01*
X86501097Y-41823664D01*
X86592807Y-42020336D01*
X86600965Y-42037831D01*
X86600967Y-42037835D01*
X86736501Y-42231396D01*
X86736506Y-42231403D01*
X86903597Y-42398494D01*
X86903603Y-42398499D01*
X86945435Y-42427790D01*
X87024981Y-42483489D01*
X87089157Y-42528425D01*
X87132782Y-42583002D01*
X87139976Y-42652500D01*
X87108453Y-42714855D01*
X87089158Y-42731575D01*
X86903594Y-42861508D01*
X86736505Y-43028597D01*
X86600965Y-43222169D01*
X86600964Y-43222171D01*
X86501098Y-43436335D01*
X86501094Y-43436344D01*
X86439938Y-43664586D01*
X86439936Y-43664596D01*
X86419341Y-43899999D01*
X86419341Y-43900000D01*
X86439936Y-44135403D01*
X86439938Y-44135413D01*
X86501094Y-44363655D01*
X86501096Y-44363659D01*
X86501097Y-44363663D01*
X86580300Y-44533513D01*
X86600965Y-44577830D01*
X86600967Y-44577834D01*
X86736501Y-44771395D01*
X86736506Y-44771402D01*
X86858818Y-44893714D01*
X86892303Y-44955037D01*
X86887319Y-45024729D01*
X86845447Y-45080662D01*
X86814471Y-45097577D01*
X86682912Y-45146646D01*
X86682906Y-45146649D01*
X86567812Y-45232809D01*
X86567809Y-45232812D01*
X86481649Y-45347906D01*
X86481645Y-45347913D01*
X86431403Y-45482620D01*
X86431401Y-45482627D01*
X86425000Y-45542155D01*
X86425000Y-46190000D01*
X87341988Y-46190000D01*
X87309075Y-46247007D01*
X87275000Y-46374174D01*
X87275000Y-46505826D01*
X87309075Y-46632993D01*
X87341988Y-46690000D01*
X86425000Y-46690000D01*
X86425000Y-47337844D01*
X86431401Y-47397372D01*
X86431403Y-47397379D01*
X86481645Y-47532086D01*
X86481649Y-47532093D01*
X86567809Y-47647187D01*
X86567812Y-47647190D01*
X86682906Y-47733350D01*
X86682913Y-47733354D01*
X86817620Y-47783596D01*
X86817627Y-47783598D01*
X86877155Y-47789999D01*
X86877172Y-47790000D01*
X87525000Y-47790000D01*
X87525000Y-46873012D01*
X87582007Y-46905925D01*
X87709174Y-46940000D01*
X87840826Y-46940000D01*
X87967993Y-46905925D01*
X88025000Y-46873012D01*
X88025000Y-47790000D01*
X88672828Y-47790000D01*
X88672844Y-47789999D01*
X88732372Y-47783598D01*
X88732380Y-47783596D01*
X88802365Y-47757493D01*
X88872057Y-47752508D01*
X88933380Y-47785992D01*
X88966866Y-47847315D01*
X88969700Y-47873674D01*
X88969700Y-55107068D01*
X88985143Y-55164699D01*
X89010733Y-55260203D01*
X89010734Y-55260204D01*
X89050404Y-55328915D01*
X89078236Y-55377122D01*
X89089905Y-55397335D01*
X89090000Y-55397498D01*
X95968600Y-62276098D01*
X96080702Y-62388200D01*
X96217998Y-62467467D01*
X96371132Y-62508500D01*
X106402962Y-62508500D01*
X106470001Y-62528185D01*
X106515756Y-62580989D01*
X106526283Y-62619538D01*
X106538503Y-62735804D01*
X106538504Y-62735807D01*
X106593747Y-62905829D01*
X106593750Y-62905835D01*
X106683141Y-63060665D01*
X106724812Y-63106946D01*
X106802764Y-63193521D01*
X106802767Y-63193523D01*
X106802770Y-63193526D01*
X106947407Y-63298612D01*
X107110733Y-63371329D01*
X107181605Y-63386393D01*
X107243084Y-63419583D01*
X107243503Y-63420001D01*
X107536581Y-63713079D01*
X107570066Y-63774402D01*
X107572900Y-63800760D01*
X107572900Y-65379268D01*
X107579676Y-65404555D01*
X107613933Y-65532402D01*
X107663732Y-65618657D01*
X107693199Y-65669696D01*
X107693201Y-65669699D01*
X110088332Y-68064830D01*
X110121817Y-68126153D01*
X110123972Y-68139549D01*
X110138503Y-68277804D01*
X110138504Y-68277807D01*
X110193747Y-68447829D01*
X110193750Y-68447835D01*
X110283141Y-68602665D01*
X110324812Y-68648946D01*
X110402764Y-68735521D01*
X110402767Y-68735523D01*
X110402770Y-68735526D01*
X110547407Y-68840612D01*
X110710733Y-68913329D01*
X110885609Y-68950500D01*
X110885610Y-68950500D01*
X111064389Y-68950500D01*
X111064391Y-68950500D01*
X111239267Y-68913329D01*
X111402593Y-68840612D01*
X111547230Y-68735526D01*
X111666859Y-68602665D01*
X111756250Y-68447835D01*
X111811497Y-68277803D01*
X111830185Y-68100000D01*
X111811497Y-67922197D01*
X111756250Y-67752165D01*
X111666859Y-67597335D01*
X111620003Y-67545296D01*
X111547235Y-67464478D01*
X111547232Y-67464476D01*
X111547231Y-67464475D01*
X111547230Y-67464474D01*
X111402593Y-67359388D01*
X111239267Y-67286671D01*
X111239265Y-67286670D01*
X111111594Y-67259533D01*
X111064391Y-67249500D01*
X111064390Y-67249500D01*
X111027360Y-67249500D01*
X110960321Y-67229815D01*
X110939679Y-67213181D01*
X110826482Y-67099984D01*
X114550001Y-67099984D01*
X114560494Y-67202695D01*
X114615641Y-67369117D01*
X114615643Y-67369122D01*
X114707684Y-67518343D01*
X114831654Y-67642313D01*
X114980875Y-67734354D01*
X114980880Y-67734356D01*
X115147302Y-67789503D01*
X115147309Y-67789504D01*
X115250019Y-67799997D01*
X115524999Y-67799997D01*
X116025000Y-67799997D01*
X116299972Y-67799997D01*
X116299986Y-67799996D01*
X116402697Y-67789503D01*
X116569119Y-67734356D01*
X116569124Y-67734354D01*
X116718345Y-67642313D01*
X116842315Y-67518343D01*
X116934356Y-67369122D01*
X116934358Y-67369117D01*
X116989505Y-67202695D01*
X116989506Y-67202688D01*
X116999999Y-67099984D01*
X117000000Y-67099971D01*
X117000000Y-67049998D01*
X116025000Y-67049998D01*
X116025000Y-67799997D01*
X115524999Y-67799997D01*
X115525000Y-67799996D01*
X115525000Y-67049998D01*
X114550001Y-67049998D01*
X114550001Y-67099984D01*
X110826482Y-67099984D01*
X108813419Y-65086921D01*
X108779934Y-65025598D01*
X108777100Y-64999240D01*
X108777100Y-63420733D01*
X108776792Y-63419583D01*
X108736067Y-63267598D01*
X108656800Y-63130302D01*
X108544698Y-63018200D01*
X108258150Y-62731652D01*
X108224665Y-62670329D01*
X108222511Y-62631006D01*
X108223717Y-62619535D01*
X108250303Y-62554921D01*
X108307601Y-62514938D01*
X108347037Y-62508500D01*
X115173455Y-62508500D01*
X115240494Y-62528185D01*
X115286249Y-62580989D01*
X115296193Y-62650147D01*
X115267168Y-62713703D01*
X115246341Y-62732818D01*
X115202768Y-62764475D01*
X115083140Y-62897336D01*
X114993750Y-63052164D01*
X114993747Y-63052170D01*
X114938504Y-63222192D01*
X114938503Y-63222194D01*
X114919815Y-63400000D01*
X114938503Y-63577805D01*
X114938504Y-63577807D01*
X114993747Y-63747829D01*
X114993748Y-63747830D01*
X114993750Y-63747835D01*
X115022626Y-63797849D01*
X115022627Y-63797851D01*
X115039099Y-63865751D01*
X115016246Y-63931778D01*
X114980336Y-63965389D01*
X114831342Y-64057289D01*
X114707289Y-64181342D01*
X114615187Y-64330663D01*
X114615186Y-64330666D01*
X114560001Y-64497203D01*
X114560001Y-64497204D01*
X114560000Y-64497204D01*
X114549500Y-64599983D01*
X114549500Y-65200001D01*
X114549501Y-65200019D01*
X114560000Y-65302796D01*
X114560001Y-65302799D01*
X114615185Y-65469331D01*
X114615186Y-65469334D01*
X114679711Y-65573947D01*
X114707289Y-65618657D01*
X114831344Y-65742712D01*
X114834653Y-65744753D01*
X114836445Y-65746745D01*
X114837011Y-65747193D01*
X114836934Y-65747289D01*
X114881378Y-65796700D01*
X114892601Y-65865663D01*
X114864758Y-65929745D01*
X114834665Y-65955824D01*
X114831659Y-65957677D01*
X114707684Y-66081652D01*
X114615643Y-66230873D01*
X114615641Y-66230878D01*
X114560494Y-66397300D01*
X114560493Y-66397307D01*
X114550000Y-66500011D01*
X114550000Y-66549998D01*
X116999999Y-66549998D01*
X116999999Y-66500026D01*
X116999998Y-66500011D01*
X116989505Y-66397300D01*
X116934358Y-66230878D01*
X116934356Y-66230873D01*
X116842315Y-66081652D01*
X116718344Y-65957681D01*
X116718341Y-65957679D01*
X116715339Y-65955827D01*
X116713713Y-65954019D01*
X116712677Y-65953200D01*
X116712817Y-65953022D01*
X116668618Y-65903877D01*
X116657399Y-65834913D01*
X116685246Y-65770833D01*
X116715348Y-65744751D01*
X116718656Y-65742712D01*
X116842712Y-65618656D01*
X116934814Y-65469334D01*
X116989999Y-65302797D01*
X117000500Y-65200009D01*
X117000499Y-64599992D01*
X116989999Y-64497203D01*
X116934814Y-64330666D01*
X116842712Y-64181344D01*
X116718656Y-64057288D01*
X116569662Y-63965388D01*
X116522939Y-63913441D01*
X116511716Y-63844478D01*
X116527370Y-63797855D01*
X116556250Y-63747835D01*
X116611497Y-63577803D01*
X116630185Y-63400000D01*
X116611497Y-63222197D01*
X116559012Y-63060665D01*
X116556252Y-63052170D01*
X116556249Y-63052164D01*
X116536640Y-63018200D01*
X116466859Y-62897335D01*
X116420003Y-62845296D01*
X116347235Y-62764478D01*
X116347232Y-62764476D01*
X116347231Y-62764475D01*
X116347230Y-62764474D01*
X116303658Y-62732816D01*
X116260994Y-62677488D01*
X116255015Y-62607874D01*
X116287621Y-62546079D01*
X116348460Y-62511722D01*
X116376545Y-62508500D01*
X118447866Y-62508500D01*
X118447868Y-62508500D01*
X118601002Y-62467467D01*
X118738298Y-62388200D01*
X118850400Y-62276098D01*
X120256800Y-60869698D01*
X120274360Y-60839283D01*
X120311716Y-60774578D01*
X120342683Y-60740187D01*
X120342401Y-60739874D01*
X120345386Y-60737185D01*
X120346222Y-60736258D01*
X120347230Y-60735526D01*
X120466859Y-60602665D01*
X120556250Y-60447835D01*
X120611497Y-60277803D01*
X120630185Y-60100000D01*
X120611497Y-59922197D01*
X120556250Y-59752165D01*
X120466859Y-59597335D01*
X120394209Y-59516649D01*
X120347235Y-59464478D01*
X120347232Y-59464476D01*
X120347231Y-59464475D01*
X120347230Y-59464474D01*
X120202593Y-59359388D01*
X120039267Y-59286671D01*
X120039265Y-59286670D01*
X119911594Y-59259533D01*
X119864391Y-59249500D01*
X119685609Y-59249500D01*
X119654954Y-59256015D01*
X119510733Y-59286670D01*
X119510728Y-59286672D01*
X119347408Y-59359387D01*
X119202768Y-59464475D01*
X119144763Y-59528896D01*
X119085276Y-59565544D01*
X119015419Y-59564213D01*
X119002179Y-59559203D01*
X118893298Y-59510727D01*
X118839267Y-59486671D01*
X118839265Y-59486670D01*
X118711594Y-59459533D01*
X118664391Y-59449500D01*
X118485609Y-59449500D01*
X118454954Y-59456015D01*
X118310733Y-59486670D01*
X118310728Y-59486672D01*
X118147408Y-59559387D01*
X118002766Y-59664476D01*
X117997941Y-59668822D01*
X117997074Y-59667859D01*
X117943527Y-59700842D01*
X117873670Y-59699505D01*
X117860439Y-59694497D01*
X117839270Y-59685072D01*
X117839266Y-59685070D01*
X117701561Y-59655800D01*
X117664391Y-59647900D01*
X117485609Y-59647900D01*
X117454954Y-59654415D01*
X117310733Y-59685070D01*
X117310728Y-59685072D01*
X117147408Y-59757787D01*
X117002768Y-59862875D01*
X116883140Y-59995736D01*
X116793750Y-60150564D01*
X116793747Y-60150570D01*
X116738504Y-60320593D01*
X116738503Y-60320597D01*
X116731538Y-60386864D01*
X116704954Y-60451476D01*
X116647657Y-60491461D01*
X116608218Y-60497900D01*
X99075760Y-60497900D01*
X99008721Y-60478215D01*
X98988079Y-60461581D01*
X97139979Y-58613481D01*
X111006334Y-58613481D01*
X111025022Y-58791286D01*
X111025023Y-58791288D01*
X111080266Y-58961310D01*
X111080269Y-58961316D01*
X111169660Y-59116146D01*
X111191009Y-59139856D01*
X111289283Y-59249002D01*
X111289286Y-59249004D01*
X111289289Y-59249007D01*
X111433926Y-59354093D01*
X111597252Y-59426810D01*
X111772128Y-59463981D01*
X111772129Y-59463981D01*
X111950908Y-59463981D01*
X111950910Y-59463981D01*
X112125786Y-59426810D01*
X112289112Y-59354093D01*
X112433749Y-59249007D01*
X112438817Y-59243379D01*
X112459667Y-59220222D01*
X112553378Y-59116146D01*
X112642769Y-58961316D01*
X112698016Y-58791284D01*
X112716704Y-58613481D01*
X112698016Y-58435678D01*
X112667972Y-58343212D01*
X112642771Y-58265651D01*
X112642768Y-58265645D01*
X112636444Y-58254691D01*
X112553378Y-58110816D01*
X112506522Y-58058777D01*
X112433754Y-57977959D01*
X112433751Y-57977957D01*
X112433750Y-57977956D01*
X112433749Y-57977955D01*
X112289112Y-57872869D01*
X112125786Y-57800152D01*
X112125784Y-57800151D01*
X111998113Y-57773014D01*
X111950910Y-57762981D01*
X111772128Y-57762981D01*
X111741473Y-57769496D01*
X111597252Y-57800151D01*
X111597247Y-57800153D01*
X111433927Y-57872868D01*
X111289287Y-57977956D01*
X111169659Y-58110817D01*
X111080269Y-58265645D01*
X111080266Y-58265651D01*
X111025023Y-58435673D01*
X111025022Y-58435675D01*
X111006334Y-58613481D01*
X97139979Y-58613481D01*
X96182131Y-57655633D01*
X101172918Y-57655633D01*
X101367364Y-57850078D01*
X101447411Y-57915285D01*
X101604086Y-57993970D01*
X101774688Y-58034404D01*
X101950008Y-58034404D01*
X102120609Y-57993970D01*
X102277287Y-57915284D01*
X102357339Y-57850073D01*
X102357344Y-57850068D01*
X102392678Y-57814733D01*
X102392678Y-57814732D01*
X101703248Y-57125304D01*
X101703247Y-57125304D01*
X101172918Y-57655633D01*
X96182131Y-57655633D01*
X91013419Y-52486921D01*
X90979934Y-52425598D01*
X90977100Y-52399240D01*
X90977100Y-34084849D01*
X90996785Y-34017810D01*
X91049589Y-33972055D01*
X91118747Y-33962111D01*
X91182303Y-33991136D01*
X91212100Y-34029577D01*
X91264604Y-34135020D01*
X91306309Y-34218774D01*
X91437382Y-34392343D01*
X91598117Y-34538871D01*
X91783039Y-34653371D01*
X91985852Y-34731941D01*
X92199649Y-34771906D01*
X92199652Y-34771906D01*
X92417146Y-34771906D01*
X92417149Y-34771906D01*
X92630946Y-34731941D01*
X92833759Y-34653371D01*
X93018681Y-34538871D01*
X93179416Y-34392343D01*
X93209444Y-34352578D01*
X93265552Y-34310942D01*
X93335264Y-34306249D01*
X93396446Y-34339991D01*
X93407353Y-34352577D01*
X93437383Y-34392343D01*
X93598118Y-34538871D01*
X93783040Y-34653371D01*
X93985853Y-34731941D01*
X94199650Y-34771906D01*
X94199653Y-34771906D01*
X94417147Y-34771906D01*
X94417150Y-34771906D01*
X94534218Y-34750022D01*
X94603730Y-34757053D01*
X94658409Y-34800551D01*
X94680891Y-34866704D01*
X94681000Y-34871911D01*
X94681000Y-40871765D01*
X94674931Y-40910083D01*
X94638504Y-41022192D01*
X94638503Y-41022194D01*
X94619815Y-41200000D01*
X94638503Y-41377805D01*
X94638504Y-41377807D01*
X94693747Y-41547829D01*
X94693750Y-41547835D01*
X94783141Y-41702665D01*
X94810732Y-41733308D01*
X94902764Y-41835521D01*
X94902767Y-41835523D01*
X94902770Y-41835526D01*
X95047407Y-41940612D01*
X95210733Y-42013329D01*
X95385609Y-42050500D01*
X95385610Y-42050500D01*
X95564383Y-42050500D01*
X95564391Y-42050500D01*
X95564398Y-42050498D01*
X95569326Y-42049980D01*
X95638057Y-42062544D01*
X95689085Y-42110272D01*
X95706298Y-42173300D01*
X95706298Y-43097623D01*
X95695579Y-43148054D01*
X95693751Y-43152158D01*
X95638504Y-43322192D01*
X95638503Y-43322194D01*
X95619815Y-43500000D01*
X95638503Y-43677805D01*
X95638504Y-43677807D01*
X95693747Y-43847829D01*
X95693750Y-43847835D01*
X95783141Y-44002665D01*
X95799409Y-44020732D01*
X95902764Y-44135521D01*
X95902767Y-44135523D01*
X95902770Y-44135526D01*
X96047407Y-44240612D01*
X96210733Y-44313329D01*
X96385609Y-44350500D01*
X96385610Y-44350500D01*
X96564387Y-44350500D01*
X96564391Y-44350500D01*
X96581819Y-44346795D01*
X96651484Y-44352110D01*
X96707218Y-44394246D01*
X96731325Y-44459825D01*
X96731600Y-44468085D01*
X96731600Y-45525500D01*
X96711915Y-45592539D01*
X96659111Y-45638294D01*
X96607600Y-45649500D01*
X96585609Y-45649500D01*
X96554954Y-45656015D01*
X96410733Y-45686670D01*
X96410728Y-45686672D01*
X96247408Y-45759388D01*
X96247404Y-45759390D01*
X96202956Y-45791683D01*
X96137149Y-45815162D01*
X96079639Y-45804645D01*
X96039265Y-45786670D01*
X95904192Y-45757960D01*
X95864391Y-45749500D01*
X95685609Y-45749500D01*
X95654954Y-45756015D01*
X95510733Y-45786670D01*
X95510728Y-45786672D01*
X95347408Y-45859387D01*
X95202768Y-45964475D01*
X95201993Y-45965337D01*
X95201418Y-45965690D01*
X95197941Y-45968822D01*
X95197368Y-45968185D01*
X95142504Y-46001982D01*
X95072648Y-46000649D01*
X95059413Y-45995640D01*
X95039270Y-45986672D01*
X95039265Y-45986670D01*
X94899963Y-45957061D01*
X94864391Y-45949500D01*
X94685609Y-45949500D01*
X94658910Y-45955175D01*
X94510734Y-45986670D01*
X94510729Y-45986672D01*
X94507538Y-45988093D01*
X94505527Y-45988362D01*
X94504550Y-45988680D01*
X94504491Y-45988501D01*
X94438287Y-45997373D01*
X94375013Y-45967740D01*
X94364962Y-45957785D01*
X94362612Y-45955175D01*
X94359730Y-45951974D01*
X94215093Y-45846888D01*
X94051767Y-45774171D01*
X94051765Y-45774170D01*
X93893884Y-45740612D01*
X93876891Y-45737000D01*
X93698109Y-45737000D01*
X93681116Y-45740612D01*
X93523233Y-45774170D01*
X93523228Y-45774172D01*
X93359908Y-45846887D01*
X93215268Y-45951975D01*
X93095640Y-46084836D01*
X93006250Y-46239664D01*
X93006247Y-46239670D01*
X92951004Y-46409692D01*
X92951003Y-46409694D01*
X92932315Y-46587500D01*
X92951003Y-46765305D01*
X92951004Y-46765307D01*
X93006247Y-46935329D01*
X93006250Y-46935335D01*
X93095641Y-47090165D01*
X93148547Y-47148923D01*
X93153550Y-47154479D01*
X93183780Y-47217470D01*
X93185400Y-47237451D01*
X93185400Y-48779476D01*
X93165715Y-48846515D01*
X93112911Y-48892270D01*
X93087181Y-48900766D01*
X93085610Y-48901100D01*
X93085609Y-48901100D01*
X93081267Y-48902023D01*
X92910733Y-48938270D01*
X92910728Y-48938272D01*
X92747408Y-49010987D01*
X92602768Y-49116075D01*
X92483140Y-49248936D01*
X92393750Y-49403764D01*
X92393747Y-49403770D01*
X92338504Y-49573792D01*
X92338503Y-49573794D01*
X92319815Y-49751600D01*
X92338503Y-49929405D01*
X92338504Y-49929407D01*
X92393747Y-50099429D01*
X92393750Y-50099435D01*
X92483141Y-50254265D01*
X92502726Y-50276016D01*
X92602764Y-50387121D01*
X92602767Y-50387123D01*
X92602770Y-50387126D01*
X92747407Y-50492212D01*
X92910733Y-50564929D01*
X93085609Y-50602100D01*
X93085610Y-50602100D01*
X93264390Y-50602100D01*
X93264391Y-50602100D01*
X93331487Y-50587838D01*
X93401154Y-50593154D01*
X93444949Y-50621447D01*
X96544800Y-53721298D01*
X96656902Y-53833400D01*
X96794198Y-53912667D01*
X96947332Y-53953700D01*
X96947334Y-53953700D01*
X96955182Y-53955803D01*
X96954245Y-53959297D01*
X97002924Y-53980575D01*
X97041653Y-54038729D01*
X97042792Y-54108590D01*
X97041194Y-54113911D01*
X97038504Y-54122189D01*
X97038502Y-54122199D01*
X97035442Y-54151314D01*
X97008857Y-54215928D01*
X96951559Y-54255912D01*
X96937903Y-54259640D01*
X96810733Y-54286670D01*
X96810728Y-54286672D01*
X96647408Y-54359387D01*
X96502768Y-54464475D01*
X96383140Y-54597336D01*
X96293750Y-54752164D01*
X96293747Y-54752171D01*
X96257471Y-54863818D01*
X96218033Y-54921494D01*
X96153675Y-54948692D01*
X96139540Y-54949500D01*
X95985609Y-54949500D01*
X95967266Y-54953399D01*
X95810733Y-54986670D01*
X95810728Y-54986672D01*
X95647408Y-55059387D01*
X95502768Y-55164475D01*
X95383140Y-55297336D01*
X95293750Y-55452164D01*
X95293747Y-55452170D01*
X95238504Y-55622192D01*
X95238503Y-55622194D01*
X95219815Y-55800000D01*
X95238503Y-55977805D01*
X95238504Y-55977807D01*
X95293747Y-56147829D01*
X95293750Y-56147835D01*
X95383141Y-56302665D01*
X95397129Y-56318200D01*
X95502764Y-56435521D01*
X95502767Y-56435523D01*
X95502770Y-56435526D01*
X95647407Y-56540612D01*
X95810733Y-56613329D01*
X95985609Y-56650500D01*
X95985610Y-56650500D01*
X96164389Y-56650500D01*
X96164391Y-56650500D01*
X96339267Y-56613329D01*
X96502593Y-56540612D01*
X96524093Y-56524991D01*
X100440596Y-56524991D01*
X100440596Y-56700312D01*
X100481029Y-56870913D01*
X100559717Y-57027594D01*
X100624916Y-57107630D01*
X100624932Y-57107648D01*
X100819365Y-57302081D01*
X101349695Y-56771751D01*
X100660266Y-56082322D01*
X100660265Y-56082322D01*
X100624934Y-56117654D01*
X100624917Y-56117673D01*
X100559715Y-56197712D01*
X100481029Y-56354390D01*
X100440596Y-56524991D01*
X96524093Y-56524991D01*
X96647230Y-56435526D01*
X96651802Y-56430449D01*
X96687579Y-56390714D01*
X96766859Y-56302665D01*
X96856250Y-56147835D01*
X96892528Y-56036180D01*
X96931965Y-55978507D01*
X96996324Y-55951308D01*
X97010459Y-55950500D01*
X97164389Y-55950500D01*
X97164391Y-55950500D01*
X97339267Y-55913329D01*
X97502593Y-55840612D01*
X97647230Y-55735526D01*
X97650746Y-55731622D01*
X97683586Y-55695149D01*
X97766859Y-55602665D01*
X97856250Y-55447835D01*
X97911497Y-55277803D01*
X97914557Y-55248685D01*
X97941140Y-55184074D01*
X97998437Y-55144089D01*
X98012067Y-55140366D01*
X98139267Y-55113329D01*
X98302593Y-55040612D01*
X98447230Y-54935526D01*
X98566859Y-54802665D01*
X98656250Y-54647835D01*
X98711497Y-54477803D01*
X98730185Y-54300000D01*
X98711497Y-54122197D01*
X98709489Y-54116020D01*
X98707493Y-54046180D01*
X98743572Y-53986346D01*
X98806272Y-53955517D01*
X98827420Y-53953700D01*
X101093560Y-53953700D01*
X101160599Y-53973385D01*
X101206354Y-54026189D01*
X101216298Y-54095347D01*
X101200947Y-54139700D01*
X101193750Y-54152164D01*
X101193747Y-54152170D01*
X101138504Y-54322192D01*
X101138503Y-54322194D01*
X101119815Y-54500000D01*
X101138503Y-54677805D01*
X101138504Y-54677807D01*
X101193747Y-54847829D01*
X101193750Y-54847835D01*
X101283141Y-55002665D01*
X101311493Y-55034153D01*
X101402764Y-55135521D01*
X101402767Y-55135523D01*
X101402770Y-55135526D01*
X101547407Y-55240612D01*
X101617500Y-55271819D01*
X101670736Y-55317069D01*
X101691057Y-55383918D01*
X101672012Y-55451142D01*
X101619646Y-55497397D01*
X101567063Y-55509098D01*
X101456490Y-55509098D01*
X101285888Y-55549531D01*
X101129207Y-55628219D01*
X101049171Y-55693418D01*
X101049152Y-55693435D01*
X101013819Y-55728767D01*
X101880026Y-56594974D01*
X102746230Y-57461179D01*
X102746231Y-57461179D01*
X102781564Y-57425846D01*
X102781579Y-57425829D01*
X102846782Y-57345789D01*
X102925468Y-57189111D01*
X102965902Y-57018510D01*
X102965902Y-56843190D01*
X102965090Y-56839765D01*
X102965218Y-56837336D01*
X102965064Y-56836015D01*
X102965289Y-56835988D01*
X102968780Y-56769993D01*
X103009605Y-56713292D01*
X103074605Y-56687664D01*
X103114344Y-56690504D01*
X103118129Y-56691402D01*
X103118132Y-56691402D01*
X103293568Y-56691402D01*
X103293571Y-56691402D01*
X103464283Y-56650941D01*
X103621065Y-56572204D01*
X103701172Y-56506947D01*
X104125447Y-56082670D01*
X104190706Y-56002563D01*
X104259185Y-55866205D01*
X104306862Y-55815131D01*
X104374584Y-55797941D01*
X104440849Y-55820093D01*
X104457677Y-55834175D01*
X105793200Y-57169698D01*
X105905302Y-57281800D01*
X106042598Y-57361067D01*
X106195732Y-57402100D01*
X106354268Y-57402100D01*
X107697875Y-57402100D01*
X107764914Y-57421785D01*
X107810669Y-57474589D01*
X107821195Y-57513137D01*
X107822148Y-57522194D01*
X107838503Y-57677805D01*
X107838504Y-57677807D01*
X107893747Y-57847829D01*
X107893750Y-57847835D01*
X107983141Y-58002665D01*
X108011719Y-58034404D01*
X108102764Y-58135521D01*
X108102767Y-58135523D01*
X108102770Y-58135526D01*
X108247407Y-58240612D01*
X108410733Y-58313329D01*
X108585609Y-58350500D01*
X108585610Y-58350500D01*
X108764389Y-58350500D01*
X108764391Y-58350500D01*
X108939267Y-58313329D01*
X109102593Y-58240612D01*
X109247230Y-58135526D01*
X109254136Y-58127857D01*
X109299213Y-58077793D01*
X109366859Y-58002665D01*
X109456250Y-57847835D01*
X109511497Y-57677803D01*
X109530185Y-57500000D01*
X109511497Y-57322197D01*
X109456250Y-57152165D01*
X109366859Y-56997335D01*
X109320003Y-56945296D01*
X109247235Y-56864478D01*
X109247232Y-56864476D01*
X109247231Y-56864475D01*
X109247230Y-56864474D01*
X109119609Y-56771751D01*
X109102596Y-56759390D01*
X109102595Y-56759389D01*
X109102593Y-56759388D01*
X108949889Y-56691400D01*
X108939263Y-56686669D01*
X108933090Y-56684664D01*
X108933707Y-56682762D01*
X108880556Y-56654057D01*
X108880151Y-56653653D01*
X108544699Y-56318201D01*
X108544691Y-56318195D01*
X108513189Y-56300008D01*
X108513186Y-56300007D01*
X108484591Y-56283498D01*
X108422821Y-56247835D01*
X108407404Y-56238934D01*
X108407397Y-56238931D01*
X108360896Y-56226471D01*
X108301236Y-56190106D01*
X108270708Y-56127259D01*
X108275061Y-56068377D01*
X108278496Y-56057805D01*
X108278497Y-56057803D01*
X108297185Y-55880000D01*
X108278497Y-55702197D01*
X108241343Y-55587849D01*
X108223252Y-55532170D01*
X108223249Y-55532164D01*
X108222986Y-55531708D01*
X108133859Y-55377335D01*
X108076026Y-55313105D01*
X108014235Y-55244478D01*
X108014232Y-55244476D01*
X108014231Y-55244475D01*
X108014230Y-55244474D01*
X107869593Y-55139388D01*
X107706267Y-55066671D01*
X107706265Y-55066670D01*
X107578594Y-55039533D01*
X107531391Y-55029500D01*
X107352609Y-55029500D01*
X107321954Y-55036015D01*
X107177733Y-55066670D01*
X107177728Y-55066672D01*
X107014408Y-55139387D01*
X106869768Y-55244475D01*
X106750140Y-55377336D01*
X106660750Y-55532164D01*
X106660747Y-55532170D01*
X106605504Y-55702192D01*
X106605503Y-55702194D01*
X106586815Y-55880000D01*
X106594881Y-55956738D01*
X106582312Y-56025468D01*
X106534580Y-56076492D01*
X106466840Y-56093610D01*
X106400598Y-56071388D01*
X106383879Y-56057381D01*
X103196297Y-52869799D01*
X103164066Y-52851191D01*
X103123383Y-52827703D01*
X103071192Y-52797571D01*
X103059004Y-52790534D01*
X103059003Y-52790533D01*
X103007957Y-52776855D01*
X102905868Y-52749500D01*
X102905866Y-52749500D01*
X102192192Y-52749500D01*
X102125153Y-52729815D01*
X102079398Y-52677011D01*
X102069454Y-52607853D01*
X102098479Y-52544297D01*
X102141755Y-52512220D01*
X102302593Y-52440612D01*
X102447230Y-52335526D01*
X102447437Y-52335297D01*
X102488214Y-52290009D01*
X102566859Y-52202665D01*
X102656250Y-52047835D01*
X102711497Y-51877803D01*
X102730185Y-51700000D01*
X102723187Y-51633427D01*
X102735756Y-51564702D01*
X102783487Y-51513678D01*
X102851227Y-51496559D01*
X102896941Y-51507188D01*
X102910733Y-51513329D01*
X103085609Y-51550500D01*
X103085610Y-51550500D01*
X103264389Y-51550500D01*
X103264391Y-51550500D01*
X103439267Y-51513329D01*
X103602593Y-51440612D01*
X103747230Y-51335526D01*
X103866859Y-51202665D01*
X103956250Y-51047835D01*
X103994979Y-50928638D01*
X104034416Y-50870963D01*
X104087127Y-50845667D01*
X104211859Y-50819154D01*
X104239263Y-50813330D01*
X104239263Y-50813329D01*
X104239267Y-50813329D01*
X104402593Y-50740612D01*
X104547230Y-50635526D01*
X104553410Y-50628663D01*
X104585382Y-50593154D01*
X104666859Y-50502665D01*
X104756250Y-50347835D01*
X104796542Y-50223829D01*
X104835978Y-50166156D01*
X104900336Y-50138957D01*
X104940251Y-50140858D01*
X104985609Y-50150500D01*
X104985610Y-50150500D01*
X105164389Y-50150500D01*
X105164391Y-50150500D01*
X105339267Y-50113329D01*
X105502593Y-50040612D01*
X105647230Y-49935526D01*
X105652570Y-49929596D01*
X105691220Y-49886670D01*
X105766859Y-49802665D01*
X105856250Y-49647835D01*
X105874988Y-49590166D01*
X105892529Y-49536182D01*
X105931967Y-49478506D01*
X105996325Y-49451308D01*
X106010460Y-49450500D01*
X106064389Y-49450500D01*
X106064391Y-49450500D01*
X106239267Y-49413329D01*
X106402593Y-49340612D01*
X106533451Y-49245536D01*
X106599257Y-49222056D01*
X106667311Y-49237881D01*
X106716006Y-49287986D01*
X106726111Y-49313759D01*
X106762331Y-49448930D01*
X106762334Y-49448937D01*
X106763703Y-49451308D01*
X106810120Y-49531706D01*
X106829613Y-49565468D01*
X106829614Y-49565470D01*
X106841599Y-49586230D01*
X114884589Y-57629220D01*
X114918074Y-57690543D01*
X114920229Y-57703939D01*
X114938503Y-57877804D01*
X114938504Y-57877807D01*
X114993747Y-58047829D01*
X114993750Y-58047835D01*
X115083141Y-58202665D01*
X115117307Y-58240610D01*
X115202764Y-58335521D01*
X115202767Y-58335523D01*
X115202770Y-58335526D01*
X115347407Y-58440612D01*
X115510733Y-58513329D01*
X115685609Y-58550500D01*
X115685610Y-58550500D01*
X115864389Y-58550500D01*
X115864391Y-58550500D01*
X116039267Y-58513329D01*
X116202593Y-58440612D01*
X116347230Y-58335526D01*
X116466859Y-58202665D01*
X116556250Y-58047835D01*
X116611497Y-57877803D01*
X116630185Y-57700000D01*
X116611497Y-57522197D01*
X116578710Y-57421289D01*
X116556252Y-57352170D01*
X116556249Y-57352164D01*
X116466859Y-57197335D01*
X116402002Y-57125304D01*
X116347235Y-57064478D01*
X116347232Y-57064476D01*
X116347231Y-57064475D01*
X116347230Y-57064474D01*
X116202593Y-56959388D01*
X116039267Y-56886671D01*
X116039265Y-56886670D01*
X115911594Y-56859533D01*
X115864391Y-56849500D01*
X115864390Y-56849500D01*
X115859227Y-56849500D01*
X115792188Y-56829815D01*
X115771546Y-56813181D01*
X115529363Y-56570998D01*
X115495878Y-56509675D01*
X115500862Y-56439983D01*
X115529360Y-56395637D01*
X115468040Y-56429121D01*
X115398349Y-56424137D01*
X115354001Y-56395636D01*
X113250894Y-54292529D01*
X113217409Y-54231206D01*
X113222393Y-54161514D01*
X113264265Y-54105581D01*
X113288133Y-54091572D01*
X113402593Y-54040612D01*
X113547230Y-53935526D01*
X113567813Y-53912667D01*
X113581112Y-53897896D01*
X113666859Y-53802665D01*
X113756250Y-53647835D01*
X113762327Y-53629131D01*
X113801762Y-53571456D01*
X113866120Y-53544257D01*
X113906035Y-53546157D01*
X114012479Y-53568783D01*
X114012480Y-53568783D01*
X114191259Y-53568783D01*
X114191261Y-53568783D01*
X114334113Y-53538419D01*
X114372494Y-53530261D01*
X114373002Y-53532651D01*
X114431799Y-53530964D01*
X114491637Y-53567037D01*
X114522474Y-53629733D01*
X114523614Y-53663856D01*
X114519815Y-53699999D01*
X114538503Y-53877805D01*
X114538504Y-53877807D01*
X114593747Y-54047829D01*
X114593750Y-54047835D01*
X114683141Y-54202665D01*
X114703622Y-54225411D01*
X114752210Y-54279374D01*
X114782440Y-54342365D01*
X114777991Y-54400664D01*
X114738504Y-54522192D01*
X114738503Y-54522194D01*
X114719815Y-54700000D01*
X114738503Y-54877805D01*
X114738504Y-54877807D01*
X114793747Y-55047829D01*
X114793750Y-55047835D01*
X114883140Y-55202664D01*
X114886959Y-55207920D01*
X114885593Y-55208911D01*
X114912200Y-55264368D01*
X114913327Y-55278277D01*
X115692344Y-56057292D01*
X115725829Y-56118615D01*
X115720845Y-56188306D01*
X115692346Y-56232652D01*
X115753667Y-56199169D01*
X115823358Y-56204153D01*
X115867706Y-56232654D01*
X116646230Y-57011179D01*
X116646231Y-57011179D01*
X116681564Y-56975846D01*
X116681579Y-56975829D01*
X116746782Y-56895789D01*
X116825468Y-56739111D01*
X116865902Y-56568510D01*
X116865902Y-56484427D01*
X116885587Y-56417388D01*
X116938391Y-56371633D01*
X117007549Y-56361689D01*
X117071105Y-56390714D01*
X117082052Y-56401455D01*
X117202764Y-56535521D01*
X117202767Y-56535523D01*
X117202770Y-56535526D01*
X117347407Y-56640612D01*
X117510733Y-56713329D01*
X117685609Y-56750500D01*
X117685610Y-56750500D01*
X117864389Y-56750500D01*
X117864391Y-56750500D01*
X118039267Y-56713329D01*
X118202593Y-56640612D01*
X118347230Y-56535526D01*
X118362198Y-56518903D01*
X118391016Y-56486897D01*
X118466859Y-56402665D01*
X118556250Y-56247835D01*
X118611497Y-56077803D01*
X118630185Y-55900000D01*
X118611497Y-55722197D01*
X118572658Y-55602663D01*
X118556252Y-55552170D01*
X118556249Y-55552164D01*
X118466859Y-55397335D01*
X118347230Y-55264474D01*
X118320427Y-55245000D01*
X118261017Y-55201835D01*
X118218352Y-55146505D01*
X118209904Y-55101518D01*
X118209904Y-55049630D01*
X118209904Y-55049627D01*
X118189683Y-54964312D01*
X118169444Y-54878917D01*
X118147309Y-54834842D01*
X118090706Y-54722134D01*
X118090702Y-54722129D01*
X118090701Y-54722127D01*
X118025458Y-54642037D01*
X118025457Y-54642036D01*
X118025449Y-54642026D01*
X117342639Y-53959218D01*
X117309155Y-53897896D01*
X117314139Y-53828205D01*
X117342637Y-53783860D01*
X117456800Y-53669698D01*
X117494428Y-53604523D01*
X117536067Y-53532402D01*
X117577100Y-53379268D01*
X117577100Y-52900000D01*
X121219815Y-52900000D01*
X121238503Y-53077805D01*
X121238504Y-53077807D01*
X121293747Y-53247829D01*
X121293750Y-53247835D01*
X121383141Y-53402665D01*
X121424812Y-53448946D01*
X121502764Y-53535521D01*
X121502767Y-53535523D01*
X121502770Y-53535526D01*
X121647407Y-53640612D01*
X121810733Y-53713329D01*
X121985609Y-53750500D01*
X121985610Y-53750500D01*
X122164389Y-53750500D01*
X122164391Y-53750500D01*
X122339267Y-53713329D01*
X122502593Y-53640612D01*
X122647230Y-53535526D01*
X122647235Y-53535519D01*
X122648986Y-53533945D01*
X122650220Y-53533352D01*
X122652487Y-53531706D01*
X122652788Y-53532120D01*
X122711979Y-53503719D01*
X122731953Y-53502100D01*
X128029851Y-53502100D01*
X128096890Y-53521785D01*
X128142645Y-53574589D01*
X128152589Y-53643747D01*
X128149117Y-53660034D01*
X128139127Y-53695143D01*
X128139127Y-53695145D01*
X128120144Y-53900000D01*
X128139127Y-54104854D01*
X128139127Y-54104856D01*
X128149117Y-54139966D01*
X128148530Y-54209833D01*
X128110263Y-54268292D01*
X128046466Y-54296782D01*
X128029851Y-54297900D01*
X123954268Y-54297900D01*
X123795732Y-54297900D01*
X123693642Y-54325255D01*
X123642597Y-54338933D01*
X123505303Y-54418199D01*
X123505300Y-54418201D01*
X122110321Y-55813181D01*
X122048998Y-55846666D01*
X122022640Y-55849500D01*
X121985609Y-55849500D01*
X121954954Y-55856015D01*
X121810733Y-55886670D01*
X121810728Y-55886672D01*
X121647408Y-55959387D01*
X121502768Y-56064475D01*
X121383140Y-56197336D01*
X121293750Y-56352164D01*
X121293747Y-56352170D01*
X121238504Y-56522192D01*
X121238503Y-56522194D01*
X121219815Y-56700000D01*
X121238503Y-56877805D01*
X121238504Y-56877807D01*
X121293747Y-57047829D01*
X121293750Y-57047835D01*
X121383141Y-57202665D01*
X121424812Y-57248946D01*
X121502764Y-57335521D01*
X121502767Y-57335523D01*
X121502770Y-57335526D01*
X121647407Y-57440612D01*
X121810733Y-57513329D01*
X121985609Y-57550500D01*
X121985610Y-57550500D01*
X122164389Y-57550500D01*
X122164391Y-57550500D01*
X122339267Y-57513329D01*
X122502593Y-57440612D01*
X122647230Y-57335526D01*
X122659848Y-57321513D01*
X122695607Y-57281798D01*
X122766859Y-57202665D01*
X122856250Y-57047835D01*
X122911497Y-56877803D01*
X122926028Y-56739545D01*
X122952611Y-56674934D01*
X122961658Y-56664838D01*
X124088079Y-55538419D01*
X124149402Y-55504934D01*
X124175760Y-55502100D01*
X128029851Y-55502100D01*
X128096890Y-55521785D01*
X128142645Y-55574589D01*
X128152589Y-55643747D01*
X128149118Y-55660033D01*
X128139126Y-55695149D01*
X128120144Y-55900001D01*
X128139126Y-56104850D01*
X128139126Y-56104852D01*
X128139127Y-56104855D01*
X128151354Y-56147829D01*
X128195427Y-56302731D01*
X128195431Y-56302741D01*
X128263770Y-56439983D01*
X128287130Y-56486897D01*
X128315897Y-56524991D01*
X128411112Y-56651077D01*
X128563146Y-56789673D01*
X128563151Y-56789676D01*
X128571059Y-56794573D01*
X128617695Y-56846600D01*
X128628799Y-56915582D01*
X128600846Y-56979616D01*
X128571065Y-57005424D01*
X128563148Y-57010326D01*
X128563146Y-57010327D01*
X128411112Y-57148923D01*
X128287129Y-57313105D01*
X128195431Y-57497259D01*
X128195427Y-57497269D01*
X128150369Y-57655633D01*
X128144062Y-57677803D01*
X128139126Y-57695150D01*
X128120144Y-57900000D01*
X128139126Y-58104849D01*
X128139126Y-58104851D01*
X128139127Y-58104854D01*
X128147853Y-58135523D01*
X128195427Y-58302730D01*
X128195431Y-58302740D01*
X128275021Y-58462578D01*
X128287130Y-58486896D01*
X128335161Y-58550500D01*
X128411112Y-58651076D01*
X128563146Y-58789672D01*
X128563152Y-58789676D01*
X128571059Y-58794572D01*
X128617696Y-58846599D01*
X128628801Y-58915580D01*
X128600850Y-58979615D01*
X128571065Y-59005425D01*
X128563149Y-59010326D01*
X128563146Y-59010328D01*
X128411112Y-59148924D01*
X128287129Y-59313106D01*
X128195431Y-59497260D01*
X128195427Y-59497270D01*
X128139126Y-59695151D01*
X128120144Y-59900001D01*
X128139126Y-60104850D01*
X128139126Y-60104852D01*
X128139127Y-60104855D01*
X128152133Y-60150565D01*
X128195427Y-60302731D01*
X128195431Y-60302741D01*
X128274524Y-60461581D01*
X128287130Y-60486897D01*
X128290577Y-60491461D01*
X128411112Y-60651077D01*
X128563146Y-60789673D01*
X128563151Y-60789676D01*
X128571059Y-60794573D01*
X128617695Y-60846600D01*
X128628799Y-60915582D01*
X128600846Y-60979616D01*
X128571065Y-61005424D01*
X128563148Y-61010326D01*
X128563146Y-61010327D01*
X128411112Y-61148923D01*
X128287129Y-61313105D01*
X128195431Y-61497259D01*
X128195427Y-61497269D01*
X128139126Y-61695150D01*
X128120144Y-61900000D01*
X128139126Y-62104849D01*
X128139126Y-62104851D01*
X128139127Y-62104854D01*
X128139726Y-62106958D01*
X128195427Y-62302730D01*
X128195431Y-62302740D01*
X128284116Y-62480844D01*
X128287130Y-62486896D01*
X128318310Y-62528185D01*
X128411112Y-62651076D01*
X128563146Y-62789672D01*
X128563151Y-62789676D01*
X128738062Y-62897976D01*
X128738063Y-62897976D01*
X128738066Y-62897978D01*
X128929905Y-62972297D01*
X129132134Y-63010100D01*
X129132136Y-63010100D01*
X129337864Y-63010100D01*
X129337866Y-63010100D01*
X129540095Y-62972297D01*
X129731934Y-62897978D01*
X129906851Y-62789674D01*
X130058889Y-62651074D01*
X130182870Y-62486896D01*
X130274572Y-62302732D01*
X130330873Y-62104854D01*
X130349856Y-61900000D01*
X130330873Y-61695146D01*
X130274572Y-61497268D01*
X130182870Y-61313104D01*
X130058889Y-61148926D01*
X130058887Y-61148923D01*
X129906853Y-61010327D01*
X129906849Y-61010324D01*
X129898938Y-61005426D01*
X129852303Y-60953398D01*
X129841200Y-60884416D01*
X129869154Y-60820382D01*
X129898940Y-60794572D01*
X129906851Y-60789675D01*
X130058889Y-60651075D01*
X130182870Y-60486897D01*
X130274572Y-60302733D01*
X130330873Y-60104855D01*
X130349856Y-59900001D01*
X130330873Y-59695147D01*
X130274572Y-59497269D01*
X130269295Y-59486672D01*
X130205916Y-59359388D01*
X130182870Y-59313105D01*
X130076152Y-59171787D01*
X130058887Y-59148924D01*
X129906853Y-59010328D01*
X129898937Y-59005427D01*
X129852302Y-58953399D01*
X129841198Y-58884417D01*
X129869151Y-58820383D01*
X129898940Y-58794572D01*
X129906851Y-58789674D01*
X130008209Y-58697274D01*
X130058887Y-58651076D01*
X130058889Y-58651074D01*
X130182870Y-58486896D01*
X130274572Y-58302732D01*
X130330873Y-58104854D01*
X130349856Y-57900000D01*
X130330873Y-57695146D01*
X130274572Y-57497268D01*
X130270197Y-57488482D01*
X130213749Y-57375118D01*
X130182870Y-57313104D01*
X130058889Y-57148926D01*
X130058887Y-57148923D01*
X129906853Y-57010327D01*
X129906849Y-57010324D01*
X129898938Y-57005426D01*
X129852303Y-56953398D01*
X129841200Y-56884416D01*
X129869154Y-56820382D01*
X129898940Y-56794572D01*
X129906851Y-56789675D01*
X130039031Y-56669177D01*
X130058887Y-56651077D01*
X130061054Y-56648208D01*
X130182870Y-56486897D01*
X130274572Y-56302733D01*
X130330873Y-56104855D01*
X130349856Y-55900001D01*
X130330873Y-55695147D01*
X130320882Y-55660031D01*
X130321470Y-55590166D01*
X130359737Y-55531708D01*
X130423535Y-55503218D01*
X130440149Y-55502100D01*
X130474239Y-55502100D01*
X130541278Y-55521785D01*
X130561920Y-55538419D01*
X130641317Y-55617816D01*
X130674802Y-55679139D01*
X130677107Y-55716938D01*
X130660143Y-55900000D01*
X130679126Y-56104850D01*
X130679126Y-56104852D01*
X130679127Y-56104855D01*
X130691354Y-56147829D01*
X130735427Y-56302731D01*
X130735431Y-56302741D01*
X130803770Y-56439983D01*
X130827130Y-56486897D01*
X130855897Y-56524991D01*
X130951112Y-56651077D01*
X131103146Y-56789673D01*
X131103151Y-56789676D01*
X131111059Y-56794573D01*
X131157695Y-56846600D01*
X131168799Y-56915582D01*
X131140846Y-56979616D01*
X131111065Y-57005424D01*
X131103148Y-57010326D01*
X131103146Y-57010327D01*
X130951112Y-57148923D01*
X130827129Y-57313105D01*
X130735431Y-57497259D01*
X130735427Y-57497269D01*
X130690369Y-57655633D01*
X130684062Y-57677803D01*
X130679126Y-57695150D01*
X130660144Y-57900000D01*
X130679126Y-58104849D01*
X130679126Y-58104851D01*
X130679127Y-58104854D01*
X130687853Y-58135523D01*
X130735427Y-58302730D01*
X130735431Y-58302740D01*
X130815021Y-58462578D01*
X130827130Y-58486896D01*
X130875161Y-58550500D01*
X130951112Y-58651076D01*
X131103146Y-58789672D01*
X131103152Y-58789676D01*
X131111059Y-58794572D01*
X131157696Y-58846599D01*
X131168801Y-58915580D01*
X131140850Y-58979615D01*
X131111065Y-59005425D01*
X131103149Y-59010326D01*
X131103146Y-59010328D01*
X130951112Y-59148924D01*
X130827129Y-59313106D01*
X130735431Y-59497260D01*
X130735427Y-59497270D01*
X130679126Y-59695151D01*
X130660144Y-59900001D01*
X130679126Y-60104850D01*
X130679126Y-60104852D01*
X130679127Y-60104855D01*
X130692133Y-60150565D01*
X130735427Y-60302731D01*
X130735431Y-60302741D01*
X130814524Y-60461581D01*
X130827130Y-60486897D01*
X130830577Y-60491461D01*
X130951112Y-60651077D01*
X131103146Y-60789673D01*
X131103151Y-60789676D01*
X131111059Y-60794573D01*
X131157695Y-60846600D01*
X131168799Y-60915582D01*
X131140846Y-60979616D01*
X131111065Y-61005424D01*
X131103148Y-61010326D01*
X131103146Y-61010327D01*
X130951112Y-61148923D01*
X130827129Y-61313105D01*
X130735431Y-61497259D01*
X130735427Y-61497269D01*
X130679126Y-61695150D01*
X130660144Y-61900000D01*
X130679126Y-62104849D01*
X130679126Y-62104851D01*
X130679127Y-62104854D01*
X130679726Y-62106958D01*
X130735427Y-62302730D01*
X130735431Y-62302740D01*
X130824116Y-62480844D01*
X130827130Y-62486896D01*
X130858310Y-62528185D01*
X130951112Y-62651076D01*
X131103146Y-62789672D01*
X131103151Y-62789676D01*
X131278062Y-62897976D01*
X131278063Y-62897976D01*
X131278066Y-62897978D01*
X131469905Y-62972297D01*
X131672134Y-63010100D01*
X131672136Y-63010100D01*
X131877864Y-63010100D01*
X131877866Y-63010100D01*
X132080095Y-62972297D01*
X132271934Y-62897978D01*
X132446851Y-62789674D01*
X132598889Y-62651074D01*
X132722870Y-62486896D01*
X132814572Y-62302732D01*
X132870873Y-62104854D01*
X132889856Y-61900000D01*
X132870873Y-61695146D01*
X132814572Y-61497268D01*
X132722870Y-61313104D01*
X132598889Y-61148926D01*
X132598887Y-61148923D01*
X132446853Y-61010327D01*
X132446849Y-61010324D01*
X132438938Y-61005426D01*
X132392303Y-60953398D01*
X132381200Y-60884416D01*
X132409154Y-60820382D01*
X132438940Y-60794572D01*
X132446851Y-60789675D01*
X132598889Y-60651075D01*
X132722870Y-60486897D01*
X132814572Y-60302733D01*
X132870873Y-60104855D01*
X132889856Y-59900001D01*
X132870873Y-59695147D01*
X132814572Y-59497269D01*
X132809295Y-59486672D01*
X132745916Y-59359388D01*
X132722870Y-59313105D01*
X132616152Y-59171787D01*
X132598887Y-59148924D01*
X132446853Y-59010328D01*
X132438937Y-59005427D01*
X132392302Y-58953399D01*
X132381198Y-58884417D01*
X132409151Y-58820383D01*
X132438940Y-58794572D01*
X132446851Y-58789674D01*
X132548209Y-58697274D01*
X132598887Y-58651076D01*
X132598889Y-58651074D01*
X132722870Y-58486896D01*
X132814572Y-58302732D01*
X132870873Y-58104854D01*
X132889856Y-57900000D01*
X132870873Y-57695146D01*
X132814572Y-57497268D01*
X132810197Y-57488482D01*
X132753749Y-57375118D01*
X132722870Y-57313104D01*
X132598889Y-57148926D01*
X132598887Y-57148923D01*
X132446853Y-57010327D01*
X132446849Y-57010324D01*
X132438938Y-57005426D01*
X132392303Y-56953398D01*
X132381200Y-56884416D01*
X132409154Y-56820382D01*
X132438940Y-56794572D01*
X132446851Y-56789675D01*
X132579031Y-56669177D01*
X132598887Y-56651077D01*
X132601054Y-56648208D01*
X132722870Y-56486897D01*
X132814572Y-56302733D01*
X132870873Y-56104855D01*
X132889856Y-55900001D01*
X132870873Y-55695147D01*
X132814572Y-55497269D01*
X132806176Y-55480408D01*
X132754852Y-55377335D01*
X132722870Y-55313105D01*
X132625431Y-55184074D01*
X132598887Y-55148924D01*
X132446853Y-55010328D01*
X132438937Y-55005427D01*
X132392302Y-54953399D01*
X132381198Y-54884417D01*
X132409151Y-54820383D01*
X132438937Y-54794573D01*
X132446851Y-54789674D01*
X132569566Y-54677805D01*
X132598887Y-54651076D01*
X132598889Y-54651074D01*
X132722870Y-54486896D01*
X132814572Y-54302732D01*
X132870873Y-54104854D01*
X132889856Y-53900000D01*
X132870873Y-53695146D01*
X132814572Y-53497268D01*
X132722870Y-53313104D01*
X132598889Y-53148926D01*
X132598887Y-53148923D01*
X132446853Y-53010327D01*
X132446848Y-53010324D01*
X132438941Y-53005428D01*
X132392305Y-52953401D01*
X132381201Y-52884419D01*
X132409154Y-52820385D01*
X132438941Y-52794574D01*
X132441168Y-52793194D01*
X132446851Y-52789676D01*
X132545222Y-52700000D01*
X132598887Y-52651078D01*
X132598889Y-52651076D01*
X132722870Y-52486898D01*
X132814572Y-52302734D01*
X132870873Y-52104856D01*
X132889856Y-51900002D01*
X132870873Y-51695148D01*
X132814572Y-51497270D01*
X132783827Y-51435526D01*
X132756800Y-51381247D01*
X132722870Y-51313106D01*
X132598889Y-51148928D01*
X132598887Y-51148925D01*
X132446853Y-51010329D01*
X132438937Y-51005428D01*
X132392302Y-50953400D01*
X132381198Y-50884418D01*
X132409151Y-50820384D01*
X132438937Y-50794574D01*
X132446851Y-50789675D01*
X132598889Y-50651075D01*
X132722870Y-50486897D01*
X132814572Y-50302733D01*
X132870873Y-50104855D01*
X132889856Y-49900001D01*
X132870873Y-49695147D01*
X132814572Y-49497269D01*
X132805229Y-49478506D01*
X132759725Y-49387121D01*
X132722870Y-49313105D01*
X132601334Y-49152165D01*
X132598887Y-49148924D01*
X132446853Y-49010328D01*
X132438937Y-49005427D01*
X132392302Y-48953399D01*
X132381198Y-48884417D01*
X132409151Y-48820383D01*
X132438937Y-48794573D01*
X132446851Y-48789674D01*
X132598889Y-48651074D01*
X132722870Y-48486896D01*
X132814572Y-48302732D01*
X132870873Y-48104854D01*
X132889856Y-47900000D01*
X132870873Y-47695146D01*
X132814572Y-47497268D01*
X132809295Y-47486671D01*
X132736566Y-47340610D01*
X132722870Y-47313104D01*
X132614820Y-47170022D01*
X132598887Y-47148923D01*
X132446853Y-47010327D01*
X132446848Y-47010323D01*
X132271937Y-46902023D01*
X132271931Y-46902021D01*
X132080095Y-46827703D01*
X131877866Y-46789900D01*
X131672134Y-46789900D01*
X131469905Y-46827703D01*
X131406754Y-46852168D01*
X131278068Y-46902021D01*
X131278062Y-46902023D01*
X131103151Y-47010323D01*
X131103146Y-47010327D01*
X130951112Y-47148923D01*
X130827129Y-47313105D01*
X130735431Y-47497259D01*
X130735427Y-47497269D01*
X130679126Y-47695150D01*
X130660144Y-47900000D01*
X130679127Y-48104854D01*
X130679127Y-48104856D01*
X130689117Y-48139966D01*
X130688530Y-48209833D01*
X130650263Y-48268292D01*
X130586466Y-48296782D01*
X130569851Y-48297900D01*
X130440149Y-48297900D01*
X130373110Y-48278215D01*
X130327355Y-48225411D01*
X130317411Y-48156253D01*
X130320883Y-48139966D01*
X130323668Y-48130174D01*
X130330873Y-48104854D01*
X130349856Y-47900000D01*
X130330873Y-47695146D01*
X130274572Y-47497268D01*
X130269295Y-47486671D01*
X130196566Y-47340610D01*
X130182870Y-47313104D01*
X130074820Y-47170022D01*
X130058887Y-47148923D01*
X129906853Y-47010327D01*
X129906848Y-47010323D01*
X129731937Y-46902023D01*
X129731931Y-46902021D01*
X129540095Y-46827703D01*
X129337866Y-46789900D01*
X129132134Y-46789900D01*
X128929905Y-46827703D01*
X128866754Y-46852168D01*
X128738068Y-46902021D01*
X128738062Y-46902023D01*
X128563151Y-47010323D01*
X128563146Y-47010327D01*
X128411112Y-47148923D01*
X128287129Y-47313105D01*
X128195431Y-47497259D01*
X128195427Y-47497269D01*
X128139126Y-47695150D01*
X128120144Y-47900000D01*
X128139127Y-48104854D01*
X128139127Y-48104856D01*
X128149117Y-48139966D01*
X128148530Y-48209833D01*
X128110263Y-48268292D01*
X128046466Y-48296782D01*
X128029851Y-48297900D01*
X126131953Y-48297900D01*
X126064914Y-48278215D01*
X126048986Y-48266055D01*
X126047232Y-48264476D01*
X126047231Y-48264475D01*
X126047230Y-48264474D01*
X125950805Y-48194416D01*
X125902592Y-48159387D01*
X125849030Y-48135540D01*
X125795793Y-48090290D01*
X125775472Y-48023441D01*
X125794517Y-47956217D01*
X125846884Y-47909962D01*
X125848961Y-47909012D01*
X126002593Y-47840612D01*
X126147230Y-47735526D01*
X126149190Y-47733350D01*
X126202926Y-47673669D01*
X126266859Y-47602665D01*
X126356250Y-47447835D01*
X126411497Y-47277803D01*
X126430185Y-47100000D01*
X126411497Y-46922197D01*
X126368511Y-46789900D01*
X126356252Y-46752170D01*
X126356249Y-46752164D01*
X126266859Y-46597335D01*
X126208629Y-46532664D01*
X126147235Y-46464478D01*
X126147232Y-46464476D01*
X126147231Y-46464475D01*
X126147230Y-46464474D01*
X126002593Y-46359388D01*
X125839267Y-46286671D01*
X125839265Y-46286670D01*
X125699045Y-46256866D01*
X125664391Y-46249500D01*
X125485609Y-46249500D01*
X125454954Y-46256015D01*
X125310733Y-46286670D01*
X125310728Y-46286672D01*
X125147408Y-46359387D01*
X125002768Y-46464475D01*
X124883140Y-46597336D01*
X124793750Y-46752164D01*
X124793747Y-46752170D01*
X124738504Y-46922192D01*
X124738503Y-46922194D01*
X124719815Y-47100000D01*
X124738503Y-47277805D01*
X124738504Y-47277807D01*
X124793747Y-47447829D01*
X124793750Y-47447835D01*
X124883141Y-47602665D01*
X124923229Y-47647187D01*
X125002764Y-47735521D01*
X125002767Y-47735523D01*
X125002770Y-47735526D01*
X125147407Y-47840612D01*
X125200969Y-47864459D01*
X125254205Y-47909708D01*
X125274527Y-47976557D01*
X125255482Y-48043781D01*
X125203116Y-48090037D01*
X125200969Y-48091017D01*
X125047408Y-48159387D01*
X124902768Y-48264475D01*
X124783140Y-48397336D01*
X124693750Y-48552164D01*
X124693747Y-48552170D01*
X124638504Y-48722192D01*
X124638503Y-48722194D01*
X124619815Y-48900000D01*
X124638503Y-49077805D01*
X124638504Y-49077807D01*
X124693747Y-49247829D01*
X124693750Y-49247835D01*
X124783141Y-49402665D01*
X124823807Y-49447829D01*
X124902764Y-49535521D01*
X124902767Y-49535523D01*
X124902770Y-49535526D01*
X125047407Y-49640612D01*
X125210733Y-49713329D01*
X125385609Y-49750500D01*
X125385610Y-49750500D01*
X125564389Y-49750500D01*
X125564391Y-49750500D01*
X125739267Y-49713329D01*
X125902593Y-49640612D01*
X126047230Y-49535526D01*
X126047235Y-49535519D01*
X126048986Y-49533945D01*
X126050220Y-49533352D01*
X126052487Y-49531706D01*
X126052788Y-49532120D01*
X126111979Y-49503719D01*
X126131953Y-49502100D01*
X128029851Y-49502100D01*
X128096890Y-49521785D01*
X128142645Y-49574589D01*
X128152589Y-49643747D01*
X128149118Y-49660033D01*
X128139126Y-49695149D01*
X128120391Y-49897338D01*
X128120144Y-49900001D01*
X128139127Y-50104855D01*
X128147852Y-50135521D01*
X128149117Y-50139965D01*
X128148531Y-50209832D01*
X128110264Y-50268291D01*
X128046467Y-50296782D01*
X128029851Y-50297900D01*
X124122576Y-50297900D01*
X124055537Y-50278215D01*
X124030426Y-50256872D01*
X123947235Y-50164478D01*
X123947232Y-50164476D01*
X123947231Y-50164475D01*
X123947230Y-50164474D01*
X123802593Y-50059388D01*
X123639267Y-49986671D01*
X123639265Y-49986670D01*
X123486291Y-49954155D01*
X123464391Y-49949500D01*
X123285609Y-49949500D01*
X123263709Y-49954155D01*
X123110733Y-49986670D01*
X123110728Y-49986672D01*
X122947408Y-50059387D01*
X122802768Y-50164475D01*
X122683140Y-50297336D01*
X122593750Y-50452164D01*
X122593747Y-50452170D01*
X122538504Y-50622192D01*
X122538503Y-50622194D01*
X122519815Y-50800000D01*
X122538503Y-50977805D01*
X122538504Y-50977807D01*
X122593747Y-51147829D01*
X122593750Y-51147835D01*
X122683141Y-51302665D01*
X122715889Y-51339035D01*
X122802764Y-51435521D01*
X122802767Y-51435523D01*
X122802770Y-51435526D01*
X122947407Y-51540612D01*
X123110733Y-51613329D01*
X123285609Y-51650500D01*
X123285610Y-51650500D01*
X123464389Y-51650500D01*
X123464391Y-51650500D01*
X123639267Y-51613329D01*
X123802593Y-51540612D01*
X123802596Y-51540610D01*
X123823007Y-51525781D01*
X123888813Y-51502302D01*
X123895891Y-51502100D01*
X128029852Y-51502100D01*
X128096891Y-51521785D01*
X128142646Y-51574589D01*
X128152590Y-51643747D01*
X128149119Y-51660028D01*
X128147277Y-51666504D01*
X128139126Y-51695148D01*
X128120144Y-51900002D01*
X128139126Y-52104853D01*
X128139127Y-52104856D01*
X128149116Y-52139966D01*
X128148531Y-52209832D01*
X128110265Y-52268291D01*
X128046468Y-52296782D01*
X128029851Y-52297900D01*
X122731953Y-52297900D01*
X122664914Y-52278215D01*
X122648986Y-52266055D01*
X122647232Y-52264476D01*
X122647231Y-52264475D01*
X122647230Y-52264474D01*
X122502593Y-52159388D01*
X122339267Y-52086671D01*
X122339265Y-52086670D01*
X122211594Y-52059533D01*
X122164391Y-52049500D01*
X121985609Y-52049500D01*
X121954954Y-52056015D01*
X121810733Y-52086670D01*
X121810728Y-52086672D01*
X121647408Y-52159387D01*
X121502768Y-52264475D01*
X121383140Y-52397336D01*
X121293750Y-52552164D01*
X121293747Y-52552170D01*
X121238504Y-52722192D01*
X121238503Y-52722194D01*
X121219815Y-52900000D01*
X117577100Y-52900000D01*
X117577100Y-50700000D01*
X119359887Y-50700000D01*
X119378575Y-50877805D01*
X119378576Y-50877807D01*
X119433819Y-51047829D01*
X119433822Y-51047835D01*
X119523213Y-51202665D01*
X119564884Y-51248946D01*
X119642836Y-51335521D01*
X119642839Y-51335523D01*
X119642842Y-51335526D01*
X119787479Y-51440612D01*
X119950805Y-51513329D01*
X120125681Y-51550500D01*
X120125682Y-51550500D01*
X120304461Y-51550500D01*
X120304463Y-51550500D01*
X120479339Y-51513329D01*
X120642665Y-51440612D01*
X120787302Y-51335526D01*
X120906931Y-51202665D01*
X120996322Y-51047835D01*
X121051569Y-50877803D01*
X121070257Y-50700000D01*
X121051569Y-50522197D01*
X121042769Y-50495116D01*
X121040773Y-50425278D01*
X121076852Y-50365444D01*
X121134914Y-50335509D01*
X121239267Y-50313329D01*
X121402593Y-50240612D01*
X121547230Y-50135526D01*
X121565806Y-50114896D01*
X121574851Y-50104850D01*
X121666859Y-50002665D01*
X121756250Y-49847835D01*
X121811497Y-49677803D01*
X121830185Y-49500000D01*
X121811497Y-49322197D01*
X121775933Y-49212745D01*
X121774545Y-49164143D01*
X121753776Y-49147160D01*
X121748747Y-49139169D01*
X121713317Y-49077803D01*
X121666859Y-48997335D01*
X121613677Y-48938271D01*
X121547235Y-48864478D01*
X121547232Y-48864476D01*
X121547231Y-48864475D01*
X121547230Y-48864474D01*
X121402593Y-48759388D01*
X121385101Y-48751600D01*
X121919815Y-48751600D01*
X121938503Y-48929405D01*
X121938504Y-48929407D01*
X121974065Y-49038851D01*
X121975453Y-49087454D01*
X121996223Y-49104438D01*
X122001252Y-49112430D01*
X122083140Y-49254263D01*
X122083139Y-49254263D01*
X122202764Y-49387121D01*
X122202767Y-49387123D01*
X122202770Y-49387126D01*
X122347407Y-49492212D01*
X122510733Y-49564929D01*
X122685609Y-49602100D01*
X122685610Y-49602100D01*
X122864389Y-49602100D01*
X122864391Y-49602100D01*
X123039267Y-49564929D01*
X123202593Y-49492212D01*
X123347230Y-49387126D01*
X123466859Y-49254265D01*
X123556250Y-49099435D01*
X123611497Y-48929403D01*
X123630185Y-48751600D01*
X123611497Y-48573797D01*
X123556250Y-48403765D01*
X123466859Y-48248935D01*
X123398311Y-48172805D01*
X123347235Y-48116078D01*
X123347232Y-48116076D01*
X123347231Y-48116075D01*
X123347230Y-48116074D01*
X123202593Y-48010988D01*
X123039267Y-47938271D01*
X123039265Y-47938270D01*
X122906083Y-47909962D01*
X122864391Y-47901100D01*
X122685609Y-47901100D01*
X122654954Y-47907615D01*
X122510733Y-47938270D01*
X122510728Y-47938272D01*
X122347408Y-48010987D01*
X122202768Y-48116075D01*
X122083140Y-48248936D01*
X121993750Y-48403764D01*
X121993747Y-48403770D01*
X121938504Y-48573792D01*
X121938503Y-48573794D01*
X121919815Y-48751600D01*
X121385101Y-48751600D01*
X121239267Y-48686671D01*
X121239265Y-48686670D01*
X121111594Y-48659533D01*
X121064391Y-48649500D01*
X120885609Y-48649500D01*
X120854954Y-48656015D01*
X120710733Y-48686670D01*
X120710728Y-48686672D01*
X120547408Y-48759387D01*
X120402768Y-48864475D01*
X120283140Y-48997336D01*
X120193750Y-49152164D01*
X120193747Y-49152170D01*
X120138504Y-49322192D01*
X120138503Y-49322194D01*
X120119815Y-49500000D01*
X120138503Y-49677804D01*
X120138504Y-49677807D01*
X120144138Y-49695147D01*
X120147302Y-49704882D01*
X120149297Y-49774724D01*
X120113217Y-49834557D01*
X120055152Y-49864491D01*
X119950805Y-49886670D01*
X119950800Y-49886672D01*
X119787480Y-49959387D01*
X119642840Y-50064475D01*
X119523212Y-50197336D01*
X119433822Y-50352164D01*
X119433819Y-50352170D01*
X119378576Y-50522192D01*
X119378575Y-50522194D01*
X119359887Y-50700000D01*
X117577100Y-50700000D01*
X117577100Y-44020732D01*
X117536067Y-43867598D01*
X117456800Y-43730302D01*
X117344698Y-43618200D01*
X113240279Y-39513781D01*
X113206794Y-39452458D01*
X113211778Y-39382766D01*
X113253650Y-39326833D01*
X113319114Y-39302416D01*
X113327960Y-39302100D01*
X115674240Y-39302100D01*
X115741279Y-39321785D01*
X115761921Y-39338419D01*
X120688332Y-44264830D01*
X120721817Y-44326153D01*
X120723971Y-44339545D01*
X120729440Y-44391577D01*
X120738503Y-44477804D01*
X120738504Y-44477807D01*
X120793747Y-44647829D01*
X120793750Y-44647835D01*
X120805310Y-44667857D01*
X120821783Y-44735757D01*
X120798930Y-44801784D01*
X120744009Y-44844975D01*
X120674456Y-44851616D01*
X120672167Y-44851152D01*
X120664391Y-44849500D01*
X120485609Y-44849500D01*
X120468748Y-44853084D01*
X120310733Y-44886670D01*
X120310728Y-44886672D01*
X120147408Y-44959387D01*
X120002768Y-45064475D01*
X119883140Y-45197336D01*
X119793750Y-45352164D01*
X119793747Y-45352170D01*
X119738502Y-45522197D01*
X119735715Y-45548710D01*
X119709128Y-45613324D01*
X119700076Y-45623424D01*
X118888016Y-46435486D01*
X118826693Y-46468971D01*
X118800335Y-46471805D01*
X118763304Y-46471805D01*
X118732649Y-46478320D01*
X118588428Y-46508975D01*
X118588423Y-46508977D01*
X118425103Y-46581692D01*
X118280463Y-46686780D01*
X118160835Y-46819641D01*
X118071445Y-46974469D01*
X118071442Y-46974475D01*
X118016199Y-47144497D01*
X118016198Y-47144499D01*
X117997510Y-47322305D01*
X118016198Y-47500110D01*
X118016199Y-47500112D01*
X118071442Y-47670134D01*
X118071445Y-47670140D01*
X118160836Y-47824970D01*
X118180504Y-47846813D01*
X118280459Y-47957826D01*
X118280462Y-47957828D01*
X118280465Y-47957831D01*
X118425102Y-48062917D01*
X118588428Y-48135634D01*
X118763304Y-48172805D01*
X118763305Y-48172805D01*
X118942084Y-48172805D01*
X118942086Y-48172805D01*
X119116962Y-48135634D01*
X119280288Y-48062917D01*
X119342376Y-48017806D01*
X119408181Y-47994326D01*
X119476236Y-48010151D01*
X119507412Y-48035152D01*
X119552764Y-48085521D01*
X119552767Y-48085523D01*
X119552770Y-48085526D01*
X119697407Y-48190612D01*
X119860733Y-48263329D01*
X120035609Y-48300500D01*
X120035610Y-48300500D01*
X120214389Y-48300500D01*
X120214391Y-48300500D01*
X120389267Y-48263329D01*
X120552593Y-48190612D01*
X120697230Y-48085526D01*
X120816859Y-47952665D01*
X120906250Y-47797835D01*
X120906413Y-47797335D01*
X120919358Y-47757493D01*
X120961497Y-47627803D01*
X120964283Y-47601291D01*
X120990865Y-47536680D01*
X120999913Y-47526583D01*
X122591279Y-45935219D01*
X122652602Y-45901734D01*
X122678960Y-45898900D01*
X122714389Y-45898900D01*
X122714391Y-45898900D01*
X122889267Y-45861729D01*
X123052593Y-45789012D01*
X123197230Y-45683926D01*
X123209586Y-45670204D01*
X123238611Y-45637968D01*
X123316859Y-45551065D01*
X123406250Y-45396235D01*
X123461497Y-45226203D01*
X123465699Y-45186218D01*
X123492282Y-45121604D01*
X123549578Y-45081618D01*
X123563213Y-45077894D01*
X123639267Y-45061729D01*
X123802593Y-44989012D01*
X123802597Y-44989008D01*
X123808224Y-44985761D01*
X123808904Y-44986939D01*
X123867911Y-44965880D01*
X123935966Y-44981700D01*
X123946783Y-44988652D01*
X123947402Y-44989009D01*
X123947404Y-44989010D01*
X123947407Y-44989012D01*
X124110733Y-45061729D01*
X124285609Y-45098900D01*
X124285610Y-45098900D01*
X124464389Y-45098900D01*
X124464391Y-45098900D01*
X124639267Y-45061729D01*
X124802593Y-44989012D01*
X124902114Y-44916704D01*
X124967920Y-44893224D01*
X125035974Y-44909049D01*
X125047886Y-44916705D01*
X125147401Y-44989008D01*
X125147402Y-44989009D01*
X125147404Y-44989010D01*
X125147407Y-44989012D01*
X125310733Y-45061729D01*
X125485609Y-45098900D01*
X125485610Y-45098900D01*
X125664389Y-45098900D01*
X125664391Y-45098900D01*
X125839267Y-45061729D01*
X126002593Y-44989012D01*
X126147230Y-44883926D01*
X126266859Y-44751065D01*
X126356250Y-44596235D01*
X126411497Y-44426203D01*
X126430185Y-44248400D01*
X126411497Y-44070597D01*
X126356250Y-43900565D01*
X126311001Y-43822192D01*
X126266860Y-43745736D01*
X126266855Y-43745729D01*
X126208950Y-43681419D01*
X126178720Y-43618427D01*
X126177100Y-43598447D01*
X126177100Y-43020733D01*
X126173736Y-43008179D01*
X126136067Y-42867598D01*
X126056800Y-42730302D01*
X125944698Y-42618200D01*
X118413419Y-35086921D01*
X118379934Y-35025598D01*
X118377100Y-34999240D01*
X118377100Y-32899998D01*
X122520928Y-32899998D01*
X122520928Y-32900001D01*
X122539979Y-33117761D01*
X122539981Y-33117771D01*
X122596555Y-33328910D01*
X122596559Y-33328919D01*
X122688944Y-33527039D01*
X122732376Y-33589068D01*
X122732377Y-33589069D01*
X123295874Y-33025572D01*
X123313454Y-33091179D01*
X123378661Y-33204121D01*
X123470879Y-33296339D01*
X123583821Y-33361546D01*
X123649427Y-33379125D01*
X123085929Y-33942621D01*
X123085930Y-33942622D01*
X123147960Y-33986055D01*
X123346080Y-34078440D01*
X123346089Y-34078444D01*
X123557228Y-34135018D01*
X123557238Y-34135020D01*
X123774998Y-34154072D01*
X123775002Y-34154072D01*
X123992761Y-34135020D01*
X123992771Y-34135018D01*
X124203910Y-34078444D01*
X124203919Y-34078440D01*
X124402035Y-33986057D01*
X124464069Y-33942621D01*
X123900573Y-33379125D01*
X123966179Y-33361546D01*
X124079121Y-33296339D01*
X124171339Y-33204121D01*
X124236546Y-33091179D01*
X124254125Y-33025573D01*
X124817621Y-33589069D01*
X124861056Y-33527037D01*
X124912340Y-33417057D01*
X124958512Y-33364618D01*
X125025706Y-33345465D01*
X125092587Y-33365680D01*
X125137105Y-33417056D01*
X125188506Y-33527286D01*
X125188507Y-33527287D01*
X125313941Y-33706425D01*
X125468575Y-33861059D01*
X125647713Y-33986493D01*
X125845910Y-34078914D01*
X126057146Y-34135514D01*
X126231429Y-34150762D01*
X126274999Y-34154574D01*
X126275000Y-34154574D01*
X126275001Y-34154574D01*
X126311309Y-34151397D01*
X126492854Y-34135514D01*
X126704090Y-34078914D01*
X126902287Y-33986493D01*
X127081425Y-33861059D01*
X127236059Y-33706425D01*
X127361493Y-33527287D01*
X127412618Y-33417648D01*
X127458790Y-33365209D01*
X127525984Y-33346057D01*
X127592865Y-33366273D01*
X127637381Y-33417648D01*
X127688507Y-33527287D01*
X127813941Y-33706425D01*
X127968575Y-33861059D01*
X128147713Y-33986493D01*
X128345910Y-34078914D01*
X128557146Y-34135514D01*
X128731429Y-34150762D01*
X128774999Y-34154574D01*
X128775000Y-34154574D01*
X128775001Y-34154574D01*
X128811309Y-34151397D01*
X128992854Y-34135514D01*
X129204090Y-34078914D01*
X129402287Y-33986493D01*
X129581425Y-33861059D01*
X129736059Y-33706425D01*
X129861493Y-33527287D01*
X129953914Y-33329090D01*
X130010514Y-33117854D01*
X130029574Y-32900000D01*
X130010514Y-32682146D01*
X129953914Y-32470910D01*
X129861493Y-32272713D01*
X129736059Y-32093575D01*
X129581425Y-31938941D01*
X129438114Y-31838593D01*
X129402286Y-31813506D01*
X129303188Y-31767296D01*
X129204090Y-31721086D01*
X129204086Y-31721085D01*
X129204082Y-31721083D01*
X128992859Y-31664487D01*
X128992849Y-31664485D01*
X128775001Y-31645426D01*
X128774999Y-31645426D01*
X128557150Y-31664485D01*
X128557140Y-31664487D01*
X128345917Y-31721083D01*
X128345910Y-31721085D01*
X128345910Y-31721086D01*
X128344932Y-31721542D01*
X128147713Y-31813506D01*
X128035125Y-31892342D01*
X127968575Y-31938941D01*
X127968573Y-31938942D01*
X127968570Y-31938945D01*
X127813945Y-32093570D01*
X127688506Y-32272713D01*
X127637382Y-32382351D01*
X127591210Y-32434790D01*
X127524016Y-32453942D01*
X127457135Y-32433726D01*
X127412618Y-32382351D01*
X127408258Y-32373002D01*
X127361493Y-32272713D01*
X127236059Y-32093575D01*
X127081425Y-31938941D01*
X126938114Y-31838593D01*
X126902286Y-31813506D01*
X126803188Y-31767296D01*
X126704090Y-31721086D01*
X126704086Y-31721085D01*
X126704082Y-31721083D01*
X126492859Y-31664487D01*
X126492849Y-31664485D01*
X126275001Y-31645426D01*
X126274999Y-31645426D01*
X126057150Y-31664485D01*
X126057140Y-31664487D01*
X125845917Y-31721083D01*
X125845910Y-31721085D01*
X125845910Y-31721086D01*
X125844932Y-31721542D01*
X125647713Y-31813506D01*
X125535125Y-31892342D01*
X125468575Y-31938941D01*
X125468573Y-31938942D01*
X125468570Y-31938945D01*
X125313945Y-32093570D01*
X125313942Y-32093573D01*
X125313941Y-32093575D01*
X125270053Y-32156254D01*
X125188508Y-32272711D01*
X125137105Y-32382944D01*
X125090932Y-32435383D01*
X125023738Y-32454534D01*
X124956857Y-32434318D01*
X124912341Y-32382942D01*
X124861057Y-32272962D01*
X124861056Y-32272961D01*
X124817622Y-32210930D01*
X124817621Y-32210929D01*
X124254124Y-32774426D01*
X124236546Y-32708821D01*
X124171339Y-32595879D01*
X124079121Y-32503661D01*
X123966179Y-32438454D01*
X123900572Y-32420874D01*
X124464069Y-31857377D01*
X124464068Y-31857376D01*
X124402039Y-31813944D01*
X124203919Y-31721559D01*
X124203910Y-31721555D01*
X123992771Y-31664981D01*
X123992761Y-31664979D01*
X123775002Y-31645928D01*
X123774998Y-31645928D01*
X123557238Y-31664979D01*
X123557228Y-31664981D01*
X123346089Y-31721555D01*
X123346080Y-31721559D01*
X123147964Y-31813942D01*
X123085930Y-31857377D01*
X123649428Y-32420874D01*
X123583821Y-32438454D01*
X123470879Y-32503661D01*
X123378661Y-32595879D01*
X123313454Y-32708821D01*
X123295874Y-32774427D01*
X122732377Y-32210930D01*
X122688942Y-32272964D01*
X122596559Y-32471080D01*
X122596555Y-32471089D01*
X122539981Y-32682228D01*
X122539979Y-32682238D01*
X122520928Y-32899998D01*
X118377100Y-32899998D01*
X118377100Y-30620733D01*
X118377100Y-30620732D01*
X118336067Y-30467598D01*
X118256800Y-30330302D01*
X118144698Y-30218200D01*
X116944698Y-29018200D01*
X116807402Y-28938933D01*
X116807403Y-28938933D01*
X116756357Y-28925255D01*
X116654268Y-28897900D01*
X112895732Y-28897900D01*
X112793642Y-28925255D01*
X112742597Y-28938933D01*
X112605303Y-29018199D01*
X112605300Y-29018201D01*
X111826600Y-29796901D01*
X111826598Y-29796904D01*
X111747332Y-29934198D01*
X111747330Y-29934203D01*
X111717916Y-30043974D01*
X111681551Y-30103634D01*
X111663422Y-30117304D01*
X111598118Y-30157740D01*
X111437380Y-30304271D01*
X111407351Y-30344035D01*
X111351242Y-30385670D01*
X111281530Y-30390361D01*
X111220348Y-30356618D01*
X111209444Y-30344034D01*
X111199074Y-30330302D01*
X111179415Y-30304269D01*
X111018680Y-30157741D01*
X110833758Y-30043241D01*
X110833757Y-30043240D01*
X110630948Y-29964672D01*
X110630947Y-29964671D01*
X110630945Y-29964671D01*
X110417148Y-29924706D01*
X110199648Y-29924706D01*
X109985851Y-29964671D01*
X109985849Y-29964671D01*
X109985847Y-29964672D01*
X109783038Y-30043240D01*
X109783037Y-30043241D01*
X109598120Y-30157738D01*
X109598118Y-30157739D01*
X109598116Y-30157741D01*
X109587816Y-30167131D01*
X109437379Y-30304270D01*
X109407353Y-30344032D01*
X109351243Y-30385668D01*
X109281531Y-30390359D01*
X109220350Y-30356617D01*
X109209445Y-30344032D01*
X109179418Y-30304270D01*
X109175641Y-30300827D01*
X109018682Y-30157741D01*
X108833760Y-30043241D01*
X108833759Y-30043240D01*
X108630950Y-29964672D01*
X108630949Y-29964671D01*
X108630947Y-29964671D01*
X108417150Y-29924706D01*
X108199650Y-29924706D01*
X107985853Y-29964671D01*
X107985851Y-29964671D01*
X107985849Y-29964672D01*
X107783040Y-30043240D01*
X107783039Y-30043241D01*
X107598122Y-30157738D01*
X107598120Y-30157739D01*
X107598118Y-30157741D01*
X107437383Y-30304269D01*
X107437381Y-30304271D01*
X107407352Y-30344035D01*
X107351243Y-30385670D01*
X107281531Y-30390361D01*
X107220349Y-30356618D01*
X107209445Y-30344034D01*
X107199075Y-30330302D01*
X107179416Y-30304269D01*
X107018681Y-30157741D01*
X106833759Y-30043241D01*
X106833758Y-30043240D01*
X106630949Y-29964672D01*
X106630948Y-29964671D01*
X106630946Y-29964671D01*
X106417149Y-29924706D01*
X106199649Y-29924706D01*
X105985852Y-29964671D01*
X105985850Y-29964671D01*
X105985848Y-29964672D01*
X105783039Y-30043240D01*
X105783038Y-30043241D01*
X105598121Y-30157738D01*
X105598119Y-30157739D01*
X105598117Y-30157741D01*
X105437382Y-30304269D01*
X105437380Y-30304271D01*
X105407352Y-30344034D01*
X105351243Y-30385669D01*
X105281531Y-30390360D01*
X105220349Y-30356617D01*
X105209445Y-30344032D01*
X105179420Y-30304272D01*
X105179417Y-30304269D01*
X105018682Y-30157741D01*
X104833760Y-30043241D01*
X104833759Y-30043240D01*
X104630950Y-29964672D01*
X104630949Y-29964671D01*
X104630947Y-29964671D01*
X104417150Y-29924706D01*
X104199650Y-29924706D01*
X103985853Y-29964671D01*
X103985851Y-29964671D01*
X103985849Y-29964672D01*
X103783040Y-30043240D01*
X103783039Y-30043241D01*
X103598122Y-30157738D01*
X103598120Y-30157739D01*
X103598118Y-30157741D01*
X103437383Y-30304269D01*
X103437381Y-30304271D01*
X103407352Y-30344035D01*
X103351243Y-30385670D01*
X103281531Y-30390361D01*
X103220349Y-30356618D01*
X103209445Y-30344034D01*
X103199075Y-30330302D01*
X103179416Y-30304269D01*
X103018681Y-30157741D01*
X102833759Y-30043241D01*
X102833758Y-30043240D01*
X102630949Y-29964672D01*
X102630948Y-29964671D01*
X102630946Y-29964671D01*
X102417149Y-29924706D01*
X102199649Y-29924706D01*
X101985852Y-29964671D01*
X101985850Y-29964671D01*
X101985848Y-29964672D01*
X101783039Y-30043240D01*
X101783038Y-30043241D01*
X101598121Y-30157738D01*
X101598119Y-30157739D01*
X101598117Y-30157741D01*
X101437382Y-30304269D01*
X101437380Y-30304271D01*
X101407351Y-30344035D01*
X101351242Y-30385670D01*
X101281530Y-30390361D01*
X101220348Y-30356618D01*
X101209444Y-30344034D01*
X101199074Y-30330302D01*
X101179415Y-30304269D01*
X101018680Y-30157741D01*
X100833758Y-30043241D01*
X100833757Y-30043240D01*
X100630948Y-29964672D01*
X100630947Y-29964671D01*
X100630945Y-29964671D01*
X100417148Y-29924706D01*
X100199648Y-29924706D01*
X99985851Y-29964671D01*
X99985849Y-29964671D01*
X99985847Y-29964672D01*
X99783038Y-30043240D01*
X99783037Y-30043241D01*
X99598120Y-30157738D01*
X99598118Y-30157739D01*
X99598116Y-30157741D01*
X99587816Y-30167131D01*
X99437379Y-30304270D01*
X99407353Y-30344032D01*
X99351243Y-30385668D01*
X99281531Y-30390359D01*
X99220350Y-30356617D01*
X99209445Y-30344032D01*
X99179418Y-30304270D01*
X99175641Y-30300827D01*
X99018682Y-30157741D01*
X98833760Y-30043241D01*
X98833759Y-30043240D01*
X98630950Y-29964672D01*
X98630949Y-29964671D01*
X98630947Y-29964671D01*
X98417150Y-29924706D01*
X98199650Y-29924706D01*
X97985853Y-29964671D01*
X97985851Y-29964671D01*
X97985849Y-29964672D01*
X97783040Y-30043240D01*
X97783039Y-30043241D01*
X97598122Y-30157738D01*
X97598120Y-30157739D01*
X97598118Y-30157741D01*
X97587818Y-30167131D01*
X97437382Y-30304270D01*
X97407353Y-30344035D01*
X97351244Y-30385671D01*
X97281532Y-30390362D01*
X97220350Y-30356620D01*
X97209445Y-30344035D01*
X97179417Y-30304272D01*
X97179415Y-30304269D01*
X97018680Y-30157741D01*
X96833758Y-30043241D01*
X96833757Y-30043240D01*
X96630948Y-29964672D01*
X96630947Y-29964671D01*
X96630945Y-29964671D01*
X96417148Y-29924706D01*
X96199648Y-29924706D01*
X95985851Y-29964671D01*
X95985849Y-29964671D01*
X95985847Y-29964672D01*
X95783038Y-30043240D01*
X95783037Y-30043241D01*
X95598120Y-30157738D01*
X95598118Y-30157739D01*
X95598116Y-30157741D01*
X95587816Y-30167131D01*
X95437379Y-30304270D01*
X95407353Y-30344032D01*
X95351243Y-30385668D01*
X95281531Y-30390359D01*
X95220350Y-30356617D01*
X95209445Y-30344032D01*
X95179418Y-30304270D01*
X95175641Y-30300827D01*
X95018682Y-30157741D01*
X94833760Y-30043241D01*
X94833759Y-30043240D01*
X94630950Y-29964672D01*
X94630949Y-29964671D01*
X94630947Y-29964671D01*
X94417150Y-29924706D01*
X94199650Y-29924706D01*
X94199648Y-29924706D01*
X94084144Y-29946296D01*
X94014629Y-29939264D01*
X93973680Y-29912088D01*
X93279793Y-29218201D01*
X93279792Y-29218200D01*
X93142496Y-29138933D01*
X93142497Y-29138933D01*
X93091451Y-29125255D01*
X92989362Y-29097900D01*
X91054268Y-29097900D01*
X90895732Y-29097900D01*
X90793642Y-29125255D01*
X90742597Y-29138933D01*
X90605303Y-29218199D01*
X90605300Y-29218201D01*
X89090001Y-30733500D01*
X89089999Y-30733503D01*
X89010733Y-30870797D01*
X88969700Y-31023933D01*
X88969700Y-40345442D01*
X88950015Y-40412481D01*
X88897211Y-40458236D01*
X88828053Y-40468180D01*
X88764497Y-40439155D01*
X88758019Y-40433124D01*
X88737376Y-40412481D01*
X88646401Y-40321506D01*
X88646397Y-40321503D01*
X88646396Y-40321502D01*
X88452834Y-40185968D01*
X88452830Y-40185966D01*
X88452828Y-40185965D01*
X88238663Y-40086098D01*
X88238659Y-40086097D01*
X88238655Y-40086095D01*
X88010413Y-40024939D01*
X88010403Y-40024937D01*
X87775001Y-40004342D01*
X87774999Y-40004342D01*
X87539596Y-40024937D01*
X87539586Y-40024939D01*
X87311344Y-40086095D01*
X87311335Y-40086099D01*
X87097171Y-40185965D01*
X87097169Y-40185966D01*
X86903597Y-40321506D01*
X86736505Y-40488598D01*
X86600965Y-40682170D01*
X86600964Y-40682172D01*
X86501098Y-40896336D01*
X86501094Y-40896345D01*
X86439938Y-41124587D01*
X86439936Y-41124597D01*
X86419341Y-41360000D01*
X66787115Y-41360000D01*
X66771666Y-41183417D01*
X66771664Y-41183407D01*
X66714878Y-40971475D01*
X66714874Y-40971466D01*
X66622144Y-40772605D01*
X66622142Y-40772601D01*
X66577996Y-40709555D01*
X66014962Y-41272589D01*
X65997925Y-41209007D01*
X65932099Y-41094993D01*
X65839007Y-41001901D01*
X65724993Y-40936075D01*
X65661409Y-40919037D01*
X66224443Y-40356003D01*
X66161392Y-40311854D01*
X66060178Y-40264657D01*
X66007739Y-40218484D01*
X65988587Y-40151291D01*
X66008803Y-40084410D01*
X66060175Y-40039895D01*
X66161646Y-39992579D01*
X66341457Y-39866674D01*
X66496674Y-39711457D01*
X66622579Y-39531646D01*
X66715347Y-39332703D01*
X66772161Y-39120674D01*
X66791292Y-38902000D01*
X66772161Y-38683326D01*
X66715347Y-38471297D01*
X66622579Y-38272354D01*
X66622577Y-38272351D01*
X66622576Y-38272349D01*
X66496677Y-38092547D01*
X66496672Y-38092541D01*
X66341458Y-37937327D01*
X66341452Y-37937322D01*
X66161650Y-37811423D01*
X66161642Y-37811419D01*
X66060772Y-37764383D01*
X66008332Y-37718211D01*
X65989180Y-37651018D01*
X66009395Y-37584136D01*
X66060772Y-37539619D01*
X66061702Y-37539185D01*
X66161646Y-37492581D01*
X66341457Y-37366676D01*
X66496674Y-37211459D01*
X66622579Y-37031648D01*
X66715347Y-36832705D01*
X66772161Y-36620676D01*
X66791292Y-36402002D01*
X66772161Y-36183328D01*
X66715347Y-35971299D01*
X66622579Y-35772356D01*
X66622577Y-35772353D01*
X66622576Y-35772351D01*
X66496677Y-35592549D01*
X66496672Y-35592543D01*
X66341458Y-35437329D01*
X66341452Y-35437324D01*
X66262549Y-35382076D01*
X66218924Y-35327499D01*
X66211730Y-35258001D01*
X66243253Y-35195646D01*
X66303482Y-35160232D01*
X66330573Y-35156883D01*
X66330571Y-35156856D01*
X66330573Y-35156855D01*
X66330564Y-35156678D01*
X66333520Y-35156519D01*
X66333672Y-35156501D01*
X66333871Y-35156501D01*
X66333872Y-35156501D01*
X66393483Y-35150093D01*
X66528331Y-35099798D01*
X66643546Y-35013548D01*
X66729796Y-34898333D01*
X66780091Y-34763485D01*
X66786500Y-34703875D01*
X66786499Y-33100130D01*
X66780091Y-33040519D01*
X66755680Y-32975071D01*
X66729797Y-32905673D01*
X66729793Y-32905666D01*
X66643547Y-32790457D01*
X66643544Y-32790454D01*
X66528335Y-32704208D01*
X66528328Y-32704204D01*
X66393482Y-32653910D01*
X66393483Y-32653910D01*
X66333883Y-32647503D01*
X66333881Y-32647502D01*
X66333873Y-32647502D01*
X66333864Y-32647502D01*
X64730129Y-32647502D01*
X64730123Y-32647503D01*
X64670516Y-32653910D01*
X64535671Y-32704204D01*
X64535664Y-32704208D01*
X64420455Y-32790454D01*
X64420452Y-32790457D01*
X64334206Y-32905666D01*
X64334202Y-32905673D01*
X64283908Y-33040519D01*
X64278462Y-33091179D01*
X64277501Y-33100125D01*
X64277500Y-33100137D01*
X64277500Y-34703872D01*
X64277501Y-34703878D01*
X64283908Y-34763485D01*
X64334202Y-34898330D01*
X64334206Y-34898337D01*
X64420452Y-35013546D01*
X64420455Y-35013549D01*
X64535664Y-35099795D01*
X64535671Y-35099799D01*
X64580618Y-35116563D01*
X64670517Y-35150093D01*
X64730127Y-35156502D01*
X64730294Y-35156501D01*
X64730329Y-35156512D01*
X64733453Y-35156680D01*
X64733413Y-35157416D01*
X64797336Y-35176167D01*
X64843106Y-35228957D01*
X64853069Y-35298113D01*
X64824062Y-35361677D01*
X64801450Y-35382075D01*
X64722550Y-35437321D01*
X64722541Y-35437329D01*
X64567327Y-35592543D01*
X64567322Y-35592549D01*
X64441423Y-35772351D01*
X64441419Y-35772359D01*
X64348655Y-35971293D01*
X64348653Y-35971297D01*
X64348653Y-35971299D01*
X64347885Y-35974165D01*
X64291839Y-36183326D01*
X64291838Y-36183333D01*
X64272708Y-36401999D01*
X62206500Y-36401999D01*
X62206500Y-25519186D01*
X64147500Y-25519186D01*
X64147500Y-25788813D01*
X64177686Y-26056719D01*
X64177688Y-26056731D01*
X64237684Y-26319594D01*
X64237687Y-26319602D01*
X64326734Y-26574082D01*
X64443714Y-26816994D01*
X64443716Y-26816997D01*
X64587162Y-27045289D01*
X64755266Y-27256085D01*
X64945915Y-27446734D01*
X65156711Y-27614838D01*
X65385003Y-27758284D01*
X65627921Y-27875267D01*
X65819049Y-27942145D01*
X65882397Y-27964312D01*
X65882405Y-27964315D01*
X65882408Y-27964315D01*
X65882409Y-27964316D01*
X66145268Y-28024312D01*
X66413187Y-28054499D01*
X66413188Y-28054500D01*
X66413191Y-28054500D01*
X66682812Y-28054500D01*
X66682812Y-28054499D01*
X66950732Y-28024312D01*
X67213591Y-27964316D01*
X67468079Y-27875267D01*
X67710997Y-27758284D01*
X67939289Y-27614838D01*
X68150085Y-27446734D01*
X68340734Y-27256085D01*
X68508838Y-27045289D01*
X68652284Y-26816997D01*
X68769267Y-26574079D01*
X68858316Y-26319591D01*
X68918312Y-26056732D01*
X68948500Y-25788809D01*
X68948500Y-25519191D01*
X68918312Y-25251268D01*
X68858316Y-24988409D01*
X68769267Y-24733921D01*
X68652284Y-24491003D01*
X68508838Y-24262711D01*
X68340734Y-24051915D01*
X68150085Y-23861266D01*
X68143258Y-23855822D01*
X68016336Y-23754605D01*
X67939289Y-23693162D01*
X67762591Y-23582135D01*
X75065502Y-23582135D01*
X75065502Y-25185870D01*
X75065503Y-25185876D01*
X75071910Y-25245483D01*
X75122204Y-25380328D01*
X75122208Y-25380335D01*
X75208454Y-25495544D01*
X75208457Y-25495547D01*
X75323666Y-25581793D01*
X75323673Y-25581797D01*
X75458519Y-25632091D01*
X75458518Y-25632091D01*
X75465446Y-25632835D01*
X75518129Y-25638500D01*
X77121874Y-25638499D01*
X77181485Y-25632091D01*
X77316333Y-25581796D01*
X77431548Y-25495546D01*
X77517798Y-25380331D01*
X77568093Y-25245483D01*
X77574502Y-25185873D01*
X77574501Y-25185704D01*
X77574512Y-25185669D01*
X77574680Y-25182547D01*
X77575416Y-25182586D01*
X77594167Y-25118663D01*
X77646958Y-25072893D01*
X77716113Y-25062930D01*
X77779677Y-25091937D01*
X77800076Y-25114549D01*
X77855328Y-25193457D01*
X77855329Y-25193458D01*
X78010543Y-25348672D01*
X78010549Y-25348677D01*
X78190351Y-25474576D01*
X78190353Y-25474577D01*
X78190356Y-25474579D01*
X78389299Y-25567347D01*
X78601328Y-25624161D01*
X78757523Y-25637826D01*
X78820000Y-25643292D01*
X78820002Y-25643292D01*
X78820004Y-25643292D01*
X78850311Y-25640640D01*
X79038676Y-25624161D01*
X79105373Y-25606289D01*
X79175222Y-25607950D01*
X79225149Y-25638382D01*
X81659181Y-28072414D01*
X81692666Y-28133737D01*
X81695500Y-28160095D01*
X81695500Y-35670270D01*
X81675815Y-35737309D01*
X81663650Y-35753242D01*
X81604144Y-35819329D01*
X81604139Y-35819336D01*
X81514750Y-35974164D01*
X81514747Y-35974170D01*
X81459504Y-36144192D01*
X81459503Y-36144194D01*
X81440815Y-36322000D01*
X81459503Y-36499805D01*
X81459504Y-36499807D01*
X81514747Y-36669829D01*
X81514750Y-36669835D01*
X81604141Y-36824665D01*
X81611385Y-36832710D01*
X81723764Y-36957521D01*
X81723767Y-36957523D01*
X81723770Y-36957526D01*
X81868407Y-37062612D01*
X82031733Y-37135329D01*
X82206609Y-37172500D01*
X82206610Y-37172500D01*
X82385389Y-37172500D01*
X82385391Y-37172500D01*
X82560267Y-37135329D01*
X82723593Y-37062612D01*
X82868230Y-36957526D01*
X82987859Y-36824665D01*
X83077250Y-36669835D01*
X83132497Y-36499803D01*
X83151185Y-36322000D01*
X83132497Y-36144197D01*
X83077250Y-35974165D01*
X82987859Y-35819335D01*
X82987855Y-35819329D01*
X82928350Y-35753242D01*
X82898120Y-35690250D01*
X82896500Y-35670270D01*
X82896500Y-27949058D01*
X82896501Y-27949045D01*
X82896501Y-27780942D01*
X82867706Y-27673480D01*
X82855577Y-27628214D01*
X82855573Y-27628207D01*
X82776524Y-27491288D01*
X82776518Y-27491280D01*
X82102232Y-26816994D01*
X81131897Y-25846660D01*
X81098413Y-25785338D01*
X81103397Y-25715646D01*
X81145269Y-25659713D01*
X81210733Y-25635296D01*
X81230386Y-25635452D01*
X81319998Y-25643292D01*
X81320000Y-25643292D01*
X81320002Y-25643292D01*
X81350309Y-25640640D01*
X81538674Y-25624161D01*
X81605371Y-25606289D01*
X81675220Y-25607950D01*
X81725147Y-25638382D01*
X84453181Y-28366416D01*
X84486666Y-28427739D01*
X84489500Y-28454097D01*
X84489500Y-38250270D01*
X84469815Y-38317309D01*
X84457650Y-38333242D01*
X84398144Y-38399329D01*
X84398139Y-38399336D01*
X84308750Y-38554164D01*
X84308747Y-38554170D01*
X84253504Y-38724192D01*
X84253503Y-38724194D01*
X84234815Y-38902000D01*
X84253503Y-39079805D01*
X84253504Y-39079807D01*
X84308747Y-39249829D01*
X84308750Y-39249835D01*
X84398141Y-39404665D01*
X84439812Y-39450946D01*
X84517764Y-39537521D01*
X84517767Y-39537523D01*
X84517770Y-39537526D01*
X84662407Y-39642612D01*
X84825733Y-39715329D01*
X85000609Y-39752500D01*
X85000610Y-39752500D01*
X85179389Y-39752500D01*
X85179391Y-39752500D01*
X85354267Y-39715329D01*
X85517593Y-39642612D01*
X85662230Y-39537526D01*
X85667525Y-39531646D01*
X85716003Y-39477805D01*
X85781859Y-39404665D01*
X85871250Y-39249835D01*
X85926497Y-39079803D01*
X85945185Y-38902000D01*
X85926497Y-38724197D01*
X85898873Y-38639181D01*
X85871252Y-38554170D01*
X85871249Y-38554164D01*
X85781860Y-38399336D01*
X85781855Y-38399329D01*
X85722350Y-38333242D01*
X85692120Y-38270250D01*
X85690500Y-38250270D01*
X85690500Y-28074944D01*
X85690500Y-28074943D01*
X85685022Y-28054500D01*
X85649577Y-27922215D01*
X85620639Y-27872095D01*
X85570520Y-27785284D01*
X85458716Y-27673480D01*
X85458715Y-27673479D01*
X85454385Y-27669149D01*
X85454374Y-27669139D01*
X83631345Y-25846110D01*
X83597860Y-25784787D01*
X83602844Y-25715095D01*
X83644716Y-25659162D01*
X83710180Y-25634745D01*
X83729834Y-25634901D01*
X83819999Y-25642790D01*
X83820001Y-25642790D01*
X84038582Y-25623666D01*
X84038592Y-25623664D01*
X84250524Y-25566878D01*
X84250533Y-25566874D01*
X84352801Y-25519186D01*
X132981500Y-25519186D01*
X132981500Y-25788813D01*
X133011686Y-26056719D01*
X133011688Y-26056731D01*
X133071684Y-26319594D01*
X133071687Y-26319602D01*
X133160734Y-26574082D01*
X133277714Y-26816994D01*
X133277716Y-26816997D01*
X133421162Y-27045289D01*
X133589266Y-27256085D01*
X133779915Y-27446734D01*
X133990711Y-27614838D01*
X134219003Y-27758284D01*
X134461921Y-27875267D01*
X134653049Y-27942145D01*
X134716397Y-27964312D01*
X134716405Y-27964315D01*
X134716408Y-27964315D01*
X134716409Y-27964316D01*
X134979268Y-28024312D01*
X135247187Y-28054499D01*
X135247188Y-28054500D01*
X135247191Y-28054500D01*
X135516812Y-28054500D01*
X135516812Y-28054499D01*
X135784732Y-28024312D01*
X136047591Y-27964316D01*
X136302079Y-27875267D01*
X136544997Y-27758284D01*
X136773289Y-27614838D01*
X136984085Y-27446734D01*
X137174734Y-27256085D01*
X137342838Y-27045289D01*
X137486284Y-26816997D01*
X137603267Y-26574079D01*
X137692316Y-26319591D01*
X137752312Y-26056732D01*
X137782500Y-25788809D01*
X137782500Y-25519191D01*
X137752312Y-25251268D01*
X137692316Y-24988409D01*
X137603267Y-24733921D01*
X137486284Y-24491003D01*
X137342838Y-24262711D01*
X137174734Y-24051915D01*
X136984085Y-23861266D01*
X136977258Y-23855822D01*
X136850336Y-23754605D01*
X136773289Y-23693162D01*
X136544997Y-23549716D01*
X136544994Y-23549714D01*
X136302082Y-23432734D01*
X136047602Y-23343687D01*
X136047594Y-23343684D01*
X135850446Y-23298687D01*
X135784732Y-23283688D01*
X135784728Y-23283687D01*
X135784719Y-23283686D01*
X135516813Y-23253500D01*
X135516809Y-23253500D01*
X135247191Y-23253500D01*
X135247186Y-23253500D01*
X134979280Y-23283686D01*
X134979268Y-23283688D01*
X134716405Y-23343684D01*
X134716397Y-23343687D01*
X134461917Y-23432734D01*
X134219005Y-23549714D01*
X133990712Y-23693161D01*
X133779915Y-23861265D01*
X133589265Y-24051915D01*
X133421161Y-24262712D01*
X133277714Y-24491005D01*
X133160734Y-24733917D01*
X133071687Y-24988397D01*
X133071684Y-24988405D01*
X133011688Y-25251268D01*
X133011686Y-25251280D01*
X132981500Y-25519186D01*
X84352801Y-25519186D01*
X84449392Y-25474145D01*
X84512442Y-25429995D01*
X83949408Y-24866962D01*
X84012993Y-24849925D01*
X84127007Y-24784099D01*
X84220099Y-24691007D01*
X84285925Y-24576993D01*
X84302962Y-24513409D01*
X84865995Y-25076442D01*
X84910145Y-25013392D01*
X85002874Y-24814533D01*
X85002878Y-24814524D01*
X85059664Y-24602592D01*
X85059666Y-24602582D01*
X85078790Y-24384000D01*
X85078790Y-24383999D01*
X85059666Y-24165417D01*
X85059664Y-24165407D01*
X85002878Y-23953475D01*
X85002874Y-23953466D01*
X84910144Y-23754605D01*
X84910142Y-23754601D01*
X84865996Y-23691555D01*
X84302962Y-24254589D01*
X84285925Y-24191007D01*
X84220099Y-24076993D01*
X84127007Y-23983901D01*
X84012993Y-23918075D01*
X83949409Y-23901037D01*
X84512443Y-23338003D01*
X84449392Y-23293854D01*
X84250533Y-23201125D01*
X84250524Y-23201121D01*
X84038592Y-23144335D01*
X84038582Y-23144333D01*
X83820001Y-23125210D01*
X83819999Y-23125210D01*
X83601417Y-23144333D01*
X83601407Y-23144335D01*
X83389475Y-23201121D01*
X83389466Y-23201124D01*
X83190606Y-23293855D01*
X83190604Y-23293856D01*
X83127556Y-23338003D01*
X83127555Y-23338003D01*
X83690590Y-23901037D01*
X83627007Y-23918075D01*
X83512993Y-23983901D01*
X83419901Y-24076993D01*
X83354075Y-24191007D01*
X83337037Y-24254590D01*
X82774003Y-23691555D01*
X82774003Y-23691556D01*
X82729857Y-23754603D01*
X82682657Y-23855822D01*
X82636484Y-23908261D01*
X82569290Y-23927412D01*
X82502409Y-23907196D01*
X82457893Y-23855820D01*
X82410580Y-23754357D01*
X82410579Y-23754354D01*
X82410577Y-23754351D01*
X82410576Y-23754349D01*
X82284677Y-23574547D01*
X82284672Y-23574541D01*
X82129458Y-23419327D01*
X82129452Y-23419322D01*
X81949650Y-23293423D01*
X81949642Y-23293419D01*
X81750708Y-23200655D01*
X81750706Y-23200654D01*
X81750703Y-23200653D01*
X81599885Y-23160240D01*
X81538675Y-23143839D01*
X81538668Y-23143838D01*
X81320002Y-23124708D01*
X81319998Y-23124708D01*
X81101331Y-23143838D01*
X81101324Y-23143839D01*
X80978902Y-23176642D01*
X80889297Y-23200653D01*
X80889295Y-23200653D01*
X80889291Y-23200655D01*
X80690357Y-23293419D01*
X80690349Y-23293423D01*
X80510547Y-23419322D01*
X80510541Y-23419327D01*
X80355327Y-23574541D01*
X80355322Y-23574547D01*
X80229423Y-23754349D01*
X80229421Y-23754353D01*
X80182383Y-23855228D01*
X80136211Y-23907667D01*
X80069017Y-23926819D01*
X80002136Y-23906603D01*
X79957619Y-23855228D01*
X79910582Y-23754357D01*
X79910581Y-23754354D01*
X79910579Y-23754351D01*
X79910578Y-23754349D01*
X79784679Y-23574547D01*
X79784674Y-23574541D01*
X79629460Y-23419327D01*
X79629454Y-23419322D01*
X79449652Y-23293423D01*
X79449644Y-23293419D01*
X79250710Y-23200655D01*
X79250708Y-23200654D01*
X79250705Y-23200653D01*
X79099887Y-23160240D01*
X79038677Y-23143839D01*
X79038670Y-23143838D01*
X78820004Y-23124708D01*
X78820000Y-23124708D01*
X78601333Y-23143838D01*
X78601326Y-23143839D01*
X78478904Y-23176642D01*
X78389299Y-23200653D01*
X78389297Y-23200653D01*
X78389293Y-23200655D01*
X78190359Y-23293419D01*
X78190351Y-23293423D01*
X78010549Y-23419322D01*
X78010543Y-23419327D01*
X77855329Y-23574541D01*
X77855328Y-23574543D01*
X77800076Y-23653451D01*
X77745499Y-23697076D01*
X77676000Y-23704268D01*
X77613646Y-23672746D01*
X77578232Y-23612516D01*
X77574883Y-23585425D01*
X77574856Y-23585429D01*
X77574855Y-23585426D01*
X77574678Y-23585436D01*
X77574519Y-23582478D01*
X77574501Y-23582327D01*
X77574501Y-23582129D01*
X77574500Y-23582123D01*
X77574499Y-23582116D01*
X77568093Y-23522517D01*
X77529605Y-23419326D01*
X77517799Y-23387671D01*
X77517795Y-23387664D01*
X77431549Y-23272455D01*
X77431546Y-23272452D01*
X77316337Y-23186206D01*
X77316330Y-23186202D01*
X77181484Y-23135908D01*
X77181485Y-23135908D01*
X77121885Y-23129501D01*
X77121883Y-23129500D01*
X77121875Y-23129500D01*
X77121866Y-23129500D01*
X75518131Y-23129500D01*
X75518125Y-23129501D01*
X75458518Y-23135908D01*
X75323673Y-23186202D01*
X75323666Y-23186206D01*
X75208457Y-23272452D01*
X75208454Y-23272455D01*
X75122208Y-23387664D01*
X75122204Y-23387671D01*
X75071910Y-23522517D01*
X75066317Y-23574543D01*
X75065503Y-23582123D01*
X75065502Y-23582135D01*
X67762591Y-23582135D01*
X67710997Y-23549716D01*
X67710994Y-23549714D01*
X67468082Y-23432734D01*
X67213602Y-23343687D01*
X67213594Y-23343684D01*
X67016446Y-23298687D01*
X66950732Y-23283688D01*
X66950728Y-23283687D01*
X66950719Y-23283686D01*
X66682813Y-23253500D01*
X66682809Y-23253500D01*
X66413191Y-23253500D01*
X66413186Y-23253500D01*
X66145280Y-23283686D01*
X66145268Y-23283688D01*
X65882405Y-23343684D01*
X65882397Y-23343687D01*
X65627917Y-23432734D01*
X65385005Y-23549714D01*
X65156712Y-23693161D01*
X64945915Y-23861265D01*
X64755265Y-24051915D01*
X64587161Y-24262712D01*
X64443714Y-24491005D01*
X64326734Y-24733917D01*
X64237687Y-24988397D01*
X64237684Y-24988405D01*
X64177688Y-25251268D01*
X64177686Y-25251280D01*
X64147500Y-25519186D01*
X62206500Y-25519186D01*
X62206500Y-23228838D01*
X62226185Y-23161799D01*
X62242819Y-23141157D01*
X64035157Y-21348819D01*
X64096480Y-21315334D01*
X64122838Y-21312500D01*
X137807162Y-21312500D01*
X137874201Y-21332185D01*
G37*
%TD.AperFunction*%
%TD*%
M02*
