%TF.GenerationSoftware,KiCad,Pcbnew,8.0.8-8.0.8-0~ubuntu24.04.1*%
%TF.CreationDate,2025-08-12T19:22:29-04:00*%
%TF.ProjectId,mainboard,6d61696e-626f-4617-9264-2e6b69636164,rev?*%
%TF.SameCoordinates,Original*%
%TF.FileFunction,Drillmap*%
%TF.FilePolarity,Positive*%
%FSLAX45Y45*%
G04 Gerber Fmt 4.5, Leading zero omitted, Abs format (unit mm)*
G04 Created by KiCad (PCBNEW 8.0.8-8.0.8-0~ubuntu24.04.1) date 2025-08-12 19:22:29*
%MOMM*%
%LPD*%
G01*
G04 APERTURE LIST*
%ADD10C,0.050000*%
%ADD11C,0.010000*%
%ADD12C,0.200000*%
%ADD13C,0.100000*%
G04 APERTURE END LIST*
D10*
X6704000Y-2721000D02*
X14101800Y-2721000D01*
X6504000Y-9429800D02*
X6704000Y-9629800D01*
X14301800Y-9429800D02*
X14101800Y-9629800D01*
X6704000Y-9629800D02*
X14101800Y-9629800D01*
X6504000Y-2921000D02*
X6704000Y-2721000D01*
X14301800Y-2921000D02*
X14101800Y-2721000D01*
X6504000Y-2921000D02*
X6504000Y-9429800D01*
X14301800Y-2921000D02*
X14301800Y-9429800D01*
D11*
X7545400Y-9325000D02*
X7545400Y-9266580D01*
X8409000Y-9325000D02*
X8409000Y-9266580D01*
X7545400Y-8944000D02*
X7545400Y-8885580D01*
X8409000Y-8944000D02*
X8409000Y-8885580D01*
D12*
D13*
X7295050Y-8719028D02*
X7325050Y-8749028D01*
X7325050Y-8719028D02*
X7295050Y-8749028D01*
X7403400Y-5068200D02*
X7433400Y-5098200D01*
X7433400Y-5068200D02*
X7403400Y-5098200D01*
X7505000Y-3645800D02*
X7535000Y-3675800D01*
X7535000Y-3645800D02*
X7505000Y-3675800D01*
X7682800Y-9095620D02*
X7712800Y-9125620D01*
X7712800Y-9095620D02*
X7682800Y-9125620D01*
X8521000Y-4230000D02*
X8551000Y-4260000D01*
X8551000Y-4230000D02*
X8521000Y-4260000D01*
X8800400Y-4488000D02*
X8830400Y-4518000D01*
X8830400Y-4488000D02*
X8800400Y-4518000D01*
X8800400Y-7671700D02*
X8830400Y-7701700D01*
X8830400Y-7671700D02*
X8800400Y-7701700D01*
X8800400Y-9106800D02*
X8830400Y-9136800D01*
X8830400Y-9106800D02*
X8800400Y-9136800D01*
X8851200Y-5271400D02*
X8881200Y-5301400D01*
X8881200Y-5271400D02*
X8851200Y-5301400D01*
X8927400Y-6693800D02*
X8957400Y-6723800D01*
X8957400Y-6693800D02*
X8927400Y-6723800D01*
X9333800Y-7672000D02*
X9363800Y-7702000D01*
X9363800Y-7672000D02*
X9333800Y-7702000D01*
X9548900Y-7827800D02*
X9578900Y-7857800D01*
X9578900Y-7827800D02*
X9548900Y-7857800D01*
X9638900Y-5577800D02*
X9668900Y-5607800D01*
X9668900Y-5577800D02*
X9638900Y-5607800D01*
X9670150Y-5256550D02*
X9700150Y-5286550D01*
X9700150Y-5256550D02*
X9670150Y-5286550D01*
X9674680Y-6391020D02*
X9704680Y-6421020D01*
X9704680Y-6391020D02*
X9674680Y-6421020D01*
X9676700Y-6846200D02*
X9706700Y-6876200D01*
X9706700Y-6846200D02*
X9676700Y-6876200D01*
X9768900Y-5344718D02*
X9798900Y-5374718D01*
X9798900Y-5344718D02*
X9768900Y-5374718D01*
X9838900Y-4717800D02*
X9868900Y-4747800D01*
X9868900Y-4717800D02*
X9838900Y-4747800D01*
X9868900Y-5233300D02*
X9898900Y-5263300D01*
X9898900Y-5233300D02*
X9868900Y-5263300D01*
X9898900Y-6177800D02*
X9928900Y-6207800D01*
X9928900Y-6177800D02*
X9898900Y-6207800D01*
X9938900Y-4947800D02*
X9968900Y-4977800D01*
X9968900Y-4947800D02*
X9938900Y-4977800D01*
X9958900Y-5334770D02*
X9988900Y-5364770D01*
X9988900Y-5334770D02*
X9958900Y-5364770D01*
X9998900Y-6107800D02*
X10028900Y-6137800D01*
X10028900Y-6107800D02*
X9998900Y-6137800D01*
X10028900Y-5427800D02*
X10058900Y-5457800D01*
X10058900Y-5427800D02*
X10028900Y-5457800D01*
X10078900Y-6027800D02*
X10108900Y-6057800D01*
X10108900Y-6027800D02*
X10078900Y-6057800D01*
X10088900Y-5507800D02*
X10118900Y-5537800D01*
X10118900Y-5507800D02*
X10088900Y-5537800D01*
X10118900Y-4757800D02*
X10148900Y-4787800D01*
X10148900Y-4757800D02*
X10118900Y-4787800D01*
X10128900Y-5257800D02*
X10158900Y-5287800D01*
X10158900Y-5257800D02*
X10128900Y-5287800D01*
X10248900Y-5257800D02*
X10278900Y-5287800D01*
X10278900Y-5257800D02*
X10248900Y-5287800D01*
X10248900Y-7687800D02*
X10278900Y-7717800D01*
X10278900Y-7687800D02*
X10248900Y-7717800D01*
X10349800Y-5830200D02*
X10379800Y-5860200D01*
X10379800Y-5830200D02*
X10349800Y-5860200D01*
X10378900Y-5257800D02*
X10408900Y-5287800D01*
X10408900Y-5257800D02*
X10378900Y-5287800D01*
X10425150Y-5704050D02*
X10455150Y-5734050D01*
X10455150Y-5704050D02*
X10425150Y-5734050D01*
X10488900Y-6047800D02*
X10518900Y-6077800D01*
X10518900Y-6047800D02*
X10488900Y-6077800D01*
X10495214Y-5244114D02*
X10525214Y-5274114D01*
X10525214Y-5244114D02*
X10495214Y-5274114D01*
X10608900Y-5667800D02*
X10638900Y-5697800D01*
X10638900Y-5667800D02*
X10608900Y-5697800D01*
X10631794Y-3140986D02*
X10661794Y-3170986D01*
X10661794Y-3140986D02*
X10631794Y-3170986D01*
X10688900Y-5597800D02*
X10718900Y-5627800D01*
X10718900Y-5597800D02*
X10688900Y-5627800D01*
X10727630Y-5346530D02*
X10757630Y-5376530D01*
X10757630Y-5346530D02*
X10727630Y-5376530D01*
X10798900Y-5527800D02*
X10828900Y-5557800D01*
X10828900Y-5527800D02*
X10798900Y-5557800D01*
X10888900Y-5457800D02*
X10918900Y-5487800D01*
X10918900Y-5457800D02*
X10888900Y-5487800D01*
X10906400Y-5300300D02*
X10936400Y-5330300D01*
X10936400Y-5300300D02*
X10906400Y-5330300D01*
X10958900Y-4997800D02*
X10988900Y-5027800D01*
X10988900Y-4997800D02*
X10958900Y-5027800D01*
X10958900Y-5097800D02*
X10988900Y-5127800D01*
X10988900Y-5097800D02*
X10958900Y-5127800D01*
X10968900Y-4527800D02*
X10998900Y-4557800D01*
X10998900Y-4527800D02*
X10968900Y-4557800D01*
X10968900Y-4647800D02*
X10998900Y-4677800D01*
X10998900Y-4647800D02*
X10968900Y-4677800D01*
X10968900Y-4767800D02*
X10998900Y-4797800D01*
X10998900Y-4767800D02*
X10968900Y-4797800D01*
X10968900Y-4887800D02*
X10998900Y-4917800D01*
X10998900Y-4887800D02*
X10968900Y-4917800D01*
X11028900Y-6853600D02*
X11058900Y-6883600D01*
X11058900Y-6853600D02*
X11028900Y-6883600D01*
X11035600Y-6185800D02*
X11065600Y-6215800D01*
X11065600Y-6185800D02*
X11035600Y-6215800D01*
X11088900Y-5307800D02*
X11118900Y-5337800D01*
X11118900Y-5307800D02*
X11088900Y-5337800D01*
X11158900Y-6347800D02*
X11188900Y-6377800D01*
X11188900Y-6347800D02*
X11158900Y-6377800D01*
X11175300Y-6147700D02*
X11205300Y-6177700D01*
X11205300Y-6147700D02*
X11175300Y-6177700D01*
X11191749Y-4564167D02*
X11221749Y-4594167D01*
X11221749Y-4564167D02*
X11191749Y-4594167D01*
X11198900Y-5327800D02*
X11228900Y-5357800D01*
X11228900Y-5327800D02*
X11198900Y-5357800D01*
X11358900Y-5037800D02*
X11388900Y-5067800D01*
X11388900Y-5037800D02*
X11358900Y-5067800D01*
X11378900Y-5317800D02*
X11408900Y-5347800D01*
X11408900Y-5317800D02*
X11378900Y-5347800D01*
X11388900Y-7407800D02*
X11418900Y-7437800D01*
X11418900Y-7407800D02*
X11388900Y-7437800D01*
X11438900Y-5237800D02*
X11468900Y-5267800D01*
X11468900Y-5237800D02*
X11438900Y-5267800D01*
X11467400Y-8725800D02*
X11497400Y-8755800D01*
X11497400Y-8725800D02*
X11467400Y-8755800D01*
X11477552Y-6459148D02*
X11507552Y-6489148D01*
X11507552Y-6459148D02*
X11477552Y-6489148D01*
X11515932Y-6574055D02*
X11545932Y-6604055D01*
X11545932Y-6574055D02*
X11515932Y-6604055D01*
X11523740Y-5847800D02*
X11553740Y-5877800D01*
X11553740Y-5847800D02*
X11523740Y-5877800D01*
X11588900Y-5927800D02*
X11618900Y-5957800D01*
X11618900Y-5927800D02*
X11588900Y-5957800D01*
X11653523Y-6551027D02*
X11683523Y-6581027D01*
X11683523Y-6551027D02*
X11653523Y-6581027D01*
X11701587Y-5869628D02*
X11731587Y-5899628D01*
X11731587Y-5869628D02*
X11701587Y-5899628D01*
X11788900Y-5847800D02*
X11818900Y-5877800D01*
X11818900Y-5847800D02*
X11788900Y-5877800D01*
X11828900Y-5967800D02*
X11858900Y-5997800D01*
X11858900Y-5967800D02*
X11828900Y-5997800D01*
X11848900Y-6067800D02*
X11878900Y-6097800D01*
X11878900Y-6067800D02*
X11848900Y-6097800D01*
X11868900Y-6367800D02*
X11898900Y-6397800D01*
X11898900Y-6367800D02*
X11868900Y-6397800D01*
X11868900Y-6937800D02*
X11898900Y-6967800D01*
X11898900Y-6937800D02*
X11868900Y-6967800D01*
X11996694Y-4826047D02*
X12026694Y-4856047D01*
X12026694Y-4826047D02*
X11996694Y-4856047D01*
X12013500Y-7506600D02*
X12043500Y-7536600D01*
X12043500Y-7506600D02*
X12013500Y-7536600D01*
X12048900Y-6647640D02*
X12078900Y-6677640D01*
X12078900Y-6647640D02*
X12048900Y-6677640D01*
X12068900Y-6187800D02*
X12098900Y-6217800D01*
X12098900Y-6187800D02*
X12068900Y-6217800D01*
X12148900Y-6627800D02*
X12178900Y-6657800D01*
X12178900Y-6627800D02*
X12148900Y-6657800D01*
X12176669Y-5330031D02*
X12206669Y-5360031D01*
X12206669Y-5330031D02*
X12176669Y-5360031D01*
X12268900Y-6607800D02*
X12298900Y-6637800D01*
X12298900Y-6607800D02*
X12268900Y-6637800D01*
X12303900Y-5342800D02*
X12333900Y-5372800D01*
X12333900Y-5342800D02*
X12303900Y-5372800D01*
X12312907Y-5667800D02*
X12342907Y-5697800D01*
X12342907Y-5667800D02*
X12312907Y-5697800D01*
X12343700Y-6350900D02*
X12373700Y-6380900D01*
X12373700Y-6350900D02*
X12343700Y-6380900D01*
X12348900Y-5167800D02*
X12378900Y-5197800D01*
X12378900Y-5167800D02*
X12348900Y-5197800D01*
X12384750Y-4963650D02*
X12414750Y-4993650D01*
X12414750Y-4963650D02*
X12384750Y-4993650D01*
X12388900Y-5547800D02*
X12418900Y-5577800D01*
X12418900Y-5547800D02*
X12388900Y-5577800D01*
X12483400Y-3645800D02*
X12513400Y-3675800D01*
X12513400Y-3645800D02*
X12483400Y-3675800D01*
X12498900Y-5887800D02*
X12528900Y-5917800D01*
X12528900Y-5887800D02*
X12498900Y-5917800D01*
X12498900Y-6267800D02*
X12528900Y-6297800D01*
X12528900Y-6267800D02*
X12498900Y-6297800D01*
X12553900Y-5102640D02*
X12583900Y-5132640D01*
X12583900Y-5102640D02*
X12553900Y-5132640D01*
X12562666Y-4956813D02*
X12592666Y-4986813D01*
X12592666Y-4956813D02*
X12562666Y-4986813D01*
X12568900Y-5472960D02*
X12598900Y-5502960D01*
X12598900Y-5472960D02*
X12568900Y-5502960D01*
X12628900Y-5677800D02*
X12658900Y-5707800D01*
X12658900Y-5677800D02*
X12628900Y-5707800D01*
X12697150Y-4956050D02*
X12727150Y-4986050D01*
X12727150Y-4956050D02*
X12697150Y-4986050D01*
X12838900Y-5487800D02*
X12868900Y-5517800D01*
X12868900Y-5487800D02*
X12838900Y-5517800D01*
X12848900Y-4956813D02*
X12878900Y-4986813D01*
X12878900Y-4956813D02*
X12848900Y-4986813D01*
X12848900Y-5307800D02*
X12878900Y-5337800D01*
X12878900Y-5307800D02*
X12848900Y-5337800D01*
X13499400Y-3645800D02*
X13529400Y-3675800D01*
X13529400Y-3645800D02*
X13499400Y-3675800D01*
X13499400Y-8725800D02*
X13529400Y-8755800D01*
X13529400Y-8725800D02*
X13499400Y-8755800D01*
X8909100Y-7115200D02*
G75*
G02*
X8874100Y-7115200I-17500J0D01*
G01*
X8874100Y-7115200D02*
G75*
G02*
X8909100Y-7115200I17500J0D01*
G01*
X10102900Y-8944000D02*
G75*
G02*
X10067900Y-8944000I-17500J0D01*
G01*
X10067900Y-8944000D02*
G75*
G02*
X10102900Y-8944000I17500J0D01*
G01*
X7926400Y-7958800D02*
X7926400Y-7998800D01*
X7906400Y-7978800D02*
X7946400Y-7978800D01*
X13255045Y-5427945D02*
X13255045Y-5377655D01*
X13204755Y-5377655D01*
X13204755Y-5427945D01*
X13255045Y-5427945D01*
X13255045Y-5627945D02*
X13255045Y-5577655D01*
X13204755Y-5577655D01*
X13204755Y-5627945D01*
X13255045Y-5627945D01*
X13255045Y-5827945D02*
X13255045Y-5777655D01*
X13204755Y-5777655D01*
X13204755Y-5827945D01*
X13255045Y-5827945D01*
X13255045Y-6027945D02*
X13255045Y-5977655D01*
X13204755Y-5977655D01*
X13204755Y-6027945D01*
X13255045Y-6027945D01*
X13255045Y-6227945D02*
X13255045Y-6177655D01*
X13204755Y-6177655D01*
X13204755Y-6227945D01*
X13255045Y-6227945D01*
X13255045Y-6427945D02*
X13255045Y-6377655D01*
X13204755Y-6377655D01*
X13204755Y-6427945D01*
X13255045Y-6427945D01*
X13255045Y-6627945D02*
X13255045Y-6577655D01*
X13204755Y-6577655D01*
X13204755Y-6627945D01*
X13255045Y-6627945D01*
X13255045Y-6827945D02*
X13255045Y-6777655D01*
X13204755Y-6777655D01*
X13204755Y-6827945D01*
X13255045Y-6827945D01*
X13509045Y-5427945D02*
X13509045Y-5377655D01*
X13458755Y-5377655D01*
X13458755Y-5427945D01*
X13509045Y-5427945D01*
X13509045Y-5627945D02*
X13509045Y-5577655D01*
X13458755Y-5577655D01*
X13458755Y-5627945D01*
X13509045Y-5627945D01*
X13509045Y-5827945D02*
X13509045Y-5777655D01*
X13458755Y-5777655D01*
X13458755Y-5827945D01*
X13509045Y-5827945D01*
X13509045Y-6027945D02*
X13509045Y-5977655D01*
X13458755Y-5977655D01*
X13458755Y-6027945D01*
X13509045Y-6027945D01*
X13509045Y-6227945D02*
X13509045Y-6177655D01*
X13458755Y-6177655D01*
X13458755Y-6227945D01*
X13509045Y-6227945D01*
X13509045Y-6427945D02*
X13509045Y-6377655D01*
X13458755Y-6377655D01*
X13458755Y-6427945D01*
X13509045Y-6427945D01*
X13509045Y-6627945D02*
X13509045Y-6577655D01*
X13458755Y-6577655D01*
X13458755Y-6627945D01*
X13509045Y-6627945D01*
X13509045Y-6827945D02*
X13509045Y-6777655D01*
X13458755Y-6777655D01*
X13458755Y-6827945D01*
X13509045Y-6827945D01*
X9537240Y-3764541D02*
X9579150Y-3722631D01*
X9537240Y-3680721D01*
X9495330Y-3722631D01*
X9537240Y-3764541D01*
X9537240Y-4014541D02*
X9579150Y-3972631D01*
X9537240Y-3930721D01*
X9495330Y-3972631D01*
X9537240Y-4014541D01*
X9737240Y-3764541D02*
X9779150Y-3722631D01*
X9737240Y-3680721D01*
X9695330Y-3722631D01*
X9737240Y-3764541D01*
X9737240Y-4014541D02*
X9779150Y-3972631D01*
X9737240Y-3930721D01*
X9695330Y-3972631D01*
X9737240Y-4014541D01*
X9937240Y-3764541D02*
X9979150Y-3722631D01*
X9937240Y-3680721D01*
X9895330Y-3722631D01*
X9937240Y-3764541D01*
X9937240Y-4014541D02*
X9979150Y-3972631D01*
X9937240Y-3930721D01*
X9895330Y-3972631D01*
X9937240Y-4014541D01*
X10137240Y-3764541D02*
X10179150Y-3722631D01*
X10137240Y-3680721D01*
X10095330Y-3722631D01*
X10137240Y-3764541D01*
X10137240Y-4014541D02*
X10179150Y-3972631D01*
X10137240Y-3930721D01*
X10095330Y-3972631D01*
X10137240Y-4014541D01*
X10337240Y-3764541D02*
X10379150Y-3722631D01*
X10337240Y-3680721D01*
X10295330Y-3722631D01*
X10337240Y-3764541D01*
X10337240Y-4014541D02*
X10379150Y-3972631D01*
X10337240Y-3930721D01*
X10295330Y-3972631D01*
X10337240Y-4014541D01*
X10537240Y-3764541D02*
X10579150Y-3722631D01*
X10537240Y-3680721D01*
X10495330Y-3722631D01*
X10537240Y-3764541D01*
X10537240Y-4014541D02*
X10579150Y-3972631D01*
X10537240Y-3930721D01*
X10495330Y-3972631D01*
X10537240Y-4014541D01*
X10737240Y-3764541D02*
X10779150Y-3722631D01*
X10737240Y-3680721D01*
X10695330Y-3722631D01*
X10737240Y-3764541D01*
X10737240Y-4014541D02*
X10779150Y-3972631D01*
X10737240Y-3930721D01*
X10695330Y-3972631D01*
X10737240Y-4014541D01*
X10937240Y-3764541D02*
X10979150Y-3722631D01*
X10937240Y-3680721D01*
X10895330Y-3722631D01*
X10937240Y-3764541D01*
X10937240Y-4014541D02*
X10979150Y-3972631D01*
X10937240Y-3930721D01*
X10895330Y-3972631D01*
X10937240Y-4014541D01*
X11137240Y-3764541D02*
X11179150Y-3722631D01*
X11137240Y-3680721D01*
X11095330Y-3722631D01*
X11137240Y-3764541D01*
X11137240Y-4014541D02*
X11179150Y-3972631D01*
X11137240Y-3930721D01*
X11095330Y-3972631D01*
X11137240Y-4014541D01*
X11337240Y-3764541D02*
X11379150Y-3722631D01*
X11337240Y-3680721D01*
X11295330Y-3722631D01*
X11337240Y-3764541D01*
X11337240Y-4014541D02*
X11379150Y-3972631D01*
X11337240Y-3930721D01*
X11295330Y-3972631D01*
X11337240Y-4014541D01*
X11537240Y-3764541D02*
X11579150Y-3722631D01*
X11537240Y-3680721D01*
X11495330Y-3722631D01*
X11537240Y-3764541D01*
X11537240Y-4014541D02*
X11579150Y-3972631D01*
X11537240Y-3930721D01*
X11495330Y-3972631D01*
X11537240Y-4014541D01*
X11737240Y-3764541D02*
X11779150Y-3722631D01*
X11737240Y-3680721D01*
X11695330Y-3722631D01*
X11737240Y-3764541D01*
X11737240Y-4014541D02*
X11779150Y-3972631D01*
X11737240Y-3930721D01*
X11695330Y-3972631D01*
X11737240Y-4014541D01*
X6860870Y-7730070D02*
X6959930Y-7829130D01*
X6959930Y-7730070D02*
X6860870Y-7829130D01*
X6959930Y-7779600D02*
G75*
G02*
X6860870Y-7779600I-49530J0D01*
G01*
X6860870Y-7779600D02*
G75*
G02*
X6959930Y-7779600I49530J0D01*
G01*
X6860870Y-7980070D02*
X6959930Y-8079130D01*
X6959930Y-7980070D02*
X6860870Y-8079130D01*
X6959930Y-8029600D02*
G75*
G02*
X6860870Y-8029600I-49530J0D01*
G01*
X6860870Y-8029600D02*
G75*
G02*
X6959930Y-8029600I49530J0D01*
G01*
X12634370Y-3853270D02*
X12733430Y-3952330D01*
X12733430Y-3853270D02*
X12634370Y-3952330D01*
X12733430Y-3902800D02*
G75*
G02*
X12634370Y-3902800I-49530J0D01*
G01*
X12634370Y-3902800D02*
G75*
G02*
X12733430Y-3902800I49530J0D01*
G01*
X12884370Y-3853270D02*
X12983430Y-3952330D01*
X12983430Y-3853270D02*
X12884370Y-3952330D01*
X12983430Y-3902800D02*
G75*
G02*
X12884370Y-3902800I-49530J0D01*
G01*
X12884370Y-3902800D02*
G75*
G02*
X12983430Y-3902800I49530J0D01*
G01*
X13134370Y-3853270D02*
X13233430Y-3952330D01*
X13233430Y-3853270D02*
X13134370Y-3952330D01*
X13233430Y-3902800D02*
G75*
G02*
X13134370Y-3902800I-49530J0D01*
G01*
X13134370Y-3902800D02*
G75*
G02*
X13233430Y-3902800I49530J0D01*
G01*
X13528370Y-7675270D02*
X13627430Y-7774330D01*
X13627430Y-7675270D02*
X13528370Y-7774330D01*
X13627430Y-7724800D02*
G75*
G02*
X13528370Y-7724800I-49530J0D01*
G01*
X13528370Y-7724800D02*
G75*
G02*
X13627430Y-7724800I49530J0D01*
G01*
X13528370Y-7925270D02*
X13627430Y-8024330D01*
X13627430Y-7925270D02*
X13528370Y-8024330D01*
X13627430Y-7974800D02*
G75*
G02*
X13528370Y-7974800I-49530J0D01*
G01*
X13528370Y-7974800D02*
G75*
G02*
X13627430Y-7974800I49530J0D01*
G01*
X6669900Y-5325300D02*
X6769900Y-5425300D01*
X6769900Y-5325300D02*
X6669900Y-5425300D01*
X6719900Y-5325300D02*
X6719900Y-5425300D01*
X6669900Y-5375300D02*
X6769900Y-5375300D01*
X6669900Y-5579300D02*
X6769900Y-5679300D01*
X6769900Y-5579300D02*
X6669900Y-5679300D01*
X6719900Y-5579300D02*
X6719900Y-5679300D01*
X6669900Y-5629300D02*
X6769900Y-5629300D01*
X6669900Y-5833300D02*
X6769900Y-5933300D01*
X6769900Y-5833300D02*
X6669900Y-5933300D01*
X6719900Y-5833300D02*
X6719900Y-5933300D01*
X6669900Y-5883300D02*
X6769900Y-5883300D01*
X6669900Y-6087300D02*
X6769900Y-6187300D01*
X6769900Y-6087300D02*
X6669900Y-6187300D01*
X6719900Y-6087300D02*
X6719900Y-6187300D01*
X6669900Y-6137300D02*
X6769900Y-6137300D01*
X6669900Y-6341300D02*
X6769900Y-6441300D01*
X6769900Y-6341300D02*
X6669900Y-6441300D01*
X6719900Y-6341300D02*
X6719900Y-6441300D01*
X6669900Y-6391300D02*
X6769900Y-6391300D01*
X6669900Y-6595300D02*
X6769900Y-6695300D01*
X6769900Y-6595300D02*
X6669900Y-6695300D01*
X6719900Y-6595300D02*
X6719900Y-6695300D01*
X6669900Y-6645300D02*
X6769900Y-6645300D01*
X6809600Y-3953000D02*
X6909600Y-4053000D01*
X6909600Y-3953000D02*
X6809600Y-4053000D01*
X6859600Y-3953000D02*
X6859600Y-4053000D01*
X6809600Y-4003000D02*
X6909600Y-4003000D01*
X6809600Y-4203000D02*
X6909600Y-4303000D01*
X6909600Y-4203000D02*
X6809600Y-4303000D01*
X6859600Y-4203000D02*
X6859600Y-4303000D01*
X6809600Y-4253000D02*
X6909600Y-4253000D01*
X6809600Y-4453000D02*
X6909600Y-4553000D01*
X6909600Y-4453000D02*
X6809600Y-4553000D01*
X6859600Y-4453000D02*
X6859600Y-4553000D01*
X6809600Y-4503000D02*
X6909600Y-4503000D01*
X6809600Y-4703000D02*
X6909600Y-4803000D01*
X6909600Y-4703000D02*
X6809600Y-4803000D01*
X6859600Y-4703000D02*
X6859600Y-4803000D01*
X6809600Y-4753000D02*
X6909600Y-4753000D01*
X7531200Y-6184550D02*
X7631200Y-6284550D01*
X7631200Y-6184550D02*
X7531200Y-6284550D01*
X7581200Y-6184550D02*
X7581200Y-6284550D01*
X7531200Y-6234550D02*
X7631200Y-6234550D01*
X7531200Y-5676550D02*
X7631200Y-5776550D01*
X7631200Y-5676550D02*
X7531200Y-5776550D01*
X7581200Y-5676550D02*
X7581200Y-5776550D01*
X7531200Y-5726550D02*
X7631200Y-5726550D01*
X7531200Y-5930550D02*
X7631200Y-6030550D01*
X7631200Y-5930550D02*
X7531200Y-6030550D01*
X7581200Y-5930550D02*
X7581200Y-6030550D01*
X7531200Y-5980550D02*
X7631200Y-5980550D01*
X7531200Y-6438550D02*
X7631200Y-6538550D01*
X7631200Y-6438550D02*
X7531200Y-6538550D01*
X7581200Y-6438550D02*
X7581200Y-6538550D01*
X7531200Y-6488550D02*
X7631200Y-6488550D01*
X7531200Y-6692550D02*
X7631200Y-6792550D01*
X7631200Y-6692550D02*
X7531200Y-6792550D01*
X7581200Y-6692550D02*
X7581200Y-6792550D01*
X7531200Y-6742550D02*
X7631200Y-6742550D01*
X7785200Y-5676550D02*
X7885200Y-5776550D01*
X7885200Y-5676550D02*
X7785200Y-5776550D01*
X7835200Y-5676550D02*
X7835200Y-5776550D01*
X7785200Y-5726550D02*
X7885200Y-5726550D01*
X7785200Y-5930550D02*
X7885200Y-6030550D01*
X7885200Y-5930550D02*
X7785200Y-6030550D01*
X7835200Y-5930550D02*
X7835200Y-6030550D01*
X7785200Y-5980550D02*
X7885200Y-5980550D01*
X7785200Y-6438550D02*
X7885200Y-6538550D01*
X7885200Y-6438550D02*
X7785200Y-6538550D01*
X7835200Y-6438550D02*
X7835200Y-6538550D01*
X7785200Y-6488550D02*
X7885200Y-6488550D01*
X7785200Y-6692550D02*
X7885200Y-6792550D01*
X7885200Y-6692550D02*
X7785200Y-6792550D01*
X7835200Y-6692550D02*
X7835200Y-6792550D01*
X7785200Y-6742550D02*
X7885200Y-6742550D01*
X7785200Y-6184550D02*
X7885200Y-6284550D01*
X7885200Y-6184550D02*
X7785200Y-6284550D01*
X7835200Y-6184550D02*
X7835200Y-6284550D01*
X7785200Y-6234550D02*
X7885200Y-6234550D01*
X7888400Y-3001200D02*
X7988400Y-3101200D01*
X7988400Y-3001200D02*
X7888400Y-3101200D01*
X7938400Y-3001200D02*
X7938400Y-3101200D01*
X7888400Y-3051200D02*
X7988400Y-3051200D01*
X8138400Y-3001200D02*
X8238400Y-3101200D01*
X8238400Y-3001200D02*
X8138400Y-3101200D01*
X8188400Y-3001200D02*
X8188400Y-3101200D01*
X8138400Y-3051200D02*
X8238400Y-3051200D01*
X8388400Y-3001200D02*
X8488400Y-3101200D01*
X8488400Y-3001200D02*
X8388400Y-3101200D01*
X8438400Y-3001200D02*
X8438400Y-3101200D01*
X8388400Y-3051200D02*
X8488400Y-3051200D01*
X8638400Y-3001200D02*
X8738400Y-3101200D01*
X8738400Y-3001200D02*
X8638400Y-3101200D01*
X8688400Y-3001200D02*
X8688400Y-3101200D01*
X8638400Y-3051200D02*
X8738400Y-3051200D01*
X8994000Y-4698800D02*
X9094000Y-4798800D01*
X9094000Y-4698800D02*
X8994000Y-4798800D01*
X9044000Y-4698800D02*
X9044000Y-4798800D01*
X8994000Y-4748800D02*
X9094000Y-4748800D01*
X8994000Y-4952800D02*
X9094000Y-5052800D01*
X9094000Y-4952800D02*
X8994000Y-5052800D01*
X9044000Y-4952800D02*
X9044000Y-5052800D01*
X8994000Y-5002800D02*
X9094000Y-5002800D01*
X8994000Y-5206800D02*
X9094000Y-5306800D01*
X9094000Y-5206800D02*
X8994000Y-5306800D01*
X9044000Y-5206800D02*
X9044000Y-5306800D01*
X8994000Y-5256800D02*
X9094000Y-5256800D01*
D12*
X6762277Y-9943784D02*
X6762277Y-9743784D01*
X6762277Y-9743784D02*
X6809896Y-9743784D01*
X6809896Y-9743784D02*
X6838467Y-9753308D01*
X6838467Y-9753308D02*
X6857515Y-9772355D01*
X6857515Y-9772355D02*
X6867039Y-9791403D01*
X6867039Y-9791403D02*
X6876562Y-9829498D01*
X6876562Y-9829498D02*
X6876562Y-9858070D01*
X6876562Y-9858070D02*
X6867039Y-9896165D01*
X6867039Y-9896165D02*
X6857515Y-9915212D01*
X6857515Y-9915212D02*
X6838467Y-9934260D01*
X6838467Y-9934260D02*
X6809896Y-9943784D01*
X6809896Y-9943784D02*
X6762277Y-9943784D01*
X6962277Y-9943784D02*
X6962277Y-9810450D01*
X6962277Y-9848546D02*
X6971801Y-9829498D01*
X6971801Y-9829498D02*
X6981324Y-9819974D01*
X6981324Y-9819974D02*
X7000372Y-9810450D01*
X7000372Y-9810450D02*
X7019420Y-9810450D01*
X7086086Y-9943784D02*
X7086086Y-9810450D01*
X7086086Y-9743784D02*
X7076562Y-9753308D01*
X7076562Y-9753308D02*
X7086086Y-9762831D01*
X7086086Y-9762831D02*
X7095610Y-9753308D01*
X7095610Y-9753308D02*
X7086086Y-9743784D01*
X7086086Y-9743784D02*
X7086086Y-9762831D01*
X7209896Y-9943784D02*
X7190848Y-9934260D01*
X7190848Y-9934260D02*
X7181324Y-9915212D01*
X7181324Y-9915212D02*
X7181324Y-9743784D01*
X7314658Y-9943784D02*
X7295610Y-9934260D01*
X7295610Y-9934260D02*
X7286086Y-9915212D01*
X7286086Y-9915212D02*
X7286086Y-9743784D01*
X7543229Y-9943784D02*
X7543229Y-9743784D01*
X7543229Y-9743784D02*
X7609896Y-9886641D01*
X7609896Y-9886641D02*
X7676562Y-9743784D01*
X7676562Y-9743784D02*
X7676562Y-9943784D01*
X7857515Y-9943784D02*
X7857515Y-9839022D01*
X7857515Y-9839022D02*
X7847991Y-9819974D01*
X7847991Y-9819974D02*
X7828943Y-9810450D01*
X7828943Y-9810450D02*
X7790848Y-9810450D01*
X7790848Y-9810450D02*
X7771801Y-9819974D01*
X7857515Y-9934260D02*
X7838467Y-9943784D01*
X7838467Y-9943784D02*
X7790848Y-9943784D01*
X7790848Y-9943784D02*
X7771801Y-9934260D01*
X7771801Y-9934260D02*
X7762277Y-9915212D01*
X7762277Y-9915212D02*
X7762277Y-9896165D01*
X7762277Y-9896165D02*
X7771801Y-9877117D01*
X7771801Y-9877117D02*
X7790848Y-9867593D01*
X7790848Y-9867593D02*
X7838467Y-9867593D01*
X7838467Y-9867593D02*
X7857515Y-9858070D01*
X7952753Y-9810450D02*
X7952753Y-10010450D01*
X7952753Y-9819974D02*
X7971801Y-9810450D01*
X7971801Y-9810450D02*
X8009896Y-9810450D01*
X8009896Y-9810450D02*
X8028943Y-9819974D01*
X8028943Y-9819974D02*
X8038467Y-9829498D01*
X8038467Y-9829498D02*
X8047991Y-9848546D01*
X8047991Y-9848546D02*
X8047991Y-9905689D01*
X8047991Y-9905689D02*
X8038467Y-9924736D01*
X8038467Y-9924736D02*
X8028943Y-9934260D01*
X8028943Y-9934260D02*
X8009896Y-9943784D01*
X8009896Y-9943784D02*
X7971801Y-9943784D01*
X7971801Y-9943784D02*
X7952753Y-9934260D01*
X8133705Y-9924736D02*
X8143229Y-9934260D01*
X8143229Y-9934260D02*
X8133705Y-9943784D01*
X8133705Y-9943784D02*
X8124182Y-9934260D01*
X8124182Y-9934260D02*
X8133705Y-9924736D01*
X8133705Y-9924736D02*
X8133705Y-9943784D01*
X8133705Y-9819974D02*
X8143229Y-9829498D01*
X8143229Y-9829498D02*
X8133705Y-9839022D01*
X8133705Y-9839022D02*
X8124182Y-9829498D01*
X8124182Y-9829498D02*
X8133705Y-9819974D01*
X8133705Y-9819974D02*
X8133705Y-9839022D01*
D13*
X6471500Y-10257300D02*
X6501500Y-10287300D01*
X6501500Y-10257300D02*
X6471500Y-10287300D01*
D12*
X6800372Y-10163784D02*
X6819420Y-10163784D01*
X6819420Y-10163784D02*
X6838467Y-10173308D01*
X6838467Y-10173308D02*
X6847991Y-10182831D01*
X6847991Y-10182831D02*
X6857515Y-10201879D01*
X6857515Y-10201879D02*
X6867039Y-10239974D01*
X6867039Y-10239974D02*
X6867039Y-10287593D01*
X6867039Y-10287593D02*
X6857515Y-10325689D01*
X6857515Y-10325689D02*
X6847991Y-10344736D01*
X6847991Y-10344736D02*
X6838467Y-10354260D01*
X6838467Y-10354260D02*
X6819420Y-10363784D01*
X6819420Y-10363784D02*
X6800372Y-10363784D01*
X6800372Y-10363784D02*
X6781324Y-10354260D01*
X6781324Y-10354260D02*
X6771801Y-10344736D01*
X6771801Y-10344736D02*
X6762277Y-10325689D01*
X6762277Y-10325689D02*
X6752753Y-10287593D01*
X6752753Y-10287593D02*
X6752753Y-10239974D01*
X6752753Y-10239974D02*
X6762277Y-10201879D01*
X6762277Y-10201879D02*
X6771801Y-10182831D01*
X6771801Y-10182831D02*
X6781324Y-10173308D01*
X6781324Y-10173308D02*
X6800372Y-10163784D01*
X6952753Y-10344736D02*
X6962277Y-10354260D01*
X6962277Y-10354260D02*
X6952753Y-10363784D01*
X6952753Y-10363784D02*
X6943229Y-10354260D01*
X6943229Y-10354260D02*
X6952753Y-10344736D01*
X6952753Y-10344736D02*
X6952753Y-10363784D01*
X7028943Y-10163784D02*
X7152753Y-10163784D01*
X7152753Y-10163784D02*
X7086086Y-10239974D01*
X7086086Y-10239974D02*
X7114658Y-10239974D01*
X7114658Y-10239974D02*
X7133705Y-10249498D01*
X7133705Y-10249498D02*
X7143229Y-10259022D01*
X7143229Y-10259022D02*
X7152753Y-10278070D01*
X7152753Y-10278070D02*
X7152753Y-10325689D01*
X7152753Y-10325689D02*
X7143229Y-10344736D01*
X7143229Y-10344736D02*
X7133705Y-10354260D01*
X7133705Y-10354260D02*
X7114658Y-10363784D01*
X7114658Y-10363784D02*
X7057515Y-10363784D01*
X7057515Y-10363784D02*
X7038467Y-10354260D01*
X7038467Y-10354260D02*
X7028943Y-10344736D01*
X7276562Y-10163784D02*
X7295610Y-10163784D01*
X7295610Y-10163784D02*
X7314658Y-10173308D01*
X7314658Y-10173308D02*
X7324182Y-10182831D01*
X7324182Y-10182831D02*
X7333705Y-10201879D01*
X7333705Y-10201879D02*
X7343229Y-10239974D01*
X7343229Y-10239974D02*
X7343229Y-10287593D01*
X7343229Y-10287593D02*
X7333705Y-10325689D01*
X7333705Y-10325689D02*
X7324182Y-10344736D01*
X7324182Y-10344736D02*
X7314658Y-10354260D01*
X7314658Y-10354260D02*
X7295610Y-10363784D01*
X7295610Y-10363784D02*
X7276562Y-10363784D01*
X7276562Y-10363784D02*
X7257515Y-10354260D01*
X7257515Y-10354260D02*
X7247991Y-10344736D01*
X7247991Y-10344736D02*
X7238467Y-10325689D01*
X7238467Y-10325689D02*
X7228943Y-10287593D01*
X7228943Y-10287593D02*
X7228943Y-10239974D01*
X7228943Y-10239974D02*
X7238467Y-10201879D01*
X7238467Y-10201879D02*
X7247991Y-10182831D01*
X7247991Y-10182831D02*
X7257515Y-10173308D01*
X7257515Y-10173308D02*
X7276562Y-10163784D01*
X7467039Y-10163784D02*
X7486086Y-10163784D01*
X7486086Y-10163784D02*
X7505134Y-10173308D01*
X7505134Y-10173308D02*
X7514658Y-10182831D01*
X7514658Y-10182831D02*
X7524182Y-10201879D01*
X7524182Y-10201879D02*
X7533705Y-10239974D01*
X7533705Y-10239974D02*
X7533705Y-10287593D01*
X7533705Y-10287593D02*
X7524182Y-10325689D01*
X7524182Y-10325689D02*
X7514658Y-10344736D01*
X7514658Y-10344736D02*
X7505134Y-10354260D01*
X7505134Y-10354260D02*
X7486086Y-10363784D01*
X7486086Y-10363784D02*
X7467039Y-10363784D01*
X7467039Y-10363784D02*
X7447991Y-10354260D01*
X7447991Y-10354260D02*
X7438467Y-10344736D01*
X7438467Y-10344736D02*
X7428943Y-10325689D01*
X7428943Y-10325689D02*
X7419420Y-10287593D01*
X7419420Y-10287593D02*
X7419420Y-10239974D01*
X7419420Y-10239974D02*
X7428943Y-10201879D01*
X7428943Y-10201879D02*
X7438467Y-10182831D01*
X7438467Y-10182831D02*
X7447991Y-10173308D01*
X7447991Y-10173308D02*
X7467039Y-10163784D01*
X7619420Y-10363784D02*
X7619420Y-10230450D01*
X7619420Y-10249498D02*
X7628943Y-10239974D01*
X7628943Y-10239974D02*
X7647991Y-10230450D01*
X7647991Y-10230450D02*
X7676563Y-10230450D01*
X7676563Y-10230450D02*
X7695610Y-10239974D01*
X7695610Y-10239974D02*
X7705134Y-10259022D01*
X7705134Y-10259022D02*
X7705134Y-10363784D01*
X7705134Y-10259022D02*
X7714658Y-10239974D01*
X7714658Y-10239974D02*
X7733705Y-10230450D01*
X7733705Y-10230450D02*
X7762277Y-10230450D01*
X7762277Y-10230450D02*
X7781324Y-10239974D01*
X7781324Y-10239974D02*
X7790848Y-10259022D01*
X7790848Y-10259022D02*
X7790848Y-10363784D01*
X7886086Y-10363784D02*
X7886086Y-10230450D01*
X7886086Y-10249498D02*
X7895610Y-10239974D01*
X7895610Y-10239974D02*
X7914658Y-10230450D01*
X7914658Y-10230450D02*
X7943229Y-10230450D01*
X7943229Y-10230450D02*
X7962277Y-10239974D01*
X7962277Y-10239974D02*
X7971801Y-10259022D01*
X7971801Y-10259022D02*
X7971801Y-10363784D01*
X7971801Y-10259022D02*
X7981324Y-10239974D01*
X7981324Y-10239974D02*
X8000372Y-10230450D01*
X8000372Y-10230450D02*
X8028943Y-10230450D01*
X8028943Y-10230450D02*
X8047991Y-10239974D01*
X8047991Y-10239974D02*
X8057515Y-10259022D01*
X8057515Y-10259022D02*
X8057515Y-10363784D01*
X8447991Y-10154260D02*
X8276563Y-10411403D01*
X8705134Y-10163784D02*
X8724182Y-10163784D01*
X8724182Y-10163784D02*
X8743229Y-10173308D01*
X8743229Y-10173308D02*
X8752753Y-10182831D01*
X8752753Y-10182831D02*
X8762277Y-10201879D01*
X8762277Y-10201879D02*
X8771801Y-10239974D01*
X8771801Y-10239974D02*
X8771801Y-10287593D01*
X8771801Y-10287593D02*
X8762277Y-10325689D01*
X8762277Y-10325689D02*
X8752753Y-10344736D01*
X8752753Y-10344736D02*
X8743229Y-10354260D01*
X8743229Y-10354260D02*
X8724182Y-10363784D01*
X8724182Y-10363784D02*
X8705134Y-10363784D01*
X8705134Y-10363784D02*
X8686087Y-10354260D01*
X8686087Y-10354260D02*
X8676563Y-10344736D01*
X8676563Y-10344736D02*
X8667039Y-10325689D01*
X8667039Y-10325689D02*
X8657515Y-10287593D01*
X8657515Y-10287593D02*
X8657515Y-10239974D01*
X8657515Y-10239974D02*
X8667039Y-10201879D01*
X8667039Y-10201879D02*
X8676563Y-10182831D01*
X8676563Y-10182831D02*
X8686087Y-10173308D01*
X8686087Y-10173308D02*
X8705134Y-10163784D01*
X8857515Y-10344736D02*
X8867039Y-10354260D01*
X8867039Y-10354260D02*
X8857515Y-10363784D01*
X8857515Y-10363784D02*
X8847991Y-10354260D01*
X8847991Y-10354260D02*
X8857515Y-10344736D01*
X8857515Y-10344736D02*
X8857515Y-10363784D01*
X8990848Y-10163784D02*
X9009896Y-10163784D01*
X9009896Y-10163784D02*
X9028944Y-10173308D01*
X9028944Y-10173308D02*
X9038468Y-10182831D01*
X9038468Y-10182831D02*
X9047991Y-10201879D01*
X9047991Y-10201879D02*
X9057515Y-10239974D01*
X9057515Y-10239974D02*
X9057515Y-10287593D01*
X9057515Y-10287593D02*
X9047991Y-10325689D01*
X9047991Y-10325689D02*
X9038468Y-10344736D01*
X9038468Y-10344736D02*
X9028944Y-10354260D01*
X9028944Y-10354260D02*
X9009896Y-10363784D01*
X9009896Y-10363784D02*
X8990848Y-10363784D01*
X8990848Y-10363784D02*
X8971801Y-10354260D01*
X8971801Y-10354260D02*
X8962277Y-10344736D01*
X8962277Y-10344736D02*
X8952753Y-10325689D01*
X8952753Y-10325689D02*
X8943229Y-10287593D01*
X8943229Y-10287593D02*
X8943229Y-10239974D01*
X8943229Y-10239974D02*
X8952753Y-10201879D01*
X8952753Y-10201879D02*
X8962277Y-10182831D01*
X8962277Y-10182831D02*
X8971801Y-10173308D01*
X8971801Y-10173308D02*
X8990848Y-10163784D01*
X9247991Y-10363784D02*
X9133706Y-10363784D01*
X9190848Y-10363784D02*
X9190848Y-10163784D01*
X9190848Y-10163784D02*
X9171801Y-10192355D01*
X9171801Y-10192355D02*
X9152753Y-10211403D01*
X9152753Y-10211403D02*
X9133706Y-10220927D01*
X9438468Y-10363784D02*
X9324182Y-10363784D01*
X9381325Y-10363784D02*
X9381325Y-10163784D01*
X9381325Y-10163784D02*
X9362277Y-10192355D01*
X9362277Y-10192355D02*
X9343229Y-10211403D01*
X9343229Y-10211403D02*
X9324182Y-10220927D01*
X9552753Y-10249498D02*
X9533706Y-10239974D01*
X9533706Y-10239974D02*
X9524182Y-10230450D01*
X9524182Y-10230450D02*
X9514658Y-10211403D01*
X9514658Y-10211403D02*
X9514658Y-10201879D01*
X9514658Y-10201879D02*
X9524182Y-10182831D01*
X9524182Y-10182831D02*
X9533706Y-10173308D01*
X9533706Y-10173308D02*
X9552753Y-10163784D01*
X9552753Y-10163784D02*
X9590849Y-10163784D01*
X9590849Y-10163784D02*
X9609896Y-10173308D01*
X9609896Y-10173308D02*
X9619420Y-10182831D01*
X9619420Y-10182831D02*
X9628944Y-10201879D01*
X9628944Y-10201879D02*
X9628944Y-10211403D01*
X9628944Y-10211403D02*
X9619420Y-10230450D01*
X9619420Y-10230450D02*
X9609896Y-10239974D01*
X9609896Y-10239974D02*
X9590849Y-10249498D01*
X9590849Y-10249498D02*
X9552753Y-10249498D01*
X9552753Y-10249498D02*
X9533706Y-10259022D01*
X9533706Y-10259022D02*
X9524182Y-10268546D01*
X9524182Y-10268546D02*
X9514658Y-10287593D01*
X9514658Y-10287593D02*
X9514658Y-10325689D01*
X9514658Y-10325689D02*
X9524182Y-10344736D01*
X9524182Y-10344736D02*
X9533706Y-10354260D01*
X9533706Y-10354260D02*
X9552753Y-10363784D01*
X9552753Y-10363784D02*
X9590849Y-10363784D01*
X9590849Y-10363784D02*
X9609896Y-10354260D01*
X9609896Y-10354260D02*
X9619420Y-10344736D01*
X9619420Y-10344736D02*
X9628944Y-10325689D01*
X9628944Y-10325689D02*
X9628944Y-10287593D01*
X9628944Y-10287593D02*
X9619420Y-10268546D01*
X9619420Y-10268546D02*
X9609896Y-10259022D01*
X9609896Y-10259022D02*
X9590849Y-10249498D01*
X9705134Y-10163784D02*
X9705134Y-10201879D01*
X9781325Y-10163784D02*
X9781325Y-10201879D01*
X10076563Y-10439974D02*
X10067039Y-10430450D01*
X10067039Y-10430450D02*
X10047991Y-10401879D01*
X10047991Y-10401879D02*
X10038468Y-10382831D01*
X10038468Y-10382831D02*
X10028944Y-10354260D01*
X10028944Y-10354260D02*
X10019420Y-10306641D01*
X10019420Y-10306641D02*
X10019420Y-10268546D01*
X10019420Y-10268546D02*
X10028944Y-10220927D01*
X10028944Y-10220927D02*
X10038468Y-10192355D01*
X10038468Y-10192355D02*
X10047991Y-10173308D01*
X10047991Y-10173308D02*
X10067039Y-10144736D01*
X10067039Y-10144736D02*
X10076563Y-10135212D01*
X10162277Y-10363784D02*
X10200372Y-10363784D01*
X10200372Y-10363784D02*
X10219420Y-10354260D01*
X10219420Y-10354260D02*
X10228944Y-10344736D01*
X10228944Y-10344736D02*
X10247991Y-10316165D01*
X10247991Y-10316165D02*
X10257515Y-10278070D01*
X10257515Y-10278070D02*
X10257515Y-10201879D01*
X10257515Y-10201879D02*
X10247991Y-10182831D01*
X10247991Y-10182831D02*
X10238468Y-10173308D01*
X10238468Y-10173308D02*
X10219420Y-10163784D01*
X10219420Y-10163784D02*
X10181325Y-10163784D01*
X10181325Y-10163784D02*
X10162277Y-10173308D01*
X10162277Y-10173308D02*
X10152753Y-10182831D01*
X10152753Y-10182831D02*
X10143230Y-10201879D01*
X10143230Y-10201879D02*
X10143230Y-10249498D01*
X10143230Y-10249498D02*
X10152753Y-10268546D01*
X10152753Y-10268546D02*
X10162277Y-10278070D01*
X10162277Y-10278070D02*
X10181325Y-10287593D01*
X10181325Y-10287593D02*
X10219420Y-10287593D01*
X10219420Y-10287593D02*
X10238468Y-10278070D01*
X10238468Y-10278070D02*
X10247991Y-10268546D01*
X10247991Y-10268546D02*
X10257515Y-10249498D01*
X10324182Y-10163784D02*
X10457515Y-10163784D01*
X10457515Y-10163784D02*
X10371801Y-10363784D01*
X10686087Y-10363784D02*
X10686087Y-10163784D01*
X10771801Y-10363784D02*
X10771801Y-10259022D01*
X10771801Y-10259022D02*
X10762277Y-10239974D01*
X10762277Y-10239974D02*
X10743230Y-10230450D01*
X10743230Y-10230450D02*
X10714658Y-10230450D01*
X10714658Y-10230450D02*
X10695611Y-10239974D01*
X10695611Y-10239974D02*
X10686087Y-10249498D01*
X10895611Y-10363784D02*
X10876563Y-10354260D01*
X10876563Y-10354260D02*
X10867039Y-10344736D01*
X10867039Y-10344736D02*
X10857515Y-10325689D01*
X10857515Y-10325689D02*
X10857515Y-10268546D01*
X10857515Y-10268546D02*
X10867039Y-10249498D01*
X10867039Y-10249498D02*
X10876563Y-10239974D01*
X10876563Y-10239974D02*
X10895611Y-10230450D01*
X10895611Y-10230450D02*
X10924182Y-10230450D01*
X10924182Y-10230450D02*
X10943230Y-10239974D01*
X10943230Y-10239974D02*
X10952753Y-10249498D01*
X10952753Y-10249498D02*
X10962277Y-10268546D01*
X10962277Y-10268546D02*
X10962277Y-10325689D01*
X10962277Y-10325689D02*
X10952753Y-10344736D01*
X10952753Y-10344736D02*
X10943230Y-10354260D01*
X10943230Y-10354260D02*
X10924182Y-10363784D01*
X10924182Y-10363784D02*
X10895611Y-10363784D01*
X11076563Y-10363784D02*
X11057515Y-10354260D01*
X11057515Y-10354260D02*
X11047992Y-10335212D01*
X11047992Y-10335212D02*
X11047992Y-10163784D01*
X11228944Y-10354260D02*
X11209896Y-10363784D01*
X11209896Y-10363784D02*
X11171801Y-10363784D01*
X11171801Y-10363784D02*
X11152753Y-10354260D01*
X11152753Y-10354260D02*
X11143230Y-10335212D01*
X11143230Y-10335212D02*
X11143230Y-10259022D01*
X11143230Y-10259022D02*
X11152753Y-10239974D01*
X11152753Y-10239974D02*
X11171801Y-10230450D01*
X11171801Y-10230450D02*
X11209896Y-10230450D01*
X11209896Y-10230450D02*
X11228944Y-10239974D01*
X11228944Y-10239974D02*
X11238468Y-10259022D01*
X11238468Y-10259022D02*
X11238468Y-10278070D01*
X11238468Y-10278070D02*
X11143230Y-10297117D01*
X11314658Y-10354260D02*
X11333706Y-10363784D01*
X11333706Y-10363784D02*
X11371801Y-10363784D01*
X11371801Y-10363784D02*
X11390849Y-10354260D01*
X11390849Y-10354260D02*
X11400372Y-10335212D01*
X11400372Y-10335212D02*
X11400372Y-10325689D01*
X11400372Y-10325689D02*
X11390849Y-10306641D01*
X11390849Y-10306641D02*
X11371801Y-10297117D01*
X11371801Y-10297117D02*
X11343230Y-10297117D01*
X11343230Y-10297117D02*
X11324182Y-10287593D01*
X11324182Y-10287593D02*
X11314658Y-10268546D01*
X11314658Y-10268546D02*
X11314658Y-10259022D01*
X11314658Y-10259022D02*
X11324182Y-10239974D01*
X11324182Y-10239974D02*
X11343230Y-10230450D01*
X11343230Y-10230450D02*
X11371801Y-10230450D01*
X11371801Y-10230450D02*
X11390849Y-10239974D01*
X11467039Y-10439974D02*
X11476563Y-10430450D01*
X11476563Y-10430450D02*
X11495611Y-10401879D01*
X11495611Y-10401879D02*
X11505134Y-10382831D01*
X11505134Y-10382831D02*
X11514658Y-10354260D01*
X11514658Y-10354260D02*
X11524182Y-10306641D01*
X11524182Y-10306641D02*
X11524182Y-10268546D01*
X11524182Y-10268546D02*
X11514658Y-10220927D01*
X11514658Y-10220927D02*
X11505134Y-10192355D01*
X11505134Y-10192355D02*
X11495611Y-10173308D01*
X11495611Y-10173308D02*
X11476563Y-10144736D01*
X11476563Y-10144736D02*
X11467039Y-10135212D01*
D13*
X6501500Y-10536300D02*
G75*
G02*
X6466500Y-10536300I-17500J0D01*
G01*
X6466500Y-10536300D02*
G75*
G02*
X6501500Y-10536300I17500J0D01*
G01*
D12*
X6800372Y-10427784D02*
X6819420Y-10427784D01*
X6819420Y-10427784D02*
X6838467Y-10437308D01*
X6838467Y-10437308D02*
X6847991Y-10446831D01*
X6847991Y-10446831D02*
X6857515Y-10465879D01*
X6857515Y-10465879D02*
X6867039Y-10503974D01*
X6867039Y-10503974D02*
X6867039Y-10551593D01*
X6867039Y-10551593D02*
X6857515Y-10589689D01*
X6857515Y-10589689D02*
X6847991Y-10608736D01*
X6847991Y-10608736D02*
X6838467Y-10618260D01*
X6838467Y-10618260D02*
X6819420Y-10627784D01*
X6819420Y-10627784D02*
X6800372Y-10627784D01*
X6800372Y-10627784D02*
X6781324Y-10618260D01*
X6781324Y-10618260D02*
X6771801Y-10608736D01*
X6771801Y-10608736D02*
X6762277Y-10589689D01*
X6762277Y-10589689D02*
X6752753Y-10551593D01*
X6752753Y-10551593D02*
X6752753Y-10503974D01*
X6752753Y-10503974D02*
X6762277Y-10465879D01*
X6762277Y-10465879D02*
X6771801Y-10446831D01*
X6771801Y-10446831D02*
X6781324Y-10437308D01*
X6781324Y-10437308D02*
X6800372Y-10427784D01*
X6952753Y-10608736D02*
X6962277Y-10618260D01*
X6962277Y-10618260D02*
X6952753Y-10627784D01*
X6952753Y-10627784D02*
X6943229Y-10618260D01*
X6943229Y-10618260D02*
X6952753Y-10608736D01*
X6952753Y-10608736D02*
X6952753Y-10627784D01*
X7028943Y-10427784D02*
X7152753Y-10427784D01*
X7152753Y-10427784D02*
X7086086Y-10503974D01*
X7086086Y-10503974D02*
X7114658Y-10503974D01*
X7114658Y-10503974D02*
X7133705Y-10513498D01*
X7133705Y-10513498D02*
X7143229Y-10523022D01*
X7143229Y-10523022D02*
X7152753Y-10542070D01*
X7152753Y-10542070D02*
X7152753Y-10589689D01*
X7152753Y-10589689D02*
X7143229Y-10608736D01*
X7143229Y-10608736D02*
X7133705Y-10618260D01*
X7133705Y-10618260D02*
X7114658Y-10627784D01*
X7114658Y-10627784D02*
X7057515Y-10627784D01*
X7057515Y-10627784D02*
X7038467Y-10618260D01*
X7038467Y-10618260D02*
X7028943Y-10608736D01*
X7333705Y-10427784D02*
X7238467Y-10427784D01*
X7238467Y-10427784D02*
X7228943Y-10523022D01*
X7228943Y-10523022D02*
X7238467Y-10513498D01*
X7238467Y-10513498D02*
X7257515Y-10503974D01*
X7257515Y-10503974D02*
X7305134Y-10503974D01*
X7305134Y-10503974D02*
X7324182Y-10513498D01*
X7324182Y-10513498D02*
X7333705Y-10523022D01*
X7333705Y-10523022D02*
X7343229Y-10542070D01*
X7343229Y-10542070D02*
X7343229Y-10589689D01*
X7343229Y-10589689D02*
X7333705Y-10608736D01*
X7333705Y-10608736D02*
X7324182Y-10618260D01*
X7324182Y-10618260D02*
X7305134Y-10627784D01*
X7305134Y-10627784D02*
X7257515Y-10627784D01*
X7257515Y-10627784D02*
X7238467Y-10618260D01*
X7238467Y-10618260D02*
X7228943Y-10608736D01*
X7467039Y-10427784D02*
X7486086Y-10427784D01*
X7486086Y-10427784D02*
X7505134Y-10437308D01*
X7505134Y-10437308D02*
X7514658Y-10446831D01*
X7514658Y-10446831D02*
X7524182Y-10465879D01*
X7524182Y-10465879D02*
X7533705Y-10503974D01*
X7533705Y-10503974D02*
X7533705Y-10551593D01*
X7533705Y-10551593D02*
X7524182Y-10589689D01*
X7524182Y-10589689D02*
X7514658Y-10608736D01*
X7514658Y-10608736D02*
X7505134Y-10618260D01*
X7505134Y-10618260D02*
X7486086Y-10627784D01*
X7486086Y-10627784D02*
X7467039Y-10627784D01*
X7467039Y-10627784D02*
X7447991Y-10618260D01*
X7447991Y-10618260D02*
X7438467Y-10608736D01*
X7438467Y-10608736D02*
X7428943Y-10589689D01*
X7428943Y-10589689D02*
X7419420Y-10551593D01*
X7419420Y-10551593D02*
X7419420Y-10503974D01*
X7419420Y-10503974D02*
X7428943Y-10465879D01*
X7428943Y-10465879D02*
X7438467Y-10446831D01*
X7438467Y-10446831D02*
X7447991Y-10437308D01*
X7447991Y-10437308D02*
X7467039Y-10427784D01*
X7619420Y-10627784D02*
X7619420Y-10494450D01*
X7619420Y-10513498D02*
X7628943Y-10503974D01*
X7628943Y-10503974D02*
X7647991Y-10494450D01*
X7647991Y-10494450D02*
X7676563Y-10494450D01*
X7676563Y-10494450D02*
X7695610Y-10503974D01*
X7695610Y-10503974D02*
X7705134Y-10523022D01*
X7705134Y-10523022D02*
X7705134Y-10627784D01*
X7705134Y-10523022D02*
X7714658Y-10503974D01*
X7714658Y-10503974D02*
X7733705Y-10494450D01*
X7733705Y-10494450D02*
X7762277Y-10494450D01*
X7762277Y-10494450D02*
X7781324Y-10503974D01*
X7781324Y-10503974D02*
X7790848Y-10523022D01*
X7790848Y-10523022D02*
X7790848Y-10627784D01*
X7886086Y-10627784D02*
X7886086Y-10494450D01*
X7886086Y-10513498D02*
X7895610Y-10503974D01*
X7895610Y-10503974D02*
X7914658Y-10494450D01*
X7914658Y-10494450D02*
X7943229Y-10494450D01*
X7943229Y-10494450D02*
X7962277Y-10503974D01*
X7962277Y-10503974D02*
X7971801Y-10523022D01*
X7971801Y-10523022D02*
X7971801Y-10627784D01*
X7971801Y-10523022D02*
X7981324Y-10503974D01*
X7981324Y-10503974D02*
X8000372Y-10494450D01*
X8000372Y-10494450D02*
X8028943Y-10494450D01*
X8028943Y-10494450D02*
X8047991Y-10503974D01*
X8047991Y-10503974D02*
X8057515Y-10523022D01*
X8057515Y-10523022D02*
X8057515Y-10627784D01*
X8447991Y-10418260D02*
X8276563Y-10675403D01*
X8705134Y-10427784D02*
X8724182Y-10427784D01*
X8724182Y-10427784D02*
X8743229Y-10437308D01*
X8743229Y-10437308D02*
X8752753Y-10446831D01*
X8752753Y-10446831D02*
X8762277Y-10465879D01*
X8762277Y-10465879D02*
X8771801Y-10503974D01*
X8771801Y-10503974D02*
X8771801Y-10551593D01*
X8771801Y-10551593D02*
X8762277Y-10589689D01*
X8762277Y-10589689D02*
X8752753Y-10608736D01*
X8752753Y-10608736D02*
X8743229Y-10618260D01*
X8743229Y-10618260D02*
X8724182Y-10627784D01*
X8724182Y-10627784D02*
X8705134Y-10627784D01*
X8705134Y-10627784D02*
X8686087Y-10618260D01*
X8686087Y-10618260D02*
X8676563Y-10608736D01*
X8676563Y-10608736D02*
X8667039Y-10589689D01*
X8667039Y-10589689D02*
X8657515Y-10551593D01*
X8657515Y-10551593D02*
X8657515Y-10503974D01*
X8657515Y-10503974D02*
X8667039Y-10465879D01*
X8667039Y-10465879D02*
X8676563Y-10446831D01*
X8676563Y-10446831D02*
X8686087Y-10437308D01*
X8686087Y-10437308D02*
X8705134Y-10427784D01*
X8857515Y-10608736D02*
X8867039Y-10618260D01*
X8867039Y-10618260D02*
X8857515Y-10627784D01*
X8857515Y-10627784D02*
X8847991Y-10618260D01*
X8847991Y-10618260D02*
X8857515Y-10608736D01*
X8857515Y-10608736D02*
X8857515Y-10627784D01*
X8990848Y-10427784D02*
X9009896Y-10427784D01*
X9009896Y-10427784D02*
X9028944Y-10437308D01*
X9028944Y-10437308D02*
X9038468Y-10446831D01*
X9038468Y-10446831D02*
X9047991Y-10465879D01*
X9047991Y-10465879D02*
X9057515Y-10503974D01*
X9057515Y-10503974D02*
X9057515Y-10551593D01*
X9057515Y-10551593D02*
X9047991Y-10589689D01*
X9047991Y-10589689D02*
X9038468Y-10608736D01*
X9038468Y-10608736D02*
X9028944Y-10618260D01*
X9028944Y-10618260D02*
X9009896Y-10627784D01*
X9009896Y-10627784D02*
X8990848Y-10627784D01*
X8990848Y-10627784D02*
X8971801Y-10618260D01*
X8971801Y-10618260D02*
X8962277Y-10608736D01*
X8962277Y-10608736D02*
X8952753Y-10589689D01*
X8952753Y-10589689D02*
X8943229Y-10551593D01*
X8943229Y-10551593D02*
X8943229Y-10503974D01*
X8943229Y-10503974D02*
X8952753Y-10465879D01*
X8952753Y-10465879D02*
X8962277Y-10446831D01*
X8962277Y-10446831D02*
X8971801Y-10437308D01*
X8971801Y-10437308D02*
X8990848Y-10427784D01*
X9247991Y-10627784D02*
X9133706Y-10627784D01*
X9190848Y-10627784D02*
X9190848Y-10427784D01*
X9190848Y-10427784D02*
X9171801Y-10456355D01*
X9171801Y-10456355D02*
X9152753Y-10475403D01*
X9152753Y-10475403D02*
X9133706Y-10484927D01*
X9314658Y-10427784D02*
X9438468Y-10427784D01*
X9438468Y-10427784D02*
X9371801Y-10503974D01*
X9371801Y-10503974D02*
X9400372Y-10503974D01*
X9400372Y-10503974D02*
X9419420Y-10513498D01*
X9419420Y-10513498D02*
X9428944Y-10523022D01*
X9428944Y-10523022D02*
X9438468Y-10542070D01*
X9438468Y-10542070D02*
X9438468Y-10589689D01*
X9438468Y-10589689D02*
X9428944Y-10608736D01*
X9428944Y-10608736D02*
X9419420Y-10618260D01*
X9419420Y-10618260D02*
X9400372Y-10627784D01*
X9400372Y-10627784D02*
X9343229Y-10627784D01*
X9343229Y-10627784D02*
X9324182Y-10618260D01*
X9324182Y-10618260D02*
X9314658Y-10608736D01*
X9552753Y-10513498D02*
X9533706Y-10503974D01*
X9533706Y-10503974D02*
X9524182Y-10494450D01*
X9524182Y-10494450D02*
X9514658Y-10475403D01*
X9514658Y-10475403D02*
X9514658Y-10465879D01*
X9514658Y-10465879D02*
X9524182Y-10446831D01*
X9524182Y-10446831D02*
X9533706Y-10437308D01*
X9533706Y-10437308D02*
X9552753Y-10427784D01*
X9552753Y-10427784D02*
X9590849Y-10427784D01*
X9590849Y-10427784D02*
X9609896Y-10437308D01*
X9609896Y-10437308D02*
X9619420Y-10446831D01*
X9619420Y-10446831D02*
X9628944Y-10465879D01*
X9628944Y-10465879D02*
X9628944Y-10475403D01*
X9628944Y-10475403D02*
X9619420Y-10494450D01*
X9619420Y-10494450D02*
X9609896Y-10503974D01*
X9609896Y-10503974D02*
X9590849Y-10513498D01*
X9590849Y-10513498D02*
X9552753Y-10513498D01*
X9552753Y-10513498D02*
X9533706Y-10523022D01*
X9533706Y-10523022D02*
X9524182Y-10532546D01*
X9524182Y-10532546D02*
X9514658Y-10551593D01*
X9514658Y-10551593D02*
X9514658Y-10589689D01*
X9514658Y-10589689D02*
X9524182Y-10608736D01*
X9524182Y-10608736D02*
X9533706Y-10618260D01*
X9533706Y-10618260D02*
X9552753Y-10627784D01*
X9552753Y-10627784D02*
X9590849Y-10627784D01*
X9590849Y-10627784D02*
X9609896Y-10618260D01*
X9609896Y-10618260D02*
X9619420Y-10608736D01*
X9619420Y-10608736D02*
X9628944Y-10589689D01*
X9628944Y-10589689D02*
X9628944Y-10551593D01*
X9628944Y-10551593D02*
X9619420Y-10532546D01*
X9619420Y-10532546D02*
X9609896Y-10523022D01*
X9609896Y-10523022D02*
X9590849Y-10513498D01*
X9705134Y-10427784D02*
X9705134Y-10465879D01*
X9781325Y-10427784D02*
X9781325Y-10465879D01*
X10076563Y-10703974D02*
X10067039Y-10694450D01*
X10067039Y-10694450D02*
X10047991Y-10665879D01*
X10047991Y-10665879D02*
X10038468Y-10646831D01*
X10038468Y-10646831D02*
X10028944Y-10618260D01*
X10028944Y-10618260D02*
X10019420Y-10570641D01*
X10019420Y-10570641D02*
X10019420Y-10532546D01*
X10019420Y-10532546D02*
X10028944Y-10484927D01*
X10028944Y-10484927D02*
X10038468Y-10456355D01*
X10038468Y-10456355D02*
X10047991Y-10437308D01*
X10047991Y-10437308D02*
X10067039Y-10408736D01*
X10067039Y-10408736D02*
X10076563Y-10399212D01*
X10143230Y-10446831D02*
X10152753Y-10437308D01*
X10152753Y-10437308D02*
X10171801Y-10427784D01*
X10171801Y-10427784D02*
X10219420Y-10427784D01*
X10219420Y-10427784D02*
X10238468Y-10437308D01*
X10238468Y-10437308D02*
X10247991Y-10446831D01*
X10247991Y-10446831D02*
X10257515Y-10465879D01*
X10257515Y-10465879D02*
X10257515Y-10484927D01*
X10257515Y-10484927D02*
X10247991Y-10513498D01*
X10247991Y-10513498D02*
X10133706Y-10627784D01*
X10133706Y-10627784D02*
X10257515Y-10627784D01*
X10495611Y-10627784D02*
X10495611Y-10427784D01*
X10581325Y-10627784D02*
X10581325Y-10523022D01*
X10581325Y-10523022D02*
X10571801Y-10503974D01*
X10571801Y-10503974D02*
X10552753Y-10494450D01*
X10552753Y-10494450D02*
X10524182Y-10494450D01*
X10524182Y-10494450D02*
X10505134Y-10503974D01*
X10505134Y-10503974D02*
X10495611Y-10513498D01*
X10705134Y-10627784D02*
X10686087Y-10618260D01*
X10686087Y-10618260D02*
X10676563Y-10608736D01*
X10676563Y-10608736D02*
X10667039Y-10589689D01*
X10667039Y-10589689D02*
X10667039Y-10532546D01*
X10667039Y-10532546D02*
X10676563Y-10513498D01*
X10676563Y-10513498D02*
X10686087Y-10503974D01*
X10686087Y-10503974D02*
X10705134Y-10494450D01*
X10705134Y-10494450D02*
X10733706Y-10494450D01*
X10733706Y-10494450D02*
X10752753Y-10503974D01*
X10752753Y-10503974D02*
X10762277Y-10513498D01*
X10762277Y-10513498D02*
X10771801Y-10532546D01*
X10771801Y-10532546D02*
X10771801Y-10589689D01*
X10771801Y-10589689D02*
X10762277Y-10608736D01*
X10762277Y-10608736D02*
X10752753Y-10618260D01*
X10752753Y-10618260D02*
X10733706Y-10627784D01*
X10733706Y-10627784D02*
X10705134Y-10627784D01*
X10886087Y-10627784D02*
X10867039Y-10618260D01*
X10867039Y-10618260D02*
X10857515Y-10599212D01*
X10857515Y-10599212D02*
X10857515Y-10427784D01*
X11038468Y-10618260D02*
X11019420Y-10627784D01*
X11019420Y-10627784D02*
X10981325Y-10627784D01*
X10981325Y-10627784D02*
X10962277Y-10618260D01*
X10962277Y-10618260D02*
X10952753Y-10599212D01*
X10952753Y-10599212D02*
X10952753Y-10523022D01*
X10952753Y-10523022D02*
X10962277Y-10503974D01*
X10962277Y-10503974D02*
X10981325Y-10494450D01*
X10981325Y-10494450D02*
X11019420Y-10494450D01*
X11019420Y-10494450D02*
X11038468Y-10503974D01*
X11038468Y-10503974D02*
X11047992Y-10523022D01*
X11047992Y-10523022D02*
X11047992Y-10542070D01*
X11047992Y-10542070D02*
X10952753Y-10561117D01*
X11124182Y-10618260D02*
X11143230Y-10627784D01*
X11143230Y-10627784D02*
X11181325Y-10627784D01*
X11181325Y-10627784D02*
X11200372Y-10618260D01*
X11200372Y-10618260D02*
X11209896Y-10599212D01*
X11209896Y-10599212D02*
X11209896Y-10589689D01*
X11209896Y-10589689D02*
X11200372Y-10570641D01*
X11200372Y-10570641D02*
X11181325Y-10561117D01*
X11181325Y-10561117D02*
X11152753Y-10561117D01*
X11152753Y-10561117D02*
X11133706Y-10551593D01*
X11133706Y-10551593D02*
X11124182Y-10532546D01*
X11124182Y-10532546D02*
X11124182Y-10523022D01*
X11124182Y-10523022D02*
X11133706Y-10503974D01*
X11133706Y-10503974D02*
X11152753Y-10494450D01*
X11152753Y-10494450D02*
X11181325Y-10494450D01*
X11181325Y-10494450D02*
X11200372Y-10503974D01*
X11276563Y-10703974D02*
X11286087Y-10694450D01*
X11286087Y-10694450D02*
X11305134Y-10665879D01*
X11305134Y-10665879D02*
X11314658Y-10646831D01*
X11314658Y-10646831D02*
X11324182Y-10618260D01*
X11324182Y-10618260D02*
X11333706Y-10570641D01*
X11333706Y-10570641D02*
X11333706Y-10532546D01*
X11333706Y-10532546D02*
X11324182Y-10484927D01*
X11324182Y-10484927D02*
X11314658Y-10456355D01*
X11314658Y-10456355D02*
X11305134Y-10437308D01*
X11305134Y-10437308D02*
X11286087Y-10408736D01*
X11286087Y-10408736D02*
X11276563Y-10399212D01*
D13*
X6481500Y-10780300D02*
X6481500Y-10820300D01*
X6461500Y-10800300D02*
X6501500Y-10800300D01*
D12*
X6800372Y-10691784D02*
X6819420Y-10691784D01*
X6819420Y-10691784D02*
X6838467Y-10701308D01*
X6838467Y-10701308D02*
X6847991Y-10710831D01*
X6847991Y-10710831D02*
X6857515Y-10729879D01*
X6857515Y-10729879D02*
X6867039Y-10767974D01*
X6867039Y-10767974D02*
X6867039Y-10815593D01*
X6867039Y-10815593D02*
X6857515Y-10853689D01*
X6857515Y-10853689D02*
X6847991Y-10872736D01*
X6847991Y-10872736D02*
X6838467Y-10882260D01*
X6838467Y-10882260D02*
X6819420Y-10891784D01*
X6819420Y-10891784D02*
X6800372Y-10891784D01*
X6800372Y-10891784D02*
X6781324Y-10882260D01*
X6781324Y-10882260D02*
X6771801Y-10872736D01*
X6771801Y-10872736D02*
X6762277Y-10853689D01*
X6762277Y-10853689D02*
X6752753Y-10815593D01*
X6752753Y-10815593D02*
X6752753Y-10767974D01*
X6752753Y-10767974D02*
X6762277Y-10729879D01*
X6762277Y-10729879D02*
X6771801Y-10710831D01*
X6771801Y-10710831D02*
X6781324Y-10701308D01*
X6781324Y-10701308D02*
X6800372Y-10691784D01*
X6952753Y-10872736D02*
X6962277Y-10882260D01*
X6962277Y-10882260D02*
X6952753Y-10891784D01*
X6952753Y-10891784D02*
X6943229Y-10882260D01*
X6943229Y-10882260D02*
X6952753Y-10872736D01*
X6952753Y-10872736D02*
X6952753Y-10891784D01*
X7133705Y-10758450D02*
X7133705Y-10891784D01*
X7086086Y-10682260D02*
X7038467Y-10825117D01*
X7038467Y-10825117D02*
X7162277Y-10825117D01*
X7276562Y-10691784D02*
X7295610Y-10691784D01*
X7295610Y-10691784D02*
X7314658Y-10701308D01*
X7314658Y-10701308D02*
X7324182Y-10710831D01*
X7324182Y-10710831D02*
X7333705Y-10729879D01*
X7333705Y-10729879D02*
X7343229Y-10767974D01*
X7343229Y-10767974D02*
X7343229Y-10815593D01*
X7343229Y-10815593D02*
X7333705Y-10853689D01*
X7333705Y-10853689D02*
X7324182Y-10872736D01*
X7324182Y-10872736D02*
X7314658Y-10882260D01*
X7314658Y-10882260D02*
X7295610Y-10891784D01*
X7295610Y-10891784D02*
X7276562Y-10891784D01*
X7276562Y-10891784D02*
X7257515Y-10882260D01*
X7257515Y-10882260D02*
X7247991Y-10872736D01*
X7247991Y-10872736D02*
X7238467Y-10853689D01*
X7238467Y-10853689D02*
X7228943Y-10815593D01*
X7228943Y-10815593D02*
X7228943Y-10767974D01*
X7228943Y-10767974D02*
X7238467Y-10729879D01*
X7238467Y-10729879D02*
X7247991Y-10710831D01*
X7247991Y-10710831D02*
X7257515Y-10701308D01*
X7257515Y-10701308D02*
X7276562Y-10691784D01*
X7467039Y-10691784D02*
X7486086Y-10691784D01*
X7486086Y-10691784D02*
X7505134Y-10701308D01*
X7505134Y-10701308D02*
X7514658Y-10710831D01*
X7514658Y-10710831D02*
X7524182Y-10729879D01*
X7524182Y-10729879D02*
X7533705Y-10767974D01*
X7533705Y-10767974D02*
X7533705Y-10815593D01*
X7533705Y-10815593D02*
X7524182Y-10853689D01*
X7524182Y-10853689D02*
X7514658Y-10872736D01*
X7514658Y-10872736D02*
X7505134Y-10882260D01*
X7505134Y-10882260D02*
X7486086Y-10891784D01*
X7486086Y-10891784D02*
X7467039Y-10891784D01*
X7467039Y-10891784D02*
X7447991Y-10882260D01*
X7447991Y-10882260D02*
X7438467Y-10872736D01*
X7438467Y-10872736D02*
X7428943Y-10853689D01*
X7428943Y-10853689D02*
X7419420Y-10815593D01*
X7419420Y-10815593D02*
X7419420Y-10767974D01*
X7419420Y-10767974D02*
X7428943Y-10729879D01*
X7428943Y-10729879D02*
X7438467Y-10710831D01*
X7438467Y-10710831D02*
X7447991Y-10701308D01*
X7447991Y-10701308D02*
X7467039Y-10691784D01*
X7619420Y-10891784D02*
X7619420Y-10758450D01*
X7619420Y-10777498D02*
X7628943Y-10767974D01*
X7628943Y-10767974D02*
X7647991Y-10758450D01*
X7647991Y-10758450D02*
X7676563Y-10758450D01*
X7676563Y-10758450D02*
X7695610Y-10767974D01*
X7695610Y-10767974D02*
X7705134Y-10787022D01*
X7705134Y-10787022D02*
X7705134Y-10891784D01*
X7705134Y-10787022D02*
X7714658Y-10767974D01*
X7714658Y-10767974D02*
X7733705Y-10758450D01*
X7733705Y-10758450D02*
X7762277Y-10758450D01*
X7762277Y-10758450D02*
X7781324Y-10767974D01*
X7781324Y-10767974D02*
X7790848Y-10787022D01*
X7790848Y-10787022D02*
X7790848Y-10891784D01*
X7886086Y-10891784D02*
X7886086Y-10758450D01*
X7886086Y-10777498D02*
X7895610Y-10767974D01*
X7895610Y-10767974D02*
X7914658Y-10758450D01*
X7914658Y-10758450D02*
X7943229Y-10758450D01*
X7943229Y-10758450D02*
X7962277Y-10767974D01*
X7962277Y-10767974D02*
X7971801Y-10787022D01*
X7971801Y-10787022D02*
X7971801Y-10891784D01*
X7971801Y-10787022D02*
X7981324Y-10767974D01*
X7981324Y-10767974D02*
X8000372Y-10758450D01*
X8000372Y-10758450D02*
X8028943Y-10758450D01*
X8028943Y-10758450D02*
X8047991Y-10767974D01*
X8047991Y-10767974D02*
X8057515Y-10787022D01*
X8057515Y-10787022D02*
X8057515Y-10891784D01*
X8447991Y-10682260D02*
X8276563Y-10939403D01*
X8705134Y-10691784D02*
X8724182Y-10691784D01*
X8724182Y-10691784D02*
X8743229Y-10701308D01*
X8743229Y-10701308D02*
X8752753Y-10710831D01*
X8752753Y-10710831D02*
X8762277Y-10729879D01*
X8762277Y-10729879D02*
X8771801Y-10767974D01*
X8771801Y-10767974D02*
X8771801Y-10815593D01*
X8771801Y-10815593D02*
X8762277Y-10853689D01*
X8762277Y-10853689D02*
X8752753Y-10872736D01*
X8752753Y-10872736D02*
X8743229Y-10882260D01*
X8743229Y-10882260D02*
X8724182Y-10891784D01*
X8724182Y-10891784D02*
X8705134Y-10891784D01*
X8705134Y-10891784D02*
X8686087Y-10882260D01*
X8686087Y-10882260D02*
X8676563Y-10872736D01*
X8676563Y-10872736D02*
X8667039Y-10853689D01*
X8667039Y-10853689D02*
X8657515Y-10815593D01*
X8657515Y-10815593D02*
X8657515Y-10767974D01*
X8657515Y-10767974D02*
X8667039Y-10729879D01*
X8667039Y-10729879D02*
X8676563Y-10710831D01*
X8676563Y-10710831D02*
X8686087Y-10701308D01*
X8686087Y-10701308D02*
X8705134Y-10691784D01*
X8857515Y-10872736D02*
X8867039Y-10882260D01*
X8867039Y-10882260D02*
X8857515Y-10891784D01*
X8857515Y-10891784D02*
X8847991Y-10882260D01*
X8847991Y-10882260D02*
X8857515Y-10872736D01*
X8857515Y-10872736D02*
X8857515Y-10891784D01*
X8990848Y-10691784D02*
X9009896Y-10691784D01*
X9009896Y-10691784D02*
X9028944Y-10701308D01*
X9028944Y-10701308D02*
X9038468Y-10710831D01*
X9038468Y-10710831D02*
X9047991Y-10729879D01*
X9047991Y-10729879D02*
X9057515Y-10767974D01*
X9057515Y-10767974D02*
X9057515Y-10815593D01*
X9057515Y-10815593D02*
X9047991Y-10853689D01*
X9047991Y-10853689D02*
X9038468Y-10872736D01*
X9038468Y-10872736D02*
X9028944Y-10882260D01*
X9028944Y-10882260D02*
X9009896Y-10891784D01*
X9009896Y-10891784D02*
X8990848Y-10891784D01*
X8990848Y-10891784D02*
X8971801Y-10882260D01*
X8971801Y-10882260D02*
X8962277Y-10872736D01*
X8962277Y-10872736D02*
X8952753Y-10853689D01*
X8952753Y-10853689D02*
X8943229Y-10815593D01*
X8943229Y-10815593D02*
X8943229Y-10767974D01*
X8943229Y-10767974D02*
X8952753Y-10729879D01*
X8952753Y-10729879D02*
X8962277Y-10710831D01*
X8962277Y-10710831D02*
X8971801Y-10701308D01*
X8971801Y-10701308D02*
X8990848Y-10691784D01*
X9247991Y-10891784D02*
X9133706Y-10891784D01*
X9190848Y-10891784D02*
X9190848Y-10691784D01*
X9190848Y-10691784D02*
X9171801Y-10720355D01*
X9171801Y-10720355D02*
X9152753Y-10739403D01*
X9152753Y-10739403D02*
X9133706Y-10748927D01*
X9428944Y-10691784D02*
X9333706Y-10691784D01*
X9333706Y-10691784D02*
X9324182Y-10787022D01*
X9324182Y-10787022D02*
X9333706Y-10777498D01*
X9333706Y-10777498D02*
X9352753Y-10767974D01*
X9352753Y-10767974D02*
X9400372Y-10767974D01*
X9400372Y-10767974D02*
X9419420Y-10777498D01*
X9419420Y-10777498D02*
X9428944Y-10787022D01*
X9428944Y-10787022D02*
X9438468Y-10806070D01*
X9438468Y-10806070D02*
X9438468Y-10853689D01*
X9438468Y-10853689D02*
X9428944Y-10872736D01*
X9428944Y-10872736D02*
X9419420Y-10882260D01*
X9419420Y-10882260D02*
X9400372Y-10891784D01*
X9400372Y-10891784D02*
X9352753Y-10891784D01*
X9352753Y-10891784D02*
X9333706Y-10882260D01*
X9333706Y-10882260D02*
X9324182Y-10872736D01*
X9505134Y-10691784D02*
X9638468Y-10691784D01*
X9638468Y-10691784D02*
X9552753Y-10891784D01*
X9705134Y-10691784D02*
X9705134Y-10729879D01*
X9781325Y-10691784D02*
X9781325Y-10729879D01*
X10076563Y-10967974D02*
X10067039Y-10958450D01*
X10067039Y-10958450D02*
X10047991Y-10929879D01*
X10047991Y-10929879D02*
X10038468Y-10910831D01*
X10038468Y-10910831D02*
X10028944Y-10882260D01*
X10028944Y-10882260D02*
X10019420Y-10834641D01*
X10019420Y-10834641D02*
X10019420Y-10796546D01*
X10019420Y-10796546D02*
X10028944Y-10748927D01*
X10028944Y-10748927D02*
X10038468Y-10720355D01*
X10038468Y-10720355D02*
X10047991Y-10701308D01*
X10047991Y-10701308D02*
X10067039Y-10672736D01*
X10067039Y-10672736D02*
X10076563Y-10663212D01*
X10257515Y-10891784D02*
X10143230Y-10891784D01*
X10200372Y-10891784D02*
X10200372Y-10691784D01*
X10200372Y-10691784D02*
X10181325Y-10720355D01*
X10181325Y-10720355D02*
X10162277Y-10739403D01*
X10162277Y-10739403D02*
X10143230Y-10748927D01*
X10495611Y-10891784D02*
X10495611Y-10691784D01*
X10581325Y-10891784D02*
X10581325Y-10787022D01*
X10581325Y-10787022D02*
X10571801Y-10767974D01*
X10571801Y-10767974D02*
X10552753Y-10758450D01*
X10552753Y-10758450D02*
X10524182Y-10758450D01*
X10524182Y-10758450D02*
X10505134Y-10767974D01*
X10505134Y-10767974D02*
X10495611Y-10777498D01*
X10705134Y-10891784D02*
X10686087Y-10882260D01*
X10686087Y-10882260D02*
X10676563Y-10872736D01*
X10676563Y-10872736D02*
X10667039Y-10853689D01*
X10667039Y-10853689D02*
X10667039Y-10796546D01*
X10667039Y-10796546D02*
X10676563Y-10777498D01*
X10676563Y-10777498D02*
X10686087Y-10767974D01*
X10686087Y-10767974D02*
X10705134Y-10758450D01*
X10705134Y-10758450D02*
X10733706Y-10758450D01*
X10733706Y-10758450D02*
X10752753Y-10767974D01*
X10752753Y-10767974D02*
X10762277Y-10777498D01*
X10762277Y-10777498D02*
X10771801Y-10796546D01*
X10771801Y-10796546D02*
X10771801Y-10853689D01*
X10771801Y-10853689D02*
X10762277Y-10872736D01*
X10762277Y-10872736D02*
X10752753Y-10882260D01*
X10752753Y-10882260D02*
X10733706Y-10891784D01*
X10733706Y-10891784D02*
X10705134Y-10891784D01*
X10886087Y-10891784D02*
X10867039Y-10882260D01*
X10867039Y-10882260D02*
X10857515Y-10863212D01*
X10857515Y-10863212D02*
X10857515Y-10691784D01*
X11038468Y-10882260D02*
X11019420Y-10891784D01*
X11019420Y-10891784D02*
X10981325Y-10891784D01*
X10981325Y-10891784D02*
X10962277Y-10882260D01*
X10962277Y-10882260D02*
X10952753Y-10863212D01*
X10952753Y-10863212D02*
X10952753Y-10787022D01*
X10952753Y-10787022D02*
X10962277Y-10767974D01*
X10962277Y-10767974D02*
X10981325Y-10758450D01*
X10981325Y-10758450D02*
X11019420Y-10758450D01*
X11019420Y-10758450D02*
X11038468Y-10767974D01*
X11038468Y-10767974D02*
X11047992Y-10787022D01*
X11047992Y-10787022D02*
X11047992Y-10806070D01*
X11047992Y-10806070D02*
X10952753Y-10825117D01*
X11114658Y-10967974D02*
X11124182Y-10958450D01*
X11124182Y-10958450D02*
X11143230Y-10929879D01*
X11143230Y-10929879D02*
X11152753Y-10910831D01*
X11152753Y-10910831D02*
X11162277Y-10882260D01*
X11162277Y-10882260D02*
X11171801Y-10834641D01*
X11171801Y-10834641D02*
X11171801Y-10796546D01*
X11171801Y-10796546D02*
X11162277Y-10748927D01*
X11162277Y-10748927D02*
X11152753Y-10720355D01*
X11152753Y-10720355D02*
X11143230Y-10701308D01*
X11143230Y-10701308D02*
X11124182Y-10672736D01*
X11124182Y-10672736D02*
X11114658Y-10663212D01*
D13*
X6491085Y-11089445D02*
X6491085Y-11039155D01*
X6440795Y-11039155D01*
X6440795Y-11089445D01*
X6491085Y-11089445D01*
D12*
X6800372Y-10955784D02*
X6819420Y-10955784D01*
X6819420Y-10955784D02*
X6838467Y-10965308D01*
X6838467Y-10965308D02*
X6847991Y-10974831D01*
X6847991Y-10974831D02*
X6857515Y-10993879D01*
X6857515Y-10993879D02*
X6867039Y-11031974D01*
X6867039Y-11031974D02*
X6867039Y-11079593D01*
X6867039Y-11079593D02*
X6857515Y-11117689D01*
X6857515Y-11117689D02*
X6847991Y-11136736D01*
X6847991Y-11136736D02*
X6838467Y-11146260D01*
X6838467Y-11146260D02*
X6819420Y-11155784D01*
X6819420Y-11155784D02*
X6800372Y-11155784D01*
X6800372Y-11155784D02*
X6781324Y-11146260D01*
X6781324Y-11146260D02*
X6771801Y-11136736D01*
X6771801Y-11136736D02*
X6762277Y-11117689D01*
X6762277Y-11117689D02*
X6752753Y-11079593D01*
X6752753Y-11079593D02*
X6752753Y-11031974D01*
X6752753Y-11031974D02*
X6762277Y-10993879D01*
X6762277Y-10993879D02*
X6771801Y-10974831D01*
X6771801Y-10974831D02*
X6781324Y-10965308D01*
X6781324Y-10965308D02*
X6800372Y-10955784D01*
X6952753Y-11136736D02*
X6962277Y-11146260D01*
X6962277Y-11146260D02*
X6952753Y-11155784D01*
X6952753Y-11155784D02*
X6943229Y-11146260D01*
X6943229Y-11146260D02*
X6952753Y-11136736D01*
X6952753Y-11136736D02*
X6952753Y-11155784D01*
X7028943Y-10955784D02*
X7162277Y-10955784D01*
X7162277Y-10955784D02*
X7076562Y-11155784D01*
X7343229Y-11155784D02*
X7228943Y-11155784D01*
X7286086Y-11155784D02*
X7286086Y-10955784D01*
X7286086Y-10955784D02*
X7267039Y-10984355D01*
X7267039Y-10984355D02*
X7247991Y-11003403D01*
X7247991Y-11003403D02*
X7228943Y-11012927D01*
X7533705Y-11155784D02*
X7419420Y-11155784D01*
X7476562Y-11155784D02*
X7476562Y-10955784D01*
X7476562Y-10955784D02*
X7457515Y-10984355D01*
X7457515Y-10984355D02*
X7438467Y-11003403D01*
X7438467Y-11003403D02*
X7419420Y-11012927D01*
X7619420Y-11155784D02*
X7619420Y-11022450D01*
X7619420Y-11041498D02*
X7628943Y-11031974D01*
X7628943Y-11031974D02*
X7647991Y-11022450D01*
X7647991Y-11022450D02*
X7676563Y-11022450D01*
X7676563Y-11022450D02*
X7695610Y-11031974D01*
X7695610Y-11031974D02*
X7705134Y-11051022D01*
X7705134Y-11051022D02*
X7705134Y-11155784D01*
X7705134Y-11051022D02*
X7714658Y-11031974D01*
X7714658Y-11031974D02*
X7733705Y-11022450D01*
X7733705Y-11022450D02*
X7762277Y-11022450D01*
X7762277Y-11022450D02*
X7781324Y-11031974D01*
X7781324Y-11031974D02*
X7790848Y-11051022D01*
X7790848Y-11051022D02*
X7790848Y-11155784D01*
X7886086Y-11155784D02*
X7886086Y-11022450D01*
X7886086Y-11041498D02*
X7895610Y-11031974D01*
X7895610Y-11031974D02*
X7914658Y-11022450D01*
X7914658Y-11022450D02*
X7943229Y-11022450D01*
X7943229Y-11022450D02*
X7962277Y-11031974D01*
X7962277Y-11031974D02*
X7971801Y-11051022D01*
X7971801Y-11051022D02*
X7971801Y-11155784D01*
X7971801Y-11051022D02*
X7981324Y-11031974D01*
X7981324Y-11031974D02*
X8000372Y-11022450D01*
X8000372Y-11022450D02*
X8028943Y-11022450D01*
X8028943Y-11022450D02*
X8047991Y-11031974D01*
X8047991Y-11031974D02*
X8057515Y-11051022D01*
X8057515Y-11051022D02*
X8057515Y-11155784D01*
X8447991Y-10946260D02*
X8276563Y-11203403D01*
X8705134Y-10955784D02*
X8724182Y-10955784D01*
X8724182Y-10955784D02*
X8743229Y-10965308D01*
X8743229Y-10965308D02*
X8752753Y-10974831D01*
X8752753Y-10974831D02*
X8762277Y-10993879D01*
X8762277Y-10993879D02*
X8771801Y-11031974D01*
X8771801Y-11031974D02*
X8771801Y-11079593D01*
X8771801Y-11079593D02*
X8762277Y-11117689D01*
X8762277Y-11117689D02*
X8752753Y-11136736D01*
X8752753Y-11136736D02*
X8743229Y-11146260D01*
X8743229Y-11146260D02*
X8724182Y-11155784D01*
X8724182Y-11155784D02*
X8705134Y-11155784D01*
X8705134Y-11155784D02*
X8686087Y-11146260D01*
X8686087Y-11146260D02*
X8676563Y-11136736D01*
X8676563Y-11136736D02*
X8667039Y-11117689D01*
X8667039Y-11117689D02*
X8657515Y-11079593D01*
X8657515Y-11079593D02*
X8657515Y-11031974D01*
X8657515Y-11031974D02*
X8667039Y-10993879D01*
X8667039Y-10993879D02*
X8676563Y-10974831D01*
X8676563Y-10974831D02*
X8686087Y-10965308D01*
X8686087Y-10965308D02*
X8705134Y-10955784D01*
X8857515Y-11136736D02*
X8867039Y-11146260D01*
X8867039Y-11146260D02*
X8857515Y-11155784D01*
X8857515Y-11155784D02*
X8847991Y-11146260D01*
X8847991Y-11146260D02*
X8857515Y-11136736D01*
X8857515Y-11136736D02*
X8857515Y-11155784D01*
X8990848Y-10955784D02*
X9009896Y-10955784D01*
X9009896Y-10955784D02*
X9028944Y-10965308D01*
X9028944Y-10965308D02*
X9038468Y-10974831D01*
X9038468Y-10974831D02*
X9047991Y-10993879D01*
X9047991Y-10993879D02*
X9057515Y-11031974D01*
X9057515Y-11031974D02*
X9057515Y-11079593D01*
X9057515Y-11079593D02*
X9047991Y-11117689D01*
X9047991Y-11117689D02*
X9038468Y-11136736D01*
X9038468Y-11136736D02*
X9028944Y-11146260D01*
X9028944Y-11146260D02*
X9009896Y-11155784D01*
X9009896Y-11155784D02*
X8990848Y-11155784D01*
X8990848Y-11155784D02*
X8971801Y-11146260D01*
X8971801Y-11146260D02*
X8962277Y-11136736D01*
X8962277Y-11136736D02*
X8952753Y-11117689D01*
X8952753Y-11117689D02*
X8943229Y-11079593D01*
X8943229Y-11079593D02*
X8943229Y-11031974D01*
X8943229Y-11031974D02*
X8952753Y-10993879D01*
X8952753Y-10993879D02*
X8962277Y-10974831D01*
X8962277Y-10974831D02*
X8971801Y-10965308D01*
X8971801Y-10965308D02*
X8990848Y-10955784D01*
X9133706Y-10974831D02*
X9143229Y-10965308D01*
X9143229Y-10965308D02*
X9162277Y-10955784D01*
X9162277Y-10955784D02*
X9209896Y-10955784D01*
X9209896Y-10955784D02*
X9228944Y-10965308D01*
X9228944Y-10965308D02*
X9238468Y-10974831D01*
X9238468Y-10974831D02*
X9247991Y-10993879D01*
X9247991Y-10993879D02*
X9247991Y-11012927D01*
X9247991Y-11012927D02*
X9238468Y-11041498D01*
X9238468Y-11041498D02*
X9124182Y-11155784D01*
X9124182Y-11155784D02*
X9247991Y-11155784D01*
X9362277Y-11041498D02*
X9343229Y-11031974D01*
X9343229Y-11031974D02*
X9333706Y-11022450D01*
X9333706Y-11022450D02*
X9324182Y-11003403D01*
X9324182Y-11003403D02*
X9324182Y-10993879D01*
X9324182Y-10993879D02*
X9333706Y-10974831D01*
X9333706Y-10974831D02*
X9343229Y-10965308D01*
X9343229Y-10965308D02*
X9362277Y-10955784D01*
X9362277Y-10955784D02*
X9400372Y-10955784D01*
X9400372Y-10955784D02*
X9419420Y-10965308D01*
X9419420Y-10965308D02*
X9428944Y-10974831D01*
X9428944Y-10974831D02*
X9438468Y-10993879D01*
X9438468Y-10993879D02*
X9438468Y-11003403D01*
X9438468Y-11003403D02*
X9428944Y-11022450D01*
X9428944Y-11022450D02*
X9419420Y-11031974D01*
X9419420Y-11031974D02*
X9400372Y-11041498D01*
X9400372Y-11041498D02*
X9362277Y-11041498D01*
X9362277Y-11041498D02*
X9343229Y-11051022D01*
X9343229Y-11051022D02*
X9333706Y-11060546D01*
X9333706Y-11060546D02*
X9324182Y-11079593D01*
X9324182Y-11079593D02*
X9324182Y-11117689D01*
X9324182Y-11117689D02*
X9333706Y-11136736D01*
X9333706Y-11136736D02*
X9343229Y-11146260D01*
X9343229Y-11146260D02*
X9362277Y-11155784D01*
X9362277Y-11155784D02*
X9400372Y-11155784D01*
X9400372Y-11155784D02*
X9419420Y-11146260D01*
X9419420Y-11146260D02*
X9428944Y-11136736D01*
X9428944Y-11136736D02*
X9438468Y-11117689D01*
X9438468Y-11117689D02*
X9438468Y-11079593D01*
X9438468Y-11079593D02*
X9428944Y-11060546D01*
X9428944Y-11060546D02*
X9419420Y-11051022D01*
X9419420Y-11051022D02*
X9400372Y-11041498D01*
X9562277Y-10955784D02*
X9581325Y-10955784D01*
X9581325Y-10955784D02*
X9600372Y-10965308D01*
X9600372Y-10965308D02*
X9609896Y-10974831D01*
X9609896Y-10974831D02*
X9619420Y-10993879D01*
X9619420Y-10993879D02*
X9628944Y-11031974D01*
X9628944Y-11031974D02*
X9628944Y-11079593D01*
X9628944Y-11079593D02*
X9619420Y-11117689D01*
X9619420Y-11117689D02*
X9609896Y-11136736D01*
X9609896Y-11136736D02*
X9600372Y-11146260D01*
X9600372Y-11146260D02*
X9581325Y-11155784D01*
X9581325Y-11155784D02*
X9562277Y-11155784D01*
X9562277Y-11155784D02*
X9543229Y-11146260D01*
X9543229Y-11146260D02*
X9533706Y-11136736D01*
X9533706Y-11136736D02*
X9524182Y-11117689D01*
X9524182Y-11117689D02*
X9514658Y-11079593D01*
X9514658Y-11079593D02*
X9514658Y-11031974D01*
X9514658Y-11031974D02*
X9524182Y-10993879D01*
X9524182Y-10993879D02*
X9533706Y-10974831D01*
X9533706Y-10974831D02*
X9543229Y-10965308D01*
X9543229Y-10965308D02*
X9562277Y-10955784D01*
X9705134Y-10955784D02*
X9705134Y-10993879D01*
X9781325Y-10955784D02*
X9781325Y-10993879D01*
X10076563Y-11231974D02*
X10067039Y-11222450D01*
X10067039Y-11222450D02*
X10047991Y-11193879D01*
X10047991Y-11193879D02*
X10038468Y-11174831D01*
X10038468Y-11174831D02*
X10028944Y-11146260D01*
X10028944Y-11146260D02*
X10019420Y-11098641D01*
X10019420Y-11098641D02*
X10019420Y-11060546D01*
X10019420Y-11060546D02*
X10028944Y-11012927D01*
X10028944Y-11012927D02*
X10038468Y-10984355D01*
X10038468Y-10984355D02*
X10047991Y-10965308D01*
X10047991Y-10965308D02*
X10067039Y-10936736D01*
X10067039Y-10936736D02*
X10076563Y-10927212D01*
X10257515Y-11155784D02*
X10143230Y-11155784D01*
X10200372Y-11155784D02*
X10200372Y-10955784D01*
X10200372Y-10955784D02*
X10181325Y-10984355D01*
X10181325Y-10984355D02*
X10162277Y-11003403D01*
X10162277Y-11003403D02*
X10143230Y-11012927D01*
X10428944Y-10955784D02*
X10390849Y-10955784D01*
X10390849Y-10955784D02*
X10371801Y-10965308D01*
X10371801Y-10965308D02*
X10362277Y-10974831D01*
X10362277Y-10974831D02*
X10343230Y-11003403D01*
X10343230Y-11003403D02*
X10333706Y-11041498D01*
X10333706Y-11041498D02*
X10333706Y-11117689D01*
X10333706Y-11117689D02*
X10343230Y-11136736D01*
X10343230Y-11136736D02*
X10352753Y-11146260D01*
X10352753Y-11146260D02*
X10371801Y-11155784D01*
X10371801Y-11155784D02*
X10409896Y-11155784D01*
X10409896Y-11155784D02*
X10428944Y-11146260D01*
X10428944Y-11146260D02*
X10438468Y-11136736D01*
X10438468Y-11136736D02*
X10447991Y-11117689D01*
X10447991Y-11117689D02*
X10447991Y-11070070D01*
X10447991Y-11070070D02*
X10438468Y-11051022D01*
X10438468Y-11051022D02*
X10428944Y-11041498D01*
X10428944Y-11041498D02*
X10409896Y-11031974D01*
X10409896Y-11031974D02*
X10371801Y-11031974D01*
X10371801Y-11031974D02*
X10352753Y-11041498D01*
X10352753Y-11041498D02*
X10343230Y-11051022D01*
X10343230Y-11051022D02*
X10333706Y-11070070D01*
X10686087Y-11155784D02*
X10686087Y-10955784D01*
X10771801Y-11155784D02*
X10771801Y-11051022D01*
X10771801Y-11051022D02*
X10762277Y-11031974D01*
X10762277Y-11031974D02*
X10743230Y-11022450D01*
X10743230Y-11022450D02*
X10714658Y-11022450D01*
X10714658Y-11022450D02*
X10695611Y-11031974D01*
X10695611Y-11031974D02*
X10686087Y-11041498D01*
X10895611Y-11155784D02*
X10876563Y-11146260D01*
X10876563Y-11146260D02*
X10867039Y-11136736D01*
X10867039Y-11136736D02*
X10857515Y-11117689D01*
X10857515Y-11117689D02*
X10857515Y-11060546D01*
X10857515Y-11060546D02*
X10867039Y-11041498D01*
X10867039Y-11041498D02*
X10876563Y-11031974D01*
X10876563Y-11031974D02*
X10895611Y-11022450D01*
X10895611Y-11022450D02*
X10924182Y-11022450D01*
X10924182Y-11022450D02*
X10943230Y-11031974D01*
X10943230Y-11031974D02*
X10952753Y-11041498D01*
X10952753Y-11041498D02*
X10962277Y-11060546D01*
X10962277Y-11060546D02*
X10962277Y-11117689D01*
X10962277Y-11117689D02*
X10952753Y-11136736D01*
X10952753Y-11136736D02*
X10943230Y-11146260D01*
X10943230Y-11146260D02*
X10924182Y-11155784D01*
X10924182Y-11155784D02*
X10895611Y-11155784D01*
X11076563Y-11155784D02*
X11057515Y-11146260D01*
X11057515Y-11146260D02*
X11047992Y-11127212D01*
X11047992Y-11127212D02*
X11047992Y-10955784D01*
X11228944Y-11146260D02*
X11209896Y-11155784D01*
X11209896Y-11155784D02*
X11171801Y-11155784D01*
X11171801Y-11155784D02*
X11152753Y-11146260D01*
X11152753Y-11146260D02*
X11143230Y-11127212D01*
X11143230Y-11127212D02*
X11143230Y-11051022D01*
X11143230Y-11051022D02*
X11152753Y-11031974D01*
X11152753Y-11031974D02*
X11171801Y-11022450D01*
X11171801Y-11022450D02*
X11209896Y-11022450D01*
X11209896Y-11022450D02*
X11228944Y-11031974D01*
X11228944Y-11031974D02*
X11238468Y-11051022D01*
X11238468Y-11051022D02*
X11238468Y-11070070D01*
X11238468Y-11070070D02*
X11143230Y-11089117D01*
X11314658Y-11146260D02*
X11333706Y-11155784D01*
X11333706Y-11155784D02*
X11371801Y-11155784D01*
X11371801Y-11155784D02*
X11390849Y-11146260D01*
X11390849Y-11146260D02*
X11400372Y-11127212D01*
X11400372Y-11127212D02*
X11400372Y-11117689D01*
X11400372Y-11117689D02*
X11390849Y-11098641D01*
X11390849Y-11098641D02*
X11371801Y-11089117D01*
X11371801Y-11089117D02*
X11343230Y-11089117D01*
X11343230Y-11089117D02*
X11324182Y-11079593D01*
X11324182Y-11079593D02*
X11314658Y-11060546D01*
X11314658Y-11060546D02*
X11314658Y-11051022D01*
X11314658Y-11051022D02*
X11324182Y-11031974D01*
X11324182Y-11031974D02*
X11343230Y-11022450D01*
X11343230Y-11022450D02*
X11371801Y-11022450D01*
X11371801Y-11022450D02*
X11390849Y-11031974D01*
X11467039Y-11231974D02*
X11476563Y-11222450D01*
X11476563Y-11222450D02*
X11495611Y-11193879D01*
X11495611Y-11193879D02*
X11505134Y-11174831D01*
X11505134Y-11174831D02*
X11514658Y-11146260D01*
X11514658Y-11146260D02*
X11524182Y-11098641D01*
X11524182Y-11098641D02*
X11524182Y-11060546D01*
X11524182Y-11060546D02*
X11514658Y-11012927D01*
X11514658Y-11012927D02*
X11505134Y-10984355D01*
X11505134Y-10984355D02*
X11495611Y-10965308D01*
X11495611Y-10965308D02*
X11476563Y-10936736D01*
X11476563Y-10936736D02*
X11467039Y-10927212D01*
D13*
X6459590Y-11370210D02*
X6501500Y-11328300D01*
X6459590Y-11286390D01*
X6417680Y-11328300D01*
X6459590Y-11370210D01*
D12*
X6800372Y-11219784D02*
X6819420Y-11219784D01*
X6819420Y-11219784D02*
X6838467Y-11229308D01*
X6838467Y-11229308D02*
X6847991Y-11238831D01*
X6847991Y-11238831D02*
X6857515Y-11257879D01*
X6857515Y-11257879D02*
X6867039Y-11295974D01*
X6867039Y-11295974D02*
X6867039Y-11343593D01*
X6867039Y-11343593D02*
X6857515Y-11381688D01*
X6857515Y-11381688D02*
X6847991Y-11400736D01*
X6847991Y-11400736D02*
X6838467Y-11410260D01*
X6838467Y-11410260D02*
X6819420Y-11419784D01*
X6819420Y-11419784D02*
X6800372Y-11419784D01*
X6800372Y-11419784D02*
X6781324Y-11410260D01*
X6781324Y-11410260D02*
X6771801Y-11400736D01*
X6771801Y-11400736D02*
X6762277Y-11381688D01*
X6762277Y-11381688D02*
X6752753Y-11343593D01*
X6752753Y-11343593D02*
X6752753Y-11295974D01*
X6752753Y-11295974D02*
X6762277Y-11257879D01*
X6762277Y-11257879D02*
X6771801Y-11238831D01*
X6771801Y-11238831D02*
X6781324Y-11229308D01*
X6781324Y-11229308D02*
X6800372Y-11219784D01*
X6952753Y-11400736D02*
X6962277Y-11410260D01*
X6962277Y-11410260D02*
X6952753Y-11419784D01*
X6952753Y-11419784D02*
X6943229Y-11410260D01*
X6943229Y-11410260D02*
X6952753Y-11400736D01*
X6952753Y-11400736D02*
X6952753Y-11419784D01*
X7076562Y-11305498D02*
X7057515Y-11295974D01*
X7057515Y-11295974D02*
X7047991Y-11286450D01*
X7047991Y-11286450D02*
X7038467Y-11267403D01*
X7038467Y-11267403D02*
X7038467Y-11257879D01*
X7038467Y-11257879D02*
X7047991Y-11238831D01*
X7047991Y-11238831D02*
X7057515Y-11229308D01*
X7057515Y-11229308D02*
X7076562Y-11219784D01*
X7076562Y-11219784D02*
X7114658Y-11219784D01*
X7114658Y-11219784D02*
X7133705Y-11229308D01*
X7133705Y-11229308D02*
X7143229Y-11238831D01*
X7143229Y-11238831D02*
X7152753Y-11257879D01*
X7152753Y-11257879D02*
X7152753Y-11267403D01*
X7152753Y-11267403D02*
X7143229Y-11286450D01*
X7143229Y-11286450D02*
X7133705Y-11295974D01*
X7133705Y-11295974D02*
X7114658Y-11305498D01*
X7114658Y-11305498D02*
X7076562Y-11305498D01*
X7076562Y-11305498D02*
X7057515Y-11315022D01*
X7057515Y-11315022D02*
X7047991Y-11324546D01*
X7047991Y-11324546D02*
X7038467Y-11343593D01*
X7038467Y-11343593D02*
X7038467Y-11381688D01*
X7038467Y-11381688D02*
X7047991Y-11400736D01*
X7047991Y-11400736D02*
X7057515Y-11410260D01*
X7057515Y-11410260D02*
X7076562Y-11419784D01*
X7076562Y-11419784D02*
X7114658Y-11419784D01*
X7114658Y-11419784D02*
X7133705Y-11410260D01*
X7133705Y-11410260D02*
X7143229Y-11400736D01*
X7143229Y-11400736D02*
X7152753Y-11381688D01*
X7152753Y-11381688D02*
X7152753Y-11343593D01*
X7152753Y-11343593D02*
X7143229Y-11324546D01*
X7143229Y-11324546D02*
X7133705Y-11315022D01*
X7133705Y-11315022D02*
X7114658Y-11305498D01*
X7219420Y-11219784D02*
X7343229Y-11219784D01*
X7343229Y-11219784D02*
X7276562Y-11295974D01*
X7276562Y-11295974D02*
X7305134Y-11295974D01*
X7305134Y-11295974D02*
X7324182Y-11305498D01*
X7324182Y-11305498D02*
X7333705Y-11315022D01*
X7333705Y-11315022D02*
X7343229Y-11334069D01*
X7343229Y-11334069D02*
X7343229Y-11381688D01*
X7343229Y-11381688D02*
X7333705Y-11400736D01*
X7333705Y-11400736D02*
X7324182Y-11410260D01*
X7324182Y-11410260D02*
X7305134Y-11419784D01*
X7305134Y-11419784D02*
X7247991Y-11419784D01*
X7247991Y-11419784D02*
X7228943Y-11410260D01*
X7228943Y-11410260D02*
X7219420Y-11400736D01*
X7457515Y-11305498D02*
X7438467Y-11295974D01*
X7438467Y-11295974D02*
X7428943Y-11286450D01*
X7428943Y-11286450D02*
X7419420Y-11267403D01*
X7419420Y-11267403D02*
X7419420Y-11257879D01*
X7419420Y-11257879D02*
X7428943Y-11238831D01*
X7428943Y-11238831D02*
X7438467Y-11229308D01*
X7438467Y-11229308D02*
X7457515Y-11219784D01*
X7457515Y-11219784D02*
X7495610Y-11219784D01*
X7495610Y-11219784D02*
X7514658Y-11229308D01*
X7514658Y-11229308D02*
X7524182Y-11238831D01*
X7524182Y-11238831D02*
X7533705Y-11257879D01*
X7533705Y-11257879D02*
X7533705Y-11267403D01*
X7533705Y-11267403D02*
X7524182Y-11286450D01*
X7524182Y-11286450D02*
X7514658Y-11295974D01*
X7514658Y-11295974D02*
X7495610Y-11305498D01*
X7495610Y-11305498D02*
X7457515Y-11305498D01*
X7457515Y-11305498D02*
X7438467Y-11315022D01*
X7438467Y-11315022D02*
X7428943Y-11324546D01*
X7428943Y-11324546D02*
X7419420Y-11343593D01*
X7419420Y-11343593D02*
X7419420Y-11381688D01*
X7419420Y-11381688D02*
X7428943Y-11400736D01*
X7428943Y-11400736D02*
X7438467Y-11410260D01*
X7438467Y-11410260D02*
X7457515Y-11419784D01*
X7457515Y-11419784D02*
X7495610Y-11419784D01*
X7495610Y-11419784D02*
X7514658Y-11410260D01*
X7514658Y-11410260D02*
X7524182Y-11400736D01*
X7524182Y-11400736D02*
X7533705Y-11381688D01*
X7533705Y-11381688D02*
X7533705Y-11343593D01*
X7533705Y-11343593D02*
X7524182Y-11324546D01*
X7524182Y-11324546D02*
X7514658Y-11315022D01*
X7514658Y-11315022D02*
X7495610Y-11305498D01*
X7619420Y-11419784D02*
X7619420Y-11286450D01*
X7619420Y-11305498D02*
X7628943Y-11295974D01*
X7628943Y-11295974D02*
X7647991Y-11286450D01*
X7647991Y-11286450D02*
X7676563Y-11286450D01*
X7676563Y-11286450D02*
X7695610Y-11295974D01*
X7695610Y-11295974D02*
X7705134Y-11315022D01*
X7705134Y-11315022D02*
X7705134Y-11419784D01*
X7705134Y-11315022D02*
X7714658Y-11295974D01*
X7714658Y-11295974D02*
X7733705Y-11286450D01*
X7733705Y-11286450D02*
X7762277Y-11286450D01*
X7762277Y-11286450D02*
X7781324Y-11295974D01*
X7781324Y-11295974D02*
X7790848Y-11315022D01*
X7790848Y-11315022D02*
X7790848Y-11419784D01*
X7886086Y-11419784D02*
X7886086Y-11286450D01*
X7886086Y-11305498D02*
X7895610Y-11295974D01*
X7895610Y-11295974D02*
X7914658Y-11286450D01*
X7914658Y-11286450D02*
X7943229Y-11286450D01*
X7943229Y-11286450D02*
X7962277Y-11295974D01*
X7962277Y-11295974D02*
X7971801Y-11315022D01*
X7971801Y-11315022D02*
X7971801Y-11419784D01*
X7971801Y-11315022D02*
X7981324Y-11295974D01*
X7981324Y-11295974D02*
X8000372Y-11286450D01*
X8000372Y-11286450D02*
X8028943Y-11286450D01*
X8028943Y-11286450D02*
X8047991Y-11295974D01*
X8047991Y-11295974D02*
X8057515Y-11315022D01*
X8057515Y-11315022D02*
X8057515Y-11419784D01*
X8447991Y-11210260D02*
X8276563Y-11467403D01*
X8705134Y-11219784D02*
X8724182Y-11219784D01*
X8724182Y-11219784D02*
X8743229Y-11229308D01*
X8743229Y-11229308D02*
X8752753Y-11238831D01*
X8752753Y-11238831D02*
X8762277Y-11257879D01*
X8762277Y-11257879D02*
X8771801Y-11295974D01*
X8771801Y-11295974D02*
X8771801Y-11343593D01*
X8771801Y-11343593D02*
X8762277Y-11381688D01*
X8762277Y-11381688D02*
X8752753Y-11400736D01*
X8752753Y-11400736D02*
X8743229Y-11410260D01*
X8743229Y-11410260D02*
X8724182Y-11419784D01*
X8724182Y-11419784D02*
X8705134Y-11419784D01*
X8705134Y-11419784D02*
X8686087Y-11410260D01*
X8686087Y-11410260D02*
X8676563Y-11400736D01*
X8676563Y-11400736D02*
X8667039Y-11381688D01*
X8667039Y-11381688D02*
X8657515Y-11343593D01*
X8657515Y-11343593D02*
X8657515Y-11295974D01*
X8657515Y-11295974D02*
X8667039Y-11257879D01*
X8667039Y-11257879D02*
X8676563Y-11238831D01*
X8676563Y-11238831D02*
X8686087Y-11229308D01*
X8686087Y-11229308D02*
X8705134Y-11219784D01*
X8857515Y-11400736D02*
X8867039Y-11410260D01*
X8867039Y-11410260D02*
X8857515Y-11419784D01*
X8857515Y-11419784D02*
X8847991Y-11410260D01*
X8847991Y-11410260D02*
X8857515Y-11400736D01*
X8857515Y-11400736D02*
X8857515Y-11419784D01*
X8990848Y-11219784D02*
X9009896Y-11219784D01*
X9009896Y-11219784D02*
X9028944Y-11229308D01*
X9028944Y-11229308D02*
X9038468Y-11238831D01*
X9038468Y-11238831D02*
X9047991Y-11257879D01*
X9047991Y-11257879D02*
X9057515Y-11295974D01*
X9057515Y-11295974D02*
X9057515Y-11343593D01*
X9057515Y-11343593D02*
X9047991Y-11381688D01*
X9047991Y-11381688D02*
X9038468Y-11400736D01*
X9038468Y-11400736D02*
X9028944Y-11410260D01*
X9028944Y-11410260D02*
X9009896Y-11419784D01*
X9009896Y-11419784D02*
X8990848Y-11419784D01*
X8990848Y-11419784D02*
X8971801Y-11410260D01*
X8971801Y-11410260D02*
X8962277Y-11400736D01*
X8962277Y-11400736D02*
X8952753Y-11381688D01*
X8952753Y-11381688D02*
X8943229Y-11343593D01*
X8943229Y-11343593D02*
X8943229Y-11295974D01*
X8943229Y-11295974D02*
X8952753Y-11257879D01*
X8952753Y-11257879D02*
X8962277Y-11238831D01*
X8962277Y-11238831D02*
X8971801Y-11229308D01*
X8971801Y-11229308D02*
X8990848Y-11219784D01*
X9124182Y-11219784D02*
X9247991Y-11219784D01*
X9247991Y-11219784D02*
X9181325Y-11295974D01*
X9181325Y-11295974D02*
X9209896Y-11295974D01*
X9209896Y-11295974D02*
X9228944Y-11305498D01*
X9228944Y-11305498D02*
X9238468Y-11315022D01*
X9238468Y-11315022D02*
X9247991Y-11334069D01*
X9247991Y-11334069D02*
X9247991Y-11381688D01*
X9247991Y-11381688D02*
X9238468Y-11400736D01*
X9238468Y-11400736D02*
X9228944Y-11410260D01*
X9228944Y-11410260D02*
X9209896Y-11419784D01*
X9209896Y-11419784D02*
X9152753Y-11419784D01*
X9152753Y-11419784D02*
X9133706Y-11410260D01*
X9133706Y-11410260D02*
X9124182Y-11400736D01*
X9314658Y-11219784D02*
X9438468Y-11219784D01*
X9438468Y-11219784D02*
X9371801Y-11295974D01*
X9371801Y-11295974D02*
X9400372Y-11295974D01*
X9400372Y-11295974D02*
X9419420Y-11305498D01*
X9419420Y-11305498D02*
X9428944Y-11315022D01*
X9428944Y-11315022D02*
X9438468Y-11334069D01*
X9438468Y-11334069D02*
X9438468Y-11381688D01*
X9438468Y-11381688D02*
X9428944Y-11400736D01*
X9428944Y-11400736D02*
X9419420Y-11410260D01*
X9419420Y-11410260D02*
X9400372Y-11419784D01*
X9400372Y-11419784D02*
X9343229Y-11419784D01*
X9343229Y-11419784D02*
X9324182Y-11410260D01*
X9324182Y-11410260D02*
X9314658Y-11400736D01*
X9562277Y-11219784D02*
X9581325Y-11219784D01*
X9581325Y-11219784D02*
X9600372Y-11229308D01*
X9600372Y-11229308D02*
X9609896Y-11238831D01*
X9609896Y-11238831D02*
X9619420Y-11257879D01*
X9619420Y-11257879D02*
X9628944Y-11295974D01*
X9628944Y-11295974D02*
X9628944Y-11343593D01*
X9628944Y-11343593D02*
X9619420Y-11381688D01*
X9619420Y-11381688D02*
X9609896Y-11400736D01*
X9609896Y-11400736D02*
X9600372Y-11410260D01*
X9600372Y-11410260D02*
X9581325Y-11419784D01*
X9581325Y-11419784D02*
X9562277Y-11419784D01*
X9562277Y-11419784D02*
X9543229Y-11410260D01*
X9543229Y-11410260D02*
X9533706Y-11400736D01*
X9533706Y-11400736D02*
X9524182Y-11381688D01*
X9524182Y-11381688D02*
X9514658Y-11343593D01*
X9514658Y-11343593D02*
X9514658Y-11295974D01*
X9514658Y-11295974D02*
X9524182Y-11257879D01*
X9524182Y-11257879D02*
X9533706Y-11238831D01*
X9533706Y-11238831D02*
X9543229Y-11229308D01*
X9543229Y-11229308D02*
X9562277Y-11219784D01*
X9705134Y-11219784D02*
X9705134Y-11257879D01*
X9781325Y-11219784D02*
X9781325Y-11257879D01*
X10076563Y-11495974D02*
X10067039Y-11486450D01*
X10067039Y-11486450D02*
X10047991Y-11457879D01*
X10047991Y-11457879D02*
X10038468Y-11438831D01*
X10038468Y-11438831D02*
X10028944Y-11410260D01*
X10028944Y-11410260D02*
X10019420Y-11362641D01*
X10019420Y-11362641D02*
X10019420Y-11324546D01*
X10019420Y-11324546D02*
X10028944Y-11276927D01*
X10028944Y-11276927D02*
X10038468Y-11248355D01*
X10038468Y-11248355D02*
X10047991Y-11229308D01*
X10047991Y-11229308D02*
X10067039Y-11200736D01*
X10067039Y-11200736D02*
X10076563Y-11191212D01*
X10143230Y-11238831D02*
X10152753Y-11229308D01*
X10152753Y-11229308D02*
X10171801Y-11219784D01*
X10171801Y-11219784D02*
X10219420Y-11219784D01*
X10219420Y-11219784D02*
X10238468Y-11229308D01*
X10238468Y-11229308D02*
X10247991Y-11238831D01*
X10247991Y-11238831D02*
X10257515Y-11257879D01*
X10257515Y-11257879D02*
X10257515Y-11276927D01*
X10257515Y-11276927D02*
X10247991Y-11305498D01*
X10247991Y-11305498D02*
X10133706Y-11419784D01*
X10133706Y-11419784D02*
X10257515Y-11419784D01*
X10428944Y-11286450D02*
X10428944Y-11419784D01*
X10381325Y-11210260D02*
X10333706Y-11353117D01*
X10333706Y-11353117D02*
X10457515Y-11353117D01*
X10686087Y-11419784D02*
X10686087Y-11219784D01*
X10771801Y-11419784D02*
X10771801Y-11315022D01*
X10771801Y-11315022D02*
X10762277Y-11295974D01*
X10762277Y-11295974D02*
X10743230Y-11286450D01*
X10743230Y-11286450D02*
X10714658Y-11286450D01*
X10714658Y-11286450D02*
X10695611Y-11295974D01*
X10695611Y-11295974D02*
X10686087Y-11305498D01*
X10895611Y-11419784D02*
X10876563Y-11410260D01*
X10876563Y-11410260D02*
X10867039Y-11400736D01*
X10867039Y-11400736D02*
X10857515Y-11381688D01*
X10857515Y-11381688D02*
X10857515Y-11324546D01*
X10857515Y-11324546D02*
X10867039Y-11305498D01*
X10867039Y-11305498D02*
X10876563Y-11295974D01*
X10876563Y-11295974D02*
X10895611Y-11286450D01*
X10895611Y-11286450D02*
X10924182Y-11286450D01*
X10924182Y-11286450D02*
X10943230Y-11295974D01*
X10943230Y-11295974D02*
X10952753Y-11305498D01*
X10952753Y-11305498D02*
X10962277Y-11324546D01*
X10962277Y-11324546D02*
X10962277Y-11381688D01*
X10962277Y-11381688D02*
X10952753Y-11400736D01*
X10952753Y-11400736D02*
X10943230Y-11410260D01*
X10943230Y-11410260D02*
X10924182Y-11419784D01*
X10924182Y-11419784D02*
X10895611Y-11419784D01*
X11076563Y-11419784D02*
X11057515Y-11410260D01*
X11057515Y-11410260D02*
X11047992Y-11391212D01*
X11047992Y-11391212D02*
X11047992Y-11219784D01*
X11228944Y-11410260D02*
X11209896Y-11419784D01*
X11209896Y-11419784D02*
X11171801Y-11419784D01*
X11171801Y-11419784D02*
X11152753Y-11410260D01*
X11152753Y-11410260D02*
X11143230Y-11391212D01*
X11143230Y-11391212D02*
X11143230Y-11315022D01*
X11143230Y-11315022D02*
X11152753Y-11295974D01*
X11152753Y-11295974D02*
X11171801Y-11286450D01*
X11171801Y-11286450D02*
X11209896Y-11286450D01*
X11209896Y-11286450D02*
X11228944Y-11295974D01*
X11228944Y-11295974D02*
X11238468Y-11315022D01*
X11238468Y-11315022D02*
X11238468Y-11334069D01*
X11238468Y-11334069D02*
X11143230Y-11353117D01*
X11314658Y-11410260D02*
X11333706Y-11419784D01*
X11333706Y-11419784D02*
X11371801Y-11419784D01*
X11371801Y-11419784D02*
X11390849Y-11410260D01*
X11390849Y-11410260D02*
X11400372Y-11391212D01*
X11400372Y-11391212D02*
X11400372Y-11381688D01*
X11400372Y-11381688D02*
X11390849Y-11362641D01*
X11390849Y-11362641D02*
X11371801Y-11353117D01*
X11371801Y-11353117D02*
X11343230Y-11353117D01*
X11343230Y-11353117D02*
X11324182Y-11343593D01*
X11324182Y-11343593D02*
X11314658Y-11324546D01*
X11314658Y-11324546D02*
X11314658Y-11315022D01*
X11314658Y-11315022D02*
X11324182Y-11295974D01*
X11324182Y-11295974D02*
X11343230Y-11286450D01*
X11343230Y-11286450D02*
X11371801Y-11286450D01*
X11371801Y-11286450D02*
X11390849Y-11295974D01*
X11467039Y-11495974D02*
X11476563Y-11486450D01*
X11476563Y-11486450D02*
X11495611Y-11457879D01*
X11495611Y-11457879D02*
X11505134Y-11438831D01*
X11505134Y-11438831D02*
X11514658Y-11410260D01*
X11514658Y-11410260D02*
X11524182Y-11362641D01*
X11524182Y-11362641D02*
X11524182Y-11324546D01*
X11524182Y-11324546D02*
X11514658Y-11276927D01*
X11514658Y-11276927D02*
X11505134Y-11248355D01*
X11505134Y-11248355D02*
X11495611Y-11229308D01*
X11495611Y-11229308D02*
X11476563Y-11200736D01*
X11476563Y-11200736D02*
X11467039Y-11191212D01*
D13*
X6402440Y-11542770D02*
X6501500Y-11641830D01*
X6501500Y-11542770D02*
X6402440Y-11641830D01*
X6501500Y-11592300D02*
G75*
G02*
X6402440Y-11592300I-49530J0D01*
G01*
X6402440Y-11592300D02*
G75*
G02*
X6501500Y-11592300I49530J0D01*
G01*
D12*
X6800372Y-11483784D02*
X6819420Y-11483784D01*
X6819420Y-11483784D02*
X6838467Y-11493308D01*
X6838467Y-11493308D02*
X6847991Y-11502831D01*
X6847991Y-11502831D02*
X6857515Y-11521879D01*
X6857515Y-11521879D02*
X6867039Y-11559974D01*
X6867039Y-11559974D02*
X6867039Y-11607593D01*
X6867039Y-11607593D02*
X6857515Y-11645688D01*
X6857515Y-11645688D02*
X6847991Y-11664736D01*
X6847991Y-11664736D02*
X6838467Y-11674260D01*
X6838467Y-11674260D02*
X6819420Y-11683784D01*
X6819420Y-11683784D02*
X6800372Y-11683784D01*
X6800372Y-11683784D02*
X6781324Y-11674260D01*
X6781324Y-11674260D02*
X6771801Y-11664736D01*
X6771801Y-11664736D02*
X6762277Y-11645688D01*
X6762277Y-11645688D02*
X6752753Y-11607593D01*
X6752753Y-11607593D02*
X6752753Y-11559974D01*
X6752753Y-11559974D02*
X6762277Y-11521879D01*
X6762277Y-11521879D02*
X6771801Y-11502831D01*
X6771801Y-11502831D02*
X6781324Y-11493308D01*
X6781324Y-11493308D02*
X6800372Y-11483784D01*
X6952753Y-11664736D02*
X6962277Y-11674260D01*
X6962277Y-11674260D02*
X6952753Y-11683784D01*
X6952753Y-11683784D02*
X6943229Y-11674260D01*
X6943229Y-11674260D02*
X6952753Y-11664736D01*
X6952753Y-11664736D02*
X6952753Y-11683784D01*
X7057515Y-11683784D02*
X7095610Y-11683784D01*
X7095610Y-11683784D02*
X7114658Y-11674260D01*
X7114658Y-11674260D02*
X7124182Y-11664736D01*
X7124182Y-11664736D02*
X7143229Y-11636165D01*
X7143229Y-11636165D02*
X7152753Y-11598069D01*
X7152753Y-11598069D02*
X7152753Y-11521879D01*
X7152753Y-11521879D02*
X7143229Y-11502831D01*
X7143229Y-11502831D02*
X7133705Y-11493308D01*
X7133705Y-11493308D02*
X7114658Y-11483784D01*
X7114658Y-11483784D02*
X7076562Y-11483784D01*
X7076562Y-11483784D02*
X7057515Y-11493308D01*
X7057515Y-11493308D02*
X7047991Y-11502831D01*
X7047991Y-11502831D02*
X7038467Y-11521879D01*
X7038467Y-11521879D02*
X7038467Y-11569498D01*
X7038467Y-11569498D02*
X7047991Y-11588546D01*
X7047991Y-11588546D02*
X7057515Y-11598069D01*
X7057515Y-11598069D02*
X7076562Y-11607593D01*
X7076562Y-11607593D02*
X7114658Y-11607593D01*
X7114658Y-11607593D02*
X7133705Y-11598069D01*
X7133705Y-11598069D02*
X7143229Y-11588546D01*
X7143229Y-11588546D02*
X7152753Y-11569498D01*
X7247991Y-11683784D02*
X7286086Y-11683784D01*
X7286086Y-11683784D02*
X7305134Y-11674260D01*
X7305134Y-11674260D02*
X7314658Y-11664736D01*
X7314658Y-11664736D02*
X7333705Y-11636165D01*
X7333705Y-11636165D02*
X7343229Y-11598069D01*
X7343229Y-11598069D02*
X7343229Y-11521879D01*
X7343229Y-11521879D02*
X7333705Y-11502831D01*
X7333705Y-11502831D02*
X7324182Y-11493308D01*
X7324182Y-11493308D02*
X7305134Y-11483784D01*
X7305134Y-11483784D02*
X7267039Y-11483784D01*
X7267039Y-11483784D02*
X7247991Y-11493308D01*
X7247991Y-11493308D02*
X7238467Y-11502831D01*
X7238467Y-11502831D02*
X7228943Y-11521879D01*
X7228943Y-11521879D02*
X7228943Y-11569498D01*
X7228943Y-11569498D02*
X7238467Y-11588546D01*
X7238467Y-11588546D02*
X7247991Y-11598069D01*
X7247991Y-11598069D02*
X7267039Y-11607593D01*
X7267039Y-11607593D02*
X7305134Y-11607593D01*
X7305134Y-11607593D02*
X7324182Y-11598069D01*
X7324182Y-11598069D02*
X7333705Y-11588546D01*
X7333705Y-11588546D02*
X7343229Y-11569498D01*
X7533705Y-11683784D02*
X7419420Y-11683784D01*
X7476562Y-11683784D02*
X7476562Y-11483784D01*
X7476562Y-11483784D02*
X7457515Y-11512355D01*
X7457515Y-11512355D02*
X7438467Y-11531403D01*
X7438467Y-11531403D02*
X7419420Y-11540927D01*
X7619420Y-11683784D02*
X7619420Y-11550450D01*
X7619420Y-11569498D02*
X7628943Y-11559974D01*
X7628943Y-11559974D02*
X7647991Y-11550450D01*
X7647991Y-11550450D02*
X7676563Y-11550450D01*
X7676563Y-11550450D02*
X7695610Y-11559974D01*
X7695610Y-11559974D02*
X7705134Y-11579022D01*
X7705134Y-11579022D02*
X7705134Y-11683784D01*
X7705134Y-11579022D02*
X7714658Y-11559974D01*
X7714658Y-11559974D02*
X7733705Y-11550450D01*
X7733705Y-11550450D02*
X7762277Y-11550450D01*
X7762277Y-11550450D02*
X7781324Y-11559974D01*
X7781324Y-11559974D02*
X7790848Y-11579022D01*
X7790848Y-11579022D02*
X7790848Y-11683784D01*
X7886086Y-11683784D02*
X7886086Y-11550450D01*
X7886086Y-11569498D02*
X7895610Y-11559974D01*
X7895610Y-11559974D02*
X7914658Y-11550450D01*
X7914658Y-11550450D02*
X7943229Y-11550450D01*
X7943229Y-11550450D02*
X7962277Y-11559974D01*
X7962277Y-11559974D02*
X7971801Y-11579022D01*
X7971801Y-11579022D02*
X7971801Y-11683784D01*
X7971801Y-11579022D02*
X7981324Y-11559974D01*
X7981324Y-11559974D02*
X8000372Y-11550450D01*
X8000372Y-11550450D02*
X8028943Y-11550450D01*
X8028943Y-11550450D02*
X8047991Y-11559974D01*
X8047991Y-11559974D02*
X8057515Y-11579022D01*
X8057515Y-11579022D02*
X8057515Y-11683784D01*
X8447991Y-11474260D02*
X8276563Y-11731403D01*
X8705134Y-11483784D02*
X8724182Y-11483784D01*
X8724182Y-11483784D02*
X8743229Y-11493308D01*
X8743229Y-11493308D02*
X8752753Y-11502831D01*
X8752753Y-11502831D02*
X8762277Y-11521879D01*
X8762277Y-11521879D02*
X8771801Y-11559974D01*
X8771801Y-11559974D02*
X8771801Y-11607593D01*
X8771801Y-11607593D02*
X8762277Y-11645688D01*
X8762277Y-11645688D02*
X8752753Y-11664736D01*
X8752753Y-11664736D02*
X8743229Y-11674260D01*
X8743229Y-11674260D02*
X8724182Y-11683784D01*
X8724182Y-11683784D02*
X8705134Y-11683784D01*
X8705134Y-11683784D02*
X8686087Y-11674260D01*
X8686087Y-11674260D02*
X8676563Y-11664736D01*
X8676563Y-11664736D02*
X8667039Y-11645688D01*
X8667039Y-11645688D02*
X8657515Y-11607593D01*
X8657515Y-11607593D02*
X8657515Y-11559974D01*
X8657515Y-11559974D02*
X8667039Y-11521879D01*
X8667039Y-11521879D02*
X8676563Y-11502831D01*
X8676563Y-11502831D02*
X8686087Y-11493308D01*
X8686087Y-11493308D02*
X8705134Y-11483784D01*
X8857515Y-11664736D02*
X8867039Y-11674260D01*
X8867039Y-11674260D02*
X8857515Y-11683784D01*
X8857515Y-11683784D02*
X8847991Y-11674260D01*
X8847991Y-11674260D02*
X8857515Y-11664736D01*
X8857515Y-11664736D02*
X8857515Y-11683784D01*
X8990848Y-11483784D02*
X9009896Y-11483784D01*
X9009896Y-11483784D02*
X9028944Y-11493308D01*
X9028944Y-11493308D02*
X9038468Y-11502831D01*
X9038468Y-11502831D02*
X9047991Y-11521879D01*
X9047991Y-11521879D02*
X9057515Y-11559974D01*
X9057515Y-11559974D02*
X9057515Y-11607593D01*
X9057515Y-11607593D02*
X9047991Y-11645688D01*
X9047991Y-11645688D02*
X9038468Y-11664736D01*
X9038468Y-11664736D02*
X9028944Y-11674260D01*
X9028944Y-11674260D02*
X9009896Y-11683784D01*
X9009896Y-11683784D02*
X8990848Y-11683784D01*
X8990848Y-11683784D02*
X8971801Y-11674260D01*
X8971801Y-11674260D02*
X8962277Y-11664736D01*
X8962277Y-11664736D02*
X8952753Y-11645688D01*
X8952753Y-11645688D02*
X8943229Y-11607593D01*
X8943229Y-11607593D02*
X8943229Y-11559974D01*
X8943229Y-11559974D02*
X8952753Y-11521879D01*
X8952753Y-11521879D02*
X8962277Y-11502831D01*
X8962277Y-11502831D02*
X8971801Y-11493308D01*
X8971801Y-11493308D02*
X8990848Y-11483784D01*
X9124182Y-11483784D02*
X9247991Y-11483784D01*
X9247991Y-11483784D02*
X9181325Y-11559974D01*
X9181325Y-11559974D02*
X9209896Y-11559974D01*
X9209896Y-11559974D02*
X9228944Y-11569498D01*
X9228944Y-11569498D02*
X9238468Y-11579022D01*
X9238468Y-11579022D02*
X9247991Y-11598069D01*
X9247991Y-11598069D02*
X9247991Y-11645688D01*
X9247991Y-11645688D02*
X9238468Y-11664736D01*
X9238468Y-11664736D02*
X9228944Y-11674260D01*
X9228944Y-11674260D02*
X9209896Y-11683784D01*
X9209896Y-11683784D02*
X9152753Y-11683784D01*
X9152753Y-11683784D02*
X9133706Y-11674260D01*
X9133706Y-11674260D02*
X9124182Y-11664736D01*
X9343229Y-11683784D02*
X9381325Y-11683784D01*
X9381325Y-11683784D02*
X9400372Y-11674260D01*
X9400372Y-11674260D02*
X9409896Y-11664736D01*
X9409896Y-11664736D02*
X9428944Y-11636165D01*
X9428944Y-11636165D02*
X9438468Y-11598069D01*
X9438468Y-11598069D02*
X9438468Y-11521879D01*
X9438468Y-11521879D02*
X9428944Y-11502831D01*
X9428944Y-11502831D02*
X9419420Y-11493308D01*
X9419420Y-11493308D02*
X9400372Y-11483784D01*
X9400372Y-11483784D02*
X9362277Y-11483784D01*
X9362277Y-11483784D02*
X9343229Y-11493308D01*
X9343229Y-11493308D02*
X9333706Y-11502831D01*
X9333706Y-11502831D02*
X9324182Y-11521879D01*
X9324182Y-11521879D02*
X9324182Y-11569498D01*
X9324182Y-11569498D02*
X9333706Y-11588546D01*
X9333706Y-11588546D02*
X9343229Y-11598069D01*
X9343229Y-11598069D02*
X9362277Y-11607593D01*
X9362277Y-11607593D02*
X9400372Y-11607593D01*
X9400372Y-11607593D02*
X9419420Y-11598069D01*
X9419420Y-11598069D02*
X9428944Y-11588546D01*
X9428944Y-11588546D02*
X9438468Y-11569498D01*
X9562277Y-11483784D02*
X9581325Y-11483784D01*
X9581325Y-11483784D02*
X9600372Y-11493308D01*
X9600372Y-11493308D02*
X9609896Y-11502831D01*
X9609896Y-11502831D02*
X9619420Y-11521879D01*
X9619420Y-11521879D02*
X9628944Y-11559974D01*
X9628944Y-11559974D02*
X9628944Y-11607593D01*
X9628944Y-11607593D02*
X9619420Y-11645688D01*
X9619420Y-11645688D02*
X9609896Y-11664736D01*
X9609896Y-11664736D02*
X9600372Y-11674260D01*
X9600372Y-11674260D02*
X9581325Y-11683784D01*
X9581325Y-11683784D02*
X9562277Y-11683784D01*
X9562277Y-11683784D02*
X9543229Y-11674260D01*
X9543229Y-11674260D02*
X9533706Y-11664736D01*
X9533706Y-11664736D02*
X9524182Y-11645688D01*
X9524182Y-11645688D02*
X9514658Y-11607593D01*
X9514658Y-11607593D02*
X9514658Y-11559974D01*
X9514658Y-11559974D02*
X9524182Y-11521879D01*
X9524182Y-11521879D02*
X9533706Y-11502831D01*
X9533706Y-11502831D02*
X9543229Y-11493308D01*
X9543229Y-11493308D02*
X9562277Y-11483784D01*
X9705134Y-11483784D02*
X9705134Y-11521879D01*
X9781325Y-11483784D02*
X9781325Y-11521879D01*
X10076563Y-11759974D02*
X10067039Y-11750450D01*
X10067039Y-11750450D02*
X10047991Y-11721879D01*
X10047991Y-11721879D02*
X10038468Y-11702831D01*
X10038468Y-11702831D02*
X10028944Y-11674260D01*
X10028944Y-11674260D02*
X10019420Y-11626641D01*
X10019420Y-11626641D02*
X10019420Y-11588546D01*
X10019420Y-11588546D02*
X10028944Y-11540927D01*
X10028944Y-11540927D02*
X10038468Y-11512355D01*
X10038468Y-11512355D02*
X10047991Y-11493308D01*
X10047991Y-11493308D02*
X10067039Y-11464736D01*
X10067039Y-11464736D02*
X10076563Y-11455212D01*
X10133706Y-11483784D02*
X10267039Y-11483784D01*
X10267039Y-11483784D02*
X10181325Y-11683784D01*
X10495611Y-11683784D02*
X10495611Y-11483784D01*
X10581325Y-11683784D02*
X10581325Y-11579022D01*
X10581325Y-11579022D02*
X10571801Y-11559974D01*
X10571801Y-11559974D02*
X10552753Y-11550450D01*
X10552753Y-11550450D02*
X10524182Y-11550450D01*
X10524182Y-11550450D02*
X10505134Y-11559974D01*
X10505134Y-11559974D02*
X10495611Y-11569498D01*
X10705134Y-11683784D02*
X10686087Y-11674260D01*
X10686087Y-11674260D02*
X10676563Y-11664736D01*
X10676563Y-11664736D02*
X10667039Y-11645688D01*
X10667039Y-11645688D02*
X10667039Y-11588546D01*
X10667039Y-11588546D02*
X10676563Y-11569498D01*
X10676563Y-11569498D02*
X10686087Y-11559974D01*
X10686087Y-11559974D02*
X10705134Y-11550450D01*
X10705134Y-11550450D02*
X10733706Y-11550450D01*
X10733706Y-11550450D02*
X10752753Y-11559974D01*
X10752753Y-11559974D02*
X10762277Y-11569498D01*
X10762277Y-11569498D02*
X10771801Y-11588546D01*
X10771801Y-11588546D02*
X10771801Y-11645688D01*
X10771801Y-11645688D02*
X10762277Y-11664736D01*
X10762277Y-11664736D02*
X10752753Y-11674260D01*
X10752753Y-11674260D02*
X10733706Y-11683784D01*
X10733706Y-11683784D02*
X10705134Y-11683784D01*
X10886087Y-11683784D02*
X10867039Y-11674260D01*
X10867039Y-11674260D02*
X10857515Y-11655212D01*
X10857515Y-11655212D02*
X10857515Y-11483784D01*
X11038468Y-11674260D02*
X11019420Y-11683784D01*
X11019420Y-11683784D02*
X10981325Y-11683784D01*
X10981325Y-11683784D02*
X10962277Y-11674260D01*
X10962277Y-11674260D02*
X10952753Y-11655212D01*
X10952753Y-11655212D02*
X10952753Y-11579022D01*
X10952753Y-11579022D02*
X10962277Y-11559974D01*
X10962277Y-11559974D02*
X10981325Y-11550450D01*
X10981325Y-11550450D02*
X11019420Y-11550450D01*
X11019420Y-11550450D02*
X11038468Y-11559974D01*
X11038468Y-11559974D02*
X11047992Y-11579022D01*
X11047992Y-11579022D02*
X11047992Y-11598069D01*
X11047992Y-11598069D02*
X10952753Y-11617117D01*
X11124182Y-11674260D02*
X11143230Y-11683784D01*
X11143230Y-11683784D02*
X11181325Y-11683784D01*
X11181325Y-11683784D02*
X11200372Y-11674260D01*
X11200372Y-11674260D02*
X11209896Y-11655212D01*
X11209896Y-11655212D02*
X11209896Y-11645688D01*
X11209896Y-11645688D02*
X11200372Y-11626641D01*
X11200372Y-11626641D02*
X11181325Y-11617117D01*
X11181325Y-11617117D02*
X11152753Y-11617117D01*
X11152753Y-11617117D02*
X11133706Y-11607593D01*
X11133706Y-11607593D02*
X11124182Y-11588546D01*
X11124182Y-11588546D02*
X11124182Y-11579022D01*
X11124182Y-11579022D02*
X11133706Y-11559974D01*
X11133706Y-11559974D02*
X11152753Y-11550450D01*
X11152753Y-11550450D02*
X11181325Y-11550450D01*
X11181325Y-11550450D02*
X11200372Y-11559974D01*
X11276563Y-11759974D02*
X11286087Y-11750450D01*
X11286087Y-11750450D02*
X11305134Y-11721879D01*
X11305134Y-11721879D02*
X11314658Y-11702831D01*
X11314658Y-11702831D02*
X11324182Y-11674260D01*
X11324182Y-11674260D02*
X11333706Y-11626641D01*
X11333706Y-11626641D02*
X11333706Y-11588546D01*
X11333706Y-11588546D02*
X11324182Y-11540927D01*
X11324182Y-11540927D02*
X11314658Y-11512355D01*
X11314658Y-11512355D02*
X11305134Y-11493308D01*
X11305134Y-11493308D02*
X11286087Y-11464736D01*
X11286087Y-11464736D02*
X11276563Y-11455212D01*
D13*
X6401500Y-11806300D02*
X6501500Y-11906300D01*
X6501500Y-11806300D02*
X6401500Y-11906300D01*
X6451500Y-11806300D02*
X6451500Y-11906300D01*
X6401500Y-11856300D02*
X6501500Y-11856300D01*
D12*
X6867039Y-11947784D02*
X6752753Y-11947784D01*
X6809896Y-11947784D02*
X6809896Y-11747784D01*
X6809896Y-11747784D02*
X6790848Y-11776355D01*
X6790848Y-11776355D02*
X6771801Y-11795403D01*
X6771801Y-11795403D02*
X6752753Y-11804927D01*
X6952753Y-11928736D02*
X6962277Y-11938260D01*
X6962277Y-11938260D02*
X6952753Y-11947784D01*
X6952753Y-11947784D02*
X6943229Y-11938260D01*
X6943229Y-11938260D02*
X6952753Y-11928736D01*
X6952753Y-11928736D02*
X6952753Y-11947784D01*
X7086086Y-11747784D02*
X7105134Y-11747784D01*
X7105134Y-11747784D02*
X7124182Y-11757308D01*
X7124182Y-11757308D02*
X7133705Y-11766831D01*
X7133705Y-11766831D02*
X7143229Y-11785879D01*
X7143229Y-11785879D02*
X7152753Y-11823974D01*
X7152753Y-11823974D02*
X7152753Y-11871593D01*
X7152753Y-11871593D02*
X7143229Y-11909688D01*
X7143229Y-11909688D02*
X7133705Y-11928736D01*
X7133705Y-11928736D02*
X7124182Y-11938260D01*
X7124182Y-11938260D02*
X7105134Y-11947784D01*
X7105134Y-11947784D02*
X7086086Y-11947784D01*
X7086086Y-11947784D02*
X7067039Y-11938260D01*
X7067039Y-11938260D02*
X7057515Y-11928736D01*
X7057515Y-11928736D02*
X7047991Y-11909688D01*
X7047991Y-11909688D02*
X7038467Y-11871593D01*
X7038467Y-11871593D02*
X7038467Y-11823974D01*
X7038467Y-11823974D02*
X7047991Y-11785879D01*
X7047991Y-11785879D02*
X7057515Y-11766831D01*
X7057515Y-11766831D02*
X7067039Y-11757308D01*
X7067039Y-11757308D02*
X7086086Y-11747784D01*
X7276562Y-11747784D02*
X7295610Y-11747784D01*
X7295610Y-11747784D02*
X7314658Y-11757308D01*
X7314658Y-11757308D02*
X7324182Y-11766831D01*
X7324182Y-11766831D02*
X7333705Y-11785879D01*
X7333705Y-11785879D02*
X7343229Y-11823974D01*
X7343229Y-11823974D02*
X7343229Y-11871593D01*
X7343229Y-11871593D02*
X7333705Y-11909688D01*
X7333705Y-11909688D02*
X7324182Y-11928736D01*
X7324182Y-11928736D02*
X7314658Y-11938260D01*
X7314658Y-11938260D02*
X7295610Y-11947784D01*
X7295610Y-11947784D02*
X7276562Y-11947784D01*
X7276562Y-11947784D02*
X7257515Y-11938260D01*
X7257515Y-11938260D02*
X7247991Y-11928736D01*
X7247991Y-11928736D02*
X7238467Y-11909688D01*
X7238467Y-11909688D02*
X7228943Y-11871593D01*
X7228943Y-11871593D02*
X7228943Y-11823974D01*
X7228943Y-11823974D02*
X7238467Y-11785879D01*
X7238467Y-11785879D02*
X7247991Y-11766831D01*
X7247991Y-11766831D02*
X7257515Y-11757308D01*
X7257515Y-11757308D02*
X7276562Y-11747784D01*
X7467039Y-11747784D02*
X7486086Y-11747784D01*
X7486086Y-11747784D02*
X7505134Y-11757308D01*
X7505134Y-11757308D02*
X7514658Y-11766831D01*
X7514658Y-11766831D02*
X7524182Y-11785879D01*
X7524182Y-11785879D02*
X7533705Y-11823974D01*
X7533705Y-11823974D02*
X7533705Y-11871593D01*
X7533705Y-11871593D02*
X7524182Y-11909688D01*
X7524182Y-11909688D02*
X7514658Y-11928736D01*
X7514658Y-11928736D02*
X7505134Y-11938260D01*
X7505134Y-11938260D02*
X7486086Y-11947784D01*
X7486086Y-11947784D02*
X7467039Y-11947784D01*
X7467039Y-11947784D02*
X7447991Y-11938260D01*
X7447991Y-11938260D02*
X7438467Y-11928736D01*
X7438467Y-11928736D02*
X7428943Y-11909688D01*
X7428943Y-11909688D02*
X7419420Y-11871593D01*
X7419420Y-11871593D02*
X7419420Y-11823974D01*
X7419420Y-11823974D02*
X7428943Y-11785879D01*
X7428943Y-11785879D02*
X7438467Y-11766831D01*
X7438467Y-11766831D02*
X7447991Y-11757308D01*
X7447991Y-11757308D02*
X7467039Y-11747784D01*
X7619420Y-11947784D02*
X7619420Y-11814450D01*
X7619420Y-11833498D02*
X7628943Y-11823974D01*
X7628943Y-11823974D02*
X7647991Y-11814450D01*
X7647991Y-11814450D02*
X7676563Y-11814450D01*
X7676563Y-11814450D02*
X7695610Y-11823974D01*
X7695610Y-11823974D02*
X7705134Y-11843022D01*
X7705134Y-11843022D02*
X7705134Y-11947784D01*
X7705134Y-11843022D02*
X7714658Y-11823974D01*
X7714658Y-11823974D02*
X7733705Y-11814450D01*
X7733705Y-11814450D02*
X7762277Y-11814450D01*
X7762277Y-11814450D02*
X7781324Y-11823974D01*
X7781324Y-11823974D02*
X7790848Y-11843022D01*
X7790848Y-11843022D02*
X7790848Y-11947784D01*
X7886086Y-11947784D02*
X7886086Y-11814450D01*
X7886086Y-11833498D02*
X7895610Y-11823974D01*
X7895610Y-11823974D02*
X7914658Y-11814450D01*
X7914658Y-11814450D02*
X7943229Y-11814450D01*
X7943229Y-11814450D02*
X7962277Y-11823974D01*
X7962277Y-11823974D02*
X7971801Y-11843022D01*
X7971801Y-11843022D02*
X7971801Y-11947784D01*
X7971801Y-11843022D02*
X7981324Y-11823974D01*
X7981324Y-11823974D02*
X8000372Y-11814450D01*
X8000372Y-11814450D02*
X8028943Y-11814450D01*
X8028943Y-11814450D02*
X8047991Y-11823974D01*
X8047991Y-11823974D02*
X8057515Y-11843022D01*
X8057515Y-11843022D02*
X8057515Y-11947784D01*
X8447991Y-11738260D02*
X8276563Y-11995403D01*
X8705134Y-11747784D02*
X8724182Y-11747784D01*
X8724182Y-11747784D02*
X8743229Y-11757308D01*
X8743229Y-11757308D02*
X8752753Y-11766831D01*
X8752753Y-11766831D02*
X8762277Y-11785879D01*
X8762277Y-11785879D02*
X8771801Y-11823974D01*
X8771801Y-11823974D02*
X8771801Y-11871593D01*
X8771801Y-11871593D02*
X8762277Y-11909688D01*
X8762277Y-11909688D02*
X8752753Y-11928736D01*
X8752753Y-11928736D02*
X8743229Y-11938260D01*
X8743229Y-11938260D02*
X8724182Y-11947784D01*
X8724182Y-11947784D02*
X8705134Y-11947784D01*
X8705134Y-11947784D02*
X8686087Y-11938260D01*
X8686087Y-11938260D02*
X8676563Y-11928736D01*
X8676563Y-11928736D02*
X8667039Y-11909688D01*
X8667039Y-11909688D02*
X8657515Y-11871593D01*
X8657515Y-11871593D02*
X8657515Y-11823974D01*
X8657515Y-11823974D02*
X8667039Y-11785879D01*
X8667039Y-11785879D02*
X8676563Y-11766831D01*
X8676563Y-11766831D02*
X8686087Y-11757308D01*
X8686087Y-11757308D02*
X8705134Y-11747784D01*
X8857515Y-11928736D02*
X8867039Y-11938260D01*
X8867039Y-11938260D02*
X8857515Y-11947784D01*
X8857515Y-11947784D02*
X8847991Y-11938260D01*
X8847991Y-11938260D02*
X8857515Y-11928736D01*
X8857515Y-11928736D02*
X8857515Y-11947784D01*
X8990848Y-11747784D02*
X9009896Y-11747784D01*
X9009896Y-11747784D02*
X9028944Y-11757308D01*
X9028944Y-11757308D02*
X9038468Y-11766831D01*
X9038468Y-11766831D02*
X9047991Y-11785879D01*
X9047991Y-11785879D02*
X9057515Y-11823974D01*
X9057515Y-11823974D02*
X9057515Y-11871593D01*
X9057515Y-11871593D02*
X9047991Y-11909688D01*
X9047991Y-11909688D02*
X9038468Y-11928736D01*
X9038468Y-11928736D02*
X9028944Y-11938260D01*
X9028944Y-11938260D02*
X9009896Y-11947784D01*
X9009896Y-11947784D02*
X8990848Y-11947784D01*
X8990848Y-11947784D02*
X8971801Y-11938260D01*
X8971801Y-11938260D02*
X8962277Y-11928736D01*
X8962277Y-11928736D02*
X8952753Y-11909688D01*
X8952753Y-11909688D02*
X8943229Y-11871593D01*
X8943229Y-11871593D02*
X8943229Y-11823974D01*
X8943229Y-11823974D02*
X8952753Y-11785879D01*
X8952753Y-11785879D02*
X8962277Y-11766831D01*
X8962277Y-11766831D02*
X8971801Y-11757308D01*
X8971801Y-11757308D02*
X8990848Y-11747784D01*
X9124182Y-11747784D02*
X9247991Y-11747784D01*
X9247991Y-11747784D02*
X9181325Y-11823974D01*
X9181325Y-11823974D02*
X9209896Y-11823974D01*
X9209896Y-11823974D02*
X9228944Y-11833498D01*
X9228944Y-11833498D02*
X9238468Y-11843022D01*
X9238468Y-11843022D02*
X9247991Y-11862069D01*
X9247991Y-11862069D02*
X9247991Y-11909688D01*
X9247991Y-11909688D02*
X9238468Y-11928736D01*
X9238468Y-11928736D02*
X9228944Y-11938260D01*
X9228944Y-11938260D02*
X9209896Y-11947784D01*
X9209896Y-11947784D02*
X9152753Y-11947784D01*
X9152753Y-11947784D02*
X9133706Y-11938260D01*
X9133706Y-11938260D02*
X9124182Y-11928736D01*
X9343229Y-11947784D02*
X9381325Y-11947784D01*
X9381325Y-11947784D02*
X9400372Y-11938260D01*
X9400372Y-11938260D02*
X9409896Y-11928736D01*
X9409896Y-11928736D02*
X9428944Y-11900165D01*
X9428944Y-11900165D02*
X9438468Y-11862069D01*
X9438468Y-11862069D02*
X9438468Y-11785879D01*
X9438468Y-11785879D02*
X9428944Y-11766831D01*
X9428944Y-11766831D02*
X9419420Y-11757308D01*
X9419420Y-11757308D02*
X9400372Y-11747784D01*
X9400372Y-11747784D02*
X9362277Y-11747784D01*
X9362277Y-11747784D02*
X9343229Y-11757308D01*
X9343229Y-11757308D02*
X9333706Y-11766831D01*
X9333706Y-11766831D02*
X9324182Y-11785879D01*
X9324182Y-11785879D02*
X9324182Y-11833498D01*
X9324182Y-11833498D02*
X9333706Y-11852546D01*
X9333706Y-11852546D02*
X9343229Y-11862069D01*
X9343229Y-11862069D02*
X9362277Y-11871593D01*
X9362277Y-11871593D02*
X9400372Y-11871593D01*
X9400372Y-11871593D02*
X9419420Y-11862069D01*
X9419420Y-11862069D02*
X9428944Y-11852546D01*
X9428944Y-11852546D02*
X9438468Y-11833498D01*
X9609896Y-11814450D02*
X9609896Y-11947784D01*
X9562277Y-11738260D02*
X9514658Y-11881117D01*
X9514658Y-11881117D02*
X9638468Y-11881117D01*
X9705134Y-11747784D02*
X9705134Y-11785879D01*
X9781325Y-11747784D02*
X9781325Y-11785879D01*
X10076563Y-12023974D02*
X10067039Y-12014450D01*
X10067039Y-12014450D02*
X10047991Y-11985879D01*
X10047991Y-11985879D02*
X10038468Y-11966831D01*
X10038468Y-11966831D02*
X10028944Y-11938260D01*
X10028944Y-11938260D02*
X10019420Y-11890641D01*
X10019420Y-11890641D02*
X10019420Y-11852546D01*
X10019420Y-11852546D02*
X10028944Y-11804927D01*
X10028944Y-11804927D02*
X10038468Y-11776355D01*
X10038468Y-11776355D02*
X10047991Y-11757308D01*
X10047991Y-11757308D02*
X10067039Y-11728736D01*
X10067039Y-11728736D02*
X10076563Y-11719212D01*
X10143230Y-11766831D02*
X10152753Y-11757308D01*
X10152753Y-11757308D02*
X10171801Y-11747784D01*
X10171801Y-11747784D02*
X10219420Y-11747784D01*
X10219420Y-11747784D02*
X10238468Y-11757308D01*
X10238468Y-11757308D02*
X10247991Y-11766831D01*
X10247991Y-11766831D02*
X10257515Y-11785879D01*
X10257515Y-11785879D02*
X10257515Y-11804927D01*
X10257515Y-11804927D02*
X10247991Y-11833498D01*
X10247991Y-11833498D02*
X10133706Y-11947784D01*
X10133706Y-11947784D02*
X10257515Y-11947784D01*
X10324182Y-11747784D02*
X10457515Y-11747784D01*
X10457515Y-11747784D02*
X10371801Y-11947784D01*
X10686087Y-11947784D02*
X10686087Y-11747784D01*
X10771801Y-11947784D02*
X10771801Y-11843022D01*
X10771801Y-11843022D02*
X10762277Y-11823974D01*
X10762277Y-11823974D02*
X10743230Y-11814450D01*
X10743230Y-11814450D02*
X10714658Y-11814450D01*
X10714658Y-11814450D02*
X10695611Y-11823974D01*
X10695611Y-11823974D02*
X10686087Y-11833498D01*
X10895611Y-11947784D02*
X10876563Y-11938260D01*
X10876563Y-11938260D02*
X10867039Y-11928736D01*
X10867039Y-11928736D02*
X10857515Y-11909688D01*
X10857515Y-11909688D02*
X10857515Y-11852546D01*
X10857515Y-11852546D02*
X10867039Y-11833498D01*
X10867039Y-11833498D02*
X10876563Y-11823974D01*
X10876563Y-11823974D02*
X10895611Y-11814450D01*
X10895611Y-11814450D02*
X10924182Y-11814450D01*
X10924182Y-11814450D02*
X10943230Y-11823974D01*
X10943230Y-11823974D02*
X10952753Y-11833498D01*
X10952753Y-11833498D02*
X10962277Y-11852546D01*
X10962277Y-11852546D02*
X10962277Y-11909688D01*
X10962277Y-11909688D02*
X10952753Y-11928736D01*
X10952753Y-11928736D02*
X10943230Y-11938260D01*
X10943230Y-11938260D02*
X10924182Y-11947784D01*
X10924182Y-11947784D02*
X10895611Y-11947784D01*
X11076563Y-11947784D02*
X11057515Y-11938260D01*
X11057515Y-11938260D02*
X11047992Y-11919212D01*
X11047992Y-11919212D02*
X11047992Y-11747784D01*
X11228944Y-11938260D02*
X11209896Y-11947784D01*
X11209896Y-11947784D02*
X11171801Y-11947784D01*
X11171801Y-11947784D02*
X11152753Y-11938260D01*
X11152753Y-11938260D02*
X11143230Y-11919212D01*
X11143230Y-11919212D02*
X11143230Y-11843022D01*
X11143230Y-11843022D02*
X11152753Y-11823974D01*
X11152753Y-11823974D02*
X11171801Y-11814450D01*
X11171801Y-11814450D02*
X11209896Y-11814450D01*
X11209896Y-11814450D02*
X11228944Y-11823974D01*
X11228944Y-11823974D02*
X11238468Y-11843022D01*
X11238468Y-11843022D02*
X11238468Y-11862069D01*
X11238468Y-11862069D02*
X11143230Y-11881117D01*
X11314658Y-11938260D02*
X11333706Y-11947784D01*
X11333706Y-11947784D02*
X11371801Y-11947784D01*
X11371801Y-11947784D02*
X11390849Y-11938260D01*
X11390849Y-11938260D02*
X11400372Y-11919212D01*
X11400372Y-11919212D02*
X11400372Y-11909688D01*
X11400372Y-11909688D02*
X11390849Y-11890641D01*
X11390849Y-11890641D02*
X11371801Y-11881117D01*
X11371801Y-11881117D02*
X11343230Y-11881117D01*
X11343230Y-11881117D02*
X11324182Y-11871593D01*
X11324182Y-11871593D02*
X11314658Y-11852546D01*
X11314658Y-11852546D02*
X11314658Y-11843022D01*
X11314658Y-11843022D02*
X11324182Y-11823974D01*
X11324182Y-11823974D02*
X11343230Y-11814450D01*
X11343230Y-11814450D02*
X11371801Y-11814450D01*
X11371801Y-11814450D02*
X11390849Y-11823974D01*
X11467039Y-12023974D02*
X11476563Y-12014450D01*
X11476563Y-12014450D02*
X11495611Y-11985879D01*
X11495611Y-11985879D02*
X11505134Y-11966831D01*
X11505134Y-11966831D02*
X11514658Y-11938260D01*
X11514658Y-11938260D02*
X11524182Y-11890641D01*
X11524182Y-11890641D02*
X11524182Y-11852546D01*
X11524182Y-11852546D02*
X11514658Y-11804927D01*
X11514658Y-11804927D02*
X11505134Y-11776355D01*
X11505134Y-11776355D02*
X11495611Y-11757308D01*
X11495611Y-11757308D02*
X11476563Y-11728736D01*
X11476563Y-11728736D02*
X11467039Y-11719212D01*
M02*
