%TF.GenerationSoftware,KiCad,Pcbnew,8.0.8-8.0.8-0~ubuntu24.04.1*%
%TF.CreationDate,2025-08-07T17:00:54-04:00*%
%TF.ProjectId,display_15_in,64697370-6c61-4795-9f31-355f696e2e6b,2*%
%TF.SameCoordinates,Original*%
%TF.FileFunction,Legend,Bot*%
%TF.FilePolarity,Positive*%
%FSLAX46Y46*%
G04 Gerber Fmt 4.6, Leading zero omitted, Abs format (unit mm)*
G04 Created by KiCad (PCBNEW 8.0.8-8.0.8-0~ubuntu24.04.1) date 2025-08-07 17:00:54*
%MOMM*%
%LPD*%
G01*
G04 APERTURE LIST*
%ADD10C,0.152400*%
%ADD11C,0.200000*%
%ADD12C,0.508000*%
%ADD13C,0.150000*%
G04 APERTURE END LIST*
D10*
X210711787Y-89083000D02*
X209506887Y-89083000D01*
X227660887Y-89083000D02*
X227660887Y-79329001D01*
X209506887Y-79329001D02*
X209506887Y-89083000D01*
X227660887Y-89083000D02*
X226455984Y-89083000D01*
X209506887Y-79329001D02*
X227660887Y-79329001D01*
D11*
X341542780Y-137667999D02*
X341304685Y-137667999D01*
X341399923Y-137906094D02*
X341304685Y-137667999D01*
X341304685Y-137667999D02*
X341399923Y-137429904D01*
X341114209Y-137810856D02*
X341304685Y-137667999D01*
X341304685Y-137667999D02*
X341114209Y-137525142D01*
X74842780Y-137597499D02*
X74604685Y-137597499D01*
X74699923Y-137835594D02*
X74604685Y-137597499D01*
X74604685Y-137597499D02*
X74699923Y-137359404D01*
X74414209Y-137740356D02*
X74604685Y-137597499D01*
X74604685Y-137597499D02*
X74414209Y-137454642D01*
X252896780Y-137573999D02*
X252658685Y-137573999D01*
X252753923Y-137812094D02*
X252658685Y-137573999D01*
X252658685Y-137573999D02*
X252753923Y-137335904D01*
X252468209Y-137716856D02*
X252658685Y-137573999D01*
X252658685Y-137573999D02*
X252468209Y-137431142D01*
X163643655Y-137632547D02*
X163405560Y-137632547D01*
X163500798Y-137870642D02*
X163405560Y-137632547D01*
X163405560Y-137632547D02*
X163500798Y-137394452D01*
X163215084Y-137775404D02*
X163405560Y-137632547D01*
X163405560Y-137632547D02*
X163215084Y-137489690D01*
X308705095Y-97405838D02*
X308800333Y-97358219D01*
X308800333Y-97358219D02*
X308943190Y-97358219D01*
X308943190Y-97358219D02*
X309086047Y-97405838D01*
X309086047Y-97405838D02*
X309181285Y-97501076D01*
X309181285Y-97501076D02*
X309228904Y-97596314D01*
X309228904Y-97596314D02*
X309276523Y-97786790D01*
X309276523Y-97786790D02*
X309276523Y-97929647D01*
X309276523Y-97929647D02*
X309228904Y-98120123D01*
X309228904Y-98120123D02*
X309181285Y-98215361D01*
X309181285Y-98215361D02*
X309086047Y-98310600D01*
X309086047Y-98310600D02*
X308943190Y-98358219D01*
X308943190Y-98358219D02*
X308847952Y-98358219D01*
X308847952Y-98358219D02*
X308705095Y-98310600D01*
X308705095Y-98310600D02*
X308657476Y-98262980D01*
X308657476Y-98262980D02*
X308657476Y-97929647D01*
X308657476Y-97929647D02*
X308847952Y-97929647D01*
X308228904Y-98358219D02*
X308228904Y-97358219D01*
X308228904Y-97358219D02*
X307657476Y-98358219D01*
X307657476Y-98358219D02*
X307657476Y-97358219D01*
X307181285Y-98358219D02*
X307181285Y-97358219D01*
X307181285Y-97358219D02*
X306943190Y-97358219D01*
X306943190Y-97358219D02*
X306800333Y-97405838D01*
X306800333Y-97405838D02*
X306705095Y-97501076D01*
X306705095Y-97501076D02*
X306657476Y-97596314D01*
X306657476Y-97596314D02*
X306609857Y-97786790D01*
X306609857Y-97786790D02*
X306609857Y-97929647D01*
X306609857Y-97929647D02*
X306657476Y-98120123D01*
X306657476Y-98120123D02*
X306705095Y-98215361D01*
X306705095Y-98215361D02*
X306800333Y-98310600D01*
X306800333Y-98310600D02*
X306943190Y-98358219D01*
X306943190Y-98358219D02*
X307181285Y-98358219D01*
X305752714Y-97691552D02*
X305752714Y-98358219D01*
X305990809Y-97310600D02*
X306228904Y-98024885D01*
X306228904Y-98024885D02*
X305609857Y-98024885D01*
X242411094Y-143586219D02*
X241792047Y-143586219D01*
X241792047Y-143586219D02*
X242125380Y-143967171D01*
X242125380Y-143967171D02*
X241982523Y-143967171D01*
X241982523Y-143967171D02*
X241887285Y-144014790D01*
X241887285Y-144014790D02*
X241839666Y-144062409D01*
X241839666Y-144062409D02*
X241792047Y-144157647D01*
X241792047Y-144157647D02*
X241792047Y-144395742D01*
X241792047Y-144395742D02*
X241839666Y-144490980D01*
X241839666Y-144490980D02*
X241887285Y-144538600D01*
X241887285Y-144538600D02*
X241982523Y-144586219D01*
X241982523Y-144586219D02*
X242268237Y-144586219D01*
X242268237Y-144586219D02*
X242363475Y-144538600D01*
X242363475Y-144538600D02*
X242411094Y-144490980D01*
X241506332Y-143586219D02*
X241172999Y-144586219D01*
X241172999Y-144586219D02*
X240839666Y-143586219D01*
X240601570Y-143586219D02*
X239982523Y-143586219D01*
X239982523Y-143586219D02*
X240315856Y-143967171D01*
X240315856Y-143967171D02*
X240172999Y-143967171D01*
X240172999Y-143967171D02*
X240077761Y-144014790D01*
X240077761Y-144014790D02*
X240030142Y-144062409D01*
X240030142Y-144062409D02*
X239982523Y-144157647D01*
X239982523Y-144157647D02*
X239982523Y-144395742D01*
X239982523Y-144395742D02*
X240030142Y-144490980D01*
X240030142Y-144490980D02*
X240077761Y-144538600D01*
X240077761Y-144538600D02*
X240172999Y-144586219D01*
X240172999Y-144586219D02*
X240458713Y-144586219D01*
X240458713Y-144586219D02*
X240553951Y-144538600D01*
X240553951Y-144538600D02*
X240601570Y-144490980D01*
X65782219Y-165766905D02*
X65782219Y-166385952D01*
X65782219Y-166385952D02*
X66163171Y-166052619D01*
X66163171Y-166052619D02*
X66163171Y-166195476D01*
X66163171Y-166195476D02*
X66210790Y-166290714D01*
X66210790Y-166290714D02*
X66258409Y-166338333D01*
X66258409Y-166338333D02*
X66353647Y-166385952D01*
X66353647Y-166385952D02*
X66591742Y-166385952D01*
X66591742Y-166385952D02*
X66686980Y-166338333D01*
X66686980Y-166338333D02*
X66734600Y-166290714D01*
X66734600Y-166290714D02*
X66782219Y-166195476D01*
X66782219Y-166195476D02*
X66782219Y-165909762D01*
X66782219Y-165909762D02*
X66734600Y-165814524D01*
X66734600Y-165814524D02*
X66686980Y-165766905D01*
X65782219Y-166671667D02*
X66782219Y-167005000D01*
X66782219Y-167005000D02*
X65782219Y-167338333D01*
X66782219Y-168195476D02*
X66782219Y-167624048D01*
X66782219Y-167909762D02*
X65782219Y-167909762D01*
X65782219Y-167909762D02*
X65925076Y-167814524D01*
X65925076Y-167814524D02*
X66020314Y-167719286D01*
X66020314Y-167719286D02*
X66067933Y-167624048D01*
X110585095Y-98167838D02*
X110680333Y-98120219D01*
X110680333Y-98120219D02*
X110823190Y-98120219D01*
X110823190Y-98120219D02*
X110966047Y-98167838D01*
X110966047Y-98167838D02*
X111061285Y-98263076D01*
X111061285Y-98263076D02*
X111108904Y-98358314D01*
X111108904Y-98358314D02*
X111156523Y-98548790D01*
X111156523Y-98548790D02*
X111156523Y-98691647D01*
X111156523Y-98691647D02*
X111108904Y-98882123D01*
X111108904Y-98882123D02*
X111061285Y-98977361D01*
X111061285Y-98977361D02*
X110966047Y-99072600D01*
X110966047Y-99072600D02*
X110823190Y-99120219D01*
X110823190Y-99120219D02*
X110727952Y-99120219D01*
X110727952Y-99120219D02*
X110585095Y-99072600D01*
X110585095Y-99072600D02*
X110537476Y-99024980D01*
X110537476Y-99024980D02*
X110537476Y-98691647D01*
X110537476Y-98691647D02*
X110727952Y-98691647D01*
X110108904Y-99120219D02*
X110108904Y-98120219D01*
X110108904Y-98120219D02*
X109537476Y-99120219D01*
X109537476Y-99120219D02*
X109537476Y-98120219D01*
X109061285Y-99120219D02*
X109061285Y-98120219D01*
X109061285Y-98120219D02*
X108823190Y-98120219D01*
X108823190Y-98120219D02*
X108680333Y-98167838D01*
X108680333Y-98167838D02*
X108585095Y-98263076D01*
X108585095Y-98263076D02*
X108537476Y-98358314D01*
X108537476Y-98358314D02*
X108489857Y-98548790D01*
X108489857Y-98548790D02*
X108489857Y-98691647D01*
X108489857Y-98691647D02*
X108537476Y-98882123D01*
X108537476Y-98882123D02*
X108585095Y-98977361D01*
X108585095Y-98977361D02*
X108680333Y-99072600D01*
X108680333Y-99072600D02*
X108823190Y-99120219D01*
X108823190Y-99120219D02*
X109061285Y-99120219D01*
X108156523Y-98120219D02*
X107537476Y-98120219D01*
X107537476Y-98120219D02*
X107870809Y-98501171D01*
X107870809Y-98501171D02*
X107727952Y-98501171D01*
X107727952Y-98501171D02*
X107632714Y-98548790D01*
X107632714Y-98548790D02*
X107585095Y-98596409D01*
X107585095Y-98596409D02*
X107537476Y-98691647D01*
X107537476Y-98691647D02*
X107537476Y-98929742D01*
X107537476Y-98929742D02*
X107585095Y-99024980D01*
X107585095Y-99024980D02*
X107632714Y-99072600D01*
X107632714Y-99072600D02*
X107727952Y-99120219D01*
X107727952Y-99120219D02*
X108013666Y-99120219D01*
X108013666Y-99120219D02*
X108108904Y-99072600D01*
X108108904Y-99072600D02*
X108156523Y-99024980D01*
X343503094Y-178384219D02*
X342884047Y-178384219D01*
X342884047Y-178384219D02*
X343217380Y-178765171D01*
X343217380Y-178765171D02*
X343074523Y-178765171D01*
X343074523Y-178765171D02*
X342979285Y-178812790D01*
X342979285Y-178812790D02*
X342931666Y-178860409D01*
X342931666Y-178860409D02*
X342884047Y-178955647D01*
X342884047Y-178955647D02*
X342884047Y-179193742D01*
X342884047Y-179193742D02*
X342931666Y-179288980D01*
X342931666Y-179288980D02*
X342979285Y-179336600D01*
X342979285Y-179336600D02*
X343074523Y-179384219D01*
X343074523Y-179384219D02*
X343360237Y-179384219D01*
X343360237Y-179384219D02*
X343455475Y-179336600D01*
X343455475Y-179336600D02*
X343503094Y-179288980D01*
X342598332Y-178384219D02*
X342264999Y-179384219D01*
X342264999Y-179384219D02*
X341931666Y-178384219D01*
X341645951Y-178479457D02*
X341598332Y-178431838D01*
X341598332Y-178431838D02*
X341503094Y-178384219D01*
X341503094Y-178384219D02*
X341264999Y-178384219D01*
X341264999Y-178384219D02*
X341169761Y-178431838D01*
X341169761Y-178431838D02*
X341122142Y-178479457D01*
X341122142Y-178479457D02*
X341074523Y-178574695D01*
X341074523Y-178574695D02*
X341074523Y-178669933D01*
X341074523Y-178669933D02*
X341122142Y-178812790D01*
X341122142Y-178812790D02*
X341693570Y-179384219D01*
X341693570Y-179384219D02*
X341074523Y-179384219D01*
D12*
%TO.C,U1*%
X229819887Y-88726000D02*
G75*
G02*
X229057887Y-88726000I-381000J0D01*
G01*
X229057887Y-88726000D02*
G75*
G02*
X229819887Y-88726000I381000J0D01*
G01*
%TO.C,J1*%
X233489940Y-168696000D02*
G75*
G02*
X232727940Y-168696000I-381000J0D01*
G01*
X232727940Y-168696000D02*
G75*
G02*
X233489940Y-168696000I381000J0D01*
G01*
D13*
%TO.C,GND4*%
X305367000Y-98956000D02*
X309567000Y-98956000D01*
X305367000Y-101356000D02*
X305367000Y-98956000D01*
X309567000Y-98956000D02*
X309567000Y-101356000D01*
X309567000Y-101356000D02*
X305367000Y-101356000D01*
%TO.C,3V3*%
X239073000Y-145184000D02*
X243273000Y-145184000D01*
X239073000Y-147584000D02*
X239073000Y-145184000D01*
X243273000Y-145184000D02*
X243273000Y-147584000D01*
X243273000Y-147584000D02*
X239073000Y-147584000D01*
%TO.C,3V1*%
X67380000Y-164905000D02*
X69780000Y-164905000D01*
X67380000Y-169105000D02*
X67380000Y-164905000D01*
X69780000Y-164905000D02*
X69780000Y-169105000D01*
X69780000Y-169105000D02*
X67380000Y-169105000D01*
%TO.C,GND3*%
X107247000Y-99718000D02*
X111447000Y-99718000D01*
X107247000Y-102118000D02*
X107247000Y-99718000D01*
X111447000Y-99718000D02*
X111447000Y-102118000D01*
X111447000Y-102118000D02*
X107247000Y-102118000D01*
%TO.C,3V2*%
X340165000Y-179982000D02*
X344365000Y-179982000D01*
X340165000Y-182382000D02*
X340165000Y-179982000D01*
X344365000Y-179982000D02*
X344365000Y-182382000D01*
X344365000Y-182382000D02*
X340165000Y-182382000D01*
%TD*%
M02*
