%TF.GenerationSoftware,KiCad,Pcbnew,8.0.8-8.0.8-0~ubuntu24.04.1*%
%TF.CreationDate,2025-08-07T17:00:54-04:00*%
%TF.ProjectId,display_15_in,64697370-6c61-4795-9f31-355f696e2e6b,2*%
%TF.SameCoordinates,Original*%
%TF.FileFunction,Paste,Top*%
%TF.FilePolarity,Positive*%
%FSLAX46Y46*%
G04 Gerber Fmt 4.6, Leading zero omitted, Abs format (unit mm)*
G04 Created by KiCad (PCBNEW 8.0.8-8.0.8-0~ubuntu24.04.1) date 2025-08-07 17:00:54*
%MOMM*%
%LPD*%
G01*
G04 APERTURE LIST*
G04 Aperture macros list*
%AMRoundRect*
0 Rectangle with rounded corners*
0 $1 Rounding radius*
0 $2 $3 $4 $5 $6 $7 $8 $9 X,Y pos of 4 corners*
0 Add a 4 corners polygon primitive as box body*
4,1,4,$2,$3,$4,$5,$6,$7,$8,$9,$2,$3,0*
0 Add four circle primitives for the rounded corners*
1,1,$1+$1,$2,$3*
1,1,$1+$1,$4,$5*
1,1,$1+$1,$6,$7*
1,1,$1+$1,$8,$9*
0 Add four rect primitives between the rounded corners*
20,1,$1+$1,$2,$3,$4,$5,0*
20,1,$1+$1,$4,$5,$6,$7,0*
20,1,$1+$1,$6,$7,$8,$9,0*
20,1,$1+$1,$8,$9,$2,$3,0*%
%AMOutline5P*
0 Free polygon, 5 corners , with rotation*
0 The origin of the aperture is its center*
0 number of corners: always 5*
0 $1 to $10 corner X, Y*
0 $11 Rotation angle, in degrees counterclockwise*
0 create outline with 5 corners*
4,1,5,$1,$2,$3,$4,$5,$6,$7,$8,$9,$10,$1,$2,$11*%
%AMOutline6P*
0 Free polygon, 6 corners , with rotation*
0 The origin of the aperture is its center*
0 number of corners: always 6*
0 $1 to $12 corner X, Y*
0 $13 Rotation angle, in degrees counterclockwise*
0 create outline with 6 corners*
4,1,6,$1,$2,$3,$4,$5,$6,$7,$8,$9,$10,$11,$12,$1,$2,$13*%
%AMOutline7P*
0 Free polygon, 7 corners , with rotation*
0 The origin of the aperture is its center*
0 number of corners: always 7*
0 $1 to $14 corner X, Y*
0 $15 Rotation angle, in degrees counterclockwise*
0 create outline with 7 corners*
4,1,7,$1,$2,$3,$4,$5,$6,$7,$8,$9,$10,$11,$12,$13,$14,$1,$2,$15*%
%AMOutline8P*
0 Free polygon, 8 corners , with rotation*
0 The origin of the aperture is its center*
0 number of corners: always 8*
0 $1 to $16 corner X, Y*
0 $17 Rotation angle, in degrees counterclockwise*
0 create outline with 8 corners*
4,1,8,$1,$2,$3,$4,$5,$6,$7,$8,$9,$10,$11,$12,$13,$14,$15,$16,$1,$2,$17*%
G04 Aperture macros list end*
%ADD10RoundRect,0.250000X-0.450000X0.262500X-0.450000X-0.262500X0.450000X-0.262500X0.450000X0.262500X0*%
%ADD11RoundRect,0.250000X0.450000X-0.262500X0.450000X0.262500X-0.450000X0.262500X-0.450000X-0.262500X0*%
%ADD12R,1.168400X0.533400*%
%ADD13R,3.800000X2.000000*%
%ADD14RoundRect,0.075000X0.225000X-0.910000X0.225000X0.910000X-0.225000X0.910000X-0.225000X-0.910000X0*%
%ADD15RoundRect,0.250000X0.262500X0.450000X-0.262500X0.450000X-0.262500X-0.450000X0.262500X-0.450000X0*%
%ADD16RoundRect,0.250000X-0.262500X-0.450000X0.262500X-0.450000X0.262500X0.450000X-0.262500X0.450000X0*%
%ADD17R,0.533400X1.168400*%
%ADD18RoundRect,0.051250X0.733750X0.153750X-0.733750X0.153750X-0.733750X-0.153750X0.733750X-0.153750X0*%
%ADD19RoundRect,0.051250X-0.733750X-0.153750X0.733750X-0.153750X0.733750X0.153750X-0.733750X0.153750X0*%
%ADD20Outline5P,-1.900000X0.600000X-1.500000X1.000000X1.900000X1.000000X1.900000X-1.000000X-1.900000X-1.000000X0.000000*%
G04 APERTURE END LIST*
D10*
%TO.C,R9*%
X262763000Y-150274000D03*
X262763000Y-152099000D03*
%TD*%
%TO.C,R4*%
X92202000Y-150719099D03*
X92202000Y-152544099D03*
%TD*%
D11*
%TO.C,R25*%
X313794707Y-139272000D03*
X313794707Y-137447000D03*
%TD*%
D12*
%TO.C,M1*%
X80873600Y-147146000D03*
X80873600Y-145245998D03*
X78841600Y-146195999D03*
%TD*%
D13*
%TO.C,GND1*%
X370967000Y-162386000D03*
%TD*%
D14*
%TO.C,U4*%
X112522000Y-163591000D03*
X113792000Y-163591000D03*
X115062000Y-163591000D03*
X116332000Y-163591000D03*
X117602000Y-163591000D03*
X118872000Y-163591000D03*
X120142000Y-163591000D03*
X121412000Y-163591000D03*
X121412000Y-158641000D03*
X120142000Y-158641000D03*
X118872000Y-158641000D03*
X117602000Y-158641000D03*
X116332000Y-158641000D03*
X115062000Y-158641000D03*
X113792000Y-158641000D03*
X112522000Y-158641000D03*
%TD*%
D12*
%TO.C,M11*%
X273939000Y-147348002D03*
X273939000Y-145448000D03*
X271907000Y-146398001D03*
%TD*%
D15*
%TO.C,R35*%
X245491000Y-103204000D03*
X243666000Y-103204000D03*
%TD*%
D13*
%TO.C,PA13*%
X208407000Y-122802658D03*
%TD*%
D10*
%TO.C,R8*%
X179959000Y-151036000D03*
X179959000Y-152861000D03*
%TD*%
D15*
%TO.C,R36*%
X329715500Y-91520000D03*
X327890500Y-91520000D03*
%TD*%
D12*
%TO.C,M3*%
X96113600Y-147146000D03*
X96113600Y-145245998D03*
X94081600Y-146195999D03*
%TD*%
D10*
%TO.C,R7*%
X187579000Y-151036000D03*
X187579000Y-152861000D03*
%TD*%
D13*
%TO.C,PA12*%
X197196851Y-122802658D03*
%TD*%
D10*
%TO.C,R12*%
X270383000Y-150274000D03*
X270383000Y-152099000D03*
%TD*%
D16*
%TO.C,R34*%
X157594694Y-96476779D03*
X159419694Y-96476779D03*
%TD*%
D10*
%TO.C,R16*%
X357124000Y-150321000D03*
X357124000Y-152146000D03*
%TD*%
D12*
%TO.C,M13*%
X346964000Y-147141002D03*
X346964000Y-145241000D03*
X344932000Y-146191001D03*
%TD*%
D10*
%TO.C,R15*%
X364109000Y-150321000D03*
X364109000Y-152146000D03*
%TD*%
D11*
%TO.C,R21*%
X123571001Y-139121500D03*
X123571001Y-137296500D03*
%TD*%
D10*
%TO.C,R6*%
X164719000Y-151036000D03*
X164719000Y-152861000D03*
%TD*%
%TO.C,R5*%
X172339000Y-151036000D03*
X172339000Y-152861000D03*
%TD*%
D11*
%TO.C,R20*%
X115443001Y-139121500D03*
X115443001Y-137296500D03*
%TD*%
%TO.C,R31*%
X297538707Y-139272000D03*
X297538707Y-137447000D03*
%TD*%
D17*
%TO.C,M20*%
X333883000Y-91520000D03*
X335783002Y-91520000D03*
X334833001Y-89488000D03*
%TD*%
D10*
%TO.C,R1*%
X84582000Y-150719099D03*
X84582000Y-152544099D03*
%TD*%
D12*
%TO.C,M7*%
X184937400Y-147445802D03*
X184937400Y-145545800D03*
X182905400Y-146495801D03*
%TD*%
%TO.C,M12*%
X266954000Y-147348002D03*
X266954000Y-145448000D03*
X264922000Y-146398001D03*
%TD*%
%TO.C,M2*%
X73253600Y-147146000D03*
X73253600Y-145245998D03*
X71221600Y-146195999D03*
%TD*%
%TO.C,M18*%
X157607000Y-91962001D03*
X157607000Y-90061999D03*
X155575000Y-91012000D03*
%TD*%
D10*
%TO.C,R13*%
X350139000Y-150321000D03*
X350139000Y-152146000D03*
%TD*%
D13*
%TO.C,PA14*%
X219837000Y-117936000D03*
%TD*%
D16*
%TO.C,R43*%
X269089500Y-171276000D03*
X270914500Y-171276000D03*
%TD*%
D12*
%TO.C,M10*%
X251079000Y-147334001D03*
X251079000Y-145433999D03*
X249047000Y-146384000D03*
%TD*%
D11*
%TO.C,R29*%
X301602707Y-139272000D03*
X301602707Y-137447000D03*
%TD*%
D13*
%TO.C,GND7*%
X129667000Y-98886000D03*
%TD*%
D11*
%TO.C,R30*%
X321922707Y-139272000D03*
X321922707Y-137447000D03*
%TD*%
D16*
%TO.C,R44*%
X358624500Y-171276000D03*
X360449500Y-171276000D03*
%TD*%
D13*
%TO.C,GND6*%
X307467000Y-98886000D03*
%TD*%
D12*
%TO.C,M14*%
X339979000Y-147141002D03*
X339979000Y-145241000D03*
X337947000Y-146191001D03*
%TD*%
D13*
%TO.C,GND8*%
X199517000Y-163656000D03*
%TD*%
D12*
%TO.C,M6*%
X162077400Y-147445802D03*
X162077400Y-145545800D03*
X160045400Y-146495801D03*
%TD*%
%TO.C,M9*%
X259334000Y-147348002D03*
X259334000Y-145448000D03*
X257302000Y-146398001D03*
%TD*%
D11*
%TO.C,R27*%
X309730707Y-139272000D03*
X309730707Y-137447000D03*
%TD*%
D16*
%TO.C,R41*%
X91289500Y-171276000D03*
X93114500Y-171276000D03*
%TD*%
D10*
%TO.C,R10*%
X254508000Y-150274000D03*
X254508000Y-152099000D03*
%TD*%
D13*
%TO.C,GND5*%
X302387000Y-176356000D03*
%TD*%
D11*
%TO.C,R19*%
X131699000Y-139018000D03*
X131699000Y-137193000D03*
%TD*%
%TO.C,R22*%
X143890999Y-138914500D03*
X143890999Y-137089500D03*
%TD*%
%TO.C,R17*%
X135763000Y-139018000D03*
X135763000Y-137193000D03*
%TD*%
%TO.C,R24*%
X139827000Y-139018000D03*
X139827000Y-137193000D03*
%TD*%
D12*
%TO.C,M16*%
X353949000Y-147141002D03*
X353949000Y-145241000D03*
X351917000Y-146191001D03*
%TD*%
%TO.C,M4*%
X88493600Y-147146000D03*
X88493600Y-145245998D03*
X86461600Y-146195999D03*
%TD*%
D18*
%TO.C,U2*%
X145237000Y-164041000D03*
X145237000Y-163391000D03*
X145237000Y-162741000D03*
X145237000Y-162091000D03*
X145237000Y-161441000D03*
X145237000Y-160791000D03*
X145237000Y-160141000D03*
X145237000Y-159491000D03*
X145237000Y-158841000D03*
X145237000Y-158191000D03*
X139497000Y-158191000D03*
X139497000Y-158841000D03*
X139497000Y-159491000D03*
X139497000Y-160141000D03*
X139497000Y-160791000D03*
X139497000Y-161441000D03*
X139497000Y-162091000D03*
X139497000Y-162741000D03*
X139497000Y-163391000D03*
X139497000Y-164041000D03*
%TD*%
D11*
%TO.C,R28*%
X293474707Y-139272000D03*
X293474707Y-137447000D03*
%TD*%
D13*
%TO.C,PA11*%
X189635301Y-122807644D03*
%TD*%
D19*
%TO.C,U3*%
X291897000Y-158191000D03*
X291897000Y-158841000D03*
X291897000Y-159491000D03*
X291897000Y-160141000D03*
X291897000Y-160791000D03*
X291897000Y-161441000D03*
X291897000Y-162091000D03*
X291897000Y-162741000D03*
X291897000Y-163391000D03*
X291897000Y-164041000D03*
X297637000Y-164041000D03*
X297637000Y-163391000D03*
X297637000Y-162741000D03*
X297637000Y-162091000D03*
X297637000Y-161441000D03*
X297637000Y-160791000D03*
X297637000Y-160141000D03*
X297637000Y-159491000D03*
X297637000Y-158841000D03*
X297637000Y-158191000D03*
%TD*%
D12*
%TO.C,M19*%
X245491000Y-99648000D03*
X245491000Y-97747998D03*
X243459000Y-98697999D03*
%TD*%
D14*
%TO.C,U5*%
X315722000Y-163591000D03*
X316992000Y-163591000D03*
X318262000Y-163591000D03*
X319532000Y-163591000D03*
X320802000Y-163591000D03*
X322072000Y-163591000D03*
X323342000Y-163591000D03*
X324612000Y-163591000D03*
X324612000Y-158641000D03*
X323342000Y-158641000D03*
X322072000Y-158641000D03*
X320802000Y-158641000D03*
X319532000Y-158641000D03*
X318262000Y-158641000D03*
X316992000Y-158641000D03*
X315722000Y-158641000D03*
%TD*%
D12*
%TO.C,M5*%
X169697400Y-147445802D03*
X169697400Y-145545800D03*
X167665400Y-146495801D03*
%TD*%
D10*
%TO.C,R11*%
X277368000Y-150274000D03*
X277368000Y-152099000D03*
%TD*%
D11*
%TO.C,R18*%
X127635000Y-139018000D03*
X127635000Y-137193000D03*
%TD*%
D12*
%TO.C,M17*%
X102235000Y-90127998D03*
X102235000Y-92028000D03*
X104267000Y-91077999D03*
%TD*%
D16*
%TO.C,R42*%
X180824500Y-171276000D03*
X182649500Y-171276000D03*
%TD*%
D11*
%TO.C,R32*%
X317858707Y-139272000D03*
X317858707Y-137447000D03*
%TD*%
D10*
%TO.C,R3*%
X99822000Y-150719099D03*
X99822000Y-152544099D03*
%TD*%
D12*
%TO.C,M15*%
X360934000Y-147141002D03*
X360934000Y-145241000D03*
X358902000Y-146191001D03*
%TD*%
D10*
%TO.C,R14*%
X343154000Y-150321000D03*
X343154000Y-152146000D03*
%TD*%
D20*
%TO.C,3V4*%
X199517000Y-168736000D03*
%TD*%
D11*
%TO.C,R23*%
X119507001Y-139121500D03*
X119507001Y-137296500D03*
%TD*%
D16*
%TO.C,R33*%
X102214089Y-86891818D03*
X104039089Y-86891818D03*
%TD*%
D13*
%TO.C,GND2*%
X66167000Y-162386000D03*
%TD*%
D11*
%TO.C,R26*%
X305666707Y-139272000D03*
X305666707Y-137447000D03*
%TD*%
D12*
%TO.C,M8*%
X177317400Y-147445802D03*
X177317400Y-145545800D03*
X175285400Y-146495801D03*
%TD*%
D10*
%TO.C,R2*%
X76962000Y-150719099D03*
X76962000Y-152544099D03*
%TD*%
M02*
