%TF.GenerationSoftware,KiCad,Pcbnew,8.0.8-8.0.8-0~ubuntu24.04.1*%
%TF.CreationDate,2025-08-07T17:01:00-04:00*%
%TF.ProjectId,display_15_in,64697370-6c61-4795-9f31-355f696e2e6b,2*%
%TF.SameCoordinates,Original*%
%TF.FileFunction,Drillmap*%
%TF.FilePolarity,Positive*%
%FSLAX45Y45*%
G04 Gerber Fmt 4.5, Leading zero omitted, Abs format (unit mm)*
G04 Created by KiCad (PCBNEW 8.0.8-8.0.8-0~ubuntu24.04.1) date 2025-08-07 17:01:00*
%MOMM*%
%LPD*%
G01*
G04 APERTURE LIST*
%ADD10C,0.050000*%
%ADD11C,0.200000*%
%ADD12C,0.430000*%
G04 APERTURE END LIST*
D10*
X5854700Y-18397600D02*
X37858700Y-18397600D01*
X5854700Y-7729600D02*
X37858700Y-7729600D01*
X38366700Y-8237600D02*
X38366700Y-17889600D01*
X37858700Y-7729600D02*
X38366700Y-8237600D01*
X5346700Y-17889600D02*
X5854700Y-18397600D01*
X5346700Y-8237600D02*
X5346700Y-17889600D01*
X5346700Y-8237600D02*
X5854700Y-7729600D01*
X38366700Y-17889600D02*
X37858700Y-18397600D01*
D11*
D12*
X6109600Y-8497200D02*
X6539600Y-8927200D01*
X6539600Y-8497200D02*
X6109600Y-8927200D01*
X6115950Y-17196700D02*
X6545950Y-17626700D01*
X6545950Y-17196700D02*
X6115950Y-17626700D01*
X21629000Y-12866000D02*
X22059000Y-13296000D01*
X22059000Y-12866000D02*
X21629000Y-13296000D01*
X37161100Y-17196700D02*
X37591100Y-17626700D01*
X37591100Y-17196700D02*
X37161100Y-17626700D01*
X37173800Y-8497200D02*
X37603800Y-8927200D01*
X37603800Y-8497200D02*
X37173800Y-8927200D01*
D11*
X5604977Y-18711584D02*
X5604977Y-18511584D01*
X5604977Y-18511584D02*
X5652596Y-18511584D01*
X5652596Y-18511584D02*
X5681167Y-18521108D01*
X5681167Y-18521108D02*
X5700215Y-18540155D01*
X5700215Y-18540155D02*
X5709739Y-18559203D01*
X5709739Y-18559203D02*
X5719262Y-18597298D01*
X5719262Y-18597298D02*
X5719262Y-18625870D01*
X5719262Y-18625870D02*
X5709739Y-18663965D01*
X5709739Y-18663965D02*
X5700215Y-18683012D01*
X5700215Y-18683012D02*
X5681167Y-18702060D01*
X5681167Y-18702060D02*
X5652596Y-18711584D01*
X5652596Y-18711584D02*
X5604977Y-18711584D01*
X5804977Y-18711584D02*
X5804977Y-18578250D01*
X5804977Y-18616346D02*
X5814501Y-18597298D01*
X5814501Y-18597298D02*
X5824024Y-18587774D01*
X5824024Y-18587774D02*
X5843072Y-18578250D01*
X5843072Y-18578250D02*
X5862120Y-18578250D01*
X5928786Y-18711584D02*
X5928786Y-18578250D01*
X5928786Y-18511584D02*
X5919262Y-18521108D01*
X5919262Y-18521108D02*
X5928786Y-18530631D01*
X5928786Y-18530631D02*
X5938310Y-18521108D01*
X5938310Y-18521108D02*
X5928786Y-18511584D01*
X5928786Y-18511584D02*
X5928786Y-18530631D01*
X6052596Y-18711584D02*
X6033548Y-18702060D01*
X6033548Y-18702060D02*
X6024024Y-18683012D01*
X6024024Y-18683012D02*
X6024024Y-18511584D01*
X6157358Y-18711584D02*
X6138310Y-18702060D01*
X6138310Y-18702060D02*
X6128786Y-18683012D01*
X6128786Y-18683012D02*
X6128786Y-18511584D01*
X6385929Y-18711584D02*
X6385929Y-18511584D01*
X6385929Y-18511584D02*
X6452596Y-18654441D01*
X6452596Y-18654441D02*
X6519262Y-18511584D01*
X6519262Y-18511584D02*
X6519262Y-18711584D01*
X6700215Y-18711584D02*
X6700215Y-18606822D01*
X6700215Y-18606822D02*
X6690691Y-18587774D01*
X6690691Y-18587774D02*
X6671643Y-18578250D01*
X6671643Y-18578250D02*
X6633548Y-18578250D01*
X6633548Y-18578250D02*
X6614501Y-18587774D01*
X6700215Y-18702060D02*
X6681167Y-18711584D01*
X6681167Y-18711584D02*
X6633548Y-18711584D01*
X6633548Y-18711584D02*
X6614501Y-18702060D01*
X6614501Y-18702060D02*
X6604977Y-18683012D01*
X6604977Y-18683012D02*
X6604977Y-18663965D01*
X6604977Y-18663965D02*
X6614501Y-18644917D01*
X6614501Y-18644917D02*
X6633548Y-18635393D01*
X6633548Y-18635393D02*
X6681167Y-18635393D01*
X6681167Y-18635393D02*
X6700215Y-18625870D01*
X6795453Y-18578250D02*
X6795453Y-18778250D01*
X6795453Y-18587774D02*
X6814501Y-18578250D01*
X6814501Y-18578250D02*
X6852596Y-18578250D01*
X6852596Y-18578250D02*
X6871643Y-18587774D01*
X6871643Y-18587774D02*
X6881167Y-18597298D01*
X6881167Y-18597298D02*
X6890691Y-18616346D01*
X6890691Y-18616346D02*
X6890691Y-18673489D01*
X6890691Y-18673489D02*
X6881167Y-18692536D01*
X6881167Y-18692536D02*
X6871643Y-18702060D01*
X6871643Y-18702060D02*
X6852596Y-18711584D01*
X6852596Y-18711584D02*
X6814501Y-18711584D01*
X6814501Y-18711584D02*
X6795453Y-18702060D01*
X6976405Y-18692536D02*
X6985929Y-18702060D01*
X6985929Y-18702060D02*
X6976405Y-18711584D01*
X6976405Y-18711584D02*
X6966882Y-18702060D01*
X6966882Y-18702060D02*
X6976405Y-18692536D01*
X6976405Y-18692536D02*
X6976405Y-18711584D01*
X6976405Y-18587774D02*
X6985929Y-18597298D01*
X6985929Y-18597298D02*
X6976405Y-18606822D01*
X6976405Y-18606822D02*
X6966882Y-18597298D01*
X6966882Y-18597298D02*
X6976405Y-18587774D01*
X6976405Y-18587774D02*
X6976405Y-18606822D01*
X5144200Y-18940100D02*
X5344200Y-19140100D01*
X5344200Y-18940100D02*
X5144200Y-19140100D01*
X5690691Y-18998250D02*
X5690691Y-19131584D01*
X5643072Y-18922060D02*
X5595453Y-19064917D01*
X5595453Y-19064917D02*
X5719262Y-19064917D01*
X5795453Y-19112536D02*
X5804977Y-19122060D01*
X5804977Y-19122060D02*
X5795453Y-19131584D01*
X5795453Y-19131584D02*
X5785929Y-19122060D01*
X5785929Y-19122060D02*
X5795453Y-19112536D01*
X5795453Y-19112536D02*
X5795453Y-19131584D01*
X5871643Y-18931584D02*
X5995453Y-18931584D01*
X5995453Y-18931584D02*
X5928786Y-19007774D01*
X5928786Y-19007774D02*
X5957358Y-19007774D01*
X5957358Y-19007774D02*
X5976405Y-19017298D01*
X5976405Y-19017298D02*
X5985929Y-19026822D01*
X5985929Y-19026822D02*
X5995453Y-19045870D01*
X5995453Y-19045870D02*
X5995453Y-19093489D01*
X5995453Y-19093489D02*
X5985929Y-19112536D01*
X5985929Y-19112536D02*
X5976405Y-19122060D01*
X5976405Y-19122060D02*
X5957358Y-19131584D01*
X5957358Y-19131584D02*
X5900215Y-19131584D01*
X5900215Y-19131584D02*
X5881167Y-19122060D01*
X5881167Y-19122060D02*
X5871643Y-19112536D01*
X6119262Y-18931584D02*
X6138310Y-18931584D01*
X6138310Y-18931584D02*
X6157358Y-18941108D01*
X6157358Y-18941108D02*
X6166882Y-18950631D01*
X6166882Y-18950631D02*
X6176405Y-18969679D01*
X6176405Y-18969679D02*
X6185929Y-19007774D01*
X6185929Y-19007774D02*
X6185929Y-19055393D01*
X6185929Y-19055393D02*
X6176405Y-19093489D01*
X6176405Y-19093489D02*
X6166882Y-19112536D01*
X6166882Y-19112536D02*
X6157358Y-19122060D01*
X6157358Y-19122060D02*
X6138310Y-19131584D01*
X6138310Y-19131584D02*
X6119262Y-19131584D01*
X6119262Y-19131584D02*
X6100215Y-19122060D01*
X6100215Y-19122060D02*
X6090691Y-19112536D01*
X6090691Y-19112536D02*
X6081167Y-19093489D01*
X6081167Y-19093489D02*
X6071643Y-19055393D01*
X6071643Y-19055393D02*
X6071643Y-19007774D01*
X6071643Y-19007774D02*
X6081167Y-18969679D01*
X6081167Y-18969679D02*
X6090691Y-18950631D01*
X6090691Y-18950631D02*
X6100215Y-18941108D01*
X6100215Y-18941108D02*
X6119262Y-18931584D01*
X6309739Y-18931584D02*
X6328786Y-18931584D01*
X6328786Y-18931584D02*
X6347834Y-18941108D01*
X6347834Y-18941108D02*
X6357358Y-18950631D01*
X6357358Y-18950631D02*
X6366882Y-18969679D01*
X6366882Y-18969679D02*
X6376405Y-19007774D01*
X6376405Y-19007774D02*
X6376405Y-19055393D01*
X6376405Y-19055393D02*
X6366882Y-19093489D01*
X6366882Y-19093489D02*
X6357358Y-19112536D01*
X6357358Y-19112536D02*
X6347834Y-19122060D01*
X6347834Y-19122060D02*
X6328786Y-19131584D01*
X6328786Y-19131584D02*
X6309739Y-19131584D01*
X6309739Y-19131584D02*
X6290691Y-19122060D01*
X6290691Y-19122060D02*
X6281167Y-19112536D01*
X6281167Y-19112536D02*
X6271643Y-19093489D01*
X6271643Y-19093489D02*
X6262120Y-19055393D01*
X6262120Y-19055393D02*
X6262120Y-19007774D01*
X6262120Y-19007774D02*
X6271643Y-18969679D01*
X6271643Y-18969679D02*
X6281167Y-18950631D01*
X6281167Y-18950631D02*
X6290691Y-18941108D01*
X6290691Y-18941108D02*
X6309739Y-18931584D01*
X6462120Y-19131584D02*
X6462120Y-18998250D01*
X6462120Y-19017298D02*
X6471643Y-19007774D01*
X6471643Y-19007774D02*
X6490691Y-18998250D01*
X6490691Y-18998250D02*
X6519263Y-18998250D01*
X6519263Y-18998250D02*
X6538310Y-19007774D01*
X6538310Y-19007774D02*
X6547834Y-19026822D01*
X6547834Y-19026822D02*
X6547834Y-19131584D01*
X6547834Y-19026822D02*
X6557358Y-19007774D01*
X6557358Y-19007774D02*
X6576405Y-18998250D01*
X6576405Y-18998250D02*
X6604977Y-18998250D01*
X6604977Y-18998250D02*
X6624024Y-19007774D01*
X6624024Y-19007774D02*
X6633548Y-19026822D01*
X6633548Y-19026822D02*
X6633548Y-19131584D01*
X6728786Y-19131584D02*
X6728786Y-18998250D01*
X6728786Y-19017298D02*
X6738310Y-19007774D01*
X6738310Y-19007774D02*
X6757358Y-18998250D01*
X6757358Y-18998250D02*
X6785929Y-18998250D01*
X6785929Y-18998250D02*
X6804977Y-19007774D01*
X6804977Y-19007774D02*
X6814501Y-19026822D01*
X6814501Y-19026822D02*
X6814501Y-19131584D01*
X6814501Y-19026822D02*
X6824024Y-19007774D01*
X6824024Y-19007774D02*
X6843072Y-18998250D01*
X6843072Y-18998250D02*
X6871643Y-18998250D01*
X6871643Y-18998250D02*
X6890691Y-19007774D01*
X6890691Y-19007774D02*
X6900215Y-19026822D01*
X6900215Y-19026822D02*
X6900215Y-19131584D01*
X7290691Y-18922060D02*
X7119263Y-19179203D01*
X7547834Y-18931584D02*
X7566882Y-18931584D01*
X7566882Y-18931584D02*
X7585929Y-18941108D01*
X7585929Y-18941108D02*
X7595453Y-18950631D01*
X7595453Y-18950631D02*
X7604977Y-18969679D01*
X7604977Y-18969679D02*
X7614501Y-19007774D01*
X7614501Y-19007774D02*
X7614501Y-19055393D01*
X7614501Y-19055393D02*
X7604977Y-19093489D01*
X7604977Y-19093489D02*
X7595453Y-19112536D01*
X7595453Y-19112536D02*
X7585929Y-19122060D01*
X7585929Y-19122060D02*
X7566882Y-19131584D01*
X7566882Y-19131584D02*
X7547834Y-19131584D01*
X7547834Y-19131584D02*
X7528786Y-19122060D01*
X7528786Y-19122060D02*
X7519263Y-19112536D01*
X7519263Y-19112536D02*
X7509739Y-19093489D01*
X7509739Y-19093489D02*
X7500215Y-19055393D01*
X7500215Y-19055393D02*
X7500215Y-19007774D01*
X7500215Y-19007774D02*
X7509739Y-18969679D01*
X7509739Y-18969679D02*
X7519263Y-18950631D01*
X7519263Y-18950631D02*
X7528786Y-18941108D01*
X7528786Y-18941108D02*
X7547834Y-18931584D01*
X7700215Y-19112536D02*
X7709739Y-19122060D01*
X7709739Y-19122060D02*
X7700215Y-19131584D01*
X7700215Y-19131584D02*
X7690691Y-19122060D01*
X7690691Y-19122060D02*
X7700215Y-19112536D01*
X7700215Y-19112536D02*
X7700215Y-19131584D01*
X7900215Y-19131584D02*
X7785929Y-19131584D01*
X7843072Y-19131584D02*
X7843072Y-18931584D01*
X7843072Y-18931584D02*
X7824025Y-18960155D01*
X7824025Y-18960155D02*
X7804977Y-18979203D01*
X7804977Y-18979203D02*
X7785929Y-18988727D01*
X8071644Y-18931584D02*
X8033548Y-18931584D01*
X8033548Y-18931584D02*
X8014501Y-18941108D01*
X8014501Y-18941108D02*
X8004977Y-18950631D01*
X8004977Y-18950631D02*
X7985929Y-18979203D01*
X7985929Y-18979203D02*
X7976406Y-19017298D01*
X7976406Y-19017298D02*
X7976406Y-19093489D01*
X7976406Y-19093489D02*
X7985929Y-19112536D01*
X7985929Y-19112536D02*
X7995453Y-19122060D01*
X7995453Y-19122060D02*
X8014501Y-19131584D01*
X8014501Y-19131584D02*
X8052596Y-19131584D01*
X8052596Y-19131584D02*
X8071644Y-19122060D01*
X8071644Y-19122060D02*
X8081167Y-19112536D01*
X8081167Y-19112536D02*
X8090691Y-19093489D01*
X8090691Y-19093489D02*
X8090691Y-19045870D01*
X8090691Y-19045870D02*
X8081167Y-19026822D01*
X8081167Y-19026822D02*
X8071644Y-19017298D01*
X8071644Y-19017298D02*
X8052596Y-19007774D01*
X8052596Y-19007774D02*
X8014501Y-19007774D01*
X8014501Y-19007774D02*
X7995453Y-19017298D01*
X7995453Y-19017298D02*
X7985929Y-19026822D01*
X7985929Y-19026822D02*
X7976406Y-19045870D01*
X8185929Y-19131584D02*
X8224025Y-19131584D01*
X8224025Y-19131584D02*
X8243072Y-19122060D01*
X8243072Y-19122060D02*
X8252596Y-19112536D01*
X8252596Y-19112536D02*
X8271644Y-19083965D01*
X8271644Y-19083965D02*
X8281167Y-19045870D01*
X8281167Y-19045870D02*
X8281167Y-18969679D01*
X8281167Y-18969679D02*
X8271644Y-18950631D01*
X8271644Y-18950631D02*
X8262120Y-18941108D01*
X8262120Y-18941108D02*
X8243072Y-18931584D01*
X8243072Y-18931584D02*
X8204977Y-18931584D01*
X8204977Y-18931584D02*
X8185929Y-18941108D01*
X8185929Y-18941108D02*
X8176406Y-18950631D01*
X8176406Y-18950631D02*
X8166882Y-18969679D01*
X8166882Y-18969679D02*
X8166882Y-19017298D01*
X8166882Y-19017298D02*
X8176406Y-19036346D01*
X8176406Y-19036346D02*
X8185929Y-19045870D01*
X8185929Y-19045870D02*
X8204977Y-19055393D01*
X8204977Y-19055393D02*
X8243072Y-19055393D01*
X8243072Y-19055393D02*
X8262120Y-19045870D01*
X8262120Y-19045870D02*
X8271644Y-19036346D01*
X8271644Y-19036346D02*
X8281167Y-19017298D01*
X8347834Y-18931584D02*
X8471644Y-18931584D01*
X8471644Y-18931584D02*
X8404977Y-19007774D01*
X8404977Y-19007774D02*
X8433549Y-19007774D01*
X8433549Y-19007774D02*
X8452596Y-19017298D01*
X8452596Y-19017298D02*
X8462120Y-19026822D01*
X8462120Y-19026822D02*
X8471644Y-19045870D01*
X8471644Y-19045870D02*
X8471644Y-19093489D01*
X8471644Y-19093489D02*
X8462120Y-19112536D01*
X8462120Y-19112536D02*
X8452596Y-19122060D01*
X8452596Y-19122060D02*
X8433549Y-19131584D01*
X8433549Y-19131584D02*
X8376406Y-19131584D01*
X8376406Y-19131584D02*
X8357358Y-19122060D01*
X8357358Y-19122060D02*
X8347834Y-19112536D01*
X8547834Y-18931584D02*
X8547834Y-18969679D01*
X8624025Y-18931584D02*
X8624025Y-18969679D01*
X8919263Y-19207774D02*
X8909739Y-19198250D01*
X8909739Y-19198250D02*
X8890691Y-19169679D01*
X8890691Y-19169679D02*
X8881168Y-19150631D01*
X8881168Y-19150631D02*
X8871644Y-19122060D01*
X8871644Y-19122060D02*
X8862120Y-19074441D01*
X8862120Y-19074441D02*
X8862120Y-19036346D01*
X8862120Y-19036346D02*
X8871644Y-18988727D01*
X8871644Y-18988727D02*
X8881168Y-18960155D01*
X8881168Y-18960155D02*
X8890691Y-18941108D01*
X8890691Y-18941108D02*
X8909739Y-18912536D01*
X8909739Y-18912536D02*
X8919263Y-18903012D01*
X9090691Y-18931584D02*
X8995453Y-18931584D01*
X8995453Y-18931584D02*
X8985930Y-19026822D01*
X8985930Y-19026822D02*
X8995453Y-19017298D01*
X8995453Y-19017298D02*
X9014501Y-19007774D01*
X9014501Y-19007774D02*
X9062120Y-19007774D01*
X9062120Y-19007774D02*
X9081168Y-19017298D01*
X9081168Y-19017298D02*
X9090691Y-19026822D01*
X9090691Y-19026822D02*
X9100215Y-19045870D01*
X9100215Y-19045870D02*
X9100215Y-19093489D01*
X9100215Y-19093489D02*
X9090691Y-19112536D01*
X9090691Y-19112536D02*
X9081168Y-19122060D01*
X9081168Y-19122060D02*
X9062120Y-19131584D01*
X9062120Y-19131584D02*
X9014501Y-19131584D01*
X9014501Y-19131584D02*
X8995453Y-19122060D01*
X8995453Y-19122060D02*
X8985930Y-19112536D01*
X9338311Y-19131584D02*
X9338311Y-18931584D01*
X9424025Y-19131584D02*
X9424025Y-19026822D01*
X9424025Y-19026822D02*
X9414501Y-19007774D01*
X9414501Y-19007774D02*
X9395453Y-18998250D01*
X9395453Y-18998250D02*
X9366882Y-18998250D01*
X9366882Y-18998250D02*
X9347834Y-19007774D01*
X9347834Y-19007774D02*
X9338311Y-19017298D01*
X9547834Y-19131584D02*
X9528787Y-19122060D01*
X9528787Y-19122060D02*
X9519263Y-19112536D01*
X9519263Y-19112536D02*
X9509739Y-19093489D01*
X9509739Y-19093489D02*
X9509739Y-19036346D01*
X9509739Y-19036346D02*
X9519263Y-19017298D01*
X9519263Y-19017298D02*
X9528787Y-19007774D01*
X9528787Y-19007774D02*
X9547834Y-18998250D01*
X9547834Y-18998250D02*
X9576406Y-18998250D01*
X9576406Y-18998250D02*
X9595453Y-19007774D01*
X9595453Y-19007774D02*
X9604977Y-19017298D01*
X9604977Y-19017298D02*
X9614501Y-19036346D01*
X9614501Y-19036346D02*
X9614501Y-19093489D01*
X9614501Y-19093489D02*
X9604977Y-19112536D01*
X9604977Y-19112536D02*
X9595453Y-19122060D01*
X9595453Y-19122060D02*
X9576406Y-19131584D01*
X9576406Y-19131584D02*
X9547834Y-19131584D01*
X9728787Y-19131584D02*
X9709739Y-19122060D01*
X9709739Y-19122060D02*
X9700215Y-19103012D01*
X9700215Y-19103012D02*
X9700215Y-18931584D01*
X9881168Y-19122060D02*
X9862120Y-19131584D01*
X9862120Y-19131584D02*
X9824025Y-19131584D01*
X9824025Y-19131584D02*
X9804977Y-19122060D01*
X9804977Y-19122060D02*
X9795453Y-19103012D01*
X9795453Y-19103012D02*
X9795453Y-19026822D01*
X9795453Y-19026822D02*
X9804977Y-19007774D01*
X9804977Y-19007774D02*
X9824025Y-18998250D01*
X9824025Y-18998250D02*
X9862120Y-18998250D01*
X9862120Y-18998250D02*
X9881168Y-19007774D01*
X9881168Y-19007774D02*
X9890692Y-19026822D01*
X9890692Y-19026822D02*
X9890692Y-19045870D01*
X9890692Y-19045870D02*
X9795453Y-19064917D01*
X9966882Y-19122060D02*
X9985930Y-19131584D01*
X9985930Y-19131584D02*
X10024025Y-19131584D01*
X10024025Y-19131584D02*
X10043073Y-19122060D01*
X10043073Y-19122060D02*
X10052596Y-19103012D01*
X10052596Y-19103012D02*
X10052596Y-19093489D01*
X10052596Y-19093489D02*
X10043073Y-19074441D01*
X10043073Y-19074441D02*
X10024025Y-19064917D01*
X10024025Y-19064917D02*
X9995453Y-19064917D01*
X9995453Y-19064917D02*
X9976406Y-19055393D01*
X9976406Y-19055393D02*
X9966882Y-19036346D01*
X9966882Y-19036346D02*
X9966882Y-19026822D01*
X9966882Y-19026822D02*
X9976406Y-19007774D01*
X9976406Y-19007774D02*
X9995453Y-18998250D01*
X9995453Y-18998250D02*
X10024025Y-18998250D01*
X10024025Y-18998250D02*
X10043073Y-19007774D01*
X10119263Y-19207774D02*
X10128787Y-19198250D01*
X10128787Y-19198250D02*
X10147834Y-19169679D01*
X10147834Y-19169679D02*
X10157358Y-19150631D01*
X10157358Y-19150631D02*
X10166882Y-19122060D01*
X10166882Y-19122060D02*
X10176406Y-19074441D01*
X10176406Y-19074441D02*
X10176406Y-19036346D01*
X10176406Y-19036346D02*
X10166882Y-18988727D01*
X10166882Y-18988727D02*
X10157358Y-18960155D01*
X10157358Y-18960155D02*
X10147834Y-18941108D01*
X10147834Y-18941108D02*
X10128787Y-18912536D01*
X10128787Y-18912536D02*
X10119263Y-18903012D01*
X10481168Y-19207774D02*
X10471644Y-19198250D01*
X10471644Y-19198250D02*
X10452596Y-19169679D01*
X10452596Y-19169679D02*
X10443073Y-19150631D01*
X10443073Y-19150631D02*
X10433549Y-19122060D01*
X10433549Y-19122060D02*
X10424025Y-19074441D01*
X10424025Y-19074441D02*
X10424025Y-19036346D01*
X10424025Y-19036346D02*
X10433549Y-18988727D01*
X10433549Y-18988727D02*
X10443073Y-18960155D01*
X10443073Y-18960155D02*
X10452596Y-18941108D01*
X10452596Y-18941108D02*
X10471644Y-18912536D01*
X10471644Y-18912536D02*
X10481168Y-18903012D01*
X10557358Y-18998250D02*
X10557358Y-19131584D01*
X10557358Y-19017298D02*
X10566882Y-19007774D01*
X10566882Y-19007774D02*
X10585930Y-18998250D01*
X10585930Y-18998250D02*
X10614501Y-18998250D01*
X10614501Y-18998250D02*
X10633549Y-19007774D01*
X10633549Y-19007774D02*
X10643073Y-19026822D01*
X10643073Y-19026822D02*
X10643073Y-19131584D01*
X10766882Y-19131584D02*
X10747834Y-19122060D01*
X10747834Y-19122060D02*
X10738311Y-19112536D01*
X10738311Y-19112536D02*
X10728787Y-19093489D01*
X10728787Y-19093489D02*
X10728787Y-19036346D01*
X10728787Y-19036346D02*
X10738311Y-19017298D01*
X10738311Y-19017298D02*
X10747834Y-19007774D01*
X10747834Y-19007774D02*
X10766882Y-18998250D01*
X10766882Y-18998250D02*
X10795454Y-18998250D01*
X10795454Y-18998250D02*
X10814501Y-19007774D01*
X10814501Y-19007774D02*
X10824025Y-19017298D01*
X10824025Y-19017298D02*
X10833549Y-19036346D01*
X10833549Y-19036346D02*
X10833549Y-19093489D01*
X10833549Y-19093489D02*
X10824025Y-19112536D01*
X10824025Y-19112536D02*
X10814501Y-19122060D01*
X10814501Y-19122060D02*
X10795454Y-19131584D01*
X10795454Y-19131584D02*
X10766882Y-19131584D01*
X10890692Y-18998250D02*
X10966882Y-18998250D01*
X10919263Y-18931584D02*
X10919263Y-19103012D01*
X10919263Y-19103012D02*
X10928787Y-19122060D01*
X10928787Y-19122060D02*
X10947834Y-19131584D01*
X10947834Y-19131584D02*
X10966882Y-19131584D01*
X11185930Y-18998250D02*
X11185930Y-19198250D01*
X11185930Y-19007774D02*
X11204977Y-18998250D01*
X11204977Y-18998250D02*
X11243073Y-18998250D01*
X11243073Y-18998250D02*
X11262120Y-19007774D01*
X11262120Y-19007774D02*
X11271644Y-19017298D01*
X11271644Y-19017298D02*
X11281168Y-19036346D01*
X11281168Y-19036346D02*
X11281168Y-19093489D01*
X11281168Y-19093489D02*
X11271644Y-19112536D01*
X11271644Y-19112536D02*
X11262120Y-19122060D01*
X11262120Y-19122060D02*
X11243073Y-19131584D01*
X11243073Y-19131584D02*
X11204977Y-19131584D01*
X11204977Y-19131584D02*
X11185930Y-19122060D01*
X11395453Y-19131584D02*
X11376406Y-19122060D01*
X11376406Y-19122060D02*
X11366882Y-19103012D01*
X11366882Y-19103012D02*
X11366882Y-18931584D01*
X11557358Y-19131584D02*
X11557358Y-19026822D01*
X11557358Y-19026822D02*
X11547834Y-19007774D01*
X11547834Y-19007774D02*
X11528787Y-18998250D01*
X11528787Y-18998250D02*
X11490692Y-18998250D01*
X11490692Y-18998250D02*
X11471644Y-19007774D01*
X11557358Y-19122060D02*
X11538311Y-19131584D01*
X11538311Y-19131584D02*
X11490692Y-19131584D01*
X11490692Y-19131584D02*
X11471644Y-19122060D01*
X11471644Y-19122060D02*
X11462120Y-19103012D01*
X11462120Y-19103012D02*
X11462120Y-19083965D01*
X11462120Y-19083965D02*
X11471644Y-19064917D01*
X11471644Y-19064917D02*
X11490692Y-19055393D01*
X11490692Y-19055393D02*
X11538311Y-19055393D01*
X11538311Y-19055393D02*
X11557358Y-19045870D01*
X11624025Y-18998250D02*
X11700215Y-18998250D01*
X11652596Y-18931584D02*
X11652596Y-19103012D01*
X11652596Y-19103012D02*
X11662120Y-19122060D01*
X11662120Y-19122060D02*
X11681168Y-19131584D01*
X11681168Y-19131584D02*
X11700215Y-19131584D01*
X11843073Y-19122060D02*
X11824025Y-19131584D01*
X11824025Y-19131584D02*
X11785930Y-19131584D01*
X11785930Y-19131584D02*
X11766882Y-19122060D01*
X11766882Y-19122060D02*
X11757358Y-19103012D01*
X11757358Y-19103012D02*
X11757358Y-19026822D01*
X11757358Y-19026822D02*
X11766882Y-19007774D01*
X11766882Y-19007774D02*
X11785930Y-18998250D01*
X11785930Y-18998250D02*
X11824025Y-18998250D01*
X11824025Y-18998250D02*
X11843073Y-19007774D01*
X11843073Y-19007774D02*
X11852596Y-19026822D01*
X11852596Y-19026822D02*
X11852596Y-19045870D01*
X11852596Y-19045870D02*
X11757358Y-19064917D01*
X12024025Y-19131584D02*
X12024025Y-18931584D01*
X12024025Y-19122060D02*
X12004977Y-19131584D01*
X12004977Y-19131584D02*
X11966882Y-19131584D01*
X11966882Y-19131584D02*
X11947834Y-19122060D01*
X11947834Y-19122060D02*
X11938311Y-19112536D01*
X11938311Y-19112536D02*
X11928787Y-19093489D01*
X11928787Y-19093489D02*
X11928787Y-19036346D01*
X11928787Y-19036346D02*
X11938311Y-19017298D01*
X11938311Y-19017298D02*
X11947834Y-19007774D01*
X11947834Y-19007774D02*
X11966882Y-18998250D01*
X11966882Y-18998250D02*
X12004977Y-18998250D01*
X12004977Y-18998250D02*
X12024025Y-19007774D01*
X12100215Y-19207774D02*
X12109739Y-19198250D01*
X12109739Y-19198250D02*
X12128787Y-19169679D01*
X12128787Y-19169679D02*
X12138311Y-19150631D01*
X12138311Y-19150631D02*
X12147834Y-19122060D01*
X12147834Y-19122060D02*
X12157358Y-19074441D01*
X12157358Y-19074441D02*
X12157358Y-19036346D01*
X12157358Y-19036346D02*
X12147834Y-18988727D01*
X12147834Y-18988727D02*
X12138311Y-18960155D01*
X12138311Y-18960155D02*
X12128787Y-18941108D01*
X12128787Y-18941108D02*
X12109739Y-18912536D01*
X12109739Y-18912536D02*
X12100215Y-18903012D01*
M02*
