M48
; DRILL file {KiCad 8.0.8-8.0.8-0~ubuntu24.04.1} date 2025-08-07T17:00:56-0400
; FORMAT={-:-/ absolute / metric / decimal}
; #@! TF.CreationDate,2025-08-07T17:00:56-04:00
; #@! TF.GenerationSoftware,Kicad,Pcbnew,8.0.8-8.0.8-0~ubuntu24.04.1
; #@! TF.FileFunction,Plated,1,2,PTH
FMAT,2
METRIC
; #@! TA.AperFunction,Plated,PTH,ViaDrill
T1C0.320
; #@! TA.AperFunction,Plated,PTH,ViaDrill
T2C0.350
; #@! TA.AperFunction,Plated,PTH,ViaDrill
T3C0.420
; #@! TA.AperFunction,Plated,PTH,ComponentDrill
T4C0.711
; #@! TA.AperFunction,Plated,PTH,ComponentDrill
T5C0.762
; #@! TA.AperFunction,Plated,PTH,ComponentDrill
T6C0.800
; #@! TA.AperFunction,Plated,PTH,ComponentDrill
T7C0.838
; #@! TA.AperFunction,Plated,PTH,ComponentDrill
T8C0.900
%
G90
G05
T1
X81.407Y-149.686
X81.407Y-162.386
X83.312Y-133.35
X83.947Y-142.066
X84.582Y-154.131
X86.868Y-131.318
X87.757Y-84.516
X87.838Y-82.539
X88.265Y-156.29
X89.027Y-149.686
X90.283Y-84.499
X90.296Y-81.129
X91.694Y-129.54
X94.996Y-171.276
X96.647Y-149.686
X96.965Y-152.544
X101.283Y-152.544
X105.537Y-149.686
X106.553Y-91.012
X109.601Y-127.588
X109.601Y-136.986
X109.601Y-151.718
X109.601Y-157.56
X114.427Y-149.686
X116.332Y-165.815
X117.094Y-128.016
X117.094Y-136.906
X117.602Y-165.815
X118.745Y-146.892
X120.523Y-148.67
X121.158Y-128.016
X121.158Y-136.906
X121.412Y-165.942
X125.222Y-128.016
X125.222Y-136.906
X129.54Y-128.016
X129.54Y-136.906
X131.699Y-153.75
X131.699Y-155.401
X133.604Y-128.27
X133.604Y-136.906
X133.667Y-159.782
X135.636Y-161.751
X137.668Y-128.778
X137.668Y-136.906
X139.573Y-156.798
X141.224Y-161.751
X141.478Y-130.048
X141.478Y-136.906
X142.748Y-160.354
X146.177Y-149.686
X153.289Y-91.012
X156.845Y-169.617
X159.893Y-158.068
X161.417Y-168.482
X162.179Y-158.068
X167.513Y-109.554
X167.513Y-111.586
X167.513Y-113.11
X167.513Y-114.888
X168.402Y-149.686
X168.783Y-158.068
X168.783Y-169.752
X168.91Y-132.08
X169.037Y-92.282
X169.037Y-95.965
X170.561Y-109.554
X171.323Y-84.408
X172.593Y-111.586
X172.72Y-135.128
X172.847Y-89.996
X172.847Y-142.701
X173.674Y-135.698
X174.244Y-133.604
X175.387Y-113.11
X175.768Y-135.636
X176.022Y-149.686
X177.927Y-114.888
X179.705Y-167.974
X179.959Y-84.408
X180.467Y-157.814
X181.229Y-162.429
X181.229Y-173.308
X181.864Y-174.832
X182.245Y-161.233
X182.372Y-166.069
X182.753Y-169.498
X183.388Y-159.973
X183.515Y-88.98
X183.515Y-175.975
X183.642Y-149.686
X185.166Y-168.863
X185.547Y-112.856
X186.563Y-167.72
X187.579Y-166.577
X188.722Y-165.307
X190.881Y-89.234
X190.881Y-103.712
X193.675Y-89.234
X193.675Y-103.712
X193.675Y-153.496
X195.961Y-89.234
X195.961Y-103.712
X197.993Y-89.234
X197.993Y-103.712
X205.359Y-163.91
X205.359Y-166.196
X207.645Y-163.91
X209.677Y-153.75
X209.931Y-92.173
X209.931Y-93.842
X209.931Y-95.511
X209.931Y-97.181
X209.931Y-100.519
X209.931Y-102.188
X210.312Y-134.446
X210.331Y-179.512
X211.644Y-153.685
X212.471Y-97.219
X212.471Y-171.191
X212.801Y-105.058
X214.503Y-162.471
X214.503Y-173.054
X215.519Y-100.517
X215.852Y-105.072
X216.154Y-170.26
X216.535Y-161.37
X218.186Y-164.672
X218.313Y-172.038
X219.075Y-177.753
X219.583Y-102.188
X219.837Y-163.91
X220.472Y-159.846
X221.107Y-178.769
X222.051Y-95.512
X222.504Y-157.433
X223.139Y-175.848
X223.774Y-155.147
X224.663Y-94.06
X224.917Y-176.779
X225.171Y-82.376
X226.695Y-158.83
X227.36Y-174.1
X227.393Y-156.353
X228.981Y-91.774
X228.981Y-96.346
X229.108Y-174.917
X231.902Y-155.401
X234.442Y-128.731
X241.046Y-165.434
X241.173Y-98.632
X242.951Y-89.742
X245.364Y-165.434
X247.269Y-159.211
X247.904Y-165.434
X248.793Y-89.742
X249.111Y-161.688
X251.714Y-161.751
X252.476Y-142.32
X252.73Y-152.353
X252.73Y-167.466
X253.619Y-155.147
X253.619Y-166.704
X256.413Y-91.52
X257.928Y-113.533
X257.946Y-104.127
X258.572Y-150.321
X259.715Y-91.52
X261.366Y-133.303
X261.747Y-114.38
X262.382Y-142.701
X263.779Y-84.408
X264.287Y-112.856
X265.049Y-131.398
X265.303Y-82.884
X266.192Y-150.321
X266.827Y-111.332
X269.367Y-82.884
X269.367Y-84.408
X269.367Y-111.332
X269.367Y-112.856
X269.367Y-114.38
X269.875Y-129.62
X272.669Y-171.276
X273.177Y-150.321
X285.242Y-150.321
X292.481Y-152.099
X292.481Y-153.21
X292.481Y-154.385
X292.481Y-155.401
X295.275Y-128.096
X295.275Y-136.986
X295.656Y-164.037
X297.815Y-165.18
X299.339Y-128.096
X299.339Y-136.986
X300.863Y-160.768
X301.625Y-158.068
X302.387Y-163.148
X303.403Y-128.096
X303.403Y-136.986
X304.292Y-157.56
X305.943Y-160.768
X306.578Y-157.56
X307.721Y-128.096
X307.721Y-136.986
X308.103Y-156.672
X308.105Y-160.744
X311.785Y-128.35
X311.785Y-136.986
X315.277Y-169.561
X315.849Y-128.858
X315.849Y-136.986
X315.976Y-154.385
X316.992Y-167.339
X317.881Y-152.099
X317.881Y-155.782
X319.659Y-130.128
X319.659Y-136.986
X319.659Y-165.942
X320.167Y-153.369
X320.929Y-165.942
X322.183Y-156.02
X324.739Y-165.942
X324.993Y-155.401
X325.882Y-133.176
X326.263Y-120.857
X329.184Y-163.148
X331.597Y-150.321
X334.899Y-87.71
X346.202Y-150.321
X346.202Y-158.576
X346.837Y-108.981
X346.85Y-115.5
X347.091Y-132.16
X350.901Y-135.208
X351.855Y-135.778
X352.425Y-133.684
X353.187Y-142.701
X353.373Y-150.286
X353.949Y-135.716
X355.981Y-156.417
X358.394Y-156.417
X360.172Y-150.321
X362.585Y-171.276
T2
X68.707Y-147.146
X110.363Y-164.164
X118.999Y-166.704
X135.763Y-165.18
X246.507Y-146.384
X299.593Y-158.068
X322.072Y-166.577
X334.899Y-147.785
T3
X156.591Y-146.892
T4
X211.584Y-86.186
X211.584Y-88.726
X213.584Y-86.186
X213.584Y-88.726
X215.584Y-86.186
X215.584Y-88.726
X217.584Y-86.186
X217.584Y-88.726
X219.584Y-86.186
X219.584Y-88.726
X221.584Y-86.186
X221.584Y-88.726
X223.584Y-86.186
X223.584Y-88.726
X225.584Y-86.186
X225.584Y-88.726
T5
X76.302Y-127.438
X76.302Y-137.597
X78.842Y-127.438
X78.842Y-137.597
X81.382Y-127.438
X81.382Y-137.597
X83.922Y-127.438
X83.922Y-137.597
X86.462Y-127.438
X86.462Y-137.597
X89.002Y-127.438
X89.002Y-137.597
X91.542Y-127.438
X91.542Y-137.597
X94.082Y-127.438
X94.082Y-137.597
X165.125Y-127.461
X165.125Y-137.621
X167.665Y-127.461
X167.665Y-137.621
X170.205Y-127.461
X170.205Y-137.621
X172.745Y-127.461
X172.745Y-137.621
X175.285Y-127.461
X175.285Y-137.621
X177.825Y-127.461
X177.825Y-137.621
X180.365Y-127.461
X180.365Y-137.621
X182.905Y-127.461
X182.905Y-137.621
X254.127Y-127.414
X254.127Y-137.574
X256.667Y-127.414
X256.667Y-137.574
X259.207Y-127.414
X259.207Y-137.574
X261.747Y-127.414
X261.747Y-137.574
X264.287Y-127.414
X264.287Y-137.574
X266.827Y-127.414
X266.827Y-137.574
X269.367Y-127.414
X269.367Y-137.574
X271.907Y-127.414
X271.907Y-137.574
X343.027Y-127.461
X343.027Y-137.621
X345.567Y-127.461
X345.567Y-137.621
X348.107Y-127.461
X348.107Y-137.621
X350.647Y-127.461
X350.647Y-137.621
X353.187Y-127.461
X353.187Y-137.621
X355.727Y-127.461
X355.727Y-137.621
X358.267Y-127.461
X358.267Y-137.621
X360.807Y-127.461
X360.807Y-137.621
T6
X80.137Y-87.496
X80.137Y-117.896
X82.677Y-87.496
X82.677Y-117.896
X85.217Y-87.496
X85.217Y-117.896
X87.757Y-87.496
X87.757Y-117.896
X90.297Y-87.496
X90.297Y-117.896
X169.037Y-87.496
X169.037Y-117.896
X171.577Y-87.496
X171.577Y-117.896
X174.117Y-87.496
X174.117Y-117.896
X176.657Y-87.496
X176.657Y-117.896
X179.197Y-87.496
X179.197Y-117.896
X257.937Y-87.496
X257.937Y-117.896
X260.477Y-87.496
X260.477Y-117.896
X263.017Y-87.496
X263.017Y-117.896
X265.557Y-87.496
X265.557Y-117.896
X268.097Y-87.496
X268.097Y-117.896
X346.837Y-87.496
X346.837Y-117.896
X349.377Y-87.496
X349.377Y-117.896
X351.917Y-87.496
X351.917Y-117.896
X354.457Y-87.496
X354.457Y-117.896
X356.997Y-87.496
X356.997Y-117.896
T7
X207.644Y-166.196
X207.644Y-168.696
X209.644Y-166.196
X209.644Y-168.696
X211.644Y-166.196
X211.644Y-168.696
X213.644Y-166.196
X213.644Y-168.696
X215.644Y-166.196
X215.644Y-168.696
X217.644Y-166.196
X217.644Y-168.696
X219.644Y-166.196
X219.644Y-168.696
X221.644Y-166.196
X221.644Y-168.696
X223.644Y-166.196
X223.644Y-168.696
X225.644Y-166.196
X225.644Y-168.696
X227.644Y-166.196
X227.644Y-168.696
X229.644Y-166.196
X229.644Y-168.696
T8
X83.942Y-171.276
X86.482Y-171.276
X172.842Y-171.276
X175.382Y-171.276
X261.742Y-171.276
X264.282Y-171.276
X350.642Y-171.276
X353.182Y-171.276
M30
