%TF.GenerationSoftware,KiCad,Pcbnew,8.0.8-8.0.8-0~ubuntu24.04.1*%
%TF.CreationDate,2025-08-07T23:42:04-04:00*%
%TF.ProjectId,stencil,7374656e-6369-46c2-9e6b-696361645f70,rev?*%
%TF.SameCoordinates,Original*%
%TF.FileFunction,Soldermask,Bot*%
%TF.FilePolarity,Negative*%
%FSLAX46Y46*%
G04 Gerber Fmt 4.6, Leading zero omitted, Abs format (unit mm)*
G04 Created by KiCad (PCBNEW 8.0.8-8.0.8-0~ubuntu24.04.1) date 2025-08-07 23:42:04*
%MOMM*%
%LPD*%
G01*
G04 APERTURE LIST*
G04 Aperture macros list*
%AMRoundRect*
0 Rectangle with rounded corners*
0 $1 Rounding radius*
0 $2 $3 $4 $5 $6 $7 $8 $9 X,Y pos of 4 corners*
0 Add a 4 corners polygon primitive as box body*
4,1,4,$2,$3,$4,$5,$6,$7,$8,$9,$2,$3,0*
0 Add four circle primitives for the rounded corners*
1,1,$1+$1,$2,$3*
1,1,$1+$1,$4,$5*
1,1,$1+$1,$6,$7*
1,1,$1+$1,$8,$9*
0 Add four rect primitives between the rounded corners*
20,1,$1+$1,$2,$3,$4,$5,0*
20,1,$1+$1,$4,$5,$6,$7,0*
20,1,$1+$1,$6,$7,$8,$9,0*
20,1,$1+$1,$8,$9,$2,$3,0*%
%AMOutline5P*
0 Free polygon, 5 corners , with rotation*
0 The origin of the aperture is its center*
0 number of corners: always 5*
0 $1 to $10 corner X, Y*
0 $11 Rotation angle, in degrees counterclockwise*
0 create outline with 5 corners*
4,1,5,$1,$2,$3,$4,$5,$6,$7,$8,$9,$10,$1,$2,$11*%
%AMOutline6P*
0 Free polygon, 6 corners , with rotation*
0 The origin of the aperture is its center*
0 number of corners: always 6*
0 $1 to $12 corner X, Y*
0 $13 Rotation angle, in degrees counterclockwise*
0 create outline with 6 corners*
4,1,6,$1,$2,$3,$4,$5,$6,$7,$8,$9,$10,$11,$12,$1,$2,$13*%
%AMOutline7P*
0 Free polygon, 7 corners , with rotation*
0 The origin of the aperture is its center*
0 number of corners: always 7*
0 $1 to $14 corner X, Y*
0 $15 Rotation angle, in degrees counterclockwise*
0 create outline with 7 corners*
4,1,7,$1,$2,$3,$4,$5,$6,$7,$8,$9,$10,$11,$12,$13,$14,$1,$2,$15*%
%AMOutline8P*
0 Free polygon, 8 corners , with rotation*
0 The origin of the aperture is its center*
0 number of corners: always 8*
0 $1 to $16 corner X, Y*
0 $17 Rotation angle, in degrees counterclockwise*
0 create outline with 8 corners*
4,1,8,$1,$2,$3,$4,$5,$6,$7,$8,$9,$10,$11,$12,$13,$14,$15,$16,$1,$2,$17*%
G04 Aperture macros list end*
%ADD10RoundRect,0.102000X-0.754000X-0.754000X0.754000X-0.754000X0.754000X0.754000X-0.754000X0.754000X0*%
%ADD11C,1.712000*%
%ADD12C,1.346200*%
%ADD13R,3.800000X2.000000*%
%ADD14RoundRect,0.250000X-0.475000X0.250000X-0.475000X-0.250000X0.475000X-0.250000X0.475000X0.250000X0*%
%ADD15RoundRect,0.250000X-0.159099X0.512652X-0.512652X0.159099X0.159099X-0.512652X0.512652X-0.159099X0*%
%ADD16O,2.000000X3.800000*%
%ADD17C,1.498600*%
%ADD18C,4.300000*%
%ADD19RoundRect,0.102000X-0.754000X0.754000X-0.754000X-0.754000X0.754000X-0.754000X0.754000X0.754000X0*%
%ADD20R,1.700000X1.700000*%
%ADD21O,1.700000X1.700000*%
%ADD22C,1.219200*%
%ADD23Outline5P,-1.900000X1.000000X1.900000X1.000000X1.900000X-1.000000X-1.500000X-1.000000X-1.900000X-0.600000X180.000000*%
%ADD24Outline5P,-1.900000X1.000000X1.900000X1.000000X1.900000X-1.000000X-1.500000X-1.000000X-1.900000X-0.600000X270.000000*%
%ADD25C,1.270000*%
%ADD26R,1.800000X1.800000*%
%ADD27C,1.800000*%
%ADD28O,1.512000X2.820000*%
G04 APERTURE END LIST*
D10*
%TO.C,J3*%
X54945002Y-174884000D03*
D11*
X57445002Y-174884000D03*
X59945000Y-174884000D03*
X62445000Y-174884000D03*
%TD*%
D12*
%TO.C,J1*%
X70933399Y-181598306D03*
X70933399Y-184098306D03*
X72933400Y-181598306D03*
X72933400Y-184098306D03*
X74933398Y-181598306D03*
X74933398Y-184098306D03*
X76933400Y-181598306D03*
X76933400Y-184098306D03*
X78933398Y-181598306D03*
X78933398Y-184098306D03*
X80933399Y-181598306D03*
X80933399Y-184098306D03*
X82933400Y-181598306D03*
X82933400Y-184098306D03*
X84933399Y-181598306D03*
X84933399Y-184098306D03*
X86933400Y-181598306D03*
X86933400Y-184098306D03*
X88933398Y-181598306D03*
X88933398Y-184098306D03*
X90933399Y-181598306D03*
X90933399Y-184098306D03*
X92933398Y-181598306D03*
X92933398Y-184098306D03*
%TD*%
D13*
%TO.C,TP6*%
X61175000Y-211460000D03*
%TD*%
D14*
%TO.C,C7*%
X94400000Y-215400000D03*
X94400000Y-217299998D03*
%TD*%
D15*
%TO.C,C6*%
X81671751Y-205928249D03*
X80328249Y-207271751D03*
%TD*%
D16*
%TO.C,TP4*%
X52285000Y-224160000D03*
%TD*%
D17*
%TO.C,J4*%
X44665000Y-224668000D03*
X44665000Y-222168000D03*
%TD*%
D13*
%TO.C,TP8*%
X98005000Y-230510000D03*
%TD*%
D15*
%TO.C,C8*%
X95571751Y-205478249D03*
X94228249Y-206821751D03*
%TD*%
D18*
%TO.C,H4*%
X114007000Y-236098000D03*
%TD*%
D19*
%TO.C,J7*%
X51373000Y-201637500D03*
D11*
X53913000Y-201637500D03*
X51373000Y-204177500D03*
X53913000Y-204177500D03*
X51372999Y-206717500D03*
X53913001Y-206717500D03*
X51373000Y-209257500D03*
X53913000Y-209257500D03*
X51373000Y-211797500D03*
X53913000Y-211797500D03*
%TD*%
D20*
%TO.C,SW3*%
X66400000Y-196940000D03*
D21*
X66400000Y-194400000D03*
X66400000Y-191860001D03*
%TD*%
D22*
%TO.C,U1*%
X107860000Y-212400000D03*
X107860000Y-210400001D03*
X107860000Y-208400000D03*
X107860000Y-206400001D03*
X107860000Y-204400000D03*
X107860000Y-202400002D03*
X107860000Y-200400001D03*
X107860000Y-198400000D03*
X110400000Y-212400000D03*
X110400000Y-210400001D03*
X110400000Y-208400000D03*
X110400000Y-206400001D03*
X110400000Y-204400000D03*
X110400000Y-202400002D03*
X110400000Y-200400001D03*
X110400000Y-198400000D03*
%TD*%
D18*
%TO.C,H3*%
X45173000Y-236098000D03*
%TD*%
%TO.C,H1*%
X45173000Y-176154000D03*
%TD*%
D17*
%TO.C,SW2*%
X111340000Y-221620000D03*
X111340000Y-224120000D03*
%TD*%
%TO.C,J5*%
X107400000Y-183400000D03*
X104900000Y-183400000D03*
X102400000Y-183400000D03*
%TD*%
D20*
%TO.C,J6*%
X42760000Y-198125000D03*
D21*
X42760000Y-200665000D03*
X42760000Y-203204999D03*
X42760000Y-205745000D03*
X42760000Y-208285000D03*
X42760000Y-210825000D03*
%TD*%
D19*
%TO.C,J2*%
X44157000Y-184402002D03*
D11*
X44157000Y-186902002D03*
X44157000Y-189402000D03*
X44157000Y-191902000D03*
%TD*%
D18*
%TO.C,H2*%
X114007000Y-176154000D03*
%TD*%
D23*
%TO.C,3V2*%
X326237600Y-138002000D03*
%TD*%
D13*
%TO.C,GND3*%
X93319600Y-57738000D03*
%TD*%
D24*
%TO.C,3V1*%
X52552600Y-123825000D03*
%TD*%
D23*
%TO.C,3V3*%
X225145600Y-103204000D03*
%TD*%
D13*
%TO.C,GND4*%
X291439600Y-56976000D03*
%TD*%
D25*
%TO.C,T2*%
X149098000Y-94441000D03*
X151638000Y-94441000D03*
X154178000Y-94441000D03*
X156718000Y-94441000D03*
X159258000Y-94441000D03*
X161798000Y-94441000D03*
X164338000Y-94441000D03*
X166878000Y-94441000D03*
X166878000Y-84281000D03*
X164338000Y-84281000D03*
X161798000Y-84281000D03*
X159258000Y-84281000D03*
X156718000Y-84281000D03*
X154178000Y-84281000D03*
X151638000Y-84281000D03*
X149098000Y-84281000D03*
%TD*%
D26*
%TO.C,PT4*%
X334614600Y-128096000D03*
D27*
X337154600Y-128096000D03*
%TD*%
D28*
%TO.C,U9*%
X330809600Y-74716000D03*
X333349600Y-74716000D03*
X335889600Y-74716000D03*
X338429600Y-74716000D03*
X340969600Y-74716000D03*
X330809600Y-44316000D03*
X333349600Y-44316000D03*
X335889600Y-44316000D03*
X338429600Y-44316000D03*
X340969600Y-44316000D03*
%TD*%
D26*
%TO.C,PT1*%
X67914600Y-128096000D03*
D27*
X70454600Y-128096000D03*
%TD*%
D12*
%TO.C,J1*%
X213616241Y-125516000D03*
X213616241Y-123016000D03*
X211616240Y-125516000D03*
X211616240Y-123016000D03*
X209616242Y-125516000D03*
X209616242Y-123016000D03*
X207616240Y-125516000D03*
X207616240Y-123016000D03*
X205616242Y-125516000D03*
X205616242Y-123016000D03*
X203616241Y-125516000D03*
X203616241Y-123016000D03*
X201616240Y-125516000D03*
X201616240Y-123016000D03*
X199616241Y-125516000D03*
X199616241Y-123016000D03*
X197616240Y-125516000D03*
X197616240Y-123016000D03*
X195616242Y-125516000D03*
X195616242Y-123016000D03*
X193616241Y-125516000D03*
X193616241Y-123016000D03*
X191616242Y-125516000D03*
X191616242Y-123016000D03*
%TD*%
D22*
%TO.C,U1*%
X209556486Y-45546000D03*
X207556487Y-45546000D03*
X205556486Y-45546000D03*
X203556487Y-45546000D03*
X201556486Y-45546000D03*
X199556488Y-45546000D03*
X197556487Y-45546000D03*
X195556486Y-45546000D03*
X209556486Y-43006000D03*
X207556487Y-43006000D03*
X205556486Y-43006000D03*
X203556487Y-43006000D03*
X201556486Y-43006000D03*
X199556488Y-43006000D03*
X197556487Y-43006000D03*
X195556486Y-43006000D03*
%TD*%
D25*
%TO.C,T3*%
X238099600Y-94394000D03*
X240639600Y-94394000D03*
X243179600Y-94394000D03*
X245719600Y-94394000D03*
X248259600Y-94394000D03*
X250799600Y-94394000D03*
X253339600Y-94394000D03*
X255879600Y-94394000D03*
X255879600Y-84234000D03*
X253339600Y-84234000D03*
X250799600Y-84234000D03*
X248259600Y-84234000D03*
X245719600Y-84234000D03*
X243179600Y-84234000D03*
X240639600Y-84234000D03*
X238099600Y-84234000D03*
%TD*%
D28*
%TO.C,U8*%
X241909600Y-74716000D03*
X244449600Y-74716000D03*
X246989600Y-74716000D03*
X249529600Y-74716000D03*
X252069600Y-74716000D03*
X241909600Y-44316000D03*
X244449600Y-44316000D03*
X246989600Y-44316000D03*
X249529600Y-44316000D03*
X252069600Y-44316000D03*
%TD*%
%TO.C,U6*%
X64109600Y-74716000D03*
X66649600Y-74716000D03*
X69189600Y-74716000D03*
X71729600Y-74716000D03*
X74269600Y-74716000D03*
X64109600Y-44316000D03*
X66649600Y-44316000D03*
X69189600Y-44316000D03*
X71729600Y-44316000D03*
X74269600Y-44316000D03*
%TD*%
D18*
%TO.C,REF\u002A\u002A*%
X47218600Y-43942000D03*
%TD*%
D25*
%TO.C,T1*%
X60274200Y-94417500D03*
X62814200Y-94417500D03*
X65354200Y-94417500D03*
X67894200Y-94417500D03*
X70434200Y-94417500D03*
X72974200Y-94417500D03*
X75514200Y-94417500D03*
X78054200Y-94417500D03*
X78054200Y-84257500D03*
X75514200Y-84257500D03*
X72974200Y-84257500D03*
X70434200Y-84257500D03*
X67894200Y-84257500D03*
X65354200Y-84257500D03*
X62814200Y-84257500D03*
X60274200Y-84257500D03*
%TD*%
D28*
%TO.C,U7*%
X153009600Y-74716000D03*
X155549600Y-74716000D03*
X158089600Y-74716000D03*
X160629600Y-74716000D03*
X163169600Y-74716000D03*
X153009600Y-44316000D03*
X155549600Y-44316000D03*
X158089600Y-44316000D03*
X160629600Y-44316000D03*
X163169600Y-44316000D03*
%TD*%
D18*
%TO.C,REF\u002A\u002A*%
X47282101Y-130937000D03*
%TD*%
%TO.C,REF\u002A\u002A*%
X202412600Y-87630000D03*
%TD*%
%TO.C,REF\u002A\u002A*%
X357860600Y-43942000D03*
%TD*%
D26*
%TO.C,PT3*%
X245714600Y-128096000D03*
D27*
X248254600Y-128096000D03*
%TD*%
D18*
%TO.C,REF\u002A\u002A*%
X357733600Y-130937000D03*
%TD*%
D26*
%TO.C,PT2*%
X156814600Y-128096000D03*
D27*
X159354600Y-128096000D03*
%TD*%
D25*
%TO.C,T4*%
X326999600Y-94441000D03*
X329539600Y-94441000D03*
X332079600Y-94441000D03*
X334619600Y-94441000D03*
X337159600Y-94441000D03*
X339699600Y-94441000D03*
X342239600Y-94441000D03*
X344779600Y-94441000D03*
X344779600Y-84281000D03*
X342239600Y-84281000D03*
X339699600Y-84281000D03*
X337159600Y-84281000D03*
X334619600Y-84281000D03*
X332079600Y-84281000D03*
X329539600Y-84281000D03*
X326999600Y-84281000D03*
%TD*%
M02*
