M48
; DRILL file {KiCad 8.0.8-8.0.8-0~ubuntu24.04.1} date 2025-08-07T23:42:09-0400
; FORMAT={-:-/ absolute / metric / decimal}
; #@! TF.CreationDate,2025-08-07T23:42:09-04:00
; #@! TF.GenerationSoftware,Kicad,Pcbnew,8.0.8-8.0.8-0~ubuntu24.04.1
; #@! TF.FileFunction,Plated,1,2,PTH
FMAT,2
METRIC
; #@! TA.AperFunction,Plated,PTH,ViaDrill
T1C0.300
; #@! TA.AperFunction,Plated,PTH,ViaDrill
T2C0.320
; #@! TA.AperFunction,Plated,PTH,ViaDrill
T3C0.350
; #@! TA.AperFunction,Plated,PTH,ViaDrill
T4C0.400
; #@! TA.AperFunction,Plated,PTH,ViaDrill
T5C0.420
; #@! TA.AperFunction,Plated,PTH,ComponentDrill
T6C0.711
; #@! TA.AperFunction,Plated,PTH,ComponentDrill
T7C0.762
; #@! TA.AperFunction,Plated,PTH,ComponentDrill
T8C0.800
; #@! TA.AperFunction,Plated,PTH,ComponentDrill
T9C0.838
; #@! TA.AperFunction,Plated,PTH,ComponentDrill
T10C0.900
; #@! TA.AperFunction,Plated,PTH,ComponentDrill
T11C0.991
; #@! TA.AperFunction,Plated,PTH,ComponentDrill
T12C1.000
%
G90
G05
T1
X48.661Y-231.712
X49.745Y-195.204
X50.761Y-180.98
X52.539Y-235.478
X60.921Y-186.822
X63.715Y-189.402
X63.715Y-221.239
X63.715Y-235.59
X64.731Y-196.982
X64.985Y-211.46
X69.049Y-221.242
X71.2Y-222.8
X71.8Y-200.252
X72.412Y-197.087
X72.478Y-212.984
X73.113Y-208.92
X73.4Y-197.3
X74.1Y-191.7
X74.4Y-197.1
X74.7Y-206.3
X75.1Y-194.0
X75.3Y-197.0
X75.7Y-205.6
X76.0Y-198.8
X76.5Y-204.8
X76.6Y-199.6
X76.9Y-192.1
X77.0Y-197.1
X78.2Y-197.1
X78.2Y-221.4
X79.0Y-203.2
X79.5Y-197.1
X80.5Y-202.2
X80.6Y-205.0
X80.771Y-197.071
X81.8Y-201.2
X82.029Y-175.932
X82.6Y-200.5
X82.987Y-197.987
X83.7Y-199.8
X84.6Y-199.1
X84.775Y-197.525
X85.3Y-194.5
X85.3Y-195.5
X85.4Y-189.8
X85.4Y-191.0
X85.4Y-192.2
X85.4Y-193.4
X86.0Y-213.058
X86.067Y-206.38
X86.6Y-197.6
X87.3Y-208.0
X87.464Y-205.999
X87.7Y-197.8
X89.3Y-194.9
X89.4Y-190.4
X89.5Y-197.7
X89.6Y-218.6
X90.1Y-196.9
X90.385Y-210.825
X90.385Y-231.78
X90.487Y-209.113
X90.948Y-203.0
X91.6Y-203.8
X91.725Y-210.7
X92.727Y-203.218
X93.6Y-203.0
X94.0Y-204.2
X94.2Y-205.2
X94.4Y-208.2
X94.4Y-213.9
X95.678Y-192.782
X95.846Y-219.588
X96.2Y-210.998
X96.4Y-206.4
X97.2Y-210.8
X97.478Y-197.822
X98.4Y-210.6
X98.75Y-197.95
X98.84Y-201.2
X99.148Y-208.031
X99.2Y-196.2
X99.6Y-200.0
X100.2Y-194.8
X100.545Y-180.98
X100.7Y-203.4
X100.7Y-207.2
X101.25Y-195.548
X101.4Y-199.252
X102.0Y-194.748
X102.0Y-201.3
X103.0Y-194.748
X104.1Y-199.4
X104.2Y-194.748
X104.2Y-197.6
X110.705Y-180.98
X110.705Y-231.78
T2
X65.38Y-106.506
X65.38Y-119.206
X67.285Y-90.17
X67.92Y-98.886
X68.555Y-110.951
X70.841Y-88.138
X71.73Y-41.336
X71.811Y-39.359
X72.238Y-113.11
X73.0Y-106.506
X74.255Y-41.319
X74.268Y-37.949
X75.667Y-86.36
X78.969Y-128.096
X80.62Y-106.506
X80.938Y-109.364
X85.256Y-109.364
X89.51Y-106.506
X90.526Y-47.832
X93.574Y-84.408
X93.574Y-93.806
X93.574Y-108.538
X93.574Y-114.38
X98.4Y-106.506
X100.305Y-122.635
X101.067Y-84.836
X101.067Y-93.726
X101.575Y-122.635
X102.718Y-103.712
X104.496Y-105.49
X105.131Y-84.836
X105.131Y-93.726
X105.385Y-122.762
X109.195Y-84.836
X109.195Y-93.726
X113.513Y-84.836
X113.513Y-93.726
X115.672Y-110.57
X115.672Y-112.221
X117.577Y-85.09
X117.577Y-93.726
X117.64Y-116.602
X119.609Y-118.571
X121.641Y-85.598
X121.641Y-93.726
X123.546Y-113.618
X125.197Y-118.571
X125.451Y-86.868
X125.451Y-93.726
X126.721Y-117.174
X130.15Y-106.506
X137.262Y-47.832
X140.818Y-126.437
X143.866Y-114.888
X145.39Y-125.302
X146.152Y-114.888
X151.486Y-66.374
X151.486Y-68.406
X151.486Y-69.93
X151.486Y-71.708
X152.375Y-106.506
X152.756Y-114.888
X152.756Y-126.572
X152.883Y-88.9
X153.01Y-49.102
X153.01Y-52.785
X154.534Y-66.374
X155.296Y-41.228
X156.566Y-68.406
X156.693Y-91.948
X156.82Y-46.816
X156.82Y-99.521
X157.646Y-92.518
X158.217Y-90.424
X159.36Y-69.93
X159.741Y-92.456
X159.995Y-106.506
X161.9Y-71.708
X163.678Y-124.794
X163.932Y-41.228
X164.44Y-114.634
X165.202Y-119.249
X165.202Y-130.128
X165.837Y-131.652
X166.218Y-118.053
X166.345Y-122.889
X166.726Y-126.318
X167.361Y-116.793
X167.488Y-45.8
X167.488Y-132.795
X167.615Y-106.506
X169.139Y-125.683
X169.52Y-69.676
X170.536Y-124.54
X171.552Y-123.397
X172.695Y-122.127
X174.854Y-46.054
X174.854Y-60.532
X177.648Y-46.054
X177.648Y-60.532
X177.648Y-110.316
X179.934Y-46.054
X179.934Y-60.532
X181.966Y-46.054
X181.966Y-60.532
X189.332Y-120.73
X189.332Y-123.016
X191.618Y-120.73
X193.65Y-110.57
X193.904Y-48.993
X193.904Y-50.662
X193.904Y-52.331
X193.904Y-54.001
X193.904Y-57.339
X193.904Y-59.008
X194.285Y-91.266
X194.304Y-136.332
X195.616Y-110.505
X196.444Y-54.039
X196.444Y-128.011
X196.773Y-61.878
X198.476Y-119.291
X198.476Y-129.874
X199.492Y-57.337
X199.825Y-61.892
X200.127Y-127.08
X200.508Y-118.19
X202.159Y-121.492
X202.286Y-128.858
X203.048Y-134.573
X203.556Y-59.008
X203.81Y-120.73
X204.445Y-116.666
X205.08Y-135.589
X206.023Y-52.332
X206.477Y-114.253
X207.112Y-132.668
X207.747Y-111.967
X208.636Y-50.88
X208.89Y-133.599
X209.144Y-39.196
X210.668Y-115.65
X211.332Y-130.92
X211.366Y-113.173
X212.954Y-48.594
X212.954Y-53.166
X213.081Y-131.737
X215.875Y-112.221
X218.415Y-85.551
X225.019Y-122.254
X225.146Y-55.452
X226.924Y-46.562
X229.337Y-122.254
X231.242Y-116.031
X231.877Y-122.254
X232.766Y-46.562
X233.083Y-118.507
X235.687Y-118.571
X236.449Y-99.14
X236.703Y-109.173
X236.703Y-124.286
X237.592Y-111.967
X237.592Y-123.524
X240.386Y-48.34
X241.9Y-70.353
X241.919Y-60.947
X242.545Y-107.141
X243.688Y-48.34
X245.339Y-90.123
X245.72Y-71.2
X246.355Y-99.521
X247.752Y-41.228
X248.26Y-69.676
X249.022Y-88.218
X249.276Y-39.704
X250.165Y-107.141
X250.8Y-68.152
X253.34Y-39.704
X253.34Y-41.228
X253.34Y-68.152
X253.34Y-69.676
X253.34Y-71.2
X253.848Y-86.44
X256.642Y-128.096
X257.15Y-107.141
X269.215Y-107.141
X276.454Y-108.919
X276.454Y-110.03
X276.454Y-111.205
X276.454Y-112.221
X279.248Y-84.916
X279.248Y-93.806
X279.629Y-120.857
X281.788Y-122.0
X283.312Y-84.916
X283.312Y-93.806
X284.836Y-117.588
X285.598Y-114.888
X286.36Y-119.968
X287.376Y-84.916
X287.376Y-93.806
X288.265Y-114.38
X289.916Y-117.588
X290.551Y-114.38
X291.694Y-84.916
X291.694Y-93.806
X292.076Y-113.492
X292.077Y-117.564
X295.758Y-85.17
X295.758Y-93.806
X299.249Y-126.381
X299.822Y-85.678
X299.822Y-93.806
X299.949Y-111.205
X300.965Y-124.159
X301.854Y-108.919
X301.854Y-112.602
X303.632Y-86.948
X303.632Y-93.806
X303.632Y-122.762
X304.14Y-110.189
X304.902Y-122.762
X306.156Y-112.84
X308.712Y-122.762
X308.966Y-112.221
X309.855Y-89.996
X310.236Y-77.677
X313.157Y-119.968
X315.57Y-107.141
X318.872Y-44.53
X330.175Y-107.141
X330.175Y-115.396
X330.81Y-65.801
X330.823Y-72.32
X331.064Y-88.98
X334.874Y-92.028
X335.827Y-92.598
X336.398Y-90.504
X337.16Y-99.521
X337.346Y-107.106
X337.922Y-92.536
X339.954Y-113.237
X342.367Y-113.237
X344.145Y-107.141
X346.558Y-128.096
T3
X52.68Y-103.966
X64.477Y-215.524
X77.685Y-235.844
X94.336Y-120.984
X102.972Y-123.524
X119.736Y-122.0
X230.48Y-103.204
X283.566Y-114.888
X306.045Y-123.397
X318.872Y-104.605
T4
X54.825Y-224.16
T5
X140.564Y-103.712
T6
X107.86Y-198.4
X107.86Y-200.4
X107.86Y-202.4
X107.86Y-204.4
X107.86Y-206.4
X107.86Y-208.4
X107.86Y-210.4
X107.86Y-212.4
X110.4Y-198.4
X110.4Y-200.4
X110.4Y-202.4
X110.4Y-204.4
X110.4Y-206.4
X110.4Y-208.4
X110.4Y-210.4
X110.4Y-212.4
X195.556Y-43.006
X195.556Y-45.546
X197.556Y-43.006
X197.556Y-45.546
X199.556Y-43.006
X199.556Y-45.546
X201.556Y-43.006
X201.556Y-45.546
X203.556Y-43.006
X203.556Y-45.546
X205.556Y-43.006
X205.556Y-45.546
X207.556Y-43.006
X207.556Y-45.546
X209.556Y-43.006
X209.556Y-45.546
T7
X60.274Y-84.257
X60.274Y-94.417
X62.814Y-84.257
X62.814Y-94.417
X65.354Y-84.257
X65.354Y-94.417
X67.894Y-84.257
X67.894Y-94.417
X70.434Y-84.257
X70.434Y-94.417
X72.974Y-84.257
X72.974Y-94.417
X75.514Y-84.257
X75.514Y-94.417
X78.054Y-84.257
X78.054Y-94.417
X149.098Y-84.281
X149.098Y-94.441
X151.638Y-84.281
X151.638Y-94.441
X154.178Y-84.281
X154.178Y-94.441
X156.718Y-84.281
X156.718Y-94.441
X159.258Y-84.281
X159.258Y-94.441
X161.798Y-84.281
X161.798Y-94.441
X164.338Y-84.281
X164.338Y-94.441
X166.878Y-84.281
X166.878Y-94.441
X238.1Y-84.234
X238.1Y-94.394
X240.64Y-84.234
X240.64Y-94.394
X243.18Y-84.234
X243.18Y-94.394
X245.72Y-84.234
X245.72Y-94.394
X248.26Y-84.234
X248.26Y-94.394
X250.8Y-84.234
X250.8Y-94.394
X253.34Y-84.234
X253.34Y-94.394
X255.88Y-84.234
X255.88Y-94.394
X327.0Y-84.281
X327.0Y-94.441
X329.54Y-84.281
X329.54Y-94.441
X332.08Y-84.281
X332.08Y-94.441
X334.62Y-84.281
X334.62Y-94.441
X337.16Y-84.281
X337.16Y-94.441
X339.7Y-84.281
X339.7Y-94.441
X342.24Y-84.281
X342.24Y-94.441
X344.78Y-84.281
X344.78Y-94.441
T8
X64.11Y-44.316
X64.11Y-74.716
X66.65Y-44.316
X66.65Y-74.716
X69.19Y-44.316
X69.19Y-74.716
X71.73Y-44.316
X71.73Y-74.716
X74.27Y-44.316
X74.27Y-74.716
X153.01Y-44.316
X153.01Y-74.716
X155.55Y-44.316
X155.55Y-74.716
X158.09Y-44.316
X158.09Y-74.716
X160.63Y-44.316
X160.63Y-74.716
X163.17Y-44.316
X163.17Y-74.716
X241.91Y-44.316
X241.91Y-74.716
X244.45Y-44.316
X244.45Y-74.716
X246.99Y-44.316
X246.99Y-74.716
X249.53Y-44.316
X249.53Y-74.716
X252.07Y-44.316
X252.07Y-74.716
X330.81Y-44.316
X330.81Y-74.716
X333.35Y-44.316
X333.35Y-74.716
X335.89Y-44.316
X335.89Y-74.716
X338.43Y-44.316
X338.43Y-74.716
X340.97Y-44.316
X340.97Y-74.716
T9
X70.933Y-181.598
X70.933Y-184.098
X72.933Y-181.598
X72.933Y-184.098
X74.933Y-181.598
X74.933Y-184.098
X76.933Y-181.598
X76.933Y-184.098
X78.933Y-181.598
X78.933Y-184.098
X80.933Y-181.598
X80.933Y-184.098
X82.933Y-181.598
X82.933Y-184.098
X84.933Y-181.598
X84.933Y-184.098
X86.933Y-181.598
X86.933Y-184.098
X88.933Y-181.598
X88.933Y-184.098
X90.933Y-181.598
X90.933Y-184.098
X92.933Y-181.598
X92.933Y-184.098
X191.616Y-123.016
X191.616Y-125.516
X193.616Y-123.016
X193.616Y-125.516
X195.616Y-123.016
X195.616Y-125.516
X197.616Y-123.016
X197.616Y-125.516
X199.616Y-123.016
X199.616Y-125.516
X201.616Y-123.016
X201.616Y-125.516
X203.616Y-123.016
X203.616Y-125.516
X205.616Y-123.016
X205.616Y-125.516
X207.616Y-123.016
X207.616Y-125.516
X209.616Y-123.016
X209.616Y-125.516
X211.616Y-123.016
X211.616Y-125.516
X213.616Y-123.016
X213.616Y-125.516
T10
X67.915Y-128.096
X70.455Y-128.096
X156.815Y-128.096
X159.355Y-128.096
X245.715Y-128.096
X248.255Y-128.096
X334.615Y-128.096
X337.155Y-128.096
T11
X44.665Y-222.168
X44.665Y-224.668
X102.4Y-183.4
X104.9Y-183.4
X107.4Y-183.4
X111.34Y-221.62
X111.34Y-224.12
T12
X42.76Y-198.125
X42.76Y-200.665
X42.76Y-203.205
X42.76Y-205.745
X42.76Y-208.285
X42.76Y-210.825
X44.157Y-184.402
X44.157Y-186.902
X44.157Y-189.402
X44.157Y-191.902
X51.373Y-206.718
X51.373Y-201.637
X51.373Y-204.177
X51.373Y-209.257
X51.373Y-211.797
X53.913Y-201.637
X53.913Y-204.177
X53.913Y-209.257
X53.913Y-211.797
X53.913Y-206.718
X54.945Y-174.884
X57.445Y-174.884
X59.945Y-174.884
X62.445Y-174.884
X66.4Y-191.86
X66.4Y-194.4
X66.4Y-196.94
M30
