%TF.GenerationSoftware,KiCad,Pcbnew,8.0.8-8.0.8-0~ubuntu24.04.1*%
%TF.CreationDate,2025-08-07T23:42:10-04:00*%
%TF.ProjectId,stencil,7374656e-6369-46c2-9e6b-696361645f70,rev?*%
%TF.SameCoordinates,Original*%
%TF.FileFunction,Drillmap*%
%TF.FilePolarity,Positive*%
%FSLAX45Y45*%
G04 Gerber Fmt 4.5, Leading zero omitted, Abs format (unit mm)*
G04 Created by KiCad (PCBNEW 8.0.8-8.0.8-0~ubuntu24.04.1) date 2025-08-07 23:42:10*
%MOMM*%
%LPD*%
G01*
G04 APERTURE LIST*
%ADD10C,0.050000*%
%ADD11C,0.200000*%
%ADD12C,0.430000*%
G04 APERTURE END LIST*
D10*
X11857900Y-17358200D02*
X11857900Y-23867000D01*
X4060100Y-17358200D02*
X4060100Y-23867000D01*
X11857900Y-17358200D02*
X11657900Y-17158200D01*
X4060100Y-17358200D02*
X4260100Y-17158200D01*
X4260100Y-24067000D02*
X11657900Y-24067000D01*
X11857900Y-23867000D02*
X11657900Y-24067000D01*
X4060100Y-23867000D02*
X4260100Y-24067000D01*
X4260100Y-17158200D02*
X11657900Y-17158200D01*
X36763960Y-13571600D02*
X36255960Y-14079600D01*
X3743960Y-3919600D02*
X4251960Y-3411600D01*
X3743960Y-3919600D02*
X3743960Y-13571600D01*
X3743960Y-13571600D02*
X4251960Y-14079600D01*
X36255960Y-3411600D02*
X36763960Y-3919600D01*
X36763960Y-3919600D02*
X36763960Y-13571600D01*
X4251960Y-3411600D02*
X36255960Y-3411600D01*
X4251960Y-14079600D02*
X36255960Y-14079600D01*
D11*
D12*
X4302300Y-17400400D02*
X4732300Y-17830400D01*
X4732300Y-17400400D02*
X4302300Y-17830400D01*
X4302300Y-23394800D02*
X4732300Y-23824800D01*
X4732300Y-23394800D02*
X4302300Y-23824800D01*
X4506860Y-4179200D02*
X4936860Y-4609200D01*
X4936860Y-4179200D02*
X4506860Y-4609200D01*
X4513210Y-12878700D02*
X4943210Y-13308700D01*
X4943210Y-12878700D02*
X4513210Y-13308700D01*
X11185700Y-17400400D02*
X11615700Y-17830400D01*
X11615700Y-17400400D02*
X11185700Y-17830400D01*
X11185700Y-23394800D02*
X11615700Y-23824800D01*
X11615700Y-23394800D02*
X11185700Y-23824800D01*
X20026260Y-8548000D02*
X20456260Y-8978000D01*
X20456260Y-8548000D02*
X20026260Y-8978000D01*
X35558360Y-12878700D02*
X35988360Y-13308700D01*
X35988360Y-12878700D02*
X35558360Y-13308700D01*
X35571060Y-4179200D02*
X36001060Y-4609200D01*
X36001060Y-4179200D02*
X35571060Y-4609200D01*
D11*
X4002237Y-24380984D02*
X4002237Y-24180984D01*
X4002237Y-24180984D02*
X4049856Y-24180984D01*
X4049856Y-24180984D02*
X4078427Y-24190508D01*
X4078427Y-24190508D02*
X4097475Y-24209555D01*
X4097475Y-24209555D02*
X4106999Y-24228603D01*
X4106999Y-24228603D02*
X4116522Y-24266698D01*
X4116522Y-24266698D02*
X4116522Y-24295269D01*
X4116522Y-24295269D02*
X4106999Y-24333365D01*
X4106999Y-24333365D02*
X4097475Y-24352412D01*
X4097475Y-24352412D02*
X4078427Y-24371460D01*
X4078427Y-24371460D02*
X4049856Y-24380984D01*
X4049856Y-24380984D02*
X4002237Y-24380984D01*
X4202237Y-24380984D02*
X4202237Y-24247650D01*
X4202237Y-24285746D02*
X4211761Y-24266698D01*
X4211761Y-24266698D02*
X4221284Y-24257174D01*
X4221284Y-24257174D02*
X4240332Y-24247650D01*
X4240332Y-24247650D02*
X4259380Y-24247650D01*
X4326046Y-24380984D02*
X4326046Y-24247650D01*
X4326046Y-24180984D02*
X4316523Y-24190508D01*
X4316523Y-24190508D02*
X4326046Y-24200031D01*
X4326046Y-24200031D02*
X4335570Y-24190508D01*
X4335570Y-24190508D02*
X4326046Y-24180984D01*
X4326046Y-24180984D02*
X4326046Y-24200031D01*
X4449856Y-24380984D02*
X4430808Y-24371460D01*
X4430808Y-24371460D02*
X4421284Y-24352412D01*
X4421284Y-24352412D02*
X4421284Y-24180984D01*
X4554618Y-24380984D02*
X4535570Y-24371460D01*
X4535570Y-24371460D02*
X4526046Y-24352412D01*
X4526046Y-24352412D02*
X4526046Y-24180984D01*
X4783189Y-24380984D02*
X4783189Y-24180984D01*
X4783189Y-24180984D02*
X4849856Y-24323841D01*
X4849856Y-24323841D02*
X4916523Y-24180984D01*
X4916523Y-24180984D02*
X4916523Y-24380984D01*
X5097475Y-24380984D02*
X5097475Y-24276222D01*
X5097475Y-24276222D02*
X5087951Y-24257174D01*
X5087951Y-24257174D02*
X5068904Y-24247650D01*
X5068904Y-24247650D02*
X5030808Y-24247650D01*
X5030808Y-24247650D02*
X5011761Y-24257174D01*
X5097475Y-24371460D02*
X5078427Y-24380984D01*
X5078427Y-24380984D02*
X5030808Y-24380984D01*
X5030808Y-24380984D02*
X5011761Y-24371460D01*
X5011761Y-24371460D02*
X5002237Y-24352412D01*
X5002237Y-24352412D02*
X5002237Y-24333365D01*
X5002237Y-24333365D02*
X5011761Y-24314317D01*
X5011761Y-24314317D02*
X5030808Y-24304793D01*
X5030808Y-24304793D02*
X5078427Y-24304793D01*
X5078427Y-24304793D02*
X5097475Y-24295269D01*
X5192713Y-24247650D02*
X5192713Y-24447650D01*
X5192713Y-24257174D02*
X5211761Y-24247650D01*
X5211761Y-24247650D02*
X5249856Y-24247650D01*
X5249856Y-24247650D02*
X5268904Y-24257174D01*
X5268904Y-24257174D02*
X5278427Y-24266698D01*
X5278427Y-24266698D02*
X5287951Y-24285746D01*
X5287951Y-24285746D02*
X5287951Y-24342888D01*
X5287951Y-24342888D02*
X5278427Y-24361936D01*
X5278427Y-24361936D02*
X5268904Y-24371460D01*
X5268904Y-24371460D02*
X5249856Y-24380984D01*
X5249856Y-24380984D02*
X5211761Y-24380984D01*
X5211761Y-24380984D02*
X5192713Y-24371460D01*
X5373665Y-24361936D02*
X5383189Y-24371460D01*
X5383189Y-24371460D02*
X5373665Y-24380984D01*
X5373665Y-24380984D02*
X5364142Y-24371460D01*
X5364142Y-24371460D02*
X5373665Y-24361936D01*
X5373665Y-24361936D02*
X5373665Y-24380984D01*
X5373665Y-24257174D02*
X5383189Y-24266698D01*
X5383189Y-24266698D02*
X5373665Y-24276222D01*
X5373665Y-24276222D02*
X5364142Y-24266698D01*
X5364142Y-24266698D02*
X5373665Y-24257174D01*
X5373665Y-24257174D02*
X5373665Y-24276222D01*
X3541460Y-24609500D02*
X3741460Y-24809500D01*
X3741460Y-24609500D02*
X3541460Y-24809500D01*
X4087951Y-24667650D02*
X4087951Y-24800984D01*
X4040332Y-24591460D02*
X3992713Y-24734317D01*
X3992713Y-24734317D02*
X4116522Y-24734317D01*
X4192713Y-24781936D02*
X4202237Y-24791460D01*
X4202237Y-24791460D02*
X4192713Y-24800984D01*
X4192713Y-24800984D02*
X4183189Y-24791460D01*
X4183189Y-24791460D02*
X4192713Y-24781936D01*
X4192713Y-24781936D02*
X4192713Y-24800984D01*
X4268904Y-24600984D02*
X4392713Y-24600984D01*
X4392713Y-24600984D02*
X4326046Y-24677174D01*
X4326046Y-24677174D02*
X4354618Y-24677174D01*
X4354618Y-24677174D02*
X4373665Y-24686698D01*
X4373665Y-24686698D02*
X4383189Y-24696222D01*
X4383189Y-24696222D02*
X4392713Y-24715269D01*
X4392713Y-24715269D02*
X4392713Y-24762888D01*
X4392713Y-24762888D02*
X4383189Y-24781936D01*
X4383189Y-24781936D02*
X4373665Y-24791460D01*
X4373665Y-24791460D02*
X4354618Y-24800984D01*
X4354618Y-24800984D02*
X4297475Y-24800984D01*
X4297475Y-24800984D02*
X4278427Y-24791460D01*
X4278427Y-24791460D02*
X4268904Y-24781936D01*
X4516523Y-24600984D02*
X4535570Y-24600984D01*
X4535570Y-24600984D02*
X4554618Y-24610508D01*
X4554618Y-24610508D02*
X4564142Y-24620031D01*
X4564142Y-24620031D02*
X4573665Y-24639079D01*
X4573665Y-24639079D02*
X4583189Y-24677174D01*
X4583189Y-24677174D02*
X4583189Y-24724793D01*
X4583189Y-24724793D02*
X4573665Y-24762888D01*
X4573665Y-24762888D02*
X4564142Y-24781936D01*
X4564142Y-24781936D02*
X4554618Y-24791460D01*
X4554618Y-24791460D02*
X4535570Y-24800984D01*
X4535570Y-24800984D02*
X4516523Y-24800984D01*
X4516523Y-24800984D02*
X4497475Y-24791460D01*
X4497475Y-24791460D02*
X4487951Y-24781936D01*
X4487951Y-24781936D02*
X4478427Y-24762888D01*
X4478427Y-24762888D02*
X4468904Y-24724793D01*
X4468904Y-24724793D02*
X4468904Y-24677174D01*
X4468904Y-24677174D02*
X4478427Y-24639079D01*
X4478427Y-24639079D02*
X4487951Y-24620031D01*
X4487951Y-24620031D02*
X4497475Y-24610508D01*
X4497475Y-24610508D02*
X4516523Y-24600984D01*
X4706999Y-24600984D02*
X4726046Y-24600984D01*
X4726046Y-24600984D02*
X4745094Y-24610508D01*
X4745094Y-24610508D02*
X4754618Y-24620031D01*
X4754618Y-24620031D02*
X4764142Y-24639079D01*
X4764142Y-24639079D02*
X4773665Y-24677174D01*
X4773665Y-24677174D02*
X4773665Y-24724793D01*
X4773665Y-24724793D02*
X4764142Y-24762888D01*
X4764142Y-24762888D02*
X4754618Y-24781936D01*
X4754618Y-24781936D02*
X4745094Y-24791460D01*
X4745094Y-24791460D02*
X4726046Y-24800984D01*
X4726046Y-24800984D02*
X4706999Y-24800984D01*
X4706999Y-24800984D02*
X4687951Y-24791460D01*
X4687951Y-24791460D02*
X4678427Y-24781936D01*
X4678427Y-24781936D02*
X4668904Y-24762888D01*
X4668904Y-24762888D02*
X4659380Y-24724793D01*
X4659380Y-24724793D02*
X4659380Y-24677174D01*
X4659380Y-24677174D02*
X4668904Y-24639079D01*
X4668904Y-24639079D02*
X4678427Y-24620031D01*
X4678427Y-24620031D02*
X4687951Y-24610508D01*
X4687951Y-24610508D02*
X4706999Y-24600984D01*
X4859380Y-24800984D02*
X4859380Y-24667650D01*
X4859380Y-24686698D02*
X4868904Y-24677174D01*
X4868904Y-24677174D02*
X4887951Y-24667650D01*
X4887951Y-24667650D02*
X4916523Y-24667650D01*
X4916523Y-24667650D02*
X4935570Y-24677174D01*
X4935570Y-24677174D02*
X4945094Y-24696222D01*
X4945094Y-24696222D02*
X4945094Y-24800984D01*
X4945094Y-24696222D02*
X4954618Y-24677174D01*
X4954618Y-24677174D02*
X4973665Y-24667650D01*
X4973665Y-24667650D02*
X5002237Y-24667650D01*
X5002237Y-24667650D02*
X5021285Y-24677174D01*
X5021285Y-24677174D02*
X5030808Y-24696222D01*
X5030808Y-24696222D02*
X5030808Y-24800984D01*
X5126046Y-24800984D02*
X5126046Y-24667650D01*
X5126046Y-24686698D02*
X5135570Y-24677174D01*
X5135570Y-24677174D02*
X5154618Y-24667650D01*
X5154618Y-24667650D02*
X5183189Y-24667650D01*
X5183189Y-24667650D02*
X5202237Y-24677174D01*
X5202237Y-24677174D02*
X5211761Y-24696222D01*
X5211761Y-24696222D02*
X5211761Y-24800984D01*
X5211761Y-24696222D02*
X5221285Y-24677174D01*
X5221285Y-24677174D02*
X5240332Y-24667650D01*
X5240332Y-24667650D02*
X5268904Y-24667650D01*
X5268904Y-24667650D02*
X5287951Y-24677174D01*
X5287951Y-24677174D02*
X5297475Y-24696222D01*
X5297475Y-24696222D02*
X5297475Y-24800984D01*
X5687951Y-24591460D02*
X5516523Y-24848603D01*
X5945094Y-24600984D02*
X5964142Y-24600984D01*
X5964142Y-24600984D02*
X5983189Y-24610508D01*
X5983189Y-24610508D02*
X5992713Y-24620031D01*
X5992713Y-24620031D02*
X6002237Y-24639079D01*
X6002237Y-24639079D02*
X6011761Y-24677174D01*
X6011761Y-24677174D02*
X6011761Y-24724793D01*
X6011761Y-24724793D02*
X6002237Y-24762888D01*
X6002237Y-24762888D02*
X5992713Y-24781936D01*
X5992713Y-24781936D02*
X5983189Y-24791460D01*
X5983189Y-24791460D02*
X5964142Y-24800984D01*
X5964142Y-24800984D02*
X5945094Y-24800984D01*
X5945094Y-24800984D02*
X5926046Y-24791460D01*
X5926046Y-24791460D02*
X5916523Y-24781936D01*
X5916523Y-24781936D02*
X5906999Y-24762888D01*
X5906999Y-24762888D02*
X5897475Y-24724793D01*
X5897475Y-24724793D02*
X5897475Y-24677174D01*
X5897475Y-24677174D02*
X5906999Y-24639079D01*
X5906999Y-24639079D02*
X5916523Y-24620031D01*
X5916523Y-24620031D02*
X5926046Y-24610508D01*
X5926046Y-24610508D02*
X5945094Y-24600984D01*
X6097475Y-24781936D02*
X6106999Y-24791460D01*
X6106999Y-24791460D02*
X6097475Y-24800984D01*
X6097475Y-24800984D02*
X6087951Y-24791460D01*
X6087951Y-24791460D02*
X6097475Y-24781936D01*
X6097475Y-24781936D02*
X6097475Y-24800984D01*
X6297475Y-24800984D02*
X6183189Y-24800984D01*
X6240332Y-24800984D02*
X6240332Y-24600984D01*
X6240332Y-24600984D02*
X6221285Y-24629555D01*
X6221285Y-24629555D02*
X6202237Y-24648603D01*
X6202237Y-24648603D02*
X6183189Y-24658127D01*
X6468904Y-24600984D02*
X6430808Y-24600984D01*
X6430808Y-24600984D02*
X6411761Y-24610508D01*
X6411761Y-24610508D02*
X6402237Y-24620031D01*
X6402237Y-24620031D02*
X6383189Y-24648603D01*
X6383189Y-24648603D02*
X6373666Y-24686698D01*
X6373666Y-24686698D02*
X6373666Y-24762888D01*
X6373666Y-24762888D02*
X6383189Y-24781936D01*
X6383189Y-24781936D02*
X6392713Y-24791460D01*
X6392713Y-24791460D02*
X6411761Y-24800984D01*
X6411761Y-24800984D02*
X6449856Y-24800984D01*
X6449856Y-24800984D02*
X6468904Y-24791460D01*
X6468904Y-24791460D02*
X6478427Y-24781936D01*
X6478427Y-24781936D02*
X6487951Y-24762888D01*
X6487951Y-24762888D02*
X6487951Y-24715269D01*
X6487951Y-24715269D02*
X6478427Y-24696222D01*
X6478427Y-24696222D02*
X6468904Y-24686698D01*
X6468904Y-24686698D02*
X6449856Y-24677174D01*
X6449856Y-24677174D02*
X6411761Y-24677174D01*
X6411761Y-24677174D02*
X6392713Y-24686698D01*
X6392713Y-24686698D02*
X6383189Y-24696222D01*
X6383189Y-24696222D02*
X6373666Y-24715269D01*
X6583189Y-24800984D02*
X6621285Y-24800984D01*
X6621285Y-24800984D02*
X6640332Y-24791460D01*
X6640332Y-24791460D02*
X6649856Y-24781936D01*
X6649856Y-24781936D02*
X6668904Y-24753365D01*
X6668904Y-24753365D02*
X6678427Y-24715269D01*
X6678427Y-24715269D02*
X6678427Y-24639079D01*
X6678427Y-24639079D02*
X6668904Y-24620031D01*
X6668904Y-24620031D02*
X6659380Y-24610508D01*
X6659380Y-24610508D02*
X6640332Y-24600984D01*
X6640332Y-24600984D02*
X6602237Y-24600984D01*
X6602237Y-24600984D02*
X6583189Y-24610508D01*
X6583189Y-24610508D02*
X6573666Y-24620031D01*
X6573666Y-24620031D02*
X6564142Y-24639079D01*
X6564142Y-24639079D02*
X6564142Y-24686698D01*
X6564142Y-24686698D02*
X6573666Y-24705746D01*
X6573666Y-24705746D02*
X6583189Y-24715269D01*
X6583189Y-24715269D02*
X6602237Y-24724793D01*
X6602237Y-24724793D02*
X6640332Y-24724793D01*
X6640332Y-24724793D02*
X6659380Y-24715269D01*
X6659380Y-24715269D02*
X6668904Y-24705746D01*
X6668904Y-24705746D02*
X6678427Y-24686698D01*
X6745094Y-24600984D02*
X6868904Y-24600984D01*
X6868904Y-24600984D02*
X6802237Y-24677174D01*
X6802237Y-24677174D02*
X6830808Y-24677174D01*
X6830808Y-24677174D02*
X6849856Y-24686698D01*
X6849856Y-24686698D02*
X6859380Y-24696222D01*
X6859380Y-24696222D02*
X6868904Y-24715269D01*
X6868904Y-24715269D02*
X6868904Y-24762888D01*
X6868904Y-24762888D02*
X6859380Y-24781936D01*
X6859380Y-24781936D02*
X6849856Y-24791460D01*
X6849856Y-24791460D02*
X6830808Y-24800984D01*
X6830808Y-24800984D02*
X6773666Y-24800984D01*
X6773666Y-24800984D02*
X6754618Y-24791460D01*
X6754618Y-24791460D02*
X6745094Y-24781936D01*
X6945094Y-24600984D02*
X6945094Y-24639079D01*
X7021285Y-24600984D02*
X7021285Y-24639079D01*
X7316523Y-24877174D02*
X7306999Y-24867650D01*
X7306999Y-24867650D02*
X7287951Y-24839079D01*
X7287951Y-24839079D02*
X7278428Y-24820031D01*
X7278428Y-24820031D02*
X7268904Y-24791460D01*
X7268904Y-24791460D02*
X7259380Y-24743841D01*
X7259380Y-24743841D02*
X7259380Y-24705746D01*
X7259380Y-24705746D02*
X7268904Y-24658127D01*
X7268904Y-24658127D02*
X7278428Y-24629555D01*
X7278428Y-24629555D02*
X7287951Y-24610508D01*
X7287951Y-24610508D02*
X7306999Y-24581936D01*
X7306999Y-24581936D02*
X7316523Y-24572412D01*
X7402237Y-24800984D02*
X7440332Y-24800984D01*
X7440332Y-24800984D02*
X7459380Y-24791460D01*
X7459380Y-24791460D02*
X7468904Y-24781936D01*
X7468904Y-24781936D02*
X7487951Y-24753365D01*
X7487951Y-24753365D02*
X7497475Y-24715269D01*
X7497475Y-24715269D02*
X7497475Y-24639079D01*
X7497475Y-24639079D02*
X7487951Y-24620031D01*
X7487951Y-24620031D02*
X7478428Y-24610508D01*
X7478428Y-24610508D02*
X7459380Y-24600984D01*
X7459380Y-24600984D02*
X7421285Y-24600984D01*
X7421285Y-24600984D02*
X7402237Y-24610508D01*
X7402237Y-24610508D02*
X7392713Y-24620031D01*
X7392713Y-24620031D02*
X7383189Y-24639079D01*
X7383189Y-24639079D02*
X7383189Y-24686698D01*
X7383189Y-24686698D02*
X7392713Y-24705746D01*
X7392713Y-24705746D02*
X7402237Y-24715269D01*
X7402237Y-24715269D02*
X7421285Y-24724793D01*
X7421285Y-24724793D02*
X7459380Y-24724793D01*
X7459380Y-24724793D02*
X7478428Y-24715269D01*
X7478428Y-24715269D02*
X7487951Y-24705746D01*
X7487951Y-24705746D02*
X7497475Y-24686698D01*
X7735570Y-24800984D02*
X7735570Y-24600984D01*
X7821285Y-24800984D02*
X7821285Y-24696222D01*
X7821285Y-24696222D02*
X7811761Y-24677174D01*
X7811761Y-24677174D02*
X7792713Y-24667650D01*
X7792713Y-24667650D02*
X7764142Y-24667650D01*
X7764142Y-24667650D02*
X7745094Y-24677174D01*
X7745094Y-24677174D02*
X7735570Y-24686698D01*
X7945094Y-24800984D02*
X7926047Y-24791460D01*
X7926047Y-24791460D02*
X7916523Y-24781936D01*
X7916523Y-24781936D02*
X7906999Y-24762888D01*
X7906999Y-24762888D02*
X7906999Y-24705746D01*
X7906999Y-24705746D02*
X7916523Y-24686698D01*
X7916523Y-24686698D02*
X7926047Y-24677174D01*
X7926047Y-24677174D02*
X7945094Y-24667650D01*
X7945094Y-24667650D02*
X7973666Y-24667650D01*
X7973666Y-24667650D02*
X7992713Y-24677174D01*
X7992713Y-24677174D02*
X8002237Y-24686698D01*
X8002237Y-24686698D02*
X8011761Y-24705746D01*
X8011761Y-24705746D02*
X8011761Y-24762888D01*
X8011761Y-24762888D02*
X8002237Y-24781936D01*
X8002237Y-24781936D02*
X7992713Y-24791460D01*
X7992713Y-24791460D02*
X7973666Y-24800984D01*
X7973666Y-24800984D02*
X7945094Y-24800984D01*
X8126047Y-24800984D02*
X8106999Y-24791460D01*
X8106999Y-24791460D02*
X8097475Y-24772412D01*
X8097475Y-24772412D02*
X8097475Y-24600984D01*
X8278428Y-24791460D02*
X8259380Y-24800984D01*
X8259380Y-24800984D02*
X8221285Y-24800984D01*
X8221285Y-24800984D02*
X8202237Y-24791460D01*
X8202237Y-24791460D02*
X8192713Y-24772412D01*
X8192713Y-24772412D02*
X8192713Y-24696222D01*
X8192713Y-24696222D02*
X8202237Y-24677174D01*
X8202237Y-24677174D02*
X8221285Y-24667650D01*
X8221285Y-24667650D02*
X8259380Y-24667650D01*
X8259380Y-24667650D02*
X8278428Y-24677174D01*
X8278428Y-24677174D02*
X8287951Y-24696222D01*
X8287951Y-24696222D02*
X8287951Y-24715269D01*
X8287951Y-24715269D02*
X8192713Y-24734317D01*
X8364142Y-24791460D02*
X8383190Y-24800984D01*
X8383190Y-24800984D02*
X8421285Y-24800984D01*
X8421285Y-24800984D02*
X8440333Y-24791460D01*
X8440333Y-24791460D02*
X8449856Y-24772412D01*
X8449856Y-24772412D02*
X8449856Y-24762888D01*
X8449856Y-24762888D02*
X8440333Y-24743841D01*
X8440333Y-24743841D02*
X8421285Y-24734317D01*
X8421285Y-24734317D02*
X8392713Y-24734317D01*
X8392713Y-24734317D02*
X8373666Y-24724793D01*
X8373666Y-24724793D02*
X8364142Y-24705746D01*
X8364142Y-24705746D02*
X8364142Y-24696222D01*
X8364142Y-24696222D02*
X8373666Y-24677174D01*
X8373666Y-24677174D02*
X8392713Y-24667650D01*
X8392713Y-24667650D02*
X8421285Y-24667650D01*
X8421285Y-24667650D02*
X8440333Y-24677174D01*
X8516523Y-24877174D02*
X8526047Y-24867650D01*
X8526047Y-24867650D02*
X8545094Y-24839079D01*
X8545094Y-24839079D02*
X8554618Y-24820031D01*
X8554618Y-24820031D02*
X8564142Y-24791460D01*
X8564142Y-24791460D02*
X8573666Y-24743841D01*
X8573666Y-24743841D02*
X8573666Y-24705746D01*
X8573666Y-24705746D02*
X8564142Y-24658127D01*
X8564142Y-24658127D02*
X8554618Y-24629555D01*
X8554618Y-24629555D02*
X8545094Y-24610508D01*
X8545094Y-24610508D02*
X8526047Y-24581936D01*
X8526047Y-24581936D02*
X8516523Y-24572412D01*
X8878428Y-24877174D02*
X8868904Y-24867650D01*
X8868904Y-24867650D02*
X8849856Y-24839079D01*
X8849856Y-24839079D02*
X8840333Y-24820031D01*
X8840333Y-24820031D02*
X8830809Y-24791460D01*
X8830809Y-24791460D02*
X8821285Y-24743841D01*
X8821285Y-24743841D02*
X8821285Y-24705746D01*
X8821285Y-24705746D02*
X8830809Y-24658127D01*
X8830809Y-24658127D02*
X8840333Y-24629555D01*
X8840333Y-24629555D02*
X8849856Y-24610508D01*
X8849856Y-24610508D02*
X8868904Y-24581936D01*
X8868904Y-24581936D02*
X8878428Y-24572412D01*
X8954618Y-24667650D02*
X8954618Y-24800984D01*
X8954618Y-24686698D02*
X8964142Y-24677174D01*
X8964142Y-24677174D02*
X8983190Y-24667650D01*
X8983190Y-24667650D02*
X9011761Y-24667650D01*
X9011761Y-24667650D02*
X9030809Y-24677174D01*
X9030809Y-24677174D02*
X9040333Y-24696222D01*
X9040333Y-24696222D02*
X9040333Y-24800984D01*
X9164142Y-24800984D02*
X9145094Y-24791460D01*
X9145094Y-24791460D02*
X9135571Y-24781936D01*
X9135571Y-24781936D02*
X9126047Y-24762888D01*
X9126047Y-24762888D02*
X9126047Y-24705746D01*
X9126047Y-24705746D02*
X9135571Y-24686698D01*
X9135571Y-24686698D02*
X9145094Y-24677174D01*
X9145094Y-24677174D02*
X9164142Y-24667650D01*
X9164142Y-24667650D02*
X9192714Y-24667650D01*
X9192714Y-24667650D02*
X9211761Y-24677174D01*
X9211761Y-24677174D02*
X9221285Y-24686698D01*
X9221285Y-24686698D02*
X9230809Y-24705746D01*
X9230809Y-24705746D02*
X9230809Y-24762888D01*
X9230809Y-24762888D02*
X9221285Y-24781936D01*
X9221285Y-24781936D02*
X9211761Y-24791460D01*
X9211761Y-24791460D02*
X9192714Y-24800984D01*
X9192714Y-24800984D02*
X9164142Y-24800984D01*
X9287952Y-24667650D02*
X9364142Y-24667650D01*
X9316523Y-24600984D02*
X9316523Y-24772412D01*
X9316523Y-24772412D02*
X9326047Y-24791460D01*
X9326047Y-24791460D02*
X9345094Y-24800984D01*
X9345094Y-24800984D02*
X9364142Y-24800984D01*
X9583190Y-24667650D02*
X9583190Y-24867650D01*
X9583190Y-24677174D02*
X9602237Y-24667650D01*
X9602237Y-24667650D02*
X9640333Y-24667650D01*
X9640333Y-24667650D02*
X9659380Y-24677174D01*
X9659380Y-24677174D02*
X9668904Y-24686698D01*
X9668904Y-24686698D02*
X9678428Y-24705746D01*
X9678428Y-24705746D02*
X9678428Y-24762888D01*
X9678428Y-24762888D02*
X9668904Y-24781936D01*
X9668904Y-24781936D02*
X9659380Y-24791460D01*
X9659380Y-24791460D02*
X9640333Y-24800984D01*
X9640333Y-24800984D02*
X9602237Y-24800984D01*
X9602237Y-24800984D02*
X9583190Y-24791460D01*
X9792714Y-24800984D02*
X9773666Y-24791460D01*
X9773666Y-24791460D02*
X9764142Y-24772412D01*
X9764142Y-24772412D02*
X9764142Y-24600984D01*
X9954618Y-24800984D02*
X9954618Y-24696222D01*
X9954618Y-24696222D02*
X9945095Y-24677174D01*
X9945095Y-24677174D02*
X9926047Y-24667650D01*
X9926047Y-24667650D02*
X9887952Y-24667650D01*
X9887952Y-24667650D02*
X9868904Y-24677174D01*
X9954618Y-24791460D02*
X9935571Y-24800984D01*
X9935571Y-24800984D02*
X9887952Y-24800984D01*
X9887952Y-24800984D02*
X9868904Y-24791460D01*
X9868904Y-24791460D02*
X9859380Y-24772412D01*
X9859380Y-24772412D02*
X9859380Y-24753365D01*
X9859380Y-24753365D02*
X9868904Y-24734317D01*
X9868904Y-24734317D02*
X9887952Y-24724793D01*
X9887952Y-24724793D02*
X9935571Y-24724793D01*
X9935571Y-24724793D02*
X9954618Y-24715269D01*
X10021285Y-24667650D02*
X10097475Y-24667650D01*
X10049856Y-24600984D02*
X10049856Y-24772412D01*
X10049856Y-24772412D02*
X10059380Y-24791460D01*
X10059380Y-24791460D02*
X10078428Y-24800984D01*
X10078428Y-24800984D02*
X10097475Y-24800984D01*
X10240333Y-24791460D02*
X10221285Y-24800984D01*
X10221285Y-24800984D02*
X10183190Y-24800984D01*
X10183190Y-24800984D02*
X10164142Y-24791460D01*
X10164142Y-24791460D02*
X10154618Y-24772412D01*
X10154618Y-24772412D02*
X10154618Y-24696222D01*
X10154618Y-24696222D02*
X10164142Y-24677174D01*
X10164142Y-24677174D02*
X10183190Y-24667650D01*
X10183190Y-24667650D02*
X10221285Y-24667650D01*
X10221285Y-24667650D02*
X10240333Y-24677174D01*
X10240333Y-24677174D02*
X10249856Y-24696222D01*
X10249856Y-24696222D02*
X10249856Y-24715269D01*
X10249856Y-24715269D02*
X10154618Y-24734317D01*
X10421285Y-24800984D02*
X10421285Y-24600984D01*
X10421285Y-24791460D02*
X10402237Y-24800984D01*
X10402237Y-24800984D02*
X10364142Y-24800984D01*
X10364142Y-24800984D02*
X10345095Y-24791460D01*
X10345095Y-24791460D02*
X10335571Y-24781936D01*
X10335571Y-24781936D02*
X10326047Y-24762888D01*
X10326047Y-24762888D02*
X10326047Y-24705746D01*
X10326047Y-24705746D02*
X10335571Y-24686698D01*
X10335571Y-24686698D02*
X10345095Y-24677174D01*
X10345095Y-24677174D02*
X10364142Y-24667650D01*
X10364142Y-24667650D02*
X10402237Y-24667650D01*
X10402237Y-24667650D02*
X10421285Y-24677174D01*
X10497476Y-24877174D02*
X10506999Y-24867650D01*
X10506999Y-24867650D02*
X10526047Y-24839079D01*
X10526047Y-24839079D02*
X10535571Y-24820031D01*
X10535571Y-24820031D02*
X10545095Y-24791460D01*
X10545095Y-24791460D02*
X10554618Y-24743841D01*
X10554618Y-24743841D02*
X10554618Y-24705746D01*
X10554618Y-24705746D02*
X10545095Y-24658127D01*
X10545095Y-24658127D02*
X10535571Y-24629555D01*
X10535571Y-24629555D02*
X10526047Y-24610508D01*
X10526047Y-24610508D02*
X10506999Y-24581936D01*
X10506999Y-24581936D02*
X10497476Y-24572412D01*
M02*
