%TF.GenerationSoftware,KiCad,Pcbnew,8.0.8-8.0.8-0~ubuntu24.04.1*%
%TF.CreationDate,2025-08-07T23:42:04-04:00*%
%TF.ProjectId,stencil,7374656e-6369-46c2-9e6b-696361645f70,rev?*%
%TF.SameCoordinates,Original*%
%TF.FileFunction,Copper,L2,Bot*%
%TF.FilePolarity,Positive*%
%FSLAX46Y46*%
G04 Gerber Fmt 4.6, Leading zero omitted, Abs format (unit mm)*
G04 Created by KiCad (PCBNEW 8.0.8-8.0.8-0~ubuntu24.04.1) date 2025-08-07 23:42:04*
%MOMM*%
%LPD*%
G01*
G04 APERTURE LIST*
G04 Aperture macros list*
%AMRoundRect*
0 Rectangle with rounded corners*
0 $1 Rounding radius*
0 $2 $3 $4 $5 $6 $7 $8 $9 X,Y pos of 4 corners*
0 Add a 4 corners polygon primitive as box body*
4,1,4,$2,$3,$4,$5,$6,$7,$8,$9,$2,$3,0*
0 Add four circle primitives for the rounded corners*
1,1,$1+$1,$2,$3*
1,1,$1+$1,$4,$5*
1,1,$1+$1,$6,$7*
1,1,$1+$1,$8,$9*
0 Add four rect primitives between the rounded corners*
20,1,$1+$1,$2,$3,$4,$5,0*
20,1,$1+$1,$4,$5,$6,$7,0*
20,1,$1+$1,$6,$7,$8,$9,0*
20,1,$1+$1,$8,$9,$2,$3,0*%
%AMOutline5P*
0 Free polygon, 5 corners , with rotation*
0 The origin of the aperture is its center*
0 number of corners: always 5*
0 $1 to $10 corner X, Y*
0 $11 Rotation angle, in degrees counterclockwise*
0 create outline with 5 corners*
4,1,5,$1,$2,$3,$4,$5,$6,$7,$8,$9,$10,$1,$2,$11*%
%AMOutline6P*
0 Free polygon, 6 corners , with rotation*
0 The origin of the aperture is its center*
0 number of corners: always 6*
0 $1 to $12 corner X, Y*
0 $13 Rotation angle, in degrees counterclockwise*
0 create outline with 6 corners*
4,1,6,$1,$2,$3,$4,$5,$6,$7,$8,$9,$10,$11,$12,$1,$2,$13*%
%AMOutline7P*
0 Free polygon, 7 corners , with rotation*
0 The origin of the aperture is its center*
0 number of corners: always 7*
0 $1 to $14 corner X, Y*
0 $15 Rotation angle, in degrees counterclockwise*
0 create outline with 7 corners*
4,1,7,$1,$2,$3,$4,$5,$6,$7,$8,$9,$10,$11,$12,$13,$14,$1,$2,$15*%
%AMOutline8P*
0 Free polygon, 8 corners , with rotation*
0 The origin of the aperture is its center*
0 number of corners: always 8*
0 $1 to $16 corner X, Y*
0 $17 Rotation angle, in degrees counterclockwise*
0 create outline with 8 corners*
4,1,8,$1,$2,$3,$4,$5,$6,$7,$8,$9,$10,$11,$12,$13,$14,$15,$16,$1,$2,$17*%
G04 Aperture macros list end*
%TA.AperFunction,ComponentPad*%
%ADD10R,1.508000X1.508000*%
%TD*%
%TA.AperFunction,ComponentPad*%
%ADD11C,1.508000*%
%TD*%
%TA.AperFunction,ComponentPad*%
%ADD12C,1.346200*%
%TD*%
%TA.AperFunction,SMDPad,CuDef*%
%ADD13R,3.800000X2.000000*%
%TD*%
%TA.AperFunction,SMDPad,CuDef*%
%ADD14RoundRect,0.250000X-0.475000X0.250000X-0.475000X-0.250000X0.475000X-0.250000X0.475000X0.250000X0*%
%TD*%
%TA.AperFunction,SMDPad,CuDef*%
%ADD15RoundRect,0.250000X-0.159099X0.512652X-0.512652X0.159099X0.159099X-0.512652X0.512652X-0.159099X0*%
%TD*%
%TA.AperFunction,SMDPad,CuDef*%
%ADD16O,2.000000X3.800000*%
%TD*%
%TA.AperFunction,ComponentPad*%
%ADD17C,1.498600*%
%TD*%
%TA.AperFunction,ComponentPad*%
%ADD18R,1.700000X1.700000*%
%TD*%
%TA.AperFunction,ComponentPad*%
%ADD19O,1.700000X1.700000*%
%TD*%
%TA.AperFunction,ComponentPad*%
%ADD20C,1.219200*%
%TD*%
%TA.AperFunction,SMDPad,CuDef*%
%ADD21Outline5P,-1.900000X1.000000X1.900000X1.000000X1.900000X-1.000000X-1.500000X-1.000000X-1.900000X-0.600000X180.000000*%
%TD*%
%TA.AperFunction,SMDPad,CuDef*%
%ADD22Outline5P,-1.900000X1.000000X1.900000X1.000000X1.900000X-1.000000X-1.500000X-1.000000X-1.900000X-0.600000X270.000000*%
%TD*%
%TA.AperFunction,ComponentPad*%
%ADD23C,1.270000*%
%TD*%
%TA.AperFunction,ComponentPad*%
%ADD24R,1.800000X1.800000*%
%TD*%
%TA.AperFunction,ComponentPad*%
%ADD25C,1.800000*%
%TD*%
%TA.AperFunction,ComponentPad*%
%ADD26O,1.308000X2.616000*%
%TD*%
%TA.AperFunction,ViaPad*%
%ADD27C,0.700000*%
%TD*%
%TA.AperFunction,ViaPad*%
%ADD28C,1.000000*%
%TD*%
%TA.AperFunction,ViaPad*%
%ADD29C,0.860000*%
%TD*%
%TA.AperFunction,ViaPad*%
%ADD30C,0.740000*%
%TD*%
%TA.AperFunction,ViaPad*%
%ADD31C,0.800000*%
%TD*%
%TA.AperFunction,ViaPad*%
%ADD32C,0.850000*%
%TD*%
%TA.AperFunction,Conductor*%
%ADD33C,0.203200*%
%TD*%
%TA.AperFunction,Conductor*%
%ADD34C,0.889000*%
%TD*%
%TA.AperFunction,Conductor*%
%ADD35C,0.200000*%
%TD*%
%TA.AperFunction,Conductor*%
%ADD36C,0.254000*%
%TD*%
%TA.AperFunction,Conductor*%
%ADD37C,0.381000*%
%TD*%
%TA.AperFunction,Conductor*%
%ADD38C,0.508000*%
%TD*%
G04 APERTURE END LIST*
D10*
%TO.P,J3,1,1*%
%TO.N,N/C*%
X54945002Y-174884000D03*
D11*
%TO.P,J3,2,2*%
X57445002Y-174884000D03*
%TO.P,J3,3,3*%
X59945000Y-174884000D03*
%TO.P,J3,4,4*%
X62445000Y-174884000D03*
%TD*%
D12*
%TO.P,J1,1,1*%
%TO.N,N/C*%
X70933399Y-181598306D03*
%TO.P,J1,2,2*%
X70933399Y-184098306D03*
%TO.P,J1,3,3*%
X72933400Y-181598306D03*
%TO.P,J1,4,4*%
X72933400Y-184098306D03*
%TO.P,J1,5,5*%
X74933398Y-181598306D03*
%TO.P,J1,6,6*%
X74933398Y-184098306D03*
%TO.P,J1,7,7*%
X76933400Y-181598306D03*
%TO.P,J1,8,8*%
X76933400Y-184098306D03*
%TO.P,J1,9,9*%
X78933398Y-181598306D03*
%TO.P,J1,10,10*%
X78933398Y-184098306D03*
%TO.P,J1,11,11*%
X80933399Y-181598306D03*
%TO.P,J1,12,12*%
X80933399Y-184098306D03*
%TO.P,J1,13,13*%
X82933400Y-181598306D03*
%TO.P,J1,14,14*%
X82933400Y-184098306D03*
%TO.P,J1,15,15*%
X84933399Y-181598306D03*
%TO.P,J1,16,16*%
X84933399Y-184098306D03*
%TO.P,J1,17,17*%
X86933400Y-181598306D03*
%TO.P,J1,18,18*%
X86933400Y-184098306D03*
%TO.P,J1,19,19*%
X88933398Y-181598306D03*
%TO.P,J1,20,20*%
X88933398Y-184098306D03*
%TO.P,J1,21,21*%
X90933399Y-181598306D03*
%TO.P,J1,22,22*%
X90933399Y-184098306D03*
%TO.P,J1,23,23*%
X92933398Y-181598306D03*
%TO.P,J1,24,24*%
X92933398Y-184098306D03*
%TD*%
D13*
%TO.P,TP6,1,1*%
%TO.N,N/C*%
X61175000Y-211460000D03*
%TD*%
D14*
%TO.P,C7,1*%
%TO.N,N/C*%
X94400000Y-215400000D03*
%TO.P,C7,2*%
X94400000Y-217299998D03*
%TD*%
D15*
%TO.P,C6,1*%
%TO.N,N/C*%
X81671751Y-205928249D03*
%TO.P,C6,2*%
X80328249Y-207271751D03*
%TD*%
D16*
%TO.P,TP4,1,1*%
%TO.N,N/C*%
X52285000Y-224160000D03*
%TD*%
D17*
%TO.P,J4,1,1*%
%TO.N,N/C*%
X44665000Y-224668000D03*
%TO.P,J4,2,2*%
X44665000Y-222168000D03*
%TD*%
D13*
%TO.P,TP8,1,1*%
%TO.N,N/C*%
X98005000Y-230510000D03*
%TD*%
D15*
%TO.P,C8,1*%
%TO.N,N/C*%
X95571751Y-205478249D03*
%TO.P,C8,2*%
X94228249Y-206821751D03*
%TD*%
D10*
%TO.P,J7,1,1*%
%TO.N,N/C*%
X51373000Y-201637500D03*
D11*
%TO.P,J7,2,2*%
X53913000Y-201637500D03*
%TO.P,J7,3,3*%
X51373000Y-204177500D03*
%TO.P,J7,4,4*%
X53913000Y-204177500D03*
%TO.P,J7,5,5*%
X51372999Y-206717500D03*
%TO.P,J7,6,6*%
X53913001Y-206717500D03*
%TO.P,J7,7,7*%
X51373000Y-209257500D03*
%TO.P,J7,8,8*%
X53913000Y-209257500D03*
%TO.P,J7,9,9*%
X51373000Y-211797500D03*
%TO.P,J7,10,10*%
X53913000Y-211797500D03*
%TD*%
D18*
%TO.P,SW3,1,A*%
%TO.N,N/C*%
X66400000Y-196940000D03*
D19*
%TO.P,SW3,2,B*%
X66400000Y-194400000D03*
%TO.P,SW3,3,C*%
X66400000Y-191860001D03*
%TD*%
D20*
%TO.P,U1,1,1*%
%TO.N,N/C*%
X107860000Y-212400000D03*
%TO.P,U1,2,2*%
X107860000Y-210400001D03*
%TO.P,U1,3,3*%
X107860000Y-208400000D03*
%TO.P,U1,4,4*%
X107860000Y-206400001D03*
%TO.P,U1,5,5*%
X107860000Y-204400000D03*
%TO.P,U1,6,6*%
X107860000Y-202400002D03*
%TO.P,U1,7,7*%
X107860000Y-200400001D03*
%TO.P,U1,8,8*%
X107860000Y-198400000D03*
%TO.P,U1,9,9*%
X110400000Y-212400000D03*
%TO.P,U1,10,10*%
X110400000Y-210400001D03*
%TO.P,U1,11,11*%
X110400000Y-208400000D03*
%TO.P,U1,12,12*%
X110400000Y-206400001D03*
%TO.P,U1,13,13*%
X110400000Y-204400000D03*
%TO.P,U1,14,14*%
X110400000Y-202400002D03*
%TO.P,U1,15,15*%
X110400000Y-200400001D03*
%TO.P,U1,16,16*%
X110400000Y-198400000D03*
%TD*%
D17*
%TO.P,SW2,1,A*%
%TO.N,N/C*%
X111340000Y-221620000D03*
%TO.P,SW2,2,B*%
X111340000Y-224120000D03*
%TD*%
%TO.P,J5,1,Pin_1*%
%TO.N,N/C*%
X107400000Y-183400000D03*
%TO.P,J5,2,Pin_2*%
X104900000Y-183400000D03*
%TO.P,J5,3,Pin_3*%
X102400000Y-183400000D03*
%TD*%
D18*
%TO.P,J6,1,Pin_1*%
%TO.N,N/C*%
X42760000Y-198125000D03*
D19*
%TO.P,J6,2,Pin_2*%
X42760000Y-200665000D03*
%TO.P,J6,3,Pin_3*%
X42760000Y-203204999D03*
%TO.P,J6,4,Pin_4*%
X42760000Y-205745000D03*
%TO.P,J6,5,Pin_5*%
X42760000Y-208285000D03*
%TO.P,J6,6,Pin_6*%
X42760000Y-210825000D03*
%TD*%
D10*
%TO.P,J2,1,1*%
%TO.N,N/C*%
X44157000Y-184402002D03*
D11*
%TO.P,J2,2,2*%
X44157000Y-186902002D03*
%TO.P,J2,3,3*%
X44157000Y-189402000D03*
%TO.P,J2,4,4*%
X44157000Y-191902000D03*
%TD*%
D21*
%TO.P,3V2,1,1*%
%TO.N,N/C*%
X326237600Y-138002000D03*
%TD*%
D13*
%TO.P,GND3,1,1*%
%TO.N,N/C*%
X93319600Y-57738000D03*
%TD*%
D22*
%TO.P,3V1,1,1*%
%TO.N,N/C*%
X52552600Y-123825000D03*
%TD*%
D21*
%TO.P,3V3,1,1*%
%TO.N,N/C*%
X225145600Y-103204000D03*
%TD*%
D13*
%TO.P,GND4,1,1*%
%TO.N,N/C*%
X291439600Y-56976000D03*
%TD*%
D23*
%TO.P,T2,1,1*%
%TO.N,N/C*%
X149098000Y-94441000D03*
%TO.P,T2,2,2*%
X151638000Y-94441000D03*
%TO.P,T2,3,3*%
X154178000Y-94441000D03*
%TO.P,T2,4,4*%
X156718000Y-94441000D03*
%TO.P,T2,5,5*%
X159258000Y-94441000D03*
%TO.P,T2,6,6*%
X161798000Y-94441000D03*
%TO.P,T2,7,7*%
X164338000Y-94441000D03*
%TO.P,T2,8,8*%
X166878000Y-94441000D03*
%TO.P,T2,9,9*%
X166878000Y-84281000D03*
%TO.P,T2,10,10*%
X164338000Y-84281000D03*
%TO.P,T2,11,11*%
X161798000Y-84281000D03*
%TO.P,T2,12,12*%
X159258000Y-84281000D03*
%TO.P,T2,13,13*%
X156718000Y-84281000D03*
%TO.P,T2,14,14*%
X154178000Y-84281000D03*
%TO.P,T2,15,15*%
X151638000Y-84281000D03*
%TO.P,T2,16,16*%
X149098000Y-84281000D03*
%TD*%
D24*
%TO.P,PT4,1,+*%
%TO.N,N/C*%
X334614600Y-128096000D03*
D25*
%TO.P,PT4,2,-*%
X337154600Y-128096000D03*
%TD*%
D26*
%TO.P,U9,1,CA*%
%TO.N,N/C*%
X330809600Y-74716000D03*
%TO.P,U9,2,F*%
X333349600Y-74716000D03*
%TO.P,U9,3,G*%
X335889600Y-74716000D03*
%TO.P,U9,4,E*%
X338429600Y-74716000D03*
%TO.P,U9,5,D*%
X340969600Y-74716000D03*
%TO.P,U9,6,CA*%
X330809600Y-44316000D03*
%TO.P,U9,7,DP*%
X333349600Y-44316000D03*
%TO.P,U9,8,C*%
X335889600Y-44316000D03*
%TO.P,U9,9,B*%
X338429600Y-44316000D03*
%TO.P,U9,10,A*%
X340969600Y-44316000D03*
%TD*%
D24*
%TO.P,PT1,1,+*%
%TO.N,N/C*%
X67914600Y-128096000D03*
D25*
%TO.P,PT1,2,-*%
X70454600Y-128096000D03*
%TD*%
D12*
%TO.P,J1,1,1*%
%TO.N,N/C*%
X213616241Y-125516000D03*
%TO.P,J1,2,2*%
X213616241Y-123016000D03*
%TO.P,J1,3,3*%
X211616240Y-125516000D03*
%TO.P,J1,4,4*%
X211616240Y-123016000D03*
%TO.P,J1,5,5*%
X209616242Y-125516000D03*
%TO.P,J1,6,6*%
X209616242Y-123016000D03*
%TO.P,J1,7,7*%
X207616240Y-125516000D03*
%TO.P,J1,8,8*%
X207616240Y-123016000D03*
%TO.P,J1,9,9*%
X205616242Y-125516000D03*
%TO.P,J1,10,10*%
X205616242Y-123016000D03*
%TO.P,J1,11,11*%
X203616241Y-125516000D03*
%TO.P,J1,12,12*%
X203616241Y-123016000D03*
%TO.P,J1,13,13*%
X201616240Y-125516000D03*
%TO.P,J1,14,14*%
X201616240Y-123016000D03*
%TO.P,J1,15,15*%
X199616241Y-125516000D03*
%TO.P,J1,16,16*%
X199616241Y-123016000D03*
%TO.P,J1,17,17*%
X197616240Y-125516000D03*
%TO.P,J1,18,18*%
X197616240Y-123016000D03*
%TO.P,J1,19,19*%
X195616242Y-125516000D03*
%TO.P,J1,20,20*%
X195616242Y-123016000D03*
%TO.P,J1,21,21*%
X193616241Y-125516000D03*
%TO.P,J1,22,22*%
X193616241Y-123016000D03*
%TO.P,J1,23,23*%
X191616242Y-125516000D03*
%TO.P,J1,24,24*%
X191616242Y-123016000D03*
%TD*%
D20*
%TO.P,U1,1,1*%
%TO.N,N/C*%
X209556486Y-45546000D03*
%TO.P,U1,2,2*%
X207556487Y-45546000D03*
%TO.P,U1,3,3*%
X205556486Y-45546000D03*
%TO.P,U1,4,4*%
X203556487Y-45546000D03*
%TO.P,U1,5,5*%
X201556486Y-45546000D03*
%TO.P,U1,6,6*%
X199556488Y-45546000D03*
%TO.P,U1,7,7*%
X197556487Y-45546000D03*
%TO.P,U1,8,8*%
X195556486Y-45546000D03*
%TO.P,U1,9,9*%
X209556486Y-43006000D03*
%TO.P,U1,10,10*%
X207556487Y-43006000D03*
%TO.P,U1,11,11*%
X205556486Y-43006000D03*
%TO.P,U1,12,12*%
X203556487Y-43006000D03*
%TO.P,U1,13,13*%
X201556486Y-43006000D03*
%TO.P,U1,14,14*%
X199556488Y-43006000D03*
%TO.P,U1,15,15*%
X197556487Y-43006000D03*
%TO.P,U1,16,16*%
X195556486Y-43006000D03*
%TD*%
D23*
%TO.P,T3,1,1*%
%TO.N,N/C*%
X238099600Y-94394000D03*
%TO.P,T3,2,2*%
X240639600Y-94394000D03*
%TO.P,T3,3,3*%
X243179600Y-94394000D03*
%TO.P,T3,4,4*%
X245719600Y-94394000D03*
%TO.P,T3,5,5*%
X248259600Y-94394000D03*
%TO.P,T3,6,6*%
X250799600Y-94394000D03*
%TO.P,T3,7,7*%
X253339600Y-94394000D03*
%TO.P,T3,8,8*%
X255879600Y-94394000D03*
%TO.P,T3,9,9*%
X255879600Y-84234000D03*
%TO.P,T3,10,10*%
X253339600Y-84234000D03*
%TO.P,T3,11,11*%
X250799600Y-84234000D03*
%TO.P,T3,12,12*%
X248259600Y-84234000D03*
%TO.P,T3,13,13*%
X245719600Y-84234000D03*
%TO.P,T3,14,14*%
X243179600Y-84234000D03*
%TO.P,T3,15,15*%
X240639600Y-84234000D03*
%TO.P,T3,16,16*%
X238099600Y-84234000D03*
%TD*%
D26*
%TO.P,U8,1,CA*%
%TO.N,N/C*%
X241909600Y-74716000D03*
%TO.P,U8,2,F*%
X244449600Y-74716000D03*
%TO.P,U8,3,G*%
X246989600Y-74716000D03*
%TO.P,U8,4,E*%
X249529600Y-74716000D03*
%TO.P,U8,5,D*%
X252069600Y-74716000D03*
%TO.P,U8,6,CA*%
X241909600Y-44316000D03*
%TO.P,U8,7,DP*%
X244449600Y-44316000D03*
%TO.P,U8,8,C*%
X246989600Y-44316000D03*
%TO.P,U8,9,B*%
X249529600Y-44316000D03*
%TO.P,U8,10,A*%
X252069600Y-44316000D03*
%TD*%
%TO.P,U6,1,CA*%
%TO.N,N/C*%
X64109600Y-74716000D03*
%TO.P,U6,2,F*%
X66649600Y-74716000D03*
%TO.P,U6,3,G*%
X69189600Y-74716000D03*
%TO.P,U6,4,E*%
X71729600Y-74716000D03*
%TO.P,U6,5,D*%
X74269600Y-74716000D03*
%TO.P,U6,6,CA*%
X64109600Y-44316000D03*
%TO.P,U6,7,DP*%
X66649600Y-44316000D03*
%TO.P,U6,8,C*%
X69189600Y-44316000D03*
%TO.P,U6,9,B*%
X71729600Y-44316000D03*
%TO.P,U6,10,A*%
X74269600Y-44316000D03*
%TD*%
D23*
%TO.P,T1,1,1*%
%TO.N,N/C*%
X60274200Y-94417500D03*
%TO.P,T1,2,2*%
X62814200Y-94417500D03*
%TO.P,T1,3,3*%
X65354200Y-94417500D03*
%TO.P,T1,4,4*%
X67894200Y-94417500D03*
%TO.P,T1,5,5*%
X70434200Y-94417500D03*
%TO.P,T1,6,6*%
X72974200Y-94417500D03*
%TO.P,T1,7,7*%
X75514200Y-94417500D03*
%TO.P,T1,8,8*%
X78054200Y-94417500D03*
%TO.P,T1,9,9*%
X78054200Y-84257500D03*
%TO.P,T1,10,10*%
X75514200Y-84257500D03*
%TO.P,T1,11,11*%
X72974200Y-84257500D03*
%TO.P,T1,12,12*%
X70434200Y-84257500D03*
%TO.P,T1,13,13*%
X67894200Y-84257500D03*
%TO.P,T1,14,14*%
X65354200Y-84257500D03*
%TO.P,T1,15,15*%
X62814200Y-84257500D03*
%TO.P,T1,16,16*%
X60274200Y-84257500D03*
%TD*%
D26*
%TO.P,U7,1,CA*%
%TO.N,N/C*%
X153009600Y-74716000D03*
%TO.P,U7,2,F*%
X155549600Y-74716000D03*
%TO.P,U7,3,G*%
X158089600Y-74716000D03*
%TO.P,U7,4,E*%
X160629600Y-74716000D03*
%TO.P,U7,5,D*%
X163169600Y-74716000D03*
%TO.P,U7,6,CA*%
X153009600Y-44316000D03*
%TO.P,U7,7,DP*%
X155549600Y-44316000D03*
%TO.P,U7,8,C*%
X158089600Y-44316000D03*
%TO.P,U7,9,B*%
X160629600Y-44316000D03*
%TO.P,U7,10,A*%
X163169600Y-44316000D03*
%TD*%
D24*
%TO.P,PT3,1,+*%
%TO.N,N/C*%
X245714600Y-128096000D03*
D25*
%TO.P,PT3,2,-*%
X248254600Y-128096000D03*
%TD*%
D24*
%TO.P,PT2,1,+*%
%TO.N,N/C*%
X156814600Y-128096000D03*
D25*
%TO.P,PT2,2,-*%
X159354600Y-128096000D03*
%TD*%
D23*
%TO.P,T4,1,1*%
%TO.N,N/C*%
X326999600Y-94441000D03*
%TO.P,T4,2,2*%
X329539600Y-94441000D03*
%TO.P,T4,3,3*%
X332079600Y-94441000D03*
%TO.P,T4,4,4*%
X334619600Y-94441000D03*
%TO.P,T4,5,5*%
X337159600Y-94441000D03*
%TO.P,T4,6,6*%
X339699600Y-94441000D03*
%TO.P,T4,7,7*%
X342239600Y-94441000D03*
%TO.P,T4,8,8*%
X344779600Y-94441000D03*
%TO.P,T4,9,9*%
X344779600Y-84281000D03*
%TO.P,T4,10,10*%
X342239600Y-84281000D03*
%TO.P,T4,11,11*%
X339699600Y-84281000D03*
%TO.P,T4,12,12*%
X337159600Y-84281000D03*
%TO.P,T4,13,13*%
X334619600Y-84281000D03*
%TO.P,T4,14,14*%
X332079600Y-84281000D03*
%TO.P,T4,15,15*%
X329539600Y-84281000D03*
%TO.P,T4,16,16*%
X326999600Y-84281000D03*
%TD*%
D27*
%TO.N,*%
X97477695Y-197822305D03*
X99200000Y-196200000D03*
X84600000Y-199100000D03*
X80771288Y-197071288D03*
X89400000Y-190400000D03*
X87700000Y-197800000D03*
X85400000Y-191000000D03*
X92726870Y-203218283D03*
X85300000Y-195500000D03*
X89500000Y-197700000D03*
X100200000Y-194800000D03*
X98840072Y-201200000D03*
X101400000Y-199251600D03*
X103000000Y-194748400D03*
X85400000Y-189800000D03*
X90486519Y-209113481D03*
X104200000Y-194748400D03*
X104200000Y-197600000D03*
X100545000Y-180980000D03*
X82028938Y-175931856D03*
X78200000Y-221400000D03*
X110705000Y-180980000D03*
X71200000Y-222800000D03*
X50761000Y-180980000D03*
X48661498Y-231712281D03*
X110705000Y-231780000D03*
X69049000Y-221242000D03*
X63715000Y-221239000D03*
X49745000Y-195204000D03*
X63715000Y-235590000D03*
X52539000Y-235478200D03*
X87464000Y-205999000D03*
X95846000Y-219588000D03*
X90385000Y-231780000D03*
X95677938Y-192782474D03*
X72478000Y-212984000D03*
X64985000Y-211460000D03*
X93600000Y-203000000D03*
X94200000Y-205200000D03*
X64731000Y-196982000D03*
X86067000Y-206380000D03*
D28*
X54825000Y-224160000D03*
D27*
X75300000Y-197000000D03*
X76500000Y-204800000D03*
X74400000Y-197100000D03*
X75700000Y-205600000D03*
X60921000Y-186822000D03*
X63715000Y-189402000D03*
X74700000Y-206300000D03*
X73400000Y-197300000D03*
X102000000Y-201300000D03*
X100700000Y-203400000D03*
X100700000Y-207200000D03*
X80600000Y-205000000D03*
X96400000Y-206400000D03*
D29*
X77685000Y-235844000D03*
D27*
X94400000Y-213900000D03*
D29*
X64477000Y-215524000D03*
D27*
X104100000Y-199400000D03*
X98750000Y-197950000D03*
X101250000Y-195548400D03*
X79500000Y-197100000D03*
X83700000Y-199800000D03*
X74100000Y-191700000D03*
X96200000Y-210998400D03*
X73113000Y-208920000D03*
X97200000Y-210800000D03*
X76900000Y-192100000D03*
X80500000Y-202200000D03*
X81800000Y-201200000D03*
X77000000Y-197100000D03*
X94000000Y-204200000D03*
X98400000Y-210600000D03*
X85400000Y-192200000D03*
X91600000Y-203800000D03*
X85400000Y-193400000D03*
X90948400Y-203000000D03*
X75100000Y-194000000D03*
X82600000Y-200500000D03*
X78200000Y-197100000D03*
X102000000Y-194748400D03*
X99600000Y-200000000D03*
X85300000Y-194500000D03*
X90100000Y-196900000D03*
X94400000Y-208200000D03*
X71800000Y-200251600D03*
X87300000Y-208000000D03*
X89600000Y-218600000D03*
X86000000Y-213058000D03*
X76600000Y-199600000D03*
X84775000Y-197525000D03*
X82987302Y-197987302D03*
X76000000Y-198800000D03*
X89300000Y-194900000D03*
X86600000Y-197600000D03*
X72412500Y-197087500D03*
X79000000Y-203200000D03*
D30*
X295757600Y-85170000D03*
X295757600Y-93806000D03*
X330809600Y-65800701D03*
X330822648Y-72320269D03*
X241919048Y-60947462D03*
X241900236Y-70353305D03*
X153009600Y-49102000D03*
X153009600Y-52785000D03*
X285597600Y-114888000D03*
X284835600Y-117588000D03*
X290550600Y-114380000D03*
X289915600Y-117588000D03*
X286359600Y-119968000D03*
X288264600Y-114380000D03*
X310235600Y-77677000D03*
X313156600Y-119968000D03*
X181965600Y-60532000D03*
X181965600Y-46054000D03*
X165201600Y-130128000D03*
X177647600Y-110316000D03*
X177647600Y-46054000D03*
X177647600Y-60532000D03*
X179933600Y-60532000D03*
X179933600Y-46054000D03*
X236448600Y-99140000D03*
X93573600Y-93806000D03*
X174853600Y-46054000D03*
X93573600Y-108538000D03*
X93573600Y-114380000D03*
X93573600Y-84408000D03*
X174853600Y-60532000D03*
X292075743Y-113492143D03*
X292077240Y-117564334D03*
X125196600Y-118571000D03*
X126720600Y-117174000D03*
X117640100Y-116602500D03*
X119608600Y-118571000D03*
X104495600Y-105490000D03*
X102717600Y-103712000D03*
X115671600Y-110570000D03*
X115671600Y-112221000D03*
X337921600Y-92536000D03*
X253847600Y-86440000D03*
X335827244Y-92598356D03*
X159740600Y-92456000D03*
X157646244Y-92518356D03*
X75666600Y-86360000D03*
X232765600Y-46562000D03*
X240385600Y-48340000D03*
X243687600Y-48340000D03*
X226923600Y-46562000D03*
X212953600Y-53166000D03*
X212953600Y-48594000D03*
X209143600Y-39196000D03*
X156819600Y-46816000D03*
X167487600Y-45800000D03*
X163931600Y-41228000D03*
X155295600Y-41228000D03*
X303631600Y-86948000D03*
X334873600Y-92028000D03*
X303631600Y-93806000D03*
X336397600Y-90504000D03*
X283311600Y-84916000D03*
X283311600Y-93806000D03*
X287375600Y-84916000D03*
X287375600Y-93806000D03*
X279247600Y-93806000D03*
X279247600Y-84916000D03*
X291693600Y-84916000D03*
X291693600Y-93806000D03*
X245338600Y-90123000D03*
X331063600Y-88980000D03*
X249021600Y-88218000D03*
X299821600Y-85678000D03*
X299821600Y-93806000D03*
X125450600Y-86868000D03*
X125450600Y-93726000D03*
X158216600Y-90424000D03*
X156692600Y-91948000D03*
X105130600Y-93726000D03*
X105130600Y-84836000D03*
X109194600Y-93726000D03*
X109194600Y-84836000D03*
X101066600Y-84836000D03*
X101066600Y-93726000D03*
X117576600Y-93726000D03*
X117576600Y-85090000D03*
X152882600Y-88900000D03*
X159359600Y-69930000D03*
X253339600Y-68152000D03*
X250799600Y-68152000D03*
X199491600Y-57336983D03*
X193903600Y-57338852D03*
X151485600Y-69930000D03*
X161899600Y-71708000D03*
X193903600Y-59008000D03*
X151485600Y-71708000D03*
X203555600Y-59008000D03*
X193903600Y-52331426D03*
X247751600Y-41228000D03*
X253339600Y-41228000D03*
X206023136Y-52331536D03*
X74268259Y-37949018D03*
X193903600Y-48993142D03*
X74255195Y-41319445D03*
X253339600Y-71200000D03*
X151485600Y-66374000D03*
X196443600Y-54039272D03*
X154533600Y-66374000D03*
X245719600Y-71200000D03*
X193903600Y-54000568D03*
X156565600Y-68406000D03*
X253339600Y-69676000D03*
X199824726Y-61892107D03*
X151485600Y-68406000D03*
X196773140Y-61877540D03*
X248259600Y-69676000D03*
X208635600Y-50880000D03*
X71729600Y-41336228D03*
X193903600Y-50662284D03*
X249275600Y-39704000D03*
X253339600Y-39704000D03*
X71810866Y-39358744D03*
X225018600Y-122254000D03*
X231241600Y-116031000D03*
X200126600Y-127080000D03*
X203809600Y-120730000D03*
X233083100Y-118507500D03*
X196443600Y-128011333D03*
X229336600Y-122254000D03*
X202158600Y-121492000D03*
X235686600Y-118571000D03*
X202285600Y-128858000D03*
X231876600Y-122254000D03*
X198475600Y-129874000D03*
X198475600Y-119290666D03*
X200507600Y-118190000D03*
X306156050Y-112840450D03*
X308965600Y-112221000D03*
X237591600Y-111967000D03*
X237591600Y-123524000D03*
X195616242Y-110504642D03*
X236702600Y-109173000D03*
X236702600Y-124286000D03*
X193649600Y-110570000D03*
X301853600Y-108919000D03*
X276453600Y-108919000D03*
X339953600Y-113237000D03*
X342366600Y-113237000D03*
X299948600Y-111205000D03*
X276453600Y-111205000D03*
X300964600Y-124159000D03*
X299249255Y-126380655D03*
X194303600Y-136332000D03*
X276453600Y-112221000D03*
X301853600Y-112602000D03*
X304139600Y-110189000D03*
X276453600Y-110030250D03*
X211366100Y-113173500D03*
X206476600Y-114253000D03*
X213080600Y-131736665D03*
X171551600Y-123397000D03*
X166217600Y-118052714D03*
X165201600Y-119248571D03*
X207111600Y-132668000D03*
X170535600Y-124540000D03*
X167360600Y-116793000D03*
X172694600Y-122127000D03*
X211332420Y-130919820D03*
X207746600Y-111967000D03*
X210667600Y-115650000D03*
X113512600Y-84836000D03*
X113512600Y-93726000D03*
X67284600Y-90170000D03*
X70840600Y-88138000D03*
X121640600Y-93726000D03*
X121640600Y-85598000D03*
X80937699Y-109364099D03*
X85255699Y-109364099D03*
X164439600Y-114634000D03*
X163677600Y-124794000D03*
X205079600Y-135589000D03*
X152755600Y-126572000D03*
X152755600Y-114888000D03*
X204444600Y-116666000D03*
X203047600Y-134573000D03*
X167487600Y-132795000D03*
X165836600Y-131652000D03*
X72237600Y-113110000D03*
X68554600Y-110951000D03*
X143865600Y-114888000D03*
X140817600Y-126437000D03*
X145389600Y-125302000D03*
X146151600Y-114888000D03*
X246354600Y-99521000D03*
X337345824Y-107106309D03*
X225145600Y-55452000D03*
X100304600Y-122635000D03*
X218414600Y-85551000D03*
X156819600Y-99521000D03*
X279628600Y-120857000D03*
X281787600Y-122000000D03*
X308711600Y-122762000D03*
X257149600Y-107141000D03*
X98399600Y-106506000D03*
X250164600Y-107141000D03*
X309854600Y-89996000D03*
X215874600Y-112221000D03*
X67919600Y-98886000D03*
X159994600Y-106506000D03*
X315569600Y-107141000D03*
X169519600Y-69676000D03*
X346557600Y-128096000D03*
X344144600Y-107141000D03*
X189331600Y-123016000D03*
X78968600Y-128096000D03*
X330174600Y-107141000D03*
X80619600Y-106506000D03*
X123545600Y-113618000D03*
X330174600Y-115396000D03*
X101574600Y-122635000D03*
X242544600Y-107141000D03*
X105384600Y-122762000D03*
X189331600Y-120730000D03*
X303631600Y-122762000D03*
X304901600Y-122762000D03*
X72999600Y-106506000D03*
X256641600Y-128096000D03*
X152374600Y-106506000D03*
X318871600Y-44530000D03*
X337159600Y-99521000D03*
X89509600Y-106506000D03*
X65379600Y-119206000D03*
X130149600Y-106506000D03*
X166725600Y-126318000D03*
X65379600Y-106506000D03*
X167614600Y-106506000D03*
X137261600Y-47832000D03*
X194284600Y-91266000D03*
X90525600Y-47832000D03*
X269214600Y-107141000D03*
X191617600Y-120730000D03*
X169138600Y-125683000D03*
X208889600Y-133599331D03*
X166344600Y-122889000D03*
D31*
X230479600Y-103204000D03*
X318871600Y-104604913D03*
X119735600Y-122000000D03*
X52679600Y-103966000D03*
X102971600Y-123524000D03*
X94335600Y-120984000D03*
X306044600Y-123397000D03*
X283565600Y-114888000D03*
D32*
X140563600Y-103712000D03*
%TD*%
D33*
%TO.N,*%
X99200000Y-196200000D02*
X99100000Y-196200000D01*
X99100000Y-196200000D02*
X97477695Y-197822305D01*
X87400000Y-192400000D02*
X87400000Y-197500000D01*
X87400000Y-197500000D02*
X87700000Y-197800000D01*
X89400000Y-190400000D02*
X87400000Y-192400000D01*
X86933400Y-184933400D02*
X91200000Y-189200000D01*
X94600000Y-189200000D02*
X100200000Y-194800000D01*
X86933400Y-184098306D02*
X86933400Y-184933400D01*
X91200000Y-189200000D02*
X94600000Y-189200000D01*
X103000000Y-194748400D02*
X103000000Y-194400000D01*
X103000000Y-194400000D02*
X94800000Y-186200000D01*
X94800000Y-186200000D02*
X91035092Y-186200000D01*
X91035092Y-186200000D02*
X88933398Y-184098306D01*
X96400000Y-185800000D02*
X96400000Y-181200000D01*
X104200000Y-193600000D02*
X96400000Y-185800000D01*
X104200000Y-194748400D02*
X104200000Y-193600000D01*
X90933399Y-180666601D02*
X90933399Y-181598306D01*
X91600000Y-180000000D02*
X90933399Y-180666601D01*
X95200000Y-180000000D02*
X91600000Y-180000000D01*
X96400000Y-181200000D02*
X95200000Y-180000000D01*
X95600000Y-203800000D02*
X95600000Y-194600000D01*
X85908099Y-182623607D02*
X86933400Y-181598306D01*
X94200000Y-205200000D02*
X95600000Y-203800000D01*
X95600000Y-194600000D02*
X85908099Y-184908099D01*
X85908099Y-184908099D02*
X85908099Y-182623607D01*
D34*
X54825000Y-224160000D02*
X52285000Y-224160000D01*
D35*
X60921000Y-178359998D02*
X60921000Y-186822000D01*
X57445002Y-174884000D02*
X60921000Y-178359998D01*
X63715000Y-178654000D02*
X63715000Y-189402000D01*
X59945000Y-174884000D02*
X63715000Y-178654000D01*
D33*
X102200000Y-201300000D02*
X102300000Y-201400000D01*
X102000000Y-201300000D02*
X102200000Y-201300000D01*
X102300000Y-201400000D02*
X109399998Y-201400000D01*
X109399998Y-201400000D02*
X110400000Y-202400002D01*
X109400000Y-203400000D02*
X110400000Y-204400000D01*
X100700000Y-203400000D02*
X109400000Y-203400000D01*
X100700000Y-207200000D02*
X102500000Y-205400000D01*
X109400000Y-205400000D02*
X109400000Y-205400001D01*
X102500000Y-205400000D02*
X109400000Y-205400000D01*
X109400000Y-205400001D02*
X110400000Y-206400001D01*
D36*
X94400000Y-213900000D02*
X94400000Y-215400000D01*
X95571751Y-205478249D02*
X95571751Y-205571751D01*
D37*
X81671751Y-205928249D02*
X81528249Y-205928249D01*
D36*
X95571751Y-205571751D02*
X96400000Y-206400000D01*
D37*
X81528249Y-205928249D02*
X80600000Y-205000000D01*
D33*
X104100000Y-199400000D02*
X109399999Y-199400000D01*
X109399999Y-199400000D02*
X110400000Y-200400001D01*
X98850000Y-197950000D02*
X98750000Y-197950000D01*
X101250000Y-195548400D02*
X101250000Y-195550000D01*
X101250000Y-195550000D02*
X98850000Y-197950000D01*
X73908100Y-191508100D02*
X73908100Y-182623604D01*
X74100000Y-191700000D02*
X73908100Y-191508100D01*
X73908100Y-182623604D02*
X74933398Y-181598306D01*
X96200000Y-210998400D02*
X95598400Y-211600000D01*
X69000000Y-183531705D02*
X70933399Y-181598306D01*
X69000000Y-203200000D02*
X69000000Y-183531705D01*
X95598400Y-211600000D02*
X77400000Y-211600000D01*
X77400000Y-211600000D02*
X69000000Y-203200000D01*
X73113000Y-208920000D02*
X73113000Y-209087399D01*
X76028801Y-212003200D02*
X96116702Y-212003200D01*
X97200000Y-210919902D02*
X97200000Y-210800000D01*
X73113000Y-209087399D02*
X76028801Y-212003200D01*
X96116702Y-212003200D02*
X97200000Y-210919902D01*
X75958700Y-196058700D02*
X75958700Y-182573006D01*
X75958700Y-182573006D02*
X76933400Y-181598306D01*
X77000000Y-197100000D02*
X75958700Y-196058700D01*
X94600000Y-194678498D02*
X94600000Y-203600000D01*
X84933399Y-185011897D02*
X94600000Y-194678498D01*
X84933399Y-184098306D02*
X84933399Y-185011897D01*
X94600000Y-203600000D02*
X94000000Y-204200000D01*
X68196800Y-205527800D02*
X68196800Y-181603200D01*
X98400000Y-210600000D02*
X98400000Y-211000000D01*
X98400000Y-211000000D02*
X96993600Y-212406400D01*
X96993600Y-212406400D02*
X75075400Y-212406400D01*
X71535094Y-180200000D02*
X72933400Y-181598306D01*
X75075400Y-212406400D02*
X68196800Y-205527800D01*
X68196800Y-181603200D02*
X69600000Y-180200000D01*
X69600000Y-180200000D02*
X71535094Y-180200000D01*
X75100000Y-194000000D02*
X74933398Y-193833398D01*
X74933398Y-193833398D02*
X74933398Y-184098306D01*
X94851600Y-187600000D02*
X90800000Y-187600000D01*
X90800000Y-187600000D02*
X87958698Y-184758698D01*
X87958698Y-182573006D02*
X88933398Y-181598306D01*
X102000000Y-194748400D02*
X94851600Y-187600000D01*
X87958698Y-184758698D02*
X87958698Y-182573006D01*
X94400000Y-208168133D02*
X85948400Y-199716533D01*
X79954040Y-192154040D02*
X79954040Y-182577665D01*
X85948400Y-199716533D02*
X85948400Y-197348400D01*
X79954040Y-182577665D02*
X80933399Y-181598306D01*
X94400000Y-208200000D02*
X94400000Y-208168133D01*
X85081373Y-196481373D02*
X84281373Y-196481373D01*
X85948400Y-197348400D02*
X85081373Y-196481373D01*
X84281373Y-196481373D02*
X79954040Y-192154040D01*
X87300000Y-207800000D02*
X86800000Y-207300000D01*
X72051600Y-200251600D02*
X71800000Y-200251600D01*
X86000000Y-213058000D02*
X86000000Y-213200000D01*
X86800000Y-214000000D02*
X86800000Y-215800000D01*
X75651600Y-203851600D02*
X72100000Y-200300000D01*
X72100000Y-200300000D02*
X72051600Y-200251600D01*
X86000000Y-213200000D02*
X86800000Y-214000000D01*
X87300000Y-208000000D02*
X87300000Y-207800000D01*
X81451600Y-203851600D02*
X75651600Y-203851600D01*
X86800000Y-215800000D02*
X89600000Y-218600000D01*
X84900000Y-207300000D02*
X81451600Y-203851600D01*
X86800000Y-207300000D02*
X84900000Y-207300000D01*
X82700000Y-199600000D02*
X76600000Y-199600000D01*
X84775000Y-197525000D02*
X82700000Y-199600000D01*
X76000000Y-198800000D02*
X82174604Y-198800000D01*
X82174604Y-198800000D02*
X82987302Y-197987302D01*
X72412500Y-199412500D02*
X76200000Y-203200000D01*
X72412500Y-197087500D02*
X72412500Y-199412500D01*
X76200000Y-203200000D02*
X79000000Y-203200000D01*
X295757600Y-93806000D02*
X295757600Y-85170000D01*
X330822648Y-65813749D02*
X330809600Y-65800701D01*
X330822648Y-72320269D02*
X330822648Y-65813749D01*
X241900236Y-70353305D02*
X241900236Y-60966274D01*
X241900236Y-60966274D02*
X241919048Y-60947462D01*
X153009600Y-52658000D02*
X153009600Y-52785000D01*
X153009600Y-52658000D02*
X153009600Y-49102000D01*
X285597600Y-116826000D02*
X285597600Y-114888000D01*
X284835600Y-117588000D02*
X285597600Y-116826000D01*
X290550600Y-116953000D02*
X290550600Y-114380000D01*
X289915600Y-117588000D02*
X290550600Y-116953000D01*
X288264600Y-118571000D02*
X288264600Y-114380000D01*
X286867600Y-119968000D02*
X288264600Y-118571000D01*
X286359600Y-119968000D02*
X286867600Y-119968000D01*
X313156600Y-119968000D02*
X313156600Y-80598000D01*
X313156600Y-80598000D02*
X310235600Y-77677000D01*
X181965600Y-46054000D02*
X181965600Y-60532000D01*
X177647600Y-110316000D02*
X177647600Y-119714000D01*
X169519600Y-127842000D02*
X167233600Y-130128000D01*
X167233600Y-130128000D02*
X165201600Y-130128000D01*
X177647600Y-46054000D02*
X177647600Y-60532000D01*
X177647600Y-119714000D02*
X169519600Y-127842000D01*
X179933600Y-46054000D02*
X179933600Y-60532000D01*
X248254600Y-104723000D02*
X248254600Y-128096000D01*
X242671600Y-99140000D02*
X248254600Y-104723000D01*
X236448600Y-99140000D02*
X242671600Y-99140000D01*
X174853600Y-46054000D02*
X174853600Y-60532000D01*
X93573600Y-108538000D02*
X93573600Y-114380000D01*
X93573600Y-84408000D02*
X93573600Y-93806000D01*
X292074600Y-113493286D02*
X292075743Y-113492143D01*
X292074600Y-117561694D02*
X292074600Y-113493286D01*
X292077240Y-117564334D02*
X292074600Y-117561694D01*
X125323600Y-118571000D02*
X126720600Y-117174000D01*
X125196600Y-118571000D02*
X125323600Y-118571000D01*
X117640100Y-116638000D02*
X117640100Y-116602500D01*
X119573100Y-118571000D02*
X117640100Y-116638000D01*
X119608600Y-118571000D02*
X119573100Y-118571000D01*
X104495600Y-105490000D02*
X102717600Y-103712000D01*
X115671600Y-112221000D02*
X115671600Y-110570000D01*
X253339600Y-86948000D02*
X253339600Y-94394000D01*
X253847600Y-86440000D02*
X253339600Y-86948000D01*
X337921600Y-92536000D02*
X337859244Y-92598356D01*
X337859244Y-92598356D02*
X335827244Y-92598356D01*
X157581600Y-92536000D02*
X157628600Y-92536000D01*
X75666600Y-86360000D02*
X75493711Y-86532889D01*
X157628600Y-92536000D02*
X157646244Y-92518356D01*
X159678244Y-92518356D02*
X157646244Y-92518356D01*
X157599244Y-92518356D02*
X157581600Y-92536000D01*
X159740600Y-92456000D02*
X159678244Y-92518356D01*
X75493711Y-86532889D02*
X75493711Y-94397011D01*
X75493711Y-94397011D02*
X75514200Y-94417500D01*
X226923600Y-46562000D02*
X232765600Y-46562000D01*
X240385600Y-48340000D02*
X243687600Y-48340000D01*
X212953600Y-48594000D02*
X212953600Y-53166000D01*
X209556486Y-39608886D02*
X209556486Y-43006000D01*
X166471600Y-46816000D02*
X167487600Y-45800000D01*
X209143600Y-39196000D02*
X209556486Y-39608886D01*
X156819600Y-46816000D02*
X166471600Y-46816000D01*
X155295600Y-41228000D02*
X163931600Y-41228000D01*
X303631600Y-93806000D02*
X303631600Y-86948000D01*
X334873600Y-92028000D02*
X336397600Y-90504000D01*
X283311600Y-93806000D02*
X283311600Y-84916000D01*
X287375600Y-93806000D02*
X287375600Y-84916000D01*
X279247600Y-93806000D02*
X279247600Y-84916000D01*
X331063600Y-88980000D02*
X332079600Y-89996000D01*
X332079600Y-89996000D02*
X332079600Y-94441000D01*
X244195600Y-93552000D02*
X243353600Y-94394000D01*
X243353600Y-94394000D02*
X243179600Y-94394000D01*
X245338600Y-90123000D02*
X244195600Y-91266000D01*
X291693600Y-93806000D02*
X291693600Y-84916000D01*
X244195600Y-91266000D02*
X244195600Y-93552000D01*
X299821600Y-85678000D02*
X299821600Y-93806000D01*
X249021600Y-88218000D02*
X248259600Y-88980000D01*
X248259600Y-88980000D02*
X248259600Y-94394000D01*
X125450600Y-93726000D02*
X125450600Y-86868000D01*
X156692600Y-91948000D02*
X158216600Y-90424000D01*
X105130600Y-93726000D02*
X105130600Y-84836000D01*
X109194600Y-93726000D02*
X109194600Y-84836000D01*
X101066600Y-93726000D02*
X101066600Y-84836000D01*
X117576600Y-93726000D02*
X117576600Y-85090000D01*
X65379600Y-94392100D02*
X65354200Y-94417500D01*
X113512600Y-93726000D02*
X113512600Y-84836000D01*
X152882600Y-88900000D02*
X153898600Y-89916000D01*
X66221600Y-90170000D02*
X65379600Y-91012000D01*
X153898600Y-89916000D02*
X153898600Y-94361000D01*
X65379600Y-91012000D02*
X65379600Y-94392100D01*
X67284600Y-90170000D02*
X66221600Y-90170000D01*
X250799600Y-68152000D02*
X253339600Y-68152000D01*
X199491600Y-57336983D02*
X193905469Y-57336983D01*
X193905469Y-57336983D02*
X193903600Y-57338852D01*
X151485600Y-69930000D02*
X159359600Y-69930000D01*
X151485600Y-71708000D02*
X161899600Y-71708000D01*
X203555600Y-59008000D02*
X193903600Y-59008000D01*
X193903710Y-52331536D02*
X193903600Y-52331426D01*
X247751600Y-41228000D02*
X253339600Y-41228000D01*
X206023136Y-52331536D02*
X193903710Y-52331536D01*
X193903600Y-48993142D02*
X207982458Y-48993142D01*
X74255195Y-41319445D02*
X74255195Y-37962082D01*
X209556486Y-47419114D02*
X209556486Y-45546000D01*
X207982458Y-48993142D02*
X209556486Y-47419114D01*
X74255195Y-37962082D02*
X74268259Y-37949018D01*
X193942304Y-54039272D02*
X193903600Y-54000568D01*
X151485600Y-66374000D02*
X154533600Y-66374000D01*
X196443600Y-54039272D02*
X193942304Y-54039272D01*
X245719600Y-71200000D02*
X253339600Y-71200000D01*
X151485600Y-68406000D02*
X156565600Y-68406000D01*
X196787707Y-61892107D02*
X199824726Y-61892107D01*
X248259600Y-69676000D02*
X253339600Y-69676000D01*
X196773140Y-61877540D02*
X196787707Y-61892107D01*
X193926324Y-50685008D02*
X208440608Y-50685008D01*
X193903600Y-50662284D02*
X193926324Y-50685008D01*
X71729600Y-39440010D02*
X71729600Y-41336228D01*
X71810866Y-39358744D02*
X71729600Y-39440010D01*
X249275600Y-39704000D02*
X253339600Y-39704000D01*
X208440608Y-50685008D02*
X208635600Y-50880000D01*
X231241600Y-116031000D02*
X225018600Y-122254000D01*
X200126600Y-127080000D02*
X199616241Y-126569641D01*
X199616241Y-126569641D02*
X199616241Y-125516000D01*
X203809600Y-120730000D02*
X203616241Y-120923359D01*
X203616241Y-120923359D02*
X203616241Y-123016000D01*
X196443600Y-128011333D02*
X195616242Y-127183975D01*
X233083100Y-118507500D02*
X229336600Y-122254000D01*
X195616242Y-127183975D02*
X195616242Y-125516000D01*
X202158600Y-121492000D02*
X201616240Y-122034360D01*
X201616240Y-122034360D02*
X201616240Y-123016000D01*
X232003600Y-122254000D02*
X231876600Y-122254000D01*
X202285600Y-128858000D02*
X201616240Y-128188640D01*
X235686600Y-118571000D02*
X232003600Y-122254000D01*
X201616240Y-128188640D02*
X201616240Y-125516000D01*
X198475600Y-129874000D02*
X197616240Y-129014640D01*
X197616240Y-129014640D02*
X197616240Y-125516000D01*
X197616240Y-120150026D02*
X197616240Y-123016000D01*
X198475600Y-119290666D02*
X197616240Y-120150026D01*
X199616241Y-119081359D02*
X199616241Y-123016000D01*
X200507600Y-118190000D02*
X199616241Y-119081359D01*
D36*
X306775500Y-112221000D02*
X306156050Y-112840450D01*
X308965600Y-112221000D02*
X306775500Y-112221000D01*
D33*
X195616242Y-110504642D02*
X195616242Y-123016000D01*
X237591600Y-123524000D02*
X237591600Y-111967000D01*
X193616241Y-123016000D02*
X193616241Y-110603359D01*
X193616241Y-110603359D02*
X193649600Y-110570000D01*
X236702600Y-124286000D02*
X236702600Y-109173000D01*
D36*
X301853600Y-108919000D02*
X276453600Y-108919000D01*
X342366600Y-113237000D02*
X339953600Y-113237000D01*
D33*
X299948600Y-111205000D02*
X276453600Y-111205000D01*
X300964600Y-124665310D02*
X299249255Y-126380655D01*
X300964600Y-124159000D02*
X300964600Y-124665310D01*
X194303600Y-136332000D02*
X193616241Y-135644641D01*
X193616241Y-135644641D02*
X193616241Y-125516000D01*
X301853600Y-112602000D02*
X301472600Y-112221000D01*
X301472600Y-112221000D02*
X276453600Y-112221000D01*
D36*
X276485350Y-110062000D02*
X276453600Y-110030250D01*
X304012600Y-110062000D02*
X276485350Y-110062000D01*
X304139600Y-110189000D02*
X304012600Y-110062000D01*
D33*
X211366100Y-113173500D02*
X213616241Y-115423641D01*
X213616241Y-115423641D02*
X213616241Y-123016000D01*
X207616240Y-115392640D02*
X207616240Y-123016000D01*
X206476600Y-114253000D02*
X207616240Y-115392640D01*
X171551600Y-123386714D02*
X166217600Y-118052714D01*
X213080600Y-131736665D02*
X213616241Y-131201024D01*
X171551600Y-123397000D02*
X171551600Y-123386714D01*
X213616241Y-131201024D02*
X213616241Y-125516000D01*
X170535600Y-124540000D02*
X165244171Y-119248571D01*
X207616240Y-132163360D02*
X207616240Y-125516000D01*
X207111600Y-132668000D02*
X207616240Y-132163360D01*
X165244171Y-119248571D02*
X165201600Y-119248571D01*
X211332420Y-130919820D02*
X211616240Y-130636000D01*
X211616240Y-130636000D02*
X211616240Y-125516000D01*
X167360600Y-116793000D02*
X172694600Y-122127000D01*
X207746600Y-111967000D02*
X209616242Y-113836642D01*
X209616242Y-113836642D02*
X209616242Y-123016000D01*
X210667600Y-115650000D02*
X211616240Y-116598640D01*
X211616240Y-116598640D02*
X211616240Y-123016000D01*
X70434200Y-88544400D02*
X70434200Y-94417500D01*
X70840600Y-88138000D02*
X70434200Y-88544400D01*
X121640600Y-85598000D02*
X121640600Y-93726000D01*
D36*
X85255699Y-109364099D02*
X80937699Y-109364099D01*
X163677600Y-115396000D02*
X164439600Y-114634000D01*
X163677600Y-124794000D02*
X163677600Y-115396000D01*
D33*
X205079600Y-135589000D02*
X205616242Y-135052358D01*
X205616242Y-135052358D02*
X205616242Y-125516000D01*
D36*
X152755600Y-114888000D02*
X152755600Y-126572000D01*
D33*
X205616242Y-117837642D02*
X205616242Y-123016000D01*
X204444600Y-116666000D02*
X205616242Y-117837642D01*
X203616241Y-134004359D02*
X203616241Y-125516000D01*
X203047600Y-134573000D02*
X203616241Y-134004359D01*
X166344600Y-131652000D02*
X167487600Y-132795000D01*
X165836600Y-131652000D02*
X166344600Y-131652000D01*
D36*
X68554600Y-110951000D02*
X68554600Y-112221000D01*
X69443600Y-113110000D02*
X72237600Y-113110000D01*
X68554600Y-112221000D02*
X69443600Y-113110000D01*
X140817600Y-126318000D02*
X143865600Y-123270000D01*
X140817600Y-126437000D02*
X140817600Y-126318000D01*
X143865600Y-123270000D02*
X143865600Y-114888000D01*
X145389600Y-125302000D02*
X146151600Y-124540000D01*
X146151600Y-124540000D02*
X146151600Y-114888000D01*
D33*
X209616242Y-132872689D02*
X209616242Y-125516000D01*
X208889600Y-133599331D02*
X209616242Y-132872689D01*
X169138600Y-125683000D02*
X166344600Y-122889000D01*
D38*
X245714600Y-128096000D02*
X245714600Y-136219000D01*
X314807600Y-137748000D02*
X332079600Y-137748000D01*
X334619600Y-135208000D02*
X334614600Y-135203000D01*
X160629600Y-137748000D02*
X159867600Y-137748000D01*
X52679600Y-126064000D02*
X64363600Y-137748000D01*
X215747600Y-137748000D02*
X191617600Y-137748000D01*
D37*
X283946600Y-136351000D02*
X282549600Y-137748000D01*
D38*
X141071600Y-137748000D02*
X141325600Y-137748000D01*
X72999600Y-137748000D02*
X71983600Y-136732000D01*
X191616242Y-125516000D02*
X191616242Y-134955358D01*
X119735600Y-134700000D02*
X119735600Y-122000000D01*
X318871600Y-133684000D02*
X314807600Y-137748000D01*
X94335600Y-134700000D02*
X97383600Y-137748000D01*
X318871600Y-104604913D02*
X318871600Y-133684000D01*
X306044600Y-123397000D02*
X306044600Y-135335000D01*
X191617600Y-134956716D02*
X191617600Y-137748000D01*
X303631600Y-137748000D02*
X314807600Y-137748000D01*
X122783600Y-137748000D02*
X121767600Y-136732000D01*
X219557600Y-133938000D02*
X215747600Y-137748000D01*
D37*
X283946600Y-115269000D02*
X283946600Y-136351000D01*
D38*
X97637600Y-137748000D02*
X106781600Y-137748000D01*
X140563600Y-103712000D02*
X138531600Y-105744000D01*
D37*
X283565600Y-114888000D02*
X283946600Y-115269000D01*
D38*
X138531600Y-105744000D02*
X138531600Y-135208000D01*
X67914600Y-130631000D02*
X67914600Y-128096000D01*
X230479600Y-103204000D02*
X221843600Y-103204000D01*
X245719600Y-136224000D02*
X244195600Y-137748000D01*
X191616242Y-134955358D02*
X191617600Y-134956716D01*
X71983600Y-136732000D02*
X67919600Y-132668000D01*
X159867600Y-137748000D02*
X158851600Y-136732000D01*
X332079600Y-137748000D02*
X334619600Y-135208000D01*
X102971600Y-134192000D02*
X106527600Y-137748000D01*
X97383600Y-137748000D02*
X97637600Y-137748000D01*
X191617600Y-137748000D02*
X160629600Y-137748000D01*
X94335600Y-120984000D02*
X94335600Y-134700000D01*
X67919600Y-130636000D02*
X67914600Y-130631000D01*
X67919600Y-132668000D02*
X67919600Y-130636000D01*
X106527600Y-137748000D02*
X106781600Y-137748000D01*
X123037600Y-137748000D02*
X122783600Y-137748000D01*
X102971600Y-123524000D02*
X102971600Y-134192000D01*
X158851600Y-136732000D02*
X156814600Y-134695000D01*
X244195600Y-137748000D02*
X215747600Y-137748000D01*
X244195600Y-137748000D02*
X282549600Y-137748000D01*
X138531600Y-135208000D02*
X141071600Y-137748000D01*
X156814600Y-134695000D02*
X156814600Y-128096000D01*
X334614600Y-135203000D02*
X334614600Y-128096000D01*
X219557600Y-105490000D02*
X219557600Y-133938000D01*
X64363600Y-137748000D02*
X72999600Y-137748000D01*
X245714600Y-136219000D02*
X245719600Y-136224000D01*
X121767600Y-136732000D02*
X119735600Y-134700000D01*
X72999600Y-137748000D02*
X97637600Y-137748000D01*
X282549600Y-137748000D02*
X303631600Y-137748000D01*
X52679600Y-103966000D02*
X52679600Y-126064000D01*
X306044600Y-135335000D02*
X303631600Y-137748000D01*
X123037600Y-137748000D02*
X141325600Y-137748000D01*
X221843600Y-103204000D02*
X219557600Y-105490000D01*
X106781600Y-137748000D02*
X123037600Y-137748000D01*
X160629600Y-137748000D02*
X141325600Y-137748000D01*
%TD*%
M02*
