%TF.GenerationSoftware,KiCad,Pcbnew,8.0.8-8.0.8-0~ubuntu24.04.1*%
%TF.CreationDate,2025-08-07T23:42:04-04:00*%
%TF.ProjectId,stencil,7374656e-6369-46c2-9e6b-696361645f70,rev?*%
%TF.SameCoordinates,Original*%
%TF.FileFunction,Copper,L1,Top*%
%TF.FilePolarity,Positive*%
%FSLAX46Y46*%
G04 Gerber Fmt 4.6, Leading zero omitted, Abs format (unit mm)*
G04 Created by KiCad (PCBNEW 8.0.8-8.0.8-0~ubuntu24.04.1) date 2025-08-07 23:42:04*
%MOMM*%
%LPD*%
G01*
G04 APERTURE LIST*
G04 Aperture macros list*
%AMRoundRect*
0 Rectangle with rounded corners*
0 $1 Rounding radius*
0 $2 $3 $4 $5 $6 $7 $8 $9 X,Y pos of 4 corners*
0 Add a 4 corners polygon primitive as box body*
4,1,4,$2,$3,$4,$5,$6,$7,$8,$9,$2,$3,0*
0 Add four circle primitives for the rounded corners*
1,1,$1+$1,$2,$3*
1,1,$1+$1,$4,$5*
1,1,$1+$1,$6,$7*
1,1,$1+$1,$8,$9*
0 Add four rect primitives between the rounded corners*
20,1,$1+$1,$2,$3,$4,$5,0*
20,1,$1+$1,$4,$5,$6,$7,0*
20,1,$1+$1,$6,$7,$8,$9,0*
20,1,$1+$1,$8,$9,$2,$3,0*%
%AMRotRect*
0 Rectangle, with rotation*
0 The origin of the aperture is its center*
0 $1 length*
0 $2 width*
0 $3 Rotation angle, in degrees counterclockwise*
0 Add horizontal line*
21,1,$1,$2,0,0,$3*%
%AMOutline5P*
0 Free polygon, 5 corners , with rotation*
0 The origin of the aperture is its center*
0 number of corners: always 5*
0 $1 to $10 corner X, Y*
0 $11 Rotation angle, in degrees counterclockwise*
0 create outline with 5 corners*
4,1,5,$1,$2,$3,$4,$5,$6,$7,$8,$9,$10,$1,$2,$11*%
%AMOutline6P*
0 Free polygon, 6 corners , with rotation*
0 The origin of the aperture is its center*
0 number of corners: always 6*
0 $1 to $12 corner X, Y*
0 $13 Rotation angle, in degrees counterclockwise*
0 create outline with 6 corners*
4,1,6,$1,$2,$3,$4,$5,$6,$7,$8,$9,$10,$11,$12,$1,$2,$13*%
%AMOutline7P*
0 Free polygon, 7 corners , with rotation*
0 The origin of the aperture is its center*
0 number of corners: always 7*
0 $1 to $14 corner X, Y*
0 $15 Rotation angle, in degrees counterclockwise*
0 create outline with 7 corners*
4,1,7,$1,$2,$3,$4,$5,$6,$7,$8,$9,$10,$11,$12,$13,$14,$1,$2,$15*%
%AMOutline8P*
0 Free polygon, 8 corners , with rotation*
0 The origin of the aperture is its center*
0 number of corners: always 8*
0 $1 to $16 corner X, Y*
0 $17 Rotation angle, in degrees counterclockwise*
0 create outline with 8 corners*
4,1,8,$1,$2,$3,$4,$5,$6,$7,$8,$9,$10,$11,$12,$13,$14,$15,$16,$1,$2,$17*%
G04 Aperture macros list end*
%TA.AperFunction,ComponentPad*%
%ADD10R,1.508000X1.508000*%
%TD*%
%TA.AperFunction,ComponentPad*%
%ADD11C,1.508000*%
%TD*%
%TA.AperFunction,SMDPad,CuDef*%
%ADD12RoundRect,0.250000X0.250000X0.475000X-0.250000X0.475000X-0.250000X-0.475000X0.250000X-0.475000X0*%
%TD*%
%TA.AperFunction,SMDPad,CuDef*%
%ADD13O,1.092200X1.701800*%
%TD*%
%TA.AperFunction,SMDPad,CuDef*%
%ADD14R,0.711200X1.193800*%
%TD*%
%TA.AperFunction,SMDPad,CuDef*%
%ADD15R,0.762000X1.193800*%
%TD*%
%TA.AperFunction,SMDPad,CuDef*%
%ADD16R,0.812800X1.193800*%
%TD*%
%TA.AperFunction,SMDPad,CuDef*%
%ADD17RoundRect,0.250000X0.475000X-0.250000X0.475000X0.250000X-0.475000X0.250000X-0.475000X-0.250000X0*%
%TD*%
%TA.AperFunction,ComponentPad*%
%ADD18C,1.346200*%
%TD*%
%TA.AperFunction,ComponentPad*%
%ADD19C,1.498600*%
%TD*%
%TA.AperFunction,SMDPad,CuDef*%
%ADD20Outline5P,-1.900000X0.600000X-1.500000X1.000000X1.900000X1.000000X1.900000X-1.000000X-1.900000X-1.000000X270.000000*%
%TD*%
%TA.AperFunction,SMDPad,CuDef*%
%ADD21R,0.800000X0.900000*%
%TD*%
%TA.AperFunction,SMDPad,CuDef*%
%ADD22R,3.800000X2.000000*%
%TD*%
%TA.AperFunction,SMDPad,CuDef*%
%ADD23RoundRect,0.243750X-0.243750X-0.456250X0.243750X-0.456250X0.243750X0.456250X-0.243750X0.456250X0*%
%TD*%
%TA.AperFunction,ComponentPad*%
%ADD24R,1.700000X1.700000*%
%TD*%
%TA.AperFunction,ComponentPad*%
%ADD25O,1.700000X1.700000*%
%TD*%
%TA.AperFunction,ComponentPad*%
%ADD26C,1.219200*%
%TD*%
%TA.AperFunction,SMDPad,CuDef*%
%ADD27RoundRect,0.375000X-0.375000X0.625000X-0.375000X-0.625000X0.375000X-0.625000X0.375000X0.625000X0*%
%TD*%
%TA.AperFunction,SMDPad,CuDef*%
%ADD28RoundRect,0.500000X-1.400000X0.500000X-1.400000X-0.500000X1.400000X-0.500000X1.400000X0.500000X0*%
%TD*%
%TA.AperFunction,SMDPad,CuDef*%
%ADD29RoundRect,0.193750X0.971250X0.581250X-0.971250X0.581250X-0.971250X-0.581250X0.971250X-0.581250X0*%
%TD*%
%TA.AperFunction,SMDPad,CuDef*%
%ADD30RotRect,0.279400X1.778000X135.000000*%
%TD*%
%TA.AperFunction,SMDPad,CuDef*%
%ADD31RotRect,0.279400X1.778000X45.000000*%
%TD*%
%TA.AperFunction,SMDPad,CuDef*%
%ADD32RoundRect,0.250000X-0.450000X0.350000X-0.450000X-0.350000X0.450000X-0.350000X0.450000X0.350000X0*%
%TD*%
%TA.AperFunction,SMDPad,CuDef*%
%ADD33RoundRect,0.250000X-0.250000X-0.475000X0.250000X-0.475000X0.250000X0.475000X-0.250000X0.475000X0*%
%TD*%
%TA.AperFunction,SMDPad,CuDef*%
%ADD34RoundRect,0.250000X-0.475000X0.250000X-0.475000X-0.250000X0.475000X-0.250000X0.475000X0.250000X0*%
%TD*%
%TA.AperFunction,SMDPad,CuDef*%
%ADD35R,1.000000X1.250000*%
%TD*%
%TA.AperFunction,SMDPad,CuDef*%
%ADD36RoundRect,0.250000X-0.350000X-0.450000X0.350000X-0.450000X0.350000X0.450000X-0.350000X0.450000X0*%
%TD*%
%TA.AperFunction,SMDPad,CuDef*%
%ADD37RoundRect,0.250000X0.350000X0.450000X-0.350000X0.450000X-0.350000X-0.450000X0.350000X-0.450000X0*%
%TD*%
%TA.AperFunction,SMDPad,CuDef*%
%ADD38RoundRect,0.250000X-0.450000X0.262500X-0.450000X-0.262500X0.450000X-0.262500X0.450000X0.262500X0*%
%TD*%
%TA.AperFunction,SMDPad,CuDef*%
%ADD39R,1.168400X0.533400*%
%TD*%
%TA.AperFunction,ComponentPad*%
%ADD40C,1.270000*%
%TD*%
%TA.AperFunction,SMDPad,CuDef*%
%ADD41RoundRect,0.250000X0.450000X-0.262500X0.450000X0.262500X-0.450000X0.262500X-0.450000X-0.262500X0*%
%TD*%
%TA.AperFunction,SMDPad,CuDef*%
%ADD42RoundRect,0.250000X-0.262500X-0.450000X0.262500X-0.450000X0.262500X0.450000X-0.262500X0.450000X0*%
%TD*%
%TA.AperFunction,SMDPad,CuDef*%
%ADD43Outline5P,-1.900000X0.600000X-1.500000X1.000000X1.900000X1.000000X1.900000X-1.000000X-1.900000X-1.000000X0.000000*%
%TD*%
%TA.AperFunction,ComponentPad*%
%ADD44R,1.800000X1.800000*%
%TD*%
%TA.AperFunction,ComponentPad*%
%ADD45C,1.800000*%
%TD*%
%TA.AperFunction,ComponentPad*%
%ADD46O,1.308000X2.616000*%
%TD*%
%TA.AperFunction,SMDPad,CuDef*%
%ADD47RoundRect,0.075000X0.225000X-0.910000X0.225000X0.910000X-0.225000X0.910000X-0.225000X-0.910000X0*%
%TD*%
%TA.AperFunction,SMDPad,CuDef*%
%ADD48RoundRect,0.051250X-0.733750X-0.153750X0.733750X-0.153750X0.733750X0.153750X-0.733750X0.153750X0*%
%TD*%
%TA.AperFunction,SMDPad,CuDef*%
%ADD49RoundRect,0.051250X0.733750X0.153750X-0.733750X0.153750X-0.733750X-0.153750X0.733750X-0.153750X0*%
%TD*%
%TA.AperFunction,SMDPad,CuDef*%
%ADD50R,0.533400X1.168400*%
%TD*%
%TA.AperFunction,SMDPad,CuDef*%
%ADD51RoundRect,0.250000X0.262500X0.450000X-0.262500X0.450000X-0.262500X-0.450000X0.262500X-0.450000X0*%
%TD*%
%TA.AperFunction,ViaPad*%
%ADD52C,0.700000*%
%TD*%
%TA.AperFunction,ViaPad*%
%ADD53C,1.000000*%
%TD*%
%TA.AperFunction,ViaPad*%
%ADD54C,0.860000*%
%TD*%
%TA.AperFunction,ViaPad*%
%ADD55C,0.740000*%
%TD*%
%TA.AperFunction,ViaPad*%
%ADD56C,0.800000*%
%TD*%
%TA.AperFunction,ViaPad*%
%ADD57C,0.850000*%
%TD*%
%TA.AperFunction,Conductor*%
%ADD58C,0.203200*%
%TD*%
%TA.AperFunction,Conductor*%
%ADD59C,0.508000*%
%TD*%
%TA.AperFunction,Conductor*%
%ADD60C,0.762000*%
%TD*%
%TA.AperFunction,Conductor*%
%ADD61C,0.635000*%
%TD*%
%TA.AperFunction,Conductor*%
%ADD62C,0.889000*%
%TD*%
%TA.AperFunction,Conductor*%
%ADD63C,0.254000*%
%TD*%
%TA.AperFunction,Conductor*%
%ADD64C,0.200000*%
%TD*%
%TA.AperFunction,Conductor*%
%ADD65C,0.381000*%
%TD*%
G04 APERTURE END LIST*
D10*
%TO.P,J3,1,1*%
%TO.N,N/C*%
X54945002Y-174884000D03*
D11*
%TO.P,J3,2,2*%
X57445002Y-174884000D03*
%TO.P,J3,3,3*%
X59945000Y-174884000D03*
%TO.P,J3,4,4*%
X62445000Y-174884000D03*
%TD*%
D12*
%TO.P,C3,1*%
%TO.N,N/C*%
X66299997Y-219800000D03*
%TO.P,C3,2*%
X64399999Y-219800000D03*
%TD*%
D13*
%TO.P,J8,7*%
%TO.N,N/C*%
X51013000Y-233524600D03*
%TO.P,J8,8*%
X59653000Y-233524600D03*
%TO.P,J8,9*%
X51013000Y-237324599D03*
%TO.P,J8,10*%
X59653000Y-237324599D03*
D14*
%TO.P,J8,A5,CC1*%
X54833001Y-233444599D03*
D15*
%TO.P,J8,A9,VBUS*%
X56853000Y-233444599D03*
D16*
%TO.P,J8,A12,GND*%
X58083000Y-233444599D03*
D14*
%TO.P,J8,B5,CC2*%
X55832999Y-233444599D03*
D15*
%TO.P,J8,B9,VBUS*%
X53813000Y-233444599D03*
D16*
%TO.P,J8,B12,GND*%
X52583000Y-233444599D03*
%TD*%
D17*
%TO.P,C10,1*%
%TO.N,N/C*%
X86150000Y-219599999D03*
%TO.P,C10,2*%
X86150000Y-217700001D03*
%TD*%
D18*
%TO.P,J1,1,1*%
%TO.N,N/C*%
X70933399Y-181598306D03*
%TO.P,J1,2,2*%
X70933399Y-184098306D03*
%TO.P,J1,3,3*%
X72933400Y-181598306D03*
%TO.P,J1,4,4*%
X72933400Y-184098306D03*
%TO.P,J1,5,5*%
X74933398Y-181598306D03*
%TO.P,J1,6,6*%
X74933398Y-184098306D03*
%TO.P,J1,7,7*%
X76933400Y-181598306D03*
%TO.P,J1,8,8*%
X76933400Y-184098306D03*
%TO.P,J1,9,9*%
X78933398Y-181598306D03*
%TO.P,J1,10,10*%
X78933398Y-184098306D03*
%TO.P,J1,11,11*%
X80933399Y-181598306D03*
%TO.P,J1,12,12*%
X80933399Y-184098306D03*
%TO.P,J1,13,13*%
X82933400Y-181598306D03*
%TO.P,J1,14,14*%
X82933400Y-184098306D03*
%TO.P,J1,15,15*%
X84933399Y-181598306D03*
%TO.P,J1,16,16*%
X84933399Y-184098306D03*
%TO.P,J1,17,17*%
X86933400Y-181598306D03*
%TO.P,J1,18,18*%
X86933400Y-184098306D03*
%TO.P,J1,19,19*%
X88933398Y-181598306D03*
%TO.P,J1,20,20*%
X88933398Y-184098306D03*
%TO.P,J1,21,21*%
X90933399Y-181598306D03*
%TO.P,J1,22,22*%
X90933399Y-184098306D03*
%TO.P,J1,23,23*%
X92933398Y-181598306D03*
%TO.P,J1,24,24*%
X92933398Y-184098306D03*
%TD*%
D17*
%TO.P,C9,1*%
%TO.N,N/C*%
X81495000Y-219599998D03*
%TO.P,C9,2*%
X81495000Y-217700000D03*
%TD*%
D19*
%TO.P,J4,1,1*%
%TO.N,N/C*%
X44665000Y-224668000D03*
%TO.P,J4,2,2*%
X44665000Y-222168000D03*
%TD*%
D12*
%TO.P,C14,1*%
%TO.N,N/C*%
X80149999Y-210800000D03*
%TO.P,C14,2*%
X78250001Y-210800000D03*
%TD*%
D20*
%TO.P,TP2,1,1*%
%TO.N,N/C*%
X75800000Y-226200000D03*
%TD*%
D21*
%TO.P,Y1,1,1*%
%TO.N,N/C*%
X78450001Y-213431000D03*
%TO.P,Y1,2,2*%
X78450001Y-215281000D03*
%TO.P,Y1,3,3*%
X79900001Y-215281000D03*
%TO.P,Y1,4,4*%
X79900001Y-213431000D03*
%TD*%
D10*
%TO.P,J7,1,1*%
%TO.N,N/C*%
X51373000Y-201637500D03*
D11*
%TO.P,J7,2,2*%
X53913000Y-201637500D03*
%TO.P,J7,3,3*%
X51373000Y-204177500D03*
%TO.P,J7,4,4*%
X53913000Y-204177500D03*
%TO.P,J7,5,5*%
X51372999Y-206717500D03*
%TO.P,J7,6,6*%
X53913001Y-206717500D03*
%TO.P,J7,7,7*%
X51373000Y-209257500D03*
%TO.P,J7,8,8*%
X53913000Y-209257500D03*
%TO.P,J7,9,9*%
X51373000Y-211797500D03*
%TO.P,J7,10,10*%
X53913000Y-211797500D03*
%TD*%
D22*
%TO.P,TP7,1,1*%
%TO.N,N/C*%
X57365000Y-193680000D03*
%TD*%
D20*
%TO.P,TP1,1,1*%
%TO.N,N/C*%
X89400000Y-223800000D03*
%TD*%
D12*
%TO.P,C4,1*%
%TO.N,N/C*%
X71522999Y-219842000D03*
%TO.P,C4,2*%
X69623001Y-219842000D03*
%TD*%
D23*
%TO.P,D2,1,K*%
%TO.N,N/C*%
X70475559Y-236499424D03*
%TO.P,D2,2,A*%
X72350561Y-236499424D03*
%TD*%
D24*
%TO.P,SW3,1,A*%
%TO.N,N/C*%
X66400000Y-196940000D03*
D25*
%TO.P,SW3,2,B*%
X66400000Y-194400000D03*
%TO.P,SW3,3,C*%
X66400000Y-191860001D03*
%TD*%
D26*
%TO.P,U1,1,1*%
%TO.N,N/C*%
X107860000Y-212400000D03*
%TO.P,U1,2,2*%
X107860000Y-210400001D03*
%TO.P,U1,3,3*%
X107860000Y-208400000D03*
%TO.P,U1,4,4*%
X107860000Y-206400001D03*
%TO.P,U1,5,5*%
X107860000Y-204400000D03*
%TO.P,U1,6,6*%
X107860000Y-202400002D03*
%TO.P,U1,7,7*%
X107860000Y-200400001D03*
%TO.P,U1,8,8*%
X107860000Y-198400000D03*
%TO.P,U1,9,9*%
X110400000Y-212400000D03*
%TO.P,U1,10,10*%
X110400000Y-210400001D03*
%TO.P,U1,11,11*%
X110400000Y-208400000D03*
%TO.P,U1,12,12*%
X110400000Y-206400001D03*
%TO.P,U1,13,13*%
X110400000Y-204400000D03*
%TO.P,U1,14,14*%
X110400000Y-202400002D03*
%TO.P,U1,15,15*%
X110400000Y-200400001D03*
%TO.P,U1,16,16*%
X110400000Y-198400000D03*
%TD*%
D27*
%TO.P,U2,1,GND*%
%TO.N,N/C*%
X71100000Y-224450000D03*
%TO.P,U2,2,VO*%
X68800000Y-224450001D03*
D28*
X68800000Y-230749999D03*
D27*
%TO.P,U2,3,VI*%
X66500000Y-224450000D03*
%TD*%
D22*
%TO.P,TP5,1,1*%
%TO.N,N/C*%
X85305000Y-231780000D03*
%TD*%
D29*
%TO.P,D3,1*%
%TO.N,N/C*%
X54420000Y-228224000D03*
%TO.P,D3,2*%
X50150000Y-228224000D03*
%TD*%
%TO.P,D1,1*%
%TO.N,N/C*%
X54420000Y-220604000D03*
%TO.P,D1,2*%
X50150000Y-220604000D03*
%TD*%
D30*
%TO.P,U3,1,VBAT*%
%TO.N,N/C*%
X84207761Y-207479812D03*
%TO.P,U3,2,PC13*%
X84561314Y-207833364D03*
%TO.P,U3,3,PC14*%
X84914868Y-208186919D03*
%TO.P,U3,4,PC15*%
X85268421Y-208540471D03*
%TO.P,U3,5,PF0*%
X85621976Y-208894026D03*
%TO.P,U3,6,PF1*%
X85975528Y-209247579D03*
%TO.P,U3,7,NRST*%
X86329081Y-209601131D03*
%TO.P,U3,8,PC0*%
X86682635Y-209954686D03*
%TO.P,U3,9,PC1*%
X87036188Y-210308239D03*
%TO.P,U3,10,PC2*%
X87389743Y-210661793D03*
%TO.P,U3,11,PC3*%
X87743295Y-211015346D03*
%TO.P,U3,12,VSSA*%
X88096848Y-211368898D03*
%TO.P,U3,13,VDDA*%
X88450403Y-211722453D03*
%TO.P,U3,14,PA0*%
X88803955Y-212076006D03*
%TO.P,U3,15,PA1*%
X89157510Y-212429560D03*
%TO.P,U3,16,PA2*%
X89511062Y-212783113D03*
D31*
%TO.P,U3,17,PA3*%
X92218150Y-212783113D03*
%TO.P,U3,18,VSS*%
X92571702Y-212429560D03*
%TO.P,U3,19,VDD*%
X92925257Y-212076006D03*
%TO.P,U3,20,PA4*%
X93278809Y-211722453D03*
%TO.P,U3,21,PA5*%
X93632364Y-211368898D03*
%TO.P,U3,22,PA6*%
X93985917Y-211015346D03*
%TO.P,U3,23,PA7*%
X94339469Y-210661793D03*
%TO.P,U3,24,PC4*%
X94693024Y-210308239D03*
%TO.P,U3,25,PC5*%
X95046577Y-209954686D03*
%TO.P,U3,26,PB0*%
X95400131Y-209601131D03*
%TO.P,U3,27,PB1*%
X95753684Y-209247579D03*
%TO.P,U3,28,PB2*%
X96107236Y-208894026D03*
%TO.P,U3,29,PB10*%
X96460791Y-208540471D03*
%TO.P,U3,30,PB11*%
X96814344Y-208186919D03*
%TO.P,U3,31,VSS*%
X97167898Y-207833364D03*
%TO.P,U3,32,VDD*%
X97521451Y-207479812D03*
D30*
%TO.P,U3,33,PB12*%
X97521451Y-204772724D03*
%TO.P,U3,34,PB13*%
X97167898Y-204419172D03*
%TO.P,U3,35,PB14*%
X96814344Y-204065617D03*
%TO.P,U3,36,PB15*%
X96460791Y-203712065D03*
%TO.P,U3,37,PC6*%
X96107236Y-203358510D03*
%TO.P,U3,38,PC7*%
X95753684Y-203004957D03*
%TO.P,U3,39,PC8*%
X95400131Y-202651405D03*
%TO.P,U3,40,PC9*%
X95046577Y-202297850D03*
%TO.P,U3,41,PA8*%
X94693024Y-201944297D03*
%TO.P,U3,42,PA9*%
X94339469Y-201590743D03*
%TO.P,U3,43,PA10*%
X93985917Y-201237190D03*
%TO.P,U3,44,PA11*%
X93632364Y-200883638D03*
%TO.P,U3,45,PA12*%
X93278809Y-200530083D03*
%TO.P,U3,46,PA13*%
X92925257Y-200176530D03*
%TO.P,U3,47,VSS*%
X92571702Y-199822976D03*
%TO.P,U3,48,VDDIO2*%
X92218150Y-199469423D03*
D31*
%TO.P,U3,49,PA14*%
X89511062Y-199469423D03*
%TO.P,U3,50,PA15*%
X89157510Y-199822976D03*
%TO.P,U3,51,PC10*%
X88803955Y-200176530D03*
%TO.P,U3,52,PC11*%
X88450403Y-200530083D03*
%TO.P,U3,53,PC12*%
X88096848Y-200883638D03*
%TO.P,U3,54,PD2*%
X87743295Y-201237190D03*
%TO.P,U3,55,PB3*%
X87389743Y-201590743D03*
%TO.P,U3,56,PB4*%
X87036188Y-201944297D03*
%TO.P,U3,57,PB5*%
X86682635Y-202297850D03*
%TO.P,U3,58,PB6*%
X86329081Y-202651405D03*
%TO.P,U3,59,PB7*%
X85975528Y-203004957D03*
%TO.P,U3,60,PF11*%
X85621976Y-203358510D03*
%TO.P,U3,61,PB8*%
X85268421Y-203712065D03*
%TO.P,U3,62,PB9*%
X84914868Y-204065617D03*
%TO.P,U3,63,VSS*%
X84561314Y-204419172D03*
%TO.P,U3,64,VDD*%
X84207761Y-204772724D03*
%TD*%
D32*
%TO.P,R8,1*%
%TO.N,N/C*%
X69800000Y-194400000D03*
%TO.P,R8,2*%
X69800000Y-196400000D03*
%TD*%
D33*
%TO.P,C15,1*%
%TO.N,N/C*%
X82822001Y-214356000D03*
%TO.P,C15,2*%
X84721999Y-214356000D03*
%TD*%
D17*
%TO.P,C11,1*%
%TO.N,N/C*%
X79400000Y-223349999D03*
%TO.P,C11,2*%
X79400000Y-221450001D03*
%TD*%
D34*
%TO.P,C1,1*%
%TO.N,N/C*%
X59409440Y-221850001D03*
%TO.P,C1,2*%
X59409440Y-223749999D03*
%TD*%
D19*
%TO.P,SW2,1,A*%
%TO.N,N/C*%
X111340000Y-221620000D03*
%TO.P,SW2,2,B*%
X111340000Y-224120000D03*
%TD*%
D22*
%TO.P,TP3,1,1*%
%TO.N,N/C*%
X108600000Y-192600000D03*
%TD*%
D35*
%TO.P,SW1,1,A*%
%TO.N,N/C*%
X96862000Y-225557000D03*
%TO.P,SW1,2,B*%
X96862000Y-233307000D03*
%TD*%
D12*
%TO.P,C12,1*%
%TO.N,N/C*%
X96853006Y-223228079D03*
%TO.P,C12,2*%
X94953008Y-223228079D03*
%TD*%
D36*
%TO.P,R1,1*%
%TO.N,N/C*%
X65063060Y-236499424D03*
%TO.P,R1,2*%
X67063060Y-236499424D03*
%TD*%
D19*
%TO.P,J5,1,Pin_1*%
%TO.N,N/C*%
X107400000Y-183400000D03*
%TO.P,J5,2,Pin_2*%
X104900000Y-183400000D03*
%TO.P,J5,3,Pin_3*%
X102400000Y-183400000D03*
%TD*%
D24*
%TO.P,J6,1,Pin_1*%
%TO.N,N/C*%
X42760000Y-198125000D03*
D25*
%TO.P,J6,2,Pin_2*%
X42760000Y-200665000D03*
%TO.P,J6,3,Pin_3*%
X42760000Y-203204999D03*
%TO.P,J6,4,Pin_4*%
X42760000Y-205745000D03*
%TO.P,J6,5,Pin_5*%
X42760000Y-208285000D03*
%TO.P,J6,6,Pin_6*%
X42760000Y-210825000D03*
%TD*%
D17*
%TO.P,C13,1*%
%TO.N,N/C*%
X104101000Y-221553999D03*
%TO.P,C13,2*%
X104101000Y-219654001D03*
%TD*%
D34*
%TO.P,C2,1*%
%TO.N,N/C*%
X59409440Y-226850001D03*
%TO.P,C2,2*%
X59409440Y-228749999D03*
%TD*%
D33*
%TO.P,C5,1*%
%TO.N,N/C*%
X69800000Y-214762000D03*
%TO.P,C5,2*%
X71699998Y-214762000D03*
%TD*%
D37*
%TO.P,FB1,1*%
%TO.N,N/C*%
X85150000Y-223650000D03*
%TO.P,FB1,2*%
X83150000Y-223650000D03*
%TD*%
D36*
%TO.P,R13,1*%
%TO.N,N/C*%
X103582300Y-188904799D03*
%TO.P,R13,2*%
X105582300Y-188904799D03*
%TD*%
D10*
%TO.P,J2,1,1*%
%TO.N,N/C*%
X44157000Y-184402002D03*
D11*
%TO.P,J2,2,2*%
X44157000Y-186902002D03*
%TO.P,J2,3,3*%
X44157000Y-189402000D03*
%TO.P,J2,4,4*%
X44157000Y-191902000D03*
%TD*%
D38*
%TO.P,R2,1*%
%TO.N,N/C*%
X60934600Y-107539099D03*
%TO.P,R2,2*%
X60934600Y-109364099D03*
%TD*%
D39*
%TO.P,M8,1*%
%TO.N,N/C*%
X161290000Y-104265802D03*
%TO.P,M8,2*%
X161290000Y-102365800D03*
%TO.P,M8,3*%
X159258000Y-103315801D03*
%TD*%
D40*
%TO.P,T2,1,1*%
%TO.N,N/C*%
X149098000Y-94441000D03*
%TO.P,T2,2,2*%
X151638000Y-94441000D03*
%TO.P,T2,3,3*%
X154178000Y-94441000D03*
%TO.P,T2,4,4*%
X156718000Y-94441000D03*
%TO.P,T2,5,5*%
X159258000Y-94441000D03*
%TO.P,T2,6,6*%
X161798000Y-94441000D03*
%TO.P,T2,7,7*%
X164338000Y-94441000D03*
%TO.P,T2,8,8*%
X166878000Y-94441000D03*
%TO.P,T2,9,9*%
X166878000Y-84281000D03*
%TO.P,T2,10,10*%
X164338000Y-84281000D03*
%TO.P,T2,11,11*%
X161798000Y-84281000D03*
%TO.P,T2,12,12*%
X159258000Y-84281000D03*
%TO.P,T2,13,13*%
X156718000Y-84281000D03*
%TO.P,T2,14,14*%
X154178000Y-84281000D03*
%TO.P,T2,15,15*%
X151638000Y-84281000D03*
%TO.P,T2,16,16*%
X149098000Y-84281000D03*
%TD*%
D41*
%TO.P,R26,1*%
%TO.N,N/C*%
X289639307Y-96092000D03*
%TO.P,R26,2*%
X289639307Y-94267000D03*
%TD*%
D22*
%TO.P,GND2,1,1*%
%TO.N,N/C*%
X50139600Y-119206000D03*
%TD*%
D42*
%TO.P,R33,1*%
%TO.N,N/C*%
X86186689Y-43711818D03*
%TO.P,R33,2*%
X88011689Y-43711818D03*
%TD*%
D41*
%TO.P,R23,1*%
%TO.N,N/C*%
X103479601Y-95941500D03*
%TO.P,R23,2*%
X103479601Y-94116500D03*
%TD*%
D43*
%TO.P,3V4,1,1*%
%TO.N,N/C*%
X183489600Y-125556000D03*
%TD*%
D44*
%TO.P,PT4,1,+*%
%TO.N,N/C*%
X334614600Y-128096000D03*
D45*
%TO.P,PT4,2,-*%
X337154600Y-128096000D03*
%TD*%
D38*
%TO.P,R14,1*%
%TO.N,N/C*%
X327126600Y-107141000D03*
%TO.P,R14,2*%
X327126600Y-108966000D03*
%TD*%
D46*
%TO.P,U9,1,CA*%
%TO.N,N/C*%
X330809600Y-74716000D03*
%TO.P,U9,2,F*%
X333349600Y-74716000D03*
%TO.P,U9,3,G*%
X335889600Y-74716000D03*
%TO.P,U9,4,E*%
X338429600Y-74716000D03*
%TO.P,U9,5,D*%
X340969600Y-74716000D03*
%TO.P,U9,6,CA*%
X330809600Y-44316000D03*
%TO.P,U9,7,DP*%
X333349600Y-44316000D03*
%TO.P,U9,8,C*%
X335889600Y-44316000D03*
%TO.P,U9,9,B*%
X338429600Y-44316000D03*
%TO.P,U9,10,A*%
X340969600Y-44316000D03*
%TD*%
D39*
%TO.P,M15,1*%
%TO.N,N/C*%
X344906600Y-103961002D03*
%TO.P,M15,2*%
X344906600Y-102061000D03*
%TO.P,M15,3*%
X342874600Y-103011001D03*
%TD*%
D44*
%TO.P,PT1,1,+*%
%TO.N,N/C*%
X67914600Y-128096000D03*
D45*
%TO.P,PT1,2,-*%
X70454600Y-128096000D03*
%TD*%
D38*
%TO.P,R3,1*%
%TO.N,N/C*%
X83794600Y-107539099D03*
%TO.P,R3,2*%
X83794600Y-109364099D03*
%TD*%
D41*
%TO.P,R32,1*%
%TO.N,N/C*%
X301831307Y-96092000D03*
%TO.P,R32,2*%
X301831307Y-94267000D03*
%TD*%
D42*
%TO.P,R42,1*%
%TO.N,N/C*%
X164797100Y-128096000D03*
%TO.P,R42,2*%
X166622100Y-128096000D03*
%TD*%
D18*
%TO.P,J1,1,1*%
%TO.N,N/C*%
X213616241Y-125516000D03*
%TO.P,J1,2,2*%
X213616241Y-123016000D03*
%TO.P,J1,3,3*%
X211616240Y-125516000D03*
%TO.P,J1,4,4*%
X211616240Y-123016000D03*
%TO.P,J1,5,5*%
X209616242Y-125516000D03*
%TO.P,J1,6,6*%
X209616242Y-123016000D03*
%TO.P,J1,7,7*%
X207616240Y-125516000D03*
%TO.P,J1,8,8*%
X207616240Y-123016000D03*
%TO.P,J1,9,9*%
X205616242Y-125516000D03*
%TO.P,J1,10,10*%
X205616242Y-123016000D03*
%TO.P,J1,11,11*%
X203616241Y-125516000D03*
%TO.P,J1,12,12*%
X203616241Y-123016000D03*
%TO.P,J1,13,13*%
X201616240Y-125516000D03*
%TO.P,J1,14,14*%
X201616240Y-123016000D03*
%TO.P,J1,15,15*%
X199616241Y-125516000D03*
%TO.P,J1,16,16*%
X199616241Y-123016000D03*
%TO.P,J1,17,17*%
X197616240Y-125516000D03*
%TO.P,J1,18,18*%
X197616240Y-123016000D03*
%TO.P,J1,19,19*%
X195616242Y-125516000D03*
%TO.P,J1,20,20*%
X195616242Y-123016000D03*
%TO.P,J1,21,21*%
X193616241Y-125516000D03*
%TO.P,J1,22,22*%
X193616241Y-123016000D03*
%TO.P,J1,23,23*%
X191616242Y-125516000D03*
%TO.P,J1,24,24*%
X191616242Y-123016000D03*
%TD*%
D39*
%TO.P,M17,1*%
%TO.N,N/C*%
X86207600Y-46947998D03*
%TO.P,M17,2*%
X86207600Y-48848000D03*
%TO.P,M17,3*%
X88239600Y-47897999D03*
%TD*%
D41*
%TO.P,R18,1*%
%TO.N,N/C*%
X111607600Y-95838000D03*
%TO.P,R18,2*%
X111607600Y-94013000D03*
%TD*%
D38*
%TO.P,R11,1*%
%TO.N,N/C*%
X261340600Y-107094000D03*
%TO.P,R11,2*%
X261340600Y-108919000D03*
%TD*%
D39*
%TO.P,M5,1*%
%TO.N,N/C*%
X153670000Y-104265802D03*
%TO.P,M5,2*%
X153670000Y-102365800D03*
%TO.P,M5,3*%
X151638000Y-103315801D03*
%TD*%
D47*
%TO.P,U5,1,A0*%
%TO.N,N/C*%
X299694600Y-120411000D03*
%TO.P,U5,2,A1*%
X300964600Y-120411000D03*
%TO.P,U5,3,A2*%
X302234600Y-120411000D03*
%TO.P,U5,4,~{E0}*%
X303504600Y-120411000D03*
%TO.P,U5,5,~{E1}*%
X304774600Y-120411000D03*
%TO.P,U5,6,E2*%
X306044600Y-120411000D03*
%TO.P,U5,7,~{Y7}*%
X307314600Y-120411000D03*
%TO.P,U5,8,GND*%
X308584600Y-120411000D03*
%TO.P,U5,9,~{Y6}*%
X308584600Y-115461000D03*
%TO.P,U5,10,~{Y5}*%
X307314600Y-115461000D03*
%TO.P,U5,11,~{Y4}*%
X306044600Y-115461000D03*
%TO.P,U5,12,~{Y3}*%
X304774600Y-115461000D03*
%TO.P,U5,13,~{Y2}*%
X303504600Y-115461000D03*
%TO.P,U5,14,~{Y1}*%
X302234600Y-115461000D03*
%TO.P,U5,15,~{Y0}*%
X300964600Y-115461000D03*
%TO.P,U5,16,VCC*%
X299694600Y-115461000D03*
%TD*%
D39*
%TO.P,M19,1*%
%TO.N,N/C*%
X229463600Y-56468000D03*
%TO.P,M19,2*%
X229463600Y-54567998D03*
%TO.P,M19,3*%
X227431600Y-55517999D03*
%TD*%
D48*
%TO.P,U3,1,\u002ACLR*%
%TO.N,N/C*%
X275869600Y-115011000D03*
%TO.P,U3,2,D1*%
X275869600Y-115661000D03*
%TO.P,U3,3,D2*%
X275869600Y-116311000D03*
%TO.P,U3,4,D3*%
X275869600Y-116961000D03*
%TO.P,U3,5,D4*%
X275869600Y-117611000D03*
%TO.P,U3,6,D5*%
X275869600Y-118261000D03*
%TO.P,U3,7,D6*%
X275869600Y-118911000D03*
%TO.P,U3,8,D7*%
X275869600Y-119561000D03*
%TO.P,U3,9,D8*%
X275869600Y-120211000D03*
%TO.P,U3,10,CLK*%
X275869600Y-120861000D03*
%TO.P,U3,11,GND*%
X281609600Y-120861000D03*
%TO.P,U3,12,\u002AY8*%
X281609600Y-120211000D03*
%TO.P,U3,13,\u002AY7*%
X281609600Y-119561000D03*
%TO.P,U3,14,\u002AY6*%
X281609600Y-118911000D03*
%TO.P,U3,15,\u002AY5*%
X281609600Y-118261000D03*
%TO.P,U3,16,\u002AY4*%
X281609600Y-117611000D03*
%TO.P,U3,17,\u002AY3*%
X281609600Y-116961000D03*
%TO.P,U3,18,\u002AY2*%
X281609600Y-116311000D03*
%TO.P,U3,19,\u002AY1*%
X281609600Y-115661000D03*
%TO.P,U3,20,VCC*%
X281609600Y-115011000D03*
%TD*%
D22*
%TO.P,PA11,1,1*%
%TO.N,N/C*%
X173607901Y-79627644D03*
%TD*%
D41*
%TO.P,R28,1*%
%TO.N,N/C*%
X277447307Y-96092000D03*
%TO.P,R28,2*%
X277447307Y-94267000D03*
%TD*%
D49*
%TO.P,U2,1,\u002ACLR*%
%TO.N,N/C*%
X129209600Y-120861000D03*
%TO.P,U2,2,D1*%
X129209600Y-120211000D03*
%TO.P,U2,3,D2*%
X129209600Y-119561000D03*
%TO.P,U2,4,D3*%
X129209600Y-118911000D03*
%TO.P,U2,5,D4*%
X129209600Y-118261000D03*
%TO.P,U2,6,D5*%
X129209600Y-117611000D03*
%TO.P,U2,7,D6*%
X129209600Y-116961000D03*
%TO.P,U2,8,D7*%
X129209600Y-116311000D03*
%TO.P,U2,9,D8*%
X129209600Y-115661000D03*
%TO.P,U2,10,CLK*%
X129209600Y-115011000D03*
%TO.P,U2,11,GND*%
X123469600Y-115011000D03*
%TO.P,U2,12,\u002AY8*%
X123469600Y-115661000D03*
%TO.P,U2,13,\u002AY7*%
X123469600Y-116311000D03*
%TO.P,U2,14,\u002AY6*%
X123469600Y-116961000D03*
%TO.P,U2,15,\u002AY5*%
X123469600Y-117611000D03*
%TO.P,U2,16,\u002AY4*%
X123469600Y-118261000D03*
%TO.P,U2,17,\u002AY3*%
X123469600Y-118911000D03*
%TO.P,U2,18,\u002AY2*%
X123469600Y-119561000D03*
%TO.P,U2,19,\u002AY1*%
X123469600Y-120211000D03*
%TO.P,U2,20,VCC*%
X123469600Y-120861000D03*
%TD*%
D26*
%TO.P,U1,1,1*%
%TO.N,N/C*%
X209556486Y-45546000D03*
%TO.P,U1,2,2*%
X207556487Y-45546000D03*
%TO.P,U1,3,3*%
X205556486Y-45546000D03*
%TO.P,U1,4,4*%
X203556487Y-45546000D03*
%TO.P,U1,5,5*%
X201556486Y-45546000D03*
%TO.P,U1,6,6*%
X199556488Y-45546000D03*
%TO.P,U1,7,7*%
X197556487Y-45546000D03*
%TO.P,U1,8,8*%
X195556486Y-45546000D03*
%TO.P,U1,9,9*%
X209556486Y-43006000D03*
%TO.P,U1,10,10*%
X207556487Y-43006000D03*
%TO.P,U1,11,11*%
X205556486Y-43006000D03*
%TO.P,U1,12,12*%
X203556487Y-43006000D03*
%TO.P,U1,13,13*%
X201556486Y-43006000D03*
%TO.P,U1,14,14*%
X199556488Y-43006000D03*
%TO.P,U1,15,15*%
X197556487Y-43006000D03*
%TO.P,U1,16,16*%
X195556486Y-43006000D03*
%TD*%
D39*
%TO.P,M4,1*%
%TO.N,N/C*%
X72466200Y-103966000D03*
%TO.P,M4,2*%
X72466200Y-102065998D03*
%TO.P,M4,3*%
X70434200Y-103015999D03*
%TD*%
%TO.P,M16,1*%
%TO.N,N/C*%
X337921600Y-103961002D03*
%TO.P,M16,2*%
X337921600Y-102061000D03*
%TO.P,M16,3*%
X335889600Y-103011001D03*
%TD*%
D41*
%TO.P,R24,1*%
%TO.N,N/C*%
X123799600Y-95838000D03*
%TO.P,R24,2*%
X123799600Y-94013000D03*
%TD*%
%TO.P,R17,1*%
%TO.N,N/C*%
X119735600Y-95838000D03*
%TO.P,R17,2*%
X119735600Y-94013000D03*
%TD*%
%TO.P,R22,1*%
%TO.N,N/C*%
X127863599Y-95734500D03*
%TO.P,R22,2*%
X127863599Y-93909500D03*
%TD*%
%TO.P,R19,1*%
%TO.N,N/C*%
X115671600Y-95838000D03*
%TO.P,R19,2*%
X115671600Y-94013000D03*
%TD*%
D22*
%TO.P,GND5,1,1*%
%TO.N,N/C*%
X286359600Y-133176000D03*
%TD*%
D38*
%TO.P,R10,1*%
%TO.N,N/C*%
X238480600Y-107094000D03*
%TO.P,R10,2*%
X238480600Y-108919000D03*
%TD*%
D40*
%TO.P,T3,1,1*%
%TO.N,N/C*%
X238099600Y-94394000D03*
%TO.P,T3,2,2*%
X240639600Y-94394000D03*
%TO.P,T3,3,3*%
X243179600Y-94394000D03*
%TO.P,T3,4,4*%
X245719600Y-94394000D03*
%TO.P,T3,5,5*%
X248259600Y-94394000D03*
%TO.P,T3,6,6*%
X250799600Y-94394000D03*
%TO.P,T3,7,7*%
X253339600Y-94394000D03*
%TO.P,T3,8,8*%
X255879600Y-94394000D03*
%TO.P,T3,9,9*%
X255879600Y-84234000D03*
%TO.P,T3,10,10*%
X253339600Y-84234000D03*
%TO.P,T3,11,11*%
X250799600Y-84234000D03*
%TO.P,T3,12,12*%
X248259600Y-84234000D03*
%TO.P,T3,13,13*%
X245719600Y-84234000D03*
%TO.P,T3,14,14*%
X243179600Y-84234000D03*
%TO.P,T3,15,15*%
X240639600Y-84234000D03*
%TO.P,T3,16,16*%
X238099600Y-84234000D03*
%TD*%
D42*
%TO.P,R41,1*%
%TO.N,N/C*%
X75262100Y-128096000D03*
%TO.P,R41,2*%
X77087100Y-128096000D03*
%TD*%
D41*
%TO.P,R27,1*%
%TO.N,N/C*%
X293703307Y-96092000D03*
%TO.P,R27,2*%
X293703307Y-94267000D03*
%TD*%
D39*
%TO.P,M9,1*%
%TO.N,N/C*%
X243306600Y-104168002D03*
%TO.P,M9,2*%
X243306600Y-102268000D03*
%TO.P,M9,3*%
X241274600Y-103218001D03*
%TD*%
%TO.P,M6,1*%
%TO.N,N/C*%
X146050000Y-104265802D03*
%TO.P,M6,2*%
X146050000Y-102365800D03*
%TO.P,M6,3*%
X144018000Y-103315801D03*
%TD*%
D46*
%TO.P,U8,1,CA*%
%TO.N,N/C*%
X241909600Y-74716000D03*
%TO.P,U8,2,F*%
X244449600Y-74716000D03*
%TO.P,U8,3,G*%
X246989600Y-74716000D03*
%TO.P,U8,4,E*%
X249529600Y-74716000D03*
%TO.P,U8,5,D*%
X252069600Y-74716000D03*
%TO.P,U8,6,CA*%
X241909600Y-44316000D03*
%TO.P,U8,7,DP*%
X244449600Y-44316000D03*
%TO.P,U8,8,C*%
X246989600Y-44316000D03*
%TO.P,U8,9,B*%
X249529600Y-44316000D03*
%TO.P,U8,10,A*%
X252069600Y-44316000D03*
%TD*%
D22*
%TO.P,GND8,1,1*%
%TO.N,N/C*%
X183489600Y-120476000D03*
%TD*%
D39*
%TO.P,M14,1*%
%TO.N,N/C*%
X323951600Y-103961002D03*
%TO.P,M14,2*%
X323951600Y-102061000D03*
%TO.P,M14,3*%
X321919600Y-103011001D03*
%TD*%
D22*
%TO.P,GND6,1,1*%
%TO.N,N/C*%
X291439600Y-55706000D03*
%TD*%
D42*
%TO.P,R44,1*%
%TO.N,N/C*%
X342597100Y-128096000D03*
%TO.P,R44,2*%
X344422100Y-128096000D03*
%TD*%
D41*
%TO.P,R30,1*%
%TO.N,N/C*%
X305895307Y-96092000D03*
%TO.P,R30,2*%
X305895307Y-94267000D03*
%TD*%
D22*
%TO.P,GND7,1,1*%
%TO.N,N/C*%
X113639600Y-55706000D03*
%TD*%
D46*
%TO.P,U6,1,CA*%
%TO.N,N/C*%
X64109600Y-74716000D03*
%TO.P,U6,2,F*%
X66649600Y-74716000D03*
%TO.P,U6,3,G*%
X69189600Y-74716000D03*
%TO.P,U6,4,E*%
X71729600Y-74716000D03*
%TO.P,U6,5,D*%
X74269600Y-74716000D03*
%TO.P,U6,6,CA*%
X64109600Y-44316000D03*
%TO.P,U6,7,DP*%
X66649600Y-44316000D03*
%TO.P,U6,8,C*%
X69189600Y-44316000D03*
%TO.P,U6,9,B*%
X71729600Y-44316000D03*
%TO.P,U6,10,A*%
X74269600Y-44316000D03*
%TD*%
D41*
%TO.P,R29,1*%
%TO.N,N/C*%
X285575307Y-96092000D03*
%TO.P,R29,2*%
X285575307Y-94267000D03*
%TD*%
D39*
%TO.P,M10,1*%
%TO.N,N/C*%
X235051600Y-104154001D03*
%TO.P,M10,2*%
X235051600Y-102253999D03*
%TO.P,M10,3*%
X233019600Y-103204000D03*
%TD*%
D42*
%TO.P,R43,1*%
%TO.N,N/C*%
X253062100Y-128096000D03*
%TO.P,R43,2*%
X254887100Y-128096000D03*
%TD*%
D40*
%TO.P,T1,1,1*%
%TO.N,N/C*%
X60274200Y-94417500D03*
%TO.P,T1,2,2*%
X62814200Y-94417500D03*
%TO.P,T1,3,3*%
X65354200Y-94417500D03*
%TO.P,T1,4,4*%
X67894200Y-94417500D03*
%TO.P,T1,5,5*%
X70434200Y-94417500D03*
%TO.P,T1,6,6*%
X72974200Y-94417500D03*
%TO.P,T1,7,7*%
X75514200Y-94417500D03*
%TO.P,T1,8,8*%
X78054200Y-94417500D03*
%TO.P,T1,9,9*%
X78054200Y-84257500D03*
%TO.P,T1,10,10*%
X75514200Y-84257500D03*
%TO.P,T1,11,11*%
X72974200Y-84257500D03*
%TO.P,T1,12,12*%
X70434200Y-84257500D03*
%TO.P,T1,13,13*%
X67894200Y-84257500D03*
%TO.P,T1,14,14*%
X65354200Y-84257500D03*
%TO.P,T1,15,15*%
X62814200Y-84257500D03*
%TO.P,T1,16,16*%
X60274200Y-84257500D03*
%TD*%
D22*
%TO.P,PA14,1,1*%
%TO.N,N/C*%
X203809600Y-74756000D03*
%TD*%
D38*
%TO.P,R13,1*%
%TO.N,N/C*%
X334111600Y-107141000D03*
%TO.P,R13,2*%
X334111600Y-108966000D03*
%TD*%
D39*
%TO.P,M18,1*%
%TO.N,N/C*%
X141579600Y-48782001D03*
%TO.P,M18,2*%
X141579600Y-46881999D03*
%TO.P,M18,3*%
X139547600Y-47832000D03*
%TD*%
%TO.P,M2,1*%
%TO.N,N/C*%
X57226200Y-103966000D03*
%TO.P,M2,2*%
X57226200Y-102065998D03*
%TO.P,M2,3*%
X55194200Y-103015999D03*
%TD*%
%TO.P,M12,1*%
%TO.N,N/C*%
X250926600Y-104168002D03*
%TO.P,M12,2*%
X250926600Y-102268000D03*
%TO.P,M12,3*%
X248894600Y-103218001D03*
%TD*%
%TO.P,M7,1*%
%TO.N,N/C*%
X168910000Y-104265802D03*
%TO.P,M7,2*%
X168910000Y-102365800D03*
%TO.P,M7,3*%
X166878000Y-103315801D03*
%TD*%
D38*
%TO.P,R1,1*%
%TO.N,N/C*%
X68554600Y-107539099D03*
%TO.P,R1,2*%
X68554600Y-109364099D03*
%TD*%
D50*
%TO.P,M20,1*%
%TO.N,N/C*%
X317855600Y-48340000D03*
%TO.P,M20,2*%
X319755602Y-48340000D03*
%TO.P,M20,3*%
X318805601Y-46308000D03*
%TD*%
D41*
%TO.P,R31,1*%
%TO.N,N/C*%
X281511307Y-96092000D03*
%TO.P,R31,2*%
X281511307Y-94267000D03*
%TD*%
%TO.P,R20,1*%
%TO.N,N/C*%
X99415601Y-95941500D03*
%TO.P,R20,2*%
X99415601Y-94116500D03*
%TD*%
D38*
%TO.P,R5,1*%
%TO.N,N/C*%
X156311600Y-107856000D03*
%TO.P,R5,2*%
X156311600Y-109681000D03*
%TD*%
%TO.P,R6,1*%
%TO.N,N/C*%
X148691600Y-107856000D03*
%TO.P,R6,2*%
X148691600Y-109681000D03*
%TD*%
D41*
%TO.P,R21,1*%
%TO.N,N/C*%
X107543601Y-95941500D03*
%TO.P,R21,2*%
X107543601Y-94116500D03*
%TD*%
D38*
%TO.P,R15,1*%
%TO.N,N/C*%
X348081600Y-107141000D03*
%TO.P,R15,2*%
X348081600Y-108966000D03*
%TD*%
D39*
%TO.P,M13,1*%
%TO.N,N/C*%
X330936600Y-103961002D03*
%TO.P,M13,2*%
X330936600Y-102061000D03*
%TO.P,M13,3*%
X328904600Y-103011001D03*
%TD*%
D38*
%TO.P,R16,1*%
%TO.N,N/C*%
X341096600Y-107141000D03*
%TO.P,R16,2*%
X341096600Y-108966000D03*
%TD*%
D42*
%TO.P,R34,1*%
%TO.N,N/C*%
X141567294Y-53296779D03*
%TO.P,R34,2*%
X143392294Y-53296779D03*
%TD*%
D38*
%TO.P,R12,1*%
%TO.N,N/C*%
X254355600Y-107094000D03*
%TO.P,R12,2*%
X254355600Y-108919000D03*
%TD*%
D22*
%TO.P,PA12,1,1*%
%TO.N,N/C*%
X181169451Y-79622658D03*
%TD*%
D38*
%TO.P,R7,1*%
%TO.N,N/C*%
X171551600Y-107856000D03*
%TO.P,R7,2*%
X171551600Y-109681000D03*
%TD*%
D39*
%TO.P,M3,1*%
%TO.N,N/C*%
X80086200Y-103966000D03*
%TO.P,M3,2*%
X80086200Y-102065998D03*
%TO.P,M3,3*%
X78054200Y-103015999D03*
%TD*%
D51*
%TO.P,R36,1*%
%TO.N,N/C*%
X313688100Y-48340000D03*
%TO.P,R36,2*%
X311863100Y-48340000D03*
%TD*%
D38*
%TO.P,R8,1*%
%TO.N,N/C*%
X163931600Y-107856000D03*
%TO.P,R8,2*%
X163931600Y-109681000D03*
%TD*%
D22*
%TO.P,PA13,1,1*%
%TO.N,N/C*%
X192379600Y-79622658D03*
%TD*%
D51*
%TO.P,R35,1*%
%TO.N,N/C*%
X229463600Y-60024000D03*
%TO.P,R35,2*%
X227638600Y-60024000D03*
%TD*%
D39*
%TO.P,M11,1*%
%TO.N,N/C*%
X257911600Y-104168002D03*
%TO.P,M11,2*%
X257911600Y-102268000D03*
%TO.P,M11,3*%
X255879600Y-103218001D03*
%TD*%
D47*
%TO.P,U4,1,A0*%
%TO.N,N/C*%
X96494600Y-120411000D03*
%TO.P,U4,2,A1*%
X97764600Y-120411000D03*
%TO.P,U4,3,A2*%
X99034600Y-120411000D03*
%TO.P,U4,4,~{E0}*%
X100304600Y-120411000D03*
%TO.P,U4,5,~{E1}*%
X101574600Y-120411000D03*
%TO.P,U4,6,E2*%
X102844600Y-120411000D03*
%TO.P,U4,7,~{Y7}*%
X104114600Y-120411000D03*
%TO.P,U4,8,GND*%
X105384600Y-120411000D03*
%TO.P,U4,9,~{Y6}*%
X105384600Y-115461000D03*
%TO.P,U4,10,~{Y5}*%
X104114600Y-115461000D03*
%TO.P,U4,11,~{Y4}*%
X102844600Y-115461000D03*
%TO.P,U4,12,~{Y3}*%
X101574600Y-115461000D03*
%TO.P,U4,13,~{Y2}*%
X100304600Y-115461000D03*
%TO.P,U4,14,~{Y1}*%
X99034600Y-115461000D03*
%TO.P,U4,15,~{Y0}*%
X97764600Y-115461000D03*
%TO.P,U4,16,VCC*%
X96494600Y-115461000D03*
%TD*%
D46*
%TO.P,U7,1,CA*%
%TO.N,N/C*%
X153009600Y-74716000D03*
%TO.P,U7,2,F*%
X155549600Y-74716000D03*
%TO.P,U7,3,G*%
X158089600Y-74716000D03*
%TO.P,U7,4,E*%
X160629600Y-74716000D03*
%TO.P,U7,5,D*%
X163169600Y-74716000D03*
%TO.P,U7,6,CA*%
X153009600Y-44316000D03*
%TO.P,U7,7,DP*%
X155549600Y-44316000D03*
%TO.P,U7,8,C*%
X158089600Y-44316000D03*
%TO.P,U7,9,B*%
X160629600Y-44316000D03*
%TO.P,U7,10,A*%
X163169600Y-44316000D03*
%TD*%
D22*
%TO.P,GND1,1,1*%
%TO.N,N/C*%
X354939600Y-119206000D03*
%TD*%
D44*
%TO.P,PT3,1,+*%
%TO.N,N/C*%
X245714600Y-128096000D03*
D45*
%TO.P,PT3,2,-*%
X248254600Y-128096000D03*
%TD*%
D39*
%TO.P,M1,1*%
%TO.N,N/C*%
X64846200Y-103966000D03*
%TO.P,M1,2*%
X64846200Y-102065998D03*
%TO.P,M1,3*%
X62814200Y-103015999D03*
%TD*%
D41*
%TO.P,R25,1*%
%TO.N,N/C*%
X297767307Y-96092000D03*
%TO.P,R25,2*%
X297767307Y-94267000D03*
%TD*%
D44*
%TO.P,PT2,1,+*%
%TO.N,N/C*%
X156814600Y-128096000D03*
D45*
%TO.P,PT2,2,-*%
X159354600Y-128096000D03*
%TD*%
D40*
%TO.P,T4,1,1*%
%TO.N,N/C*%
X326999600Y-94441000D03*
%TO.P,T4,2,2*%
X329539600Y-94441000D03*
%TO.P,T4,3,3*%
X332079600Y-94441000D03*
%TO.P,T4,4,4*%
X334619600Y-94441000D03*
%TO.P,T4,5,5*%
X337159600Y-94441000D03*
%TO.P,T4,6,6*%
X339699600Y-94441000D03*
%TO.P,T4,7,7*%
X342239600Y-94441000D03*
%TO.P,T4,8,8*%
X344779600Y-94441000D03*
%TO.P,T4,9,9*%
X344779600Y-84281000D03*
%TO.P,T4,10,10*%
X342239600Y-84281000D03*
%TO.P,T4,11,11*%
X339699600Y-84281000D03*
%TO.P,T4,12,12*%
X337159600Y-84281000D03*
%TO.P,T4,13,13*%
X334619600Y-84281000D03*
%TO.P,T4,14,14*%
X332079600Y-84281000D03*
%TO.P,T4,15,15*%
X329539600Y-84281000D03*
%TO.P,T4,16,16*%
X326999600Y-84281000D03*
%TD*%
D38*
%TO.P,R4,1*%
%TO.N,N/C*%
X76174600Y-107539099D03*
%TO.P,R4,2*%
X76174600Y-109364099D03*
%TD*%
%TO.P,R9,1*%
%TO.N,N/C*%
X246735600Y-107094000D03*
%TO.P,R9,2*%
X246735600Y-108919000D03*
%TD*%
D52*
%TO.N,*%
X97477695Y-197822305D03*
X99200000Y-196200000D03*
X84600000Y-199100000D03*
X80771288Y-197071288D03*
X89400000Y-190400000D03*
X87700000Y-197800000D03*
X85400000Y-191000000D03*
X92726870Y-203218283D03*
X85300000Y-195500000D03*
X89500000Y-197700000D03*
X100200000Y-194800000D03*
X98840072Y-201200000D03*
X101400000Y-199251600D03*
X103000000Y-194748400D03*
X85400000Y-189800000D03*
X90486519Y-209113481D03*
X104200000Y-194748400D03*
X104200000Y-197600000D03*
X100545000Y-180980000D03*
X82028938Y-175931856D03*
X78200000Y-221400000D03*
X110705000Y-180980000D03*
X71200000Y-222800000D03*
X50761000Y-180980000D03*
X48661498Y-231712281D03*
X110705000Y-231780000D03*
X91725000Y-210700000D03*
X90385000Y-210825000D03*
X69049000Y-221242000D03*
X63715000Y-221239000D03*
X49745000Y-195204000D03*
X63715000Y-235590000D03*
X52539000Y-235478200D03*
X87464000Y-205999000D03*
X95846000Y-219588000D03*
X90385000Y-231780000D03*
X95677938Y-192782474D03*
X72478000Y-212984000D03*
X64985000Y-211460000D03*
X93600000Y-203000000D03*
X99148000Y-208031000D03*
X94200000Y-205200000D03*
X64731000Y-196982000D03*
X86067000Y-206380000D03*
D53*
X54825000Y-224160000D03*
D52*
X75300000Y-197000000D03*
X76500000Y-204800000D03*
X74400000Y-197100000D03*
X75700000Y-205600000D03*
X60921000Y-186822000D03*
X63715000Y-189402000D03*
X74700000Y-206300000D03*
X73400000Y-197300000D03*
X102000000Y-201300000D03*
X100700000Y-203400000D03*
X100700000Y-207200000D03*
X80600000Y-205000000D03*
X96400000Y-206400000D03*
D54*
X77685000Y-235844000D03*
D52*
X94400000Y-213900000D03*
D54*
X64477000Y-215524000D03*
D52*
X104100000Y-199400000D03*
X98750000Y-197950000D03*
X101250000Y-195548400D03*
X79500000Y-197100000D03*
X83700000Y-199800000D03*
X74100000Y-191700000D03*
X96200000Y-210998400D03*
X73113000Y-208920000D03*
X97200000Y-210800000D03*
X76900000Y-192100000D03*
X80500000Y-202200000D03*
X81800000Y-201200000D03*
X77000000Y-197100000D03*
X94000000Y-204200000D03*
X98400000Y-210600000D03*
X85400000Y-192200000D03*
X91600000Y-203800000D03*
X85400000Y-193400000D03*
X90948400Y-203000000D03*
X75100000Y-194000000D03*
X82600000Y-200500000D03*
X78200000Y-197100000D03*
X102000000Y-194748400D03*
X99600000Y-200000000D03*
X85300000Y-194500000D03*
X90100000Y-196900000D03*
X94400000Y-208200000D03*
X71800000Y-200251600D03*
X87300000Y-208000000D03*
X89600000Y-218600000D03*
X86000000Y-213058000D03*
X76600000Y-199600000D03*
X84775000Y-197525000D03*
X82987302Y-197987302D03*
X76000000Y-198800000D03*
X89300000Y-194900000D03*
X86600000Y-197600000D03*
X72412500Y-197087500D03*
X79000000Y-203200000D03*
D55*
X295757600Y-85170000D03*
X295757600Y-93806000D03*
X330809600Y-65800701D03*
X330822648Y-72320269D03*
X241919048Y-60947462D03*
X241900236Y-70353305D03*
X153009600Y-49102000D03*
X153009600Y-52785000D03*
X285597600Y-114888000D03*
X284835600Y-117588000D03*
X290550600Y-114380000D03*
X289915600Y-117588000D03*
X286359600Y-119968000D03*
X288264600Y-114380000D03*
X310235600Y-77677000D03*
X313156600Y-119968000D03*
X181965600Y-60532000D03*
X181965600Y-46054000D03*
X165201600Y-130128000D03*
X177647600Y-110316000D03*
X177647600Y-46054000D03*
X177647600Y-60532000D03*
X179933600Y-60532000D03*
X179933600Y-46054000D03*
X236448600Y-99140000D03*
X93573600Y-93806000D03*
X174853600Y-46054000D03*
X93573600Y-108538000D03*
X93573600Y-114380000D03*
X93573600Y-84408000D03*
X174853600Y-60532000D03*
X292075743Y-113492143D03*
X292077240Y-117564334D03*
X125196600Y-118571000D03*
X126720600Y-117174000D03*
X117640100Y-116602500D03*
X119608600Y-118571000D03*
X104495600Y-105490000D03*
X102717600Y-103712000D03*
X115671600Y-110570000D03*
X115671600Y-112221000D03*
X337921600Y-92536000D03*
X253847600Y-86440000D03*
X335827244Y-92598356D03*
X159740600Y-92456000D03*
X157646244Y-92518356D03*
X75666600Y-86360000D03*
X232765600Y-46562000D03*
X240385600Y-48340000D03*
X243687600Y-48340000D03*
X226923600Y-46562000D03*
X212953600Y-53166000D03*
X212953600Y-48594000D03*
X209143600Y-39196000D03*
X156819600Y-46816000D03*
X167487600Y-45800000D03*
X163931600Y-41228000D03*
X155295600Y-41228000D03*
X303631600Y-86948000D03*
X334873600Y-92028000D03*
X303631600Y-93806000D03*
X336397600Y-90504000D03*
X283311600Y-84916000D03*
X283311600Y-93806000D03*
X287375600Y-84916000D03*
X287375600Y-93806000D03*
X279247600Y-93806000D03*
X279247600Y-84916000D03*
X291693600Y-84916000D03*
X291693600Y-93806000D03*
X245338600Y-90123000D03*
X331063600Y-88980000D03*
X249021600Y-88218000D03*
X299821600Y-85678000D03*
X299821600Y-93806000D03*
X125450600Y-86868000D03*
X125450600Y-93726000D03*
X158216600Y-90424000D03*
X156692600Y-91948000D03*
X105130600Y-93726000D03*
X105130600Y-84836000D03*
X109194600Y-93726000D03*
X109194600Y-84836000D03*
X101066600Y-84836000D03*
X101066600Y-93726000D03*
X117576600Y-93726000D03*
X117576600Y-85090000D03*
X152882600Y-88900000D03*
X159359600Y-69930000D03*
X253339600Y-68152000D03*
X250799600Y-68152000D03*
X199491600Y-57336983D03*
X193903600Y-57338852D03*
X151485600Y-69930000D03*
X161899600Y-71708000D03*
X193903600Y-59008000D03*
X151485600Y-71708000D03*
X203555600Y-59008000D03*
X193903600Y-52331426D03*
X247751600Y-41228000D03*
X253339600Y-41228000D03*
X206023136Y-52331536D03*
X74268259Y-37949018D03*
X193903600Y-48993142D03*
X74255195Y-41319445D03*
X253339600Y-71200000D03*
X151485600Y-66374000D03*
X196443600Y-54039272D03*
X154533600Y-66374000D03*
X245719600Y-71200000D03*
X193903600Y-54000568D03*
X156565600Y-68406000D03*
X253339600Y-69676000D03*
X199824726Y-61892107D03*
X151485600Y-68406000D03*
X196773140Y-61877540D03*
X248259600Y-69676000D03*
X208635600Y-50880000D03*
X71729600Y-41336228D03*
X193903600Y-50662284D03*
X249275600Y-39704000D03*
X253339600Y-39704000D03*
X71810866Y-39358744D03*
X225018600Y-122254000D03*
X231241600Y-116031000D03*
X200126600Y-127080000D03*
X203809600Y-120730000D03*
X233083100Y-118507500D03*
X196443600Y-128011333D03*
X229336600Y-122254000D03*
X202158600Y-121492000D03*
X235686600Y-118571000D03*
X202285600Y-128858000D03*
X231876600Y-122254000D03*
X198475600Y-129874000D03*
X198475600Y-119290666D03*
X200507600Y-118190000D03*
X306156050Y-112840450D03*
X308965600Y-112221000D03*
X237591600Y-111967000D03*
X237591600Y-123524000D03*
X195616242Y-110504642D03*
X236702600Y-109173000D03*
X236702600Y-124286000D03*
X193649600Y-110570000D03*
X301853600Y-108919000D03*
X276453600Y-108919000D03*
X339953600Y-113237000D03*
X342366600Y-113237000D03*
X299948600Y-111205000D03*
X276453600Y-111205000D03*
X300964600Y-124159000D03*
X299249255Y-126380655D03*
X194303600Y-136332000D03*
X276453600Y-112221000D03*
X301853600Y-112602000D03*
X304139600Y-110189000D03*
X276453600Y-110030250D03*
X211366100Y-113173500D03*
X206476600Y-114253000D03*
X213080600Y-131736665D03*
X171551600Y-123397000D03*
X166217600Y-118052714D03*
X165201600Y-119248571D03*
X207111600Y-132668000D03*
X170535600Y-124540000D03*
X167360600Y-116793000D03*
X172694600Y-122127000D03*
X211332420Y-130919820D03*
X207746600Y-111967000D03*
X210667600Y-115650000D03*
X113512600Y-84836000D03*
X113512600Y-93726000D03*
X67284600Y-90170000D03*
X70840600Y-88138000D03*
X121640600Y-93726000D03*
X121640600Y-85598000D03*
X80937699Y-109364099D03*
X85255699Y-109364099D03*
X164439600Y-114634000D03*
X163677600Y-124794000D03*
X205079600Y-135589000D03*
X152755600Y-126572000D03*
X152755600Y-114888000D03*
X204444600Y-116666000D03*
X203047600Y-134573000D03*
X167487600Y-132795000D03*
X165836600Y-131652000D03*
X72237600Y-113110000D03*
X68554600Y-110951000D03*
X143865600Y-114888000D03*
X140817600Y-126437000D03*
X145389600Y-125302000D03*
X146151600Y-114888000D03*
X246354600Y-99521000D03*
X337345824Y-107106309D03*
X225145600Y-55452000D03*
X100304600Y-122635000D03*
X218414600Y-85551000D03*
X156819600Y-99521000D03*
X279628600Y-120857000D03*
X281787600Y-122000000D03*
X308711600Y-122762000D03*
X257149600Y-107141000D03*
X98399600Y-106506000D03*
X250164600Y-107141000D03*
X309854600Y-89996000D03*
X215874600Y-112221000D03*
X67919600Y-98886000D03*
X159994600Y-106506000D03*
X315569600Y-107141000D03*
X169519600Y-69676000D03*
X346557600Y-128096000D03*
X344144600Y-107141000D03*
X189331600Y-123016000D03*
X78968600Y-128096000D03*
X330174600Y-107141000D03*
X80619600Y-106506000D03*
X123545600Y-113618000D03*
X330174600Y-115396000D03*
X101574600Y-122635000D03*
X242544600Y-107141000D03*
X105384600Y-122762000D03*
X189331600Y-120730000D03*
X303631600Y-122762000D03*
X304901600Y-122762000D03*
X72999600Y-106506000D03*
X256641600Y-128096000D03*
X152374600Y-106506000D03*
X318871600Y-44530000D03*
X337159600Y-99521000D03*
X89509600Y-106506000D03*
X65379600Y-119206000D03*
X130149600Y-106506000D03*
X166725600Y-126318000D03*
X65379600Y-106506000D03*
X167614600Y-106506000D03*
X137261600Y-47832000D03*
X194284600Y-91266000D03*
X90525600Y-47832000D03*
X269214600Y-107141000D03*
X191617600Y-120730000D03*
X169138600Y-125683000D03*
X208889600Y-133599331D03*
X166344600Y-122889000D03*
D56*
X230479600Y-103204000D03*
X318871600Y-104604913D03*
X119735600Y-122000000D03*
X52679600Y-103966000D03*
X102971600Y-123524000D03*
X94335600Y-120984000D03*
X306044600Y-123397000D03*
X283565600Y-114888000D03*
D57*
X140563600Y-103712000D03*
%TD*%
D58*
%TO.N,*%
X93400000Y-205800000D02*
X94000000Y-205200000D01*
X93400000Y-208308109D02*
X93400000Y-205800000D01*
X94335037Y-214900000D02*
X100900000Y-214900000D01*
X106399999Y-206400001D02*
X107860000Y-206400001D01*
X105150000Y-207650000D02*
X106399999Y-206400001D01*
X100900000Y-214900000D02*
X105150000Y-210650000D01*
X92218150Y-212783113D02*
X94335037Y-214900000D01*
X88900000Y-217150000D02*
X103110000Y-217150000D01*
X87400000Y-215650000D02*
X88900000Y-217150000D01*
X88803955Y-212076006D02*
X87400000Y-213479961D01*
X87400000Y-213479961D02*
X87400000Y-215650000D01*
X103110000Y-217150000D02*
X107860000Y-212400000D01*
X95800000Y-199500000D02*
X95800000Y-200130212D01*
X114100000Y-199000000D02*
X114100000Y-207700000D01*
X72933400Y-184098306D02*
X72933400Y-189233400D01*
X84899000Y-199100000D02*
X87389743Y-201590743D01*
X84600000Y-199100000D02*
X84899000Y-199100000D01*
X72933400Y-189233400D02*
X80771288Y-197071288D01*
X88128509Y-199501084D02*
X88128509Y-198228509D01*
X88803955Y-200176530D02*
X88128509Y-199501084D01*
X90933399Y-188866601D02*
X90933399Y-184098306D01*
X89400000Y-190400000D02*
X90933399Y-188866601D01*
X88128509Y-198228509D02*
X87700000Y-197800000D01*
X82933400Y-189933400D02*
X82933400Y-184098306D01*
X91000000Y-207051536D02*
X91000000Y-205800000D01*
X92726870Y-204073130D02*
X92726870Y-203218283D01*
X85400000Y-191000000D02*
X84000000Y-191000000D01*
X84000000Y-191000000D02*
X82933400Y-189933400D01*
X87389743Y-210661793D02*
X91000000Y-207051536D01*
X91000000Y-205800000D02*
X92726870Y-204073130D01*
X80700000Y-195500000D02*
X77958698Y-192758698D01*
X87312489Y-204387511D02*
X85943867Y-204387511D01*
X77958698Y-192758698D02*
X77958698Y-182573006D01*
X90600000Y-201100000D02*
X87312489Y-204387511D01*
X89500000Y-197700000D02*
X90600000Y-198800000D01*
X85943867Y-204387511D02*
X85268421Y-203712065D01*
X85300000Y-195500000D02*
X80700000Y-195500000D01*
X77958698Y-182573006D02*
X78933398Y-181598306D01*
X90600000Y-198800000D02*
X90600000Y-201100000D01*
X96782682Y-202683064D02*
X96107236Y-203358510D01*
X98840072Y-201200000D02*
X97357008Y-202683064D01*
X97357008Y-202683064D02*
X96782682Y-202683064D01*
X101400000Y-199251600D02*
X98799936Y-199251600D01*
X98799936Y-199251600D02*
X95400131Y-202651405D01*
X90000000Y-209600000D02*
X89158641Y-209600000D01*
X83908100Y-182623605D02*
X84933399Y-181598306D01*
X90486519Y-209113481D02*
X90000000Y-209600000D01*
X83908100Y-188908100D02*
X83908100Y-182623605D01*
X89158641Y-209600000D02*
X87743295Y-211015346D01*
X85400000Y-189800000D02*
X84800000Y-189800000D01*
X84800000Y-189800000D02*
X83908100Y-188908100D01*
X101071502Y-198600000D02*
X101069902Y-198601600D01*
X104200000Y-197600000D02*
X103200000Y-198600000D01*
X101069902Y-198601600D02*
X98742827Y-198601600D01*
X98742827Y-198601600D02*
X95046577Y-202297850D01*
X103200000Y-198600000D02*
X101071502Y-198600000D01*
D59*
X85150000Y-223650000D02*
X89250000Y-223650000D01*
X85150000Y-223650000D02*
X85150000Y-222299998D01*
X89250000Y-223650000D02*
X89400000Y-223800000D01*
X85150000Y-222299998D02*
X83800000Y-220949998D01*
X86149999Y-219599998D02*
X86150000Y-219599999D01*
X81495000Y-219599998D02*
X83645000Y-219599998D01*
X83800000Y-220949998D02*
X83800000Y-219599998D01*
X83800000Y-219599998D02*
X86149999Y-219599998D01*
D58*
X94400000Y-208200000D02*
X94800000Y-208200000D01*
X95046577Y-209954686D02*
X93400000Y-208308109D01*
X94000000Y-205200000D02*
X94200000Y-205200000D01*
X80819000Y-215281000D02*
X79900001Y-215281000D01*
X82822001Y-214356000D02*
X82822001Y-212401106D01*
X83416002Y-211100000D02*
X85621976Y-208894026D01*
X80449999Y-211100000D02*
X83416002Y-211100000D01*
X78450001Y-213149999D02*
X78450001Y-213431000D01*
X80149999Y-210800000D02*
X80149999Y-211450001D01*
X80149999Y-211450001D02*
X78450001Y-213149999D01*
X80149999Y-210800000D02*
X80449999Y-211100000D01*
D60*
X59409440Y-228749999D02*
X64250001Y-228749999D01*
X66500000Y-226500000D02*
X66500000Y-224450000D01*
X64250001Y-228749999D02*
X66500000Y-226500000D01*
X66299997Y-219800000D02*
X66299997Y-224249997D01*
D61*
X66299997Y-224249997D02*
X66500000Y-224450000D01*
D62*
X56800000Y-224160000D02*
X56800000Y-223000000D01*
X55200000Y-228200000D02*
X56800000Y-226600000D01*
X53924441Y-220800000D02*
X56899998Y-220800000D01*
X56800000Y-223000000D02*
X57949999Y-221850001D01*
X57949999Y-221850001D02*
X59409440Y-221850001D01*
X56800000Y-224160000D02*
X54825000Y-224160000D01*
X56800000Y-226600000D02*
X56800000Y-224160000D01*
X53924441Y-228200000D02*
X55200000Y-228200000D01*
X56899998Y-220800000D02*
X57949999Y-221850001D01*
X59409440Y-223749999D02*
X59409440Y-226850001D01*
D63*
X78450001Y-215107810D02*
X79900001Y-213657810D01*
X78450001Y-215281000D02*
X78450001Y-215107810D01*
X79900001Y-213657810D02*
X79900001Y-213431000D01*
D58*
X71700000Y-189219000D02*
X66763000Y-184282000D01*
X66763000Y-184282000D02*
X59397000Y-184282000D01*
X71700000Y-191700000D02*
X71700000Y-189219000D01*
X59397000Y-184282000D02*
X44277002Y-184282000D01*
X59397000Y-184282000D02*
X59266314Y-184282000D01*
X59266314Y-184282000D02*
X57734315Y-182750001D01*
X75300000Y-195300000D02*
X71700000Y-191700000D01*
X75300000Y-197000000D02*
X75300000Y-195300000D01*
D64*
X54945002Y-174884000D02*
X54945002Y-179960688D01*
D58*
X44277002Y-184282000D02*
X44157000Y-184402002D01*
D64*
X54945002Y-179960688D02*
X57734315Y-182750001D01*
D58*
X80208813Y-208508813D02*
X76500000Y-204800000D01*
X84561314Y-207833364D02*
X83885865Y-208508813D01*
X83885865Y-208508813D02*
X80208813Y-208508813D01*
X44237002Y-186822000D02*
X44157000Y-186902002D01*
X67525000Y-186822000D02*
X60921000Y-186822000D01*
X74400000Y-195700000D02*
X70700000Y-192000000D01*
X84189774Y-208912013D02*
X79012013Y-208912013D01*
X70700000Y-189997000D02*
X67525000Y-186822000D01*
X74400000Y-197100000D02*
X74400000Y-195700000D01*
X84914868Y-208186919D02*
X84189774Y-208912013D01*
X79012013Y-208912013D02*
X75700000Y-205600000D01*
X60921000Y-186822000D02*
X44237002Y-186822000D01*
X70700000Y-192000000D02*
X70700000Y-189997000D01*
X84493679Y-209315213D02*
X77715213Y-209315213D01*
X77715213Y-209315213D02*
X74700000Y-206300000D01*
X63715000Y-189402000D02*
X44157000Y-189402000D01*
X68581000Y-189402000D02*
X63715000Y-189402000D01*
X69600000Y-192300000D02*
X69600000Y-190421000D01*
X85268421Y-208540471D02*
X84493679Y-209315213D01*
X69600000Y-190421000D02*
X68581000Y-189402000D01*
X73400000Y-196100000D02*
X69600000Y-192300000D01*
X73400000Y-197300000D02*
X73400000Y-196100000D01*
X105150000Y-210650000D02*
X105150000Y-207650000D01*
X99200000Y-196200000D02*
X111300000Y-196200000D01*
X111399999Y-210400001D02*
X110400000Y-210400001D01*
X114100000Y-207700000D02*
X111399999Y-210400001D01*
X95800000Y-200130212D02*
X94339469Y-201590743D01*
X111300000Y-196200000D02*
X114100000Y-199000000D01*
X97477695Y-197822305D02*
X95800000Y-199500000D01*
X104150000Y-210400000D02*
X104150000Y-206650000D01*
X104150000Y-206650000D02*
X106400000Y-204400000D01*
X100650000Y-213900000D02*
X104150000Y-210400000D01*
X106400000Y-204400000D02*
X107860000Y-204400000D01*
X95456356Y-213900000D02*
X100650000Y-213900000D01*
X93278809Y-211722453D02*
X95456356Y-213900000D01*
X102000000Y-201300000D02*
X101500000Y-201300000D01*
X98287070Y-203300000D02*
X97167898Y-204419172D01*
X99500000Y-203300000D02*
X98287070Y-203300000D01*
X101500000Y-201300000D02*
X99500000Y-203300000D01*
X112900000Y-206800000D02*
X111300000Y-208400000D01*
X97300000Y-196900000D02*
X110700000Y-196900000D01*
X111300000Y-208400000D02*
X110400000Y-208400000D01*
X110700000Y-196900000D02*
X112900000Y-199100000D01*
X95100000Y-199100000D02*
X97300000Y-196900000D01*
X112900000Y-199100000D02*
X112900000Y-206800000D01*
X93985917Y-201237190D02*
X95100000Y-200123107D01*
X95100000Y-200123107D02*
X95100000Y-199100000D01*
X106400000Y-208400000D02*
X105900000Y-208900000D01*
X88650000Y-213644175D02*
X89511062Y-212783113D01*
X107860000Y-208400000D02*
X106400000Y-208400000D01*
X88650000Y-214400000D02*
X88650000Y-213644175D01*
X89900000Y-215650000D02*
X88650000Y-214400000D01*
X105900000Y-211150000D02*
X101400000Y-215650000D01*
X101400000Y-215650000D02*
X89900000Y-215650000D01*
X105900000Y-208900000D02*
X105900000Y-211150000D01*
X100700000Y-203400000D02*
X100200000Y-203900000D01*
X98394175Y-203900000D02*
X97521451Y-204772724D01*
X100200000Y-203900000D02*
X98394175Y-203900000D01*
X89157510Y-212429560D02*
X87980330Y-213606740D01*
X101860001Y-216400000D02*
X107860000Y-210400001D01*
X87980330Y-214980330D02*
X89400000Y-216400000D01*
X89400000Y-216400000D02*
X101860001Y-216400000D01*
X87980330Y-213606740D02*
X87980330Y-214980330D01*
X100700000Y-208500000D02*
X100700000Y-207200000D01*
X97929025Y-209301600D02*
X99898400Y-209301600D01*
X100400000Y-208800000D02*
X100700000Y-208500000D01*
X99898400Y-209301600D02*
X100400000Y-208800000D01*
X96814344Y-208186919D02*
X97929025Y-209301600D01*
X93632364Y-211368898D02*
X95413466Y-213150000D01*
X106399998Y-202400002D02*
X107860000Y-202400002D01*
X95413466Y-213150000D02*
X100150000Y-213150000D01*
X100150000Y-213150000D02*
X103400000Y-209900000D01*
X103400000Y-209900000D02*
X103400000Y-205400000D01*
X103400000Y-205400000D02*
X106399998Y-202400002D01*
X102650000Y-209400000D02*
X102650000Y-204150000D01*
X99650000Y-212400000D02*
X102650000Y-209400000D01*
X93985917Y-211015346D02*
X95370571Y-212400000D01*
X102650000Y-204150000D02*
X106400000Y-200400000D01*
X95370571Y-212400000D02*
X99650000Y-212400000D01*
X91725000Y-210700000D02*
X91725000Y-211582858D01*
X87013400Y-205548400D02*
X85690542Y-205548400D01*
D63*
X94400000Y-213900000D02*
X94400000Y-213550749D01*
D58*
X86067000Y-206380000D02*
X85815037Y-206380000D01*
D63*
X63067429Y-206413750D02*
X63067429Y-206690000D01*
X62791179Y-205846223D02*
G75*
G02*
X63067477Y-206122473I21J-276277D01*
G01*
X63343679Y-207533777D02*
X63441179Y-207533777D01*
X63717429Y-206413750D02*
X63717429Y-206122473D01*
X62141179Y-206690000D02*
G75*
G03*
X62417500Y-206413750I21J276300D01*
G01*
X64643679Y-206690000D02*
X64741179Y-206690000D01*
X64367429Y-206122473D02*
X64367429Y-206413750D01*
X63993679Y-205846223D02*
X64091179Y-205846223D01*
X63717429Y-207257527D02*
X63717429Y-206690000D01*
X63441179Y-207533777D02*
G75*
G03*
X63717477Y-207257527I21J276277D01*
G01*
X64741179Y-206690000D02*
X65900000Y-206690000D01*
X62417429Y-206122473D02*
G75*
G02*
X62693679Y-205846229I276271J-27D01*
G01*
X63717429Y-206690000D02*
X63717429Y-206413750D01*
X63717429Y-206122473D02*
G75*
G02*
X63993679Y-205846229I276271J-27D01*
G01*
X62693679Y-205846223D02*
X62791179Y-205846223D01*
X64367429Y-206413750D02*
G75*
G03*
X64643679Y-206689971I276271J50D01*
G01*
X63067429Y-206690000D02*
X63067429Y-207257527D01*
X62417429Y-206413750D02*
X62417429Y-206122473D01*
X63067429Y-206122473D02*
X63067429Y-206413750D01*
X63067429Y-207257527D02*
G75*
G03*
X63343679Y-207533771I276271J27D01*
G01*
X64091179Y-205846223D02*
G75*
G02*
X64367477Y-206122473I21J-276277D01*
G01*
X57963534Y-206690000D02*
X58408106Y-206690000D01*
D59*
X63715000Y-221239000D02*
X64399999Y-220554001D01*
D58*
X91725000Y-211582858D02*
X92571702Y-212429560D01*
X85690542Y-205548400D02*
X84561314Y-204419172D01*
D63*
X52583000Y-237324000D02*
X52539000Y-237368000D01*
D58*
X91896256Y-201296256D02*
X91896256Y-200498422D01*
X91896256Y-200498422D02*
X92571702Y-199822976D01*
X90253452Y-210693452D02*
X88772294Y-210693452D01*
X90385000Y-210825000D02*
X90253452Y-210693452D01*
D59*
X71100000Y-222900000D02*
X71200000Y-222800000D01*
D65*
X65063060Y-236499424D02*
X64624424Y-236499424D01*
D59*
X69049000Y-221242000D02*
X69623001Y-220667999D01*
D65*
X72478000Y-212984000D02*
X71699998Y-213762002D01*
D58*
X99148000Y-208031000D02*
X98670187Y-208508813D01*
D65*
X64624424Y-236499424D02*
X63715000Y-235590000D01*
X64773000Y-196940000D02*
X64731000Y-196982000D01*
D58*
X88772294Y-210693452D02*
X88096848Y-211368898D01*
D65*
X71699998Y-213762002D02*
X71699998Y-214762000D01*
D63*
X52583000Y-233713799D02*
X52583000Y-235434200D01*
D59*
X79400000Y-221450001D02*
X78250001Y-221450001D01*
D58*
X87464000Y-205999000D02*
X87013400Y-205548400D01*
X98670187Y-208508813D02*
X97843347Y-208508813D01*
D59*
X71100000Y-224450000D02*
X71100000Y-222900000D01*
D65*
X66400000Y-196940000D02*
X64773000Y-196940000D01*
D59*
X64399999Y-220554001D02*
X64399999Y-219800000D01*
D58*
X97843347Y-208508813D02*
X97167898Y-207833364D01*
D59*
X69623001Y-220667999D02*
X69623001Y-219842000D01*
X78250001Y-221450001D02*
X78200000Y-221400000D01*
D58*
X93600000Y-203000000D02*
X91896256Y-201296256D01*
D63*
X96400000Y-206400000D02*
X96441639Y-206400000D01*
X96441639Y-206400000D02*
X97521451Y-207479812D01*
X94400000Y-213550749D02*
X92925257Y-212076006D01*
D58*
X85815037Y-206380000D02*
X84207761Y-204772724D01*
X106400000Y-200400000D02*
X106400001Y-200400001D01*
X106400001Y-200400001D02*
X107860000Y-200400001D01*
X94339469Y-210661793D02*
X95327676Y-211650000D01*
X101900000Y-208900000D02*
X101900000Y-202900000D01*
X99150000Y-211650000D02*
X101900000Y-208900000D01*
X101900000Y-202900000D02*
X106400000Y-198400000D01*
X95327676Y-211650000D02*
X99150000Y-211650000D01*
X106400000Y-198400000D02*
X107860000Y-198400000D01*
X98179961Y-202700000D02*
X99100000Y-202700000D01*
X102400000Y-199400000D02*
X104100000Y-199400000D01*
X99100000Y-202700000D02*
X102400000Y-199400000D01*
X96814344Y-204065617D02*
X98179961Y-202700000D01*
X115300000Y-208700000D02*
X111600000Y-212400000D01*
X115300000Y-198600000D02*
X115300000Y-208700000D01*
X98750000Y-197950000D02*
X94755703Y-201944297D01*
X94755703Y-201944297D02*
X94693024Y-201944297D01*
X112100000Y-195400000D02*
X115300000Y-198600000D01*
X101250000Y-195548400D02*
X101398400Y-195400000D01*
X111600000Y-212400000D02*
X110400000Y-212400000D01*
X101398400Y-195400000D02*
X112100000Y-195400000D01*
X83700000Y-199800000D02*
X84891891Y-199800000D01*
X84891891Y-199800000D02*
X87036188Y-201944297D01*
X74100000Y-191700000D02*
X79500000Y-197100000D01*
X96200000Y-210401000D02*
X96200000Y-210998400D01*
X95400131Y-209601131D02*
X96200000Y-210401000D01*
X97200000Y-210693895D02*
X97200000Y-210800000D01*
X95753684Y-209247579D02*
X97200000Y-210693895D01*
X84770571Y-201800000D02*
X82300000Y-201800000D01*
X82300000Y-201800000D02*
X81900000Y-202200000D01*
X76933400Y-192066600D02*
X76933400Y-184098306D01*
X85975528Y-203004957D02*
X84770571Y-201800000D01*
X76900000Y-192100000D02*
X76933400Y-192066600D01*
X81900000Y-202200000D02*
X80500000Y-202200000D01*
X81800000Y-201200000D02*
X84877676Y-201200000D01*
X84877676Y-201200000D02*
X86329081Y-202651405D01*
X92600000Y-205600000D02*
X92600000Y-208215215D01*
X92600000Y-208215215D02*
X94693024Y-210308239D01*
X94000000Y-204200000D02*
X92600000Y-205600000D01*
X96107236Y-208894026D02*
X97361610Y-210148400D01*
X97948400Y-210148400D02*
X98400000Y-210600000D01*
X97361610Y-210148400D02*
X97948400Y-210148400D01*
X85400000Y-192200000D02*
X83400000Y-192200000D01*
X90000000Y-207344427D02*
X87036188Y-210308239D01*
X83400000Y-192200000D02*
X81958700Y-190758700D01*
X90000000Y-205400000D02*
X90000000Y-207344427D01*
X91600000Y-203800000D02*
X90000000Y-205400000D01*
X81958700Y-190758700D02*
X81958700Y-182573006D01*
X81958700Y-182573006D02*
X82933400Y-181598306D01*
X80933399Y-191933399D02*
X82400000Y-193400000D01*
X82400000Y-193400000D02*
X85400000Y-193400000D01*
X89048400Y-207588921D02*
X86682635Y-209954686D01*
X89048400Y-204900000D02*
X89048400Y-207588921D01*
X80933399Y-184098306D02*
X80933399Y-191933399D01*
X90948400Y-203000000D02*
X89048400Y-204900000D01*
X82600000Y-200500000D02*
X84884785Y-200500000D01*
X78200000Y-197100000D02*
X75100000Y-194000000D01*
X84884785Y-200500000D02*
X86682635Y-202297850D01*
X99200000Y-200400000D02*
X98358641Y-200400000D01*
X99600000Y-200000000D02*
X99200000Y-200400000D01*
X98358641Y-200400000D02*
X95753684Y-203004957D01*
X91200000Y-201300000D02*
X87709289Y-204790711D01*
X91189149Y-199874330D02*
X91189149Y-200124184D01*
X85639962Y-204790711D02*
X84914868Y-204065617D01*
X78933398Y-192333398D02*
X78933398Y-184098306D01*
X91200000Y-200135035D02*
X91200000Y-201300000D01*
X91200000Y-198000000D02*
X91200000Y-199863479D01*
X81100000Y-194500000D02*
X78933398Y-192333398D01*
X87709289Y-204790711D02*
X85639962Y-204790711D01*
X90100000Y-196900000D02*
X91200000Y-198000000D01*
X91189149Y-200124184D02*
X91200000Y-200135035D01*
X91200000Y-199863479D02*
X91189149Y-199874330D01*
X85300000Y-194500000D02*
X81100000Y-194500000D01*
X95134975Y-207865025D02*
X95785345Y-207865025D01*
X94800000Y-208200000D02*
X95134975Y-207865025D01*
X95785345Y-207865025D02*
X96460791Y-208540471D01*
D63*
X86150000Y-214022856D02*
X86150000Y-217700001D01*
D65*
X86149999Y-217700000D02*
X86150000Y-217700001D01*
X81495000Y-217700000D02*
X85994999Y-217700000D01*
D63*
X88450403Y-211722453D02*
X86150000Y-214022856D01*
X77190000Y-201610000D02*
X82400000Y-196400000D01*
X93900000Y-197650000D02*
X93900000Y-199201787D01*
X53940500Y-201610000D02*
X77190000Y-201610000D01*
X93900000Y-199201787D02*
X92925257Y-200176530D01*
X53913000Y-201637500D02*
X53940500Y-201610000D01*
X92650000Y-196400000D02*
X93900000Y-197650000D01*
X82600000Y-196200000D02*
X92450000Y-196200000D01*
X82400000Y-196400000D02*
X82600000Y-196200000D01*
X92450000Y-196200000D02*
X92650000Y-196400000D01*
X58408106Y-206690000D02*
X62141179Y-206690000D01*
X88600000Y-197400000D02*
X88600000Y-198558361D01*
X88600000Y-198558361D02*
X89511062Y-199469423D01*
X53913001Y-206717500D02*
X53940501Y-206690000D01*
X83000000Y-196800000D02*
X88000000Y-196800000D01*
X53940501Y-206690000D02*
X57963534Y-206690000D01*
X88000000Y-196800000D02*
X88600000Y-197400000D01*
X65900000Y-206690000D02*
X73110000Y-206690000D01*
X73110000Y-206690000D02*
X83000000Y-196800000D01*
D58*
X86329081Y-209601131D02*
X85653634Y-210276578D01*
D60*
X111340000Y-221620000D02*
X104167001Y-221620000D01*
X96862000Y-225557000D02*
X96862000Y-223595002D01*
D63*
X96354000Y-221620000D02*
X92620000Y-221620000D01*
X92620000Y-221620000D02*
X89600000Y-218600000D01*
D58*
X85653634Y-210276578D02*
X85653634Y-212711634D01*
D61*
X111273999Y-221553999D02*
X111340000Y-221620000D01*
D58*
X86329081Y-209601131D02*
X87300000Y-208630212D01*
D65*
X96856998Y-222060998D02*
X96416000Y-221620000D01*
D58*
X51682400Y-200251600D02*
X51373000Y-200561000D01*
X71800000Y-200251600D02*
X51682400Y-200251600D01*
D60*
X96862000Y-223595002D02*
X96856998Y-223590000D01*
D58*
X96416000Y-221620000D02*
X96354000Y-221620000D01*
D63*
X104034999Y-221620000D02*
X104101000Y-221553999D01*
D65*
X96856998Y-222060998D02*
X96856998Y-223590000D01*
D61*
X104167001Y-221620000D02*
X104101000Y-221553999D01*
D58*
X51373000Y-200561000D02*
X51373000Y-201637500D01*
X85653634Y-212711634D02*
X86000000Y-213058000D01*
X87300000Y-208630212D02*
X87300000Y-208000000D01*
D65*
X96416000Y-221620000D02*
X104034999Y-221620000D01*
D58*
X86196800Y-198671800D02*
X87322109Y-199797109D01*
X87322109Y-200108899D02*
X88096848Y-200883638D01*
X42785000Y-203229999D02*
X42760000Y-203204999D01*
X49450000Y-199600000D02*
X45820001Y-203229999D01*
X45820001Y-203229999D02*
X42785000Y-203229999D01*
X85425000Y-197525000D02*
X86196800Y-198296800D01*
X87322109Y-199797109D02*
X87322109Y-200108899D01*
X76600000Y-199600000D02*
X49450000Y-199600000D01*
X86196800Y-198296800D02*
X86196800Y-198671800D01*
X84775000Y-197525000D02*
X85425000Y-197525000D01*
X42785000Y-200690000D02*
X42760000Y-200665000D01*
X86918909Y-200412804D02*
X87743295Y-201237190D01*
X48750000Y-198800000D02*
X46860000Y-200690000D01*
X83987302Y-197987302D02*
X84228600Y-198228600D01*
X85028600Y-198228600D02*
X86918909Y-200118909D01*
X46860000Y-200690000D02*
X42785000Y-200690000D01*
X82987302Y-197987302D02*
X83987302Y-197987302D01*
X84228600Y-198228600D02*
X85028600Y-198228600D01*
X76000000Y-198800000D02*
X48750000Y-198800000D01*
X86918909Y-200118909D02*
X86918909Y-200412804D01*
X87725309Y-199804989D02*
X87725309Y-199325309D01*
X106200000Y-192600000D02*
X108600000Y-192600000D01*
X86600000Y-198200000D02*
X86600000Y-197600000D01*
X95295201Y-188904799D02*
X103582300Y-188904799D01*
X88450403Y-200530083D02*
X87725309Y-199804989D01*
X103582300Y-188904799D02*
X103582300Y-186217700D01*
X103582300Y-189982300D02*
X106200000Y-192600000D01*
X89300000Y-194900000D02*
X95295201Y-188904799D01*
X103582300Y-188904799D02*
X103582300Y-189982300D01*
X103582300Y-186217700D02*
X104900000Y-184900000D01*
X87725309Y-199325309D02*
X86600000Y-198200000D01*
X104900000Y-184900000D02*
X104900000Y-183400000D01*
D65*
X66400000Y-194400000D02*
X69800000Y-194400000D01*
D58*
X79000000Y-203200000D02*
X81600000Y-203200000D01*
X81600000Y-203200000D02*
X82500000Y-202300000D01*
X71725000Y-196400000D02*
X69800000Y-196400000D01*
X82500000Y-202300000D02*
X84563466Y-202300000D01*
X84563466Y-202300000D02*
X85621976Y-203358510D01*
X72412500Y-197087500D02*
X71725000Y-196400000D01*
D65*
X67063060Y-236499424D02*
X70475559Y-236499424D01*
D58*
X82822001Y-214356000D02*
X81744000Y-214356000D01*
X82822001Y-212401106D02*
X85975528Y-209247579D01*
X81744000Y-214356000D02*
X80819000Y-215281000D01*
X319633600Y-85424000D02*
X319633600Y-87710000D01*
X245719600Y-87710000D02*
X245719600Y-84234000D01*
X247243600Y-89234000D02*
X245719600Y-87710000D01*
X293703307Y-94267000D02*
X293703307Y-91243707D01*
X334619600Y-86694000D02*
X334619600Y-84281000D01*
X291693600Y-89234000D02*
X247243600Y-89234000D01*
X293703307Y-91243707D02*
X291693600Y-89234000D01*
X293703307Y-94267000D02*
X295296600Y-94267000D01*
X318109600Y-83900000D02*
X319633600Y-85424000D01*
X321919600Y-89996000D02*
X331317600Y-89996000D01*
X331317600Y-89996000D02*
X334619600Y-86694000D01*
X319633600Y-87710000D02*
X321919600Y-89996000D01*
X297027600Y-83900000D02*
X318109600Y-83900000D01*
X295757600Y-85170000D02*
X297027600Y-83900000D01*
X295296600Y-94267000D02*
X295757600Y-93806000D01*
X320903600Y-50626000D02*
X330809600Y-50626000D01*
X330809600Y-50626000D02*
X330809600Y-44316000D01*
X330822648Y-72320269D02*
X330809600Y-72333317D01*
X330809600Y-72333317D02*
X330809600Y-74716000D01*
X319755602Y-48340000D02*
X319755602Y-49478002D01*
X330809600Y-65800701D02*
X330809600Y-50626000D01*
X319755602Y-49478002D02*
X320903600Y-50626000D01*
X241909600Y-74716000D02*
X241909600Y-70362669D01*
X241909600Y-60938014D02*
X241909600Y-53420000D01*
X229463600Y-54567998D02*
X240761602Y-54567998D01*
X240761602Y-54567998D02*
X241909600Y-53420000D01*
X241909600Y-70362669D02*
X241900236Y-70353305D01*
X241919048Y-60947462D02*
X241909600Y-60938014D01*
X241909600Y-53420000D02*
X241909600Y-44316000D01*
X153009600Y-46816000D02*
X153009600Y-46066287D01*
X153009600Y-46066287D02*
X153009600Y-44316000D01*
X153009600Y-49102000D02*
X153009600Y-46816000D01*
X152943601Y-46881999D02*
X141579600Y-46881999D01*
X152943601Y-46881999D02*
X153009600Y-46816000D01*
X153009600Y-52785000D02*
X153009600Y-74716000D01*
X64109600Y-47324000D02*
X65633600Y-48848000D01*
X65633600Y-48848000D02*
X86207600Y-48848000D01*
X64109600Y-44316000D02*
X64109600Y-47324000D01*
X64109600Y-74716000D02*
X64109600Y-44316000D01*
X283046600Y-115904000D02*
X291439600Y-115904000D01*
X281609600Y-115661000D02*
X282803600Y-115661000D01*
X293916100Y-112538500D02*
X301831307Y-104623293D01*
X301831307Y-104623293D02*
X301831307Y-96092000D01*
X291439600Y-115904000D02*
X293916100Y-113427500D01*
X293916100Y-113427500D02*
X293916100Y-112538500D01*
X282803600Y-115661000D02*
X283046600Y-115904000D01*
X281511307Y-98609707D02*
X281511307Y-96092000D01*
X280009600Y-100156000D02*
X281533600Y-98632000D01*
X281533600Y-98632000D02*
X281511307Y-98609707D01*
X281609600Y-116311000D02*
X280824601Y-116311000D01*
X280009600Y-115495999D02*
X280009600Y-100156000D01*
X280824601Y-116311000D02*
X280009600Y-115495999D01*
X283978240Y-116548360D02*
X292319240Y-116548360D01*
X281609600Y-116961000D02*
X283565600Y-116961000D01*
X283565600Y-116961000D02*
X283978240Y-116548360D01*
X305895307Y-102972293D02*
X305895307Y-96092000D01*
X292319240Y-116548360D02*
X305895307Y-102972293D01*
X284835600Y-117588000D02*
X284812600Y-117611000D01*
X285597600Y-114888000D02*
X285597600Y-114380000D01*
X284812600Y-117611000D02*
X281609600Y-117611000D01*
X285575307Y-114357707D02*
X285575307Y-96092000D01*
X285597600Y-114380000D02*
X285575307Y-114357707D01*
X281609600Y-118261000D02*
X280824601Y-118261000D01*
X277447307Y-114883706D02*
X277447307Y-96092000D01*
X280824601Y-118261000D02*
X277447307Y-114883706D01*
X281609600Y-118911000D02*
X288592600Y-118911000D01*
X288592600Y-118911000D02*
X289915600Y-117588000D01*
X293703307Y-99752707D02*
X293703307Y-96092000D01*
X293725600Y-99775000D02*
X293703307Y-99752707D01*
X290550600Y-114380000D02*
X290550600Y-102950000D01*
X290550600Y-102950000D02*
X293725600Y-99775000D01*
X286359600Y-119968000D02*
X285343600Y-119968000D01*
X288264600Y-114380000D02*
X288264600Y-100664000D01*
X289639307Y-99289293D02*
X289639307Y-96092000D01*
X288264600Y-100664000D02*
X289639307Y-99289293D01*
X284936600Y-119561000D02*
X281609600Y-119561000D01*
X285343600Y-119968000D02*
X284936600Y-119561000D01*
X197556487Y-43006000D02*
X197556487Y-41832887D01*
X181965600Y-42752000D02*
X181965600Y-46054000D01*
X197459600Y-41736000D02*
X196951600Y-41228000D01*
X183489600Y-41228000D02*
X181965600Y-42752000D01*
X181965600Y-60532000D02*
X199110600Y-77677000D01*
X199110600Y-77677000D02*
X203809600Y-77677000D01*
X316204600Y-123016000D02*
X335127600Y-123016000D01*
X337154600Y-128096000D02*
X342597100Y-128096000D01*
X335127600Y-123016000D02*
X337154600Y-125043000D01*
X197556487Y-41832887D02*
X197459600Y-41736000D01*
X203809600Y-77677000D02*
X310235600Y-77677000D01*
X337154600Y-125043000D02*
X337154600Y-128096000D01*
X313156600Y-119968000D02*
X316204600Y-123016000D01*
D64*
X203809600Y-74756000D02*
X203809600Y-77677000D01*
D58*
X196951600Y-41228000D02*
X183489600Y-41228000D01*
X177647600Y-79836000D02*
X177647600Y-79622658D01*
X177647600Y-79622658D02*
X181169451Y-79622658D01*
X201556486Y-39990886D02*
X200253600Y-38688000D01*
X200253600Y-38688000D02*
X180441600Y-38688000D01*
X177647600Y-79836000D02*
X177647600Y-110316000D01*
X180441600Y-38688000D02*
X177647600Y-41482000D01*
X164797100Y-129723500D02*
X164797100Y-128096000D01*
X177647600Y-60532000D02*
X177647600Y-79836000D01*
X177647600Y-41482000D02*
X177647600Y-46054000D01*
X159354600Y-128096000D02*
X164797100Y-128096000D01*
X165201600Y-130128000D02*
X164797100Y-129723500D01*
X201556486Y-43006000D02*
X201556486Y-39990886D01*
X198784014Y-79382414D02*
X205929401Y-79382414D01*
X197078600Y-77677000D02*
X197078600Y-78994000D01*
X197078600Y-78994000D02*
X196236600Y-79836000D01*
X179933600Y-60532000D02*
X197078600Y-77677000D01*
X205929401Y-79382414D02*
X225686987Y-99140000D01*
X197078600Y-77677000D02*
X198784014Y-79382414D01*
X196236600Y-79836000D02*
X192379600Y-79836000D01*
X199556488Y-40784888D02*
X198729600Y-39958000D01*
X248254600Y-128096000D02*
X253062100Y-128096000D01*
X182219600Y-39958000D02*
X179933600Y-42244000D01*
X179933600Y-42244000D02*
X179933600Y-46054000D01*
X198729600Y-39958000D02*
X182219600Y-39958000D01*
X225686987Y-99140000D02*
X236448600Y-99140000D01*
X199556488Y-43006000D02*
X199556488Y-40784888D01*
X75285600Y-126064000D02*
X75262100Y-126087500D01*
X169519600Y-76788000D02*
X172359244Y-79627644D01*
X169519600Y-76788000D02*
X101193600Y-76788000D01*
X75262100Y-126087500D02*
X75262100Y-128096000D01*
X172359244Y-79627644D02*
X173607901Y-79627644D01*
X79857600Y-120984000D02*
X75285600Y-125556000D01*
X174853600Y-72978000D02*
X171043600Y-76788000D01*
X86969600Y-120984000D02*
X79857600Y-120984000D01*
X174853600Y-60532000D02*
X174853600Y-72978000D01*
X178917600Y-37418000D02*
X174853600Y-41482000D01*
X203556487Y-43006000D02*
X203556487Y-39450887D01*
X201523600Y-37418000D02*
X178917600Y-37418000D01*
X93573600Y-114380000D02*
X86969600Y-120984000D01*
X101193600Y-76788000D02*
X93573600Y-84408000D01*
X174853600Y-41482000D02*
X174853600Y-46054000D01*
X70454600Y-128096000D02*
X75262100Y-128096000D01*
X75285600Y-125556000D02*
X75285600Y-126064000D01*
X93573600Y-93806000D02*
X93573600Y-108538000D01*
X171043600Y-76788000D02*
X169519600Y-76788000D01*
X203556487Y-39450887D02*
X201523600Y-37418000D01*
X292077240Y-117806360D02*
X288899600Y-120984000D01*
X281612600Y-120214000D02*
X281609600Y-120211000D01*
X292075743Y-112219857D02*
X297767307Y-106528293D01*
X288899600Y-120984000D02*
X285351600Y-120984000D01*
X297767307Y-106528293D02*
X297767307Y-96092000D01*
X285351600Y-120984000D02*
X284581600Y-120214000D01*
X292077240Y-117564334D02*
X292077240Y-117806360D01*
X292075743Y-113492143D02*
X292075743Y-112219857D01*
X284581600Y-120214000D02*
X281612600Y-120214000D01*
X124265599Y-120222000D02*
X125069600Y-120222000D01*
X123799600Y-97235000D02*
X123799600Y-95838000D01*
X124254599Y-120211000D02*
X124265599Y-120222000D01*
X125069600Y-120222000D02*
X125958600Y-119333000D01*
X125958600Y-99394000D02*
X123799600Y-97235000D01*
X123469600Y-120211000D02*
X124254599Y-120211000D01*
X125958600Y-119333000D02*
X125958600Y-99394000D01*
X103479601Y-105871001D02*
X103479601Y-95941500D01*
X117169600Y-119561000D02*
X103479601Y-105871001D01*
X123469600Y-119561000D02*
X117169600Y-119561000D01*
X126720600Y-117174000D02*
X127355600Y-116539000D01*
X127863600Y-95734501D02*
X127863599Y-95734500D01*
X124856600Y-118911000D02*
X125196600Y-118571000D01*
X123469600Y-118911000D02*
X124856600Y-118911000D01*
X127355600Y-116539000D02*
X127355600Y-99394000D01*
X127863600Y-98886000D02*
X127863600Y-95734501D01*
X127355600Y-99394000D02*
X127863600Y-98886000D01*
X121950600Y-118261000D02*
X123469600Y-118261000D01*
X117640100Y-116602500D02*
X107543601Y-106506001D01*
X107543601Y-106506001D02*
X107543601Y-95941500D01*
X121640600Y-118571000D02*
X121950600Y-118261000D01*
X119608600Y-118571000D02*
X121640600Y-118571000D01*
X119276548Y-117611000D02*
X119263396Y-117597848D01*
X102717600Y-103712000D02*
X99415601Y-100410001D01*
X123469600Y-117611000D02*
X119276548Y-117611000D01*
X119263396Y-117597848D02*
X116603448Y-117597848D01*
X99415601Y-100410001D02*
X99415601Y-95941500D01*
X116603448Y-117597848D02*
X104495600Y-105490000D01*
X115671600Y-112221000D02*
X115671600Y-112348000D01*
X115671600Y-112348000D02*
X120284600Y-116961000D01*
X120284600Y-116961000D02*
X123469600Y-116961000D01*
X115671600Y-110570000D02*
X115671600Y-95838000D01*
X111607600Y-108538000D02*
X111607600Y-95838000D01*
X121158600Y-116311000D02*
X116179600Y-111332000D01*
X116179600Y-111332000D02*
X114401600Y-111332000D01*
X114401600Y-111332000D02*
X111607600Y-108538000D01*
X123469600Y-116311000D02*
X121158600Y-116311000D01*
X119735600Y-95838000D02*
X119735600Y-113491000D01*
X121905600Y-115661000D02*
X123469600Y-115661000D01*
X119735600Y-113491000D02*
X121905600Y-115661000D01*
X337921600Y-92536000D02*
X340334600Y-92536000D01*
X307234600Y-94267000D02*
X305895307Y-94267000D01*
X301091600Y-86440000D02*
X305895307Y-91243707D01*
X335635600Y-92790000D02*
X308711600Y-92790000D01*
X305895307Y-91243707D02*
X305895307Y-94267000D01*
X308711600Y-92790000D02*
X307234600Y-94267000D01*
X335827244Y-92598356D02*
X335635600Y-92790000D01*
X340334600Y-92536000D02*
X342239600Y-94441000D01*
X253847600Y-86440000D02*
X301091600Y-86440000D01*
X159740600Y-92456000D02*
X162153600Y-92456000D01*
X122910600Y-86360000D02*
X127714307Y-91163707D01*
X157454600Y-92710000D02*
X130530600Y-92710000D01*
X157646244Y-92518356D02*
X157454600Y-92710000D01*
X129053600Y-94187000D02*
X127714307Y-94187000D01*
X130530600Y-92710000D02*
X129053600Y-94187000D01*
X127714307Y-91163707D02*
X127714307Y-94187000D01*
X75666600Y-86360000D02*
X122910600Y-86360000D01*
X162153600Y-92456000D02*
X164058600Y-94361000D01*
X205556486Y-43006000D02*
X208326600Y-40235886D01*
X232765600Y-46562000D02*
X238607600Y-46562000D01*
X220597486Y-40235886D02*
X226923600Y-46562000D01*
X238607600Y-46562000D02*
X240385600Y-48340000D01*
X243687600Y-48340000D02*
X311863100Y-48340000D01*
X208326600Y-40235886D02*
X220597486Y-40235886D01*
X211429600Y-41228000D02*
X208381600Y-41228000D01*
X212953600Y-53166000D02*
X212953600Y-53420000D01*
X212953600Y-53420000D02*
X219557600Y-60024000D01*
X212953600Y-48594000D02*
X212953600Y-42752000D01*
X219557600Y-60024000D02*
X227638600Y-60024000D01*
X208381600Y-41228000D02*
X207556487Y-42053113D01*
X212953600Y-42752000D02*
X211429600Y-41228000D01*
X207556487Y-42053113D02*
X207556487Y-43006000D01*
X143392294Y-53296779D02*
X150338821Y-53296779D01*
X176885600Y-36402000D02*
X167487600Y-45800000D01*
X206349600Y-36402000D02*
X176885600Y-36402000D01*
X209143600Y-39196000D02*
X206349600Y-36402000D01*
X150338821Y-53296779D02*
X156819600Y-46816000D01*
X195556486Y-46687114D02*
X195556486Y-45546000D01*
X155295600Y-41228000D02*
X150215600Y-41228000D01*
X163931600Y-41228000D02*
X164439600Y-41228000D01*
X164439600Y-41228000D02*
X166471600Y-43260000D01*
X150215600Y-41228000D02*
X147731782Y-43711818D01*
X166471600Y-46308000D02*
X167487600Y-47324000D01*
X194919600Y-47324000D02*
X195556486Y-46687114D01*
X166471600Y-43260000D02*
X166471600Y-46308000D01*
X147731782Y-43711818D02*
X88011689Y-43711818D01*
X167487600Y-47324000D02*
X194919600Y-47324000D01*
X339699600Y-87202000D02*
X339699600Y-84281000D01*
X304647600Y-85932000D02*
X303631600Y-86948000D01*
X319887600Y-92028000D02*
X316585600Y-88726000D01*
X316585600Y-86948000D02*
X315569600Y-85932000D01*
X301831307Y-91243707D02*
X298043600Y-87456000D01*
X315569600Y-85932000D02*
X304647600Y-85932000D01*
X334873600Y-92028000D02*
X319887600Y-92028000D01*
X301831307Y-94267000D02*
X303170600Y-94267000D01*
X303170600Y-94267000D02*
X303631600Y-93806000D01*
X316585600Y-88726000D02*
X316585600Y-86948000D01*
X336397600Y-90504000D02*
X339699600Y-87202000D01*
X298043600Y-87456000D02*
X252069600Y-87456000D01*
X250799600Y-86186000D02*
X252069600Y-87456000D01*
X301831307Y-94267000D02*
X301831307Y-91243707D01*
X250799600Y-84234000D02*
X250799600Y-86186000D01*
X282850600Y-94267000D02*
X283311600Y-93806000D01*
X281511307Y-94267000D02*
X282850600Y-94267000D01*
X329539600Y-85932000D02*
X329539600Y-84281000D01*
X283311600Y-84916000D02*
X283311600Y-82630000D01*
X321411600Y-80344000D02*
X323951600Y-82884000D01*
X329031600Y-86440000D02*
X329539600Y-85932000D01*
X240639600Y-84234000D02*
X240639600Y-89869000D01*
X285597600Y-80344000D02*
X321411600Y-80344000D01*
X281511307Y-93529707D02*
X281511307Y-94267000D01*
X324967600Y-86440000D02*
X329031600Y-86440000D01*
X323951600Y-85424000D02*
X324967600Y-86440000D01*
X279943970Y-91962370D02*
X281511307Y-93529707D01*
X283311600Y-82630000D02*
X285597600Y-80344000D01*
X242732970Y-91962370D02*
X279943970Y-91962370D01*
X323951600Y-82884000D02*
X323951600Y-85424000D01*
X240639600Y-89869000D02*
X242732970Y-91962370D01*
X285575307Y-94267000D02*
X286914600Y-94267000D01*
X285575307Y-92558293D02*
X285575307Y-94267000D01*
X321919600Y-83646000D02*
X321919600Y-86186000D01*
X289915600Y-81614000D02*
X319887600Y-81614000D01*
X330809600Y-87710000D02*
X332079600Y-86440000D01*
X284215067Y-91153467D02*
X285597600Y-92536000D01*
X285597600Y-92536000D02*
X285575307Y-92558293D01*
X287375600Y-84916000D02*
X287375600Y-84154000D01*
X243179600Y-89996000D02*
X244337067Y-91153467D01*
X244337067Y-91153467D02*
X284215067Y-91153467D01*
X321919600Y-86186000D02*
X323443600Y-87710000D01*
X286914600Y-94267000D02*
X287375600Y-93806000D01*
X323443600Y-87710000D02*
X330809600Y-87710000D01*
X243179600Y-84234000D02*
X243179600Y-89996000D01*
X332079600Y-86440000D02*
X332079600Y-84281000D01*
X287375600Y-84154000D02*
X289915600Y-81614000D01*
X319887600Y-81614000D02*
X321919600Y-83646000D01*
X277447307Y-93783707D02*
X277447307Y-94267000D01*
X276491307Y-92827707D02*
X277447307Y-93783707D01*
X278786600Y-94267000D02*
X279247600Y-93806000D01*
X324459600Y-79074000D02*
X326999600Y-81614000D01*
X238099600Y-90250000D02*
X240677307Y-92827707D01*
X279247600Y-82630000D02*
X282803600Y-79074000D01*
X282803600Y-79074000D02*
X324459600Y-79074000D01*
X279247600Y-84916000D02*
X279247600Y-82630000D01*
X326999600Y-81614000D02*
X326999600Y-84281000D01*
X277447307Y-94267000D02*
X278786600Y-94267000D01*
X238099600Y-84234000D02*
X238099600Y-90250000D01*
X240677307Y-92827707D02*
X276491307Y-92827707D01*
X320649600Y-84662000D02*
X318871600Y-82884000D01*
X291232600Y-94267000D02*
X291693600Y-93806000D01*
X289639307Y-94267000D02*
X291232600Y-94267000D01*
X293725600Y-82884000D02*
X291693600Y-84916000D01*
X318871600Y-82884000D02*
X293725600Y-82884000D01*
X288137600Y-90250000D02*
X289661600Y-91774000D01*
X320649600Y-86948000D02*
X320649600Y-84662000D01*
X245338600Y-90123000D02*
X245465600Y-90250000D01*
X331063600Y-88980000D02*
X322681600Y-88980000D01*
X243179600Y-94394000D02*
X243179600Y-94060000D01*
X289661600Y-91774000D02*
X289639307Y-91796293D01*
X245465600Y-90250000D02*
X288137600Y-90250000D01*
X322681600Y-88980000D02*
X320649600Y-86948000D01*
X289639307Y-91796293D02*
X289639307Y-94267000D01*
X300583600Y-84916000D02*
X317093600Y-84916000D01*
X294995600Y-88218000D02*
X297767307Y-90989707D01*
X249021600Y-88218000D02*
X294995600Y-88218000D01*
X317093600Y-84916000D02*
X318109600Y-85932000D01*
X299821600Y-85678000D02*
X300583600Y-84916000D01*
X318109600Y-87964000D02*
X320903600Y-90758000D01*
X320903600Y-90758000D02*
X335127600Y-90758000D01*
X297767307Y-94267000D02*
X299360600Y-94267000D01*
X299360600Y-94267000D02*
X299821600Y-93806000D01*
X335127600Y-90758000D02*
X337159600Y-92790000D01*
X297767307Y-90989707D02*
X297767307Y-94267000D01*
X318109600Y-85932000D02*
X318109600Y-87964000D01*
X337159600Y-92790000D02*
X337159600Y-94441000D01*
X72974200Y-86461600D02*
X73888600Y-87376000D01*
X137388600Y-85852000D02*
X126466600Y-85852000D01*
X123650307Y-91163707D02*
X123650307Y-94187000D01*
X158216600Y-90424000D02*
X161518600Y-87122000D01*
X119862600Y-87376000D02*
X123650307Y-91163707D01*
X138404600Y-86868000D02*
X137388600Y-85852000D01*
X126466600Y-85852000D02*
X125450600Y-86868000D01*
X156692600Y-91948000D02*
X141706600Y-91948000D01*
X123650307Y-94187000D02*
X124989600Y-94187000D01*
X72974200Y-84257500D02*
X72974200Y-86461600D01*
X138404600Y-88646000D02*
X138404600Y-86868000D01*
X73888600Y-87376000D02*
X119862600Y-87376000D01*
X141706600Y-91948000D02*
X138404600Y-88646000D01*
X124989600Y-94187000D02*
X125450600Y-93726000D01*
X161518600Y-87122000D02*
X161518600Y-84201000D01*
X104669600Y-94187000D02*
X105130600Y-93726000D01*
X143230600Y-80264000D02*
X145770600Y-82804000D01*
X145770600Y-82804000D02*
X145770600Y-85344000D01*
X150850600Y-86360000D02*
X151358600Y-85852000D01*
X62814200Y-90144600D02*
X64551970Y-91882370D01*
X103330307Y-94187000D02*
X104669600Y-94187000D01*
X103330307Y-93449707D02*
X103330307Y-94187000D01*
X146786600Y-86360000D02*
X150850600Y-86360000D01*
X151358600Y-85852000D02*
X151358600Y-84201000D01*
X105130600Y-84836000D02*
X105130600Y-82550000D01*
X62814200Y-84257500D02*
X62814200Y-90144600D01*
X101762970Y-91882370D02*
X103330307Y-93449707D01*
X145770600Y-85344000D02*
X146786600Y-86360000D01*
X64551970Y-91882370D02*
X101762970Y-91882370D01*
X107416600Y-80264000D02*
X143230600Y-80264000D01*
X105130600Y-82550000D02*
X107416600Y-80264000D01*
X111734600Y-81534000D02*
X141706600Y-81534000D01*
X145262600Y-87630000D02*
X152628600Y-87630000D01*
X109194600Y-84074000D02*
X111734600Y-81534000D01*
X65379600Y-84282900D02*
X65379600Y-90297000D01*
X107394307Y-92478293D02*
X107394307Y-94187000D01*
X65379600Y-90297000D02*
X66156067Y-91073467D01*
X109194600Y-84836000D02*
X109194600Y-84074000D01*
X107416600Y-92456000D02*
X107394307Y-92478293D01*
X65354200Y-84257500D02*
X65379600Y-84282900D01*
X66156067Y-91073467D02*
X106034067Y-91073467D01*
X153898600Y-86360000D02*
X153898600Y-84201000D01*
X108733600Y-94187000D02*
X109194600Y-93726000D01*
X152628600Y-87630000D02*
X153898600Y-86360000D01*
X143738600Y-83566000D02*
X143738600Y-86106000D01*
X141706600Y-81534000D02*
X143738600Y-83566000D01*
X143738600Y-86106000D02*
X145262600Y-87630000D01*
X107394307Y-94187000D02*
X108733600Y-94187000D01*
X106034067Y-91073467D02*
X107416600Y-92456000D01*
X60274200Y-84257500D02*
X60299600Y-84282900D01*
X60299600Y-90551000D02*
X62496307Y-92747707D01*
X99266307Y-93703707D02*
X99266307Y-94187000D01*
X99266307Y-94187000D02*
X100605600Y-94187000D01*
X101066600Y-82550000D02*
X104622600Y-78994000D01*
X148818600Y-81534000D02*
X148818600Y-84201000D01*
X146278600Y-78994000D02*
X148818600Y-81534000D01*
X104622600Y-78994000D02*
X146278600Y-78994000D01*
X60299600Y-84282900D02*
X60299600Y-90551000D01*
X101066600Y-84836000D02*
X101066600Y-82550000D01*
X98310307Y-92747707D02*
X99266307Y-93703707D01*
X100605600Y-94187000D02*
X101066600Y-93726000D01*
X62496307Y-92747707D02*
X98310307Y-92747707D01*
X118846600Y-83820000D02*
X139928600Y-83820000D01*
X115522307Y-94187000D02*
X115522307Y-91163707D01*
X67919600Y-84282900D02*
X67894200Y-84257500D01*
X139928600Y-83820000D02*
X141452600Y-85344000D01*
X117576600Y-85090000D02*
X118846600Y-83820000D01*
X141452600Y-87630000D02*
X143738600Y-89916000D01*
X113512600Y-89154000D02*
X69062600Y-89154000D01*
X117576600Y-93726000D02*
X117115600Y-94187000D01*
X156438600Y-86614000D02*
X156438600Y-84201000D01*
X69062600Y-89154000D02*
X67919600Y-88011000D01*
X143738600Y-89916000D02*
X153136600Y-89916000D01*
X141452600Y-85344000D02*
X141452600Y-87630000D01*
X115522307Y-91163707D02*
X113512600Y-89154000D01*
X117115600Y-94187000D02*
X115522307Y-94187000D01*
X153136600Y-89916000D02*
X156438600Y-86614000D01*
X67919600Y-88011000D02*
X67919600Y-84282900D01*
X246227600Y-64596000D02*
X249529600Y-67898000D01*
X249529600Y-68152000D02*
X250799600Y-68152000D01*
X73761600Y-69930000D02*
X151485600Y-69930000D01*
X160629600Y-66755000D02*
X160629600Y-69930000D01*
X160629600Y-69930000D02*
X160629600Y-74716000D01*
X71729600Y-74716000D02*
X71729600Y-71962000D01*
X71729600Y-71962000D02*
X73380600Y-70311000D01*
X73380600Y-70311000D02*
X73761600Y-69930000D01*
X201556486Y-45546000D02*
X201556486Y-58969610D01*
X201556486Y-57357214D02*
X199511831Y-57357214D01*
X193903600Y-57338852D02*
X170045748Y-57338852D01*
X253339600Y-68152000D02*
X335635600Y-68152000D01*
X170045748Y-57338852D02*
X160629600Y-66755000D01*
X249529600Y-68152000D02*
X249529600Y-74716000D01*
X199511831Y-57357214D02*
X199491600Y-57336983D01*
X202653209Y-60066333D02*
X202666600Y-60066333D01*
X159359600Y-69930000D02*
X160629600Y-69930000D01*
X335635600Y-68152000D02*
X338429600Y-70946000D01*
X207196267Y-64596000D02*
X246227600Y-64596000D01*
X202666600Y-60066333D02*
X207196267Y-64596000D01*
X201556486Y-58969610D02*
X202653209Y-60066333D01*
X338429600Y-70946000D02*
X338429600Y-74716000D01*
X249529600Y-67898000D02*
X249529600Y-68152000D01*
X163169600Y-71835000D02*
X163169600Y-74716000D01*
X151485600Y-71708000D02*
X74904600Y-71708000D01*
X205079600Y-51388000D02*
X205079600Y-59008000D01*
X252069600Y-66882000D02*
X337921600Y-66882000D01*
X203556487Y-49864887D02*
X205079600Y-51388000D01*
X161899600Y-71708000D02*
X163042600Y-71708000D01*
X340969600Y-69930000D02*
X340969600Y-74716000D01*
X203555600Y-45546887D02*
X203556487Y-45546000D01*
X205079600Y-59008000D02*
X203555600Y-59008000D01*
X252069600Y-74716000D02*
X252069600Y-66882000D01*
X203556487Y-45546000D02*
X203556487Y-49864887D01*
X163042600Y-71708000D02*
X163169600Y-71835000D01*
X74269600Y-72343000D02*
X74269600Y-74716000D01*
X193903600Y-59008000D02*
X172567600Y-59008000D01*
X337921600Y-66882000D02*
X340969600Y-69930000D01*
X205079600Y-59008000D02*
X208127600Y-62056000D01*
X208127600Y-62056000D02*
X247243600Y-62056000D01*
X74904600Y-71708000D02*
X74269600Y-72343000D01*
X172567600Y-59008000D02*
X163169600Y-68406000D01*
X163169600Y-68406000D02*
X163169600Y-71835000D01*
X247243600Y-62056000D02*
X252069600Y-66882000D01*
X156311600Y-40212000D02*
X70713600Y-40212000D01*
X334619600Y-41228000D02*
X335889600Y-42498000D01*
X158089600Y-41990000D02*
X156311600Y-40212000D01*
X246227600Y-41228000D02*
X246989600Y-41990000D01*
X162843026Y-52331426D02*
X163423600Y-52331426D01*
X70713600Y-40212000D02*
X69189600Y-41736000D01*
X158089600Y-44316000D02*
X158089600Y-47578000D01*
X205556486Y-49832886D02*
X208127600Y-52404000D01*
X335889600Y-42498000D02*
X335889600Y-44316000D01*
X205556486Y-45546000D02*
X205556486Y-49832886D01*
X158089600Y-44316000D02*
X158089600Y-41990000D01*
X253339600Y-41228000D02*
X334619600Y-41228000D01*
X163423600Y-52331426D02*
X193903600Y-52331426D01*
X206095600Y-52404000D02*
X208127600Y-52404000D01*
X206023136Y-52331536D02*
X206095600Y-52404000D01*
X246227600Y-41228000D02*
X247751600Y-41228000D01*
X158089600Y-47578000D02*
X162843026Y-52331426D01*
X233527600Y-41228000D02*
X246227600Y-41228000D01*
X246989600Y-41990000D02*
X246989600Y-44316000D01*
X69189600Y-41736000D02*
X69189600Y-44316000D01*
X227939600Y-52404000D02*
X231495600Y-48848000D01*
X231495600Y-48848000D02*
X231495600Y-43260000D01*
X208127600Y-52404000D02*
X227939600Y-52404000D01*
X231495600Y-43260000D02*
X233527600Y-41228000D01*
X193903600Y-48993142D02*
X164584742Y-48993142D01*
X158970600Y-37283000D02*
X163169600Y-41482000D01*
X340969600Y-40466000D02*
X340969600Y-44316000D01*
X252069600Y-44316000D02*
X252069600Y-40974000D01*
X212191600Y-49356000D02*
X209556486Y-46720886D01*
X74269600Y-44316000D02*
X74269600Y-41333850D01*
X338683600Y-38180000D02*
X340969600Y-40466000D01*
X74912600Y-37283000D02*
X158970600Y-37283000D01*
X74268259Y-37949018D02*
X74268259Y-37927341D01*
X231495600Y-38180000D02*
X228447600Y-41228000D01*
X228447600Y-47832000D02*
X226923600Y-49356000D01*
X228447600Y-41228000D02*
X228447600Y-47832000D01*
X163169600Y-47578000D02*
X163169600Y-44316000D01*
X164584742Y-48993142D02*
X164439600Y-48848000D01*
X164439600Y-48848000D02*
X163169600Y-47578000D01*
X249275600Y-38180000D02*
X231495600Y-38180000D01*
X252069600Y-40974000D02*
X249275600Y-38180000D01*
X74268259Y-37927341D02*
X74912600Y-37283000D01*
X163169600Y-41482000D02*
X163169600Y-44316000D01*
X74269600Y-41333850D02*
X74255195Y-41319445D01*
X209556486Y-46720886D02*
X209556486Y-45546000D01*
X226923600Y-49356000D02*
X212191600Y-49356000D01*
X249275600Y-38180000D02*
X338683600Y-38180000D01*
X244449600Y-74716000D02*
X244449600Y-71708000D01*
X193903600Y-54000568D02*
X165383032Y-54000568D01*
X244449600Y-71708000D02*
X244449600Y-71200000D01*
X253339600Y-71200000D02*
X254355600Y-71200000D01*
X196443600Y-54039272D02*
X198364328Y-54039272D01*
X333349600Y-72470000D02*
X333349600Y-74716000D01*
X199556488Y-45546000D02*
X199556488Y-47767112D01*
X253847600Y-71200000D02*
X332079600Y-71200000D01*
X155549600Y-66374000D02*
X155549600Y-74716000D01*
X204825600Y-69168000D02*
X243687600Y-69168000D01*
X243687600Y-69168000D02*
X244449600Y-69930000D01*
X199556488Y-47767112D02*
X198475600Y-48848000D01*
X198475600Y-62817999D02*
X204825600Y-69167999D01*
X198364328Y-54039272D02*
X198475600Y-53928000D01*
X66649600Y-74716000D02*
X66649600Y-70438000D01*
X244449600Y-71200000D02*
X245719600Y-71200000D01*
X244449600Y-69930000D02*
X244449600Y-71708000D01*
X165383032Y-54000568D02*
X155549600Y-63834000D01*
X154533600Y-66374000D02*
X155549600Y-66374000D01*
X332079600Y-71200000D02*
X333349600Y-72470000D01*
X155549600Y-63834000D02*
X155549600Y-66374000D01*
X198475600Y-48848000D02*
X198475600Y-62818000D01*
X70713600Y-66374000D02*
X151485600Y-66374000D01*
X66649600Y-70438000D02*
X70713600Y-66374000D01*
X195427600Y-55669710D02*
X167523890Y-55669710D01*
X335889600Y-71200000D02*
X335889600Y-74716000D01*
X206257867Y-67136000D02*
X245211600Y-67136000D01*
X245211600Y-67136000D02*
X246989600Y-68914000D01*
X158089600Y-66882000D02*
X158089600Y-74716000D01*
X246989600Y-70184000D02*
X246989600Y-74716000D01*
X334365600Y-69676000D02*
X335889600Y-71200000D01*
X247116600Y-69676000D02*
X246989600Y-69803000D01*
X205587600Y-66458666D02*
X205587600Y-66465733D01*
X196773140Y-61877540D02*
X195427600Y-60532000D01*
X151485600Y-68406000D02*
X71475600Y-68406000D01*
X201015600Y-61886666D02*
X199830167Y-61886666D01*
X69189600Y-70692000D02*
X69189600Y-74716000D01*
X201015600Y-61886666D02*
X205587600Y-66458666D01*
X158089600Y-68406000D02*
X158089600Y-66882000D01*
X158089600Y-65104000D02*
X158089600Y-66882000D01*
X199830167Y-61886666D02*
X199824726Y-61892107D01*
X246989600Y-69803000D02*
X246989600Y-70184000D01*
X197459600Y-46816000D02*
X197459600Y-45642887D01*
X253339600Y-69676000D02*
X334365600Y-69676000D01*
X248259600Y-69676000D02*
X247116600Y-69676000D01*
X195427600Y-60532000D02*
X195427600Y-48848000D01*
X197459600Y-45642887D02*
X197556487Y-45546000D01*
X205587600Y-66465733D02*
X206257867Y-67136000D01*
X156565600Y-68406000D02*
X158089600Y-68406000D01*
X195427600Y-48848000D02*
X197459600Y-46816000D01*
X167523890Y-55669710D02*
X158089600Y-65104000D01*
X71475600Y-68406000D02*
X69189600Y-70692000D01*
X246989600Y-68914000D02*
X246989600Y-70184000D01*
X160629600Y-41482000D02*
X160629600Y-44316000D01*
X229971600Y-42244000D02*
X229971600Y-48340000D01*
X210159600Y-50880000D02*
X207556487Y-48276887D01*
X338429600Y-40974000D02*
X338429600Y-44316000D01*
X163713884Y-50662284D02*
X160629600Y-47578000D01*
X207556487Y-48276887D02*
X207556487Y-45546000D01*
X193903600Y-50662284D02*
X163931600Y-50662284D01*
X71810866Y-39358744D02*
X72481610Y-38688000D01*
X227431600Y-50880000D02*
X210159600Y-50880000D01*
X71729600Y-41336228D02*
X71729600Y-44316000D01*
X208635600Y-50880000D02*
X210159600Y-50880000D01*
X337159600Y-39704000D02*
X338429600Y-40974000D01*
X249529600Y-41482000D02*
X247751600Y-39704000D01*
X247751600Y-39704000D02*
X249275600Y-39704000D01*
X229971600Y-48340000D02*
X227431600Y-50880000D01*
X72481610Y-38688000D02*
X157835600Y-38688000D01*
X163931600Y-50662284D02*
X163713884Y-50662284D01*
X160629600Y-47578000D02*
X160629600Y-44316000D01*
X253339600Y-39704000D02*
X337159600Y-39704000D01*
X232511600Y-39704000D02*
X229971600Y-42244000D01*
X249529600Y-44316000D02*
X249529600Y-41482000D01*
X247751600Y-39704000D02*
X232511600Y-39704000D01*
X157835600Y-38688000D02*
X160629600Y-41482000D01*
X275856638Y-115692111D02*
X274038638Y-115692111D01*
X225018600Y-122254000D02*
X220192600Y-127080000D01*
X274038638Y-115692111D02*
X271710527Y-113364000D01*
X233908600Y-113364000D02*
X231241600Y-116031000D01*
X271710527Y-113364000D02*
X233908600Y-113364000D01*
X220192600Y-127080000D02*
X200126600Y-127080000D01*
X272303600Y-118911000D02*
X275869600Y-118911000D01*
X203809600Y-120730000D02*
X204148268Y-120391332D01*
X204148268Y-120391332D02*
X270823268Y-120391332D01*
X270823268Y-120391332D02*
X272303600Y-118911000D01*
X233083100Y-118507500D02*
X235771268Y-115819332D01*
X271244859Y-115819332D02*
X272417638Y-116992111D01*
X223579267Y-128011333D02*
X196443600Y-128011333D01*
X272417638Y-116992111D02*
X275856638Y-116992111D01*
X235771268Y-115819332D02*
X271244859Y-115819332D01*
X229336600Y-122254000D02*
X223579267Y-128011333D01*
X271246600Y-121492000D02*
X273177600Y-119561000D01*
X273177600Y-119561000D02*
X275869600Y-119561000D01*
X202158600Y-121492000D02*
X271246600Y-121492000D01*
X275869600Y-117611000D02*
X271429600Y-117611000D01*
X237210602Y-117046998D02*
X240258600Y-117046998D01*
X271429600Y-117611000D02*
X270865598Y-117046998D01*
X235686600Y-118571000D02*
X237210602Y-117046998D01*
X270865598Y-117046998D02*
X240258600Y-117046998D01*
X225187934Y-128942666D02*
X231876600Y-122254000D01*
X202285600Y-128942666D02*
X225187934Y-128942666D01*
X198475600Y-129873999D02*
X226542599Y-129873999D01*
X227177600Y-129874000D02*
X234492800Y-122558800D01*
X226542599Y-129873999D02*
X226542600Y-129874000D01*
X271703800Y-122558800D02*
X274051600Y-120211000D01*
X274051600Y-120211000D02*
X275869600Y-120211000D01*
X226542600Y-129874000D02*
X227177600Y-129874000D01*
X234492800Y-122558800D02*
X271703800Y-122558800D01*
X198475600Y-119290666D02*
X270372600Y-119290666D01*
X270372600Y-119290666D02*
X271388600Y-118274666D01*
X271402264Y-118261000D02*
X275869600Y-118261000D01*
X271388600Y-118274664D02*
X271402264Y-118261000D01*
X198475600Y-119290666D02*
X198475600Y-119079000D01*
X271980445Y-115173111D02*
X271399000Y-114591666D01*
X272050063Y-115227537D02*
X271995638Y-115173111D01*
X199616241Y-123016000D02*
X199618600Y-123013641D01*
X234966934Y-114591666D02*
X231368600Y-118190000D01*
X231368600Y-118190000D02*
X200507600Y-118190000D01*
X271995638Y-115173111D02*
X271980445Y-115173111D01*
X275856638Y-116342111D02*
X273164638Y-116342111D01*
X271399000Y-114591666D02*
X234966934Y-114591666D01*
X273164638Y-116342111D02*
X272050063Y-115227537D01*
D63*
X308965600Y-112221000D02*
X333095600Y-112221000D01*
X306044600Y-112951900D02*
X306044600Y-115461000D01*
X334111600Y-111205000D02*
X334111600Y-108966000D01*
X306156050Y-112840450D02*
X306044600Y-112951900D01*
X333095600Y-112221000D02*
X334111600Y-111205000D01*
D58*
X237591600Y-123524000D02*
X238226600Y-124159000D01*
X299694600Y-123270000D02*
X299694600Y-120411000D01*
X226796600Y-108538000D02*
X234162600Y-108538000D01*
X238226600Y-124159000D02*
X298805600Y-124159000D01*
X197582884Y-108538000D02*
X226796600Y-108538000D01*
X298805600Y-124159000D02*
X299694600Y-123270000D01*
X195616242Y-110504642D02*
X197582884Y-108538000D01*
X234162600Y-108538000D02*
X237591600Y-111967000D01*
X193649600Y-110570000D02*
X197078600Y-107141000D01*
X302234600Y-124667000D02*
X302234600Y-120411000D01*
X237718600Y-125302000D02*
X301599600Y-125302000D01*
X234670600Y-107141000D02*
X236702600Y-109173000D01*
X197078600Y-107141000D02*
X234670600Y-107141000D01*
X301599600Y-125302000D02*
X302234600Y-124667000D01*
X236702600Y-124286000D02*
X237718600Y-125302000D01*
D63*
X276453600Y-108919000D02*
X261340600Y-108919000D01*
X301853600Y-108919000D02*
X303504600Y-110570000D01*
X303504600Y-110570000D02*
X303504600Y-115461000D01*
X348081600Y-111967000D02*
X348081600Y-108966000D01*
X342366600Y-113237000D02*
X346811600Y-113237000D01*
X346811600Y-113237000D02*
X348081600Y-111967000D01*
X309346600Y-113237000D02*
X308584600Y-113999000D01*
X308584600Y-113999000D02*
X308584600Y-115461000D01*
X339953600Y-113237000D02*
X309346600Y-113237000D01*
D58*
X300202600Y-111205000D02*
X300964600Y-111967000D01*
X300964600Y-111967000D02*
X300964600Y-115461000D01*
X299948600Y-111205000D02*
X300202600Y-111205000D01*
D63*
X246735600Y-110379500D02*
X246735600Y-108919000D01*
X276453600Y-111141500D02*
X247497600Y-111141500D01*
X247497600Y-111141500D02*
X246735600Y-110379500D01*
X307346775Y-111934825D02*
X307346775Y-115428825D01*
X308330600Y-110951000D02*
X307346775Y-111934825D01*
X327126600Y-108966000D02*
X327126600Y-110062000D01*
X326237600Y-110951000D02*
X308330600Y-110951000D01*
X327126600Y-110062000D02*
X326237600Y-110951000D01*
X307346775Y-115428825D02*
X307314600Y-115461000D01*
X307314600Y-118952000D02*
X307314600Y-120411000D01*
X341096600Y-108966000D02*
X341096600Y-116158000D01*
X339064600Y-118190000D02*
X308076600Y-118190000D01*
X341096600Y-116158000D02*
X339064600Y-118190000D01*
X308076600Y-118190000D02*
X307314600Y-118952000D01*
D58*
X194538600Y-136567000D02*
X223024600Y-136567000D01*
X194303600Y-136332000D02*
X194538600Y-136567000D01*
X233210945Y-126380655D02*
X299249255Y-126380655D01*
X223024600Y-136567000D02*
X233210945Y-126380655D01*
X300964600Y-124159000D02*
X300964600Y-120411000D01*
X239242600Y-112252750D02*
X276453600Y-112252750D01*
X301853600Y-112602000D02*
X302234600Y-112983000D01*
D63*
X238480600Y-111459000D02*
X239242600Y-112221000D01*
D58*
X302234600Y-112983000D02*
X302234600Y-115461000D01*
D63*
X238480600Y-108919000D02*
X238480600Y-111459000D01*
X276453600Y-110030250D02*
X254863600Y-110030250D01*
X304774600Y-110824000D02*
X304774600Y-115461000D01*
X254863600Y-110030250D02*
X254355600Y-109522250D01*
X304139600Y-110189000D02*
X304774600Y-110824000D01*
X254355600Y-109522250D02*
X254355600Y-108919000D01*
D58*
X175869600Y-114761000D02*
X174345600Y-114761000D01*
X129209600Y-118261000D02*
X134112670Y-118261000D01*
X134112671Y-118260999D02*
X136296100Y-120444428D01*
X165487172Y-120444428D02*
X171170600Y-114761000D01*
X177647600Y-112983000D02*
X175869600Y-114761000D01*
X171170600Y-114761000D02*
X174345600Y-114761000D01*
X211366100Y-113173500D02*
X211175600Y-112983000D01*
X211175600Y-112983000D02*
X177647600Y-112983000D01*
X136296100Y-120444428D02*
X165487172Y-120444428D01*
X134112670Y-118261000D02*
X134112671Y-118260999D01*
X129209600Y-118911000D02*
X129239551Y-118940951D01*
X172186600Y-116031000D02*
X166577315Y-121640285D01*
X133156600Y-118940951D02*
X135855932Y-121640283D01*
X166577315Y-121640285D02*
X135885885Y-121640285D01*
X177647600Y-114253000D02*
X175869600Y-116031000D01*
X129239551Y-118940951D02*
X133156600Y-118940951D01*
X206476600Y-114253000D02*
X177647600Y-114253000D01*
X175869600Y-116031000D02*
X172186600Y-116031000D01*
X213080600Y-131736665D02*
X180060600Y-131736665D01*
X179891265Y-131736665D02*
X171551600Y-123397000D01*
X166217600Y-118052714D02*
X137176432Y-118052714D01*
X180060600Y-131736665D02*
X179891265Y-131736665D01*
X136084718Y-116961000D02*
X129209600Y-116961000D01*
X137176432Y-118052714D02*
X136084718Y-116961000D01*
X135187029Y-117682000D02*
X135187029Y-117699334D01*
X165201600Y-119248571D02*
X136753600Y-119248571D01*
X207111600Y-132668000D02*
X207111598Y-132667998D01*
X178663598Y-132667998D02*
X170535600Y-124540000D01*
X129280600Y-117682000D02*
X135187029Y-117682000D01*
X207111598Y-132667998D02*
X178917600Y-132667998D01*
X129209600Y-117611000D02*
X129280600Y-117682000D01*
X135187029Y-117699334D02*
X136700765Y-119213070D01*
X179044600Y-132667998D02*
X178663598Y-132667998D01*
X137616600Y-116856857D02*
X137680457Y-116793000D01*
X129209600Y-116311000D02*
X137070743Y-116311000D01*
X165455600Y-116793000D02*
X167360600Y-116793000D01*
X181372932Y-130805332D02*
X172694600Y-122127000D01*
X181584600Y-130805332D02*
X181372932Y-130805332D01*
X137070741Y-116311000D02*
X137616598Y-116856857D01*
X211235240Y-130805332D02*
X181584600Y-130805332D01*
X137680457Y-116793000D02*
X165455600Y-116793000D01*
X165455600Y-115650000D02*
X165444600Y-115650000D01*
X177647600Y-111713000D02*
X175869600Y-113491000D01*
X130005599Y-115650000D02*
X129994599Y-115661000D01*
X207492600Y-111713000D02*
X177647600Y-111713000D01*
X167614600Y-113491000D02*
X165455600Y-115650000D01*
X175869600Y-113491000D02*
X167614600Y-113491000D01*
X129209600Y-115661000D02*
X165455600Y-115661000D01*
X165455600Y-115661000D02*
X165444600Y-115650000D01*
X207746600Y-111967000D02*
X207492600Y-111713000D01*
X129994599Y-115661000D02*
X129209600Y-115661000D01*
X166471600Y-123905000D02*
X134848603Y-123905000D01*
X175869600Y-117301000D02*
X173075600Y-117301000D01*
X111480600Y-91694000D02*
X111458307Y-91716293D01*
X115544600Y-82804000D02*
X113512600Y-84836000D01*
X111458307Y-91716293D02*
X111458307Y-94187000D01*
X142468600Y-86868000D02*
X142468600Y-84582000D01*
X111458307Y-94187000D02*
X113051600Y-94187000D01*
X152882600Y-88900000D02*
X144500600Y-88900000D01*
X144500600Y-88900000D02*
X142468600Y-86868000D01*
X140690600Y-82804000D02*
X115544600Y-82804000D01*
X113051600Y-94187000D02*
X113512600Y-93726000D01*
X109956600Y-90170000D02*
X111480600Y-91694000D01*
X67284600Y-90170000D02*
X109956600Y-90170000D01*
X142468600Y-84582000D02*
X140690600Y-82804000D01*
X116814600Y-88138000D02*
X119586307Y-90909707D01*
X119586307Y-94187000D02*
X121179600Y-94187000D01*
X138912600Y-84836000D02*
X139928600Y-85852000D01*
X156946600Y-90678000D02*
X158978600Y-92710000D01*
X122402600Y-84836000D02*
X138912600Y-84836000D01*
X70840600Y-88138000D02*
X116814600Y-88138000D01*
X121179600Y-94187000D02*
X121640600Y-93726000D01*
X139928600Y-87884000D02*
X142722600Y-90678000D01*
X139928600Y-85852000D02*
X139928600Y-87884000D01*
X142722600Y-90678000D02*
X156946600Y-90678000D01*
X119586307Y-90909707D02*
X119586307Y-94187000D01*
X158978600Y-92710000D02*
X158978600Y-94361000D01*
X121640600Y-85598000D02*
X122402600Y-84836000D01*
X135430742Y-122836142D02*
X132155600Y-119561000D01*
X166344600Y-122889000D02*
X166291742Y-122836142D01*
X132155600Y-119561000D02*
X129209600Y-119561000D01*
D63*
X100304600Y-112475000D02*
X100304600Y-115461000D01*
X84556600Y-111078000D02*
X98907600Y-111078000D01*
X83794600Y-109490500D02*
X83794600Y-110316000D01*
X83794600Y-110316000D02*
X84556600Y-111078000D01*
X98907600Y-111078000D02*
X100304600Y-112475000D01*
X80937699Y-109364099D02*
X76174600Y-109364099D01*
X85278887Y-109387287D02*
X98740887Y-109387287D01*
X98740887Y-109387287D02*
X101574600Y-112221000D01*
X101574600Y-112221000D02*
X101574600Y-115461000D01*
X85255699Y-109364099D02*
X85278887Y-109387287D01*
X105384600Y-115461000D02*
X105384600Y-113999000D01*
X107289600Y-113618000D02*
X108051600Y-114380000D01*
X108051600Y-122000000D02*
X114909600Y-128858000D01*
X164439600Y-114634000D02*
X169392600Y-109681000D01*
X105384600Y-113999000D02*
X105765600Y-113618000D01*
X105765600Y-113618000D02*
X107289600Y-113618000D01*
X162661600Y-125810000D02*
X150977600Y-125810000D01*
X108051600Y-114380000D02*
X108051600Y-122000000D01*
X169392600Y-109681000D02*
X171551600Y-109681000D01*
X147929600Y-128858000D02*
X114909600Y-128858000D01*
X150977600Y-125810000D02*
X147929600Y-128858000D01*
X163677600Y-124794000D02*
X162661600Y-125810000D01*
X62077600Y-112094000D02*
X60934600Y-110951000D01*
X99034600Y-115461000D02*
X99034600Y-112983000D01*
X98145600Y-112094000D02*
X62077600Y-112094000D01*
X99034600Y-112983000D02*
X98145600Y-112094000D01*
X60934600Y-110951000D02*
X60934600Y-109364099D01*
D58*
X100431600Y-133938000D02*
X96499103Y-130005503D01*
X205079600Y-135589000D02*
X167233600Y-135589000D01*
X165582600Y-133938000D02*
X100431600Y-133938000D01*
X167233600Y-135589000D02*
X165582600Y-133938000D01*
X96499103Y-130005503D02*
X96499103Y-121400502D01*
X96499103Y-121400502D02*
X96494600Y-121395999D01*
X96494600Y-121395999D02*
X96494600Y-120411000D01*
D63*
X148945600Y-130382000D02*
X109321600Y-130382000D01*
X152755600Y-126572000D02*
X148945600Y-130382000D01*
X161518600Y-109681000D02*
X158597600Y-112602000D01*
X158597600Y-112602000D02*
X155041600Y-112602000D01*
X104114600Y-125175000D02*
X104114600Y-120411000D01*
X163931600Y-109681000D02*
X161518600Y-109681000D01*
X155041600Y-112602000D02*
X152755600Y-114888000D01*
X109321600Y-130382000D02*
X104114600Y-125175000D01*
D58*
X168376600Y-130636000D02*
X168376600Y-123905000D01*
X204317600Y-116793000D02*
X204444600Y-116666000D01*
X168376600Y-123905000D02*
X173583600Y-118698000D01*
X100812600Y-132795000D02*
X166217600Y-132795000D01*
X97764600Y-129747000D02*
X100812600Y-132795000D01*
X97764600Y-120411000D02*
X97764600Y-129747000D01*
X173583600Y-118698000D02*
X175869600Y-118698000D01*
X175869600Y-118698000D02*
X177774600Y-116793000D01*
X177774600Y-116793000D02*
X204317600Y-116793000D01*
X166217600Y-132795000D02*
X168376600Y-130636000D01*
X101193600Y-131652000D02*
X165582600Y-131652000D01*
X203047600Y-134530664D02*
X203005264Y-134573000D01*
X169307936Y-134573000D02*
X169265600Y-134530664D01*
X169265600Y-134573000D02*
X167487600Y-132795000D01*
X99034600Y-129493000D02*
X101193600Y-131652000D01*
X165455600Y-131652000D02*
X165836600Y-131652000D01*
X203005264Y-134573000D02*
X169307936Y-134573000D01*
X99034600Y-120411000D02*
X99034600Y-129493000D01*
D63*
X72237600Y-113110000D02*
X97129600Y-113110000D01*
X97129600Y-113110000D02*
X97764600Y-113745000D01*
X97764600Y-113745000D02*
X97764600Y-115461000D01*
X68554600Y-110951000D02*
X68554600Y-109427000D01*
X104749600Y-112856000D02*
X104114600Y-113491000D01*
X109194600Y-121365000D02*
X109194600Y-114126000D01*
X109194600Y-114126000D02*
X107924600Y-112856000D01*
X115671600Y-127334000D02*
X115163600Y-127334000D01*
X140817600Y-126437000D02*
X139920600Y-127334000D01*
X147040600Y-109681000D02*
X148691600Y-109681000D01*
X107924600Y-112856000D02*
X104749600Y-112856000D01*
X104114600Y-113491000D02*
X104114600Y-115461000D01*
X143865600Y-112856000D02*
X147040600Y-109681000D01*
X139920600Y-127334000D02*
X115671600Y-127334000D01*
X143865600Y-114888000D02*
X143865600Y-112856000D01*
X115163600Y-127334000D02*
X109194600Y-121365000D01*
X148437600Y-112602000D02*
X150723600Y-112602000D01*
X108305600Y-112094000D02*
X104241600Y-112094000D01*
X153644600Y-109681000D02*
X156311600Y-109681000D01*
X102844600Y-113491000D02*
X102844600Y-115461000D01*
X104241600Y-112094000D02*
X102844600Y-113491000D01*
X110337600Y-114126000D02*
X108305600Y-112094000D01*
X145389600Y-125302000D02*
X114909600Y-125302000D01*
X110337600Y-120730000D02*
X110337600Y-114126000D01*
X146151600Y-114888000D02*
X148437600Y-112602000D01*
X114909600Y-125302000D02*
X110337600Y-120730000D01*
X150723600Y-112602000D02*
X153644600Y-109681000D01*
D58*
X313688100Y-48340000D02*
X317855600Y-48340000D01*
X229463600Y-56468000D02*
X229463600Y-60024000D01*
X141579600Y-48782001D02*
X141579600Y-53284473D01*
X141579600Y-53284473D02*
X141567294Y-53296779D01*
X86186689Y-43711818D02*
X86186689Y-46927087D01*
X86186689Y-46927087D02*
X86207600Y-46947998D01*
D63*
X339923202Y-103961002D02*
X341096600Y-105134400D01*
X337921600Y-103961002D02*
X339923202Y-103961002D01*
X341096600Y-105134400D02*
X341096600Y-107141000D01*
X338988400Y-102061000D02*
X339699600Y-101349800D01*
X339699600Y-101349800D02*
X339699600Y-94441000D01*
X337921600Y-102061000D02*
X338988400Y-102061000D01*
X345897200Y-102061000D02*
X344906600Y-102061000D01*
X346760800Y-101197400D02*
X345897200Y-102061000D01*
X346760800Y-96422200D02*
X346760800Y-101197400D01*
X344779600Y-94441000D02*
X346760800Y-96422200D01*
X348081600Y-105058200D02*
X348081600Y-107141000D01*
X346984402Y-103961002D02*
X348081600Y-105058200D01*
X344906600Y-103961002D02*
X346984402Y-103961002D01*
X327101200Y-107115600D02*
X327126600Y-107141000D01*
X323951600Y-103961002D02*
X326105602Y-103961002D01*
X326105602Y-103961002D02*
X327101200Y-104956600D01*
X327101200Y-104956600D02*
X327101200Y-107115600D01*
X325526400Y-102061000D02*
X326999600Y-100587800D01*
X323951600Y-102061000D02*
X325526400Y-102061000D01*
X326999600Y-100587800D02*
X326999600Y-94441000D01*
X334111600Y-105007400D02*
X334111600Y-107141000D01*
X333065202Y-103961002D02*
X334111600Y-105007400D01*
X330936600Y-103961002D02*
X333065202Y-103961002D01*
X330149200Y-102061000D02*
X330936600Y-102061000D01*
X329539600Y-101451400D02*
X330149200Y-102061000D01*
X329539600Y-94441000D02*
X329539600Y-101451400D01*
X254355600Y-105563256D02*
X254355600Y-107094000D01*
X250926600Y-104168002D02*
X252960346Y-104168002D01*
X252960346Y-104168002D02*
X254355600Y-105563256D01*
X252425200Y-96019600D02*
X252425200Y-101760000D01*
X250799600Y-94394000D02*
X252425200Y-96019600D01*
X252425200Y-101760000D02*
X251917200Y-102268000D01*
X251917200Y-102268000D02*
X250926600Y-102268000D01*
X260334527Y-104168002D02*
X261340600Y-105174075D01*
X261340600Y-105174075D02*
X261340600Y-107094000D01*
X257911600Y-104168002D02*
X260334527Y-104168002D01*
X255879600Y-94394000D02*
X255879600Y-101302800D01*
X255879600Y-101302800D02*
X256844800Y-102268000D01*
X256844800Y-102268000D02*
X257911600Y-102268000D01*
X235051600Y-104154001D02*
X235117599Y-104220000D01*
X235117599Y-104220000D02*
X237549139Y-104220000D01*
X238480600Y-105151461D02*
X238480600Y-107094000D01*
X237549139Y-104220000D02*
X238480600Y-105151461D01*
X238099600Y-94394000D02*
X238099600Y-100490000D01*
X238099600Y-100490000D02*
X236335601Y-102253999D01*
X236335601Y-102253999D02*
X235051600Y-102253999D01*
X246735600Y-105543177D02*
X246735600Y-107094000D01*
X245360425Y-104168002D02*
X246735600Y-105543177D01*
X243306600Y-104168002D02*
X245360425Y-104168002D01*
X240639600Y-100947200D02*
X241960400Y-102268000D01*
X240639600Y-94394000D02*
X240639600Y-100947200D01*
X241960400Y-102268000D02*
X243306600Y-102268000D01*
X161290000Y-102365800D02*
X162661600Y-102365800D01*
X163271200Y-101756200D02*
X163271200Y-95914200D01*
X163271200Y-95914200D02*
X161798000Y-94441000D01*
X162661600Y-102365800D02*
X163271200Y-101756200D01*
X161290000Y-104265802D02*
X162783602Y-104265802D01*
X162783602Y-104265802D02*
X163931600Y-105413800D01*
X163931600Y-105413800D02*
X163931600Y-107856000D01*
X170403602Y-104265802D02*
X171551600Y-105413800D01*
X168910000Y-104265802D02*
X170403602Y-104265802D01*
X171551600Y-105413800D02*
X171551600Y-107856000D01*
X166878000Y-94441000D02*
X166878000Y-101553000D01*
X166878000Y-101553000D02*
X167690800Y-102365800D01*
X167690800Y-102365800D02*
X168910000Y-102365800D01*
X148691600Y-105413800D02*
X148691600Y-107856000D01*
X147543602Y-104265802D02*
X148691600Y-105413800D01*
D58*
X210540600Y-115523000D02*
X177647600Y-115523000D01*
X177647600Y-115523000D02*
X175869600Y-117301000D01*
X129209600Y-120211000D02*
X131154600Y-120211000D01*
X134848603Y-123905000D02*
X131154600Y-120210997D01*
X210667600Y-115650000D02*
X210540600Y-115523000D01*
X173075600Y-117301000D02*
X166471600Y-123905000D01*
X166291742Y-122836142D02*
X135430742Y-122836142D01*
X177054931Y-133599331D02*
X169138600Y-125683000D01*
X208889600Y-133599331D02*
X177054931Y-133599331D01*
D63*
X151638000Y-94441000D02*
X151638000Y-101603800D01*
X152400000Y-102365800D02*
X153670000Y-102365800D01*
X74686201Y-103900001D02*
X76174600Y-105388400D01*
X72466200Y-103900001D02*
X74686201Y-103900001D01*
X76174600Y-105388400D02*
X76174600Y-107473100D01*
X73629602Y-102065998D02*
X74041000Y-101654600D01*
X74041000Y-101654600D02*
X74041000Y-95484300D01*
X74041000Y-95484300D02*
X72974200Y-94417500D01*
X72466200Y-102065998D02*
X73629602Y-102065998D01*
X83794600Y-105236000D02*
X83794600Y-107473100D01*
X82458601Y-103900001D02*
X83794600Y-105236000D01*
X80086200Y-103900001D02*
X82458601Y-103900001D01*
X78909148Y-102065998D02*
X80086200Y-102065998D01*
X78054200Y-94417500D02*
X78054200Y-101211050D01*
X78054200Y-101211050D02*
X78909148Y-102065998D01*
X60934600Y-105185200D02*
X60934600Y-107473100D01*
X57226200Y-103900001D02*
X59649401Y-103900001D01*
X59649401Y-103900001D02*
X60934600Y-105185200D01*
X59231436Y-102065998D02*
X60274200Y-101023234D01*
X57226200Y-102065998D02*
X59231436Y-102065998D01*
X60274200Y-101023234D02*
X60274200Y-94417500D01*
X67218601Y-103900001D02*
X68554600Y-105236000D01*
X68554600Y-105236000D02*
X68554600Y-107473100D01*
X64846200Y-103900001D02*
X67218601Y-103900001D01*
X64846200Y-102065998D02*
X63897748Y-102065998D01*
X63897748Y-102065998D02*
X62814200Y-100982450D01*
X62814200Y-100982450D02*
X62814200Y-94417500D01*
D59*
X53761892Y-102990336D02*
X55258592Y-102990336D01*
X320465512Y-103011001D02*
X321919600Y-103011001D01*
X119735600Y-122000000D02*
X120865600Y-120870000D01*
X299694600Y-117555000D02*
X300341239Y-118201639D01*
X140959799Y-103315801D02*
X144018000Y-103315801D01*
X230479600Y-103204000D02*
X255865599Y-103204000D01*
D65*
X282553600Y-115011000D02*
X281609600Y-115011000D01*
D61*
X191576242Y-125556000D02*
X191616242Y-125516000D01*
D65*
X282676600Y-114888000D02*
X282553600Y-115011000D01*
D59*
X70498592Y-102990336D02*
X78118592Y-102990336D01*
X306044600Y-119333000D02*
X306044600Y-120411000D01*
X299694600Y-115461000D02*
X299694600Y-117555000D01*
X318871600Y-104604913D02*
X320465512Y-103011001D01*
X140563600Y-103712000D02*
X140959799Y-103315801D01*
X255865599Y-103204000D02*
X255879600Y-103218001D01*
X304913239Y-118201639D02*
X306044600Y-119333000D01*
X102971600Y-120538000D02*
X102844600Y-120411000D01*
D61*
X183489600Y-125556000D02*
X191576242Y-125556000D01*
D65*
X283565600Y-114888000D02*
X282676600Y-114888000D01*
D59*
X306044600Y-123397000D02*
X306044600Y-120411000D01*
X62878592Y-102990336D02*
X70498592Y-102990336D01*
X96494600Y-117301000D02*
X96494600Y-115461000D01*
X144018000Y-103315801D02*
X166878000Y-103315801D01*
X300341239Y-118201639D02*
X304913239Y-118201639D01*
X55258592Y-102990336D02*
X62878592Y-102990336D01*
X120865600Y-120870000D02*
X123469600Y-120870000D01*
X102971600Y-123524000D02*
X102971600Y-120538000D01*
X94335600Y-120984000D02*
X94335600Y-119460000D01*
X321919600Y-103011001D02*
X342874600Y-103011001D01*
D63*
X146050000Y-104265802D02*
X147543602Y-104265802D01*
X149098000Y-94441000D02*
X149098000Y-101603800D01*
X148336000Y-102365800D02*
X146050000Y-102365800D01*
X149098000Y-101603800D02*
X148336000Y-102365800D01*
X156311600Y-105413800D02*
X156311600Y-107856000D01*
X155163602Y-104265802D02*
X156311600Y-105413800D01*
X153670000Y-104265802D02*
X155163602Y-104265802D01*
X151638000Y-101603800D02*
X152400000Y-102365800D01*
D59*
X52743992Y-104004436D02*
X53759992Y-102988436D01*
X94335600Y-119460000D02*
X96494600Y-117301000D01*
%TD*%
%TA.AperFunction,NonConductor*%
G36*
X68871540Y-213554685D02*
G01*
X68917295Y-213607489D01*
X68927239Y-213676647D01*
X68901148Y-213736688D01*
X68829156Y-213826249D01*
X68746964Y-213991976D01*
X68746963Y-213991978D01*
X68702317Y-214171500D01*
X68699500Y-214213048D01*
X68699500Y-215310951D01*
X68702317Y-215352499D01*
X68746963Y-215532021D01*
X68746964Y-215532023D01*
X68829156Y-215697750D01*
X68945059Y-215841940D01*
X69021261Y-215903193D01*
X69089247Y-215957842D01*
X69254979Y-216040037D01*
X69434501Y-216084682D01*
X69434502Y-216084682D01*
X69434505Y-216084683D01*
X69476046Y-216087500D01*
X69476048Y-216087500D01*
X70123952Y-216087500D01*
X70123954Y-216087500D01*
X70165495Y-216084683D01*
X70345021Y-216040037D01*
X70510753Y-215957842D01*
X70654940Y-215841940D01*
X70654944Y-215841934D01*
X70659689Y-215837190D01*
X70661054Y-215838555D01*
X70710685Y-215803999D01*
X70780506Y-215801413D01*
X70840642Y-215836986D01*
X70844130Y-215841011D01*
X70845057Y-215841939D01*
X70845058Y-215841940D01*
X70989245Y-215957842D01*
X71154977Y-216040037D01*
X71334499Y-216084682D01*
X71334500Y-216084682D01*
X71334503Y-216084683D01*
X71376044Y-216087500D01*
X71376046Y-216087500D01*
X72023950Y-216087500D01*
X72023952Y-216087500D01*
X72065493Y-216084683D01*
X72245019Y-216040037D01*
X72410751Y-215957842D01*
X72554938Y-215841940D01*
X72670840Y-215697753D01*
X72753035Y-215532021D01*
X72797681Y-215352495D01*
X72800498Y-215310954D01*
X72800498Y-214213046D01*
X72797681Y-214171505D01*
X72758783Y-214015092D01*
X72761707Y-213945288D01*
X72801907Y-213888142D01*
X72838059Y-213869169D01*
X72837876Y-213868726D01*
X72842761Y-213866702D01*
X72843132Y-213866507D01*
X72843501Y-213866396D01*
X73008625Y-213778136D01*
X73153357Y-213659357D01*
X73218209Y-213580335D01*
X73275954Y-213541001D01*
X73314062Y-213535000D01*
X73831731Y-213535000D01*
X73898770Y-213554685D01*
X73936509Y-213592685D01*
X78161456Y-220268101D01*
X78180675Y-220335275D01*
X78160526Y-220402177D01*
X78107407Y-220447565D01*
X78068834Y-220457819D01*
X78013667Y-220463253D01*
X78013666Y-220463253D01*
X77834497Y-220517604D01*
X77669376Y-220605862D01*
X77669373Y-220605864D01*
X77524642Y-220724642D01*
X77405864Y-220869373D01*
X77405862Y-220869376D01*
X77317604Y-221034497D01*
X77263253Y-221213666D01*
X77263252Y-221213668D01*
X77244901Y-221400000D01*
X77263252Y-221586331D01*
X77263253Y-221586333D01*
X77317604Y-221765502D01*
X77405862Y-221930623D01*
X77405864Y-221930626D01*
X77524642Y-222075357D01*
X77669373Y-222194135D01*
X77669376Y-222194137D01*
X77810138Y-222269375D01*
X77834499Y-222282396D01*
X78013666Y-222336746D01*
X78013668Y-222336747D01*
X78050024Y-222340327D01*
X78187425Y-222353860D01*
X78252211Y-222380021D01*
X78292570Y-222437055D01*
X78295687Y-222506855D01*
X78271917Y-222554951D01*
X78204156Y-222639248D01*
X78121964Y-222804975D01*
X78121963Y-222804977D01*
X78077317Y-222984499D01*
X78074500Y-223026047D01*
X78074500Y-223673950D01*
X78077317Y-223715498D01*
X78121963Y-223895020D01*
X78121964Y-223895022D01*
X78204156Y-224060749D01*
X78320059Y-224204939D01*
X78402173Y-224270944D01*
X78464247Y-224320841D01*
X78629979Y-224403036D01*
X78809501Y-224447681D01*
X78809502Y-224447681D01*
X78809505Y-224447682D01*
X78851046Y-224450499D01*
X78851048Y-224450499D01*
X79948952Y-224450499D01*
X79948954Y-224450499D01*
X79990495Y-224447682D01*
X80170021Y-224403036D01*
X80335753Y-224320841D01*
X80479940Y-224204939D01*
X80595842Y-224060752D01*
X80678037Y-223895020D01*
X80722683Y-223715494D01*
X80725500Y-223673953D01*
X80725500Y-223026045D01*
X80722683Y-222984504D01*
X80678037Y-222804978D01*
X80595842Y-222639246D01*
X80479940Y-222495059D01*
X80479939Y-222495058D01*
X80475190Y-222490310D01*
X80476555Y-222488944D01*
X80441999Y-222439314D01*
X80439413Y-222369493D01*
X80474986Y-222309357D01*
X80479011Y-222305868D01*
X80479934Y-222304945D01*
X80479940Y-222304941D01*
X80595842Y-222160754D01*
X80678037Y-221995022D01*
X80722683Y-221815496D01*
X80725500Y-221773955D01*
X80725500Y-221559000D01*
X80745185Y-221491961D01*
X80797989Y-221446206D01*
X80849500Y-221435000D01*
X82711573Y-221435000D01*
X82778612Y-221454685D01*
X82801696Y-221473830D01*
X83431569Y-222140330D01*
X83463308Y-222202574D01*
X83456358Y-222272097D01*
X83412923Y-222326826D01*
X83346795Y-222349385D01*
X83341446Y-222349500D01*
X82726046Y-222349500D01*
X82714177Y-222350304D01*
X82684500Y-222352317D01*
X82504978Y-222396963D01*
X82504976Y-222396964D01*
X82339249Y-222479156D01*
X82195059Y-222595059D01*
X82079156Y-222739249D01*
X81996964Y-222904976D01*
X81996963Y-222904978D01*
X81952317Y-223084500D01*
X81952317Y-223084505D01*
X81949798Y-223121660D01*
X81949500Y-223126048D01*
X81949500Y-224173951D01*
X81952317Y-224215499D01*
X81996963Y-224395021D01*
X81996964Y-224395023D01*
X82079156Y-224560750D01*
X82195059Y-224704940D01*
X82277173Y-224770945D01*
X82339247Y-224820842D01*
X82504979Y-224903037D01*
X82684501Y-224947682D01*
X82684502Y-224947682D01*
X82684505Y-224947683D01*
X82726046Y-224950500D01*
X82726048Y-224950500D01*
X83573952Y-224950500D01*
X83573954Y-224950500D01*
X83615495Y-224947683D01*
X83746075Y-224915209D01*
X83815882Y-224918133D01*
X83873028Y-224958333D01*
X83899369Y-225023048D01*
X83900000Y-225035544D01*
X83900000Y-227273586D01*
X83880315Y-227340625D01*
X83851150Y-227372219D01*
X80733000Y-229747998D01*
X80733000Y-235794640D01*
X80713315Y-235861679D01*
X80699079Y-235879856D01*
X78229850Y-238490025D01*
X78169480Y-238525198D01*
X78139374Y-238528808D01*
X75653026Y-238520848D01*
X73875503Y-238534996D01*
X73874516Y-238535000D01*
X63951362Y-238535000D01*
X63884323Y-238515315D01*
X63863681Y-238498681D01*
X61436319Y-236071319D01*
X61402834Y-236009996D01*
X61400000Y-235983638D01*
X61400000Y-235590000D01*
X62759901Y-235590000D01*
X62778252Y-235776331D01*
X62778253Y-235776333D01*
X62832604Y-235955502D01*
X62920862Y-236120623D01*
X62920864Y-236120626D01*
X63039642Y-236265357D01*
X63184373Y-236384135D01*
X63184376Y-236384137D01*
X63349494Y-236472394D01*
X63349496Y-236472394D01*
X63349499Y-236472396D01*
X63505314Y-236519662D01*
X63556998Y-236550641D01*
X63826241Y-236819884D01*
X63859726Y-236881207D01*
X63862560Y-236907565D01*
X63862560Y-237023375D01*
X63865377Y-237064923D01*
X63910023Y-237244445D01*
X63910024Y-237244447D01*
X63992216Y-237410174D01*
X63992217Y-237410175D01*
X63992218Y-237410177D01*
X64016313Y-237440152D01*
X64108119Y-237554364D01*
X64140747Y-237580591D01*
X64252307Y-237670266D01*
X64418039Y-237752461D01*
X64597561Y-237797106D01*
X64597562Y-237797106D01*
X64597565Y-237797107D01*
X64639106Y-237799924D01*
X64639108Y-237799924D01*
X65487012Y-237799924D01*
X65487014Y-237799924D01*
X65528555Y-237797107D01*
X65708081Y-237752461D01*
X65873813Y-237670266D01*
X65985373Y-237580590D01*
X66049956Y-237553932D01*
X66118700Y-237566422D01*
X66140745Y-237580589D01*
X66252307Y-237670266D01*
X66418039Y-237752461D01*
X66597561Y-237797106D01*
X66597562Y-237797106D01*
X66597565Y-237797107D01*
X66639106Y-237799924D01*
X66639108Y-237799924D01*
X67487012Y-237799924D01*
X67487014Y-237799924D01*
X67528555Y-237797107D01*
X67708081Y-237752461D01*
X67873813Y-237670266D01*
X68018000Y-237554364D01*
X68133902Y-237410177D01*
X68159120Y-237359330D01*
X68206540Y-237308017D01*
X68270208Y-237290424D01*
X69378538Y-237290424D01*
X69445577Y-237310109D01*
X69489626Y-237359329D01*
X69516264Y-237413040D01*
X69629120Y-237553439D01*
X69631314Y-237556169D01*
X69774442Y-237671218D01*
X69938956Y-237752810D01*
X70059009Y-237782666D01*
X70117158Y-237797127D01*
X70117159Y-237797127D01*
X70117163Y-237797128D01*
X70158397Y-237799924D01*
X70158398Y-237799924D01*
X70792720Y-237799924D01*
X70792721Y-237799924D01*
X70833955Y-237797128D01*
X71012162Y-237752810D01*
X71176676Y-237671218D01*
X71319804Y-237556169D01*
X71319808Y-237556163D01*
X71324558Y-237551415D01*
X71326509Y-237553366D01*
X71373721Y-237520480D01*
X71443542Y-237517879D01*
X71501078Y-237551898D01*
X71501562Y-237551415D01*
X71503442Y-237553295D01*
X71503685Y-237553439D01*
X71504327Y-237554180D01*
X71506315Y-237556168D01*
X71506316Y-237556169D01*
X71649444Y-237671218D01*
X71813958Y-237752810D01*
X71934011Y-237782666D01*
X71992160Y-237797127D01*
X71992161Y-237797127D01*
X71992165Y-237797128D01*
X72033399Y-237799924D01*
X72033400Y-237799924D01*
X72667722Y-237799924D01*
X72667723Y-237799924D01*
X72708957Y-237797128D01*
X72887164Y-237752810D01*
X73051678Y-237671218D01*
X73194806Y-237556169D01*
X73309855Y-237413041D01*
X73391447Y-237248527D01*
X73435765Y-237070320D01*
X73438561Y-237029086D01*
X73438561Y-235969762D01*
X73435765Y-235928528D01*
X73414744Y-235844000D01*
X76649514Y-235844000D01*
X76669410Y-236046011D01*
X76728337Y-236240267D01*
X76824021Y-236419279D01*
X76824025Y-236419286D01*
X76952800Y-236576199D01*
X77109713Y-236704974D01*
X77109720Y-236704978D01*
X77288732Y-236800662D01*
X77288734Y-236800662D01*
X77288737Y-236800664D01*
X77482987Y-236859589D01*
X77482986Y-236859589D01*
X77501099Y-236861372D01*
X77685000Y-236879486D01*
X77887013Y-236859589D01*
X78081263Y-236800664D01*
X78260285Y-236704975D01*
X78417199Y-236576199D01*
X78545975Y-236419285D01*
X78641664Y-236240263D01*
X78700589Y-236046013D01*
X78720486Y-235844000D01*
X78700589Y-235641987D01*
X78641664Y-235447737D01*
X78641662Y-235447734D01*
X78641662Y-235447732D01*
X78545978Y-235268720D01*
X78545974Y-235268713D01*
X78417199Y-235111800D01*
X78260286Y-234983025D01*
X78260279Y-234983021D01*
X78081267Y-234887337D01*
X77984138Y-234857873D01*
X77887013Y-234828411D01*
X77887011Y-234828410D01*
X77887013Y-234828410D01*
X77685000Y-234808514D01*
X77482988Y-234828410D01*
X77288732Y-234887337D01*
X77109720Y-234983021D01*
X77109713Y-234983025D01*
X76952800Y-235111800D01*
X76824025Y-235268713D01*
X76824021Y-235268720D01*
X76728337Y-235447732D01*
X76669410Y-235641988D01*
X76649514Y-235844000D01*
X73414744Y-235844000D01*
X73391447Y-235750321D01*
X73309855Y-235585807D01*
X73194806Y-235442679D01*
X73146272Y-235403666D01*
X73051677Y-235327629D01*
X72887165Y-235246038D01*
X72708961Y-235201720D01*
X72675969Y-235199483D01*
X72667723Y-235198924D01*
X72033399Y-235198924D01*
X72026526Y-235199390D01*
X71992160Y-235201720D01*
X71813956Y-235246038D01*
X71649444Y-235327629D01*
X71506316Y-235442678D01*
X71501562Y-235447433D01*
X71499617Y-235445488D01*
X71452343Y-235478386D01*
X71382521Y-235480953D01*
X71325053Y-235446937D01*
X71324558Y-235447433D01*
X71322626Y-235445501D01*
X71322394Y-235445364D01*
X71321777Y-235444652D01*
X71319803Y-235442678D01*
X71176675Y-235327629D01*
X71012163Y-235246038D01*
X70833959Y-235201720D01*
X70800967Y-235199483D01*
X70792721Y-235198924D01*
X70158397Y-235198924D01*
X70151524Y-235199390D01*
X70117158Y-235201720D01*
X69938954Y-235246038D01*
X69774442Y-235327629D01*
X69631314Y-235442678D01*
X69631313Y-235442679D01*
X69516264Y-235585807D01*
X69489626Y-235639519D01*
X69442205Y-235690832D01*
X69378538Y-235708424D01*
X68270208Y-235708424D01*
X68203169Y-235688739D01*
X68159120Y-235639518D01*
X68133903Y-235588673D01*
X68133902Y-235588672D01*
X68133902Y-235588671D01*
X68047315Y-235480953D01*
X68018000Y-235444483D01*
X67915845Y-235362369D01*
X67873813Y-235328582D01*
X67873811Y-235328581D01*
X67873810Y-235328580D01*
X67708083Y-235246388D01*
X67708081Y-235246387D01*
X67528557Y-235201741D01*
X67528561Y-235201741D01*
X67497399Y-235199628D01*
X67487014Y-235198924D01*
X66639106Y-235198924D01*
X66627237Y-235199728D01*
X66597560Y-235201741D01*
X66418038Y-235246387D01*
X66418036Y-235246388D01*
X66252309Y-235328580D01*
X66252307Y-235328582D01*
X66140746Y-235418257D01*
X66076164Y-235444916D01*
X66007420Y-235432426D01*
X65985374Y-235418258D01*
X65873813Y-235328582D01*
X65873811Y-235328581D01*
X65873810Y-235328580D01*
X65708083Y-235246388D01*
X65708081Y-235246387D01*
X65528557Y-235201741D01*
X65528561Y-235201741D01*
X65497399Y-235199628D01*
X65487014Y-235198924D01*
X64658049Y-235198924D01*
X64591010Y-235179239D01*
X64548691Y-235133377D01*
X64509137Y-235059376D01*
X64509135Y-235059373D01*
X64390357Y-234914642D01*
X64245626Y-234795864D01*
X64245623Y-234795862D01*
X64080502Y-234707604D01*
X63901333Y-234653253D01*
X63901331Y-234653252D01*
X63715000Y-234634901D01*
X63528668Y-234653252D01*
X63528666Y-234653253D01*
X63349497Y-234707604D01*
X63184376Y-234795862D01*
X63184373Y-234795864D01*
X63039642Y-234914642D01*
X62920864Y-235059373D01*
X62920862Y-235059376D01*
X62832604Y-235224497D01*
X62778253Y-235403666D01*
X62778252Y-235403668D01*
X62759901Y-235590000D01*
X61400000Y-235590000D01*
X61400000Y-230165961D01*
X66299500Y-230165961D01*
X66299500Y-231334037D01*
X66301484Y-231367359D01*
X66302312Y-231381249D01*
X66346984Y-231586601D01*
X66346987Y-231586612D01*
X66429718Y-231779807D01*
X66429720Y-231779810D01*
X66429721Y-231779812D01*
X66547523Y-231953864D01*
X66696135Y-232102476D01*
X66870187Y-232220278D01*
X66870189Y-232220279D01*
X66870191Y-232220280D01*
X66998987Y-232275434D01*
X67063388Y-232303012D01*
X67063396Y-232303013D01*
X67063397Y-232303014D01*
X67268749Y-232347686D01*
X67268750Y-232347686D01*
X67268755Y-232347687D01*
X67315962Y-232350499D01*
X67315973Y-232350499D01*
X70284027Y-232350499D01*
X70284038Y-232350499D01*
X70331245Y-232347687D01*
X70536612Y-232303012D01*
X70729813Y-232220278D01*
X70903865Y-232102476D01*
X71052477Y-231953864D01*
X71170279Y-231779812D01*
X71253013Y-231586611D01*
X71297688Y-231381244D01*
X71300500Y-231334037D01*
X71300500Y-230165961D01*
X71297688Y-230118754D01*
X71253013Y-229913387D01*
X71170279Y-229720186D01*
X71052477Y-229546134D01*
X70903865Y-229397522D01*
X70729813Y-229279720D01*
X70729811Y-229279719D01*
X70729808Y-229279717D01*
X70536613Y-229196986D01*
X70536602Y-229196983D01*
X70331250Y-229152311D01*
X70316492Y-229151432D01*
X70284038Y-229149499D01*
X67315962Y-229149499D01*
X67285416Y-229151318D01*
X67268749Y-229152311D01*
X67063397Y-229196983D01*
X67063386Y-229196986D01*
X66870191Y-229279717D01*
X66696137Y-229397520D01*
X66696132Y-229397524D01*
X66547525Y-229546131D01*
X66547521Y-229546136D01*
X66429718Y-229720190D01*
X66346987Y-229913385D01*
X66346984Y-229913396D01*
X66302312Y-230118748D01*
X66302312Y-230118754D01*
X66299500Y-230165961D01*
X61400000Y-230165961D01*
X61400000Y-229855499D01*
X61419685Y-229788460D01*
X61472489Y-229742705D01*
X61524000Y-229731499D01*
X64346671Y-229731499D01*
X64346672Y-229731498D01*
X64536294Y-229693781D01*
X64662598Y-229641463D01*
X64714916Y-229619793D01*
X64875671Y-229512380D01*
X65012382Y-229375669D01*
X67262381Y-227125670D01*
X67369794Y-226964915D01*
X67375746Y-226950543D01*
X67391464Y-226912599D01*
X67391464Y-226912598D01*
X67406787Y-226875603D01*
X67443782Y-226786293D01*
X67481500Y-226596669D01*
X67481500Y-226403331D01*
X67481500Y-225898035D01*
X67501185Y-225830996D01*
X67527137Y-225801936D01*
X67568340Y-225768340D01*
X67568342Y-225768337D01*
X67571638Y-225765650D01*
X67636034Y-225738541D01*
X67704864Y-225750551D01*
X67728359Y-225765650D01*
X67772856Y-225801932D01*
X67885421Y-225893717D01*
X68061272Y-225985574D01*
X68252015Y-226040152D01*
X68368414Y-226050501D01*
X68368420Y-226050501D01*
X69231580Y-226050501D01*
X69231586Y-226050501D01*
X69347985Y-226040152D01*
X69538728Y-225985574D01*
X69714579Y-225893717D01*
X69868340Y-225768341D01*
X69868342Y-225768337D01*
X69871639Y-225765650D01*
X69936035Y-225738541D01*
X70004865Y-225750550D01*
X70028361Y-225765650D01*
X70031659Y-225768339D01*
X70031660Y-225768340D01*
X70185421Y-225893716D01*
X70361272Y-225985573D01*
X70552015Y-226040151D01*
X70668414Y-226050500D01*
X70668420Y-226050500D01*
X71531580Y-226050500D01*
X71531586Y-226050500D01*
X71647985Y-226040151D01*
X71838728Y-225985573D01*
X72014579Y-225893716D01*
X72168340Y-225768340D01*
X72293716Y-225614579D01*
X72385573Y-225438728D01*
X72440151Y-225247985D01*
X72450500Y-225131586D01*
X72450500Y-224260645D01*
X74199500Y-224260645D01*
X74199500Y-228139363D01*
X74214953Y-228256753D01*
X74214956Y-228256762D01*
X74275464Y-228402841D01*
X74371718Y-228528282D01*
X74497159Y-228624536D01*
X74643238Y-228685044D01*
X74760639Y-228700500D01*
X76839360Y-228700499D01*
X76839363Y-228700499D01*
X76956753Y-228685046D01*
X76956757Y-228685044D01*
X76956762Y-228685044D01*
X77102841Y-228624536D01*
X77228282Y-228528282D01*
X77324536Y-228402841D01*
X77385044Y-228256762D01*
X77400500Y-228139361D01*
X77400501Y-224660637D01*
X77385044Y-224543238D01*
X77324536Y-224397159D01*
X77324535Y-224397158D01*
X77324535Y-224397157D01*
X77252450Y-224303214D01*
X77252444Y-224303207D01*
X76796788Y-223847552D01*
X76796781Y-223847546D01*
X76702842Y-223775464D01*
X76556762Y-223714956D01*
X76556760Y-223714955D01*
X76439370Y-223699501D01*
X76439367Y-223699500D01*
X76439361Y-223699500D01*
X76439354Y-223699500D01*
X74760636Y-223699500D01*
X74643246Y-223714953D01*
X74643237Y-223714956D01*
X74497160Y-223775463D01*
X74371718Y-223871718D01*
X74275463Y-223997160D01*
X74214956Y-224143237D01*
X74214955Y-224143239D01*
X74199501Y-224260629D01*
X74199500Y-224260645D01*
X72450500Y-224260645D01*
X72450500Y-223768414D01*
X72440151Y-223652015D01*
X72385573Y-223461272D01*
X72293716Y-223285421D01*
X72168340Y-223131660D01*
X72168336Y-223131655D01*
X72163894Y-223127213D01*
X72165703Y-223125403D01*
X72132579Y-223077088D01*
X72130498Y-223007249D01*
X72131804Y-223002626D01*
X72136746Y-222986333D01*
X72136747Y-222986331D01*
X72155099Y-222800000D01*
X72136747Y-222613669D01*
X72082396Y-222434499D01*
X72038469Y-222352317D01*
X71994137Y-222269376D01*
X71994135Y-222269373D01*
X71875357Y-222124642D01*
X71730626Y-222005864D01*
X71730623Y-222005862D01*
X71565502Y-221917604D01*
X71386333Y-221863253D01*
X71386331Y-221863252D01*
X71200000Y-221844901D01*
X71013668Y-221863252D01*
X71013666Y-221863253D01*
X70834497Y-221917604D01*
X70669376Y-222005862D01*
X70669373Y-222005864D01*
X70524642Y-222124642D01*
X70405864Y-222269373D01*
X70405862Y-222269376D01*
X70317604Y-222434497D01*
X70263253Y-222613666D01*
X70263252Y-222613668D01*
X70244901Y-222799999D01*
X70244904Y-222800030D01*
X70245500Y-222812174D01*
X70245500Y-222899903D01*
X70225815Y-222966942D01*
X70189740Y-223003437D01*
X70185424Y-223006281D01*
X70028360Y-223134350D01*
X69963963Y-223161459D01*
X69895134Y-223149450D01*
X69871638Y-223134350D01*
X69807666Y-223082188D01*
X69714579Y-223006285D01*
X69538728Y-222914428D01*
X69538727Y-222914427D01*
X69538726Y-222914427D01*
X69457139Y-222891082D01*
X69347985Y-222859850D01*
X69347982Y-222859849D01*
X69347980Y-222859849D01*
X69277017Y-222853540D01*
X69231586Y-222849501D01*
X68368414Y-222849501D01*
X68334340Y-222852530D01*
X68252019Y-222859849D01*
X68252016Y-222859849D01*
X68252015Y-222859850D01*
X68197438Y-222875466D01*
X68061273Y-222914427D01*
X67885422Y-223006284D01*
X67728361Y-223134350D01*
X67663964Y-223161459D01*
X67595135Y-223149450D01*
X67571639Y-223134350D01*
X67510503Y-223084500D01*
X67414579Y-223006284D01*
X67414578Y-223006283D01*
X67414575Y-223006281D01*
X67348085Y-222971549D01*
X67297778Y-222923062D01*
X67281497Y-222861641D01*
X67281497Y-221242000D01*
X68093901Y-221242000D01*
X68112252Y-221428331D01*
X68112253Y-221428333D01*
X68166604Y-221607502D01*
X68254862Y-221772623D01*
X68254864Y-221772626D01*
X68373642Y-221917357D01*
X68518373Y-222036135D01*
X68518376Y-222036137D01*
X68677884Y-222121395D01*
X68683499Y-222124396D01*
X68862666Y-222178746D01*
X68862668Y-222178747D01*
X68879374Y-222180392D01*
X69049000Y-222197099D01*
X69235331Y-222178747D01*
X69414501Y-222124396D01*
X69579625Y-222036136D01*
X69724357Y-221917357D01*
X69843136Y-221772625D01*
X69931396Y-221607501D01*
X69939558Y-221580595D01*
X69970536Y-221528908D01*
X70286735Y-221212711D01*
X70323399Y-221157839D01*
X70380249Y-221072757D01*
X70412996Y-220993696D01*
X70449866Y-220944506D01*
X70477941Y-220921940D01*
X70477945Y-220921934D01*
X70482699Y-220917182D01*
X70484065Y-220918548D01*
X70533686Y-220884000D01*
X70603507Y-220881414D01*
X70663643Y-220916987D01*
X70667129Y-220921010D01*
X70668061Y-220921942D01*
X70713862Y-220958758D01*
X70812246Y-221037842D01*
X70977978Y-221120037D01*
X71157500Y-221164682D01*
X71157501Y-221164682D01*
X71157504Y-221164683D01*
X71199045Y-221167500D01*
X71199047Y-221167500D01*
X71846951Y-221167500D01*
X71846953Y-221167500D01*
X71888494Y-221164683D01*
X72068020Y-221120037D01*
X72233752Y-221037842D01*
X72377939Y-220921940D01*
X72493841Y-220777753D01*
X72576036Y-220612021D01*
X72620682Y-220432495D01*
X72623499Y-220390954D01*
X72623499Y-219293046D01*
X72620682Y-219251505D01*
X72620568Y-219251048D01*
X72609755Y-219207566D01*
X72576036Y-219071979D01*
X72493841Y-218906247D01*
X72439237Y-218838317D01*
X72377939Y-218762059D01*
X72238530Y-218649999D01*
X72233752Y-218646158D01*
X72233750Y-218646157D01*
X72233749Y-218646156D01*
X72068022Y-218563964D01*
X72068020Y-218563963D01*
X71888496Y-218519317D01*
X71888500Y-218519317D01*
X71857338Y-218517204D01*
X71846953Y-218516500D01*
X71199045Y-218516500D01*
X71187176Y-218517304D01*
X71157499Y-218519317D01*
X70977977Y-218563963D01*
X70977975Y-218563964D01*
X70812248Y-218646156D01*
X70668057Y-218762061D01*
X70663301Y-218766818D01*
X70661936Y-218765453D01*
X70612297Y-218800004D01*
X70542475Y-218802580D01*
X70482344Y-218766998D01*
X70478872Y-218762991D01*
X70477942Y-218762061D01*
X70338532Y-218649999D01*
X70333754Y-218646158D01*
X70333752Y-218646157D01*
X70333751Y-218646156D01*
X70168024Y-218563964D01*
X70168022Y-218563963D01*
X69988498Y-218519317D01*
X69988502Y-218519317D01*
X69957340Y-218517204D01*
X69946955Y-218516500D01*
X69299047Y-218516500D01*
X69287178Y-218517304D01*
X69257501Y-218519317D01*
X69077979Y-218563963D01*
X69077977Y-218563964D01*
X68912250Y-218646156D01*
X68768060Y-218762059D01*
X68652157Y-218906249D01*
X68569965Y-219071976D01*
X68569964Y-219071978D01*
X68525318Y-219251500D01*
X68522501Y-219293048D01*
X68522501Y-220385830D01*
X68502816Y-220452869D01*
X68477166Y-220481683D01*
X68373642Y-220566642D01*
X68254864Y-220711373D01*
X68254862Y-220711376D01*
X68166604Y-220876497D01*
X68112253Y-221055666D01*
X68112252Y-221055668D01*
X68093901Y-221242000D01*
X67281497Y-221242000D01*
X67281497Y-220743322D01*
X67294409Y-220688227D01*
X67335258Y-220605862D01*
X67353034Y-220570021D01*
X67397680Y-220390495D01*
X67400497Y-220348954D01*
X67400497Y-219251046D01*
X67397680Y-219209505D01*
X67394132Y-219195240D01*
X67386753Y-219165566D01*
X67353034Y-219029979D01*
X67270839Y-218864247D01*
X67201781Y-218778336D01*
X67154937Y-218720059D01*
X67052782Y-218637945D01*
X67010750Y-218604158D01*
X67010748Y-218604157D01*
X67010747Y-218604156D01*
X66845020Y-218521964D01*
X66845018Y-218521963D01*
X66665494Y-218477317D01*
X66665498Y-218477317D01*
X66634336Y-218475204D01*
X66623951Y-218474500D01*
X65976043Y-218474500D01*
X65964174Y-218475304D01*
X65934497Y-218477317D01*
X65754975Y-218521963D01*
X65754973Y-218521964D01*
X65589246Y-218604156D01*
X65445055Y-218720061D01*
X65440299Y-218724818D01*
X65438934Y-218723453D01*
X65389295Y-218758004D01*
X65319473Y-218760580D01*
X65259342Y-218724998D01*
X65255870Y-218720991D01*
X65254940Y-218720061D01*
X65167780Y-218649999D01*
X65110752Y-218604158D01*
X65110750Y-218604157D01*
X65110749Y-218604156D01*
X64945022Y-218521964D01*
X64945020Y-218521963D01*
X64765496Y-218477317D01*
X64765500Y-218477317D01*
X64734338Y-218475204D01*
X64723953Y-218474500D01*
X64076045Y-218474500D01*
X64064176Y-218475304D01*
X64034499Y-218477317D01*
X63854977Y-218521963D01*
X63854975Y-218521964D01*
X63689248Y-218604156D01*
X63545058Y-218720059D01*
X63429155Y-218864249D01*
X63346963Y-219029976D01*
X63346962Y-219029978D01*
X63302316Y-219209500D01*
X63299499Y-219251048D01*
X63299499Y-220309005D01*
X63279814Y-220376044D01*
X63233955Y-220418362D01*
X63184371Y-220444866D01*
X63039642Y-220563642D01*
X62920864Y-220708373D01*
X62920862Y-220708376D01*
X62832604Y-220873497D01*
X62778253Y-221052666D01*
X62778252Y-221052668D01*
X62759901Y-221239000D01*
X62778252Y-221425331D01*
X62778253Y-221425333D01*
X62832604Y-221604502D01*
X62920862Y-221769623D01*
X62920864Y-221769626D01*
X63039642Y-221914357D01*
X63184373Y-222033135D01*
X63184376Y-222033137D01*
X63263365Y-222075357D01*
X63349499Y-222121396D01*
X63528666Y-222175746D01*
X63528668Y-222175747D01*
X63545374Y-222177392D01*
X63715000Y-222194099D01*
X63901331Y-222175747D01*
X64080501Y-222121396D01*
X64245625Y-222033136D01*
X64390357Y-221914357D01*
X64509136Y-221769625D01*
X64597396Y-221604501D01*
X64605558Y-221577592D01*
X64636534Y-221525910D01*
X65063733Y-221098713D01*
X65081074Y-221072761D01*
X65091395Y-221057315D01*
X65145007Y-221012509D01*
X65214332Y-221003802D01*
X65277359Y-221033956D01*
X65314079Y-221093399D01*
X65318497Y-221126205D01*
X65318497Y-223231604D01*
X65304406Y-223289015D01*
X65214426Y-223461273D01*
X65159849Y-223652016D01*
X65159848Y-223652019D01*
X65149500Y-223768417D01*
X65149500Y-225131582D01*
X65159848Y-225247980D01*
X65159848Y-225247982D01*
X65159849Y-225247985D01*
X65214427Y-225438728D01*
X65306284Y-225614579D01*
X65350000Y-225668192D01*
X65429466Y-225765650D01*
X65431660Y-225768340D01*
X65472860Y-225801934D01*
X65512377Y-225859552D01*
X65518500Y-225898035D01*
X65518500Y-226042087D01*
X65498815Y-226109126D01*
X65482181Y-226129768D01*
X63879769Y-227732180D01*
X63818446Y-227765665D01*
X63792088Y-227768499D01*
X61524000Y-227768499D01*
X61456961Y-227748814D01*
X61411206Y-227696010D01*
X61400000Y-227644499D01*
X61400000Y-216086362D01*
X61419685Y-216019323D01*
X61436319Y-215998681D01*
X61911000Y-215524000D01*
X63441514Y-215524000D01*
X63461410Y-215726011D01*
X63520337Y-215920267D01*
X63616021Y-216099279D01*
X63616025Y-216099286D01*
X63744800Y-216256199D01*
X63901713Y-216384974D01*
X63901720Y-216384978D01*
X64080732Y-216480662D01*
X64080734Y-216480662D01*
X64080737Y-216480664D01*
X64274987Y-216539589D01*
X64274986Y-216539589D01*
X64293099Y-216541372D01*
X64477000Y-216559486D01*
X64679013Y-216539589D01*
X64873263Y-216480664D01*
X65052285Y-216384975D01*
X65209199Y-216256199D01*
X65337975Y-216099285D01*
X65433664Y-215920263D01*
X65492589Y-215726013D01*
X65512486Y-215524000D01*
X65492589Y-215321987D01*
X65433664Y-215127737D01*
X65433662Y-215127734D01*
X65433662Y-215127732D01*
X65337978Y-214948720D01*
X65337974Y-214948713D01*
X65209199Y-214791800D01*
X65052286Y-214663025D01*
X65052279Y-214663021D01*
X64873267Y-214567337D01*
X64776138Y-214537873D01*
X64679013Y-214508411D01*
X64679011Y-214508410D01*
X64679013Y-214508410D01*
X64477000Y-214488514D01*
X64274988Y-214508410D01*
X64080732Y-214567337D01*
X63901720Y-214663021D01*
X63901713Y-214663025D01*
X63744800Y-214791800D01*
X63616025Y-214948713D01*
X63616021Y-214948720D01*
X63520337Y-215127732D01*
X63461410Y-215321988D01*
X63441514Y-215524000D01*
X61911000Y-215524000D01*
X63863681Y-213571319D01*
X63925004Y-213537834D01*
X63951362Y-213535000D01*
X68804501Y-213535000D01*
X68871540Y-213554685D01*
G37*
%TD.AperFunction*%
%TA.AperFunction,NonConductor*%
G36*
X52066645Y-227456250D02*
G01*
X52092212Y-227480265D01*
X52481315Y-227966644D01*
X52507823Y-228031289D01*
X52508479Y-228042714D01*
X52523126Y-229348638D01*
X52539000Y-230764000D01*
X53047000Y-231526000D01*
X56805638Y-231526000D01*
X56872677Y-231545685D01*
X56893319Y-231562319D01*
X57412472Y-232081472D01*
X57445957Y-232142795D01*
X57440973Y-232212487D01*
X57399101Y-232268420D01*
X57333637Y-232292837D01*
X57310010Y-232292269D01*
X57277784Y-232288399D01*
X56428216Y-232288399D01*
X56378133Y-232294413D01*
X56345083Y-232298382D01*
X56315517Y-232298382D01*
X56277079Y-232293766D01*
X56232383Y-232288399D01*
X55433615Y-232288399D01*
X55387522Y-232293934D01*
X55347783Y-232298706D01*
X55318217Y-232298706D01*
X55278477Y-232293934D01*
X55232385Y-232288399D01*
X54433617Y-232288399D01*
X54383534Y-232294413D01*
X54350484Y-232298382D01*
X54320918Y-232298382D01*
X54282480Y-232293766D01*
X54237784Y-232288399D01*
X53388216Y-232288399D01*
X53298333Y-232299193D01*
X53298332Y-232299193D01*
X53256188Y-232315812D01*
X53186601Y-232322093D01*
X53165212Y-232315812D01*
X53123067Y-232299193D01*
X53123059Y-232299192D01*
X53033184Y-232288399D01*
X52132816Y-232288399D01*
X52092353Y-232293258D01*
X52042934Y-232299192D01*
X51899901Y-232355597D01*
X51877460Y-232372615D01*
X51812148Y-232397437D01*
X51743784Y-232383008D01*
X51729661Y-232374135D01*
X51654317Y-232319394D01*
X51592360Y-232274379D01*
X51592357Y-232274378D01*
X51592358Y-232274378D01*
X51592356Y-232274377D01*
X51541340Y-232248383D01*
X51437326Y-232195385D01*
X51437323Y-232195384D01*
X51271850Y-232141619D01*
X51157280Y-232123473D01*
X51099997Y-232114400D01*
X50926003Y-232114400D01*
X50868719Y-232123473D01*
X50754150Y-232141619D01*
X50754147Y-232141619D01*
X50588676Y-232195384D01*
X50588673Y-232195385D01*
X50433642Y-232274378D01*
X50433639Y-232274380D01*
X50358139Y-232329234D01*
X50292880Y-232376648D01*
X50292878Y-232376650D01*
X50292877Y-232376650D01*
X50169850Y-232499677D01*
X50169850Y-232499678D01*
X50169848Y-232499680D01*
X50166640Y-232504096D01*
X50107603Y-232585353D01*
X50052273Y-232628018D01*
X49982659Y-232633997D01*
X49920864Y-232601391D01*
X49886507Y-232540552D01*
X49883287Y-232511828D01*
X49891064Y-231003339D01*
X49891064Y-231003336D01*
X49508001Y-230200001D01*
X49508000Y-230200000D01*
X49507999Y-230200000D01*
X48759362Y-230200000D01*
X48692323Y-230180315D01*
X48671681Y-230163681D01*
X47944319Y-229436319D01*
X47910834Y-229374996D01*
X47908000Y-229348638D01*
X47908000Y-227851362D01*
X47927685Y-227784323D01*
X47944319Y-227763681D01*
X48214542Y-227493457D01*
X48275863Y-227459974D01*
X48345554Y-227464958D01*
X48401488Y-227506829D01*
X48425905Y-227572294D01*
X48425647Y-227589396D01*
X48425861Y-227589407D01*
X48425700Y-227592569D01*
X48425700Y-228855443D01*
X48436235Y-228958560D01*
X48436236Y-228958567D01*
X48491607Y-229125666D01*
X48491612Y-229125677D01*
X48584021Y-229275494D01*
X48584024Y-229275498D01*
X48708501Y-229399975D01*
X48708505Y-229399978D01*
X48858322Y-229492387D01*
X48858325Y-229492388D01*
X48858331Y-229492392D01*
X49025433Y-229547764D01*
X49128564Y-229558300D01*
X49128569Y-229558300D01*
X51171431Y-229558300D01*
X51171436Y-229558300D01*
X51274567Y-229547764D01*
X51441669Y-229492392D01*
X51591498Y-229399976D01*
X51715976Y-229275498D01*
X51808392Y-229125669D01*
X51863764Y-228958567D01*
X51874300Y-228855436D01*
X51874300Y-227592564D01*
X51874299Y-227592554D01*
X51872029Y-227570332D01*
X51884798Y-227501639D01*
X51932679Y-227450755D01*
X52000469Y-227433834D01*
X52066645Y-227456250D01*
G37*
%TD.AperFunction*%
%TA.AperFunction,NonConductor*%
G36*
X55433615Y-234600799D02*
G01*
X55433616Y-234600799D01*
X56232383Y-234600799D01*
X56315512Y-234590815D01*
X56345077Y-234590815D01*
X56428216Y-234600799D01*
X56428223Y-234600799D01*
X57186231Y-234600799D01*
X57253270Y-234620484D01*
X57299025Y-234673288D01*
X57308969Y-234742446D01*
X57279944Y-234806002D01*
X57270641Y-234815634D01*
X57019689Y-235048835D01*
X56957180Y-235080051D01*
X56935279Y-235082000D01*
X54063000Y-235082000D01*
X53431815Y-235082000D01*
X53364776Y-235062315D01*
X53324427Y-235019999D01*
X53285912Y-234953288D01*
X53269300Y-234891289D01*
X53269300Y-234724799D01*
X53288985Y-234657760D01*
X53341789Y-234612005D01*
X53393300Y-234600799D01*
X54237784Y-234600799D01*
X54320913Y-234590815D01*
X54350478Y-234590815D01*
X54433617Y-234600799D01*
X54433624Y-234600799D01*
X55232384Y-234600799D01*
X55232385Y-234600799D01*
X55318221Y-234590491D01*
X55347779Y-234590491D01*
X55433615Y-234600799D01*
G37*
%TD.AperFunction*%
%TA.AperFunction,NonConductor*%
G36*
X50078606Y-234429176D02*
G01*
X50097239Y-234449583D01*
X50101097Y-234454893D01*
X50169848Y-234549520D01*
X50292880Y-234672552D01*
X50433644Y-234774823D01*
X50513741Y-234815634D01*
X50576311Y-234847515D01*
X50627107Y-234895490D01*
X50643902Y-234963311D01*
X50621365Y-235029446D01*
X50566649Y-235072897D01*
X50520016Y-235082000D01*
X50421333Y-235082000D01*
X50354294Y-235062315D01*
X50346933Y-235057200D01*
X49921919Y-234738439D01*
X49880098Y-234682468D01*
X49872321Y-234638603D01*
X49872923Y-234521827D01*
X49892953Y-234454893D01*
X49945992Y-234409411D01*
X50015201Y-234399824D01*
X50078606Y-234429176D01*
G37*
%TD.AperFunction*%
%TA.AperFunction,NonConductor*%
G36*
X55383237Y-212086310D02*
G01*
X55437723Y-212130048D01*
X55459912Y-212196301D01*
X55460000Y-212200960D01*
X55460000Y-212678638D01*
X55440315Y-212745677D01*
X55423681Y-212766319D01*
X54861319Y-213328681D01*
X54799996Y-213362166D01*
X54773638Y-213365000D01*
X54245258Y-213365000D01*
X54178219Y-213345315D01*
X54132464Y-213292511D01*
X54122520Y-213223353D01*
X54151545Y-213159797D01*
X54210323Y-213122023D01*
X54224849Y-213118691D01*
X54227330Y-213118276D01*
X54246650Y-213115053D01*
X54458961Y-213042166D01*
X54656380Y-212935328D01*
X54833522Y-212797453D01*
X54985554Y-212632302D01*
X55108330Y-212444380D01*
X55198500Y-212238813D01*
X55215794Y-212170519D01*
X55251334Y-212110364D01*
X55313754Y-212078972D01*
X55383237Y-212086310D01*
G37*
%TD.AperFunction*%
%TA.AperFunction,NonConductor*%
G36*
X50228316Y-210844685D02*
G01*
X50274071Y-210897489D01*
X50284015Y-210966647D01*
X50265085Y-211016822D01*
X50177670Y-211150618D01*
X50087499Y-211356188D01*
X50032394Y-211573796D01*
X50013858Y-211797494D01*
X50013858Y-211797505D01*
X50032394Y-212021203D01*
X50087499Y-212238811D01*
X50177670Y-212444381D01*
X50206808Y-212488979D01*
X50300446Y-212632302D01*
X50452478Y-212797453D01*
X50452481Y-212797455D01*
X50452484Y-212797458D01*
X50629611Y-212935322D01*
X50629617Y-212935326D01*
X50629620Y-212935328D01*
X50827039Y-213042166D01*
X51039350Y-213115053D01*
X51260763Y-213152000D01*
X51485237Y-213152000D01*
X51706650Y-213115053D01*
X51918961Y-213042166D01*
X52116380Y-212935328D01*
X52293522Y-212797453D01*
X52445554Y-212632302D01*
X52539192Y-212488979D01*
X52592338Y-212443623D01*
X52661569Y-212434199D01*
X52724905Y-212463701D01*
X52746808Y-212488979D01*
X52840446Y-212632302D01*
X52992478Y-212797453D01*
X52992481Y-212797455D01*
X52992484Y-212797458D01*
X53169611Y-212935322D01*
X53169617Y-212935326D01*
X53169620Y-212935328D01*
X53367039Y-213042166D01*
X53579350Y-213115053D01*
X53749948Y-213143520D01*
X53812832Y-213173970D01*
X53849272Y-213233585D01*
X53847697Y-213303437D01*
X53826366Y-213343291D01*
X52793000Y-214634999D01*
X52793000Y-219537783D01*
X52773994Y-219603755D01*
X52728627Y-219675955D01*
X52669513Y-219844895D01*
X52669512Y-219844898D01*
X52654500Y-219978139D01*
X52654500Y-221153875D01*
X52634815Y-221220914D01*
X52604900Y-221253075D01*
X52026675Y-221686743D01*
X51961233Y-221711219D01*
X51892946Y-221696429D01*
X51843496Y-221647068D01*
X51828583Y-221578808D01*
X51839244Y-221538676D01*
X51839073Y-221538616D01*
X51839853Y-221536386D01*
X51840557Y-221533737D01*
X51841373Y-221532042D01*
X51864430Y-221466148D01*
X51900486Y-221363106D01*
X51915500Y-221229856D01*
X51915500Y-219978144D01*
X51903758Y-219873933D01*
X51900487Y-219844898D01*
X51900486Y-219844895D01*
X51841372Y-219675955D01*
X51746149Y-219524410D01*
X51619589Y-219397850D01*
X51468044Y-219302627D01*
X51299104Y-219243513D01*
X51299101Y-219243512D01*
X51165860Y-219228500D01*
X51165856Y-219228500D01*
X49134144Y-219228500D01*
X49134140Y-219228500D01*
X49000898Y-219243512D01*
X49000895Y-219243513D01*
X48831955Y-219302627D01*
X48680410Y-219397850D01*
X48553850Y-219524410D01*
X48458627Y-219675955D01*
X48399513Y-219844895D01*
X48399512Y-219844898D01*
X48384500Y-219978139D01*
X48384500Y-221229860D01*
X48399512Y-221363101D01*
X48399513Y-221363105D01*
X48458152Y-221530687D01*
X48461713Y-221600466D01*
X48426984Y-221661093D01*
X48364990Y-221693320D01*
X48295415Y-221686914D01*
X48244282Y-221649103D01*
X48205372Y-221600466D01*
X47740172Y-221018965D01*
X47713664Y-220954319D01*
X47713000Y-220941503D01*
X47713000Y-212770593D01*
X47732685Y-212703554D01*
X47737006Y-212697264D01*
X47889749Y-212488979D01*
X49072841Y-210875670D01*
X49128359Y-210833251D01*
X49172835Y-210825000D01*
X50161277Y-210825000D01*
X50228316Y-210844685D01*
G37*
%TD.AperFunction*%
%TA.AperFunction,NonConductor*%
G36*
X48683374Y-221812012D02*
G01*
X48761510Y-221861108D01*
X48831957Y-221905373D01*
X49000894Y-221964486D01*
X49000895Y-221964486D01*
X49000898Y-221964487D01*
X49075132Y-221972850D01*
X49134139Y-221979499D01*
X49134140Y-221979500D01*
X49134144Y-221979500D01*
X51165860Y-221979500D01*
X51165860Y-221979499D01*
X51223262Y-221973031D01*
X51266627Y-221968146D01*
X51335449Y-221980200D01*
X51386828Y-222027549D01*
X51404453Y-222095159D01*
X51382727Y-222161565D01*
X51354912Y-222190565D01*
X51302068Y-222230199D01*
X51236626Y-222254676D01*
X51227667Y-222255000D01*
X48788598Y-222255000D01*
X48721559Y-222235315D01*
X48691770Y-222208462D01*
X48520574Y-221994468D01*
X48494066Y-221929823D01*
X48506716Y-221861108D01*
X48554508Y-221810140D01*
X48622268Y-221793102D01*
X48683374Y-221812012D01*
G37*
%TD.AperFunction*%
M02*
