%TF.GenerationSoftware,KiCad,Pcbnew,8.0.8-8.0.8-0~ubuntu24.04.1*%
%TF.CreationDate,2025-08-07T23:42:04-04:00*%
%TF.ProjectId,stencil,7374656e-6369-46c2-9e6b-696361645f70,rev?*%
%TF.SameCoordinates,Original*%
%TF.FileFunction,Legend,Bot*%
%TF.FilePolarity,Positive*%
%FSLAX46Y46*%
G04 Gerber Fmt 4.6, Leading zero omitted, Abs format (unit mm)*
G04 Created by KiCad (PCBNEW 8.0.8-8.0.8-0~ubuntu24.04.1) date 2025-08-07 23:42:04*
%MOMM*%
%LPD*%
G01*
G04 APERTURE LIST*
%ADD10C,0.200000*%
%ADD11C,0.152400*%
%ADD12C,0.508000*%
%ADD13C,0.150000*%
%ADD14C,0.120000*%
G04 APERTURE END LIST*
D10*
X49882219Y-223735863D02*
X49882219Y-223259673D01*
X49882219Y-223259673D02*
X50358409Y-223212054D01*
X50358409Y-223212054D02*
X50310790Y-223259673D01*
X50310790Y-223259673D02*
X50263171Y-223354911D01*
X50263171Y-223354911D02*
X50263171Y-223593006D01*
X50263171Y-223593006D02*
X50310790Y-223688244D01*
X50310790Y-223688244D02*
X50358409Y-223735863D01*
X50358409Y-223735863D02*
X50453647Y-223783482D01*
X50453647Y-223783482D02*
X50691742Y-223783482D01*
X50691742Y-223783482D02*
X50786980Y-223735863D01*
X50786980Y-223735863D02*
X50834600Y-223688244D01*
X50834600Y-223688244D02*
X50882219Y-223593006D01*
X50882219Y-223593006D02*
X50882219Y-223354911D01*
X50882219Y-223354911D02*
X50834600Y-223259673D01*
X50834600Y-223259673D02*
X50786980Y-223212054D01*
X50215552Y-224116816D02*
X50882219Y-224354911D01*
X50882219Y-224354911D02*
X50215552Y-224593006D01*
X49882219Y-225450149D02*
X49882219Y-224973959D01*
X49882219Y-224973959D02*
X50358409Y-224926340D01*
X50358409Y-224926340D02*
X50310790Y-224973959D01*
X50310790Y-224973959D02*
X50263171Y-225069197D01*
X50263171Y-225069197D02*
X50263171Y-225307292D01*
X50263171Y-225307292D02*
X50310790Y-225402530D01*
X50310790Y-225402530D02*
X50358409Y-225450149D01*
X50358409Y-225450149D02*
X50453647Y-225497768D01*
X50453647Y-225497768D02*
X50691742Y-225497768D01*
X50691742Y-225497768D02*
X50786980Y-225450149D01*
X50786980Y-225450149D02*
X50834600Y-225402530D01*
X50834600Y-225402530D02*
X50882219Y-225307292D01*
X50882219Y-225307292D02*
X50882219Y-225069197D01*
X50882219Y-225069197D02*
X50834600Y-224973959D01*
X50834600Y-224973959D02*
X50786980Y-224926340D01*
D11*
X193479487Y-36149001D02*
X211633487Y-36149001D01*
X211633487Y-45903000D02*
X210428584Y-45903000D01*
X193479487Y-36149001D02*
X193479487Y-45903000D01*
X211633487Y-45903000D02*
X211633487Y-36149001D01*
X194684387Y-45903000D02*
X193479487Y-45903000D01*
D10*
X62436904Y-208662219D02*
X61865476Y-208662219D01*
X62151190Y-209662219D02*
X62151190Y-208662219D01*
X61532142Y-209662219D02*
X61532142Y-208662219D01*
X61532142Y-208662219D02*
X61151190Y-208662219D01*
X61151190Y-208662219D02*
X61055952Y-208709838D01*
X61055952Y-208709838D02*
X61008333Y-208757457D01*
X61008333Y-208757457D02*
X60960714Y-208852695D01*
X60960714Y-208852695D02*
X60960714Y-208995552D01*
X60960714Y-208995552D02*
X61008333Y-209090790D01*
X61008333Y-209090790D02*
X61055952Y-209138409D01*
X61055952Y-209138409D02*
X61151190Y-209186028D01*
X61151190Y-209186028D02*
X61532142Y-209186028D01*
X60103571Y-208662219D02*
X60294047Y-208662219D01*
X60294047Y-208662219D02*
X60389285Y-208709838D01*
X60389285Y-208709838D02*
X60436904Y-208757457D01*
X60436904Y-208757457D02*
X60532142Y-208900314D01*
X60532142Y-208900314D02*
X60579761Y-209090790D01*
X60579761Y-209090790D02*
X60579761Y-209471742D01*
X60579761Y-209471742D02*
X60532142Y-209566980D01*
X60532142Y-209566980D02*
X60484523Y-209614600D01*
X60484523Y-209614600D02*
X60389285Y-209662219D01*
X60389285Y-209662219D02*
X60198809Y-209662219D01*
X60198809Y-209662219D02*
X60103571Y-209614600D01*
X60103571Y-209614600D02*
X60055952Y-209566980D01*
X60055952Y-209566980D02*
X60008333Y-209471742D01*
X60008333Y-209471742D02*
X60008333Y-209233647D01*
X60008333Y-209233647D02*
X60055952Y-209138409D01*
X60055952Y-209138409D02*
X60103571Y-209090790D01*
X60103571Y-209090790D02*
X60198809Y-209043171D01*
X60198809Y-209043171D02*
X60389285Y-209043171D01*
X60389285Y-209043171D02*
X60484523Y-209090790D01*
X60484523Y-209090790D02*
X60532142Y-209138409D01*
X60532142Y-209138409D02*
X60579761Y-209233647D01*
X93076981Y-216183332D02*
X93124601Y-216135713D01*
X93124601Y-216135713D02*
X93172220Y-215992856D01*
X93172220Y-215992856D02*
X93172220Y-215897618D01*
X93172220Y-215897618D02*
X93124601Y-215754761D01*
X93124601Y-215754761D02*
X93029362Y-215659523D01*
X93029362Y-215659523D02*
X92934124Y-215611904D01*
X92934124Y-215611904D02*
X92743648Y-215564285D01*
X92743648Y-215564285D02*
X92600791Y-215564285D01*
X92600791Y-215564285D02*
X92410315Y-215611904D01*
X92410315Y-215611904D02*
X92315077Y-215659523D01*
X92315077Y-215659523D02*
X92219839Y-215754761D01*
X92219839Y-215754761D02*
X92172220Y-215897618D01*
X92172220Y-215897618D02*
X92172220Y-215992856D01*
X92172220Y-215992856D02*
X92219839Y-216135713D01*
X92219839Y-216135713D02*
X92267458Y-216183332D01*
X92172220Y-216516666D02*
X92172220Y-217183332D01*
X92172220Y-217183332D02*
X93172220Y-216754761D01*
X96532218Y-214802379D02*
X96532218Y-214230951D01*
X96532218Y-214516665D02*
X95532218Y-214516665D01*
X95532218Y-214516665D02*
X95675075Y-214421427D01*
X95675075Y-214421427D02*
X95770313Y-214326189D01*
X95770313Y-214326189D02*
X95817932Y-214230951D01*
X95532218Y-215421427D02*
X95532218Y-215516665D01*
X95532218Y-215516665D02*
X95579837Y-215611903D01*
X95579837Y-215611903D02*
X95627456Y-215659522D01*
X95627456Y-215659522D02*
X95722694Y-215707141D01*
X95722694Y-215707141D02*
X95913170Y-215754760D01*
X95913170Y-215754760D02*
X96151265Y-215754760D01*
X96151265Y-215754760D02*
X96341741Y-215707141D01*
X96341741Y-215707141D02*
X96436979Y-215659522D01*
X96436979Y-215659522D02*
X96484599Y-215611903D01*
X96484599Y-215611903D02*
X96532218Y-215516665D01*
X96532218Y-215516665D02*
X96532218Y-215421427D01*
X96532218Y-215421427D02*
X96484599Y-215326189D01*
X96484599Y-215326189D02*
X96436979Y-215278570D01*
X96436979Y-215278570D02*
X96341741Y-215230951D01*
X96341741Y-215230951D02*
X96151265Y-215183332D01*
X96151265Y-215183332D02*
X95913170Y-215183332D01*
X95913170Y-215183332D02*
X95722694Y-215230951D01*
X95722694Y-215230951D02*
X95627456Y-215278570D01*
X95627456Y-215278570D02*
X95579837Y-215326189D01*
X95579837Y-215326189D02*
X95532218Y-215421427D01*
X95532218Y-216373808D02*
X95532218Y-216469046D01*
X95532218Y-216469046D02*
X95579837Y-216564284D01*
X95579837Y-216564284D02*
X95627456Y-216611903D01*
X95627456Y-216611903D02*
X95722694Y-216659522D01*
X95722694Y-216659522D02*
X95913170Y-216707141D01*
X95913170Y-216707141D02*
X96151265Y-216707141D01*
X96151265Y-216707141D02*
X96341741Y-216659522D01*
X96341741Y-216659522D02*
X96436979Y-216611903D01*
X96436979Y-216611903D02*
X96484599Y-216564284D01*
X96484599Y-216564284D02*
X96532218Y-216469046D01*
X96532218Y-216469046D02*
X96532218Y-216373808D01*
X96532218Y-216373808D02*
X96484599Y-216278570D01*
X96484599Y-216278570D02*
X96436979Y-216230951D01*
X96436979Y-216230951D02*
X96341741Y-216183332D01*
X96341741Y-216183332D02*
X96151265Y-216135713D01*
X96151265Y-216135713D02*
X95913170Y-216135713D01*
X95913170Y-216135713D02*
X95722694Y-216183332D01*
X95722694Y-216183332D02*
X95627456Y-216230951D01*
X95627456Y-216230951D02*
X95579837Y-216278570D01*
X95579837Y-216278570D02*
X95532218Y-216373808D01*
X95865551Y-217135713D02*
X96532218Y-217135713D01*
X95960789Y-217135713D02*
X95913170Y-217183332D01*
X95913170Y-217183332D02*
X95865551Y-217278570D01*
X95865551Y-217278570D02*
X95865551Y-217421427D01*
X95865551Y-217421427D02*
X95913170Y-217516665D01*
X95913170Y-217516665D02*
X96008408Y-217564284D01*
X96008408Y-217564284D02*
X96532218Y-217564284D01*
X96008408Y-218373808D02*
X96008408Y-218040475D01*
X96532218Y-218040475D02*
X95532218Y-218040475D01*
X95532218Y-218040475D02*
X95532218Y-218516665D01*
X80182335Y-205546633D02*
X80249678Y-205546633D01*
X80249678Y-205546633D02*
X80384365Y-205479290D01*
X80384365Y-205479290D02*
X80451709Y-205411946D01*
X80451709Y-205411946D02*
X80519052Y-205277259D01*
X80519052Y-205277259D02*
X80519052Y-205142572D01*
X80519052Y-205142572D02*
X80485381Y-205041557D01*
X80485381Y-205041557D02*
X80384365Y-204873198D01*
X80384365Y-204873198D02*
X80283350Y-204772183D01*
X80283350Y-204772183D02*
X80114991Y-204671168D01*
X80114991Y-204671168D02*
X80013976Y-204637496D01*
X80013976Y-204637496D02*
X79879289Y-204637496D01*
X79879289Y-204637496D02*
X79744602Y-204704840D01*
X79744602Y-204704840D02*
X79677259Y-204772183D01*
X79677259Y-204772183D02*
X79609915Y-204906870D01*
X79609915Y-204906870D02*
X79609915Y-204974214D01*
X78936480Y-205512962D02*
X79071167Y-205378275D01*
X79071167Y-205378275D02*
X79172182Y-205344603D01*
X79172182Y-205344603D02*
X79239526Y-205344603D01*
X79239526Y-205344603D02*
X79407885Y-205378275D01*
X79407885Y-205378275D02*
X79576243Y-205479290D01*
X79576243Y-205479290D02*
X79845617Y-205748664D01*
X79845617Y-205748664D02*
X79879289Y-205849679D01*
X79879289Y-205849679D02*
X79879289Y-205917023D01*
X79879289Y-205917023D02*
X79845617Y-206018038D01*
X79845617Y-206018038D02*
X79710930Y-206152725D01*
X79710930Y-206152725D02*
X79609915Y-206186397D01*
X79609915Y-206186397D02*
X79542572Y-206186397D01*
X79542572Y-206186397D02*
X79441556Y-206152725D01*
X79441556Y-206152725D02*
X79273198Y-205984366D01*
X79273198Y-205984366D02*
X79239526Y-205883351D01*
X79239526Y-205883351D02*
X79239526Y-205816007D01*
X79239526Y-205816007D02*
X79273198Y-205714992D01*
X79273198Y-205714992D02*
X79407885Y-205580305D01*
X79407885Y-205580305D02*
X79508900Y-205546633D01*
X79508900Y-205546633D02*
X79576243Y-205546633D01*
X79576243Y-205546633D02*
X79677259Y-205580305D01*
X83602038Y-207013374D02*
X84006099Y-206609313D01*
X83804068Y-206811343D02*
X83096961Y-206104236D01*
X83096961Y-206104236D02*
X83265320Y-206137908D01*
X83265320Y-206137908D02*
X83400007Y-206137908D01*
X83400007Y-206137908D02*
X83501022Y-206104236D01*
X82457198Y-206744000D02*
X82389855Y-206811343D01*
X82389855Y-206811343D02*
X82356183Y-206912358D01*
X82356183Y-206912358D02*
X82356183Y-206979702D01*
X82356183Y-206979702D02*
X82389855Y-207080717D01*
X82389855Y-207080717D02*
X82490870Y-207249076D01*
X82490870Y-207249076D02*
X82659229Y-207417435D01*
X82659229Y-207417435D02*
X82827587Y-207518450D01*
X82827587Y-207518450D02*
X82928603Y-207552122D01*
X82928603Y-207552122D02*
X82995946Y-207552122D01*
X82995946Y-207552122D02*
X83096961Y-207518450D01*
X83096961Y-207518450D02*
X83164305Y-207451106D01*
X83164305Y-207451106D02*
X83197977Y-207350091D01*
X83197977Y-207350091D02*
X83197977Y-207282748D01*
X83197977Y-207282748D02*
X83164305Y-207181732D01*
X83164305Y-207181732D02*
X83063290Y-207013374D01*
X83063290Y-207013374D02*
X82894931Y-206845015D01*
X82894931Y-206845015D02*
X82726572Y-206744000D01*
X82726572Y-206744000D02*
X82625557Y-206710328D01*
X82625557Y-206710328D02*
X82558213Y-206710328D01*
X82558213Y-206710328D02*
X82457198Y-206744000D01*
X81783763Y-207417435D02*
X81716420Y-207484778D01*
X81716420Y-207484778D02*
X81682748Y-207585793D01*
X81682748Y-207585793D02*
X81682748Y-207653137D01*
X81682748Y-207653137D02*
X81716420Y-207754152D01*
X81716420Y-207754152D02*
X81817435Y-207922511D01*
X81817435Y-207922511D02*
X81985794Y-208090870D01*
X81985794Y-208090870D02*
X82154152Y-208191885D01*
X82154152Y-208191885D02*
X82255168Y-208225557D01*
X82255168Y-208225557D02*
X82322511Y-208225557D01*
X82322511Y-208225557D02*
X82423526Y-208191885D01*
X82423526Y-208191885D02*
X82490870Y-208124541D01*
X82490870Y-208124541D02*
X82524542Y-208023526D01*
X82524542Y-208023526D02*
X82524542Y-207956183D01*
X82524542Y-207956183D02*
X82490870Y-207855167D01*
X82490870Y-207855167D02*
X82389855Y-207686809D01*
X82389855Y-207686809D02*
X82221496Y-207518450D01*
X82221496Y-207518450D02*
X82053137Y-207417435D01*
X82053137Y-207417435D02*
X81952122Y-207383763D01*
X81952122Y-207383763D02*
X81884778Y-207383763D01*
X81884778Y-207383763D02*
X81783763Y-207417435D01*
X81480717Y-208191885D02*
X81952122Y-208663290D01*
X81548061Y-208259229D02*
X81480717Y-208259229D01*
X81480717Y-208259229D02*
X81379702Y-208292900D01*
X81379702Y-208292900D02*
X81278687Y-208393916D01*
X81278687Y-208393916D02*
X81245015Y-208494931D01*
X81245015Y-208494931D02*
X81278687Y-208595946D01*
X81278687Y-208595946D02*
X81649076Y-208966335D01*
X80706267Y-209168366D02*
X80941969Y-208932664D01*
X81312358Y-209303053D02*
X80605252Y-208595946D01*
X80605252Y-208595946D02*
X80268534Y-208932664D01*
X55547219Y-222898095D02*
X55547219Y-223469523D01*
X56547219Y-223183809D02*
X55547219Y-223183809D01*
X56547219Y-223802857D02*
X55547219Y-223802857D01*
X55547219Y-223802857D02*
X55547219Y-224183809D01*
X55547219Y-224183809D02*
X55594838Y-224279047D01*
X55594838Y-224279047D02*
X55642457Y-224326666D01*
X55642457Y-224326666D02*
X55737695Y-224374285D01*
X55737695Y-224374285D02*
X55880552Y-224374285D01*
X55880552Y-224374285D02*
X55975790Y-224326666D01*
X55975790Y-224326666D02*
X56023409Y-224279047D01*
X56023409Y-224279047D02*
X56071028Y-224183809D01*
X56071028Y-224183809D02*
X56071028Y-223802857D01*
X55880552Y-225231428D02*
X56547219Y-225231428D01*
X55499600Y-224993333D02*
X56213885Y-224755238D01*
X56213885Y-224755238D02*
X56213885Y-225374285D01*
X99266904Y-227712219D02*
X98695476Y-227712219D01*
X98981190Y-228712219D02*
X98981190Y-227712219D01*
X98362142Y-228712219D02*
X98362142Y-227712219D01*
X98362142Y-227712219D02*
X97981190Y-227712219D01*
X97981190Y-227712219D02*
X97885952Y-227759838D01*
X97885952Y-227759838D02*
X97838333Y-227807457D01*
X97838333Y-227807457D02*
X97790714Y-227902695D01*
X97790714Y-227902695D02*
X97790714Y-228045552D01*
X97790714Y-228045552D02*
X97838333Y-228140790D01*
X97838333Y-228140790D02*
X97885952Y-228188409D01*
X97885952Y-228188409D02*
X97981190Y-228236028D01*
X97981190Y-228236028D02*
X98362142Y-228236028D01*
X97219285Y-228140790D02*
X97314523Y-228093171D01*
X97314523Y-228093171D02*
X97362142Y-228045552D01*
X97362142Y-228045552D02*
X97409761Y-227950314D01*
X97409761Y-227950314D02*
X97409761Y-227902695D01*
X97409761Y-227902695D02*
X97362142Y-227807457D01*
X97362142Y-227807457D02*
X97314523Y-227759838D01*
X97314523Y-227759838D02*
X97219285Y-227712219D01*
X97219285Y-227712219D02*
X97028809Y-227712219D01*
X97028809Y-227712219D02*
X96933571Y-227759838D01*
X96933571Y-227759838D02*
X96885952Y-227807457D01*
X96885952Y-227807457D02*
X96838333Y-227902695D01*
X96838333Y-227902695D02*
X96838333Y-227950314D01*
X96838333Y-227950314D02*
X96885952Y-228045552D01*
X96885952Y-228045552D02*
X96933571Y-228093171D01*
X96933571Y-228093171D02*
X97028809Y-228140790D01*
X97028809Y-228140790D02*
X97219285Y-228140790D01*
X97219285Y-228140790D02*
X97314523Y-228188409D01*
X97314523Y-228188409D02*
X97362142Y-228236028D01*
X97362142Y-228236028D02*
X97409761Y-228331266D01*
X97409761Y-228331266D02*
X97409761Y-228521742D01*
X97409761Y-228521742D02*
X97362142Y-228616980D01*
X97362142Y-228616980D02*
X97314523Y-228664600D01*
X97314523Y-228664600D02*
X97219285Y-228712219D01*
X97219285Y-228712219D02*
X97028809Y-228712219D01*
X97028809Y-228712219D02*
X96933571Y-228664600D01*
X96933571Y-228664600D02*
X96885952Y-228616980D01*
X96885952Y-228616980D02*
X96838333Y-228521742D01*
X96838333Y-228521742D02*
X96838333Y-228331266D01*
X96838333Y-228331266D02*
X96885952Y-228236028D01*
X96885952Y-228236028D02*
X96933571Y-228188409D01*
X96933571Y-228188409D02*
X97028809Y-228140790D01*
X94082335Y-205096633D02*
X94149678Y-205096633D01*
X94149678Y-205096633D02*
X94284365Y-205029290D01*
X94284365Y-205029290D02*
X94351709Y-204961946D01*
X94351709Y-204961946D02*
X94419052Y-204827259D01*
X94419052Y-204827259D02*
X94419052Y-204692572D01*
X94419052Y-204692572D02*
X94385381Y-204591557D01*
X94385381Y-204591557D02*
X94284365Y-204423198D01*
X94284365Y-204423198D02*
X94183350Y-204322183D01*
X94183350Y-204322183D02*
X94014991Y-204221168D01*
X94014991Y-204221168D02*
X93913976Y-204187496D01*
X93913976Y-204187496D02*
X93779289Y-204187496D01*
X93779289Y-204187496D02*
X93644602Y-204254840D01*
X93644602Y-204254840D02*
X93577259Y-204322183D01*
X93577259Y-204322183D02*
X93509915Y-204456870D01*
X93509915Y-204456870D02*
X93509915Y-204524214D01*
X93341556Y-205163977D02*
X93375228Y-205062962D01*
X93375228Y-205062962D02*
X93375228Y-204995618D01*
X93375228Y-204995618D02*
X93341556Y-204894603D01*
X93341556Y-204894603D02*
X93307885Y-204860931D01*
X93307885Y-204860931D02*
X93206869Y-204827259D01*
X93206869Y-204827259D02*
X93139526Y-204827259D01*
X93139526Y-204827259D02*
X93038511Y-204860931D01*
X93038511Y-204860931D02*
X92903824Y-204995618D01*
X92903824Y-204995618D02*
X92870152Y-205096633D01*
X92870152Y-205096633D02*
X92870152Y-205163977D01*
X92870152Y-205163977D02*
X92903824Y-205264992D01*
X92903824Y-205264992D02*
X92937495Y-205298664D01*
X92937495Y-205298664D02*
X93038511Y-205332336D01*
X93038511Y-205332336D02*
X93105854Y-205332336D01*
X93105854Y-205332336D02*
X93206869Y-205298664D01*
X93206869Y-205298664D02*
X93341556Y-205163977D01*
X93341556Y-205163977D02*
X93442572Y-205130305D01*
X93442572Y-205130305D02*
X93509915Y-205130305D01*
X93509915Y-205130305D02*
X93610930Y-205163977D01*
X93610930Y-205163977D02*
X93745617Y-205298664D01*
X93745617Y-205298664D02*
X93779289Y-205399679D01*
X93779289Y-205399679D02*
X93779289Y-205467023D01*
X93779289Y-205467023D02*
X93745617Y-205568038D01*
X93745617Y-205568038D02*
X93610930Y-205702725D01*
X93610930Y-205702725D02*
X93509915Y-205736397D01*
X93509915Y-205736397D02*
X93442572Y-205736397D01*
X93442572Y-205736397D02*
X93341556Y-205702725D01*
X93341556Y-205702725D02*
X93206869Y-205568038D01*
X93206869Y-205568038D02*
X93173198Y-205467023D01*
X93173198Y-205467023D02*
X93173198Y-205399679D01*
X93173198Y-205399679D02*
X93206869Y-205298664D01*
X97502038Y-206563374D02*
X97906099Y-206159313D01*
X97704068Y-206361343D02*
X96996961Y-205654236D01*
X96996961Y-205654236D02*
X97165320Y-205687908D01*
X97165320Y-205687908D02*
X97300007Y-205687908D01*
X97300007Y-205687908D02*
X97401022Y-205654236D01*
X96357198Y-206294000D02*
X96289855Y-206361343D01*
X96289855Y-206361343D02*
X96256183Y-206462358D01*
X96256183Y-206462358D02*
X96256183Y-206529702D01*
X96256183Y-206529702D02*
X96289855Y-206630717D01*
X96289855Y-206630717D02*
X96390870Y-206799076D01*
X96390870Y-206799076D02*
X96559229Y-206967435D01*
X96559229Y-206967435D02*
X96727587Y-207068450D01*
X96727587Y-207068450D02*
X96828603Y-207102122D01*
X96828603Y-207102122D02*
X96895946Y-207102122D01*
X96895946Y-207102122D02*
X96996961Y-207068450D01*
X96996961Y-207068450D02*
X97064305Y-207001106D01*
X97064305Y-207001106D02*
X97097977Y-206900091D01*
X97097977Y-206900091D02*
X97097977Y-206832748D01*
X97097977Y-206832748D02*
X97064305Y-206731732D01*
X97064305Y-206731732D02*
X96963290Y-206563374D01*
X96963290Y-206563374D02*
X96794931Y-206395015D01*
X96794931Y-206395015D02*
X96626572Y-206294000D01*
X96626572Y-206294000D02*
X96525557Y-206260328D01*
X96525557Y-206260328D02*
X96458213Y-206260328D01*
X96458213Y-206260328D02*
X96357198Y-206294000D01*
X95683763Y-206967435D02*
X95616420Y-207034778D01*
X95616420Y-207034778D02*
X95582748Y-207135793D01*
X95582748Y-207135793D02*
X95582748Y-207203137D01*
X95582748Y-207203137D02*
X95616420Y-207304152D01*
X95616420Y-207304152D02*
X95717435Y-207472511D01*
X95717435Y-207472511D02*
X95885794Y-207640870D01*
X95885794Y-207640870D02*
X96054152Y-207741885D01*
X96054152Y-207741885D02*
X96155168Y-207775557D01*
X96155168Y-207775557D02*
X96222511Y-207775557D01*
X96222511Y-207775557D02*
X96323526Y-207741885D01*
X96323526Y-207741885D02*
X96390870Y-207674541D01*
X96390870Y-207674541D02*
X96424542Y-207573526D01*
X96424542Y-207573526D02*
X96424542Y-207506183D01*
X96424542Y-207506183D02*
X96390870Y-207405167D01*
X96390870Y-207405167D02*
X96289855Y-207236809D01*
X96289855Y-207236809D02*
X96121496Y-207068450D01*
X96121496Y-207068450D02*
X95953137Y-206967435D01*
X95953137Y-206967435D02*
X95852122Y-206933763D01*
X95852122Y-206933763D02*
X95784778Y-206933763D01*
X95784778Y-206933763D02*
X95683763Y-206967435D01*
X95380717Y-207741885D02*
X95852122Y-208213290D01*
X95448061Y-207809229D02*
X95380717Y-207809229D01*
X95380717Y-207809229D02*
X95279702Y-207842900D01*
X95279702Y-207842900D02*
X95178687Y-207943916D01*
X95178687Y-207943916D02*
X95145015Y-208044931D01*
X95145015Y-208044931D02*
X95178687Y-208145946D01*
X95178687Y-208145946D02*
X95549076Y-208516335D01*
X94606267Y-208718366D02*
X94841969Y-208482664D01*
X95212358Y-208853053D02*
X94505252Y-208145946D01*
X94505252Y-208145946D02*
X94168534Y-208482664D01*
X327475694Y-135204219D02*
X326856647Y-135204219D01*
X326856647Y-135204219D02*
X327189980Y-135585171D01*
X327189980Y-135585171D02*
X327047123Y-135585171D01*
X327047123Y-135585171D02*
X326951885Y-135632790D01*
X326951885Y-135632790D02*
X326904266Y-135680409D01*
X326904266Y-135680409D02*
X326856647Y-135775647D01*
X326856647Y-135775647D02*
X326856647Y-136013742D01*
X326856647Y-136013742D02*
X326904266Y-136108980D01*
X326904266Y-136108980D02*
X326951885Y-136156600D01*
X326951885Y-136156600D02*
X327047123Y-136204219D01*
X327047123Y-136204219D02*
X327332837Y-136204219D01*
X327332837Y-136204219D02*
X327428075Y-136156600D01*
X327428075Y-136156600D02*
X327475694Y-136108980D01*
X326570932Y-135204219D02*
X326237599Y-136204219D01*
X326237599Y-136204219D02*
X325904266Y-135204219D01*
X325618551Y-135299457D02*
X325570932Y-135251838D01*
X325570932Y-135251838D02*
X325475694Y-135204219D01*
X325475694Y-135204219D02*
X325237599Y-135204219D01*
X325237599Y-135204219D02*
X325142361Y-135251838D01*
X325142361Y-135251838D02*
X325094742Y-135299457D01*
X325094742Y-135299457D02*
X325047123Y-135394695D01*
X325047123Y-135394695D02*
X325047123Y-135489933D01*
X325047123Y-135489933D02*
X325094742Y-135632790D01*
X325094742Y-135632790D02*
X325666170Y-136204219D01*
X325666170Y-136204219D02*
X325047123Y-136204219D01*
X94557695Y-54987838D02*
X94652933Y-54940219D01*
X94652933Y-54940219D02*
X94795790Y-54940219D01*
X94795790Y-54940219D02*
X94938647Y-54987838D01*
X94938647Y-54987838D02*
X95033885Y-55083076D01*
X95033885Y-55083076D02*
X95081504Y-55178314D01*
X95081504Y-55178314D02*
X95129123Y-55368790D01*
X95129123Y-55368790D02*
X95129123Y-55511647D01*
X95129123Y-55511647D02*
X95081504Y-55702123D01*
X95081504Y-55702123D02*
X95033885Y-55797361D01*
X95033885Y-55797361D02*
X94938647Y-55892600D01*
X94938647Y-55892600D02*
X94795790Y-55940219D01*
X94795790Y-55940219D02*
X94700552Y-55940219D01*
X94700552Y-55940219D02*
X94557695Y-55892600D01*
X94557695Y-55892600D02*
X94510076Y-55844980D01*
X94510076Y-55844980D02*
X94510076Y-55511647D01*
X94510076Y-55511647D02*
X94700552Y-55511647D01*
X94081504Y-55940219D02*
X94081504Y-54940219D01*
X94081504Y-54940219D02*
X93510076Y-55940219D01*
X93510076Y-55940219D02*
X93510076Y-54940219D01*
X93033885Y-55940219D02*
X93033885Y-54940219D01*
X93033885Y-54940219D02*
X92795790Y-54940219D01*
X92795790Y-54940219D02*
X92652933Y-54987838D01*
X92652933Y-54987838D02*
X92557695Y-55083076D01*
X92557695Y-55083076D02*
X92510076Y-55178314D01*
X92510076Y-55178314D02*
X92462457Y-55368790D01*
X92462457Y-55368790D02*
X92462457Y-55511647D01*
X92462457Y-55511647D02*
X92510076Y-55702123D01*
X92510076Y-55702123D02*
X92557695Y-55797361D01*
X92557695Y-55797361D02*
X92652933Y-55892600D01*
X92652933Y-55892600D02*
X92795790Y-55940219D01*
X92795790Y-55940219D02*
X93033885Y-55940219D01*
X92129123Y-54940219D02*
X91510076Y-54940219D01*
X91510076Y-54940219D02*
X91843409Y-55321171D01*
X91843409Y-55321171D02*
X91700552Y-55321171D01*
X91700552Y-55321171D02*
X91605314Y-55368790D01*
X91605314Y-55368790D02*
X91557695Y-55416409D01*
X91557695Y-55416409D02*
X91510076Y-55511647D01*
X91510076Y-55511647D02*
X91510076Y-55749742D01*
X91510076Y-55749742D02*
X91557695Y-55844980D01*
X91557695Y-55844980D02*
X91605314Y-55892600D01*
X91605314Y-55892600D02*
X91700552Y-55940219D01*
X91700552Y-55940219D02*
X91986266Y-55940219D01*
X91986266Y-55940219D02*
X92081504Y-55892600D01*
X92081504Y-55892600D02*
X92129123Y-55844980D01*
X49754819Y-122586905D02*
X49754819Y-123205952D01*
X49754819Y-123205952D02*
X50135771Y-122872619D01*
X50135771Y-122872619D02*
X50135771Y-123015476D01*
X50135771Y-123015476D02*
X50183390Y-123110714D01*
X50183390Y-123110714D02*
X50231009Y-123158333D01*
X50231009Y-123158333D02*
X50326247Y-123205952D01*
X50326247Y-123205952D02*
X50564342Y-123205952D01*
X50564342Y-123205952D02*
X50659580Y-123158333D01*
X50659580Y-123158333D02*
X50707200Y-123110714D01*
X50707200Y-123110714D02*
X50754819Y-123015476D01*
X50754819Y-123015476D02*
X50754819Y-122729762D01*
X50754819Y-122729762D02*
X50707200Y-122634524D01*
X50707200Y-122634524D02*
X50659580Y-122586905D01*
X49754819Y-123491667D02*
X50754819Y-123825000D01*
X50754819Y-123825000D02*
X49754819Y-124158333D01*
X50754819Y-125015476D02*
X50754819Y-124444048D01*
X50754819Y-124729762D02*
X49754819Y-124729762D01*
X49754819Y-124729762D02*
X49897676Y-124634524D01*
X49897676Y-124634524D02*
X49992914Y-124539286D01*
X49992914Y-124539286D02*
X50040533Y-124444048D01*
X226383694Y-100406219D02*
X225764647Y-100406219D01*
X225764647Y-100406219D02*
X226097980Y-100787171D01*
X226097980Y-100787171D02*
X225955123Y-100787171D01*
X225955123Y-100787171D02*
X225859885Y-100834790D01*
X225859885Y-100834790D02*
X225812266Y-100882409D01*
X225812266Y-100882409D02*
X225764647Y-100977647D01*
X225764647Y-100977647D02*
X225764647Y-101215742D01*
X225764647Y-101215742D02*
X225812266Y-101310980D01*
X225812266Y-101310980D02*
X225859885Y-101358600D01*
X225859885Y-101358600D02*
X225955123Y-101406219D01*
X225955123Y-101406219D02*
X226240837Y-101406219D01*
X226240837Y-101406219D02*
X226336075Y-101358600D01*
X226336075Y-101358600D02*
X226383694Y-101310980D01*
X225478932Y-100406219D02*
X225145599Y-101406219D01*
X225145599Y-101406219D02*
X224812266Y-100406219D01*
X224574170Y-100406219D02*
X223955123Y-100406219D01*
X223955123Y-100406219D02*
X224288456Y-100787171D01*
X224288456Y-100787171D02*
X224145599Y-100787171D01*
X224145599Y-100787171D02*
X224050361Y-100834790D01*
X224050361Y-100834790D02*
X224002742Y-100882409D01*
X224002742Y-100882409D02*
X223955123Y-100977647D01*
X223955123Y-100977647D02*
X223955123Y-101215742D01*
X223955123Y-101215742D02*
X224002742Y-101310980D01*
X224002742Y-101310980D02*
X224050361Y-101358600D01*
X224050361Y-101358600D02*
X224145599Y-101406219D01*
X224145599Y-101406219D02*
X224431313Y-101406219D01*
X224431313Y-101406219D02*
X224526551Y-101358600D01*
X224526551Y-101358600D02*
X224574170Y-101310980D01*
X292677695Y-54225838D02*
X292772933Y-54178219D01*
X292772933Y-54178219D02*
X292915790Y-54178219D01*
X292915790Y-54178219D02*
X293058647Y-54225838D01*
X293058647Y-54225838D02*
X293153885Y-54321076D01*
X293153885Y-54321076D02*
X293201504Y-54416314D01*
X293201504Y-54416314D02*
X293249123Y-54606790D01*
X293249123Y-54606790D02*
X293249123Y-54749647D01*
X293249123Y-54749647D02*
X293201504Y-54940123D01*
X293201504Y-54940123D02*
X293153885Y-55035361D01*
X293153885Y-55035361D02*
X293058647Y-55130600D01*
X293058647Y-55130600D02*
X292915790Y-55178219D01*
X292915790Y-55178219D02*
X292820552Y-55178219D01*
X292820552Y-55178219D02*
X292677695Y-55130600D01*
X292677695Y-55130600D02*
X292630076Y-55082980D01*
X292630076Y-55082980D02*
X292630076Y-54749647D01*
X292630076Y-54749647D02*
X292820552Y-54749647D01*
X292201504Y-55178219D02*
X292201504Y-54178219D01*
X292201504Y-54178219D02*
X291630076Y-55178219D01*
X291630076Y-55178219D02*
X291630076Y-54178219D01*
X291153885Y-55178219D02*
X291153885Y-54178219D01*
X291153885Y-54178219D02*
X290915790Y-54178219D01*
X290915790Y-54178219D02*
X290772933Y-54225838D01*
X290772933Y-54225838D02*
X290677695Y-54321076D01*
X290677695Y-54321076D02*
X290630076Y-54416314D01*
X290630076Y-54416314D02*
X290582457Y-54606790D01*
X290582457Y-54606790D02*
X290582457Y-54749647D01*
X290582457Y-54749647D02*
X290630076Y-54940123D01*
X290630076Y-54940123D02*
X290677695Y-55035361D01*
X290677695Y-55035361D02*
X290772933Y-55130600D01*
X290772933Y-55130600D02*
X290915790Y-55178219D01*
X290915790Y-55178219D02*
X291153885Y-55178219D01*
X289725314Y-54511552D02*
X289725314Y-55178219D01*
X289963409Y-54130600D02*
X290201504Y-54844885D01*
X290201504Y-54844885D02*
X289582457Y-54844885D01*
X147616255Y-94452547D02*
X147378160Y-94452547D01*
X147473398Y-94690642D02*
X147378160Y-94452547D01*
X147378160Y-94452547D02*
X147473398Y-94214452D01*
X147187684Y-94595404D02*
X147378160Y-94452547D01*
X147378160Y-94452547D02*
X147187684Y-94309690D01*
X236869380Y-94393999D02*
X236631285Y-94393999D01*
X236726523Y-94632094D02*
X236631285Y-94393999D01*
X236631285Y-94393999D02*
X236726523Y-94155904D01*
X236440809Y-94536856D02*
X236631285Y-94393999D01*
X236631285Y-94393999D02*
X236440809Y-94251142D01*
X58815380Y-94417499D02*
X58577285Y-94417499D01*
X58672523Y-94655594D02*
X58577285Y-94417499D01*
X58577285Y-94417499D02*
X58672523Y-94179404D01*
X58386809Y-94560356D02*
X58577285Y-94417499D01*
X58577285Y-94417499D02*
X58386809Y-94274642D01*
X325515380Y-94487999D02*
X325277285Y-94487999D01*
X325372523Y-94726094D02*
X325277285Y-94487999D01*
X325277285Y-94487999D02*
X325372523Y-94249904D01*
X325086809Y-94630856D02*
X325277285Y-94487999D01*
X325277285Y-94487999D02*
X325086809Y-94345142D01*
D12*
%TO.C,J1*%
X67849100Y-181598306D02*
G75*
G02*
X67087100Y-181598306I-381000J0D01*
G01*
X67087100Y-181598306D02*
G75*
G02*
X67849100Y-181598306I381000J0D01*
G01*
D13*
%TO.C,TP6*%
X59075000Y-210260000D02*
X63275000Y-210260000D01*
X59075000Y-212660000D02*
X59075000Y-210260000D01*
X63275000Y-210260000D02*
X63275000Y-212660000D01*
X63275000Y-212660000D02*
X59075000Y-212660000D01*
D14*
%TO.C,C7*%
X93665000Y-216611252D02*
X93665000Y-216088746D01*
X95135000Y-216611252D02*
X95135000Y-216088746D01*
%TO.C,C6*%
X80295543Y-206265010D02*
X80665010Y-205895543D01*
X81334990Y-207304457D02*
X81704457Y-206934990D01*
D13*
%TO.C,TP4*%
X51085000Y-222060000D02*
X53485000Y-222060000D01*
X51085000Y-226260000D02*
X51085000Y-222060000D01*
X53485000Y-222060000D02*
X53485000Y-226260000D01*
X53485000Y-226260000D02*
X51085000Y-226260000D01*
D12*
%TO.C,J4*%
X45045999Y-229069499D02*
G75*
G02*
X44284001Y-229069499I-380999J0D01*
G01*
X44284001Y-229069499D02*
G75*
G02*
X45045999Y-229069499I380999J0D01*
G01*
D13*
%TO.C,TP8*%
X95905000Y-229310000D02*
X100105000Y-229310000D01*
X95905000Y-231710000D02*
X95905000Y-229310000D01*
X100105000Y-229310000D02*
X100105000Y-231710000D01*
X100105000Y-231710000D02*
X95905000Y-231710000D01*
D14*
%TO.C,C8*%
X94195543Y-205815010D02*
X94565010Y-205445543D01*
X95234990Y-206854457D02*
X95604457Y-206484990D01*
D12*
%TO.C,U1*%
X108241000Y-216255001D02*
G75*
G02*
X107479000Y-216255001I-381000J0D01*
G01*
X107479000Y-216255001D02*
G75*
G02*
X108241000Y-216255001I381000J0D01*
G01*
%TO.C,SW2*%
X111720999Y-217218501D02*
G75*
G02*
X110959001Y-217218501I-380999J0D01*
G01*
X110959001Y-217218501D02*
G75*
G02*
X111720999Y-217218501I380999J0D01*
G01*
%TO.C,J5*%
X111046800Y-183400000D02*
G75*
G02*
X110284800Y-183400000I-381000J0D01*
G01*
X110284800Y-183400000D02*
G75*
G02*
X111046800Y-183400000I381000J0D01*
G01*
D13*
%TO.C,3V2*%
X324137600Y-136802000D02*
X328337600Y-136802000D01*
X324137600Y-139202000D02*
X324137600Y-136802000D01*
X328337600Y-136802000D02*
X328337600Y-139202000D01*
X328337600Y-139202000D02*
X324137600Y-139202000D01*
%TO.C,GND3*%
X91219600Y-56538000D02*
X95419600Y-56538000D01*
X91219600Y-58938000D02*
X91219600Y-56538000D01*
X95419600Y-56538000D02*
X95419600Y-58938000D01*
X95419600Y-58938000D02*
X91219600Y-58938000D01*
%TO.C,3V1*%
X51352600Y-121725000D02*
X53752600Y-121725000D01*
X51352600Y-125925000D02*
X51352600Y-121725000D01*
X53752600Y-121725000D02*
X53752600Y-125925000D01*
X53752600Y-125925000D02*
X51352600Y-125925000D01*
%TO.C,3V3*%
X223045600Y-102004000D02*
X227245600Y-102004000D01*
X223045600Y-104404000D02*
X223045600Y-102004000D01*
X227245600Y-102004000D02*
X227245600Y-104404000D01*
X227245600Y-104404000D02*
X223045600Y-104404000D01*
%TO.C,GND4*%
X289339600Y-55776000D02*
X293539600Y-55776000D01*
X289339600Y-58176000D02*
X289339600Y-55776000D01*
X293539600Y-55776000D02*
X293539600Y-58176000D01*
X293539600Y-58176000D02*
X289339600Y-58176000D01*
D12*
%TO.C,J1*%
X217462540Y-125516000D02*
G75*
G02*
X216700540Y-125516000I-381000J0D01*
G01*
X216700540Y-125516000D02*
G75*
G02*
X217462540Y-125516000I381000J0D01*
G01*
%TO.C,U1*%
X213792487Y-45546000D02*
G75*
G02*
X213030487Y-45546000I-381000J0D01*
G01*
X213030487Y-45546000D02*
G75*
G02*
X213792487Y-45546000I381000J0D01*
G01*
%TD*%
M02*
