%TF.GenerationSoftware,KiCad,Pcbnew,8.0.8-8.0.8-0~ubuntu24.04.1*%
%TF.CreationDate,2025-08-07T23:42:04-04:00*%
%TF.ProjectId,stencil,7374656e-6369-46c2-9e6b-696361645f70,rev?*%
%TF.SameCoordinates,Original*%
%TF.FileFunction,Soldermask,Top*%
%TF.FilePolarity,Negative*%
%FSLAX46Y46*%
G04 Gerber Fmt 4.6, Leading zero omitted, Abs format (unit mm)*
G04 Created by KiCad (PCBNEW 8.0.8-8.0.8-0~ubuntu24.04.1) date 2025-08-07 23:42:04*
%MOMM*%
%LPD*%
G01*
G04 APERTURE LIST*
G04 Aperture macros list*
%AMRoundRect*
0 Rectangle with rounded corners*
0 $1 Rounding radius*
0 $2 $3 $4 $5 $6 $7 $8 $9 X,Y pos of 4 corners*
0 Add a 4 corners polygon primitive as box body*
4,1,4,$2,$3,$4,$5,$6,$7,$8,$9,$2,$3,0*
0 Add four circle primitives for the rounded corners*
1,1,$1+$1,$2,$3*
1,1,$1+$1,$4,$5*
1,1,$1+$1,$6,$7*
1,1,$1+$1,$8,$9*
0 Add four rect primitives between the rounded corners*
20,1,$1+$1,$2,$3,$4,$5,0*
20,1,$1+$1,$4,$5,$6,$7,0*
20,1,$1+$1,$6,$7,$8,$9,0*
20,1,$1+$1,$8,$9,$2,$3,0*%
%AMRotRect*
0 Rectangle, with rotation*
0 The origin of the aperture is its center*
0 $1 length*
0 $2 width*
0 $3 Rotation angle, in degrees counterclockwise*
0 Add horizontal line*
21,1,$1,$2,0,0,$3*%
%AMOutline5P*
0 Free polygon, 5 corners , with rotation*
0 The origin of the aperture is its center*
0 number of corners: always 5*
0 $1 to $10 corner X, Y*
0 $11 Rotation angle, in degrees counterclockwise*
0 create outline with 5 corners*
4,1,5,$1,$2,$3,$4,$5,$6,$7,$8,$9,$10,$1,$2,$11*%
%AMOutline6P*
0 Free polygon, 6 corners , with rotation*
0 The origin of the aperture is its center*
0 number of corners: always 6*
0 $1 to $12 corner X, Y*
0 $13 Rotation angle, in degrees counterclockwise*
0 create outline with 6 corners*
4,1,6,$1,$2,$3,$4,$5,$6,$7,$8,$9,$10,$11,$12,$1,$2,$13*%
%AMOutline7P*
0 Free polygon, 7 corners , with rotation*
0 The origin of the aperture is its center*
0 number of corners: always 7*
0 $1 to $14 corner X, Y*
0 $15 Rotation angle, in degrees counterclockwise*
0 create outline with 7 corners*
4,1,7,$1,$2,$3,$4,$5,$6,$7,$8,$9,$10,$11,$12,$13,$14,$1,$2,$15*%
%AMOutline8P*
0 Free polygon, 8 corners , with rotation*
0 The origin of the aperture is its center*
0 number of corners: always 8*
0 $1 to $16 corner X, Y*
0 $17 Rotation angle, in degrees counterclockwise*
0 create outline with 8 corners*
4,1,8,$1,$2,$3,$4,$5,$6,$7,$8,$9,$10,$11,$12,$13,$14,$15,$16,$1,$2,$17*%
G04 Aperture macros list end*
%ADD10RoundRect,0.102000X-0.754000X-0.754000X0.754000X-0.754000X0.754000X0.754000X-0.754000X0.754000X0*%
%ADD11C,1.712000*%
%ADD12RoundRect,0.250000X0.250000X0.475000X-0.250000X0.475000X-0.250000X-0.475000X0.250000X-0.475000X0*%
%ADD13O,1.092200X1.701800*%
%ADD14R,0.711200X1.193800*%
%ADD15R,0.762000X1.193800*%
%ADD16R,0.812800X1.193800*%
%ADD17RoundRect,0.250000X0.475000X-0.250000X0.475000X0.250000X-0.475000X0.250000X-0.475000X-0.250000X0*%
%ADD18C,1.346200*%
%ADD19C,1.498600*%
%ADD20Outline5P,-1.900000X0.600000X-1.500000X1.000000X1.900000X1.000000X1.900000X-1.000000X-1.900000X-1.000000X270.000000*%
%ADD21C,4.300000*%
%ADD22RoundRect,0.102000X-0.400000X0.450000X-0.400000X-0.450000X0.400000X-0.450000X0.400000X0.450000X0*%
%ADD23RoundRect,0.102000X-0.754000X0.754000X-0.754000X-0.754000X0.754000X-0.754000X0.754000X0.754000X0*%
%ADD24R,3.800000X2.000000*%
%ADD25RoundRect,0.243750X-0.243750X-0.456250X0.243750X-0.456250X0.243750X0.456250X-0.243750X0.456250X0*%
%ADD26R,1.700000X1.700000*%
%ADD27O,1.700000X1.700000*%
%ADD28C,1.219200*%
%ADD29RoundRect,0.375000X-0.375000X0.625000X-0.375000X-0.625000X0.375000X-0.625000X0.375000X0.625000X0*%
%ADD30RoundRect,0.500000X-1.400000X0.500000X-1.400000X-0.500000X1.400000X-0.500000X1.400000X0.500000X0*%
%ADD31RoundRect,0.219250X1.047750X0.657750X-1.047750X0.657750X-1.047750X-0.657750X1.047750X-0.657750X0*%
%ADD32RotRect,0.279400X1.778000X135.000000*%
%ADD33RotRect,0.279400X1.778000X45.000000*%
%ADD34RoundRect,0.250000X-0.450000X0.350000X-0.450000X-0.350000X0.450000X-0.350000X0.450000X0.350000X0*%
%ADD35RoundRect,0.250000X-0.250000X-0.475000X0.250000X-0.475000X0.250000X0.475000X-0.250000X0.475000X0*%
%ADD36RoundRect,0.250000X-0.475000X0.250000X-0.475000X-0.250000X0.475000X-0.250000X0.475000X0.250000X0*%
%ADD37R,1.000000X1.250000*%
%ADD38RoundRect,0.250000X-0.350000X-0.450000X0.350000X-0.450000X0.350000X0.450000X-0.350000X0.450000X0*%
%ADD39RoundRect,0.250000X0.350000X0.450000X-0.350000X0.450000X-0.350000X-0.450000X0.350000X-0.450000X0*%
%ADD40RoundRect,0.250000X-0.450000X0.262500X-0.450000X-0.262500X0.450000X-0.262500X0.450000X0.262500X0*%
%ADD41R,1.168400X0.533400*%
%ADD42C,1.270000*%
%ADD43RoundRect,0.250000X0.450000X-0.262500X0.450000X0.262500X-0.450000X0.262500X-0.450000X-0.262500X0*%
%ADD44RoundRect,0.250000X-0.262500X-0.450000X0.262500X-0.450000X0.262500X0.450000X-0.262500X0.450000X0*%
%ADD45Outline5P,-1.900000X0.600000X-1.500000X1.000000X1.900000X1.000000X1.900000X-1.000000X-1.900000X-1.000000X0.000000*%
%ADD46R,1.800000X1.800000*%
%ADD47C,1.800000*%
%ADD48O,1.512000X2.820000*%
%ADD49RoundRect,0.100500X0.301500X-0.986500X0.301500X0.986500X-0.301500X0.986500X-0.301500X-0.986500X0*%
%ADD50RoundRect,0.076750X-0.810250X-0.230250X0.810250X-0.230250X0.810250X0.230250X-0.810250X0.230250X0*%
%ADD51RoundRect,0.076750X0.810250X0.230250X-0.810250X0.230250X-0.810250X-0.230250X0.810250X-0.230250X0*%
%ADD52R,0.533400X1.168400*%
%ADD53RoundRect,0.250000X0.262500X0.450000X-0.262500X0.450000X-0.262500X-0.450000X0.262500X-0.450000X0*%
G04 APERTURE END LIST*
D10*
%TO.C,J3*%
X54945002Y-174884000D03*
D11*
X57445002Y-174884000D03*
X59945000Y-174884000D03*
X62445000Y-174884000D03*
%TD*%
D12*
%TO.C,C3*%
X66299997Y-219800000D03*
X64399999Y-219800000D03*
%TD*%
D13*
%TO.C,J8*%
X51013000Y-233524600D03*
X59653000Y-233524600D03*
X51013000Y-237324599D03*
X59653000Y-237324599D03*
D14*
X54833001Y-233444599D03*
D15*
X56853000Y-233444599D03*
D16*
X58083000Y-233444599D03*
D14*
X55832999Y-233444599D03*
D15*
X53813000Y-233444599D03*
D16*
X52583000Y-233444599D03*
%TD*%
D17*
%TO.C,C10*%
X86150000Y-219599999D03*
X86150000Y-217700001D03*
%TD*%
D18*
%TO.C,J1*%
X70933399Y-181598306D03*
X70933399Y-184098306D03*
X72933400Y-181598306D03*
X72933400Y-184098306D03*
X74933398Y-181598306D03*
X74933398Y-184098306D03*
X76933400Y-181598306D03*
X76933400Y-184098306D03*
X78933398Y-181598306D03*
X78933398Y-184098306D03*
X80933399Y-181598306D03*
X80933399Y-184098306D03*
X82933400Y-181598306D03*
X82933400Y-184098306D03*
X84933399Y-181598306D03*
X84933399Y-184098306D03*
X86933400Y-181598306D03*
X86933400Y-184098306D03*
X88933398Y-181598306D03*
X88933398Y-184098306D03*
X90933399Y-181598306D03*
X90933399Y-184098306D03*
X92933398Y-181598306D03*
X92933398Y-184098306D03*
%TD*%
D17*
%TO.C,C9*%
X81495000Y-219599998D03*
X81495000Y-217700000D03*
%TD*%
D19*
%TO.C,J4*%
X44665000Y-224668000D03*
X44665000Y-222168000D03*
%TD*%
D12*
%TO.C,C14*%
X80149999Y-210800000D03*
X78250001Y-210800000D03*
%TD*%
D20*
%TO.C,TP2*%
X75800000Y-226200000D03*
%TD*%
D21*
%TO.C,H4*%
X114007000Y-236098000D03*
%TD*%
D22*
%TO.C,Y1*%
X78450001Y-213431000D03*
X78450001Y-215281000D03*
X79900001Y-215281000D03*
X79900001Y-213431000D03*
%TD*%
D23*
%TO.C,J7*%
X51373000Y-201637500D03*
D11*
X53913000Y-201637500D03*
X51373000Y-204177500D03*
X53913000Y-204177500D03*
X51372999Y-206717500D03*
X53913001Y-206717500D03*
X51373000Y-209257500D03*
X53913000Y-209257500D03*
X51373000Y-211797500D03*
X53913000Y-211797500D03*
%TD*%
D24*
%TO.C,TP7*%
X57365000Y-193680000D03*
%TD*%
D20*
%TO.C,TP1*%
X89400000Y-223800000D03*
%TD*%
D12*
%TO.C,C4*%
X71522999Y-219842000D03*
X69623001Y-219842000D03*
%TD*%
D25*
%TO.C,D2*%
X70475559Y-236499424D03*
X72350561Y-236499424D03*
%TD*%
D26*
%TO.C,SW3*%
X66400000Y-196940000D03*
D27*
X66400000Y-194400000D03*
X66400000Y-191860001D03*
%TD*%
D28*
%TO.C,U1*%
X107860000Y-212400000D03*
X107860000Y-210400001D03*
X107860000Y-208400000D03*
X107860000Y-206400001D03*
X107860000Y-204400000D03*
X107860000Y-202400002D03*
X107860000Y-200400001D03*
X107860000Y-198400000D03*
X110400000Y-212400000D03*
X110400000Y-210400001D03*
X110400000Y-208400000D03*
X110400000Y-206400001D03*
X110400000Y-204400000D03*
X110400000Y-202400002D03*
X110400000Y-200400001D03*
X110400000Y-198400000D03*
%TD*%
D21*
%TO.C,H3*%
X45173000Y-236098000D03*
%TD*%
D29*
%TO.C,U2*%
X71100000Y-224450000D03*
X68800000Y-224450001D03*
D30*
X68800000Y-230749999D03*
D29*
X66500000Y-224450000D03*
%TD*%
D24*
%TO.C,TP5*%
X85305000Y-231780000D03*
%TD*%
D31*
%TO.C,D3*%
X54420000Y-228224000D03*
X50150000Y-228224000D03*
%TD*%
%TO.C,D1*%
X54420000Y-220604000D03*
X50150000Y-220604000D03*
%TD*%
D21*
%TO.C,H1*%
X45173000Y-176154000D03*
%TD*%
D32*
%TO.C,U3*%
X84207761Y-207479812D03*
X84561314Y-207833364D03*
X84914868Y-208186919D03*
X85268421Y-208540471D03*
X85621976Y-208894026D03*
X85975528Y-209247579D03*
X86329081Y-209601131D03*
X86682635Y-209954686D03*
X87036188Y-210308239D03*
X87389743Y-210661793D03*
X87743295Y-211015346D03*
X88096848Y-211368898D03*
X88450403Y-211722453D03*
X88803955Y-212076006D03*
X89157510Y-212429560D03*
X89511062Y-212783113D03*
D33*
X92218150Y-212783113D03*
X92571702Y-212429560D03*
X92925257Y-212076006D03*
X93278809Y-211722453D03*
X93632364Y-211368898D03*
X93985917Y-211015346D03*
X94339469Y-210661793D03*
X94693024Y-210308239D03*
X95046577Y-209954686D03*
X95400131Y-209601131D03*
X95753684Y-209247579D03*
X96107236Y-208894026D03*
X96460791Y-208540471D03*
X96814344Y-208186919D03*
X97167898Y-207833364D03*
X97521451Y-207479812D03*
D32*
X97521451Y-204772724D03*
X97167898Y-204419172D03*
X96814344Y-204065617D03*
X96460791Y-203712065D03*
X96107236Y-203358510D03*
X95753684Y-203004957D03*
X95400131Y-202651405D03*
X95046577Y-202297850D03*
X94693024Y-201944297D03*
X94339469Y-201590743D03*
X93985917Y-201237190D03*
X93632364Y-200883638D03*
X93278809Y-200530083D03*
X92925257Y-200176530D03*
X92571702Y-199822976D03*
X92218150Y-199469423D03*
D33*
X89511062Y-199469423D03*
X89157510Y-199822976D03*
X88803955Y-200176530D03*
X88450403Y-200530083D03*
X88096848Y-200883638D03*
X87743295Y-201237190D03*
X87389743Y-201590743D03*
X87036188Y-201944297D03*
X86682635Y-202297850D03*
X86329081Y-202651405D03*
X85975528Y-203004957D03*
X85621976Y-203358510D03*
X85268421Y-203712065D03*
X84914868Y-204065617D03*
X84561314Y-204419172D03*
X84207761Y-204772724D03*
%TD*%
D34*
%TO.C,R8*%
X69800000Y-194400000D03*
X69800000Y-196400000D03*
%TD*%
D35*
%TO.C,C15*%
X82822001Y-214356000D03*
X84721999Y-214356000D03*
%TD*%
D17*
%TO.C,C11*%
X79400000Y-223349999D03*
X79400000Y-221450001D03*
%TD*%
D36*
%TO.C,C1*%
X59409440Y-221850001D03*
X59409440Y-223749999D03*
%TD*%
D19*
%TO.C,SW2*%
X111340000Y-221620000D03*
X111340000Y-224120000D03*
%TD*%
D24*
%TO.C,TP3*%
X108600000Y-192600000D03*
%TD*%
D37*
%TO.C,SW1*%
X96862000Y-225557000D03*
X96862000Y-233307000D03*
%TD*%
D12*
%TO.C,C12*%
X96853006Y-223228079D03*
X94953008Y-223228079D03*
%TD*%
D38*
%TO.C,R1*%
X65063060Y-236499424D03*
X67063060Y-236499424D03*
%TD*%
D19*
%TO.C,J5*%
X107400000Y-183400000D03*
X104900000Y-183400000D03*
X102400000Y-183400000D03*
%TD*%
D26*
%TO.C,J6*%
X42760000Y-198125000D03*
D27*
X42760000Y-200665000D03*
X42760000Y-203204999D03*
X42760000Y-205745000D03*
X42760000Y-208285000D03*
X42760000Y-210825000D03*
%TD*%
D17*
%TO.C,C13*%
X104101000Y-221553999D03*
X104101000Y-219654001D03*
%TD*%
D36*
%TO.C,C2*%
X59409440Y-226850001D03*
X59409440Y-228749999D03*
%TD*%
D35*
%TO.C,C5*%
X69800000Y-214762000D03*
X71699998Y-214762000D03*
%TD*%
D39*
%TO.C,FB1*%
X85150000Y-223650000D03*
X83150000Y-223650000D03*
%TD*%
D38*
%TO.C,R13*%
X103582300Y-188904799D03*
X105582300Y-188904799D03*
%TD*%
D23*
%TO.C,J2*%
X44157000Y-184402002D03*
D11*
X44157000Y-186902002D03*
X44157000Y-189402000D03*
X44157000Y-191902000D03*
%TD*%
D21*
%TO.C,H2*%
X114007000Y-176154000D03*
%TD*%
D40*
%TO.C,R2*%
X60934600Y-107539099D03*
X60934600Y-109364099D03*
%TD*%
D41*
%TO.C,M8*%
X161290000Y-104265802D03*
X161290000Y-102365800D03*
X159258000Y-103315801D03*
%TD*%
D42*
%TO.C,T2*%
X149098000Y-94441000D03*
X151638000Y-94441000D03*
X154178000Y-94441000D03*
X156718000Y-94441000D03*
X159258000Y-94441000D03*
X161798000Y-94441000D03*
X164338000Y-94441000D03*
X166878000Y-94441000D03*
X166878000Y-84281000D03*
X164338000Y-84281000D03*
X161798000Y-84281000D03*
X159258000Y-84281000D03*
X156718000Y-84281000D03*
X154178000Y-84281000D03*
X151638000Y-84281000D03*
X149098000Y-84281000D03*
%TD*%
D43*
%TO.C,R26*%
X289639307Y-96092000D03*
X289639307Y-94267000D03*
%TD*%
D24*
%TO.C,GND2*%
X50139600Y-119206000D03*
%TD*%
D44*
%TO.C,R33*%
X86186689Y-43711818D03*
X88011689Y-43711818D03*
%TD*%
D43*
%TO.C,R23*%
X103479601Y-95941500D03*
X103479601Y-94116500D03*
%TD*%
D45*
%TO.C,3V4*%
X183489600Y-125556000D03*
%TD*%
D46*
%TO.C,PT4*%
X334614600Y-128096000D03*
D47*
X337154600Y-128096000D03*
%TD*%
D40*
%TO.C,R14*%
X327126600Y-107141000D03*
X327126600Y-108966000D03*
%TD*%
D48*
%TO.C,U9*%
X330809600Y-74716000D03*
X333349600Y-74716000D03*
X335889600Y-74716000D03*
X338429600Y-74716000D03*
X340969600Y-74716000D03*
X330809600Y-44316000D03*
X333349600Y-44316000D03*
X335889600Y-44316000D03*
X338429600Y-44316000D03*
X340969600Y-44316000D03*
%TD*%
D41*
%TO.C,M15*%
X344906600Y-103961002D03*
X344906600Y-102061000D03*
X342874600Y-103011001D03*
%TD*%
D46*
%TO.C,PT1*%
X67914600Y-128096000D03*
D47*
X70454600Y-128096000D03*
%TD*%
D40*
%TO.C,R3*%
X83794600Y-107539099D03*
X83794600Y-109364099D03*
%TD*%
D43*
%TO.C,R32*%
X301831307Y-96092000D03*
X301831307Y-94267000D03*
%TD*%
D44*
%TO.C,R42*%
X164797100Y-128096000D03*
X166622100Y-128096000D03*
%TD*%
D18*
%TO.C,J1*%
X213616241Y-125516000D03*
X213616241Y-123016000D03*
X211616240Y-125516000D03*
X211616240Y-123016000D03*
X209616242Y-125516000D03*
X209616242Y-123016000D03*
X207616240Y-125516000D03*
X207616240Y-123016000D03*
X205616242Y-125516000D03*
X205616242Y-123016000D03*
X203616241Y-125516000D03*
X203616241Y-123016000D03*
X201616240Y-125516000D03*
X201616240Y-123016000D03*
X199616241Y-125516000D03*
X199616241Y-123016000D03*
X197616240Y-125516000D03*
X197616240Y-123016000D03*
X195616242Y-125516000D03*
X195616242Y-123016000D03*
X193616241Y-125516000D03*
X193616241Y-123016000D03*
X191616242Y-125516000D03*
X191616242Y-123016000D03*
%TD*%
D41*
%TO.C,M17*%
X86207600Y-46947998D03*
X86207600Y-48848000D03*
X88239600Y-47897999D03*
%TD*%
D43*
%TO.C,R18*%
X111607600Y-95838000D03*
X111607600Y-94013000D03*
%TD*%
D40*
%TO.C,R11*%
X261340600Y-107094000D03*
X261340600Y-108919000D03*
%TD*%
D41*
%TO.C,M5*%
X153670000Y-104265802D03*
X153670000Y-102365800D03*
X151638000Y-103315801D03*
%TD*%
D49*
%TO.C,U5*%
X299694600Y-120411000D03*
X300964600Y-120411000D03*
X302234600Y-120411000D03*
X303504600Y-120411000D03*
X304774600Y-120411000D03*
X306044600Y-120411000D03*
X307314600Y-120411000D03*
X308584600Y-120411000D03*
X308584600Y-115461000D03*
X307314600Y-115461000D03*
X306044600Y-115461000D03*
X304774600Y-115461000D03*
X303504600Y-115461000D03*
X302234600Y-115461000D03*
X300964600Y-115461000D03*
X299694600Y-115461000D03*
%TD*%
D41*
%TO.C,M19*%
X229463600Y-56468000D03*
X229463600Y-54567998D03*
X227431600Y-55517999D03*
%TD*%
D50*
%TO.C,U3*%
X275869600Y-115011000D03*
X275869600Y-115661000D03*
X275869600Y-116311000D03*
X275869600Y-116961000D03*
X275869600Y-117611000D03*
X275869600Y-118261000D03*
X275869600Y-118911000D03*
X275869600Y-119561000D03*
X275869600Y-120211000D03*
X275869600Y-120861000D03*
X281609600Y-120861000D03*
X281609600Y-120211000D03*
X281609600Y-119561000D03*
X281609600Y-118911000D03*
X281609600Y-118261000D03*
X281609600Y-117611000D03*
X281609600Y-116961000D03*
X281609600Y-116311000D03*
X281609600Y-115661000D03*
X281609600Y-115011000D03*
%TD*%
D24*
%TO.C,PA11*%
X173607901Y-79627644D03*
%TD*%
D43*
%TO.C,R28*%
X277447307Y-96092000D03*
X277447307Y-94267000D03*
%TD*%
D51*
%TO.C,U2*%
X129209600Y-120861000D03*
X129209600Y-120211000D03*
X129209600Y-119561000D03*
X129209600Y-118911000D03*
X129209600Y-118261000D03*
X129209600Y-117611000D03*
X129209600Y-116961000D03*
X129209600Y-116311000D03*
X129209600Y-115661000D03*
X129209600Y-115011000D03*
X123469600Y-115011000D03*
X123469600Y-115661000D03*
X123469600Y-116311000D03*
X123469600Y-116961000D03*
X123469600Y-117611000D03*
X123469600Y-118261000D03*
X123469600Y-118911000D03*
X123469600Y-119561000D03*
X123469600Y-120211000D03*
X123469600Y-120861000D03*
%TD*%
D28*
%TO.C,U1*%
X209556486Y-45546000D03*
X207556487Y-45546000D03*
X205556486Y-45546000D03*
X203556487Y-45546000D03*
X201556486Y-45546000D03*
X199556488Y-45546000D03*
X197556487Y-45546000D03*
X195556486Y-45546000D03*
X209556486Y-43006000D03*
X207556487Y-43006000D03*
X205556486Y-43006000D03*
X203556487Y-43006000D03*
X201556486Y-43006000D03*
X199556488Y-43006000D03*
X197556487Y-43006000D03*
X195556486Y-43006000D03*
%TD*%
D41*
%TO.C,M4*%
X72466200Y-103966000D03*
X72466200Y-102065998D03*
X70434200Y-103015999D03*
%TD*%
%TO.C,M16*%
X337921600Y-103961002D03*
X337921600Y-102061000D03*
X335889600Y-103011001D03*
%TD*%
D43*
%TO.C,R24*%
X123799600Y-95838000D03*
X123799600Y-94013000D03*
%TD*%
%TO.C,R17*%
X119735600Y-95838000D03*
X119735600Y-94013000D03*
%TD*%
%TO.C,R22*%
X127863599Y-95734500D03*
X127863599Y-93909500D03*
%TD*%
%TO.C,R19*%
X115671600Y-95838000D03*
X115671600Y-94013000D03*
%TD*%
D24*
%TO.C,GND5*%
X286359600Y-133176000D03*
%TD*%
D40*
%TO.C,R10*%
X238480600Y-107094000D03*
X238480600Y-108919000D03*
%TD*%
D42*
%TO.C,T3*%
X238099600Y-94394000D03*
X240639600Y-94394000D03*
X243179600Y-94394000D03*
X245719600Y-94394000D03*
X248259600Y-94394000D03*
X250799600Y-94394000D03*
X253339600Y-94394000D03*
X255879600Y-94394000D03*
X255879600Y-84234000D03*
X253339600Y-84234000D03*
X250799600Y-84234000D03*
X248259600Y-84234000D03*
X245719600Y-84234000D03*
X243179600Y-84234000D03*
X240639600Y-84234000D03*
X238099600Y-84234000D03*
%TD*%
D44*
%TO.C,R41*%
X75262100Y-128096000D03*
X77087100Y-128096000D03*
%TD*%
D43*
%TO.C,R27*%
X293703307Y-96092000D03*
X293703307Y-94267000D03*
%TD*%
D41*
%TO.C,M9*%
X243306600Y-104168002D03*
X243306600Y-102268000D03*
X241274600Y-103218001D03*
%TD*%
%TO.C,M6*%
X146050000Y-104265802D03*
X146050000Y-102365800D03*
X144018000Y-103315801D03*
%TD*%
D48*
%TO.C,U8*%
X241909600Y-74716000D03*
X244449600Y-74716000D03*
X246989600Y-74716000D03*
X249529600Y-74716000D03*
X252069600Y-74716000D03*
X241909600Y-44316000D03*
X244449600Y-44316000D03*
X246989600Y-44316000D03*
X249529600Y-44316000D03*
X252069600Y-44316000D03*
%TD*%
D24*
%TO.C,GND8*%
X183489600Y-120476000D03*
%TD*%
D41*
%TO.C,M14*%
X323951600Y-103961002D03*
X323951600Y-102061000D03*
X321919600Y-103011001D03*
%TD*%
D24*
%TO.C,GND6*%
X291439600Y-55706000D03*
%TD*%
D44*
%TO.C,R44*%
X342597100Y-128096000D03*
X344422100Y-128096000D03*
%TD*%
D43*
%TO.C,R30*%
X305895307Y-96092000D03*
X305895307Y-94267000D03*
%TD*%
D24*
%TO.C,GND7*%
X113639600Y-55706000D03*
%TD*%
D48*
%TO.C,U6*%
X64109600Y-74716000D03*
X66649600Y-74716000D03*
X69189600Y-74716000D03*
X71729600Y-74716000D03*
X74269600Y-74716000D03*
X64109600Y-44316000D03*
X66649600Y-44316000D03*
X69189600Y-44316000D03*
X71729600Y-44316000D03*
X74269600Y-44316000D03*
%TD*%
D21*
%TO.C,REF\u002A\u002A*%
X47218600Y-43942000D03*
%TD*%
D43*
%TO.C,R29*%
X285575307Y-96092000D03*
X285575307Y-94267000D03*
%TD*%
D41*
%TO.C,M10*%
X235051600Y-104154001D03*
X235051600Y-102253999D03*
X233019600Y-103204000D03*
%TD*%
D44*
%TO.C,R43*%
X253062100Y-128096000D03*
X254887100Y-128096000D03*
%TD*%
D42*
%TO.C,T1*%
X60274200Y-94417500D03*
X62814200Y-94417500D03*
X65354200Y-94417500D03*
X67894200Y-94417500D03*
X70434200Y-94417500D03*
X72974200Y-94417500D03*
X75514200Y-94417500D03*
X78054200Y-94417500D03*
X78054200Y-84257500D03*
X75514200Y-84257500D03*
X72974200Y-84257500D03*
X70434200Y-84257500D03*
X67894200Y-84257500D03*
X65354200Y-84257500D03*
X62814200Y-84257500D03*
X60274200Y-84257500D03*
%TD*%
D24*
%TO.C,PA14*%
X203809600Y-74756000D03*
%TD*%
D40*
%TO.C,R13*%
X334111600Y-107141000D03*
X334111600Y-108966000D03*
%TD*%
D41*
%TO.C,M18*%
X141579600Y-48782001D03*
X141579600Y-46881999D03*
X139547600Y-47832000D03*
%TD*%
%TO.C,M2*%
X57226200Y-103966000D03*
X57226200Y-102065998D03*
X55194200Y-103015999D03*
%TD*%
%TO.C,M12*%
X250926600Y-104168002D03*
X250926600Y-102268000D03*
X248894600Y-103218001D03*
%TD*%
%TO.C,M7*%
X168910000Y-104265802D03*
X168910000Y-102365800D03*
X166878000Y-103315801D03*
%TD*%
D40*
%TO.C,R1*%
X68554600Y-107539099D03*
X68554600Y-109364099D03*
%TD*%
D52*
%TO.C,M20*%
X317855600Y-48340000D03*
X319755602Y-48340000D03*
X318805601Y-46308000D03*
%TD*%
D43*
%TO.C,R31*%
X281511307Y-96092000D03*
X281511307Y-94267000D03*
%TD*%
%TO.C,R20*%
X99415601Y-95941500D03*
X99415601Y-94116500D03*
%TD*%
D40*
%TO.C,R5*%
X156311600Y-107856000D03*
X156311600Y-109681000D03*
%TD*%
%TO.C,R6*%
X148691600Y-107856000D03*
X148691600Y-109681000D03*
%TD*%
D43*
%TO.C,R21*%
X107543601Y-95941500D03*
X107543601Y-94116500D03*
%TD*%
D40*
%TO.C,R15*%
X348081600Y-107141000D03*
X348081600Y-108966000D03*
%TD*%
D41*
%TO.C,M13*%
X330936600Y-103961002D03*
X330936600Y-102061000D03*
X328904600Y-103011001D03*
%TD*%
D40*
%TO.C,R16*%
X341096600Y-107141000D03*
X341096600Y-108966000D03*
%TD*%
D44*
%TO.C,R34*%
X141567294Y-53296779D03*
X143392294Y-53296779D03*
%TD*%
D40*
%TO.C,R12*%
X254355600Y-107094000D03*
X254355600Y-108919000D03*
%TD*%
D24*
%TO.C,PA12*%
X181169451Y-79622658D03*
%TD*%
D40*
%TO.C,R7*%
X171551600Y-107856000D03*
X171551600Y-109681000D03*
%TD*%
D41*
%TO.C,M3*%
X80086200Y-103966000D03*
X80086200Y-102065998D03*
X78054200Y-103015999D03*
%TD*%
D53*
%TO.C,R36*%
X313688100Y-48340000D03*
X311863100Y-48340000D03*
%TD*%
D40*
%TO.C,R8*%
X163931600Y-107856000D03*
X163931600Y-109681000D03*
%TD*%
D24*
%TO.C,PA13*%
X192379600Y-79622658D03*
%TD*%
D53*
%TO.C,R35*%
X229463600Y-60024000D03*
X227638600Y-60024000D03*
%TD*%
D41*
%TO.C,M11*%
X257911600Y-104168002D03*
X257911600Y-102268000D03*
X255879600Y-103218001D03*
%TD*%
D49*
%TO.C,U4*%
X96494600Y-120411000D03*
X97764600Y-120411000D03*
X99034600Y-120411000D03*
X100304600Y-120411000D03*
X101574600Y-120411000D03*
X102844600Y-120411000D03*
X104114600Y-120411000D03*
X105384600Y-120411000D03*
X105384600Y-115461000D03*
X104114600Y-115461000D03*
X102844600Y-115461000D03*
X101574600Y-115461000D03*
X100304600Y-115461000D03*
X99034600Y-115461000D03*
X97764600Y-115461000D03*
X96494600Y-115461000D03*
%TD*%
D48*
%TO.C,U7*%
X153009600Y-74716000D03*
X155549600Y-74716000D03*
X158089600Y-74716000D03*
X160629600Y-74716000D03*
X163169600Y-74716000D03*
X153009600Y-44316000D03*
X155549600Y-44316000D03*
X158089600Y-44316000D03*
X160629600Y-44316000D03*
X163169600Y-44316000D03*
%TD*%
D21*
%TO.C,REF\u002A\u002A*%
X47282101Y-130937000D03*
%TD*%
%TO.C,REF\u002A\u002A*%
X202412600Y-87630000D03*
%TD*%
%TO.C,REF\u002A\u002A*%
X357860600Y-43942000D03*
%TD*%
D24*
%TO.C,GND1*%
X354939600Y-119206000D03*
%TD*%
D46*
%TO.C,PT3*%
X245714600Y-128096000D03*
D47*
X248254600Y-128096000D03*
%TD*%
D41*
%TO.C,M1*%
X64846200Y-103966000D03*
X64846200Y-102065998D03*
X62814200Y-103015999D03*
%TD*%
D43*
%TO.C,R25*%
X297767307Y-96092000D03*
X297767307Y-94267000D03*
%TD*%
D21*
%TO.C,REF\u002A\u002A*%
X357733600Y-130937000D03*
%TD*%
D46*
%TO.C,PT2*%
X156814600Y-128096000D03*
D47*
X159354600Y-128096000D03*
%TD*%
D42*
%TO.C,T4*%
X326999600Y-94441000D03*
X329539600Y-94441000D03*
X332079600Y-94441000D03*
X334619600Y-94441000D03*
X337159600Y-94441000D03*
X339699600Y-94441000D03*
X342239600Y-94441000D03*
X344779600Y-94441000D03*
X344779600Y-84281000D03*
X342239600Y-84281000D03*
X339699600Y-84281000D03*
X337159600Y-84281000D03*
X334619600Y-84281000D03*
X332079600Y-84281000D03*
X329539600Y-84281000D03*
X326999600Y-84281000D03*
%TD*%
D40*
%TO.C,R4*%
X76174600Y-107539099D03*
X76174600Y-109364099D03*
%TD*%
%TO.C,R9*%
X246735600Y-107094000D03*
X246735600Y-108919000D03*
%TD*%
M02*
